<?xml version="1.0" encoding="utf-8" standalone="no"?>
<!DOCTYPE svg PUBLIC "-//W3C//DTD SVG 1.1//EN"
  "http://www.w3.org/Graphics/SVG/1.1/DTD/svg11.dtd">
<svg xmlns:xlink="http://www.w3.org/1999/xlink" width="288pt" height="144pt" viewBox="0 0 288 144" xmlns="http://www.w3.org/2000/svg" version="1.1">
 <metadata>
  <rdf:RDF xmlns:dc="http://purl.org/dc/elements/1.1/" xmlns:cc="http://creativecommons.org/ns#" xmlns:rdf="http://www.w3.org/1999/02/22-rdf-syntax-ns#">
   <cc:Work>
    <dc:type rdf:resource="http://purl.org/dc/dcmitype/StillImage"/>
    <dc:date>2024-11-11T17:03:43.812233</dc:date>
    <dc:format>image/svg+xml</dc:format>
    <dc:creator>
     <cc:Agent>
      <dc:title>Matplotlib v3.9.2, https://matplotlib.org/</dc:title>
     </cc:Agent>
    </dc:creator>
   </cc:Work>
  </rdf:RDF>
 </metadata>
 <defs>
  <style type="text/css">*{stroke-linejoin: round; stroke-linecap: butt}</style>
 </defs>
 <g id="figure_1">
  <g id="patch_1">
   <path d="M 0 144 
L 288 144 
L 288 0 
L 0 0 
z
" style="fill: #ffffff"/>
  </g>
  <g id="axes_1">
   <g id="line2d_1">
    <path d="M 36 128.16 
L 259.2 128.16 
" clip-path="url(#pf1affa79e5)" style="fill: none; stroke: #000000; stroke-width: 0.5; stroke-linecap: square"/>
   </g>
   <g id="patch_2">
    <path d="M 46.121241 120.212188 
Q 45.274617 124.151737 44.35914 126.144416 
Q 43.443664 128.16 42.446585 128.16 
Q 39.4732 128.16 37.7366 113.226358 
Q 36 98.292716 36 72.754357 
Q 36 47.124379 37.7366 32.213642 
Q 39.4732 17.28 42.446585 17.28 
Q 43.443664 17.28 44.35914 19.295584 
Q 45.274617 21.288263 46.121241 25.227812 
L 46.121241 47.330518 
Q 45.266966 42.108325 44.438193 39.680463 
Q 43.609419 37.252601 42.693942 37.252601 
Q 41.051695 37.252601 40.110718 46.712101 
Q 39.172291 56.148697 39.172291 72.754357 
Q 39.172291 89.291303 40.110718 98.750804 
Q 41.051695 108.187399 42.693942 108.187399 
Q 43.609419 108.187399 44.438193 105.759537 
Q 45.266966 103.308771 46.121241 98.086577 
L 46.121241 120.212188 
z
" clip-path="url(#pf1affa79e5)" style="fill: #0000ff"/>
   </g>
   <g id="patch_3">
    <path d="M 53.664931 107.961114 
L 49.772464 107.961114 
L 49.157864 128.16 
L 46.653938 128.16 
L 50.229792 17.28 
L 53.199324 17.28 
L 56.775179 128.16 
L 54.273322 128.16 
L 53.664931 107.961114 
z
M 50.393272 87.382015 
L 53.037914 87.382015 
L 51.717663 43.277154 
L 50.393272 87.382015 
z
" clip-path="url(#pf1affa79e5)" style="fill: #008000"/>
   </g>
   <g id="patch_4">
    <path d="M 64.318868 107.961114 
L 60.426402 107.961114 
L 59.811802 128.16 
L 57.307876 128.16 
L 60.88373 17.28 
L 63.853262 17.28 
L 67.429117 128.16 
L 64.92726 128.16 
L 64.318868 107.961114 
z
M 61.04721 87.382015 
L 63.691852 87.382015 
L 62.3716 43.277154 
L 61.04721 87.382015 
z
" clip-path="url(#pf1affa79e5)" style="fill: #008000"/>
   </g>
   <g id="patch_5">
    <path d="M 78.083055 124.147156 
Q 77.062311 126.153578 75.964445 127.16137 
Q 74.866578 128.16 73.696125 128.16 
Q 71.051265 128.16 69.506539 122.186543 
Q 67.961814 116.213087 67.961814 105.997743 
Q 67.961814 95.663296 69.533759 89.735648 
Q 71.107973 83.808 73.845834 83.808 
Q 74.900603 83.808 75.866907 84.614233 
Q 76.835479 85.411305 77.692904 86.987125 
L 77.692904 95.828207 
Q 76.808259 93.803462 75.932688 92.804832 
Q 75.057117 91.79704 74.177009 91.79704 
Q 72.548356 91.79704 71.665979 95.480061 
Q 70.783603 99.15392 70.783603 105.997743 
Q 70.783603 112.777433 71.634223 116.478777 
Q 72.484843 120.17096 74.049983 120.17096 
Q 74.476427 120.17096 74.841627 119.96024 
Q 75.206826 119.740358 75.497171 119.282271 
L 75.497171 110.981731 
L 73.829956 110.981731 
L 73.829956 103.588204 
L 78.083055 103.588204 
L 78.083055 124.147156 
z
" clip-path="url(#pf1affa79e5)" style="fill: #ffa600"/>
   </g>
   <g id="patch_6">
    <path d="M 78.083055 79.039313 
Q 77.236431 81.403042 76.320954 82.59865 
Q 75.405478 83.808 74.408399 83.808 
Q 71.435014 83.808 69.698414 74.847815 
Q 67.961814 65.88763 67.961814 50.564614 
Q 67.961814 35.186628 69.698414 26.240185 
Q 71.435014 17.28 74.408399 17.28 
Q 75.405478 17.28 76.320954 18.48935 
Q 77.236431 19.684958 78.083055 22.048687 
L 78.083055 35.310311 
Q 77.22878 32.176995 76.400006 30.720278 
Q 75.571233 29.26356 74.655756 29.26356 
Q 73.013509 29.26356 72.072532 34.93926 
Q 71.134105 40.601218 71.134105 50.564614 
Q 71.134105 60.486782 72.072532 66.162482 
Q 73.013509 71.82444 74.655756 71.82444 
Q 75.571233 71.82444 76.400006 70.367722 
Q 77.22878 68.897263 78.083055 65.763946 
L 78.083055 79.039313 
z
" clip-path="url(#pf1affa79e5)" style="fill: #0000ff"/>
   </g>
   <g id="patch_7">
    <path d="M 78.615752 17.28 
L 88.736993 17.28 
L 88.736993 38.904689 
L 85.0957 38.904689 
L 85.0957 128.16 
L 82.264106 128.16 
L 82.264106 38.904689 
L 78.615752 38.904689 
L 78.615752 17.28 
z
" clip-path="url(#pf1affa79e5)" style="fill: #ff0000"/>
   </g>
   <g id="patch_8">
    <path d="M 96.280682 124.120223 
L 92.388216 124.120223 
L 91.773616 128.16 
L 89.26969 128.16 
L 92.845544 105.984 
L 95.815076 105.984 
L 99.390931 128.16 
L 96.889074 128.16 
L 96.280682 124.120223 
z
M 93.009024 120.004403 
L 95.653666 120.004403 
L 94.333414 111.183431 
L 93.009024 120.004403 
z
" clip-path="url(#pf1affa79e5)" style="fill: #008000"/>
   </g>
   <g id="patch_9">
    <path d="M 89.26969 17.28 
L 99.390931 17.28 
L 99.390931 34.579751 
L 95.749638 34.579751 
L 95.749638 105.984 
L 92.918044 105.984 
L 92.918044 34.579751 
L 89.26969 34.579751 
L 89.26969 17.28 
z
" clip-path="url(#pf1affa79e5)" style="fill: #ff0000"/>
   </g>
   <g id="patch_10">
    <path d="M 99.923628 17.28 
L 110.044869 17.28 
L 110.044869 38.904689 
L 106.403576 38.904689 
L 106.403576 128.16 
L 103.571982 128.16 
L 103.571982 38.904689 
L 99.923628 38.904689 
L 99.923628 17.28 
z
" clip-path="url(#pf1affa79e5)" style="fill: #ff0000"/>
   </g>
   <g id="patch_11">
    <path d="M 120.698807 118.127891 
Q 119.678063 123.143945 118.580196 125.663425 
Q 117.48233 128.16 116.311877 128.16 
Q 113.667017 128.16 112.122291 113.226358 
Q 110.577566 98.292716 110.577566 72.754357 
Q 110.577566 46.91824 112.149511 32.09912 
Q 113.723725 17.28 116.461586 17.28 
Q 117.516355 17.28 118.482659 19.295584 
Q 119.451231 21.288263 120.308656 25.227812 
L 120.308656 47.330518 
Q 119.424011 42.268655 118.54844 39.77208 
Q 117.672869 37.252601 116.792761 37.252601 
Q 115.164107 37.252601 114.281731 46.460153 
Q 113.399355 55.644801 113.399355 72.754357 
Q 113.399355 89.703582 114.249975 98.956943 
Q 115.100594 108.187399 116.665735 108.187399 
Q 117.092179 108.187399 117.457378 107.660599 
Q 117.822578 107.110894 118.112923 105.965677 
L 118.112923 85.214328 
L 116.445708 85.214328 
L 116.445708 66.73051 
L 120.698807 66.73051 
L 120.698807 118.127891 
z
" clip-path="url(#pf1affa79e5)" style="fill: #ffa600"/>
   </g>
   <g id="patch_12">
    <path d="M 121.231504 17.28 
L 131.352745 17.28 
L 131.352745 38.904689 
L 127.711452 38.904689 
L 127.711452 128.16 
L 124.879858 128.16 
L 124.879858 38.904689 
L 121.231504 38.904689 
L 121.231504 17.28 
z
" clip-path="url(#pf1affa79e5)" style="fill: #ff0000"/>
   </g>
   <g id="patch_13">
    <path d="M 138.896434 107.961114 
L 135.003967 107.961114 
L 134.389367 128.16 
L 131.885442 128.16 
L 135.461296 17.28 
L 138.430828 17.28 
L 142.006683 128.16 
L 139.504826 128.16 
L 138.896434 107.961114 
z
M 135.624776 87.382015 
L 138.269418 87.382015 
L 136.949166 43.277154 
L 135.624776 87.382015 
z
" clip-path="url(#pf1affa79e5)" style="fill: #008000"/>
   </g>
   <g id="patch_14">
    <path d="M 142.539379 17.28 
L 152.660621 17.28 
L 152.660621 38.904689 
L 149.019328 38.904689 
L 149.019328 128.16 
L 146.187734 128.16 
L 146.187734 38.904689 
L 142.539379 38.904689 
L 142.539379 17.28 
z
" clip-path="url(#pf1affa79e5)" style="fill: #ff0000"/>
   </g>
   <g id="patch_15">
    <path d="M 160.20431 107.961114 
L 156.311843 107.961114 
L 155.697243 128.16 
L 153.193317 128.16 
L 156.769172 17.28 
L 159.738704 17.28 
L 163.314558 128.16 
L 160.812702 128.16 
L 160.20431 107.961114 
z
M 156.932651 87.382015 
L 159.577294 87.382015 
L 158.257042 43.277154 
L 156.932651 87.382015 
z
" clip-path="url(#pf1affa79e5)" style="fill: #008000"/>
   </g>
   <g id="patch_16">
    <path d="M 170.858248 107.961114 
L 166.965781 107.961114 
L 166.351181 128.16 
L 163.847255 128.16 
L 167.42311 17.28 
L 170.392642 17.28 
L 173.968496 128.16 
L 171.46664 128.16 
L 170.858248 107.961114 
z
M 167.586589 87.382015 
L 170.231232 87.382015 
L 168.91098 43.277154 
L 167.586589 87.382015 
z
" clip-path="url(#pf1affa79e5)" style="fill: #008000"/>
   </g>
   <g id="patch_17">
    <path d="M 174.501193 17.28 
L 184.622434 17.28 
L 184.622434 38.904689 
L 180.981141 38.904689 
L 180.981141 128.16 
L 178.149548 128.16 
L 178.149548 38.904689 
L 174.501193 38.904689 
L 174.501193 17.28 
z
" clip-path="url(#pf1affa79e5)" style="fill: #ff0000"/>
   </g>
   <g id="patch_18">
    <path d="M 192.166124 107.961114 
L 188.273657 107.961114 
L 187.659057 128.16 
L 185.155131 128.16 
L 188.730986 17.28 
L 191.700518 17.28 
L 195.276372 128.16 
L 192.774516 128.16 
L 192.166124 107.961114 
z
M 188.894465 87.382015 
L 191.539108 87.382015 
L 190.218856 43.277154 
L 188.894465 87.382015 
z
" clip-path="url(#pf1affa79e5)" style="fill: #008000"/>
   </g>
   <g id="patch_19">
    <path d="M 202.820062 107.961114 
L 198.927595 107.961114 
L 198.312995 128.16 
L 195.809069 128.16 
L 199.384924 17.28 
L 202.354456 17.28 
L 205.93031 128.16 
L 203.428454 128.16 
L 202.820062 107.961114 
z
M 199.548403 87.382015 
L 202.193046 87.382015 
L 200.872794 43.277154 
L 199.548403 87.382015 
z
" clip-path="url(#pf1affa79e5)" style="fill: #008000"/>
   </g>
   <g id="patch_20">
    <path d="M 213.474 107.961114 
L 209.581533 107.961114 
L 208.966933 128.16 
L 206.463007 128.16 
L 210.038862 17.28 
L 213.008394 17.28 
L 216.584248 128.16 
L 214.082392 128.16 
L 213.474 107.961114 
z
M 210.202341 87.382015 
L 212.846984 87.382015 
L 211.526732 43.277154 
L 210.202341 87.382015 
z
" clip-path="url(#pf1affa79e5)" style="fill: #008000"/>
   </g>
   <g id="patch_21">
    <path d="M 227.238186 118.127891 
Q 226.217442 123.143945 225.119576 125.663425 
Q 224.021709 128.16 222.851256 128.16 
Q 220.206396 128.16 218.661671 113.226358 
Q 217.116945 98.292716 217.116945 72.754357 
Q 217.116945 46.91824 218.68889 32.09912 
Q 220.263104 17.28 223.000966 17.28 
Q 224.055734 17.28 225.022038 19.295584 
Q 225.990611 21.288263 226.848035 25.227812 
L 226.848035 47.330518 
Q 225.963391 42.268655 225.087819 39.77208 
Q 224.212248 37.252601 223.33214 37.252601 
Q 221.703487 37.252601 220.821111 46.460153 
Q 219.938734 55.644801 219.938734 72.754357 
Q 219.938734 89.703582 220.789354 98.956943 
Q 221.639974 108.187399 223.205114 108.187399 
Q 223.631558 108.187399 223.996758 107.660599 
Q 224.361957 107.110894 224.652302 105.965677 
L 224.652302 85.214328 
L 222.985087 85.214328 
L 222.985087 66.73051 
L 227.238186 66.73051 
L 227.238186 118.127891 
z
" clip-path="url(#pf1affa79e5)" style="fill: #ffa600"/>
   </g>
   <g id="patch_22">
    <path d="M 227.770883 17.28 
L 237.892124 17.28 
L 237.892124 38.904689 
L 234.250831 38.904689 
L 234.250831 128.16 
L 231.419237 128.16 
L 231.419237 38.904689 
L 227.770883 38.904689 
L 227.770883 17.28 
z
" clip-path="url(#pf1affa79e5)" style="fill: #ff0000"/>
   </g>
   <g id="patch_23">
    <path d="M 245.435814 120.080446 
L 241.543347 120.080446 
L 240.928747 128.16 
L 238.424821 128.16 
L 242.000676 83.808 
L 244.970208 83.808 
L 248.546062 128.16 
L 246.044205 128.16 
L 245.435814 120.080446 
z
M 242.164155 111.848806 
L 244.808797 111.848806 
L 243.488546 94.206862 
L 242.164155 111.848806 
z
" clip-path="url(#pf1affa79e5)" style="fill: #008000"/>
   </g>
   <g id="patch_24">
    <path d="M 238.424821 17.28 
L 248.546062 17.28 
L 248.546062 30.254814 
L 244.904769 30.254814 
L 244.904769 83.808 
L 242.073175 83.808 
L 242.073175 30.254814 
L 238.424821 30.254814 
L 238.424821 17.28 
z
" clip-path="url(#pf1affa79e5)" style="fill: #ff0000"/>
   </g>
   <g id="patch_25">
    <path d="M 259.2 118.127891 
Q 258.179256 123.143945 257.08139 125.663425 
Q 255.983523 128.16 254.81307 128.16 
Q 252.16821 128.16 250.623484 113.226358 
Q 249.078759 98.292716 249.078759 72.754357 
Q 249.078759 46.91824 250.650704 32.09912 
Q 252.224918 17.28 254.962779 17.28 
Q 256.017548 17.28 256.983852 19.295584 
Q 257.952424 21.288263 258.809849 25.227812 
L 258.809849 47.330518 
Q 257.925205 42.268655 257.049633 39.77208 
Q 256.174062 37.252601 255.293954 37.252601 
Q 253.665301 37.252601 252.782924 46.460153 
Q 251.900548 55.644801 251.900548 72.754357 
Q 251.900548 89.703582 252.751168 98.956943 
Q 253.601788 108.187399 255.166928 108.187399 
Q 255.593372 108.187399 255.958572 107.660599 
Q 256.323771 107.110894 256.614116 105.965677 
L 256.614116 85.214328 
L 254.946901 85.214328 
L 254.946901 66.73051 
L 259.2 66.73051 
L 259.2 118.127891 
z
" clip-path="url(#pf1affa79e5)" style="fill: #ffa600"/>
   </g>
  </g>
 </g>
 <defs>
  <clipPath id="pf1affa79e5">
   <rect x="36" y="17.28" width="223.2" height="110.88"/>
  </clipPath>
 </defs>
</svg>
