<?xml version="1.0" encoding="utf-8" standalone="no"?>
<!DOCTYPE svg PUBLIC "-//W3C//DTD SVG 1.1//EN"
  "http://www.w3.org/Graphics/SVG/1.1/DTD/svg11.dtd">
<svg xmlns:xlink="http://www.w3.org/1999/xlink" width="288pt" height="144pt" viewBox="0 0 288 144" xmlns="http://www.w3.org/2000/svg" version="1.1">
 <metadata>
  <rdf:RDF xmlns:dc="http://purl.org/dc/elements/1.1/" xmlns:cc="http://creativecommons.org/ns#" xmlns:rdf="http://www.w3.org/1999/02/22-rdf-syntax-ns#">
   <cc:Work>
    <dc:type rdf:resource="http://purl.org/dc/dcmitype/StillImage"/>
    <dc:date>2024-11-11T17:03:43.775079</dc:date>
    <dc:format>image/svg+xml</dc:format>
    <dc:creator>
     <cc:Agent>
      <dc:title>Matplotlib v3.9.2, https://matplotlib.org/</dc:title>
     </cc:Agent>
    </dc:creator>
   </cc:Work>
  </rdf:RDF>
 </metadata>
 <defs>
  <style type="text/css">*{stroke-linejoin: round; stroke-linecap: butt}</style>
 </defs>
 <g id="figure_1">
  <g id="patch_1">
   <path d="M 0 144 
L 288 144 
L 288 0 
L 0 0 
z
" style="fill: #ffffff"/>
  </g>
  <g id="axes_1">
   <g id="line2d_1">
    <path d="M 36 128.16 
L 259.2 128.16 
" clip-path="url(#pa498fbcac4)" style="fill: none; stroke: #000000; stroke-width: 0.5; stroke-linecap: square"/>
   </g>
   <g id="patch_2">
    <path d="M 44.498597 128.108154 
Q 43.6415 128.134077 42.719644 128.147098 
Q 41.797788 128.16 40.814983 128.16 
Q 38.594148 128.16 37.297074 128.082824 
Q 36 128.005647 36 127.873666 
Q 36 127.740146 37.31993 127.663561 
Q 38.641765 127.586977 40.940691 127.586977 
Q 41.826358 127.586977 42.637743 127.597393 
Q 43.451034 127.607691 44.170996 127.628051 
L 44.170996 127.742277 
Q 43.428178 127.716117 42.692979 127.703215 
Q 41.957779 127.690194 41.218771 127.690194 
Q 39.851224 127.690194 39.110311 127.737779 
Q 38.369398 127.785244 38.369398 127.873666 
Q 38.369398 127.961259 39.083646 128.00908 
Q 39.797894 128.056782 41.11211 128.056782 
Q 41.470186 128.056782 41.776837 128.05406 
Q 42.083487 128.051219 42.327284 128.045301 
L 42.327284 127.938059 
L 40.927358 127.938059 
L 40.927358 127.842535 
L 44.498597 127.842535 
L 44.498597 128.108154 
z
" clip-path="url(#pa498fbcac4)" style="fill: #ffa600"/>
   </g>
   <g id="patch_3">
    <path d="M 36 125.867907 
L 44.498597 125.867907 
L 44.498597 126.203173 
L 41.441079 126.203173 
L 41.441079 127.586977 
L 39.063448 127.586977 
L 39.063448 126.203173 
L 36 126.203173 
L 36 125.867907 
z
" clip-path="url(#pa498fbcac4)" style="fill: #ff0000"/>
   </g>
   <g id="patch_4">
    <path d="M 44.498597 125.642 
Q 43.787704 125.753977 43.018998 125.810616 
Q 42.250291 125.867907 41.413065 125.867907 
Q 38.916374 125.867907 37.458187 125.443437 
Q 36 125.018966 36 124.29307 
Q 36 123.564569 37.458187 123.14075 
Q 38.916374 122.716279 41.413065 122.716279 
Q 42.250291 122.716279 43.018998 122.77357 
Q 43.787704 122.830209 44.498597 122.942186 
L 44.498597 123.570428 
Q 43.78128 123.421994 43.085376 123.352985 
Q 42.389472 123.283976 41.620765 123.283976 
Q 40.241804 123.283976 39.451685 123.55285 
Q 38.663707 123.821074 38.663707 124.29307 
Q 38.663707 124.763112 39.451685 125.031987 
Q 40.241804 125.30021 41.620765 125.30021 
Q 42.389472 125.30021 43.085376 125.231201 
Q 43.78128 125.161541 44.498597 125.013107 
L 44.498597 125.642 
z
" clip-path="url(#pa498fbcac4)" style="fill: #0000ff"/>
   </g>
   <g id="patch_5">
    <path d="M 41.886986 109.459129 
L 38.618562 109.459129 
L 38.102495 122.716279 
L 36 122.716279 
L 39.002571 49.942326 
L 41.496026 49.942326 
L 44.498597 122.716279 
L 42.39784 122.716279 
L 41.886986 109.459129 
z
M 39.139842 95.952433 
L 41.360493 95.952433 
L 40.251905 67.005057 
L 39.139842 95.952433 
z
" clip-path="url(#pa498fbcac4)" style="fill: #008000"/>
   </g>
   <g id="patch_6">
    <path d="M 53.444489 120.212188 
Q 52.733596 124.151737 51.964889 126.144416 
Q 51.196183 128.16 50.358956 128.16 
Q 47.862266 128.16 46.404079 113.226358 
Q 44.945892 98.292716 44.945892 72.754357 
Q 44.945892 47.124379 46.404079 32.213642 
Q 47.862266 17.28 50.358956 17.28 
Q 51.196183 17.28 51.964889 19.295584 
Q 52.733596 21.288263 53.444489 25.227812 
L 53.444489 47.330518 
Q 52.727172 42.108325 52.031268 39.680463 
Q 51.335364 37.252601 50.566657 37.252601 
Q 49.187696 37.252601 48.397577 46.712101 
Q 47.609599 56.148697 47.609599 72.754357 
Q 47.609599 89.291303 48.397577 98.750804 
Q 49.187696 108.187399 50.566657 108.187399 
Q 51.335364 108.187399 52.031268 105.759537 
Q 52.727172 103.308771 53.444489 98.086577 
L 53.444489 120.212188 
z
" clip-path="url(#pa498fbcac4)" style="fill: #0000ff"/>
   </g>
   <g id="patch_7">
    <path d="M 53.891784 111.542326 
L 62.390381 111.542326 
L 62.390381 114.783235 
L 59.332862 114.783235 
L 59.332862 128.16 
L 56.955231 128.16 
L 56.955231 114.783235 
L 53.891784 114.783235 
L 53.891784 111.542326 
z
" clip-path="url(#pa498fbcac4)" style="fill: #ff0000"/>
   </g>
   <g id="patch_8">
    <path d="M 59.778769 105.331299 
L 56.510345 105.331299 
L 55.994278 111.542326 
L 53.891784 111.542326 
L 56.894355 77.447442 
L 59.38781 77.447442 
L 62.390381 111.542326 
L 60.289623 111.542326 
L 59.778769 105.331299 
z
M 57.031625 99.003358 
L 59.252277 99.003358 
L 58.143689 85.441399 
L 57.031625 99.003358 
z
" clip-path="url(#pa498fbcac4)" style="fill: #008000"/>
   </g>
   <g id="patch_9">
    <path d="M 62.390381 73.134675 
Q 61.679488 75.272416 60.910781 76.353714 
Q 60.142075 77.447442 59.304848 77.447442 
Q 56.808158 77.447442 55.349971 69.343915 
Q 53.891784 61.240389 53.891784 47.382364 
Q 53.891784 33.474624 55.349971 25.383527 
Q 56.808158 17.28 59.304848 17.28 
Q 60.142075 17.28 60.910781 18.373728 
Q 61.679488 19.455026 62.390381 21.592766 
L 62.390381 33.586483 
Q 61.673064 30.752734 60.97716 29.43529 
Q 60.281255 28.117845 59.512549 28.117845 
Q 58.133588 28.117845 57.343469 33.250907 
Q 56.555491 38.371541 56.555491 47.382364 
Q 56.555491 56.355901 57.343469 61.488963 
Q 58.133588 66.609597 59.512549 66.609597 
Q 60.281255 66.609597 60.97716 65.292152 
Q 61.673064 63.962279 62.390381 61.12853 
L 62.390381 73.134675 
z
" clip-path="url(#pa498fbcac4)" style="fill: #0000ff"/>
   </g>
   <g id="patch_10">
    <path d="M 62.837675 111.542326 
L 71.336273 111.542326 
L 71.336273 114.783235 
L 68.278754 114.783235 
L 68.278754 128.16 
L 65.901123 128.16 
L 65.901123 114.783235 
L 62.837675 114.783235 
L 62.837675 111.542326 
z
" clip-path="url(#pa498fbcac4)" style="fill: #ff0000"/>
   </g>
   <g id="patch_11">
    <path d="M 68.724661 94.370663 
L 65.456237 94.370663 
L 64.94017 111.542326 
L 62.837675 111.542326 
L 65.840247 17.28 
L 68.333701 17.28 
L 71.336273 111.542326 
L 69.235515 111.542326 
L 68.724661 94.370663 
z
M 65.977517 76.875769 
L 68.198169 76.875769 
L 67.08958 39.38094 
L 65.977517 76.875769 
z
" clip-path="url(#pa498fbcac4)" style="fill: #008000"/>
   </g>
   <g id="patch_12">
    <path d="M 80.282164 128.134077 
Q 79.425067 128.147039 78.503211 128.153549 
Q 77.581355 128.16 76.59855 128.16 
Q 74.377715 128.16 73.080641 128.121412 
Q 71.783567 128.082824 71.783567 128.016833 
Q 71.783567 127.950073 73.103497 127.911781 
Q 74.425332 127.873488 76.724258 127.873488 
Q 77.609925 127.873488 78.421311 127.878697 
Q 79.234601 127.883846 79.954563 127.894025 
L 79.954563 127.951138 
Q 79.211745 127.938059 78.476546 127.931607 
Q 77.741347 127.925097 77.002338 127.925097 
Q 75.634792 127.925097 74.893878 127.948889 
Q 74.152965 127.972622 74.152965 128.016833 
Q 74.152965 128.060629 74.867213 128.08454 
Q 75.581461 128.108391 76.895677 128.108391 
Q 77.253753 128.108391 77.560404 128.10703 
Q 77.867054 128.10561 78.110851 128.10265 
L 78.110851 128.049029 
L 76.710925 128.049029 
L 76.710925 128.001267 
L 80.282164 128.001267 
L 80.282164 128.134077 
z
" clip-path="url(#pa498fbcac4)" style="fill: #ffa600"/>
   </g>
   <g id="patch_13">
    <path d="M 77.670553 124.846265 
L 74.402129 124.846265 
L 73.886062 127.873488 
L 71.783567 127.873488 
L 74.786138 111.255814 
L 77.279593 111.255814 
L 80.282164 127.873488 
L 78.181407 127.873488 
L 77.670553 124.846265 
z
M 74.923409 121.762059 
L 77.14406 121.762059 
L 76.035472 115.152028 
L 74.923409 121.762059 
z
" clip-path="url(#pa498fbcac4)" style="fill: #008000"/>
   </g>
   <g id="patch_14">
    <path d="M 80.282164 104.519684 
Q 79.571271 107.85863 78.802565 109.547516 
Q 78.033858 111.255814 77.196632 111.255814 
Q 74.699941 111.255814 73.241754 98.598877 
Q 71.783567 85.94194 71.783567 64.297026 
Q 71.783567 42.574461 73.241754 29.936937 
Q 74.699941 17.28 77.196632 17.28 
Q 78.033858 17.28 78.802565 18.988298 
Q 79.571271 20.677184 80.282164 24.01613 
L 80.282164 42.749173 
Q 79.564848 38.323128 78.868943 36.265405 
Q 78.173039 34.207682 77.404332 34.207682 
Q 76.025371 34.207682 75.235252 42.225036 
Q 74.447275 50.222978 74.447275 64.297026 
Q 74.447275 78.312836 75.235252 86.33019 
Q 76.025371 94.328132 77.404332 94.328132 
Q 78.173039 94.328132 78.868943 92.270409 
Q 79.564848 90.193274 80.282164 85.767228 
L 80.282164 104.519684 
z
" clip-path="url(#pa498fbcac4)" style="fill: #0000ff"/>
   </g>
   <g id="patch_15">
    <path d="M 80.729459 17.28 
L 89.228056 17.28 
L 89.228056 38.904689 
L 86.170538 38.904689 
L 86.170538 128.16 
L 83.792907 128.16 
L 83.792907 38.904689 
L 80.729459 38.904689 
L 80.729459 17.28 
z
" clip-path="url(#pa498fbcac4)" style="fill: #ff0000"/>
   </g>
   <g id="patch_16">
    <path d="M 89.675351 17.28 
L 98.173948 17.28 
L 98.173948 38.904689 
L 95.116429 38.904689 
L 95.116429 128.16 
L 92.738799 128.16 
L 92.738799 38.904689 
L 89.675351 38.904689 
L 89.675351 17.28 
z
" clip-path="url(#pa498fbcac4)" style="fill: #ff0000"/>
   </g>
   <g id="patch_17">
    <path d="M 98.621242 17.28 
L 107.11984 17.28 
L 107.11984 38.904689 
L 104.062321 38.904689 
L 104.062321 128.16 
L 101.68469 128.16 
L 101.68469 38.904689 
L 98.621242 38.904689 
L 98.621242 17.28 
z
" clip-path="url(#pa498fbcac4)" style="fill: #ff0000"/>
   </g>
   <g id="patch_18">
    <path d="M 116.065731 118.127891 
Q 115.208634 123.143945 114.286778 125.663425 
Q 113.364922 128.16 112.382117 128.16 
Q 110.161282 128.16 108.864208 113.226358 
Q 107.567134 98.292716 107.567134 72.754357 
Q 107.567134 46.91824 108.887064 32.09912 
Q 110.208899 17.28 112.507825 17.28 
Q 113.393492 17.28 114.204878 19.295584 
Q 115.018168 21.288263 115.73813 25.227812 
L 115.73813 47.330518 
Q 114.995312 42.268655 114.260113 39.77208 
Q 113.524914 37.252601 112.785905 37.252601 
Q 111.418359 37.252601 110.677446 46.460153 
Q 109.936533 55.644801 109.936533 72.754357 
Q 109.936533 89.703582 110.65078 98.956943 
Q 111.365028 108.187399 112.679244 108.187399 
Q 113.037321 108.187399 113.343971 107.660599 
Q 113.650621 107.110894 113.894418 105.965677 
L 113.894418 85.214328 
L 112.494492 85.214328 
L 112.494492 66.73051 
L 116.065731 66.73051 
L 116.065731 118.127891 
z
" clip-path="url(#pa498fbcac4)" style="fill: #ffa600"/>
   </g>
   <g id="patch_19">
    <path d="M 116.513026 17.28 
L 125.011623 17.28 
L 125.011623 38.904689 
L 121.954105 38.904689 
L 121.954105 128.16 
L 119.576474 128.16 
L 119.576474 38.904689 
L 116.513026 38.904689 
L 116.513026 17.28 
z
" clip-path="url(#pa498fbcac4)" style="fill: #ff0000"/>
   </g>
   <g id="patch_20">
    <path d="M 131.345904 107.961114 
L 128.07748 107.961114 
L 127.561413 128.16 
L 125.458918 128.16 
L 128.461489 17.28 
L 130.954944 17.28 
L 133.957515 128.16 
L 131.856758 128.16 
L 131.345904 107.961114 
z
M 128.598759 87.382015 
L 130.819411 87.382015 
L 129.710823 43.277154 
L 128.598759 87.382015 
z
" clip-path="url(#pa498fbcac4)" style="fill: #008000"/>
   </g>
   <g id="patch_21">
    <path d="M 142.903407 120.212188 
Q 142.192514 124.151737 141.423807 126.144416 
Q 140.655101 128.16 139.817874 128.16 
Q 137.321184 128.16 135.862997 113.226358 
Q 134.40481 98.292716 134.40481 72.754357 
Q 134.40481 47.124379 135.862997 32.213642 
Q 137.321184 17.28 139.817874 17.28 
Q 140.655101 17.28 141.423807 19.295584 
Q 142.192514 21.288263 142.903407 25.227812 
L 142.903407 47.330518 
Q 142.18609 42.108325 141.490186 39.680463 
Q 140.794282 37.252601 140.025575 37.252601 
Q 138.646614 37.252601 137.856495 46.712101 
Q 137.068517 56.148697 137.068517 72.754357 
Q 137.068517 89.291303 137.856495 98.750804 
Q 138.646614 108.187399 140.025575 108.187399 
Q 140.794282 108.187399 141.490186 105.759537 
Q 142.18609 103.308771 142.903407 98.086577 
L 142.903407 120.212188 
z
" clip-path="url(#pa498fbcac4)" style="fill: #0000ff"/>
   </g>
   <g id="patch_22">
    <path d="M 149.237687 107.961114 
L 145.969263 107.961114 
L 145.453196 128.16 
L 143.350701 128.16 
L 146.353273 17.28 
L 148.846727 17.28 
L 151.849299 128.16 
L 149.748541 128.16 
L 149.237687 107.961114 
z
M 146.490543 87.382015 
L 148.711195 87.382015 
L 147.602606 43.277154 
L 146.490543 87.382015 
z
" clip-path="url(#pa498fbcac4)" style="fill: #008000"/>
   </g>
   <g id="patch_23">
    <path d="M 158.183579 107.961114 
L 154.915155 107.961114 
L 154.399088 128.16 
L 152.296593 128.16 
L 155.299164 17.28 
L 157.792619 17.28 
L 160.79519 128.16 
L 158.694433 128.16 
L 158.183579 107.961114 
z
M 155.436435 87.382015 
L 157.657086 87.382015 
L 156.548498 43.277154 
L 155.436435 87.382015 
z
" clip-path="url(#pa498fbcac4)" style="fill: #008000"/>
   </g>
   <g id="patch_24">
    <path d="M 169.741082 118.127891 
Q 168.883985 123.143945 167.962129 125.663425 
Q 167.040273 128.16 166.057468 128.16 
Q 163.836633 128.16 162.539559 113.226358 
Q 161.242485 98.292716 161.242485 72.754357 
Q 161.242485 46.91824 162.562415 32.09912 
Q 163.88425 17.28 166.183175 17.28 
Q 167.068843 17.28 167.880228 19.295584 
Q 168.693519 21.288263 169.41348 25.227812 
L 169.41348 47.330518 
Q 168.670663 42.268655 167.935464 39.77208 
Q 167.200264 37.252601 166.461256 37.252601 
Q 165.093709 37.252601 164.352796 46.460153 
Q 163.611883 55.644801 163.611883 72.754357 
Q 163.611883 89.703582 164.326131 98.956943 
Q 165.040379 108.187399 166.354595 108.187399 
Q 166.712671 108.187399 167.019322 107.660599 
Q 167.325972 107.110894 167.569769 105.965677 
L 167.569769 85.214328 
L 166.169843 85.214328 
L 166.169843 66.73051 
L 169.741082 66.73051 
L 169.741082 118.127891 
z
" clip-path="url(#pa498fbcac4)" style="fill: #ffa600"/>
   </g>
   <g id="patch_25">
    <path d="M 176.075363 107.961114 
L 172.806939 107.961114 
L 172.290872 128.16 
L 170.188377 128.16 
L 173.190948 17.28 
L 175.684403 17.28 
L 178.686974 128.16 
L 176.586217 128.16 
L 176.075363 107.961114 
z
M 173.328218 87.382015 
L 175.54887 87.382015 
L 174.440282 43.277154 
L 173.328218 87.382015 
z
" clip-path="url(#pa498fbcac4)" style="fill: #008000"/>
   </g>
   <g id="patch_26">
    <path d="M 185.021254 107.961114 
L 181.75283 107.961114 
L 181.236763 128.16 
L 179.134269 128.16 
L 182.13684 17.28 
L 184.630294 17.28 
L 187.632866 128.16 
L 185.532108 128.16 
L 185.021254 107.961114 
z
M 182.27411 87.382015 
L 184.494762 87.382015 
L 183.386174 43.277154 
L 182.27411 87.382015 
z
" clip-path="url(#pa498fbcac4)" style="fill: #008000"/>
   </g>
   <g id="patch_27">
    <path d="M 193.967146 107.961114 
L 190.698722 107.961114 
L 190.182655 128.16 
L 188.08016 128.16 
L 191.082732 17.28 
L 193.576186 17.28 
L 196.578758 128.16 
L 194.478 128.16 
L 193.967146 107.961114 
z
M 191.220002 87.382015 
L 193.440654 87.382015 
L 192.332065 43.277154 
L 191.220002 87.382015 
z
" clip-path="url(#pa498fbcac4)" style="fill: #008000"/>
   </g>
   <g id="patch_28">
    <path d="M 205.524649 128.118926 
Q 204.813756 128.139285 204.04505 128.149584 
Q 203.276343 128.16 202.439117 128.16 
Q 199.942426 128.16 198.484239 128.082824 
Q 197.026052 128.005647 197.026052 127.873666 
Q 197.026052 127.741211 198.484239 127.664153 
Q 199.942426 127.586977 202.439117 127.586977 
Q 203.276343 127.586977 204.04505 127.597393 
Q 204.813756 127.607691 205.524649 127.628051 
L 205.524649 127.742277 
Q 204.807333 127.715288 204.111428 127.702741 
Q 203.415524 127.690194 202.646817 127.690194 
Q 201.267856 127.690194 200.477737 127.739081 
Q 199.68976 127.787849 199.68976 127.873666 
Q 199.68976 127.959128 200.477737 128.008014 
Q 201.267856 128.056782 202.646817 128.056782 
Q 203.415524 128.056782 204.111428 128.044235 
Q 204.807333 128.03157 205.524649 128.004582 
L 205.524649 128.118926 
z
" clip-path="url(#pa498fbcac4)" style="fill: #0000ff"/>
   </g>
   <g id="patch_29">
    <path d="M 197.026052 125.581395 
L 205.524649 125.581395 
L 205.524649 125.97254 
L 202.467131 125.97254 
L 202.467131 127.586977 
L 200.0895 127.586977 
L 200.0895 125.97254 
L 197.026052 125.97254 
L 197.026052 125.581395 
z
" clip-path="url(#pa498fbcac4)" style="fill: #ff0000"/>
   </g>
   <g id="patch_30">
    <path d="M 205.524649 115.782591 
Q 204.667552 120.681993 203.745696 123.14288 
Q 202.82384 125.581395 201.841035 125.581395 
Q 199.6202 125.581395 198.323126 110.995048 
Q 197.026052 96.4087 197.026052 71.464255 
Q 197.026052 46.228979 198.345982 31.754489 
Q 199.667817 17.28 201.966743 17.28 
Q 202.85241 17.28 203.663796 19.24871 
Q 204.477086 21.195047 205.197048 25.04298 
L 205.197048 46.631669 
Q 204.45423 41.687524 203.719031 39.249009 
Q 202.983832 36.788122 202.244823 36.788122 
Q 200.877277 36.788122 200.136363 45.781545 
Q 199.39545 54.752596 199.39545 71.464255 
Q 199.39545 88.019313 200.109698 97.057479 
Q 200.823946 106.073274 202.138162 106.073274 
Q 202.496238 106.073274 202.802889 105.558725 
Q 203.109539 105.021804 203.353336 103.903219 
L 203.353336 83.63446 
L 201.95341 83.63446 
L 201.95341 65.580498 
L 205.524649 65.580498 
L 205.524649 115.782591 
z
" clip-path="url(#pa498fbcac4)" style="fill: #ffa600"/>
   </g>
   <g id="patch_31">
    <path d="M 211.85893 128.107806 
L 208.590506 128.107806 
L 208.074439 128.16 
L 205.971944 128.16 
L 208.974515 127.873488 
L 211.46797 127.873488 
L 214.470541 128.16 
L 212.369784 128.16 
L 211.85893 128.107806 
z
M 209.111785 128.054631 
L 211.332437 128.054631 
L 210.223849 127.940664 
L 209.111785 128.054631 
z
" clip-path="url(#pa498fbcac4)" style="fill: #008000"/>
   </g>
   <g id="patch_32">
    <path d="M 214.470541 127.847566 
Q 213.613444 127.860527 212.691588 127.867037 
Q 211.769732 127.873488 210.786927 127.873488 
Q 208.566092 127.873488 207.269018 127.8349 
Q 205.971944 127.796312 205.971944 127.730321 
Q 205.971944 127.663561 207.291874 127.625269 
Q 208.613709 127.586977 210.912634 127.586977 
Q 211.798302 127.586977 212.609687 127.592185 
Q 213.422978 127.597334 214.142939 127.607514 
L 214.142939 127.664627 
Q 213.400122 127.651547 212.664922 127.645096 
Q 211.929723 127.638586 211.190715 127.638586 
Q 209.823168 127.638586 209.082255 127.662378 
Q 208.341342 127.686111 208.341342 127.730321 
Q 208.341342 127.774118 209.05559 127.798028 
Q 209.769838 127.82188 211.084054 127.82188 
Q 211.44213 127.82188 211.748781 127.820518 
Q 212.055431 127.819098 212.299228 127.816139 
L 212.299228 127.762518 
L 210.899302 127.762518 
L 210.899302 127.714756 
L 214.470541 127.714756 
L 214.470541 127.847566 
z
" clip-path="url(#pa498fbcac4)" style="fill: #ffa600"/>
   </g>
   <g id="patch_33">
    <path d="M 214.470541 125.019854 
Q 213.759648 126.292318 212.990942 126.935948 
Q 212.222235 127.586977 211.385009 127.586977 
Q 208.888318 127.586977 207.430131 122.763449 
Q 205.971944 117.939921 205.971944 109.691097 
Q 205.971944 101.412681 207.430131 96.596551 
Q 208.888318 91.773023 211.385009 91.773023 
Q 212.222235 91.773023 212.990942 92.424052 
Q 213.759648 93.067682 214.470541 94.340146 
L 214.470541 101.479263 
Q 213.753224 99.792508 213.05732 99.008315 
Q 212.361416 98.224122 211.592709 98.224122 
Q 210.213748 98.224122 209.423629 101.279516 
Q 208.635651 104.327512 208.635651 109.691097 
Q 208.635651 115.032488 209.423629 118.087882 
Q 210.213748 121.135878 211.592709 121.135878 
Q 212.361416 121.135878 213.05732 120.351685 
Q 213.753224 119.560094 214.470541 117.873339 
L 214.470541 125.019854 
z
" clip-path="url(#pa498fbcac4)" style="fill: #0000ff"/>
   </g>
   <g id="patch_34">
    <path d="M 205.971944 17.28 
L 214.470541 17.28 
L 214.470541 31.808215 
L 211.413023 31.808215 
L 211.413023 91.773023 
L 209.035392 91.773023 
L 209.035392 31.808215 
L 205.971944 31.808215 
L 205.971944 17.28 
z
" clip-path="url(#pa498fbcac4)" style="fill: #ff0000"/>
   </g>
   <g id="patch_35">
    <path d="M 220.804821 128.003419 
L 217.536398 128.003419 
L 217.020331 128.16 
L 214.917836 128.16 
L 217.920407 127.300465 
L 220.413862 127.300465 
L 223.416433 128.16 
L 221.315676 128.16 
L 220.804821 128.003419 
z
M 218.057677 127.843892 
L 220.278329 127.843892 
L 219.169741 127.501993 
L 218.057677 127.843892 
z
" clip-path="url(#pa498fbcac4)" style="fill: #008000"/>
   </g>
   <g id="patch_36">
    <path d="M 223.416433 127.238854 
Q 222.70554 127.269393 221.936833 127.28484 
Q 221.168127 127.300465 220.3309 127.300465 
Q 217.83421 127.300465 216.376023 127.1847 
Q 214.917836 127.068936 214.917836 126.870964 
Q 214.917836 126.672282 216.376023 126.556695 
Q 217.83421 126.44093 220.3309 126.44093 
Q 221.168127 126.44093 221.936833 126.456555 
Q 222.70554 126.472002 223.416433 126.502541 
L 223.416433 126.67388 
Q 222.699116 126.633398 222.003212 126.614577 
Q 221.307308 126.595757 220.538601 126.595757 
Q 219.15964 126.595757 218.369521 126.669086 
Q 217.581543 126.742238 217.581543 126.870964 
Q 217.581543 126.999157 218.369521 127.072487 
Q 219.15964 127.145639 220.538601 127.145639 
Q 221.307308 127.145639 222.003212 127.126818 
Q 222.699116 127.10782 223.416433 127.067338 
L 223.416433 127.238854 
z
" clip-path="url(#pa498fbcac4)" style="fill: #0000ff"/>
   </g>
   <g id="patch_37">
    <path d="M 223.416433 126.207625 
Q 222.559335 126.324278 221.63748 126.38287 
Q 220.715624 126.44093 219.732819 126.44093 
Q 217.511984 126.44093 216.21491 126.093636 
Q 214.917836 125.746342 214.917836 125.152427 
Q 214.917836 124.551587 216.237766 124.206956 
Q 217.5596 123.862326 219.858526 123.862326 
Q 220.744194 123.862326 221.555579 123.9092 
Q 222.368869 123.955541 223.088831 124.047158 
L 223.088831 124.561175 
Q 222.346013 124.443457 221.610814 124.385397 
Q 220.875615 124.326805 220.136607 124.326805 
Q 218.76906 124.326805 218.028147 124.540934 
Q 217.287234 124.75453 217.287234 125.152427 
Q 217.287234 125.546595 218.001482 125.761789 
Q 218.71573 125.976451 220.029946 125.976451 
Q 220.388022 125.976451 220.694672 125.9642 
Q 221.001323 125.951416 221.245119 125.924783 
L 221.245119 125.442194 
L 219.845194 125.442194 
L 219.845194 125.012337 
L 223.416433 125.012337 
L 223.416433 126.207625 
z
" clip-path="url(#pa498fbcac4)" style="fill: #ffa600"/>
   </g>
   <g id="patch_38">
    <path d="M 214.917836 17.28 
L 223.416433 17.28 
L 223.416433 38.066523 
L 220.358914 38.066523 
L 220.358914 123.862326 
L 217.981283 123.862326 
L 217.981283 38.066523 
L 214.917836 38.066523 
L 214.917836 17.28 
z
" clip-path="url(#pa498fbcac4)" style="fill: #ff0000"/>
   </g>
   <g id="patch_39">
    <path d="M 232.362325 118.127891 
Q 231.505227 123.143945 230.583371 125.663425 
Q 229.661515 128.16 228.67871 128.16 
Q 226.457876 128.16 225.160802 113.226358 
Q 223.863727 98.292716 223.863727 72.754357 
Q 223.863727 46.91824 225.183657 32.09912 
Q 226.505492 17.28 228.804418 17.28 
Q 229.690085 17.28 230.501471 19.295584 
Q 231.314761 21.288263 232.034723 25.227812 
L 232.034723 47.330518 
Q 231.291905 42.268655 230.556706 39.77208 
Q 229.821507 37.252601 229.082498 37.252601 
Q 227.714952 37.252601 226.974039 46.460153 
Q 226.233126 55.644801 226.233126 72.754357 
Q 226.233126 89.703582 226.947374 98.956943 
Q 227.661621 108.187399 228.975837 108.187399 
Q 229.333914 108.187399 229.640564 107.660599 
Q 229.947215 107.110894 230.191011 105.965677 
L 230.191011 85.214328 
L 228.791085 85.214328 
L 228.791085 66.73051 
L 232.362325 66.73051 
L 232.362325 118.127891 
z
" clip-path="url(#pa498fbcac4)" style="fill: #ffa600"/>
   </g>
   <g id="patch_40">
    <path d="M 232.809619 114.407442 
L 241.308216 114.407442 
L 241.308216 117.089574 
L 238.250698 117.089574 
L 238.250698 128.16 
L 235.873067 128.16 
L 235.873067 117.089574 
L 232.809619 117.089574 
L 232.809619 114.407442 
z
" clip-path="url(#pa498fbcac4)" style="fill: #ff0000"/>
   </g>
   <g id="patch_41">
    <path d="M 241.308216 113.339519 
Q 240.597323 113.868864 239.828617 114.136614 
Q 239.05991 114.407442 238.222684 114.407442 
Q 235.725993 114.407442 234.267806 112.400854 
Q 232.809619 110.394267 232.809619 106.962756 
Q 232.809619 103.518935 234.267806 101.515425 
Q 235.725993 99.508837 238.222684 99.508837 
Q 239.05991 99.508837 239.828617 99.779665 
Q 240.597323 100.047415 241.308216 100.57676 
L 241.308216 103.546633 
Q 240.5909 102.844943 239.894995 102.518719 
Q 239.199091 102.192494 238.430385 102.192494 
Q 237.051423 102.192494 236.261304 103.463538 
Q 235.473327 104.731504 235.473327 106.962756 
Q 235.473327 109.184775 236.261304 110.455819 
Q 237.051423 111.723785 238.430385 111.723785 
Q 239.199091 111.723785 239.894995 111.397561 
Q 240.5909 111.068259 241.308216 110.366569 
L 241.308216 113.339519 
z
" clip-path="url(#pa498fbcac4)" style="fill: #0000ff"/>
   </g>
   <g id="patch_42">
    <path d="M 238.696605 93.036843 
L 235.428181 93.036843 
L 234.912114 99.508837 
L 232.809619 99.508837 
L 235.81219 63.981395 
L 238.305645 63.981395 
L 241.308216 99.508837 
L 239.207459 99.508837 
L 238.696605 93.036843 
z
M 235.949461 86.443023 
L 238.170112 86.443023 
L 237.061524 72.311233 
L 235.949461 86.443023 
z
" clip-path="url(#pa498fbcac4)" style="fill: #008000"/>
   </g>
   <g id="patch_43">
    <path d="M 241.308216 59.755985 
Q 240.451119 61.86869 239.529263 62.929866 
Q 238.607407 63.981395 237.624602 63.981395 
Q 235.403767 63.981395 234.106693 57.691515 
Q 232.809619 51.401635 232.809619 40.645168 
Q 232.809619 29.76329 234.129549 23.521645 
Q 235.451384 17.28 237.75031 17.28 
Q 238.635977 17.28 239.447363 18.128941 
Q 240.260653 18.968235 240.980615 20.627528 
L 240.980615 29.936937 
Q 240.237797 27.804937 239.502598 26.753408 
Q 238.767399 25.692232 238.02839 25.692232 
Q 236.660844 25.692232 235.919931 29.570349 
Q 235.179017 33.438818 235.179017 40.645168 
Q 235.179017 47.783989 235.893265 51.6814 
Q 236.607513 55.569163 237.921729 55.569163 
Q 238.279806 55.569163 238.586456 55.347281 
Q 238.893106 55.115751 239.136903 54.633399 
L 239.136903 45.893166 
L 237.736977 45.893166 
L 237.736977 38.107993 
L 241.308216 38.107993 
L 241.308216 59.755985 
z
" clip-path="url(#pa498fbcac4)" style="fill: #ffa600"/>
   </g>
   <g id="patch_44">
    <path d="M 247.642497 123.410391 
L 244.374073 123.410391 
L 243.858006 128.16 
L 241.755511 128.16 
L 244.758082 102.087442 
L 247.251537 102.087442 
L 250.254108 128.16 
L 248.153351 128.16 
L 247.642497 123.410391 
z
M 244.895353 118.571378 
L 247.116004 118.571378 
L 246.007416 108.200468 
L 244.895353 118.571378 
z
" clip-path="url(#pa498fbcac4)" style="fill: #008000"/>
   </g>
   <g id="patch_45">
    <path d="M 241.755511 75.44186 
L 250.254108 75.44186 
L 250.254108 80.638491 
L 247.19659 80.638491 
L 247.19659 102.087442 
L 244.818959 102.087442 
L 244.818959 80.638491 
L 241.755511 80.638491 
L 241.755511 75.44186 
z
" clip-path="url(#pa498fbcac4)" style="fill: #ff0000"/>
   </g>
   <g id="patch_46">
    <path d="M 250.254108 73.511384 
Q 249.543215 74.468277 248.774509 74.952287 
Q 248.005802 75.44186 247.168576 75.44186 
Q 244.671885 75.44186 243.213698 71.814568 
Q 241.755511 68.187275 241.755511 61.984159 
Q 241.755511 55.75879 243.213698 52.13706 
Q 244.671885 48.509767 247.168576 48.509767 
Q 248.005802 48.509767 248.774509 48.999341 
Q 249.543215 49.483351 250.254108 50.440244 
L 250.254108 55.80886 
Q 249.536791 54.54042 248.840887 53.950707 
Q 248.144983 53.360993 247.376276 53.360993 
Q 245.997315 53.360993 245.207196 55.65865 
Q 244.419218 57.950743 244.419218 61.984159 
Q 244.419218 66.000885 245.207196 68.298541 
Q 245.997315 70.590634 247.376276 70.590634 
Q 248.144983 70.590634 248.840887 70.000921 
Q 249.536791 69.405645 250.254108 68.137205 
L 250.254108 73.511384 
z
" clip-path="url(#pa498fbcac4)" style="fill: #0000ff"/>
   </g>
   <g id="patch_47">
    <path d="M 250.254108 45.684186 
Q 249.397011 47.096977 248.475155 47.806598 
Q 247.553299 48.509767 246.570494 48.509767 
Q 244.349659 48.509767 243.052585 44.303651 
Q 241.755511 40.097535 241.755511 32.90456 
Q 241.755511 25.627721 243.075441 21.453861 
Q 244.397276 17.28 246.696202 17.28 
Q 247.581869 17.28 248.393254 17.847697 
Q 249.206545 18.408942 249.926507 19.518531 
L 249.926507 25.743841 
Q 249.183689 24.318148 248.44849 23.614979 
Q 247.71329 22.905358 246.974282 22.905358 
Q 245.606735 22.905358 244.865822 25.498699 
Q 244.124909 28.08559 244.124909 32.90456 
Q 244.124909 37.678373 244.839157 40.284617 
Q 245.553405 42.88441 246.867621 42.88441 
Q 247.225697 42.88441 247.532348 42.736034 
Q 247.838998 42.581208 248.082795 42.258653 
L 248.082795 36.413958 
L 246.682869 36.413958 
L 246.682869 31.207921 
L 250.254108 31.207921 
L 250.254108 45.684186 
z
" clip-path="url(#pa498fbcac4)" style="fill: #ffa600"/>
   </g>
   <g id="patch_48">
    <path d="M 259.2 126.034333 
Q 258.342903 127.097167 257.421047 127.63101 
Q 256.499191 128.16 255.516386 128.16 
Q 253.295551 128.16 251.998477 124.995766 
Q 250.701403 121.831532 250.701403 116.420303 
Q 250.701403 110.945984 252.021333 107.806015 
Q 253.343168 104.666047 255.642093 104.666047 
Q 256.527761 104.666047 257.339146 105.093121 
Q 258.152436 105.515342 258.872398 106.350079 
L 258.872398 111.03334 
Q 258.129581 109.9608 257.394381 109.43181 
Q 256.659182 108.897967 255.920174 108.897967 
Q 254.552627 108.897967 253.811714 110.848921 
Q 253.070801 112.795022 253.070801 116.420303 
Q 253.070801 120.011612 253.785049 121.972272 
Q 254.499297 123.928079 255.813513 123.928079 
Q 256.171589 123.928079 256.478239 123.816458 
Q 256.78489 123.699983 257.028687 123.457327 
L 257.028687 119.0604 
L 255.628761 119.0604 
L 255.628761 115.143932 
L 259.2 115.143932 
L 259.2 126.034333 
z
" clip-path="url(#pa498fbcac4)" style="fill: #ffa600"/>
   </g>
   <g id="patch_49">
    <path d="M 259.2 102.756107 
Q 258.489107 103.702821 257.7204 104.181681 
Q 256.951694 104.666047 256.114467 104.666047 
Q 253.617777 104.666047 252.15959 101.077342 
Q 250.701403 97.488637 250.701403 91.351512 
Q 250.701403 85.19237 252.15959 81.60917 
Q 253.617777 78.020465 256.114467 78.020465 
Q 256.951694 78.020465 257.7204 78.50483 
Q 258.489107 78.983691 259.2 79.930405 
L 259.2 85.241908 
Q 258.482683 83.986962 257.786779 83.403522 
Q 257.090875 82.820082 256.322168 82.820082 
Q 254.943207 82.820082 254.153088 85.093296 
Q 253.36511 87.361005 253.36511 91.351512 
Q 253.36511 95.325507 254.153088 97.59872 
Q 254.943207 99.866429 256.322168 99.866429 
Q 257.090875 99.866429 257.786779 99.28299 
Q 258.482683 98.694046 259.2 97.4391 
L 259.2 102.756107 
z
" clip-path="url(#pa498fbcac4)" style="fill: #0000ff"/>
   </g>
   <g id="patch_50">
    <path d="M 250.701403 49.655814 
L 259.2 49.655814 
L 259.2 55.187711 
L 256.142481 55.187711 
L 256.142481 78.020465 
L 253.764851 78.020465 
L 253.764851 55.187711 
L 250.701403 55.187711 
L 250.701403 49.655814 
z
" clip-path="url(#pa498fbcac4)" style="fill: #ff0000"/>
   </g>
   <g id="patch_51">
    <path d="M 256.588389 43.757948 
L 253.319965 43.757948 
L 252.803898 49.655814 
L 250.701403 49.655814 
L 253.703974 17.28 
L 256.197429 17.28 
L 259.2 49.655814 
L 257.099243 49.655814 
L 256.588389 43.757948 
z
M 253.841244 37.749064 
L 256.061896 37.749064 
L 254.953308 24.8709 
L 253.841244 37.749064 
z
" clip-path="url(#pa498fbcac4)" style="fill: #008000"/>
   </g>
  </g>
 </g>
 <defs>
  <clipPath id="pa498fbcac4">
   <rect x="36" y="17.28" width="223.2" height="110.88"/>
  </clipPath>
 </defs>
</svg>
