<?xml version="1.0" encoding="utf-8" standalone="no"?>
<!DOCTYPE svg PUBLIC "-//W3C//DTD SVG 1.1//EN"
  "http://www.w3.org/Graphics/SVG/1.1/DTD/svg11.dtd">
<svg xmlns:xlink="http://www.w3.org/1999/xlink" width="288pt" height="144pt" viewBox="0 0 288 144" xmlns="http://www.w3.org/2000/svg" version="1.1">
 <metadata>
  <rdf:RDF xmlns:dc="http://purl.org/dc/elements/1.1/" xmlns:cc="http://creativecommons.org/ns#" xmlns:rdf="http://www.w3.org/1999/02/22-rdf-syntax-ns#">
   <cc:Work>
    <dc:type rdf:resource="http://purl.org/dc/dcmitype/StillImage"/>
    <dc:date>2024-11-11T17:03:43.694766</dc:date>
    <dc:format>image/svg+xml</dc:format>
    <dc:creator>
     <cc:Agent>
      <dc:title>Matplotlib v3.9.2, https://matplotlib.org/</dc:title>
     </cc:Agent>
    </dc:creator>
   </cc:Work>
  </rdf:RDF>
 </metadata>
 <defs>
  <style type="text/css">*{stroke-linejoin: round; stroke-linecap: butt}</style>
 </defs>
 <g id="figure_1">
  <g id="patch_1">
   <path d="M 0 144 
L 288 144 
L 288 0 
L 0 0 
z
" style="fill: #ffffff"/>
  </g>
  <g id="axes_1">
   <g id="line2d_1">
    <path d="M 36 128.16 
L 259.2 128.16 
" clip-path="url(#p992a1a58d3)" style="fill: none; stroke: #000000; stroke-width: 0.5; stroke-linecap: square"/>
   </g>
   <g id="patch_2">
    <path d="M 36 124.8 
L 44.498597 124.8 
L 44.498597 125.455294 
L 41.441079 125.455294 
L 41.441079 128.16 
L 39.063448 128.16 
L 39.063448 125.455294 
L 36 125.455294 
L 36 124.8 
z
" clip-path="url(#p992a1a58d3)" style="fill: #ff0000"/>
   </g>
   <g id="patch_3">
    <path d="M 44.498597 124.419996 
Q 43.6415 124.609998 42.719644 124.705433 
Q 41.797788 124.8 40.814983 124.8 
Q 38.594148 124.8 37.297074 124.234332 
Q 36 123.668663 36 122.701301 
Q 36 121.722661 37.31993 121.16133 
Q 38.641765 120.6 40.940691 120.6 
Q 41.826358 120.6 42.637743 120.676348 
Q 43.451034 120.751828 44.170996 120.901054 
L 44.170996 121.738277 
Q 43.428178 121.54654 42.692979 121.451973 
Q 41.957779 121.356538 41.218771 121.356538 
Q 39.851224 121.356538 39.110311 121.705309 
Q 38.369398 122.053212 38.369398 122.701301 
Q 38.369398 123.343317 39.083646 123.693824 
Q 39.797894 124.043462 41.11211 124.043462 
Q 41.470186 124.043462 41.776837 124.023508 
Q 42.083487 124.002685 42.327284 123.959306 
L 42.327284 123.17327 
L 40.927358 123.17327 
L 40.927358 122.473125 
L 44.498597 122.473125 
L 44.498597 124.419996 
z
" clip-path="url(#p992a1a58d3)" style="fill: #ffa600"/>
   </g>
   <g id="patch_4">
    <path d="M 44.498597 120.118314 
Q 43.787704 120.357075 43.018998 120.477843 
Q 42.250291 120.6 41.413065 120.6 
Q 38.916374 120.6 37.458187 119.694931 
Q 36 118.789862 36 117.242082 
Q 36 115.68875 37.458187 114.785069 
Q 38.916374 113.88 41.413065 113.88 
Q 42.250291 113.88 43.018998 114.002157 
Q 43.787704 114.122925 44.498597 114.361686 
L 44.498597 115.701244 
Q 43.78128 115.384747 43.085376 115.237604 
Q 42.389472 115.090461 41.620765 115.090461 
Q 40.241804 115.090461 39.451685 115.663764 
Q 38.663707 116.235679 38.663707 117.242082 
Q 38.663707 118.244321 39.451685 118.817624 
Q 40.241804 119.389539 41.620765 119.389539 
Q 42.389472 119.389539 43.085376 119.242396 
Q 43.78128 119.093865 44.498597 118.777368 
L 44.498597 120.118314 
z
" clip-path="url(#p992a1a58d3)" style="fill: #0000ff"/>
   </g>
   <g id="patch_5">
    <path d="M 41.886986 104.239623 
L 38.618562 104.239623 
L 38.102495 113.88 
L 36 113.88 
L 39.002571 60.96 
L 41.496026 60.96 
L 44.498597 113.88 
L 42.39784 113.88 
L 41.886986 104.239623 
z
M 39.139842 94.41778 
L 41.360493 94.41778 
L 40.251905 73.367733 
L 39.139842 94.41778 
z
" clip-path="url(#p992a1a58d3)" style="fill: #008000"/>
   </g>
   <g id="patch_6">
    <path d="M 53.444489 120.212188 
Q 52.733596 124.151737 51.964889 126.144416 
Q 51.196183 128.16 50.358956 128.16 
Q 47.862266 128.16 46.404079 113.226358 
Q 44.945892 98.292716 44.945892 72.754357 
Q 44.945892 47.124379 46.404079 32.213642 
Q 47.862266 17.28 50.358956 17.28 
Q 51.196183 17.28 51.964889 19.295584 
Q 52.733596 21.288263 53.444489 25.227812 
L 53.444489 47.330518 
Q 52.727172 42.108325 52.031268 39.680463 
Q 51.335364 37.252601 50.566657 37.252601 
Q 49.187696 37.252601 48.397577 46.712101 
Q 47.609599 56.148697 47.609599 72.754357 
Q 47.609599 89.291303 48.397577 98.750804 
Q 49.187696 108.187399 50.566657 108.187399 
Q 51.335364 108.187399 52.031268 105.759537 
Q 52.727172 103.308771 53.444489 98.086577 
L 53.444489 120.212188 
z
" clip-path="url(#p992a1a58d3)" style="fill: #0000ff"/>
   </g>
   <g id="patch_7">
    <path d="M 59.778769 107.961114 
L 56.510345 107.961114 
L 55.994278 128.16 
L 53.891784 128.16 
L 56.894355 17.28 
L 59.38781 17.28 
L 62.390381 128.16 
L 60.289623 128.16 
L 59.778769 107.961114 
z
M 57.031625 87.382015 
L 59.252277 87.382015 
L 58.143689 43.277154 
L 57.031625 87.382015 
z
" clip-path="url(#p992a1a58d3)" style="fill: #008000"/>
   </g>
   <g id="patch_8">
    <path d="M 68.724661 107.961114 
L 65.456237 107.961114 
L 64.94017 128.16 
L 62.837675 128.16 
L 65.840247 17.28 
L 68.333701 17.28 
L 71.336273 128.16 
L 69.235515 128.16 
L 68.724661 107.961114 
z
M 65.977517 87.382015 
L 68.198169 87.382015 
L 67.08958 43.277154 
L 65.977517 87.382015 
z
" clip-path="url(#p992a1a58d3)" style="fill: #008000"/>
   </g>
   <g id="patch_9">
    <path d="M 80.282164 124.607569 
Q 79.571271 126.368428 78.802565 127.259095 
Q 78.033858 128.16 77.196632 128.16 
Q 74.699941 128.16 73.241754 121.485115 
Q 71.783567 114.810229 71.783567 103.395356 
Q 71.783567 91.939533 73.241754 85.274885 
Q 74.699941 78.6 77.196632 78.6 
Q 78.033858 78.6 78.802565 79.500905 
Q 79.571271 80.391572 80.282164 82.152431 
L 80.282164 92.031671 
Q 79.564848 89.697509 78.868943 88.612328 
Q 78.173039 87.527147 77.404332 87.527147 
Q 76.025371 87.527147 75.235252 91.755257 
Q 74.447275 95.97313 74.447275 103.395356 
Q 74.447275 110.78687 75.235252 115.01498 
Q 76.025371 119.232853 77.404332 119.232853 
Q 78.173039 119.232853 78.868943 118.147672 
Q 79.564848 117.052254 80.282164 114.718091 
L 80.282164 124.607569 
z
" clip-path="url(#p992a1a58d3)" style="fill: #0000ff"/>
   </g>
   <g id="patch_10">
    <path d="M 80.282164 73.05194 
Q 79.425067 75.82597 78.503211 77.219318 
Q 77.581355 78.6 76.59855 78.6 
Q 74.377715 78.6 73.080641 70.341244 
Q 71.783567 62.082487 71.783567 47.959 
Q 71.783567 33.670845 73.103497 25.475422 
Q 74.425332 17.28 76.724258 17.28 
Q 77.609925 17.28 78.421311 18.394679 
Q 79.234601 19.496691 79.954563 21.675381 
L 79.954563 33.898847 
Q 79.211745 31.099484 78.476546 29.718802 
Q 77.741347 28.325453 77.002338 28.325453 
Q 75.634792 28.325453 74.893878 33.417509 
Q 74.152965 38.496897 74.152965 47.959 
Q 74.152965 57.332435 74.867213 62.449824 
Q 75.581461 67.554547 76.895677 67.554547 
Q 77.253753 67.554547 77.560404 67.26321 
Q 77.867054 66.959207 78.110851 66.325867 
L 78.110851 54.849742 
L 76.710925 54.849742 
L 76.710925 44.627631 
L 80.282164 44.627631 
L 80.282164 73.05194 
z
" clip-path="url(#p992a1a58d3)" style="fill: #ffa600"/>
   </g>
   <g id="patch_11">
    <path d="M 80.729459 17.28 
L 89.228056 17.28 
L 89.228056 38.904689 
L 86.170538 38.904689 
L 86.170538 128.16 
L 83.792907 128.16 
L 83.792907 38.904689 
L 80.729459 38.904689 
L 80.729459 17.28 
z
" clip-path="url(#p992a1a58d3)" style="fill: #ff0000"/>
   </g>
   <g id="patch_12">
    <path d="M 89.675351 17.28 
L 98.173948 17.28 
L 98.173948 38.904689 
L 95.116429 38.904689 
L 95.116429 128.16 
L 92.738799 128.16 
L 92.738799 38.904689 
L 89.675351 38.904689 
L 89.675351 17.28 
z
" clip-path="url(#p992a1a58d3)" style="fill: #ff0000"/>
   </g>
   <g id="patch_13">
    <path d="M 98.621242 17.28 
L 107.11984 17.28 
L 107.11984 38.904689 
L 104.062321 38.904689 
L 104.062321 128.16 
L 101.68469 128.16 
L 101.68469 38.904689 
L 98.621242 38.904689 
L 98.621242 17.28 
z
" clip-path="url(#p992a1a58d3)" style="fill: #ff0000"/>
   </g>
   <g id="patch_14">
    <path d="M 116.065731 118.127891 
Q 115.208634 123.143945 114.286778 125.663425 
Q 113.364922 128.16 112.382117 128.16 
Q 110.161282 128.16 108.864208 113.226358 
Q 107.567134 98.292716 107.567134 72.754357 
Q 107.567134 46.91824 108.887064 32.09912 
Q 110.208899 17.28 112.507825 17.28 
Q 113.393492 17.28 114.204878 19.295584 
Q 115.018168 21.288263 115.73813 25.227812 
L 115.73813 47.330518 
Q 114.995312 42.268655 114.260113 39.77208 
Q 113.524914 37.252601 112.785905 37.252601 
Q 111.418359 37.252601 110.677446 46.460153 
Q 109.936533 55.644801 109.936533 72.754357 
Q 109.936533 89.703582 110.65078 98.956943 
Q 111.365028 108.187399 112.679244 108.187399 
Q 113.037321 108.187399 113.343971 107.660599 
Q 113.650621 107.110894 113.894418 105.965677 
L 113.894418 85.214328 
L 112.494492 85.214328 
L 112.494492 66.73051 
L 116.065731 66.73051 
L 116.065731 118.127891 
z
" clip-path="url(#p992a1a58d3)" style="fill: #ffa600"/>
   </g>
   <g id="patch_15">
    <path d="M 116.513026 17.28 
L 125.011623 17.28 
L 125.011623 38.904689 
L 121.954105 38.904689 
L 121.954105 128.16 
L 119.576474 128.16 
L 119.576474 38.904689 
L 116.513026 38.904689 
L 116.513026 17.28 
z
" clip-path="url(#p992a1a58d3)" style="fill: #ff0000"/>
   </g>
   <g id="patch_16">
    <path d="M 131.345904 107.961114 
L 128.07748 107.961114 
L 127.561413 128.16 
L 125.458918 128.16 
L 128.461489 17.28 
L 130.954944 17.28 
L 133.957515 128.16 
L 131.856758 128.16 
L 131.345904 107.961114 
z
M 128.598759 87.382015 
L 130.819411 87.382015 
L 129.710823 43.277154 
L 128.598759 87.382015 
z
" clip-path="url(#p992a1a58d3)" style="fill: #008000"/>
   </g>
   <g id="patch_17">
    <path d="M 142.903407 120.212188 
Q 142.192514 124.151737 141.423807 126.144416 
Q 140.655101 128.16 139.817874 128.16 
Q 137.321184 128.16 135.862997 113.226358 
Q 134.40481 98.292716 134.40481 72.754357 
Q 134.40481 47.124379 135.862997 32.213642 
Q 137.321184 17.28 139.817874 17.28 
Q 140.655101 17.28 141.423807 19.295584 
Q 142.192514 21.288263 142.903407 25.227812 
L 142.903407 47.330518 
Q 142.18609 42.108325 141.490186 39.680463 
Q 140.794282 37.252601 140.025575 37.252601 
Q 138.646614 37.252601 137.856495 46.712101 
Q 137.068517 56.148697 137.068517 72.754357 
Q 137.068517 89.291303 137.856495 98.750804 
Q 138.646614 108.187399 140.025575 108.187399 
Q 140.794282 108.187399 141.490186 105.759537 
Q 142.18609 103.308771 142.903407 98.086577 
L 142.903407 120.212188 
z
" clip-path="url(#p992a1a58d3)" style="fill: #0000ff"/>
   </g>
   <g id="patch_18">
    <path d="M 149.237687 107.961114 
L 145.969263 107.961114 
L 145.453196 128.16 
L 143.350701 128.16 
L 146.353273 17.28 
L 148.846727 17.28 
L 151.849299 128.16 
L 149.748541 128.16 
L 149.237687 107.961114 
z
M 146.490543 87.382015 
L 148.711195 87.382015 
L 147.602606 43.277154 
L 146.490543 87.382015 
z
" clip-path="url(#p992a1a58d3)" style="fill: #008000"/>
   </g>
   <g id="patch_19">
    <path d="M 158.183579 107.961114 
L 154.915155 107.961114 
L 154.399088 128.16 
L 152.296593 128.16 
L 155.299164 17.28 
L 157.792619 17.28 
L 160.79519 128.16 
L 158.694433 128.16 
L 158.183579 107.961114 
z
M 155.436435 87.382015 
L 157.657086 87.382015 
L 156.548498 43.277154 
L 155.436435 87.382015 
z
" clip-path="url(#p992a1a58d3)" style="fill: #008000"/>
   </g>
   <g id="patch_20">
    <path d="M 167.129471 107.961114 
L 163.861047 107.961114 
L 163.34498 128.16 
L 161.242485 128.16 
L 164.245056 17.28 
L 166.738511 17.28 
L 169.741082 128.16 
L 167.640325 128.16 
L 167.129471 107.961114 
z
M 164.382327 87.382015 
L 166.602978 87.382015 
L 165.49439 43.277154 
L 164.382327 87.382015 
z
" clip-path="url(#p992a1a58d3)" style="fill: #008000"/>
   </g>
   <g id="patch_21">
    <path d="M 176.075363 107.961114 
L 172.806939 107.961114 
L 172.290872 128.16 
L 170.188377 128.16 
L 173.190948 17.28 
L 175.684403 17.28 
L 178.686974 128.16 
L 176.586217 128.16 
L 176.075363 107.961114 
z
M 173.328218 87.382015 
L 175.54887 87.382015 
L 174.440282 43.277154 
L 173.328218 87.382015 
z
" clip-path="url(#p992a1a58d3)" style="fill: #008000"/>
   </g>
   <g id="patch_22">
    <path d="M 185.021254 107.961114 
L 181.75283 107.961114 
L 181.236763 128.16 
L 179.134269 128.16 
L 182.13684 17.28 
L 184.630294 17.28 
L 187.632866 128.16 
L 185.532108 128.16 
L 185.021254 107.961114 
z
M 182.27411 87.382015 
L 184.494762 87.382015 
L 183.386174 43.277154 
L 182.27411 87.382015 
z
" clip-path="url(#p992a1a58d3)" style="fill: #008000"/>
   </g>
   <g id="patch_23">
    <path d="M 193.967146 107.961114 
L 190.698722 107.961114 
L 190.182655 128.16 
L 188.08016 128.16 
L 191.082732 17.28 
L 193.576186 17.28 
L 196.578758 128.16 
L 194.478 128.16 
L 193.967146 107.961114 
z
M 191.220002 87.382015 
L 193.440654 87.382015 
L 192.332065 43.277154 
L 191.220002 87.382015 
z
" clip-path="url(#p992a1a58d3)" style="fill: #008000"/>
   </g>
   <g id="patch_24">
    <path d="M 197.026052 127.32 
L 205.524649 127.32 
L 205.524649 127.483823 
L 202.467131 127.483823 
L 202.467131 128.16 
L 200.0895 128.16 
L 200.0895 127.483823 
L 197.026052 127.483823 
L 197.026052 127.32 
z
" clip-path="url(#p992a1a58d3)" style="fill: #ff0000"/>
   </g>
   <g id="patch_25">
    <path d="M 202.913038 126.707913 
L 199.644614 126.707913 
L 199.128547 127.32 
L 197.026052 127.32 
L 200.028623 123.96 
L 202.522078 123.96 
L 205.524649 127.32 
L 203.423892 127.32 
L 202.913038 126.707913 
z
M 200.165894 126.084303 
L 202.386545 126.084303 
L 201.277957 124.747793 
L 200.165894 126.084303 
z
" clip-path="url(#p992a1a58d3)" style="fill: #008000"/>
   </g>
   <g id="patch_26">
    <path d="M 205.524649 114.307895 
Q 204.667552 119.133948 203.745696 121.557992 
Q 202.82384 123.96 201.841035 123.96 
Q 199.6202 123.96 198.323126 109.592026 
Q 197.026052 95.224053 197.026052 70.653055 
Q 197.026052 45.795579 198.345982 31.53779 
Q 199.667817 17.28 201.966743 17.28 
Q 202.85241 17.28 203.663796 19.219236 
Q 204.477086 21.136435 205.197048 24.926759 
L 205.197048 46.192241 
Q 204.45423 41.322115 203.719031 38.920107 
Q 202.983832 36.496063 202.244823 36.496063 
Q 200.877277 36.496063 200.136363 45.354844 
Q 199.39545 54.191589 199.39545 70.653055 
Q 199.39545 86.960264 200.109698 95.863119 
Q 200.823946 104.743937 202.138162 104.743937 
Q 202.496238 104.743937 202.802889 104.237092 
Q 203.109539 103.708209 203.353336 102.606371 
L 203.353336 82.641058 
L 201.95341 82.641058 
L 201.95341 64.857385 
L 205.524649 64.857385 
L 205.524649 114.307895 
z
" clip-path="url(#p992a1a58d3)" style="fill: #ffa600"/>
   </g>
   <g id="patch_27">
    <path d="M 214.470541 127.855997 
Q 213.613444 128.007998 212.691588 128.084346 
Q 211.769732 128.16 210.786927 128.16 
Q 208.566092 128.16 207.269018 127.707465 
Q 205.971944 127.254931 205.971944 126.481041 
Q 205.971944 125.698128 207.291874 125.249064 
Q 208.613709 124.8 210.912634 124.8 
Q 211.798302 124.8 212.609687 124.861078 
Q 213.422978 124.921463 214.142939 125.040843 
L 214.142939 125.710622 
Q 213.400122 125.557232 212.664922 125.481578 
Q 211.929723 125.40523 211.190715 125.40523 
Q 209.823168 125.40523 209.082255 125.684247 
Q 208.341342 125.96257 208.341342 126.481041 
Q 208.341342 126.994654 209.05559 127.275059 
Q 209.769838 127.55477 211.084054 127.55477 
Q 211.44213 127.55477 211.748781 127.538806 
Q 212.055431 127.522148 212.299228 127.487445 
L 212.299228 126.858616 
L 210.899302 126.858616 
L 210.899302 126.2985 
L 214.470541 126.2985 
L 214.470541 127.855997 
z
" clip-path="url(#p992a1a58d3)" style="fill: #ffa600"/>
   </g>
   <g id="patch_28">
    <path d="M 211.85893 122.963738 
L 208.590506 122.963738 
L 208.074439 124.8 
L 205.971944 124.8 
L 208.974515 114.72 
L 211.46797 114.72 
L 214.470541 124.8 
L 212.369784 124.8 
L 211.85893 122.963738 
z
M 209.111785 121.09291 
L 211.332437 121.09291 
L 210.223849 117.083378 
L 209.111785 121.09291 
z
" clip-path="url(#p992a1a58d3)" style="fill: #008000"/>
   </g>
   <g id="patch_29">
    <path d="M 205.971944 68.52 
L 214.470541 68.52 
L 214.470541 77.530287 
L 211.413023 77.530287 
L 211.413023 114.72 
L 209.035392 114.72 
L 209.035392 77.530287 
L 205.971944 77.530287 
L 205.971944 68.52 
z
" clip-path="url(#p992a1a58d3)" style="fill: #ff0000"/>
   </g>
   <g id="patch_30">
    <path d="M 214.470541 64.847147 
Q 213.759648 66.667697 212.990942 67.588556 
Q 212.222235 68.52 211.385009 68.52 
Q 208.888318 68.52 207.430131 61.618847 
Q 205.971944 54.717695 205.971944 42.915877 
Q 205.971944 31.071721 207.430131 24.181153 
Q 208.888318 17.28 211.385009 17.28 
Q 212.222235 17.28 212.990942 18.211444 
Q 213.759648 19.132303 214.470541 20.952853 
L 214.470541 31.166982 
Q 213.753224 28.753696 213.05732 27.631729 
Q 212.361416 26.509762 211.592709 26.509762 
Q 210.213748 26.509762 209.423629 30.881198 
Q 208.635651 35.242049 208.635651 42.915877 
Q 208.635651 50.557951 209.423629 54.929386 
Q 210.213748 59.290238 211.592709 59.290238 
Q 212.361416 59.290238 213.05732 58.168271 
Q 213.753224 57.03572 214.470541 54.622433 
L 214.470541 64.847147 
z
" clip-path="url(#p992a1a58d3)" style="fill: #0000ff"/>
   </g>
   <g id="patch_31">
    <path d="M 223.416433 127.703995 
Q 222.559335 127.931998 221.63748 128.046519 
Q 220.715624 128.16 219.732819 128.16 
Q 217.511984 128.16 216.21491 127.481198 
Q 214.917836 126.802396 214.917836 125.641562 
Q 214.917836 124.467193 216.237766 123.793596 
Q 217.5596 123.12 219.858526 123.12 
Q 220.744194 123.12 221.555579 123.211617 
Q 222.368869 123.302194 223.088831 123.481264 
L 223.088831 124.485933 
Q 222.346013 124.255848 221.610814 124.142367 
Q 220.875615 124.027845 220.136607 124.027845 
Q 218.76906 124.027845 218.028147 124.446371 
Q 217.287234 124.863855 217.287234 125.641562 
Q 217.287234 126.411981 218.001482 126.832588 
Q 218.71573 127.252155 220.029946 127.252155 
Q 220.388022 127.252155 220.694672 127.228209 
Q 221.001323 127.203222 221.245119 127.151167 
L 221.245119 126.207924 
L 219.845194 126.207924 
L 219.845194 125.36775 
L 223.416433 125.36775 
L 223.416433 127.703995 
z
" clip-path="url(#p992a1a58d3)" style="fill: #ffa600"/>
   </g>
   <g id="patch_32">
    <path d="M 220.804821 115.927973 
L 217.536398 115.927973 
L 217.020331 123.12 
L 214.917836 123.12 
L 217.920407 83.64 
L 220.413862 83.64 
L 223.416433 123.12 
L 221.315676 123.12 
L 220.804821 115.927973 
z
M 218.057677 108.600566 
L 220.278329 108.600566 
L 219.169741 92.896562 
L 218.057677 108.600566 
z
" clip-path="url(#p992a1a58d3)" style="fill: #008000"/>
   </g>
   <g id="patch_33">
    <path d="M 214.917836 17.28 
L 223.416433 17.28 
L 223.416433 30.222049 
L 220.358914 30.222049 
L 220.358914 83.64 
L 217.981283 83.64 
L 217.981283 30.222049 
L 214.917836 30.222049 
L 214.917836 17.28 
z
" clip-path="url(#p992a1a58d3)" style="fill: #ff0000"/>
   </g>
   <g id="patch_34">
    <path d="M 232.362325 118.127891 
Q 231.505227 123.143945 230.583371 125.663425 
Q 229.661515 128.16 228.67871 128.16 
Q 226.457876 128.16 225.160802 113.226358 
Q 223.863727 98.292716 223.863727 72.754357 
Q 223.863727 46.91824 225.183657 32.09912 
Q 226.505492 17.28 228.804418 17.28 
Q 229.690085 17.28 230.501471 19.295584 
Q 231.314761 21.288263 232.034723 25.227812 
L 232.034723 47.330518 
Q 231.291905 42.268655 230.556706 39.77208 
Q 229.821507 37.252601 229.082498 37.252601 
Q 227.714952 37.252601 226.974039 46.460153 
Q 226.233126 55.644801 226.233126 72.754357 
Q 226.233126 89.703582 226.947374 98.956943 
Q 227.661621 108.187399 228.975837 108.187399 
Q 229.333914 108.187399 229.640564 107.660599 
Q 229.947215 107.110894 230.191011 105.965677 
L 230.191011 85.214328 
L 228.791085 85.214328 
L 228.791085 66.73051 
L 232.362325 66.73051 
L 232.362325 118.127891 
z
" clip-path="url(#p992a1a58d3)" style="fill: #ffa600"/>
   </g>
   <g id="patch_35">
    <path d="M 232.809619 123.96 
L 241.308216 123.96 
L 241.308216 124.779117 
L 238.250698 124.779117 
L 238.250698 128.16 
L 235.873067 128.16 
L 235.873067 124.779117 
L 232.809619 124.779117 
L 232.809619 123.96 
z
" clip-path="url(#p992a1a58d3)" style="fill: #ff0000"/>
   </g>
   <g id="patch_36">
    <path d="M 241.308216 122.996629 
Q 240.597323 123.47415 239.828617 123.715687 
Q 239.05991 123.96 238.222684 123.96 
Q 235.725993 123.96 234.267806 122.149862 
Q 232.809619 120.339723 232.809619 117.244164 
Q 232.809619 114.137501 234.267806 112.330138 
Q 235.725993 110.52 238.222684 110.52 
Q 239.05991 110.52 239.828617 110.764313 
Q 240.597323 111.00585 241.308216 111.483371 
L 241.308216 114.162487 
Q 240.5909 113.529494 239.894995 113.235208 
Q 239.199091 112.940921 238.430385 112.940921 
Q 237.051423 112.940921 236.261304 114.087527 
Q 235.473327 115.231357 235.473327 117.244164 
Q 235.473327 119.248643 236.261304 120.395249 
Q 237.051423 121.539079 238.430385 121.539079 
Q 239.199091 121.539079 239.894995 121.244792 
Q 240.5909 120.94773 241.308216 120.314737 
L 241.308216 122.996629 
z
" clip-path="url(#p992a1a58d3)" style="fill: #0000ff"/>
   </g>
   <g id="patch_37">
    <path d="M 238.696605 106.082366 
L 235.428181 106.082366 
L 234.912114 110.52 
L 232.809619 110.52 
L 235.81219 86.16 
L 238.305645 86.16 
L 241.308216 110.52 
L 239.207459 110.52 
L 238.696605 106.082366 
z
M 235.949461 101.5612 
L 238.170112 101.5612 
L 237.061524 91.871496 
L 235.949461 101.5612 
z
" clip-path="url(#p992a1a58d3)" style="fill: #008000"/>
   </g>
   <g id="patch_38">
    <path d="M 241.308216 79.927932 
Q 240.451119 83.043966 239.529263 84.609097 
Q 238.607407 86.16 237.624602 86.16 
Q 235.403767 86.16 234.106693 76.883041 
Q 232.809619 67.606081 232.809619 51.741343 
Q 232.809619 35.691634 234.129549 26.485817 
Q 235.451384 17.28 237.75031 17.28 
Q 238.635977 17.28 239.447363 18.532105 
Q 240.260653 19.769981 240.980615 22.217277 
L 240.980615 35.947746 
Q 240.237797 32.803256 239.502598 31.252353 
Q 238.767399 29.687222 238.02839 29.687222 
Q 236.660844 29.687222 235.919931 35.407065 
Q 235.179017 41.112679 235.179017 51.741343 
Q 235.179017 62.270407 235.893265 68.018707 
Q 236.607513 73.752778 237.921729 73.752778 
Q 238.279806 73.752778 238.586456 73.425524 
Q 238.893106 73.08404 239.136903 72.372617 
L 239.136903 59.481628 
L 237.736977 59.481628 
L 237.736977 47.999256 
L 241.308216 47.999256 
L 241.308216 79.927932 
z
" clip-path="url(#p992a1a58d3)" style="fill: #ffa600"/>
   </g>
   <g id="patch_39">
    <path d="M 250.254108 127.323991 
Q 249.397011 127.741995 248.475155 127.951952 
Q 247.553299 128.16 246.570494 128.16 
Q 244.349659 128.16 243.052585 126.91553 
Q 241.755511 125.67106 241.755511 123.542863 
Q 241.755511 121.389853 243.075441 120.154927 
Q 244.397276 118.92 246.696202 118.92 
Q 247.581869 118.92 248.393254 119.087965 
Q 249.206545 119.254022 249.926507 119.582318 
L 249.926507 121.42421 
Q 249.183689 121.002388 248.44849 120.79434 
Q 247.71329 120.584383 246.974282 120.584383 
Q 245.606735 120.584383 244.865822 121.351679 
Q 244.124909 122.117067 244.124909 123.542863 
Q 244.124909 124.955298 244.839157 125.726412 
Q 245.553405 126.495617 246.867621 126.495617 
Q 247.225697 126.495617 247.532348 126.451717 
Q 247.838998 126.405908 248.082795 126.310473 
L 248.082795 124.581194 
L 246.682869 124.581194 
L 246.682869 123.040876 
L 250.254108 123.040876 
L 250.254108 127.323991 
z
" clip-path="url(#p992a1a58d3)" style="fill: #ffa600"/>
   </g>
   <g id="patch_40">
    <path d="M 247.642497 115.400497 
L 244.374073 115.400497 
L 243.858006 118.92 
L 241.755511 118.92 
L 244.758082 99.6 
L 247.251537 99.6 
L 250.254108 118.92 
L 248.153351 118.92 
L 247.642497 115.400497 
z
M 244.895353 111.814745 
L 247.116004 111.814745 
L 246.007416 104.129807 
L 244.895353 111.814745 
z
" clip-path="url(#p992a1a58d3)" style="fill: #008000"/>
   </g>
   <g id="patch_41">
    <path d="M 241.755511 76.92 
L 250.254108 76.92 
L 250.254108 81.343232 
L 247.19659 81.343232 
L 247.19659 99.6 
L 244.818959 99.6 
L 244.818959 81.343232 
L 241.755511 81.343232 
L 241.755511 76.92 
z
" clip-path="url(#p992a1a58d3)" style="fill: #ff0000"/>
   </g>
   <g id="patch_42">
    <path d="M 250.254108 72.64504 
Q 249.543215 74.76404 248.774509 75.83586 
Q 248.005802 76.92 247.168576 76.92 
Q 244.671885 76.92 243.213698 68.887511 
Q 241.755511 60.855022 241.755511 47.11848 
Q 241.755511 33.332659 243.213698 25.312489 
Q 244.671885 17.28 247.168576 17.28 
Q 248.005802 17.28 248.774509 18.36414 
Q 249.543215 19.43596 250.254108 21.55496 
L 250.254108 33.443536 
Q 249.536791 30.634629 248.840887 29.328734 
Q 248.144983 28.022838 247.376276 28.022838 
Q 245.997315 28.022838 245.207196 33.110903 
Q 244.419218 38.186647 244.419218 47.11848 
Q 244.419218 56.013353 245.207196 61.101417 
Q 245.997315 66.177162 247.376276 66.177162 
Q 248.144983 66.177162 248.840887 64.871266 
Q 249.536791 63.553051 250.254108 60.744144 
L 250.254108 72.64504 
z
" clip-path="url(#p992a1a58d3)" style="fill: #0000ff"/>
   </g>
   <g id="patch_43">
    <path d="M 259.2 127.076207 
Q 258.489107 127.613419 257.7204 127.885148 
Q 256.951694 128.16 256.114467 128.16 
Q 253.617777 128.16 252.15959 126.123594 
Q 250.701403 124.087189 250.701403 120.604685 
Q 250.701403 117.109688 252.15959 115.076406 
Q 253.617777 113.04 256.114467 113.04 
Q 256.951694 113.04 257.7204 113.314852 
Q 258.489107 113.586581 259.2 114.123793 
L 259.2 117.137798 
Q 258.482683 116.425681 257.786779 116.094609 
Q 257.090875 115.763536 256.322168 115.763536 
Q 254.943207 115.763536 254.153088 117.053468 
Q 253.36511 118.340277 253.36511 120.604685 
Q 253.36511 122.859723 254.153088 124.149655 
Q 254.943207 125.436464 256.322168 125.436464 
Q 257.090875 125.436464 257.786779 125.105391 
Q 258.482683 124.771196 259.2 124.059079 
L 259.2 127.076207 
z
" clip-path="url(#p992a1a58d3)" style="fill: #0000ff"/>
   </g>
   <g id="patch_44">
    <path d="M 259.2 111.21598 
Q 258.342903 112.12799 257.421047 112.586077 
Q 256.499191 113.04 255.516386 113.04 
Q 253.295551 113.04 251.998477 110.324792 
Q 250.701403 107.609585 250.701403 102.966247 
Q 250.701403 98.268771 252.021333 95.574385 
Q 253.343168 92.88 255.642093 92.88 
Q 256.527761 92.88 257.339146 93.24647 
Q 258.152436 93.608775 258.872398 94.325057 
L 258.872398 98.343731 
Q 258.129581 97.423392 257.394381 96.969469 
Q 256.659182 96.511382 255.920174 96.511382 
Q 254.552627 96.511382 253.811714 98.185482 
Q 253.070801 99.855418 253.070801 102.966247 
Q 253.070801 106.047924 253.785049 107.730353 
Q 254.499297 109.408618 255.813513 109.408618 
Q 256.171589 109.408618 256.478239 109.312836 
Q 256.78489 109.21289 257.028687 109.004668 
L 257.028687 105.231696 
L 255.628761 105.231696 
L 255.628761 101.871002 
L 259.2 101.871002 
L 259.2 111.21598 
z
" clip-path="url(#p992a1a58d3)" style="fill: #ffa600"/>
   </g>
   <g id="patch_45">
    <path d="M 250.701403 58.44 
L 259.2 58.44 
L 259.2 65.15676 
L 256.142481 65.15676 
L 256.142481 92.88 
L 253.764851 92.88 
L 253.764851 65.15676 
L 250.701403 65.15676 
L 250.701403 58.44 
z
" clip-path="url(#p992a1a58d3)" style="fill: #ff0000"/>
   </g>
   <g id="patch_46">
    <path d="M 256.588389 50.941929 
L 253.319965 50.941929 
L 252.803898 58.44 
L 250.701403 58.44 
L 253.703974 17.28 
L 256.197429 17.28 
L 259.2 58.44 
L 257.099243 58.44 
L 256.588389 50.941929 
z
M 253.841244 43.302718 
L 256.061896 43.302718 
L 254.953308 26.930459 
L 253.841244 43.302718 
z
" clip-path="url(#p992a1a58d3)" style="fill: #008000"/>
   </g>
  </g>
 </g>
 <defs>
  <clipPath id="p992a1a58d3">
   <rect x="36" y="17.28" width="223.2" height="110.88"/>
  </clipPath>
 </defs>
</svg>
