<?xml version="1.0" encoding="utf-8" standalone="no"?>
<!DOCTYPE svg PUBLIC "-//W3C//DTD SVG 1.1//EN"
  "http://www.w3.org/Graphics/SVG/1.1/DTD/svg11.dtd">
<svg xmlns:xlink="http://www.w3.org/1999/xlink" width="288pt" height="144pt" viewBox="0 0 288 144" xmlns="http://www.w3.org/2000/svg" version="1.1">
 <metadata>
  <rdf:RDF xmlns:dc="http://purl.org/dc/elements/1.1/" xmlns:cc="http://creativecommons.org/ns#" xmlns:rdf="http://www.w3.org/1999/02/22-rdf-syntax-ns#">
   <cc:Work>
    <dc:type rdf:resource="http://purl.org/dc/dcmitype/StillImage"/>
    <dc:date>2024-11-11T17:03:43.977529</dc:date>
    <dc:format>image/svg+xml</dc:format>
    <dc:creator>
     <cc:Agent>
      <dc:title>Matplotlib v3.9.2, https://matplotlib.org/</dc:title>
     </cc:Agent>
    </dc:creator>
   </cc:Work>
  </rdf:RDF>
 </metadata>
 <defs>
  <style type="text/css">*{stroke-linejoin: round; stroke-linecap: butt}</style>
 </defs>
 <g id="figure_1">
  <g id="patch_1">
   <path d="M 0 144 
L 288 144 
L 288 0 
L 0 0 
z
" style="fill: #ffffff"/>
  </g>
  <g id="axes_1">
   <g id="line2d_1">
    <path d="M 36 128.16 
L 259.2 128.16 
" clip-path="url(#p0edaed8dcd)" style="fill: none; stroke: #000000; stroke-width: 0.5; stroke-linecap: square"/>
   </g>
   <g id="patch_2">
    <path d="M 44.498597 128.02775 
Q 43.6415 128.093875 42.719644 128.127088 
Q 41.797788 128.16 40.814983 128.16 
Q 38.594148 128.16 37.297074 127.963135 
Q 36 127.766269 36 127.429605 
Q 36 127.089016 37.31993 126.893661 
Q 38.641765 126.698305 40.940691 126.698305 
Q 41.826358 126.698305 42.637743 126.724876 
Q 43.451034 126.751145 44.170996 126.803079 
L 44.170996 127.094451 
Q 43.428178 127.027722 42.692979 126.994811 
Q 41.957779 126.961597 41.218771 126.961597 
Q 39.851224 126.961597 39.110311 127.082978 
Q 38.369398 127.204056 38.369398 127.429605 
Q 38.369398 127.653042 39.083646 127.775026 
Q 39.797894 127.896708 41.11211 127.896708 
Q 41.470186 127.896708 41.776837 127.889763 
Q 42.083487 127.882516 42.327284 127.867419 
L 42.327284 127.593861 
L 40.927358 127.593861 
L 40.927358 127.350195 
L 44.498597 127.350195 
L 44.498597 128.02775 
z
" clip-path="url(#p0edaed8dcd)" style="fill: #ffa600"/>
   </g>
   <g id="patch_3">
    <path d="M 36 124.401356 
L 44.498597 124.401356 
L 44.498597 124.849325 
L 41.441079 124.849325 
L 41.441079 126.698305 
L 39.063448 126.698305 
L 39.063448 124.849325 
L 36 124.849325 
L 36 124.401356 
z
" clip-path="url(#p0edaed8dcd)" style="fill: #ff0000"/>
   </g>
   <g id="patch_4">
    <path d="M 44.498597 124.102003 
Q 43.787704 124.250386 43.018998 124.325439 
Q 42.250291 124.401356 41.413065 124.401356 
Q 38.916374 124.401356 37.458187 123.838884 
Q 36 123.276411 36 122.314514 
Q 36 121.349167 37.458187 120.787557 
Q 38.916374 120.225085 41.413065 120.225085 
Q 42.250291 120.225085 43.018998 120.301001 
Q 43.787704 120.376055 44.498597 120.524437 
L 44.498597 121.356931 
Q 43.78128 121.160238 43.085376 121.068793 
Q 42.389472 120.977348 41.620765 120.977348 
Q 40.241804 120.977348 39.451685 121.333638 
Q 38.663707 121.689066 38.663707 122.314514 
Q 38.663707 122.937375 39.451685 123.293665 
Q 40.241804 123.649092 41.620765 123.649092 
Q 42.389472 123.649092 43.085376 123.557647 
Q 43.78128 123.46534 44.498597 123.268647 
L 44.498597 124.102003 
z
" clip-path="url(#p0edaed8dcd)" style="fill: #0000ff"/>
   </g>
   <g id="patch_5">
    <path d="M 41.886986 108.166616 
L 38.618562 108.166616 
L 38.102495 120.225085 
L 36 120.225085 
L 39.002571 54.031186 
L 41.496026 54.031186 
L 44.498597 120.225085 
L 42.39784 120.225085 
L 41.886986 108.166616 
z
M 39.139842 95.881165 
L 41.360493 95.881165 
L 40.251905 69.551145 
L 39.139842 95.881165 
z
" clip-path="url(#p0edaed8dcd)" style="fill: #008000"/>
   </g>
   <g id="patch_6">
    <path d="M 53.444489 120.212188 
Q 52.733596 124.151737 51.964889 126.144416 
Q 51.196183 128.16 50.358956 128.16 
Q 47.862266 128.16 46.404079 113.226358 
Q 44.945892 98.292716 44.945892 72.754357 
Q 44.945892 47.124379 46.404079 32.213642 
Q 47.862266 17.28 50.358956 17.28 
Q 51.196183 17.28 51.964889 19.295584 
Q 52.733596 21.288263 53.444489 25.227812 
L 53.444489 47.330518 
Q 52.727172 42.108325 52.031268 39.680463 
Q 51.335364 37.252601 50.566657 37.252601 
Q 49.187696 37.252601 48.397577 46.712101 
Q 47.609599 56.148697 47.609599 72.754357 
Q 47.609599 89.291303 48.397577 98.750804 
Q 49.187696 108.187399 50.566657 108.187399 
Q 51.335364 108.187399 52.031268 105.759537 
Q 52.727172 103.308771 53.444489 98.086577 
L 53.444489 120.212188 
z
" clip-path="url(#p0edaed8dcd)" style="fill: #0000ff"/>
   </g>
   <g id="patch_7">
    <path d="M 53.891784 116.048814 
L 62.390381 116.048814 
L 62.390381 118.410832 
L 59.332862 118.410832 
L 59.332862 128.16 
L 56.955231 128.16 
L 56.955231 118.410832 
L 53.891784 118.410832 
L 53.891784 116.048814 
z
" clip-path="url(#p0edaed8dcd)" style="fill: #ff0000"/>
   </g>
   <g id="patch_8">
    <path d="M 62.390381 112.860708 
Q 61.679488 114.440979 60.910781 115.240303 
Q 60.142075 116.048814 59.304848 116.048814 
Q 56.808158 116.048814 55.349971 110.058483 
Q 53.891784 104.068152 53.891784 93.823951 
Q 53.891784 83.543 55.349971 77.561856 
Q 56.808158 71.571525 59.304848 71.571525 
Q 60.142075 71.571525 60.910781 72.380036 
Q 61.679488 73.17936 62.390381 74.759631 
L 62.390381 83.625688 
Q 61.673064 81.53091 60.97716 80.557022 
Q 60.281255 79.583134 59.512549 79.583134 
Q 58.133588 79.583134 57.343469 83.377622 
Q 56.555491 87.162923 56.555491 93.823951 
Q 56.555491 100.457416 57.343469 104.251904 
Q 58.133588 108.037205 59.512549 108.037205 
Q 60.281255 108.037205 60.97716 107.063317 
Q 61.673064 106.080241 62.390381 103.985463 
L 62.390381 112.860708 
z
" clip-path="url(#p0edaed8dcd)" style="fill: #0000ff"/>
   </g>
   <g id="patch_9">
    <path d="M 59.778769 61.681299 
L 56.510345 61.681299 
L 55.994278 71.571525 
L 53.891784 71.571525 
L 56.894355 17.28 
L 59.38781 17.28 
L 62.390381 71.571525 
L 60.289623 71.571525 
L 59.778769 61.681299 
z
M 57.031625 51.604904 
L 59.252277 51.604904 
L 58.143689 30.009303 
L 57.031625 51.604904 
z
" clip-path="url(#p0edaed8dcd)" style="fill: #008000"/>
   </g>
   <g id="patch_10">
    <path d="M 62.837675 116.048814 
L 71.336273 116.048814 
L 71.336273 118.410832 
L 68.278754 118.410832 
L 68.278754 128.16 
L 65.901123 128.16 
L 65.901123 118.410832 
L 62.837675 118.410832 
L 62.837675 116.048814 
z
" clip-path="url(#p0edaed8dcd)" style="fill: #ff0000"/>
   </g>
   <g id="patch_11">
    <path d="M 68.724661 98.056209 
L 65.456237 98.056209 
L 64.94017 116.048814 
L 62.837675 116.048814 
L 65.840247 17.28 
L 68.333701 17.28 
L 71.336273 116.048814 
L 69.235515 116.048814 
L 68.724661 98.056209 
z
M 65.977517 79.724921 
L 68.198169 79.724921 
L 67.08958 40.43754 
L 65.977517 79.724921 
z
" clip-path="url(#p0edaed8dcd)" style="fill: #008000"/>
   </g>
   <g id="patch_12">
    <path d="M 77.670553 125.953719 
L 74.402129 125.953719 
L 73.886062 128.16 
L 71.783567 128.16 
L 74.786138 116.048814 
L 77.279593 116.048814 
L 80.282164 128.16 
L 78.181407 128.16 
L 77.670553 125.953719 
z
M 74.923409 123.705907 
L 77.14406 123.705907 
L 76.035472 118.888427 
L 74.923409 123.705907 
z
" clip-path="url(#p0edaed8dcd)" style="fill: #008000"/>
   </g>
   <g id="patch_13">
    <path d="M 80.282164 114.612956 
Q 79.425067 115.330885 78.503211 115.691488 
Q 77.581355 116.048814 76.59855 116.048814 
Q 74.377715 116.048814 73.080641 113.911418 
Q 71.783567 111.774023 71.783567 108.118816 
Q 71.783567 104.420991 73.103497 102.299987 
Q 74.425332 100.178983 76.724258 100.178983 
Q 77.609925 100.178983 78.421311 100.467466 
Q 79.234601 100.75267 79.954563 101.316523 
L 79.954563 104.479999 
Q 79.211745 103.755514 78.476546 103.398188 
Q 77.741347 103.037585 77.002338 103.037585 
Q 75.634792 103.037585 74.893878 104.355427 
Q 74.152965 105.66999 74.152965 108.118816 
Q 74.152965 110.544693 74.867213 111.869092 
Q 75.581461 113.190212 76.895677 113.190212 
Q 77.253753 113.190212 77.560404 113.114813 
Q 77.867054 113.036136 78.110851 112.872225 
L 78.110851 109.902164 
L 76.710925 109.902164 
L 76.710925 107.256646 
L 80.282164 107.256646 
L 80.282164 114.612956 
z
" clip-path="url(#p0edaed8dcd)" style="fill: #ffa600"/>
   </g>
   <g id="patch_14">
    <path d="M 80.282164 94.236833 
Q 79.571271 97.182222 78.802565 98.67204 
Q 78.033858 100.178983 77.196632 100.178983 
Q 74.699941 100.178983 73.241754 89.013906 
Q 71.783567 77.848829 71.783567 58.755178 
Q 71.783567 39.593029 73.241754 28.445077 
Q 74.699941 17.28 77.196632 17.28 
Q 78.033858 17.28 78.802565 18.786943 
Q 79.571271 20.276761 80.282164 23.22215 
L 80.282164 39.747148 
Q 79.564848 35.842796 78.868943 34.027615 
Q 78.173039 32.212434 77.404332 32.212434 
Q 76.025371 32.212434 75.235252 39.284791 
Q 74.447275 46.340024 74.447275 58.755178 
Q 74.447275 71.118959 75.235252 78.191316 
Q 76.025371 85.246549 77.404332 85.246549 
Q 78.173039 85.246549 78.868943 83.431368 
Q 79.564848 81.599062 80.282164 77.69471 
L 80.282164 94.236833 
z
" clip-path="url(#p0edaed8dcd)" style="fill: #0000ff"/>
   </g>
   <g id="patch_15">
    <path d="M 80.729459 17.28 
L 89.228056 17.28 
L 89.228056 38.904689 
L 86.170538 38.904689 
L 86.170538 128.16 
L 83.792907 128.16 
L 83.792907 38.904689 
L 80.729459 38.904689 
L 80.729459 17.28 
z
" clip-path="url(#p0edaed8dcd)" style="fill: #ff0000"/>
   </g>
   <g id="patch_16">
    <path d="M 95.562336 128.121961 
L 92.293913 128.121961 
L 91.777846 128.16 
L 89.675351 128.16 
L 92.677922 127.951186 
L 95.171377 127.951186 
L 98.173948 128.16 
L 96.073191 128.16 
L 95.562336 128.121961 
z
M 92.815192 128.083205 
L 95.035844 128.083205 
L 93.927256 128.000145 
L 92.815192 128.083205 
z
" clip-path="url(#p0edaed8dcd)" style="fill: #008000"/>
   </g>
   <g id="patch_17">
    <path d="M 89.675351 17.28 
L 98.173948 17.28 
L 98.173948 38.863965 
L 95.116429 38.863965 
L 95.116429 127.951186 
L 92.738799 127.951186 
L 92.738799 38.863965 
L 89.675351 38.863965 
L 89.675351 17.28 
z
" clip-path="url(#p0edaed8dcd)" style="fill: #ff0000"/>
   </g>
   <g id="patch_18">
    <path d="M 98.621242 17.28 
L 107.11984 17.28 
L 107.11984 38.904689 
L 104.062321 38.904689 
L 104.062321 128.16 
L 101.68469 128.16 
L 101.68469 38.904689 
L 98.621242 38.904689 
L 98.621242 17.28 
z
" clip-path="url(#p0edaed8dcd)" style="fill: #ff0000"/>
   </g>
   <g id="patch_19">
    <path d="M 116.065731 118.127891 
Q 115.208634 123.143945 114.286778 125.663425 
Q 113.364922 128.16 112.382117 128.16 
Q 110.161282 128.16 108.864208 113.226358 
Q 107.567134 98.292716 107.567134 72.754357 
Q 107.567134 46.91824 108.887064 32.09912 
Q 110.208899 17.28 112.507825 17.28 
Q 113.393492 17.28 114.204878 19.295584 
Q 115.018168 21.288263 115.73813 25.227812 
L 115.73813 47.330518 
Q 114.995312 42.268655 114.260113 39.77208 
Q 113.524914 37.252601 112.785905 37.252601 
Q 111.418359 37.252601 110.677446 46.460153 
Q 109.936533 55.644801 109.936533 72.754357 
Q 109.936533 89.703582 110.65078 98.956943 
Q 111.365028 108.187399 112.679244 108.187399 
Q 113.037321 108.187399 113.343971 107.660599 
Q 113.650621 107.110894 113.894418 105.965677 
L 113.894418 85.214328 
L 112.494492 85.214328 
L 112.494492 66.73051 
L 116.065731 66.73051 
L 116.065731 118.127891 
z
" clip-path="url(#p0edaed8dcd)" style="fill: #ffa600"/>
   </g>
   <g id="patch_20">
    <path d="M 116.513026 17.28 
L 125.011623 17.28 
L 125.011623 38.904689 
L 121.954105 38.904689 
L 121.954105 128.16 
L 119.576474 128.16 
L 119.576474 38.904689 
L 116.513026 38.904689 
L 116.513026 17.28 
z
" clip-path="url(#p0edaed8dcd)" style="fill: #ff0000"/>
   </g>
   <g id="patch_21">
    <path d="M 131.345904 107.961114 
L 128.07748 107.961114 
L 127.561413 128.16 
L 125.458918 128.16 
L 128.461489 17.28 
L 130.954944 17.28 
L 133.957515 128.16 
L 131.856758 128.16 
L 131.345904 107.961114 
z
M 128.598759 87.382015 
L 130.819411 87.382015 
L 129.710823 43.277154 
L 128.598759 87.382015 
z
" clip-path="url(#p0edaed8dcd)" style="fill: #008000"/>
   </g>
   <g id="patch_22">
    <path d="M 134.40481 125.654237 
L 142.903407 125.654237 
L 142.903407 126.142931 
L 139.845888 126.142931 
L 139.845888 128.16 
L 137.468257 128.16 
L 137.468257 126.142931 
L 134.40481 126.142931 
L 134.40481 125.654237 
z
" clip-path="url(#p0edaed8dcd)" style="fill: #ff0000"/>
   </g>
   <g id="patch_23">
    <path d="M 142.903407 117.886036 
Q 142.192514 121.736557 141.423807 123.684204 
Q 140.655101 125.654237 139.817874 125.654237 
Q 137.321184 125.654237 135.862997 111.058079 
Q 134.40481 96.461921 134.40481 71.500699 
Q 134.40481 46.44993 135.862997 31.876158 
Q 137.321184 17.28 139.817874 17.28 
Q 140.655101 17.28 141.423807 19.250034 
Q 142.192514 21.197681 142.903407 25.048201 
L 142.903407 46.651411 
Q 142.18609 41.547233 141.490186 39.174238 
Q 140.794282 36.801242 140.025575 36.801242 
Q 138.646614 36.801242 137.856495 46.046969 
Q 137.068517 55.270308 137.068517 71.500699 
Q 137.068517 87.663929 137.856495 96.909655 
Q 138.646614 106.132995 140.025575 106.132995 
Q 140.794282 106.132995 141.490186 103.76 
Q 142.18609 101.364618 142.903407 96.26044 
L 142.903407 117.886036 
z
" clip-path="url(#p0edaed8dcd)" style="fill: #0000ff"/>
   </g>
   <g id="patch_24">
    <path d="M 149.237687 107.961114 
L 145.969263 107.961114 
L 145.453196 128.16 
L 143.350701 128.16 
L 146.353273 17.28 
L 148.846727 17.28 
L 151.849299 128.16 
L 149.748541 128.16 
L 149.237687 107.961114 
z
M 146.490543 87.382015 
L 148.711195 87.382015 
L 147.602606 43.277154 
L 146.490543 87.382015 
z
" clip-path="url(#p0edaed8dcd)" style="fill: #008000"/>
   </g>
   <g id="patch_25">
    <path d="M 160.79519 128.130065 
Q 160.084297 128.144903 159.315591 128.152408 
Q 158.546884 128.16 157.709658 128.16 
Q 155.212967 128.16 153.75478 128.103753 
Q 152.296593 128.047506 152.296593 127.951316 
Q 152.296593 127.854781 153.75478 127.79862 
Q 155.212967 127.742373 157.709658 127.742373 
Q 158.546884 127.742373 159.315591 127.749965 
Q 160.084297 127.75747 160.79519 127.772308 
L 160.79519 127.855558 
Q 160.077874 127.835888 159.381969 127.826744 
Q 158.686065 127.817599 157.917359 127.817599 
Q 156.538397 127.817599 155.748278 127.853228 
Q 154.960301 127.888771 154.960301 127.951316 
Q 154.960301 128.013602 155.748278 128.049231 
Q 156.538397 128.084774 157.917359 128.084774 
Q 158.686065 128.084774 159.381969 128.075629 
Q 160.077874 128.066398 160.79519 128.046729 
L 160.79519 128.130065 
z
" clip-path="url(#p0edaed8dcd)" style="fill: #0000ff"/>
   </g>
   <g id="patch_26">
    <path d="M 160.79519 127.647909 
Q 159.938093 127.695141 159.016237 127.718865 
Q 158.094381 127.742373 157.111576 127.742373 
Q 154.890741 127.742373 153.593667 127.601755 
Q 152.296593 127.461137 152.296593 127.220662 
Q 152.296593 126.977385 153.616523 126.837845 
Q 154.938358 126.698305 157.237284 126.698305 
Q 158.122951 126.698305 158.934337 126.717284 
Q 159.747627 126.736048 160.467589 126.773143 
L 160.467589 126.981267 
Q 159.724771 126.933603 158.989572 126.910095 
Q 158.254373 126.886371 157.515364 126.886371 
Q 156.147818 126.886371 155.406905 126.973071 
Q 154.665991 127.059556 154.665991 127.220662 
Q 154.665991 127.38026 155.380239 127.467391 
Q 156.094487 127.554307 157.408703 127.554307 
Q 157.766779 127.554307 158.07343 127.549347 
Q 158.38008 127.54417 158.623877 127.533387 
L 158.623877 127.337988 
L 157.223951 127.337988 
L 157.223951 127.163941 
L 160.79519 127.163941 
L 160.79519 127.647909 
z
" clip-path="url(#p0edaed8dcd)" style="fill: #ffa600"/>
   </g>
   <g id="patch_27">
    <path d="M 158.183579 106.765695 
L 154.915155 106.765695 
L 154.399088 126.698305 
L 152.296593 126.698305 
L 155.299164 17.28 
L 157.792619 17.28 
L 160.79519 126.698305 
L 158.694433 126.698305 
L 158.183579 106.765695 
z
M 155.436435 86.457883 
L 157.657086 86.457883 
L 156.548498 42.934442 
L 155.436435 86.457883 
z
" clip-path="url(#p0edaed8dcd)" style="fill: #008000"/>
   </g>
   <g id="patch_28">
    <path d="M 161.242485 127.115932 
L 169.741082 127.115932 
L 169.741082 127.319555 
L 166.683564 127.319555 
L 166.683564 128.16 
L 164.305933 128.16 
L 164.305933 127.319555 
L 161.242485 127.319555 
L 161.242485 127.115932 
z
" clip-path="url(#p0edaed8dcd)" style="fill: #ff0000"/>
   </g>
   <g id="patch_29">
    <path d="M 167.129471 121.828465 
L 163.861047 121.828465 
L 163.34498 127.115932 
L 161.242485 127.115932 
L 164.245056 98.090847 
L 166.738511 98.090847 
L 169.741082 127.115932 
L 167.640325 127.115932 
L 167.129471 121.828465 
z
M 164.382327 116.441469 
L 166.602978 116.441469 
L 165.49439 104.896129 
L 164.382327 116.441469 
z
" clip-path="url(#p0edaed8dcd)" style="fill: #008000"/>
   </g>
   <g id="patch_30">
    <path d="M 169.741082 90.77931 
Q 168.883985 94.435079 167.962129 96.27131 
Q 167.040273 98.090847 166.057468 98.090847 
Q 163.836633 98.090847 162.539559 87.207007 
Q 161.242485 76.323166 161.242485 57.710463 
Q 161.242485 38.880751 162.562415 28.080376 
Q 163.88425 17.28 166.183175 17.28 
Q 167.068843 17.28 167.880228 18.748985 
Q 168.693519 20.201276 169.41348 23.072473 
L 169.41348 39.181225 
Q 168.670663 35.492071 167.935464 33.672533 
Q 167.200264 31.836302 166.461256 31.836302 
Q 165.093709 31.836302 164.352796 38.546891 
Q 163.611883 45.240787 163.611883 57.710463 
Q 163.611883 70.063289 164.326131 76.807263 
Q 165.040379 83.534545 166.354595 83.534545 
Q 166.712671 83.534545 167.019322 83.150606 
Q 167.325972 82.749974 167.569769 81.915324 
L 167.569769 66.791459 
L 166.169843 66.791459 
L 166.169843 53.320202 
L 169.741082 53.320202 
L 169.741082 90.77931 
z
" clip-path="url(#p0edaed8dcd)" style="fill: #ffa600"/>
   </g>
   <g id="patch_31">
    <path d="M 176.075363 107.961114 
L 172.806939 107.961114 
L 172.290872 128.16 
L 170.188377 128.16 
L 173.190948 17.28 
L 175.684403 17.28 
L 178.686974 128.16 
L 176.586217 128.16 
L 176.075363 107.961114 
z
M 173.328218 87.382015 
L 175.54887 87.382015 
L 174.440282 43.277154 
L 173.328218 87.382015 
z
" clip-path="url(#p0edaed8dcd)" style="fill: #008000"/>
   </g>
   <g id="patch_32">
    <path d="M 185.021254 107.961114 
L 181.75283 107.961114 
L 181.236763 128.16 
L 179.134269 128.16 
L 182.13684 17.28 
L 184.630294 17.28 
L 187.632866 128.16 
L 185.532108 128.16 
L 185.021254 107.961114 
z
M 182.27411 87.382015 
L 184.494762 87.382015 
L 183.386174 43.277154 
L 182.27411 87.382015 
z
" clip-path="url(#p0edaed8dcd)" style="fill: #008000"/>
   </g>
   <g id="patch_33">
    <path d="M 193.967146 107.961114 
L 190.698722 107.961114 
L 190.182655 128.16 
L 188.08016 128.16 
L 191.082732 17.28 
L 193.576186 17.28 
L 196.578758 128.16 
L 194.478 128.16 
L 193.967146 107.961114 
z
M 191.220002 87.382015 
L 193.440654 87.382015 
L 192.332065 43.277154 
L 191.220002 87.382015 
z
" clip-path="url(#p0edaed8dcd)" style="fill: #008000"/>
   </g>
   <g id="patch_34">
    <path d="M 205.524649 128.130065 
Q 204.813756 128.144903 204.04505 128.152408 
Q 203.276343 128.16 202.439117 128.16 
Q 199.942426 128.16 198.484239 128.103753 
Q 197.026052 128.047506 197.026052 127.951316 
Q 197.026052 127.854781 198.484239 127.79862 
Q 199.942426 127.742373 202.439117 127.742373 
Q 203.276343 127.742373 204.04505 127.749965 
Q 204.813756 127.75747 205.524649 127.772308 
L 205.524649 127.855558 
Q 204.807333 127.835888 204.111428 127.826744 
Q 203.415524 127.817599 202.646817 127.817599 
Q 201.267856 127.817599 200.477737 127.853228 
Q 199.68976 127.888771 199.68976 127.951316 
Q 199.68976 128.013602 200.477737 128.049231 
Q 201.267856 128.084774 202.646817 128.084774 
Q 203.415524 128.084774 204.111428 128.075629 
Q 204.807333 128.066398 205.524649 128.046729 
L 205.524649 128.130065 
z
" clip-path="url(#p0edaed8dcd)" style="fill: #0000ff"/>
   </g>
   <g id="patch_35">
    <path d="M 202.913038 127.590216 
L 199.644614 127.590216 
L 199.128547 127.742373 
L 197.026052 127.742373 
L 200.028623 126.907119 
L 202.522078 126.907119 
L 205.524649 127.742373 
L 203.423892 127.742373 
L 202.913038 127.590216 
z
M 200.165894 127.435194 
L 202.386545 127.435194 
L 201.277957 127.102954 
L 200.165894 127.435194 
z
" clip-path="url(#p0edaed8dcd)" style="fill: #008000"/>
   </g>
   <g id="patch_36">
    <path d="M 197.026052 125.23661 
L 205.524649 125.23661 
L 205.524649 125.562406 
L 202.467131 125.562406 
L 202.467131 126.907119 
L 200.0895 126.907119 
L 200.0895 125.562406 
L 197.026052 125.562406 
L 197.026052 125.23661 
z
" clip-path="url(#p0edaed8dcd)" style="fill: #ff0000"/>
   </g>
   <g id="patch_37">
    <path d="M 205.524649 115.469001 
Q 204.667552 120.352806 203.745696 122.805858 
Q 202.82384 125.23661 201.841035 125.23661 
Q 199.6202 125.23661 198.323126 110.696699 
Q 197.026052 96.156788 197.026052 71.291756 
Q 197.026052 46.136818 198.345982 31.708409 
Q 199.667817 17.28 201.966743 17.28 
Q 202.85241 17.28 203.663796 19.242442 
Q 204.477086 21.182584 205.197048 25.018266 
L 205.197048 46.538226 
Q 204.45423 41.609821 203.719031 39.179069 
Q 202.983832 36.726016 202.244823 36.726016 
Q 200.877277 36.726016 200.136363 45.690808 
Q 199.39545 54.633299 199.39545 71.291756 
Q 199.39545 87.794109 200.109698 96.803502 
Q 200.823946 105.790594 202.138162 105.790594 
Q 202.496238 105.790594 202.802889 105.277683 
Q 203.109539 104.742472 203.353336 103.627448 
L 203.353336 83.423215 
L 201.95341 83.423215 
L 201.95341 65.42673 
L 205.524649 65.42673 
L 205.524649 115.469001 
z
" clip-path="url(#p0edaed8dcd)" style="fill: #ffa600"/>
   </g>
   <g id="patch_38">
    <path d="M 214.470541 128.065536 
Q 213.613444 128.112768 212.691588 128.136492 
Q 211.769732 128.16 210.786927 128.16 
Q 208.566092 128.16 207.269018 128.019382 
Q 205.971944 127.878764 205.971944 127.63829 
Q 205.971944 127.395012 207.291874 127.255472 
Q 208.613709 127.115932 210.912634 127.115932 
Q 211.798302 127.115932 212.609687 127.134911 
Q 213.422978 127.153675 214.142939 127.19077 
L 214.142939 127.398894 
Q 213.400122 127.35123 212.664922 127.327722 
Q 211.929723 127.303998 211.190715 127.303998 
Q 209.823168 127.303998 209.082255 127.390698 
Q 208.341342 127.477183 208.341342 127.63829 
Q 208.341342 127.797887 209.05559 127.885018 
Q 209.769838 127.971934 211.084054 127.971934 
Q 211.44213 127.971934 211.748781 127.966974 
Q 212.055431 127.961797 212.299228 127.951014 
L 212.299228 127.755615 
L 210.899302 127.755615 
L 210.899302 127.581568 
L 214.470541 127.581568 
L 214.470541 128.065536 
z
" clip-path="url(#p0edaed8dcd)" style="fill: #ffa600"/>
   </g>
   <g id="patch_39">
    <path d="M 211.85893 126.621421 
L 208.590506 126.621421 
L 208.074439 127.115932 
L 205.971944 127.115932 
L 208.974515 124.401356 
L 211.46797 124.401356 
L 214.470541 127.115932 
L 212.369784 127.115932 
L 211.85893 126.621421 
z
M 209.111785 126.117601 
L 211.332437 126.117601 
L 210.223849 125.037821 
L 209.111785 126.117601 
z
" clip-path="url(#p0edaed8dcd)" style="fill: #008000"/>
   </g>
   <g id="patch_40">
    <path d="M 214.470541 121.617376 
Q 213.759648 122.997332 212.990942 123.695332 
Q 212.222235 124.401356 211.385009 124.401356 
Q 208.888318 124.401356 207.430131 119.170363 
Q 205.971944 113.93937 205.971944 104.993729 
Q 205.971944 96.015997 207.430131 90.793027 
Q 208.888318 85.562034 211.385009 85.562034 
Q 212.222235 85.562034 212.990942 86.268058 
Q 213.759648 86.966058 214.470541 88.346013 
L 214.470541 96.088204 
Q 213.753224 94.258961 213.05732 93.408524 
Q 212.361416 92.558086 211.592709 92.558086 
Q 210.213748 92.558086 209.423629 95.871583 
Q 208.635651 99.177058 208.635651 104.993729 
Q 208.635651 110.786332 209.423629 114.099829 
Q 210.213748 117.405304 211.592709 117.405304 
Q 212.361416 117.405304 213.05732 116.554866 
Q 213.753224 115.696406 214.470541 113.867163 
L 214.470541 121.617376 
z
" clip-path="url(#p0edaed8dcd)" style="fill: #0000ff"/>
   </g>
   <g id="patch_41">
    <path d="M 205.971944 17.28 
L 214.470541 17.28 
L 214.470541 30.596899 
L 211.413023 30.596899 
L 211.413023 85.562034 
L 209.035392 85.562034 
L 209.035392 30.596899 
L 205.971944 30.596899 
L 205.971944 17.28 
z
" clip-path="url(#p0edaed8dcd)" style="fill: #ff0000"/>
   </g>
   <g id="patch_42">
    <path d="M 223.416433 128.115097 
Q 222.70554 128.137354 221.936833 128.148613 
Q 221.168127 128.16 220.3309 128.16 
Q 217.83421 128.16 216.376023 128.075629 
Q 214.917836 127.991258 214.917836 127.846974 
Q 214.917836 127.702172 216.376023 127.61793 
Q 217.83421 127.533559 220.3309 127.533559 
Q 221.168127 127.533559 221.936833 127.544947 
Q 222.70554 127.556205 223.416433 127.578462 
L 223.416433 127.703336 
Q 222.699116 127.673832 222.003212 127.660116 
Q 221.307308 127.646399 220.538601 127.646399 
Q 219.15964 127.646399 218.369521 127.699842 
Q 217.581543 127.753156 217.581543 127.846974 
Q 217.581543 127.940403 218.369521 127.993846 
Q 219.15964 128.04716 220.538601 128.04716 
Q 221.307308 128.04716 222.003212 128.033444 
Q 222.699116 128.019598 223.416433 127.990094 
L 223.416433 128.115097 
z
" clip-path="url(#p0edaed8dcd)" style="fill: #0000ff"/>
   </g>
   <g id="patch_43">
    <path d="M 223.416433 127.231274 
Q 222.559335 127.382416 221.63748 127.458333 
Q 220.715624 127.533559 219.732819 127.533559 
Q 217.511984 127.533559 216.21491 127.083581 
Q 214.917836 126.633604 214.917836 125.864086 
Q 214.917836 125.085597 216.237766 124.63907 
Q 217.5596 124.192542 219.858526 124.192542 
Q 220.744194 124.192542 221.555579 124.253276 
Q 222.368869 124.313319 223.088831 124.432024 
L 223.088831 125.098019 
Q 222.346013 124.945496 221.610814 124.87027 
Q 220.875615 124.794353 220.136607 124.794353 
Q 218.76906 124.794353 218.028147 125.071794 
Q 217.287234 125.348544 217.287234 125.864086 
Q 217.287234 126.374797 218.001482 126.653618 
Q 218.71573 126.931748 220.029946 126.931748 
Q 220.388022 126.931748 220.694672 126.915875 
Q 221.001323 126.899311 221.245119 126.864804 
L 221.245119 126.239528 
L 219.845194 126.239528 
L 219.845194 125.682577 
L 223.416433 125.682577 
L 223.416433 127.231274 
z
" clip-path="url(#p0edaed8dcd)" style="fill: #ffa600"/>
   </g>
   <g id="patch_44">
    <path d="M 220.804821 122.214497 
L 217.536398 122.214497 
L 217.020331 124.192542 
L 214.917836 124.192542 
L 217.920407 113.334237 
L 220.413862 113.334237 
L 223.416433 124.192542 
L 221.315676 124.192542 
L 220.804821 122.214497 
z
M 218.057677 120.199218 
L 220.278329 120.199218 
L 219.169741 115.880098 
L 218.057677 120.199218 
z
" clip-path="url(#p0edaed8dcd)" style="fill: #008000"/>
   </g>
   <g id="patch_45">
    <path d="M 214.917836 17.28 
L 223.416433 17.28 
L 223.416433 36.013252 
L 220.358914 36.013252 
L 220.358914 113.334237 
L 217.981283 113.334237 
L 217.981283 36.013252 
L 214.917836 36.013252 
L 214.917836 17.28 
z
" clip-path="url(#p0edaed8dcd)" style="fill: #ff0000"/>
   </g>
   <g id="patch_46">
    <path d="M 232.362325 118.127891 
Q 231.505227 123.143945 230.583371 125.663425 
Q 229.661515 128.16 228.67871 128.16 
Q 226.457876 128.16 225.160802 113.226358 
Q 223.863727 98.292716 223.863727 72.754357 
Q 223.863727 46.91824 225.183657 32.09912 
Q 226.505492 17.28 228.804418 17.28 
Q 229.690085 17.28 230.501471 19.295584 
Q 231.314761 21.288263 232.034723 25.227812 
L 232.034723 47.330518 
Q 231.291905 42.268655 230.556706 39.77208 
Q 229.821507 37.252601 229.082498 37.252601 
Q 227.714952 37.252601 226.974039 46.460153 
Q 226.233126 55.644801 226.233126 72.754357 
Q 226.233126 89.703582 226.947374 98.956943 
Q 227.661621 108.187399 228.975837 108.187399 
Q 229.333914 108.187399 229.640564 107.660599 
Q 229.947215 107.110894 230.191011 105.965677 
L 230.191011 85.214328 
L 228.791085 85.214328 
L 228.791085 66.73051 
L 232.362325 66.73051 
L 232.362325 118.127891 
z
" clip-path="url(#p0edaed8dcd)" style="fill: #ffa600"/>
   </g>
   <g id="patch_47">
    <path d="M 232.809619 117.092881 
L 241.308216 117.092881 
L 241.308216 119.251278 
L 238.250698 119.251278 
L 238.250698 128.16 
L 235.873067 128.16 
L 235.873067 119.251278 
L 232.809619 119.251278 
L 232.809619 117.092881 
z
" clip-path="url(#p0edaed8dcd)" style="fill: #ff0000"/>
   </g>
   <g id="patch_48">
    <path d="M 241.308216 116.075082 
Q 240.597323 116.579582 239.828617 116.834765 
Q 239.05991 117.092881 238.222684 117.092881 
Q 235.725993 117.092881 234.267806 115.180475 
Q 232.809619 113.268069 232.809619 109.99762 
Q 232.809619 106.715438 234.267806 104.805965 
Q 235.725993 102.893559 238.222684 102.893559 
Q 239.05991 102.893559 239.828617 103.151675 
Q 240.597323 103.406859 241.308216 103.911358 
L 241.308216 106.741837 
Q 240.5909 106.073081 239.894995 105.762168 
Q 239.199091 105.451256 238.430385 105.451256 
Q 237.051423 105.451256 236.261304 106.662642 
Q 235.473327 107.871095 235.473327 109.99762 
Q 235.473327 112.115346 236.261304 113.326732 
Q 237.051423 114.535185 238.430385 114.535185 
Q 239.199091 114.535185 239.894995 114.224272 
Q 240.5909 113.910426 241.308216 113.241671 
L 241.308216 116.075082 
z
" clip-path="url(#p0edaed8dcd)" style="fill: #0000ff"/>
   </g>
   <g id="patch_49">
    <path d="M 238.696605 97.073541 
L 235.428181 97.073541 
L 234.912114 102.893559 
L 232.809619 102.893559 
L 235.81219 70.945085 
L 238.305645 70.945085 
L 241.308216 102.893559 
L 239.207459 102.893559 
L 238.696605 97.073541 
z
M 235.949461 91.14397 
L 238.170112 91.14397 
L 237.061524 78.43579 
L 235.949461 91.14397 
z
" clip-path="url(#p0edaed8dcd)" style="fill: #008000"/>
   </g>
   <g id="patch_50">
    <path d="M 241.308216 66.316334 
Q 240.451119 68.630709 239.529263 69.793181 
Q 238.607407 70.945085 237.624602 70.945085 
Q 235.403767 70.945085 234.106693 64.054798 
Q 232.809619 57.164511 232.809619 45.381276 
Q 232.809619 33.460657 234.129549 26.62321 
Q 235.451384 19.785763 237.75031 19.785763 
Q 238.635977 19.785763 239.447363 20.71574 
Q 240.260653 21.635149 240.980615 23.452832 
L 240.980615 33.65088 
Q 240.237797 31.315368 239.502598 30.163464 
Q 238.767399 29.000993 238.02839 29.000993 
Q 236.660844 29.000993 235.919931 33.249298 
Q 235.179017 37.487036 235.179017 45.381276 
Q 235.179017 53.20154 235.893265 57.470981 
Q 236.607513 61.729855 237.921729 61.729855 
Q 238.279806 61.729855 238.586456 61.486792 
Q 238.893106 61.233162 239.136903 60.704766 
L 239.136903 51.130226 
L 237.736977 51.130226 
L 237.736977 42.601911 
L 241.308216 42.601911 
L 241.308216 66.316334 
z
" clip-path="url(#p0edaed8dcd)" style="fill: #ffa600"/>
   </g>
   <g id="patch_51">
    <path d="M 247.642497 123.823516 
L 244.374073 123.823516 
L 243.858006 128.16 
L 241.755511 128.16 
L 244.758082 104.355254 
L 247.251537 104.355254 
L 250.254108 128.16 
L 248.153351 128.16 
L 247.642497 123.823516 
z
M 244.895353 119.405404 
L 247.116004 119.405404 
L 246.007416 109.936564 
L 244.895353 119.405404 
z
" clip-path="url(#p0edaed8dcd)" style="fill: #008000"/>
   </g>
   <g id="patch_52">
    <path d="M 250.254108 102.088111 
Q 249.397011 103.221683 248.475155 103.791056 
Q 247.553299 104.355254 246.570494 104.355254 
Q 244.349659 104.355254 243.052585 100.98042 
Q 241.755511 97.605586 241.755511 91.834205 
Q 241.755511 85.995534 243.075441 82.646581 
Q 244.397276 79.297627 246.696202 79.297627 
Q 247.581869 79.297627 248.393254 79.753126 
Q 249.206545 80.203449 249.926507 81.093743 
L 249.926507 86.088705 
Q 249.183689 84.944781 248.44849 84.380583 
Q 247.71329 83.811209 246.974282 83.811209 
Q 245.606735 83.811209 244.865822 85.892012 
Q 244.124909 87.967639 244.124909 91.834205 
Q 244.124909 95.664538 244.839157 97.755693 
Q 245.553405 99.841672 246.867621 99.841672 
Q 247.225697 99.841672 247.532348 99.722621 
Q 247.838998 99.598394 248.082795 99.339588 
L 248.082795 94.650018 
L 246.682869 94.650018 
L 246.682869 90.472884 
L 250.254108 90.472884 
L 250.254108 102.088111 
z
" clip-path="url(#p0edaed8dcd)" style="fill: #ffa600"/>
   </g>
   <g id="patch_53">
    <path d="M 241.755511 54.24 
L 250.254108 54.24 
L 250.254108 59.126935 
L 247.19659 59.126935 
L 247.19659 79.297627 
L 244.818959 79.297627 
L 244.818959 59.126935 
L 241.755511 59.126935 
L 241.755511 54.24 
z
" clip-path="url(#p0edaed8dcd)" style="fill: #ff0000"/>
   </g>
   <g id="patch_54">
    <path d="M 250.254108 51.770341 
Q 249.543215 52.994495 248.774509 53.613689 
Q 248.005802 54.24 247.168576 54.24 
Q 244.671885 54.24 243.213698 49.599603 
Q 241.755511 44.959206 241.755511 37.023557 
Q 241.755511 29.05944 243.213698 24.42616 
Q 244.671885 19.785763 247.168576 19.785763 
Q 248.005802 19.785763 248.774509 20.412074 
Q 249.543215 21.031268 250.254108 22.255422 
L 250.254108 29.123494 
Q 249.536791 27.500779 248.840887 26.746358 
Q 248.144983 25.991938 247.376276 25.991938 
Q 245.997315 25.991938 245.207196 28.931331 
Q 244.419218 31.863606 244.419218 37.023557 
Q 244.419218 42.162156 245.207196 45.101549 
Q 245.997315 48.033825 247.376276 48.033825 
Q 248.144983 48.033825 248.840887 47.279404 
Q 249.536791 46.517867 250.254108 44.895151 
L 250.254108 51.770341 
z
" clip-path="url(#p0edaed8dcd)" style="fill: #0000ff"/>
   </g>
   <g id="patch_55">
    <path d="M 259.2 126.157357 
Q 258.342903 127.158678 257.421047 127.661625 
Q 256.499191 128.16 255.516386 128.16 
Q 253.295551 128.16 251.998477 125.178896 
Q 250.701403 122.197793 250.701403 117.09974 
Q 250.701403 111.942248 252.021333 108.984005 
Q 253.343168 106.025763 255.642093 106.025763 
Q 256.527761 106.025763 257.339146 106.42812 
Q 258.152436 106.825906 258.872398 107.612332 
L 258.872398 112.024548 
Q 258.129581 111.014082 257.394381 110.515707 
Q 256.659182 110.01276 255.920174 110.01276 
Q 254.552627 110.01276 253.811714 111.850803 
Q 253.070801 113.684273 253.070801 117.09974 
Q 253.070801 120.483201 253.785049 122.330388 
Q 254.499297 124.173002 255.813513 124.173002 
Q 256.171589 124.173002 256.478239 124.067841 
Q 256.78489 123.958107 257.028687 123.729495 
L 257.028687 119.587041 
L 255.628761 119.587041 
L 255.628761 115.897239 
L 259.2 115.897239 
L 259.2 126.157357 
z
" clip-path="url(#p0edaed8dcd)" style="fill: #ffa600"/>
   </g>
   <g id="patch_56">
    <path d="M 259.2 104.364356 
Q 258.489107 105.187877 257.7204 105.604426 
Q 256.951694 106.025763 256.114467 106.025763 
Q 253.617777 106.025763 252.15959 102.904041 
Q 250.701403 99.782319 250.701403 94.443792 
Q 250.701403 89.086113 252.15959 85.969179 
Q 253.617777 82.847458 256.114467 82.847458 
Q 256.951694 82.847458 257.7204 83.268794 
Q 258.489107 83.685343 259.2 84.508865 
L 259.2 89.129204 
Q 258.482683 88.037559 257.786779 87.53004 
Q 257.090875 87.022521 256.322168 87.022521 
Q 254.943207 87.022521 254.153088 88.999931 
Q 253.36511 90.972552 253.36511 94.443792 
Q 253.36511 97.900668 254.153088 99.878078 
Q 254.943207 101.850699 256.322168 101.850699 
Q 257.090875 101.850699 257.786779 101.34318 
Q 258.482683 100.830873 259.2 99.739228 
L 259.2 104.364356 
z
" clip-path="url(#p0edaed8dcd)" style="fill: #0000ff"/>
   </g>
   <g id="patch_57">
    <path d="M 250.701403 53.613559 
L 259.2 53.613559 
L 259.2 59.314984 
L 256.142481 59.314984 
L 256.142481 82.847458 
L 253.764851 82.847458 
L 253.764851 59.314984 
L 250.701403 59.314984 
L 250.701403 53.613559 
z
" clip-path="url(#p0edaed8dcd)" style="fill: #ff0000"/>
   </g>
   <g id="patch_58">
    <path d="M 256.588389 47.451187 
L 253.319965 47.451187 
L 252.803898 53.613559 
L 250.701403 53.613559 
L 253.703974 19.785763 
L 256.197429 19.785763 
L 259.2 53.613559 
L 257.099243 53.613559 
L 256.588389 47.451187 
z
M 253.841244 41.172818 
L 256.061896 41.172818 
L 254.953308 27.717098 
L 253.841244 41.172818 
z
" clip-path="url(#p0edaed8dcd)" style="fill: #008000"/>
   </g>
  </g>
 </g>
 <defs>
  <clipPath id="p0edaed8dcd">
   <rect x="36" y="17.28" width="223.2" height="110.88"/>
  </clipPath>
 </defs>
</svg>
