<?xml version="1.0" encoding="utf-8" standalone="no"?>
<!DOCTYPE svg PUBLIC "-//W3C//DTD SVG 1.1//EN"
  "http://www.w3.org/Graphics/SVG/1.1/DTD/svg11.dtd">
<svg xmlns:xlink="http://www.w3.org/1999/xlink" width="288pt" height="144pt" viewBox="0 0 288 144" xmlns="http://www.w3.org/2000/svg" version="1.1">
 <metadata>
  <rdf:RDF xmlns:dc="http://purl.org/dc/elements/1.1/" xmlns:cc="http://creativecommons.org/ns#" xmlns:rdf="http://www.w3.org/1999/02/22-rdf-syntax-ns#">
   <cc:Work>
    <dc:type rdf:resource="http://purl.org/dc/dcmitype/StillImage"/>
    <dc:date>2024-11-11T17:03:43.853407</dc:date>
    <dc:format>image/svg+xml</dc:format>
    <dc:creator>
     <cc:Agent>
      <dc:title>Matplotlib v3.9.2, https://matplotlib.org/</dc:title>
     </cc:Agent>
    </dc:creator>
   </cc:Work>
  </rdf:RDF>
 </metadata>
 <defs>
  <style type="text/css">*{stroke-linejoin: round; stroke-linecap: butt}</style>
 </defs>
 <g id="figure_1">
  <g id="patch_1">
   <path d="M 0 144 
L 288 144 
L 288 0 
L 0 0 
z
" style="fill: #ffffff"/>
  </g>
  <g id="axes_1">
   <g id="line2d_1">
    <path d="M 36 128.16 
L 259.2 128.16 
" clip-path="url(#p277d43b05c)" style="fill: none; stroke: #000000; stroke-width: 0.5; stroke-linecap: square"/>
   </g>
   <g id="patch_2">
    <path d="M 45.660137 126.570438 
Q 44.852083 127.358347 43.978314 127.756883 
Q 43.104545 128.16 42.152891 128.16 
Q 39.314968 128.16 37.657484 125.173272 
Q 36 122.186543 36 117.078871 
Q 36 111.952876 37.657484 108.970728 
Q 39.314968 105.984 42.152891 105.984 
Q 43.104545 105.984 43.978314 106.387117 
Q 44.852083 106.785653 45.660137 107.573562 
L 45.660137 111.994104 
Q 44.844781 110.949665 44.053765 110.464093 
Q 43.262748 109.97852 42.388979 109.97852 
Q 40.82155 109.97852 39.923442 111.87042 
Q 39.027768 113.757739 39.027768 117.078871 
Q 39.027768 120.386261 39.923442 122.278161 
Q 40.82155 124.16548 42.388979 124.16548 
Q 43.262748 124.16548 44.053765 123.679907 
Q 44.844781 123.189754 45.660137 122.145315 
L 45.660137 126.570438 
z
" clip-path="url(#p277d43b05c)" style="fill: #0000ff"/>
   </g>
   <g id="patch_3">
    <path d="M 36 83.808 
L 45.660137 83.808 
L 45.660137 88.132938 
L 42.184734 88.132938 
L 42.184734 105.984 
L 39.482142 105.984 
L 39.482142 88.132938 
L 36 88.132938 
L 36 83.808 
z
" clip-path="url(#p277d43b05c)" style="fill: #ff0000"/>
   </g>
   <g id="patch_4">
    <path d="M 55.828702 120.212188 
Q 55.020648 124.151737 54.146879 126.144416 
Q 53.27311 128.16 52.321456 128.16 
Q 49.483532 128.16 47.826049 113.226358 
Q 46.168565 98.292716 46.168565 72.754357 
Q 46.168565 47.124379 47.826049 32.213642 
Q 49.483532 17.28 52.321456 17.28 
Q 53.27311 17.28 54.146879 19.295584 
Q 55.020648 21.288263 55.828702 25.227812 
L 55.828702 47.330518 
Q 55.013346 42.108325 54.22233 39.680463 
Q 53.431313 37.252601 52.557544 37.252601 
Q 50.990115 37.252601 50.092007 46.712101 
Q 49.196333 56.148697 49.196333 72.754357 
Q 49.196333 89.291303 50.092007 98.750804 
Q 50.990115 108.187399 52.557544 108.187399 
Q 53.431313 108.187399 54.22233 105.759537 
Q 55.013346 103.308771 55.828702 98.086577 
L 55.828702 120.212188 
z
" clip-path="url(#p277d43b05c)" style="fill: #0000ff"/>
   </g>
   <g id="patch_5">
    <path d="M 65.997267 124.980875 
Q 65.189213 126.556695 64.315444 127.353767 
Q 63.441675 128.16 62.490021 128.16 
Q 59.652097 128.16 57.994614 122.186543 
Q 56.33713 116.213087 56.33713 105.997743 
Q 56.33713 95.745752 57.994614 89.781457 
Q 59.652097 83.808 62.490021 83.808 
Q 63.441675 83.808 64.315444 84.614233 
Q 65.189213 85.411305 65.997267 86.987125 
L 65.997267 95.828207 
Q 65.181911 93.73933 64.390895 92.768185 
Q 63.599878 91.79704 62.726109 91.79704 
Q 61.15868 91.79704 60.260572 95.58084 
Q 59.364898 99.355479 59.364898 105.997743 
Q 59.364898 112.612521 60.260572 116.396321 
Q 61.15868 120.17096 62.726109 120.17096 
Q 63.599878 120.17096 64.390895 119.199815 
Q 65.181911 118.219508 65.997267 116.130631 
L 65.997267 124.980875 
z
" clip-path="url(#p277d43b05c)" style="fill: #0000ff"/>
   </g>
   <g id="patch_6">
    <path d="M 63.028715 71.688669 
L 59.313582 71.688669 
L 58.726982 83.808 
L 56.33713 83.808 
L 59.750075 17.28 
L 62.584321 17.28 
L 65.997267 83.808 
L 63.60939 83.808 
L 63.028715 71.688669 
z
M 59.906107 59.341209 
L 62.430265 59.341209 
L 61.170161 32.878292 
L 59.906107 59.341209 
z
" clip-path="url(#p277d43b05c)" style="fill: #008000"/>
   </g>
   <g id="patch_7">
    <path d="M 73.19728 107.961114 
L 69.482147 107.961114 
L 68.895547 128.16 
L 66.505695 128.16 
L 69.91864 17.28 
L 72.752886 17.28 
L 76.165831 128.16 
L 73.777955 128.16 
L 73.19728 107.961114 
z
M 70.074672 87.382015 
L 72.598829 87.382015 
L 71.338726 43.277154 
L 70.074672 87.382015 
z
" clip-path="url(#p277d43b05c)" style="fill: #008000"/>
   </g>
   <g id="patch_8">
    <path d="M 86.334396 120.212188 
Q 85.526343 124.151737 84.652574 126.144416 
Q 83.778805 128.16 82.827151 128.16 
Q 79.989227 128.16 78.331743 113.226358 
Q 76.67426 98.292716 76.67426 72.754357 
Q 76.67426 47.124379 78.331743 32.213642 
Q 79.989227 17.28 82.827151 17.28 
Q 83.778805 17.28 84.652574 19.295584 
Q 85.526343 21.288263 86.334396 25.227812 
L 86.334396 47.330518 
Q 85.519041 42.108325 84.728024 39.680463 
Q 83.937008 37.252601 83.063239 37.252601 
Q 81.495809 37.252601 80.597701 46.712101 
Q 79.702027 56.148697 79.702027 72.754357 
Q 79.702027 89.291303 80.597701 98.750804 
Q 81.495809 108.187399 83.063239 108.187399 
Q 83.937008 108.187399 84.728024 105.759537 
Q 85.519041 103.308771 86.334396 98.086577 
L 86.334396 120.212188 
z
" clip-path="url(#p277d43b05c)" style="fill: #0000ff"/>
   </g>
   <g id="patch_9">
    <path d="M 86.842825 17.28 
L 96.502961 17.28 
L 96.502961 38.904689 
L 93.027559 38.904689 
L 93.027559 128.16 
L 90.324967 128.16 
L 90.324967 38.904689 
L 86.842825 38.904689 
L 86.842825 17.28 
z
" clip-path="url(#p277d43b05c)" style="fill: #ff0000"/>
   </g>
   <g id="patch_10">
    <path d="M 97.01139 17.28 
L 106.671526 17.28 
L 106.671526 38.904689 
L 103.196124 38.904689 
L 103.196124 128.16 
L 100.493532 128.16 
L 100.493532 38.904689 
L 97.01139 38.904689 
L 97.01139 17.28 
z
" clip-path="url(#p277d43b05c)" style="fill: #ff0000"/>
   </g>
   <g id="patch_11">
    <path d="M 107.179954 17.28 
L 116.840091 17.28 
L 116.840091 38.904689 
L 113.364688 38.904689 
L 113.364688 128.16 
L 110.662097 128.16 
L 110.662097 38.904689 
L 107.179954 38.904689 
L 107.179954 17.28 
z
" clip-path="url(#p277d43b05c)" style="fill: #ff0000"/>
   </g>
   <g id="patch_12">
    <path d="M 127.008656 118.127891 
Q 126.034415 123.143945 124.986566 125.663425 
Q 123.938716 128.16 122.821586 128.16 
Q 120.297221 128.16 118.82287 113.226358 
Q 117.348519 98.292716 117.348519 72.754357 
Q 117.348519 46.91824 118.84885 32.09912 
Q 120.351345 17.28 122.964475 17.28 
Q 123.97119 17.28 124.893471 19.295584 
Q 125.817918 21.288263 126.63628 25.227812 
L 126.63628 47.330518 
Q 125.791938 42.268655 124.956256 39.77208 
Q 124.120574 37.252601 123.280562 37.252601 
Q 121.726107 37.252601 120.88393 46.460153 
Q 120.041753 55.644801 120.041753 72.754357 
Q 120.041753 89.703582 120.85362 98.956943 
Q 121.665488 108.187399 123.159323 108.187399 
Q 123.566339 108.187399 123.914901 107.660599 
Q 124.263463 107.110894 124.54058 105.965677 
L 124.54058 85.214328 
L 122.94932 85.214328 
L 122.94932 66.73051 
L 127.008656 66.73051 
L 127.008656 118.127891 
z
" clip-path="url(#p277d43b05c)" style="fill: #ffa600"/>
   </g>
   <g id="patch_13">
    <path d="M 127.517084 17.28 
L 137.177221 17.28 
L 137.177221 38.904689 
L 133.701818 38.904689 
L 133.701818 128.16 
L 130.999227 128.16 
L 130.999227 38.904689 
L 127.517084 38.904689 
L 127.517084 17.28 
z
" clip-path="url(#p277d43b05c)" style="fill: #ff0000"/>
   </g>
   <g id="patch_14">
    <path d="M 144.377234 107.961114 
L 140.662101 107.961114 
L 140.075501 128.16 
L 137.685649 128.16 
L 141.098595 17.28 
L 143.93284 17.28 
L 147.345786 128.16 
L 144.957909 128.16 
L 144.377234 107.961114 
z
M 141.254626 87.382015 
L 143.778784 87.382015 
L 142.51868 43.277154 
L 141.254626 87.382015 
z
" clip-path="url(#p277d43b05c)" style="fill: #008000"/>
   </g>
   <g id="patch_15">
    <path d="M 147.854214 17.28 
L 157.514351 17.28 
L 157.514351 38.904689 
L 154.038948 38.904689 
L 154.038948 128.16 
L 151.336356 128.16 
L 151.336356 38.904689 
L 147.854214 38.904689 
L 147.854214 17.28 
z
" clip-path="url(#p277d43b05c)" style="fill: #ff0000"/>
   </g>
   <g id="patch_16">
    <path d="M 164.714364 107.961114 
L 160.999231 107.961114 
L 160.412631 128.16 
L 158.022779 128.16 
L 161.435724 17.28 
L 164.26997 17.28 
L 167.682916 128.16 
L 165.295039 128.16 
L 164.714364 107.961114 
z
M 161.591756 87.382015 
L 164.115914 87.382015 
L 162.85581 43.277154 
L 161.591756 87.382015 
z
" clip-path="url(#p277d43b05c)" style="fill: #008000"/>
   </g>
   <g id="patch_17">
    <path d="M 177.851481 118.127891 
Q 176.87724 123.143945 175.82939 125.663425 
Q 174.78154 128.16 173.664411 128.16 
Q 171.140045 128.16 169.665695 113.226358 
Q 168.191344 98.292716 168.191344 72.754357 
Q 168.191344 46.91824 169.691674 32.09912 
Q 171.19417 17.28 173.8073 17.28 
Q 174.814015 17.28 175.736296 19.295584 
Q 176.660742 21.288263 177.479104 25.227812 
L 177.479104 47.330518 
Q 176.634762 42.268655 175.79908 39.77208 
Q 174.963399 37.252601 174.123387 37.252601 
Q 172.568932 37.252601 171.726755 46.460153 
Q 170.884578 55.644801 170.884578 72.754357 
Q 170.884578 89.703582 171.696445 98.956943 
Q 172.508312 108.187399 174.002148 108.187399 
Q 174.409164 108.187399 174.757726 107.660599 
Q 175.106287 107.110894 175.383404 105.965677 
L 175.383404 85.214328 
L 173.792145 85.214328 
L 173.792145 66.73051 
L 177.851481 66.73051 
L 177.851481 118.127891 
z
" clip-path="url(#p277d43b05c)" style="fill: #ffa600"/>
   </g>
   <g id="patch_18">
    <path d="M 185.051494 107.961114 
L 181.336361 107.961114 
L 180.749761 128.16 
L 178.359909 128.16 
L 181.772854 17.28 
L 184.6071 17.28 
L 188.020046 128.16 
L 185.632169 128.16 
L 185.051494 107.961114 
z
M 181.928886 87.382015 
L 184.453044 87.382015 
L 183.19294 43.277154 
L 181.928886 87.382015 
z
" clip-path="url(#p277d43b05c)" style="fill: #008000"/>
   </g>
   <g id="patch_19">
    <path d="M 195.220059 107.961114 
L 191.504926 107.961114 
L 190.918326 128.16 
L 188.528474 128.16 
L 191.941419 17.28 
L 194.775665 17.28 
L 198.18861 128.16 
L 195.800734 128.16 
L 195.220059 107.961114 
z
M 192.097451 87.382015 
L 194.621608 87.382015 
L 193.361505 43.277154 
L 192.097451 87.382015 
z
" clip-path="url(#p277d43b05c)" style="fill: #008000"/>
   </g>
   <g id="patch_20">
    <path d="M 205.388624 107.961114 
L 201.673491 107.961114 
L 201.086891 128.16 
L 198.697039 128.16 
L 202.109984 17.28 
L 204.94423 17.28 
L 208.357175 128.16 
L 205.969299 128.16 
L 205.388624 107.961114 
z
M 202.266016 87.382015 
L 204.790173 87.382015 
L 203.53007 43.277154 
L 202.266016 87.382015 
z
" clip-path="url(#p277d43b05c)" style="fill: #008000"/>
   </g>
   <g id="patch_21">
    <path d="M 215.557189 107.961114 
L 211.842055 107.961114 
L 211.255455 128.16 
L 208.865604 128.16 
L 212.278549 17.28 
L 215.112795 17.28 
L 218.52574 128.16 
L 216.137864 128.16 
L 215.557189 107.961114 
z
M 212.434581 87.382015 
L 214.958738 87.382015 
L 213.698635 43.277154 
L 212.434581 87.382015 
z
" clip-path="url(#p277d43b05c)" style="fill: #008000"/>
   </g>
   <g id="patch_22">
    <path d="M 228.694305 118.127891 
Q 227.720065 123.143945 226.672215 125.663425 
Q 225.624365 128.16 224.507236 128.16 
Q 221.98287 128.16 220.508519 113.226358 
Q 219.034169 98.292716 219.034169 72.754357 
Q 219.034169 46.91824 220.534499 32.09912 
Q 222.036995 17.28 224.650124 17.28 
Q 225.65684 17.28 226.579121 19.295584 
Q 227.503567 21.288263 228.321929 25.227812 
L 228.321929 47.330518 
Q 227.477587 42.268655 226.641905 39.77208 
Q 225.806223 37.252601 224.966211 37.252601 
Q 223.411756 37.252601 222.569579 46.460153 
Q 221.727403 55.644801 221.727403 72.754357 
Q 221.727403 89.703582 222.53927 98.956943 
Q 223.351137 108.187399 224.844972 108.187399 
Q 225.251988 108.187399 225.60055 107.660599 
Q 225.949112 107.110894 226.226229 105.965677 
L 226.226229 85.214328 
L 224.634969 85.214328 
L 224.634969 66.73051 
L 228.694305 66.73051 
L 228.694305 118.127891 
z
" clip-path="url(#p277d43b05c)" style="fill: #ffa600"/>
   </g>
   <g id="patch_23">
    <path d="M 229.202733 17.28 
L 238.86287 17.28 
L 238.86287 38.904689 
L 235.387468 38.904689 
L 235.387468 128.16 
L 232.684876 128.16 
L 232.684876 38.904689 
L 229.202733 38.904689 
L 229.202733 17.28 
z
" clip-path="url(#p277d43b05c)" style="fill: #ff0000"/>
   </g>
   <g id="patch_24">
    <path d="M 249.031435 126.153578 
Q 248.057194 127.156789 247.009345 127.660685 
Q 245.961495 128.16 244.844366 128.16 
Q 242.32 128.16 240.845649 125.173272 
Q 239.371298 122.186543 239.371298 117.078871 
Q 239.371298 111.911648 240.871629 108.947824 
Q 242.374124 105.984 244.987254 105.984 
Q 245.993969 105.984 246.916251 106.387117 
Q 247.840697 106.785653 248.659059 107.573562 
L 248.659059 111.994104 
Q 247.814717 110.981731 246.979035 110.482416 
Q 246.143353 109.97852 245.303341 109.97852 
Q 243.748886 109.97852 242.906709 111.820031 
Q 242.064532 113.65696 242.064532 117.078871 
Q 242.064532 120.468716 242.8764 122.319389 
Q 243.688267 124.16548 245.182102 124.16548 
Q 245.589118 124.16548 245.93768 124.06012 
Q 246.286242 123.950179 246.563359 123.721135 
L 246.563359 119.570866 
L 244.972099 119.570866 
L 244.972099 115.874102 
L 249.031435 115.874102 
L 249.031435 126.153578 
z
" clip-path="url(#p277d43b05c)" style="fill: #ffa600"/>
   </g>
   <g id="patch_25">
    <path d="M 239.371298 17.28 
L 249.031435 17.28 
L 249.031435 34.579751 
L 245.556032 34.579751 
L 245.556032 105.984 
L 242.853441 105.984 
L 242.853441 34.579751 
L 239.371298 34.579751 
L 239.371298 17.28 
z
" clip-path="url(#p277d43b05c)" style="fill: #ff0000"/>
   </g>
   <g id="patch_26">
    <path d="M 259.2 118.127891 
Q 258.225759 123.143945 257.17791 125.663425 
Q 256.13006 128.16 255.01293 128.16 
Q 252.488565 128.16 251.014214 113.226358 
Q 249.539863 98.292716 249.539863 72.754357 
Q 249.539863 46.91824 251.040194 32.09912 
Q 252.542689 17.28 255.155819 17.28 
Q 256.162534 17.28 257.084815 19.295584 
Q 258.009262 21.288263 258.827624 25.227812 
L 258.827624 47.330518 
Q 257.983282 42.268655 257.1476 39.77208 
Q 256.311918 37.252601 255.471906 37.252601 
Q 253.917451 37.252601 253.075274 46.460153 
Q 252.233097 55.644801 252.233097 72.754357 
Q 252.233097 89.703582 253.044964 98.956943 
Q 253.856832 108.187399 255.350667 108.187399 
Q 255.757683 108.187399 256.106245 107.660599 
Q 256.454807 107.110894 256.731924 105.965677 
L 256.731924 85.214328 
L 255.140664 85.214328 
L 255.140664 66.73051 
L 259.2 66.73051 
L 259.2 118.127891 
z
" clip-path="url(#p277d43b05c)" style="fill: #ffa600"/>
   </g>
  </g>
 </g>
 <defs>
  <clipPath id="p277d43b05c">
   <rect x="36" y="17.28" width="223.2" height="110.88"/>
  </clipPath>
 </defs>
</svg>
