<?xml version="1.0" encoding="utf-8" standalone="no"?>
<!DOCTYPE svg PUBLIC "-//W3C//DTD SVG 1.1//EN"
  "http://www.w3.org/Graphics/SVG/1.1/DTD/svg11.dtd">
<svg xmlns:xlink="http://www.w3.org/1999/xlink" width="288pt" height="144pt" viewBox="0 0 288 144" xmlns="http://www.w3.org/2000/svg" version="1.1">
 <metadata>
  <rdf:RDF xmlns:dc="http://purl.org/dc/elements/1.1/" xmlns:cc="http://creativecommons.org/ns#" xmlns:rdf="http://www.w3.org/1999/02/22-rdf-syntax-ns#">
   <cc:Work>
    <dc:type rdf:resource="http://purl.org/dc/dcmitype/StillImage"/>
    <dc:date>2024-11-11T17:03:44.944343</dc:date>
    <dc:format>image/svg+xml</dc:format>
    <dc:creator>
     <cc:Agent>
      <dc:title>Matplotlib v3.9.2, https://matplotlib.org/</dc:title>
     </cc:Agent>
    </dc:creator>
   </cc:Work>
  </rdf:RDF>
 </metadata>
 <defs>
  <style type="text/css">*{stroke-linejoin: round; stroke-linecap: butt}</style>
 </defs>
 <g id="figure_1">
  <g id="patch_1">
   <path d="M 0 144 
L 288 144 
L 288 0 
L 0 0 
z
" style="fill: #ffffff"/>
  </g>
  <g id="axes_1">
   <g id="line2d_1">
    <path d="M 36 128.16 
L 259.2 128.16 
" clip-path="url(#pc57260ac58)" style="fill: none; stroke: #000000; stroke-width: 0.5; stroke-linecap: square"/>
   </g>
   <g id="patch_2">
    <path d="M 36 127.672615 
L 38.121461 127.672615 
L 38.121461 127.767669 
L 37.358228 127.767669 
L 37.358228 128.16 
L 36.764713 128.16 
L 36.764713 127.767669 
L 36 127.767669 
L 36 127.672615 
z
" clip-path="url(#pc57260ac58)" style="fill: #ff0000"/>
   </g>
   <g id="patch_3">
    <path d="M 38.121461 127.584421 
Q 37.907508 127.628518 37.67739 127.650667 
Q 37.447272 127.672615 37.201939 127.672615 
Q 36.647564 127.672615 36.323782 127.541331 
Q 36 127.410046 36 127.185533 
Q 36 126.958402 36.329487 126.828124 
Q 36.65945 126.697846 37.233319 126.697846 
Q 37.454403 126.697846 37.656945 126.715566 
Q 37.859963 126.733084 38.039683 126.767717 
L 38.039683 126.962027 
Q 37.854257 126.917527 37.670734 126.895579 
Q 37.48721 126.873429 37.302735 126.873429 
Q 36.961361 126.873429 36.776411 126.954375 
Q 36.591461 127.035119 36.591461 127.185533 
Q 36.591461 127.334537 36.769755 127.415885 
Q 36.948049 127.497032 37.27611 127.497032 
Q 37.365494 127.497032 37.442042 127.492401 
Q 37.518589 127.487568 37.579447 127.4775 
L 37.579447 127.295071 
L 37.229991 127.295071 
L 37.229991 127.132576 
L 38.121461 127.132576 
L 38.121461 127.584421 
z
" clip-path="url(#pc57260ac58)" style="fill: #ffa600"/>
   </g>
   <g id="patch_4">
    <path d="M 38.121461 124.689058 
Q 37.944004 125.684769 37.752116 126.188413 
Q 37.560228 126.697846 37.351235 126.697846 
Q 36.727999 126.697846 36.364 122.923409 
Q 36 119.148972 36 112.694222 
Q 36 106.216316 36.364 102.447668 
Q 36.727999 98.673231 37.351235 98.673231 
Q 37.560228 98.673231 37.752116 99.182664 
Q 37.944004 99.686308 38.121461 100.682019 
L 38.121461 106.268417 
Q 37.942401 104.948522 37.768686 104.334886 
Q 37.594971 103.721251 37.403082 103.721251 
Q 37.05886 103.721251 36.861626 106.112113 
Q 36.664927 108.497187 36.664927 112.694222 
Q 36.664927 116.87389 36.861626 119.264753 
Q 37.05886 121.649826 37.403082 121.649826 
Q 37.594971 121.649826 37.768686 121.036191 
Q 37.942401 120.416766 38.121461 119.096871 
L 38.121461 124.689058 
z
" clip-path="url(#pc57260ac58)" style="fill: #0000ff"/>
   </g>
   <g id="patch_5">
    <path d="M 40.354577 128.137951 
Q 40.140625 128.148976 39.910506 128.154513 
Q 39.680388 128.16 39.435056 128.16 
Q 38.88068 128.16 38.556898 128.127179 
Q 38.233117 128.094358 38.233117 128.038229 
Q 38.233117 127.981447 38.562604 127.948877 
Q 38.892567 127.916308 39.466436 127.916308 
Q 39.68752 127.916308 39.890062 127.920738 
Q 40.093079 127.925117 40.2728 127.933775 
L 40.2728 127.982353 
Q 40.087374 127.971228 39.90385 127.965741 
Q 39.720326 127.960204 39.535851 127.960204 
Q 39.194478 127.960204 39.009527 127.98044 
Q 38.824577 128.000626 38.824577 128.038229 
Q 38.824577 128.07548 39.002871 128.095817 
Q 39.181165 128.116104 39.509226 128.116104 
Q 39.598611 128.116104 39.675158 128.114946 
Q 39.751706 128.113738 39.812564 128.111221 
L 39.812564 128.065614 
L 39.463107 128.065614 
L 39.463107 128.02499 
L 40.354577 128.02499 
L 40.354577 128.137951 
z
" clip-path="url(#pc57260ac58)" style="fill: #ffa600"/>
   </g>
   <g id="patch_6">
    <path d="M 40.354577 127.863905 
Q 40.177121 127.88988 39.985233 127.903018 
Q 39.793344 127.916308 39.584352 127.916308 
Q 38.961116 127.916308 38.597116 127.817844 
Q 38.233117 127.719381 38.233117 127.550996 
Q 38.233117 127.382007 38.597116 127.283694 
Q 38.961116 127.185231 39.584352 127.185231 
Q 39.793344 127.185231 39.985233 127.19852 
Q 40.177121 127.211659 40.354577 127.237634 
L 40.354577 127.383366 
Q 40.175517 127.348934 40.001802 127.332926 
Q 39.828087 127.316918 39.636199 127.316918 
Q 39.291976 127.316918 39.094743 127.379289 
Q 38.898044 127.441508 38.898044 127.550996 
Q 38.898044 127.660031 39.094743 127.722401 
Q 39.291976 127.78462 39.636199 127.78462 
Q 39.828087 127.78462 40.001802 127.768612 
Q 40.175517 127.752453 40.354577 127.718021 
L 40.354577 127.863905 
z
" clip-path="url(#pc57260ac58)" style="fill: #0000ff"/>
   </g>
   <g id="patch_7">
    <path d="M 39.702654 107.163918 
L 38.886775 107.163918 
L 38.757951 127.185231 
L 38.233117 127.185231 
L 38.982633 17.28 
L 39.605061 17.28 
L 40.354577 127.185231 
L 39.830176 127.185231 
L 39.702654 107.163918 
z
M 39.016899 86.765733 
L 39.571229 86.765733 
L 39.294498 43.048607 
L 39.016899 86.765733 
z
" clip-path="url(#pc57260ac58)" style="fill: #008000"/>
   </g>
   <g id="patch_8">
    <path d="M 41.935771 107.961114 
L 41.119891 107.961114 
L 40.991068 128.16 
L 40.466233 128.16 
L 41.215749 17.28 
L 41.838178 17.28 
L 42.587694 128.16 
L 42.063293 128.16 
L 41.935771 107.961114 
z
M 41.250015 87.382015 
L 41.804345 87.382015 
L 41.527614 43.277154 
L 41.250015 87.382015 
z
" clip-path="url(#pc57260ac58)" style="fill: #008000"/>
   </g>
   <g id="patch_9">
    <path d="M 44.168887 107.961114 
L 43.353008 107.961114 
L 43.224185 128.16 
L 42.69935 128.16 
L 43.448866 17.28 
L 44.071294 17.28 
L 44.82081 128.16 
L 44.296409 128.16 
L 44.168887 107.961114 
z
M 43.483132 87.382015 
L 44.037462 87.382015 
L 43.760731 43.277154 
L 43.483132 87.382015 
z
" clip-path="url(#pc57260ac58)" style="fill: #008000"/>
   </g>
   <g id="patch_10">
    <path d="M 46.402004 126.916992 
L 45.586124 126.916992 
L 45.457301 128.16 
L 44.932466 128.16 
L 45.681983 121.336615 
L 46.304411 121.336615 
L 47.053927 128.16 
L 46.529526 128.16 
L 46.402004 126.916992 
z
M 45.716249 125.650586 
L 46.270578 125.650586 
L 45.993847 122.93644 
L 45.716249 125.650586 
z
" clip-path="url(#pc57260ac58)" style="fill: #008000"/>
   </g>
   <g id="patch_11">
    <path d="M 44.932466 17.28 
L 47.053927 17.28 
L 47.053927 37.573939 
L 46.290694 37.573939 
L 46.290694 121.336615 
L 45.697179 121.336615 
L 45.697179 37.573939 
L 44.932466 37.573939 
L 44.932466 17.28 
z
" clip-path="url(#pc57260ac58)" style="fill: #ff0000"/>
   </g>
   <g id="patch_12">
    <path d="M 47.165583 121.336615 
L 49.287044 121.336615 
L 49.287044 122.667365 
L 48.523811 122.667365 
L 48.523811 128.16 
L 47.930295 128.16 
L 47.930295 122.667365 
L 47.165583 122.667365 
L 47.165583 121.336615 
z
" clip-path="url(#pc57260ac58)" style="fill: #ff0000"/>
   </g>
   <g id="patch_13">
    <path d="M 48.635121 102.380738 
L 47.819241 102.380738 
L 47.690418 121.336615 
L 47.165583 121.336615 
L 47.915099 17.28 
L 48.537527 17.28 
L 49.287044 121.336615 
L 48.762642 121.336615 
L 48.635121 102.380738 
z
M 47.949365 83.068044 
L 48.503695 83.068044 
L 48.226964 41.677329 
L 47.949365 83.068044 
z
" clip-path="url(#pc57260ac58)" style="fill: #008000"/>
   </g>
   <g id="patch_14">
    <path d="M 50.868237 107.961114 
L 50.052357 107.961114 
L 49.923534 128.16 
L 49.398699 128.16 
L 50.148216 17.28 
L 50.770644 17.28 
L 51.52016 128.16 
L 50.995759 128.16 
L 50.868237 107.961114 
z
M 50.182482 87.382015 
L 50.736811 87.382015 
L 50.46008 43.277154 
L 50.182482 87.382015 
z
" clip-path="url(#pc57260ac58)" style="fill: #008000"/>
   </g>
   <g id="patch_15">
    <path d="M 53.101354 126.916992 
L 52.285474 126.916992 
L 52.156651 128.16 
L 51.631816 128.16 
L 52.381332 121.336615 
L 53.00376 121.336615 
L 53.753277 128.16 
L 53.228875 128.16 
L 53.101354 126.916992 
z
M 52.415598 125.650586 
L 52.969928 125.650586 
L 52.693197 122.93644 
L 52.415598 125.650586 
z
" clip-path="url(#pc57260ac58)" style="fill: #008000"/>
   </g>
   <g id="patch_16">
    <path d="M 51.631816 17.28 
L 53.753277 17.28 
L 53.753277 37.573939 
L 52.990044 37.573939 
L 52.990044 121.336615 
L 52.396528 121.336615 
L 52.396528 37.573939 
L 51.631816 37.573939 
L 51.631816 17.28 
z
" clip-path="url(#pc57260ac58)" style="fill: #ff0000"/>
   </g>
   <g id="patch_17">
    <path d="M 53.864932 121.336615 
L 55.986393 121.336615 
L 55.986393 122.667365 
L 55.223161 122.667365 
L 55.223161 128.16 
L 54.629645 128.16 
L 54.629645 122.667365 
L 53.864932 122.667365 
L 53.864932 121.336615 
z
" clip-path="url(#pc57260ac58)" style="fill: #ff0000"/>
   </g>
   <g id="patch_18">
    <path d="M 55.986393 111.921867 
Q 55.77244 116.629241 55.542322 118.993676 
Q 55.312204 121.336615 55.066872 121.336615 
Q 54.512496 121.336615 54.188714 107.321967 
Q 53.864932 93.307318 53.864932 69.34055 
Q 53.864932 45.094348 54.19442 31.187174 
Q 54.524382 17.28 55.098251 17.28 
Q 55.319336 17.28 55.521878 19.171548 
Q 55.724895 21.0416 55.904616 24.738716 
L 55.904616 45.481256 
Q 55.71919 40.730892 55.535666 38.387952 
Q 55.352142 36.023518 55.167667 36.023518 
Q 54.826294 36.023518 54.641343 44.664451 
Q 54.456393 53.28389 54.456393 69.34055 
Q 54.456393 85.246746 54.634687 93.930669 
Q 54.812981 102.593098 55.141042 102.593098 
Q 55.230427 102.593098 55.306974 102.098716 
Q 55.383522 101.582839 55.444379 100.508096 
L 55.444379 81.033754 
L 55.094923 81.033754 
L 55.094923 63.687402 
L 55.986393 63.687402 
L 55.986393 111.921867 
z
" clip-path="url(#pc57260ac58)" style="fill: #ffa600"/>
   </g>
   <g id="patch_19">
    <path d="M 58.21951 127.542639 
Q 58.005557 127.85132 57.775439 128.006365 
Q 57.545321 128.16 57.299988 128.16 
Q 56.745613 128.16 56.421831 127.241007 
Q 56.098049 126.322013 56.098049 124.750422 
Q 56.098049 123.160507 56.427536 122.248561 
Q 56.757499 121.336615 57.331368 121.336615 
Q 57.552453 121.336615 57.754994 121.460651 
Q 57.958012 121.583278 58.137732 121.825712 
L 58.137732 123.185878 
Q 57.952306 122.874379 57.768783 122.720743 
Q 57.585259 122.565699 57.400784 122.565699 
Q 57.05941 122.565699 56.87446 123.132317 
Q 56.68951 123.697526 56.68951 124.750422 
Q 56.68951 125.793451 56.867804 126.362889 
Q 57.046098 126.930917 57.374159 126.930917 
Q 57.463543 126.930917 57.540091 126.898498 
Q 57.616638 126.86467 57.677496 126.794195 
L 57.677496 125.517189 
L 57.32804 125.517189 
L 57.32804 124.379724 
L 58.21951 124.379724 
L 58.21951 127.542639 
z
" clip-path="url(#pc57260ac58)" style="fill: #ffa600"/>
   </g>
   <g id="patch_20">
    <path d="M 57.567587 102.380738 
L 56.751707 102.380738 
L 56.622884 121.336615 
L 56.098049 121.336615 
L 56.847565 17.28 
L 57.469993 17.28 
L 58.21951 121.336615 
L 57.695109 121.336615 
L 57.567587 102.380738 
z
M 56.881831 83.068044 
L 57.436161 83.068044 
L 57.15943 41.677329 
L 56.881831 83.068044 
z
" clip-path="url(#pc57260ac58)" style="fill: #008000"/>
   </g>
   <g id="patch_21">
    <path d="M 59.800703 126.916992 
L 58.984824 126.916992 
L 58.856 128.16 
L 58.331166 128.16 
L 59.080682 121.336615 
L 59.70311 121.336615 
L 60.452626 128.16 
L 59.928225 128.16 
L 59.800703 126.916992 
z
M 59.114948 125.650586 
L 59.669278 125.650586 
L 59.392547 122.93644 
L 59.114948 125.650586 
z
" clip-path="url(#pc57260ac58)" style="fill: #008000"/>
   </g>
   <g id="patch_22">
    <path d="M 58.331166 17.28 
L 60.452626 17.28 
L 60.452626 37.573939 
L 59.689394 37.573939 
L 59.689394 121.336615 
L 59.095878 121.336615 
L 59.095878 37.573939 
L 58.331166 37.573939 
L 58.331166 17.28 
z
" clip-path="url(#pc57260ac58)" style="fill: #ff0000"/>
   </g>
   <g id="patch_23">
    <path d="M 60.564282 17.28 
L 62.685743 17.28 
L 62.685743 38.904689 
L 61.92251 38.904689 
L 61.92251 128.16 
L 61.328995 128.16 
L 61.328995 38.904689 
L 60.564282 38.904689 
L 60.564282 17.28 
z
" clip-path="url(#pc57260ac58)" style="fill: #ff0000"/>
   </g>
   <g id="patch_24">
    <path d="M 62.797399 17.28 
L 64.918859 17.28 
L 64.918859 38.904689 
L 64.155627 38.904689 
L 64.155627 128.16 
L 63.562111 128.16 
L 63.562111 38.904689 
L 62.797399 38.904689 
L 62.797399 17.28 
z
" clip-path="url(#pc57260ac58)" style="fill: #ff0000"/>
   </g>
   <g id="patch_25">
    <path d="M 65.030515 17.28 
L 67.151976 17.28 
L 67.151976 38.904689 
L 66.388743 38.904689 
L 66.388743 128.16 
L 65.795228 128.16 
L 65.795228 38.904689 
L 65.030515 38.904689 
L 65.030515 17.28 
z
" clip-path="url(#pc57260ac58)" style="fill: #ff0000"/>
   </g>
   <g id="patch_26">
    <path d="M 67.263632 121.336615 
L 69.385093 121.336615 
L 69.385093 122.667365 
L 68.62186 122.667365 
L 68.62186 128.16 
L 68.028344 128.16 
L 68.028344 122.667365 
L 67.263632 122.667365 
L 67.263632 121.336615 
z
" clip-path="url(#pc57260ac58)" style="fill: #ff0000"/>
   </g>
   <g id="patch_27">
    <path d="M 68.73317 102.380738 
L 67.91729 102.380738 
L 67.788467 121.336615 
L 67.263632 121.336615 
L 68.013148 17.28 
L 68.635576 17.28 
L 69.385093 121.336615 
L 68.860691 121.336615 
L 68.73317 102.380738 
z
M 68.047414 83.068044 
L 68.601744 83.068044 
L 68.325013 41.677329 
L 68.047414 83.068044 
z
" clip-path="url(#pc57260ac58)" style="fill: #008000"/>
   </g>
   <g id="patch_28">
    <path d="M 70.966286 126.916992 
L 70.150406 126.916992 
L 70.021583 128.16 
L 69.496748 128.16 
L 70.246265 121.336615 
L 70.868693 121.336615 
L 71.618209 128.16 
L 71.093808 128.16 
L 70.966286 126.916992 
z
M 70.280531 125.650586 
L 70.83486 125.650586 
L 70.558129 122.93644 
L 70.280531 125.650586 
z
" clip-path="url(#pc57260ac58)" style="fill: #008000"/>
   </g>
   <g id="patch_29">
    <path d="M 69.496748 17.28 
L 71.618209 17.28 
L 71.618209 37.573939 
L 70.854977 37.573939 
L 70.854977 121.336615 
L 70.261461 121.336615 
L 70.261461 37.573939 
L 69.496748 37.573939 
L 69.496748 17.28 
z
" clip-path="url(#pc57260ac58)" style="fill: #ff0000"/>
   </g>
   <g id="patch_30">
    <path d="M 71.729865 17.28 
L 73.851326 17.28 
L 73.851326 38.904689 
L 73.088093 38.904689 
L 73.088093 128.16 
L 72.494578 128.16 
L 72.494578 38.904689 
L 71.729865 38.904689 
L 71.729865 17.28 
z
" clip-path="url(#pc57260ac58)" style="fill: #ff0000"/>
   </g>
   <g id="patch_31">
    <path d="M 73.962981 17.28 
L 76.084442 17.28 
L 76.084442 38.904689 
L 75.32121 38.904689 
L 75.32121 128.16 
L 74.727694 128.16 
L 74.727694 38.904689 
L 73.962981 38.904689 
L 73.962981 17.28 
z
" clip-path="url(#pc57260ac58)" style="fill: #ff0000"/>
   </g>
   <g id="patch_32">
    <path d="M 78.317559 128.142532 
Q 78.140102 128.151191 77.948214 128.15557 
Q 77.756326 128.16 77.547333 128.16 
Q 76.924097 128.16 76.560098 128.127179 
Q 76.196098 128.094358 76.196098 128.038229 
Q 76.196098 127.9819 76.560098 127.949129 
Q 76.924097 127.916308 77.547333 127.916308 
Q 77.756326 127.916308 77.948214 127.920738 
Q 78.140102 127.925117 78.317559 127.933775 
L 78.317559 127.982353 
Q 78.138499 127.970875 77.964784 127.965539 
Q 77.791069 127.960204 77.599181 127.960204 
Q 77.254958 127.960204 77.057724 127.980994 
Q 76.861026 128.001733 76.861026 128.038229 
Q 76.861026 128.074574 77.057724 128.095364 
Q 77.254958 128.116104 77.599181 128.116104 
Q 77.791069 128.116104 77.964784 128.110768 
Q 78.138499 128.105382 78.317559 128.093905 
L 78.317559 128.142532 
z
" clip-path="url(#pc57260ac58)" style="fill: #0000ff"/>
   </g>
   <g id="patch_33">
    <path d="M 76.196098 17.28 
L 78.317559 17.28 
L 78.317559 38.857162 
L 77.554326 38.857162 
L 77.554326 127.916308 
L 76.960811 127.916308 
L 76.960811 38.857162 
L 76.196098 38.857162 
L 76.196098 17.28 
z
" clip-path="url(#pc57260ac58)" style="fill: #ff0000"/>
   </g>
   <g id="patch_34">
    <path d="M 80.550675 118.127891 
Q 80.336723 123.143945 80.106604 125.663425 
Q 79.876486 128.16 79.631154 128.16 
Q 79.076778 128.16 78.752996 113.226358 
Q 78.429215 98.292716 78.429215 72.754357 
Q 78.429215 46.91824 78.758702 32.09912 
Q 79.088665 17.28 79.662534 17.28 
Q 79.883618 17.28 80.08616 19.295584 
Q 80.289177 21.288263 80.468898 25.227812 
L 80.468898 47.330518 
Q 80.283472 42.268655 80.099948 39.77208 
Q 79.916424 37.252601 79.731949 37.252601 
Q 79.390576 37.252601 79.205625 46.460153 
Q 79.020675 55.644801 79.020675 72.754357 
Q 79.020675 89.703582 79.198969 98.956943 
Q 79.377263 108.187399 79.705324 108.187399 
Q 79.794709 108.187399 79.871256 107.660599 
Q 79.947804 107.110894 80.008662 105.965677 
L 80.008662 85.214328 
L 79.659205 85.214328 
L 79.659205 66.73051 
L 80.550675 66.73051 
L 80.550675 118.127891 
z
" clip-path="url(#pc57260ac58)" style="fill: #ffa600"/>
   </g>
   <g id="patch_35">
    <path d="M 82.131869 107.961114 
L 81.315989 107.961114 
L 81.187166 128.16 
L 80.662331 128.16 
L 81.411847 17.28 
L 82.034276 17.28 
L 82.783792 128.16 
L 82.259391 128.16 
L 82.131869 107.961114 
z
M 81.446114 87.382015 
L 82.000443 87.382015 
L 81.723712 43.277154 
L 81.446114 87.382015 
z
" clip-path="url(#pc57260ac58)" style="fill: #008000"/>
   </g>
   <g id="patch_36">
    <path d="M 85.016908 120.212188 
Q 84.839452 124.151737 84.647564 126.144416 
Q 84.455675 128.16 84.246683 128.16 
Q 83.623447 128.16 83.259447 113.226358 
Q 82.895448 98.292716 82.895448 72.754357 
Q 82.895448 47.124379 83.259447 32.213642 
Q 83.623447 17.28 84.246683 17.28 
Q 84.455675 17.28 84.647564 19.295584 
Q 84.839452 21.288263 85.016908 25.227812 
L 85.016908 47.330518 
Q 84.837848 42.108325 84.664133 39.680463 
Q 84.490418 37.252601 84.29853 37.252601 
Q 83.954307 37.252601 83.757074 46.712101 
Q 83.560375 56.148697 83.560375 72.754357 
Q 83.560375 89.291303 83.757074 98.750804 
Q 83.954307 108.187399 84.29853 108.187399 
Q 84.490418 108.187399 84.664133 105.759537 
Q 84.837848 103.308771 85.016908 98.086577 
L 85.016908 120.212188 
z
" clip-path="url(#pc57260ac58)" style="fill: #0000ff"/>
   </g>
   <g id="patch_37">
    <path d="M 85.128564 17.28 
L 87.250025 17.28 
L 87.250025 38.904689 
L 86.486793 38.904689 
L 86.486793 128.16 
L 85.893277 128.16 
L 85.893277 38.904689 
L 85.128564 38.904689 
L 85.128564 17.28 
z
" clip-path="url(#pc57260ac58)" style="fill: #ff0000"/>
   </g>
   <g id="patch_38">
    <path d="M 89.483142 118.127891 
Q 89.269189 123.143945 89.039071 125.663425 
Q 88.808953 128.16 88.56362 128.16 
Q 88.009245 128.16 87.685463 113.226358 
Q 87.361681 98.292716 87.361681 72.754357 
Q 87.361681 46.91824 87.691168 32.09912 
Q 88.021131 17.28 88.595 17.28 
Q 88.816084 17.28 89.018626 19.295584 
Q 89.221644 21.288263 89.401364 25.227812 
L 89.401364 47.330518 
Q 89.215938 42.268655 89.032414 39.77208 
Q 88.84889 37.252601 88.664416 37.252601 
Q 88.323042 37.252601 88.138092 46.460153 
Q 87.953141 55.644801 87.953141 72.754357 
Q 87.953141 89.703582 88.131435 98.956943 
Q 88.309729 108.187399 88.63779 108.187399 
Q 88.727175 108.187399 88.803723 107.660599 
Q 88.88027 107.110894 88.941128 105.965677 
L 88.941128 85.214328 
L 88.591672 85.214328 
L 88.591672 66.73051 
L 89.483142 66.73051 
L 89.483142 118.127891 
z
" clip-path="url(#pc57260ac58)" style="fill: #ffa600"/>
   </g>
   <g id="patch_39">
    <path d="M 91.064335 107.961114 
L 90.248455 107.961114 
L 90.119632 128.16 
L 89.594797 128.16 
L 90.344314 17.28 
L 90.966742 17.28 
L 91.716258 128.16 
L 91.191857 128.16 
L 91.064335 107.961114 
z
M 90.37858 87.382015 
L 90.93291 87.382015 
L 90.656178 43.277154 
L 90.37858 87.382015 
z
" clip-path="url(#pc57260ac58)" style="fill: #008000"/>
   </g>
   <g id="patch_40">
    <path d="M 91.827914 17.28 
L 93.949375 17.28 
L 93.949375 38.904689 
L 93.186142 38.904689 
L 93.186142 128.16 
L 92.592627 128.16 
L 92.592627 38.904689 
L 91.827914 38.904689 
L 91.827914 17.28 
z
" clip-path="url(#pc57260ac58)" style="fill: #ff0000"/>
   </g>
   <g id="patch_41">
    <path d="M 95.530568 107.961114 
L 94.714689 107.961114 
L 94.585865 128.16 
L 94.061031 128.16 
L 94.810547 17.28 
L 95.432975 17.28 
L 96.182491 128.16 
L 95.65809 128.16 
L 95.530568 107.961114 
z
M 94.844813 87.382015 
L 95.399143 87.382015 
L 95.122412 43.277154 
L 94.844813 87.382015 
z
" clip-path="url(#pc57260ac58)" style="fill: #008000"/>
   </g>
   <g id="patch_42">
    <path d="M 98.415608 118.127891 
Q 98.201655 123.143945 97.971537 125.663425 
Q 97.741419 128.16 97.496086 128.16 
Q 96.941711 128.16 96.617929 113.226358 
Q 96.294147 98.292716 96.294147 72.754357 
Q 96.294147 46.91824 96.623634 32.09912 
Q 96.953597 17.28 97.527466 17.28 
Q 97.748551 17.28 97.951093 19.295584 
Q 98.15411 21.288263 98.33383 25.227812 
L 98.33383 47.330518 
Q 98.148405 42.268655 97.964881 39.77208 
Q 97.781357 37.252601 97.596882 37.252601 
Q 97.255508 37.252601 97.070558 46.460153 
Q 96.885608 55.644801 96.885608 72.754357 
Q 96.885608 89.703582 97.063902 98.956943 
Q 97.242196 108.187399 97.570257 108.187399 
Q 97.659641 108.187399 97.736189 107.660599 
Q 97.812736 107.110894 97.873594 105.965677 
L 97.873594 85.214328 
L 97.524138 85.214328 
L 97.524138 66.73051 
L 98.415608 66.73051 
L 98.415608 118.127891 
z
" clip-path="url(#pc57260ac58)" style="fill: #ffa600"/>
   </g>
   <g id="patch_43">
    <path d="M 98.527264 17.28 
L 100.648724 17.28 
L 100.648724 38.904689 
L 99.885492 38.904689 
L 99.885492 128.16 
L 99.291976 128.16 
L 99.291976 38.904689 
L 98.527264 38.904689 
L 98.527264 17.28 
z
" clip-path="url(#pc57260ac58)" style="fill: #ff0000"/>
   </g>
   <g id="patch_44">
    <path d="M 102.881841 118.127891 
Q 102.667888 123.143945 102.43777 125.663425 
Q 102.207652 128.16 101.962319 128.16 
Q 101.407944 128.16 101.084162 113.226358 
Q 100.76038 98.292716 100.76038 72.754357 
Q 100.76038 46.91824 101.089867 32.09912 
Q 101.41983 17.28 101.993699 17.28 
Q 102.214784 17.28 102.417326 19.295584 
Q 102.620343 21.288263 102.800063 25.227812 
L 102.800063 47.330518 
Q 102.614638 42.268655 102.431114 39.77208 
Q 102.24759 37.252601 102.063115 37.252601 
Q 101.721741 37.252601 101.536791 46.460153 
Q 101.351841 55.644801 101.351841 72.754357 
Q 101.351841 89.703582 101.530135 98.956943 
Q 101.708429 108.187399 102.03649 108.187399 
Q 102.125874 108.187399 102.202422 107.660599 
Q 102.27897 107.110894 102.339827 105.965677 
L 102.339827 85.214328 
L 101.990371 85.214328 
L 101.990371 66.73051 
L 102.881841 66.73051 
L 102.881841 118.127891 
z
" clip-path="url(#pc57260ac58)" style="fill: #ffa600"/>
   </g>
   <g id="patch_45">
    <path d="M 104.463034 107.961114 
L 103.647155 107.961114 
L 103.518332 128.16 
L 102.993497 128.16 
L 103.743013 17.28 
L 104.365441 17.28 
L 105.114957 128.16 
L 104.590556 128.16 
L 104.463034 107.961114 
z
M 103.777279 87.382015 
L 104.331609 87.382015 
L 104.054878 43.277154 
L 103.777279 87.382015 
z
" clip-path="url(#pc57260ac58)" style="fill: #008000"/>
   </g>
   <g id="patch_46">
    <path d="M 107.348074 120.212188 
Q 107.170618 124.151737 106.978729 126.144416 
Q 106.786841 128.16 106.577849 128.16 
Q 105.954613 128.16 105.590613 113.226358 
Q 105.226613 98.292716 105.226613 72.754357 
Q 105.226613 47.124379 105.590613 32.213642 
Q 105.954613 17.28 106.577849 17.28 
Q 106.786841 17.28 106.978729 19.295584 
Q 107.170618 21.288263 107.348074 25.227812 
L 107.348074 47.330518 
Q 107.169014 42.108325 106.995299 39.680463 
Q 106.821584 37.252601 106.629696 37.252601 
Q 106.285473 37.252601 106.08824 46.712101 
Q 105.891541 56.148697 105.891541 72.754357 
Q 105.891541 89.291303 106.08824 98.750804 
Q 106.285473 108.187399 106.629696 108.187399 
Q 106.821584 108.187399 106.995299 105.759537 
Q 107.169014 103.308771 107.348074 98.086577 
L 107.348074 120.212188 
z
" clip-path="url(#pc57260ac58)" style="fill: #0000ff"/>
   </g>
   <g id="patch_47">
    <path d="M 109.581191 120.212188 
Q 109.403734 124.151737 109.211846 126.144416 
Q 109.019958 128.16 108.810965 128.16 
Q 108.187729 128.16 107.82373 113.226358 
Q 107.45973 98.292716 107.45973 72.754357 
Q 107.45973 47.124379 107.82373 32.213642 
Q 108.187729 17.28 108.810965 17.28 
Q 109.019958 17.28 109.211846 19.295584 
Q 109.403734 21.288263 109.581191 25.227812 
L 109.581191 47.330518 
Q 109.402131 42.108325 109.228416 39.680463 
Q 109.054701 37.252601 108.862812 37.252601 
Q 108.518589 37.252601 108.321356 46.712101 
Q 108.124657 56.148697 108.124657 72.754357 
Q 108.124657 89.291303 108.321356 98.750804 
Q 108.518589 108.187399 108.862812 108.187399 
Q 109.054701 108.187399 109.228416 105.759537 
Q 109.402131 103.308771 109.581191 98.086577 
L 109.581191 120.212188 
z
" clip-path="url(#pc57260ac58)" style="fill: #0000ff"/>
   </g>
   <g id="patch_48">
    <path d="M 109.692846 17.28 
L 111.814307 17.28 
L 111.814307 38.904689 
L 111.051075 38.904689 
L 111.051075 128.16 
L 110.457559 128.16 
L 110.457559 38.904689 
L 109.692846 38.904689 
L 109.692846 17.28 
z
" clip-path="url(#pc57260ac58)" style="fill: #ff0000"/>
   </g>
   <g id="patch_49">
    <path d="M 114.047424 118.127891 
Q 113.833471 123.143945 113.603353 125.663425 
Q 113.373235 128.16 113.127902 128.16 
Q 112.573527 128.16 112.249745 113.226358 
Q 111.925963 98.292716 111.925963 72.754357 
Q 111.925963 46.91824 112.25545 32.09912 
Q 112.585413 17.28 113.159282 17.28 
Q 113.380366 17.28 113.582908 19.295584 
Q 113.785926 21.288263 113.965646 25.227812 
L 113.965646 47.330518 
Q 113.78022 42.268655 113.596697 39.77208 
Q 113.413173 37.252601 113.228698 37.252601 
Q 112.887324 37.252601 112.702374 46.460153 
Q 112.517424 55.644801 112.517424 72.754357 
Q 112.517424 89.703582 112.695718 98.956943 
Q 112.874012 108.187399 113.202072 108.187399 
Q 113.291457 108.187399 113.368005 107.660599 
Q 113.444552 107.110894 113.50541 105.965677 
L 113.50541 85.214328 
L 113.155954 85.214328 
L 113.155954 66.73051 
L 114.047424 66.73051 
L 114.047424 118.127891 
z
" clip-path="url(#pc57260ac58)" style="fill: #ffa600"/>
   </g>
   <g id="patch_50">
    <path d="M 114.15908 17.28 
L 116.28054 17.28 
L 116.28054 38.904689 
L 115.517308 38.904689 
L 115.517308 128.16 
L 114.923792 128.16 
L 114.923792 38.904689 
L 114.15908 38.904689 
L 114.15908 17.28 
z
" clip-path="url(#pc57260ac58)" style="fill: #ff0000"/>
   </g>
   <g id="patch_51">
    <path d="M 117.861734 128.115607 
L 117.045854 128.115607 
L 116.917031 128.16 
L 116.392196 128.16 
L 117.141712 127.916308 
L 117.764141 127.916308 
L 118.513657 128.16 
L 117.989256 128.16 
L 117.861734 128.115607 
z
M 117.175978 128.070378 
L 117.730308 128.070378 
L 117.453577 127.973444 
L 117.175978 128.070378 
z
" clip-path="url(#pc57260ac58)" style="fill: #008000"/>
   </g>
   <g id="patch_52">
    <path d="M 116.392196 17.28 
L 118.513657 17.28 
L 118.513657 38.857162 
L 117.750424 38.857162 
L 117.750424 127.916308 
L 117.156909 127.916308 
L 117.156909 38.857162 
L 116.392196 38.857162 
L 116.392196 17.28 
z
" clip-path="url(#pc57260ac58)" style="fill: #ff0000"/>
   </g>
   <g id="patch_53">
    <path d="M 120.746773 120.212188 
Q 120.569317 124.151737 120.377429 126.144416 
Q 120.18554 128.16 119.976548 128.16 
Q 119.353312 128.16 118.989312 113.226358 
Q 118.625313 98.292716 118.625313 72.754357 
Q 118.625313 47.124379 118.989312 32.213642 
Q 119.353312 17.28 119.976548 17.28 
Q 120.18554 17.28 120.377429 19.295584 
Q 120.569317 21.288263 120.746773 25.227812 
L 120.746773 47.330518 
Q 120.567713 42.108325 120.393998 39.680463 
Q 120.220283 37.252601 120.028395 37.252601 
Q 119.684172 37.252601 119.486939 46.712101 
Q 119.29024 56.148697 119.29024 72.754357 
Q 119.29024 89.291303 119.486939 98.750804 
Q 119.684172 108.187399 120.028395 108.187399 
Q 120.220283 108.187399 120.393998 105.759537 
Q 120.567713 103.308771 120.746773 98.086577 
L 120.746773 120.212188 
z
" clip-path="url(#pc57260ac58)" style="fill: #0000ff"/>
   </g>
   <g id="patch_54">
    <path d="M 122.97989 118.127891 
Q 122.765937 123.143945 122.535819 125.663425 
Q 122.305701 128.16 122.060368 128.16 
Q 121.505993 128.16 121.182211 113.226358 
Q 120.858429 98.292716 120.858429 72.754357 
Q 120.858429 46.91824 121.187917 32.09912 
Q 121.517879 17.28 122.091748 17.28 
Q 122.312833 17.28 122.515375 19.295584 
Q 122.718392 21.288263 122.898112 25.227812 
L 122.898112 47.330518 
Q 122.712687 42.268655 122.529163 39.77208 
Q 122.345639 37.252601 122.161164 37.252601 
Q 121.81979 37.252601 121.63484 46.460153 
Q 121.44989 55.644801 121.44989 72.754357 
Q 121.44989 89.703582 121.628184 98.956943 
Q 121.806478 108.187399 122.134539 108.187399 
Q 122.223923 108.187399 122.300471 107.660599 
Q 122.377019 107.110894 122.437876 105.965677 
L 122.437876 85.214328 
L 122.08842 85.214328 
L 122.08842 66.73051 
L 122.97989 66.73051 
L 122.97989 118.127891 
z
" clip-path="url(#pc57260ac58)" style="fill: #ffa600"/>
   </g>
   <g id="patch_55">
    <path d="M 123.091546 17.28 
L 125.213007 17.28 
L 125.213007 38.904689 
L 124.449774 38.904689 
L 124.449774 128.16 
L 123.856258 128.16 
L 123.856258 38.904689 
L 123.091546 38.904689 
L 123.091546 17.28 
z
" clip-path="url(#pc57260ac58)" style="fill: #ff0000"/>
   </g>
   <g id="patch_56">
    <path d="M 127.446123 128.142532 
Q 127.268667 128.151191 127.076778 128.15557 
Q 126.88489 128.16 126.675898 128.16 
Q 126.052662 128.16 125.688662 128.127179 
Q 125.324662 128.094358 125.324662 128.038229 
Q 125.324662 127.9819 125.688662 127.949129 
Q 126.052662 127.916308 126.675898 127.916308 
Q 126.88489 127.916308 127.076778 127.920738 
Q 127.268667 127.925117 127.446123 127.933775 
L 127.446123 127.982353 
Q 127.267063 127.970875 127.093348 127.965539 
Q 126.919633 127.960204 126.727745 127.960204 
Q 126.383522 127.960204 126.186289 127.980994 
Q 125.98959 128.001733 125.98959 128.038229 
Q 125.98959 128.074574 126.186289 128.095364 
Q 126.383522 128.116104 126.727745 128.116104 
Q 126.919633 128.116104 127.093348 128.110768 
Q 127.267063 128.105382 127.446123 128.093905 
L 127.446123 128.142532 
z
" clip-path="url(#pc57260ac58)" style="fill: #0000ff"/>
   </g>
   <g id="patch_57">
    <path d="M 125.324662 17.28 
L 127.446123 17.28 
L 127.446123 38.857162 
L 126.682891 38.857162 
L 126.682891 127.916308 
L 126.089375 127.916308 
L 126.089375 38.857162 
L 125.324662 38.857162 
L 125.324662 17.28 
z
" clip-path="url(#pc57260ac58)" style="fill: #ff0000"/>
   </g>
   <g id="patch_58">
    <path d="M 129.67924 118.127891 
Q 129.465287 123.143945 129.235169 125.663425 
Q 129.005051 128.16 128.759718 128.16 
Q 128.205343 128.16 127.881561 113.226358 
Q 127.557779 98.292716 127.557779 72.754357 
Q 127.557779 46.91824 127.887266 32.09912 
Q 128.217229 17.28 128.791098 17.28 
Q 129.012182 17.28 129.214724 19.295584 
Q 129.417742 21.288263 129.597462 25.227812 
L 129.597462 47.330518 
Q 129.412036 42.268655 129.228512 39.77208 
Q 129.044988 37.252601 128.860514 37.252601 
Q 128.51914 37.252601 128.33419 46.460153 
Q 128.149239 55.644801 128.149239 72.754357 
Q 128.149239 89.703582 128.327533 98.956943 
Q 128.505827 108.187399 128.833888 108.187399 
Q 128.923273 108.187399 128.999821 107.660599 
Q 129.076368 107.110894 129.137226 105.965677 
L 129.137226 85.214328 
L 128.78777 85.214328 
L 128.78777 66.73051 
L 129.67924 66.73051 
L 129.67924 118.127891 
z
" clip-path="url(#pc57260ac58)" style="fill: #ffa600"/>
   </g>
   <g id="patch_59">
    <path d="M 131.260433 128.115607 
L 130.444553 128.115607 
L 130.31573 128.16 
L 129.790895 128.16 
L 130.540412 127.916308 
L 131.16284 127.916308 
L 131.912356 128.16 
L 131.387955 128.16 
L 131.260433 128.115607 
z
M 130.574678 128.070378 
L 131.129008 128.070378 
L 130.852276 127.973444 
L 130.574678 128.070378 
z
" clip-path="url(#pc57260ac58)" style="fill: #008000"/>
   </g>
   <g id="patch_60">
    <path d="M 131.912356 119.985963 
Q 131.7349 123.916854 131.543011 125.905154 
Q 131.351123 127.916308 131.142131 127.916308 
Q 130.518895 127.916308 130.154895 113.015487 
Q 129.790895 98.114666 129.790895 72.632435 
Q 129.790895 47.058787 130.154895 32.180821 
Q 130.518895 17.28 131.142131 17.28 
Q 131.351123 17.28 131.543011 19.291154 
Q 131.7349 21.279453 131.912356 25.210345 
L 131.912356 47.264473 
Q 131.733296 42.053757 131.559581 39.631231 
Q 131.385866 37.208705 131.193978 37.208705 
Q 130.849755 37.208705 130.652522 46.647415 
Q 130.455823 56.063271 130.455823 72.632435 
Q 130.455823 89.133037 130.652522 98.571747 
Q 130.849755 107.987603 131.193978 107.987603 
Q 131.385866 107.987603 131.559581 105.565077 
Q 131.733296 103.119697 131.912356 97.90898 
L 131.912356 119.985963 
z
" clip-path="url(#pc57260ac58)" style="fill: #0000ff"/>
   </g>
   <g id="patch_61">
    <path d="M 133.49355 107.961114 
L 132.67767 107.961114 
L 132.548847 128.16 
L 132.024012 128.16 
L 132.773528 17.28 
L 133.395956 17.28 
L 134.145473 128.16 
L 133.621072 128.16 
L 133.49355 107.961114 
z
M 132.807794 87.382015 
L 133.362124 87.382015 
L 133.085393 43.277154 
L 132.807794 87.382015 
z
" clip-path="url(#pc57260ac58)" style="fill: #008000"/>
   </g>
   <g id="patch_62">
    <path d="M 135.726666 107.961114 
L 134.910787 107.961114 
L 134.781963 128.16 
L 134.257129 128.16 
L 135.006645 17.28 
L 135.629073 17.28 
L 136.378589 128.16 
L 135.854188 128.16 
L 135.726666 107.961114 
z
M 135.040911 87.382015 
L 135.595241 87.382015 
L 135.31851 43.277154 
L 135.040911 87.382015 
z
" clip-path="url(#pc57260ac58)" style="fill: #008000"/>
   </g>
   <g id="patch_63">
    <path d="M 138.611706 120.212188 
Q 138.434249 124.151737 138.242361 126.144416 
Q 138.050473 128.16 137.84148 128.16 
Q 137.218244 128.16 136.854245 113.226358 
Q 136.490245 98.292716 136.490245 72.754357 
Q 136.490245 47.124379 136.854245 32.213642 
Q 137.218244 17.28 137.84148 17.28 
Q 138.050473 17.28 138.242361 19.295584 
Q 138.434249 21.288263 138.611706 25.227812 
L 138.611706 47.330518 
Q 138.432646 42.108325 138.258931 39.680463 
Q 138.085216 37.252601 137.893328 37.252601 
Q 137.549105 37.252601 137.351871 46.712101 
Q 137.155173 56.148697 137.155173 72.754357 
Q 137.155173 89.291303 137.351871 98.750804 
Q 137.549105 108.187399 137.893328 108.187399 
Q 138.085216 108.187399 138.258931 105.759537 
Q 138.432646 103.308771 138.611706 98.086577 
L 138.611706 120.212188 
z
" clip-path="url(#pc57260ac58)" style="fill: #0000ff"/>
   </g>
   <g id="patch_64">
    <path d="M 140.192899 107.961114 
L 139.37702 107.961114 
L 139.248197 128.16 
L 138.723362 128.16 
L 139.472878 17.28 
L 140.095306 17.28 
L 140.844822 128.16 
L 140.320421 128.16 
L 140.192899 107.961114 
z
M 139.507144 87.382015 
L 140.061474 87.382015 
L 139.784743 43.277154 
L 139.507144 87.382015 
z
" clip-path="url(#pc57260ac58)" style="fill: #008000"/>
   </g>
   <g id="patch_65">
    <path d="M 143.077939 128.137951 
Q 142.863986 128.148976 142.633868 128.154513 
Q 142.40375 128.16 142.158417 128.16 
Q 141.604042 128.16 141.28026 128.127179 
Q 140.956478 128.094358 140.956478 128.038229 
Q 140.956478 127.981447 141.285966 127.948877 
Q 141.615928 127.916308 142.189797 127.916308 
Q 142.410882 127.916308 142.613424 127.920738 
Q 142.816441 127.925117 142.996161 127.933775 
L 142.996161 127.982353 
Q 142.810736 127.971228 142.627212 127.965741 
Q 142.443688 127.960204 142.259213 127.960204 
Q 141.917839 127.960204 141.732889 127.98044 
Q 141.547939 128.000626 141.547939 128.038229 
Q 141.547939 128.07548 141.726233 128.095817 
Q 141.904527 128.116104 142.232588 128.116104 
Q 142.321972 128.116104 142.39852 128.114946 
Q 142.475068 128.113738 142.535925 128.111221 
L 142.535925 128.065614 
L 142.186469 128.065614 
L 142.186469 128.02499 
L 143.077939 128.02499 
L 143.077939 128.137951 
z
" clip-path="url(#pc57260ac58)" style="fill: #ffa600"/>
   </g>
   <g id="patch_66">
    <path d="M 143.077939 127.339873 
Q 142.900482 127.625599 142.708594 127.770123 
Q 142.516706 127.916308 142.307713 127.916308 
Q 141.684478 127.916308 141.320478 126.833208 
Q 140.956478 125.750109 140.956478 123.897876 
Q 140.956478 122.038999 141.320478 120.957561 
Q 141.684478 119.874462 142.307713 119.874462 
Q 142.516706 119.874462 142.708594 120.020647 
Q 142.900482 120.165171 143.077939 120.450896 
L 143.077939 122.05395 
Q 142.898879 121.675197 142.725164 121.49911 
Q 142.551449 121.323024 142.359561 121.323024 
Q 142.015338 121.323024 141.818105 122.009097 
Q 141.621406 122.69351 141.621406 123.897876 
Q 141.621406 125.097259 141.818105 125.783333 
Q 142.015338 126.467745 142.359561 126.467745 
Q 142.551449 126.467745 142.725164 126.291659 
Q 142.898879 126.113911 143.077939 125.735158 
L 143.077939 127.339873 
z
" clip-path="url(#pc57260ac58)" style="fill: #0000ff"/>
   </g>
   <g id="patch_67">
    <path d="M 142.426016 101.184943 
L 141.610136 101.184943 
L 141.481313 119.874462 
L 140.956478 119.874462 
L 141.705995 17.28 
L 142.328423 17.28 
L 143.077939 119.874462 
L 142.553538 119.874462 
L 142.426016 101.184943 
z
M 141.740261 82.143622 
L 142.29459 82.143622 
L 142.017859 41.334509 
L 141.740261 82.143622 
z
" clip-path="url(#pc57260ac58)" style="fill: #008000"/>
   </g>
   <g id="patch_68">
    <path d="M 144.659133 107.961114 
L 143.843253 107.961114 
L 143.71443 128.16 
L 143.189595 128.16 
L 143.939111 17.28 
L 144.561539 17.28 
L 145.311056 128.16 
L 144.786654 128.16 
L 144.659133 107.961114 
z
M 143.973377 87.382015 
L 144.527707 87.382015 
L 144.250976 43.277154 
L 143.973377 87.382015 
z
" clip-path="url(#pc57260ac58)" style="fill: #008000"/>
   </g>
   <g id="patch_69">
    <path d="M 145.422711 17.28 
L 147.544172 17.28 
L 147.544172 38.904689 
L 146.78094 38.904689 
L 146.78094 128.16 
L 146.187424 128.16 
L 146.187424 38.904689 
L 145.422711 38.904689 
L 145.422711 17.28 
z
" clip-path="url(#pc57260ac58)" style="fill: #ff0000"/>
   </g>
   <g id="patch_70">
    <path d="M 147.655828 17.28 
L 149.777289 17.28 
L 149.777289 38.904689 
L 149.014056 38.904689 
L 149.014056 128.16 
L 148.420541 128.16 
L 148.420541 38.904689 
L 147.655828 38.904689 
L 147.655828 17.28 
z
" clip-path="url(#pc57260ac58)" style="fill: #ff0000"/>
   </g>
   <g id="patch_71">
    <path d="M 152.010405 118.127891 
Q 151.796452 123.143945 151.566334 125.663425 
Q 151.336216 128.16 151.090884 128.16 
Q 150.536508 128.16 150.212726 113.226358 
Q 149.888944 98.292716 149.888944 72.754357 
Q 149.888944 46.91824 150.218432 32.09912 
Q 150.548395 17.28 151.122263 17.28 
Q 151.343348 17.28 151.54589 19.295584 
Q 151.748907 21.288263 151.928628 25.227812 
L 151.928628 47.330518 
Q 151.743202 42.268655 151.559678 39.77208 
Q 151.376154 37.252601 151.191679 37.252601 
Q 150.850306 37.252601 150.665355 46.460153 
Q 150.480405 55.644801 150.480405 72.754357 
Q 150.480405 89.703582 150.658699 98.956943 
Q 150.836993 108.187399 151.165054 108.187399 
Q 151.254439 108.187399 151.330986 107.660599 
Q 151.407534 107.110894 151.468391 105.965677 
L 151.468391 85.214328 
L 151.118935 85.214328 
L 151.118935 66.73051 
L 152.010405 66.73051 
L 152.010405 118.127891 
z
" clip-path="url(#pc57260ac58)" style="fill: #ffa600"/>
   </g>
   <g id="patch_72">
    <path d="M 153.591599 107.961114 
L 152.775719 107.961114 
L 152.646896 128.16 
L 152.122061 128.16 
L 152.871577 17.28 
L 153.494005 17.28 
L 154.243522 128.16 
L 153.719121 128.16 
L 153.591599 107.961114 
z
M 152.905843 87.382015 
L 153.460173 87.382015 
L 153.183442 43.277154 
L 152.905843 87.382015 
z
" clip-path="url(#pc57260ac58)" style="fill: #008000"/>
   </g>
   <g id="patch_73">
    <path d="M 154.355178 17.28 
L 156.476638 17.28 
L 156.476638 38.904689 
L 155.713406 38.904689 
L 155.713406 128.16 
L 155.11989 128.16 
L 155.11989 38.904689 
L 154.355178 38.904689 
L 154.355178 17.28 
z
" clip-path="url(#pc57260ac58)" style="fill: #ff0000"/>
   </g>
   <g id="patch_74">
    <path d="M 158.709755 124.588128 
Q 158.495802 126.374064 158.265684 127.27111 
Q 158.035566 128.16 157.790233 128.16 
Q 157.235858 128.16 156.912076 122.842967 
Q 156.588294 117.525934 156.588294 108.433156 
Q 156.588294 99.234362 156.917781 93.958104 
Q 157.247744 88.681846 157.821613 88.681846 
Q 158.042698 88.681846 158.24524 89.399482 
Q 158.448257 90.108964 158.627977 91.511617 
L 158.627977 99.381152 
Q 158.442552 97.578906 158.259028 96.690015 
Q 158.075504 95.79297 157.891029 95.79297 
Q 157.549655 95.79297 157.364705 99.071263 
Q 157.179755 102.341402 157.179755 108.433156 
Q 157.179755 114.467825 157.358049 117.762428 
Q 157.536343 121.048876 157.864404 121.048876 
Q 157.953788 121.048876 158.030336 120.861312 
Q 158.106883 120.665593 158.167741 120.257845 
L 158.167741 112.869453 
L 157.818285 112.869453 
L 157.818285 106.288401 
L 158.709755 106.288401 
L 158.709755 124.588128 
z
" clip-path="url(#pc57260ac58)" style="fill: #ffa600"/>
   </g>
   <g id="patch_75">
    <path d="M 158.057832 75.674652 
L 157.241952 75.674652 
L 157.113129 88.681846 
L 156.588294 88.681846 
L 157.33781 17.28 
L 157.960239 17.28 
L 158.709755 88.681846 
L 158.185354 88.681846 
L 158.057832 75.674652 
z
M 157.372077 62.422616 
L 157.926406 62.422616 
L 157.649675 34.021024 
L 157.372077 62.422616 
z
" clip-path="url(#pc57260ac58)" style="fill: #008000"/>
   </g>
   <g id="patch_76">
    <path d="M 160.290948 107.961114 
L 159.475069 107.961114 
L 159.346246 128.16 
L 158.821411 128.16 
L 159.570927 17.28 
L 160.193355 17.28 
L 160.942871 128.16 
L 160.41847 128.16 
L 160.290948 107.961114 
z
M 159.605193 87.382015 
L 160.159523 87.382015 
L 159.882792 43.277154 
L 159.605193 87.382015 
z
" clip-path="url(#pc57260ac58)" style="fill: #008000"/>
   </g>
   <g id="patch_77">
    <path d="M 163.175988 118.127891 
Q 162.962035 123.143945 162.731917 125.663425 
Q 162.501799 128.16 162.256466 128.16 
Q 161.702091 128.16 161.378309 113.226358 
Q 161.054527 98.292716 161.054527 72.754357 
Q 161.054527 46.91824 161.384015 32.09912 
Q 161.713977 17.28 162.287846 17.28 
Q 162.508931 17.28 162.711473 19.295584 
Q 162.91449 21.288263 163.09421 25.227812 
L 163.09421 47.330518 
Q 162.908785 42.268655 162.725261 39.77208 
Q 162.541737 37.252601 162.357262 37.252601 
Q 162.015888 37.252601 161.830938 46.460153 
Q 161.645988 55.644801 161.645988 72.754357 
Q 161.645988 89.703582 161.824282 98.956943 
Q 162.002576 108.187399 162.330637 108.187399 
Q 162.420021 108.187399 162.496569 107.660599 
Q 162.573117 107.110894 162.633974 105.965677 
L 162.633974 85.214328 
L 162.284518 85.214328 
L 162.284518 66.73051 
L 163.175988 66.73051 
L 163.175988 118.127891 
z
" clip-path="url(#pc57260ac58)" style="fill: #ffa600"/>
   </g>
   <g id="patch_78">
    <path d="M 165.409105 120.212188 
Q 165.231648 124.151737 165.03976 126.144416 
Q 164.847872 128.16 164.638879 128.16 
Q 164.015643 128.16 163.651644 113.226358 
Q 163.287644 98.292716 163.287644 72.754357 
Q 163.287644 47.124379 163.651644 32.213642 
Q 164.015643 17.28 164.638879 17.28 
Q 164.847872 17.28 165.03976 19.295584 
Q 165.231648 21.288263 165.409105 25.227812 
L 165.409105 47.330518 
Q 165.230045 42.108325 165.05633 39.680463 
Q 164.882615 37.252601 164.690726 37.252601 
Q 164.346503 37.252601 164.14927 46.712101 
Q 163.952571 56.148697 163.952571 72.754357 
Q 163.952571 89.291303 164.14927 98.750804 
Q 164.346503 108.187399 164.690726 108.187399 
Q 164.882615 108.187399 165.05633 105.759537 
Q 165.230045 103.308771 165.409105 98.086577 
L 165.409105 120.212188 
z
" clip-path="url(#pc57260ac58)" style="fill: #0000ff"/>
   </g>
   <g id="patch_79">
    <path d="M 166.990298 107.961114 
L 166.174418 107.961114 
L 166.045595 128.16 
L 165.52076 128.16 
L 166.270277 17.28 
L 166.892705 17.28 
L 167.642221 128.16 
L 167.11782 128.16 
L 166.990298 107.961114 
z
M 166.304543 87.382015 
L 166.858872 87.382015 
L 166.582141 43.277154 
L 166.304543 87.382015 
z
" clip-path="url(#pc57260ac58)" style="fill: #008000"/>
   </g>
   <g id="patch_80">
    <path d="M 169.223415 107.961114 
L 168.407535 107.961114 
L 168.278712 128.16 
L 167.753877 128.16 
L 168.503393 17.28 
L 169.125821 17.28 
L 169.875338 128.16 
L 169.350937 128.16 
L 169.223415 107.961114 
z
M 168.537659 87.382015 
L 169.091989 87.382015 
L 168.815258 43.277154 
L 168.537659 87.382015 
z
" clip-path="url(#pc57260ac58)" style="fill: #008000"/>
   </g>
   <g id="patch_81">
    <path d="M 169.986993 17.28 
L 172.108454 17.28 
L 172.108454 38.904689 
L 171.345222 38.904689 
L 171.345222 128.16 
L 170.751706 128.16 
L 170.751706 38.904689 
L 169.986993 38.904689 
L 169.986993 17.28 
z
" clip-path="url(#pc57260ac58)" style="fill: #ff0000"/>
   </g>
   <g id="patch_82">
    <path d="M 172.22011 127.672615 
L 174.341571 127.672615 
L 174.341571 127.767669 
L 173.578338 127.767669 
L 173.578338 128.16 
L 172.984823 128.16 
L 172.984823 127.767669 
L 172.22011 127.767669 
L 172.22011 127.672615 
z
" clip-path="url(#pc57260ac58)" style="fill: #ff0000"/>
   </g>
   <g id="patch_83">
    <path d="M 174.341571 117.684603 
Q 174.127618 122.678609 173.8975 125.187014 
Q 173.667382 127.672615 173.422049 127.672615 
Q 172.867674 127.672615 172.543892 112.804616 
Q 172.22011 97.936617 172.22011 72.510513 
Q 172.22011 46.787962 172.549597 32.033981 
Q 172.87956 17.28 173.453429 17.28 
Q 173.674514 17.28 173.877056 19.286724 
Q 174.080073 21.270644 174.259793 25.192877 
L 174.259793 47.198428 
Q 174.074368 42.158815 173.890844 39.673214 
Q 173.70732 37.164809 173.522845 37.164809 
Q 173.181471 37.164809 172.996521 46.331888 
Q 172.811571 55.476164 172.811571 72.510513 
Q 172.811571 89.385236 172.989865 98.597923 
Q 173.168159 107.787806 173.49622 107.787806 
Q 173.585604 107.787806 173.662152 107.263322 
Q 173.738699 106.716033 173.799557 105.575849 
L 173.799557 84.915715 
L 173.450101 84.915715 
L 173.450101 66.513145 
L 174.341571 66.513145 
L 174.341571 117.684603 
z
" clip-path="url(#pc57260ac58)" style="fill: #ffa600"/>
   </g>
   <g id="patch_84">
    <path d="M 175.922764 128.071214 
L 175.106885 128.071214 
L 174.978062 128.16 
L 174.453227 128.16 
L 175.202743 127.672615 
L 175.825171 127.672615 
L 176.574687 128.16 
L 176.050286 128.16 
L 175.922764 128.071214 
z
M 175.237009 127.980756 
L 175.791339 127.980756 
L 175.514608 127.786889 
L 175.237009 127.980756 
z
" clip-path="url(#pc57260ac58)" style="fill: #008000"/>
   </g>
   <g id="patch_85">
    <path d="M 176.574687 119.759738 
Q 176.397231 123.681971 176.205343 125.665892 
Q 176.013454 127.672615 175.804462 127.672615 
Q 175.181226 127.672615 174.817226 112.804616 
Q 174.453227 97.936617 174.453227 72.510513 
Q 174.453227 46.993195 174.817226 32.147999 
Q 175.181226 17.28 175.804462 17.28 
Q 176.013454 17.28 176.205343 19.286724 
Q 176.397231 21.270644 176.574687 25.192877 
L 176.574687 47.198428 
Q 176.395627 41.999189 176.221912 39.581999 
Q 176.048197 37.164809 175.856309 37.164809 
Q 175.512086 37.164809 175.314853 46.582729 
Q 175.118154 55.977845 175.118154 72.510513 
Q 175.118154 88.97477 175.314853 98.39269 
Q 175.512086 107.787806 175.856309 107.787806 
Q 176.048197 107.787806 176.221912 105.370616 
Q 176.395627 102.930622 176.574687 97.731383 
L 176.574687 119.759738 
z
" clip-path="url(#pc57260ac58)" style="fill: #0000ff"/>
   </g>
   <g id="patch_86">
    <path d="M 176.686343 17.28 
L 178.807804 17.28 
L 178.807804 38.904689 
L 178.044571 38.904689 
L 178.044571 128.16 
L 177.451056 128.16 
L 177.451056 38.904689 
L 176.686343 38.904689 
L 176.686343 17.28 
z
" clip-path="url(#pc57260ac58)" style="fill: #ff0000"/>
   </g>
   <g id="patch_87">
    <path d="M 178.91946 17.28 
L 181.04092 17.28 
L 181.04092 38.904689 
L 180.277688 38.904689 
L 180.277688 128.16 
L 179.684172 128.16 
L 179.684172 38.904689 
L 178.91946 38.904689 
L 178.91946 17.28 
z
" clip-path="url(#pc57260ac58)" style="fill: #ff0000"/>
   </g>
   <g id="patch_88">
    <path d="M 181.152576 17.28 
L 183.274037 17.28 
L 183.274037 38.904689 
L 182.510805 38.904689 
L 182.510805 128.16 
L 181.917289 128.16 
L 181.917289 38.904689 
L 181.152576 38.904689 
L 181.152576 17.28 
z
" clip-path="url(#pc57260ac58)" style="fill: #ff0000"/>
   </g>
   <g id="patch_89">
    <path d="M 185.507154 124.736327 
Q 185.329697 126.433364 185.137809 127.291749 
Q 184.945921 128.16 184.736928 128.16 
Q 184.113692 128.16 183.749693 121.727047 
Q 183.385693 115.294093 183.385693 104.292954 
Q 183.385693 93.252348 183.749693 86.829261 
Q 184.113692 80.396308 184.736928 80.396308 
Q 184.945921 80.396308 185.137809 81.264559 
Q 185.329697 82.122944 185.507154 83.819981 
L 185.507154 93.341146 
Q 185.328094 91.091586 185.154379 90.045738 
Q 184.980664 88.99989 184.788775 88.99989 
Q 184.444552 88.99989 184.247319 93.074751 
Q 184.05062 97.139746 184.05062 104.292954 
Q 184.05062 111.416561 184.247319 115.491423 
Q 184.444552 119.556418 184.788775 119.556418 
Q 184.980664 119.556418 185.154379 118.51057 
Q 185.328094 117.454855 185.507154 115.205295 
L 185.507154 124.736327 
z
" clip-path="url(#pc57260ac58)" style="fill: #0000ff"/>
   </g>
   <g id="patch_90">
    <path d="M 183.385693 17.28 
L 185.507154 17.28 
L 185.507154 29.589438 
L 184.743921 29.589438 
L 184.743921 80.396308 
L 184.150405 80.396308 
L 184.150405 29.589438 
L 183.385693 29.589438 
L 183.385693 17.28 
z
" clip-path="url(#pc57260ac58)" style="fill: #ff0000"/>
   </g>
   <g id="patch_91">
    <path d="M 187.74027 127.863049 
Q 187.562814 128.010241 187.370925 128.084692 
Q 187.179037 128.16 186.970045 128.16 
Q 186.346809 128.16 185.982809 127.60204 
Q 185.618809 127.04408 185.618809 126.089899 
Q 185.618809 125.132295 185.982809 124.575191 
Q 186.346809 124.017231 186.970045 124.017231 
Q 187.179037 124.017231 187.370925 124.092538 
Q 187.562814 124.16699 187.74027 124.314182 
L 187.74027 125.139997 
Q 187.56121 124.944882 187.387495 124.854171 
Q 187.21378 124.76346 187.021892 124.76346 
Q 186.677669 124.76346 186.480436 125.116892 
Q 186.283737 125.469468 186.283737 126.089899 
Q 186.283737 126.707763 186.480436 127.061195 
Q 186.677669 127.413771 187.021892 127.413771 
Q 187.21378 127.413771 187.387495 127.32306 
Q 187.56121 127.231493 187.74027 127.036378 
L 187.74027 127.863049 
z
" clip-path="url(#pc57260ac58)" style="fill: #0000ff"/>
   </g>
   <g id="patch_92">
    <path d="M 185.618809 17.28 
L 187.74027 17.28 
L 187.74027 38.096734 
L 186.977038 38.096734 
L 186.977038 124.017231 
L 186.383522 124.017231 
L 186.383522 38.096734 
L 185.618809 38.096734 
L 185.618809 17.28 
z
" clip-path="url(#pc57260ac58)" style="fill: #ff0000"/>
   </g>
   <g id="patch_93">
    <path d="M 187.851926 17.28 
L 189.973387 17.28 
L 189.973387 38.904689 
L 189.210154 38.904689 
L 189.210154 128.16 
L 188.616639 128.16 
L 188.616639 38.904689 
L 187.851926 38.904689 
L 187.851926 17.28 
z
" clip-path="url(#pc57260ac58)" style="fill: #ff0000"/>
   </g>
   <g id="patch_94">
    <path d="M 191.55458 107.961114 
L 190.738701 107.961114 
L 190.609877 128.16 
L 190.085043 128.16 
L 190.834559 17.28 
L 191.456987 17.28 
L 192.206503 128.16 
L 191.682102 128.16 
L 191.55458 107.961114 
z
M 190.868825 87.382015 
L 191.423155 87.382015 
L 191.146424 43.277154 
L 190.868825 87.382015 
z
" clip-path="url(#pc57260ac58)" style="fill: #008000"/>
   </g>
   <g id="patch_95">
    <path d="M 192.318159 17.28 
L 194.43962 17.28 
L 194.43962 38.904689 
L 193.676387 38.904689 
L 193.676387 128.16 
L 193.082872 128.16 
L 193.082872 38.904689 
L 192.318159 38.904689 
L 192.318159 17.28 
z
" clip-path="url(#pc57260ac58)" style="fill: #ff0000"/>
   </g>
   <g id="patch_96">
    <path d="M 196.020813 107.961114 
L 195.204934 107.961114 
L 195.076111 128.16 
L 194.551276 128.16 
L 195.300792 17.28 
L 195.92322 17.28 
L 196.672736 128.16 
L 196.148335 128.16 
L 196.020813 107.961114 
z
M 195.335058 87.382015 
L 195.889388 87.382015 
L 195.612657 43.277154 
L 195.335058 87.382015 
z
" clip-path="url(#pc57260ac58)" style="fill: #008000"/>
   </g>
   <g id="patch_97">
    <path d="M 196.784392 127.916308 
L 198.905853 127.916308 
L 198.905853 127.963834 
L 198.14262 127.963834 
L 198.14262 128.16 
L 197.549105 128.16 
L 197.549105 127.963834 
L 196.784392 127.963834 
L 196.784392 127.916308 
z
" clip-path="url(#pc57260ac58)" style="fill: #ff0000"/>
   </g>
   <g id="patch_98">
    <path d="M 198.25393 107.761815 
L 197.43805 107.761815 
L 197.309227 127.916308 
L 196.784392 127.916308 
L 197.533908 17.28 
L 198.156337 17.28 
L 198.905853 127.916308 
L 198.381452 127.916308 
L 198.25393 107.761815 
z
M 197.568175 87.227944 
L 198.122504 87.227944 
L 197.845773 43.220017 
L 197.568175 87.227944 
z
" clip-path="url(#pc57260ac58)" style="fill: #008000"/>
   </g>
   <g id="patch_99">
    <path d="M 199.017509 17.28 
L 201.138969 17.28 
L 201.138969 38.904689 
L 200.375737 38.904689 
L 200.375737 128.16 
L 199.782221 128.16 
L 199.782221 38.904689 
L 199.017509 38.904689 
L 199.017509 17.28 
z
" clip-path="url(#pc57260ac58)" style="fill: #ff0000"/>
   </g>
   <g id="patch_100">
    <path d="M 203.372086 118.127891 
Q 203.158133 123.143945 202.928015 125.663425 
Q 202.697897 128.16 202.452565 128.16 
Q 201.898189 128.16 201.574407 113.226358 
Q 201.250625 98.292716 201.250625 72.754357 
Q 201.250625 46.91824 201.580113 32.09912 
Q 201.910075 17.28 202.483944 17.28 
Q 202.705029 17.28 202.907571 19.295584 
Q 203.110588 21.288263 203.290309 25.227812 
L 203.290309 47.330518 
Q 203.104883 42.268655 202.921359 39.77208 
Q 202.737835 37.252601 202.55336 37.252601 
Q 202.211986 37.252601 202.027036 46.460153 
Q 201.842086 55.644801 201.842086 72.754357 
Q 201.842086 89.703582 202.02038 98.956943 
Q 202.198674 108.187399 202.526735 108.187399 
Q 202.61612 108.187399 202.692667 107.660599 
Q 202.769215 107.110894 202.830072 105.965677 
L 202.830072 85.214328 
L 202.480616 85.214328 
L 202.480616 66.73051 
L 203.372086 66.73051 
L 203.372086 118.127891 
z
" clip-path="url(#pc57260ac58)" style="fill: #ffa600"/>
   </g>
   <g id="patch_101">
    <path d="M 203.483742 127.672615 
L 205.605203 127.672615 
L 205.605203 127.767669 
L 204.84197 127.767669 
L 204.84197 128.16 
L 204.248454 128.16 
L 204.248454 127.767669 
L 203.483742 127.767669 
L 203.483742 127.672615 
z
" clip-path="url(#pc57260ac58)" style="fill: #ff0000"/>
   </g>
   <g id="patch_102">
    <path d="M 204.95328 127.539436 
L 204.1374 127.539436 
L 204.008577 127.672615 
L 203.483742 127.672615 
L 204.233258 126.941538 
L 204.855686 126.941538 
L 205.605203 127.672615 
L 205.080801 127.672615 
L 204.95328 127.539436 
z
M 204.267524 127.40375 
L 204.821854 127.40375 
L 204.545123 127.112948 
L 204.267524 127.40375 
z
" clip-path="url(#pc57260ac58)" style="fill: #008000"/>
   </g>
   <g id="patch_103">
    <path d="M 205.605203 119.081065 
Q 205.427746 122.977323 205.235858 124.948104 
Q 205.04397 126.941538 204.834977 126.941538 
Q 204.211741 126.941538 203.847742 112.172003 
Q 203.483742 97.402467 203.483742 72.144748 
Q 203.483742 46.796419 203.847742 32.049536 
Q 204.211741 17.28 204.834977 17.28 
Q 205.04397 17.28 205.235858 19.273434 
Q 205.427746 21.244216 205.605203 25.140474 
L 205.605203 47.000293 
Q 205.426143 41.835486 205.252428 39.434304 
Q 205.078713 37.033122 204.886824 37.033122 
Q 204.542601 37.033122 204.345368 46.388671 
Q 204.148669 55.721568 204.148669 72.144748 
Q 204.148669 88.49997 204.345368 97.85552 
Q 204.542601 107.188417 204.886824 107.188417 
Q 205.078713 107.188417 205.252428 104.787235 
Q 205.426143 102.3634 205.605203 97.198593 
L 205.605203 119.081065 
z
" clip-path="url(#pc57260ac58)" style="fill: #0000ff"/>
   </g>
   <g id="patch_104">
    <path d="M 207.838319 120.212188 
Q 207.660863 124.151737 207.468974 126.144416 
Q 207.277086 128.16 207.068094 128.16 
Q 206.444858 128.16 206.080858 113.226358 
Q 205.716858 98.292716 205.716858 72.754357 
Q 205.716858 47.124379 206.080858 32.213642 
Q 206.444858 17.28 207.068094 17.28 
Q 207.277086 17.28 207.468974 19.295584 
Q 207.660863 21.288263 207.838319 25.227812 
L 207.838319 47.330518 
Q 207.659259 42.108325 207.485544 39.680463 
Q 207.311829 37.252601 207.119941 37.252601 
Q 206.775718 37.252601 206.578485 46.712101 
Q 206.381786 56.148697 206.381786 72.754357 
Q 206.381786 89.291303 206.578485 98.750804 
Q 206.775718 108.187399 207.119941 108.187399 
Q 207.311829 108.187399 207.485544 105.759537 
Q 207.659259 103.308771 207.838319 98.086577 
L 207.838319 120.212188 
z
" clip-path="url(#pc57260ac58)" style="fill: #0000ff"/>
   </g>
   <g id="patch_105">
    <path d="M 210.071436 127.094469 
Q 209.893979 127.622629 209.702091 127.889779 
Q 209.510203 128.16 209.30121 128.16 
Q 208.677974 128.16 208.313975 126.157907 
Q 207.949975 124.155815 207.949975 120.731991 
Q 207.949975 117.295884 208.313975 115.296862 
Q 208.677974 113.294769 209.30121 113.294769 
Q 209.510203 113.294769 209.702091 113.56499 
Q 209.893979 113.832141 210.071436 114.3603 
L 210.071436 117.32352 
Q 209.892376 116.623402 209.718661 116.297908 
Q 209.544946 115.972415 209.353057 115.972415 
Q 209.008835 115.972415 208.811601 117.240611 
Q 208.614902 118.505737 208.614902 120.731991 
Q 208.614902 122.949032 208.811601 124.217229 
Q 209.008835 125.482355 209.353057 125.482355 
Q 209.544946 125.482355 209.718661 125.156861 
Q 209.892376 124.828297 210.071436 124.128178 
L 210.071436 127.094469 
z
" clip-path="url(#pc57260ac58)" style="fill: #0000ff"/>
   </g>
   <g id="patch_106">
    <path d="M 209.419513 95.803866 
L 208.603633 95.803866 
L 208.47481 113.294769 
L 207.949975 113.294769 
L 208.699491 17.28 
L 209.321919 17.28 
L 210.071436 113.294769 
L 209.547035 113.294769 
L 209.419513 95.803866 
z
M 208.733757 77.983723 
L 209.288087 77.983723 
L 209.011356 39.791821 
L 208.733757 77.983723 
z
" clip-path="url(#pc57260ac58)" style="fill: #008000"/>
   </g>
   <g id="patch_107">
    <path d="M 211.652629 107.961114 
L 210.83675 107.961114 
L 210.707926 128.16 
L 210.183092 128.16 
L 210.932608 17.28 
L 211.555036 17.28 
L 212.304552 128.16 
L 211.780151 128.16 
L 211.652629 107.961114 
z
M 210.966874 87.382015 
L 211.521204 87.382015 
L 211.244473 43.277154 
L 210.966874 87.382015 
z
" clip-path="url(#pc57260ac58)" style="fill: #008000"/>
   </g>
   <g id="patch_108">
    <path d="M 214.537669 127.476494 
Q 214.323716 127.818247 214.093598 127.989904 
Q 213.86348 128.16 213.618147 128.16 
Q 213.063772 128.16 212.73999 127.142543 
Q 212.416208 126.125086 212.416208 124.38511 
Q 212.416208 122.624847 212.745695 121.615193 
Q 213.075658 120.605538 213.649527 120.605538 
Q 213.870612 120.605538 214.073154 120.742864 
Q 214.276171 120.878629 214.455891 121.147038 
L 214.455891 122.652936 
Q 214.270466 122.308062 214.086942 122.137966 
Q 213.903418 121.966309 213.718943 121.966309 
Q 213.377569 121.966309 213.192619 122.593637 
Q 213.007669 123.219404 213.007669 124.38511 
Q 213.007669 125.539892 213.185963 126.170341 
Q 213.364257 126.799229 213.692318 126.799229 
Q 213.781702 126.799229 213.85825 126.763338 
Q 213.934797 126.725885 213.995655 126.647859 
L 213.995655 125.234031 
L 213.646199 125.234031 
L 213.646199 123.974694 
L 214.537669 123.974694 
L 214.537669 127.476494 
z
" clip-path="url(#pc57260ac58)" style="fill: #ffa600"/>
   </g>
   <g id="patch_109">
    <path d="M 214.537669 113.199225 
Q 214.360212 116.870366 214.168324 118.72728 
Q 213.976436 120.605538 213.767443 120.605538 
Q 213.144207 120.605538 212.780208 106.689354 
Q 212.416208 92.773169 212.416208 68.974785 
Q 212.416208 45.091026 212.780208 31.196185 
Q 213.144207 17.28 213.767443 17.28 
Q 213.976436 17.28 214.168324 19.158258 
Q 214.360212 21.015172 214.537669 24.686313 
L 214.537669 45.283121 
Q 214.358609 40.416725 214.184894 38.154277 
Q 214.011179 35.89183 213.819291 35.89183 
Q 213.475068 35.89183 213.277834 44.706837 
Q 213.081136 53.5005 213.081136 68.974785 
Q 213.081136 84.385039 213.277834 93.200046 
Q 213.475068 101.993708 213.819291 101.993708 
Q 214.011179 101.993708 214.184894 99.731261 
Q 214.358609 97.44747 214.537669 92.581074 
L 214.537669 113.199225 
z
" clip-path="url(#pc57260ac58)" style="fill: #0000ff"/>
   </g>
   <g id="patch_110">
    <path d="M 214.649325 17.28 
L 216.770785 17.28 
L 216.770785 38.904689 
L 216.007553 38.904689 
L 216.007553 128.16 
L 215.414037 128.16 
L 215.414037 38.904689 
L 214.649325 38.904689 
L 214.649325 17.28 
z
" clip-path="url(#pc57260ac58)" style="fill: #ff0000"/>
   </g>
   <g id="patch_111">
    <path d="M 218.351979 128.071214 
L 217.536099 128.071214 
L 217.407276 128.16 
L 216.882441 128.16 
L 217.631958 127.672615 
L 218.254386 127.672615 
L 219.003902 128.16 
L 218.479501 128.16 
L 218.351979 128.071214 
z
M 217.666224 127.980756 
L 218.220553 127.980756 
L 217.943822 127.786889 
L 217.666224 127.980756 
z
" clip-path="url(#pc57260ac58)" style="fill: #008000"/>
   </g>
   <g id="patch_112">
    <path d="M 216.882441 17.28 
L 219.003902 17.28 
L 219.003902 38.809636 
L 218.240669 38.809636 
L 218.240669 127.672615 
L 217.647154 127.672615 
L 217.647154 38.809636 
L 216.882441 38.809636 
L 216.882441 17.28 
z
" clip-path="url(#pc57260ac58)" style="fill: #ff0000"/>
   </g>
   <g id="patch_113">
    <path d="M 219.115558 17.28 
L 221.237019 17.28 
L 221.237019 38.904689 
L 220.473786 38.904689 
L 220.473786 128.16 
L 219.88027 128.16 
L 219.88027 38.904689 
L 219.115558 38.904689 
L 219.115558 17.28 
z
" clip-path="url(#pc57260ac58)" style="fill: #ff0000"/>
   </g>
   <g id="patch_114">
    <path d="M 223.470135 118.127891 
Q 223.256182 123.143945 223.026064 125.663425 
Q 222.795946 128.16 222.550614 128.16 
Q 221.996238 128.16 221.672456 113.226358 
Q 221.348674 98.292716 221.348674 72.754357 
Q 221.348674 46.91824 221.678162 32.09912 
Q 222.008124 17.28 222.581993 17.28 
Q 222.803078 17.28 223.00562 19.295584 
Q 223.208637 21.288263 223.388358 25.227812 
L 223.388358 47.330518 
Q 223.202932 42.268655 223.019408 39.77208 
Q 222.835884 37.252601 222.651409 37.252601 
Q 222.310036 37.252601 222.125085 46.460153 
Q 221.940135 55.644801 221.940135 72.754357 
Q 221.940135 89.703582 222.118429 98.956943 
Q 222.296723 108.187399 222.624784 108.187399 
Q 222.714169 108.187399 222.790716 107.660599 
Q 222.867264 107.110894 222.928121 105.965677 
L 222.928121 85.214328 
L 222.578665 85.214328 
L 222.578665 66.73051 
L 223.470135 66.73051 
L 223.470135 118.127891 
z
" clip-path="url(#pc57260ac58)" style="fill: #ffa600"/>
   </g>
   <g id="patch_115">
    <path d="M 223.581791 17.28 
L 225.703252 17.28 
L 225.703252 38.904689 
L 224.940019 38.904689 
L 224.940019 128.16 
L 224.346503 128.16 
L 224.346503 38.904689 
L 223.581791 38.904689 
L 223.581791 17.28 
z
" clip-path="url(#pc57260ac58)" style="fill: #ff0000"/>
   </g>
   <g id="patch_116">
    <path d="M 227.284445 107.961114 
L 226.468565 107.961114 
L 226.339742 128.16 
L 225.814907 128.16 
L 226.564424 17.28 
L 227.186852 17.28 
L 227.936368 128.16 
L 227.411967 128.16 
L 227.284445 107.961114 
z
M 226.59869 87.382015 
L 227.15302 87.382015 
L 226.876288 43.277154 
L 226.59869 87.382015 
z
" clip-path="url(#pc57260ac58)" style="fill: #008000"/>
   </g>
   <g id="patch_117">
    <path d="M 228.048024 124.017231 
L 230.169485 124.017231 
L 230.169485 124.825186 
L 229.406252 124.825186 
L 229.406252 128.16 
L 228.812737 128.16 
L 228.812737 124.825186 
L 228.048024 124.825186 
L 228.048024 124.017231 
z
" clip-path="url(#pc57260ac58)" style="fill: #ff0000"/>
   </g>
   <g id="patch_118">
    <path d="M 230.169485 116.36637 
Q 229.992028 120.158727 229.80014 122.076955 
Q 229.608252 124.017231 229.399259 124.017231 
Q 228.776023 124.017231 228.412024 109.641549 
Q 228.048024 95.265868 228.048024 70.681688 
Q 228.048024 46.009315 228.412024 31.655682 
Q 228.776023 17.28 229.399259 17.28 
Q 229.608252 17.28 229.80014 19.220276 
Q 229.992028 21.138503 230.169485 24.930861 
L 230.169485 46.207752 
Q 229.990425 41.180673 229.81671 38.843522 
Q 229.642995 36.506372 229.451107 36.506372 
Q 229.106884 36.506372 228.90965 45.61244 
Q 228.712951 54.69646 228.712951 70.681688 
Q 228.712951 86.600771 228.90965 95.706839 
Q 229.106884 104.790859 229.451107 104.790859 
Q 229.642995 104.790859 229.81671 102.453708 
Q 229.990425 100.094509 230.169485 95.06743 
L 230.169485 116.36637 
z
" clip-path="url(#pc57260ac58)" style="fill: #0000ff"/>
   </g>
   <g id="patch_119">
    <path d="M 231.750678 107.961114 
L 230.934799 107.961114 
L 230.805975 128.16 
L 230.281141 128.16 
L 231.030657 17.28 
L 231.653085 17.28 
L 232.402601 128.16 
L 231.8782 128.16 
L 231.750678 107.961114 
z
M 231.064923 87.382015 
L 231.619253 87.382015 
L 231.342522 43.277154 
L 231.064923 87.382015 
z
" clip-path="url(#pc57260ac58)" style="fill: #008000"/>
   </g>
   <g id="patch_120">
    <path d="M 234.635718 128.071806 
Q 234.421765 128.115903 234.191647 128.138052 
Q 233.961529 128.16 233.716196 128.16 
Q 233.161821 128.16 232.838039 128.028715 
Q 232.514257 127.89743 232.514257 127.672917 
Q 232.514257 127.445787 232.843744 127.315509 
Q 233.173707 127.185231 233.747576 127.185231 
Q 233.968661 127.185231 234.171203 127.20295 
Q 234.37422 127.220468 234.55394 127.255102 
L 234.55394 127.449411 
Q 234.368515 127.404911 234.184991 127.382963 
Q 234.001467 127.360814 233.816992 127.360814 
Q 233.475618 127.360814 233.290668 127.44176 
Q 233.105718 127.522504 233.105718 127.672917 
Q 233.105718 127.821922 233.284012 127.90327 
Q 233.462306 127.984417 233.790367 127.984417 
Q 233.879751 127.984417 233.956299 127.979785 
Q 234.032846 127.974953 234.093704 127.964885 
L 234.093704 127.782456 
L 233.744248 127.782456 
L 233.744248 127.619961 
L 234.635718 127.619961 
L 234.635718 128.071806 
z
" clip-path="url(#pc57260ac58)" style="fill: #ffa600"/>
   </g>
   <g id="patch_121">
    <path d="M 234.635718 127.080424 
Q 234.458261 127.132375 234.266373 127.158652 
Q 234.074485 127.185231 233.865492 127.185231 
Q 233.242257 127.185231 232.878257 126.988304 
Q 232.514257 126.791376 232.514257 126.454607 
Q 232.514257 126.116629 232.878257 125.920004 
Q 233.242257 125.723077 233.865492 125.723077 
Q 234.074485 125.723077 234.266373 125.749656 
Q 234.458261 125.775933 234.635718 125.827883 
L 234.635718 126.119347 
Q 234.456658 126.050483 234.282943 126.018468 
Q 234.109228 125.986452 233.91734 125.986452 
Q 233.573117 125.986452 233.375883 126.111193 
Q 233.179185 126.235631 233.179185 126.454607 
Q 233.179185 126.672677 233.375883 126.797417 
Q 233.573117 126.921856 233.91734 126.921856 
Q 234.109228 126.921856 234.282943 126.88984 
Q 234.456658 126.857522 234.635718 126.788658 
L 234.635718 127.080424 
z
" clip-path="url(#pc57260ac58)" style="fill: #0000ff"/>
   </g>
   <g id="patch_122">
    <path d="M 233.983795 105.968123 
L 233.167915 105.968123 
L 233.039092 125.723077 
L 232.514257 125.723077 
L 233.263773 17.28 
L 233.886202 17.28 
L 234.635718 125.723077 
L 234.111317 125.723077 
L 233.983795 105.968123 
z
M 233.298039 85.841311 
L 233.852369 85.841311 
L 233.575638 42.705788 
L 233.298039 85.841311 
z
" clip-path="url(#pc57260ac58)" style="fill: #008000"/>
   </g>
   <g id="patch_123">
    <path d="M 234.747374 126.454154 
L 236.868834 126.454154 
L 236.868834 126.786841 
L 236.105602 126.786841 
L 236.105602 128.16 
L 235.512086 128.16 
L 235.512086 126.786841 
L 234.747374 126.786841 
L 234.747374 126.454154 
z
" clip-path="url(#pc57260ac58)" style="fill: #ff0000"/>
   </g>
   <g id="patch_124">
    <path d="M 236.216911 117.930668 
L 235.401032 117.930668 
L 235.272209 126.454154 
L 234.747374 126.454154 
L 235.49689 79.665231 
L 236.119318 79.665231 
L 236.868834 126.454154 
L 236.344433 126.454154 
L 236.216911 117.930668 
z
M 235.531156 109.24674 
L 236.085486 109.24674 
L 235.808755 90.635458 
L 235.531156 109.24674 
z
" clip-path="url(#pc57260ac58)" style="fill: #008000"/>
   </g>
   <g id="patch_125">
    <path d="M 236.868834 74.020791 
Q 236.654882 76.843011 236.424764 78.260564 
Q 236.194645 79.665231 235.949313 79.665231 
Q 235.394937 79.665231 235.071156 71.263006 
Q 234.747374 62.860781 234.747374 48.491946 
Q 234.747374 33.955581 235.076861 25.617791 
Q 235.406824 17.28 235.980693 17.28 
Q 236.201777 17.28 236.404319 18.414043 
Q 236.607337 19.535198 236.787057 21.751736 
L 236.787057 34.187544 
Q 236.601631 31.339551 236.418107 29.934885 
Q 236.234583 28.517331 236.050108 28.517331 
Q 235.708735 28.517331 235.523785 33.697844 
Q 235.338834 38.86547 235.338834 48.491946 
Q 235.338834 58.028213 235.517128 63.2345 
Q 235.695422 68.427899 236.023483 68.427899 
Q 236.112868 68.427899 236.189415 68.131502 
Q 236.265963 67.822218 236.326821 67.177875 
L 236.326821 55.502391 
L 235.977364 55.502391 
L 235.977364 45.102705 
L 236.868834 45.102705 
L 236.868834 74.020791 
z
" clip-path="url(#pc57260ac58)" style="fill: #ffa600"/>
   </g>
   <g id="patch_126">
    <path d="M 238.450028 107.961114 
L 237.634148 107.961114 
L 237.505325 128.16 
L 236.98049 128.16 
L 237.730007 17.28 
L 238.352435 17.28 
L 239.101951 128.16 
L 238.57755 128.16 
L 238.450028 107.961114 
z
M 237.764273 87.382015 
L 238.318602 87.382015 
L 238.041871 43.277154 
L 237.764273 87.382015 
z
" clip-path="url(#pc57260ac58)" style="fill: #008000"/>
   </g>
   <g id="patch_127">
    <path d="M 240.683145 107.961114 
L 239.867265 107.961114 
L 239.738442 128.16 
L 239.213607 128.16 
L 239.963123 17.28 
L 240.585551 17.28 
L 241.335068 128.16 
L 240.810666 128.16 
L 240.683145 107.961114 
z
M 239.997389 87.382015 
L 240.551719 87.382015 
L 240.274988 43.277154 
L 239.997389 87.382015 
z
" clip-path="url(#pc57260ac58)" style="fill: #008000"/>
   </g>
   <g id="patch_128">
    <path d="M 242.916261 107.961114 
L 242.100381 107.961114 
L 241.971558 128.16 
L 241.446723 128.16 
L 242.19624 17.28 
L 242.818668 17.28 
L 243.568184 128.16 
L 243.043783 128.16 
L 242.916261 107.961114 
z
M 242.230506 87.382015 
L 242.784835 87.382015 
L 242.508104 43.277154 
L 242.230506 87.382015 
z
" clip-path="url(#pc57260ac58)" style="fill: #008000"/>
   </g>
   <g id="patch_129">
    <path d="M 245.149378 128.115607 
L 244.333498 128.115607 
L 244.204675 128.16 
L 243.67984 128.16 
L 244.429356 127.916308 
L 245.051784 127.916308 
L 245.801301 128.16 
L 245.2769 128.16 
L 245.149378 128.115607 
z
M 244.463622 128.070378 
L 245.017952 128.070378 
L 244.741221 127.973444 
L 244.463622 128.070378 
z
" clip-path="url(#pc57260ac58)" style="fill: #008000"/>
   </g>
   <g id="patch_130">
    <path d="M 245.801301 127.811501 
Q 245.623844 127.863451 245.431956 127.889729 
Q 245.240068 127.916308 245.031075 127.916308 
Q 244.407839 127.916308 244.04384 127.719381 
Q 243.67984 127.522453 243.67984 127.185684 
Q 243.67984 126.847706 244.04384 126.651081 
Q 244.407839 126.454154 245.031075 126.454154 
Q 245.240068 126.454154 245.431956 126.480733 
Q 245.623844 126.50701 245.801301 126.55896 
L 245.801301 126.850424 
Q 245.622241 126.78156 245.448526 126.749545 
Q 245.274811 126.717529 245.082922 126.717529 
Q 244.7387 126.717529 244.541466 126.842269 
Q 244.344767 126.966708 244.344767 127.185684 
Q 244.344767 127.403753 244.541466 127.528494 
Q 244.7387 127.652933 245.082922 127.652933 
Q 245.274811 127.652933 245.448526 127.620917 
Q 245.622241 127.588599 245.801301 127.519735 
L 245.801301 127.811501 
z
" clip-path="url(#pc57260ac58)" style="fill: #0000ff"/>
   </g>
   <g id="patch_131">
    <path d="M 243.67984 124.260923 
L 245.801301 124.260923 
L 245.801301 124.688664 
L 245.038068 124.688664 
L 245.038068 126.454154 
L 244.444553 126.454154 
L 244.444553 124.688664 
L 243.67984 124.688664 
L 243.67984 124.260923 
z
" clip-path="url(#pc57260ac58)" style="fill: #ff0000"/>
   </g>
   <g id="patch_132">
    <path d="M 245.801301 114.581591 
Q 245.587348 119.421257 245.35723 121.85214 
Q 245.127112 124.260923 244.881779 124.260923 
Q 244.327404 124.260923 244.003622 109.85242 
Q 243.67984 95.443918 243.67984 70.80361 
Q 243.67984 45.876016 244.009327 31.578008 
Q 244.33929 17.28 244.913159 17.28 
Q 245.134243 17.28 245.336785 19.224706 
Q 245.539803 21.147313 245.719523 24.948329 
L 245.719523 46.273797 
Q 245.534097 41.389933 245.350573 38.98115 
Q 245.16705 36.550267 244.982575 36.550267 
Q 244.641201 36.550267 244.456251 45.434038 
Q 244.271301 54.295709 244.271301 70.80361 
Q 244.271301 87.156819 244.449594 96.084787 
Q 244.627888 104.990656 244.955949 104.990656 
Q 245.045334 104.990656 245.121882 104.48238 
Q 245.198429 103.952006 245.259287 102.847059 
L 245.259287 82.825428 
L 244.909831 82.825428 
L 244.909831 64.991591 
L 245.801301 64.991591 
L 245.801301 114.581591 
z
" clip-path="url(#pc57260ac58)" style="fill: #ffa600"/>
   </g>
   <g id="patch_133">
    <path d="M 248.034417 128.071806 
Q 247.820464 128.115903 247.590346 128.138052 
Q 247.360228 128.16 247.114896 128.16 
Q 246.56052 128.16 246.236738 128.028715 
Q 245.912956 127.89743 245.912956 127.672917 
Q 245.912956 127.445787 246.242444 127.315509 
Q 246.572407 127.185231 247.146275 127.185231 
Q 247.36736 127.185231 247.569902 127.20295 
Q 247.772919 127.220468 247.95264 127.255102 
L 247.95264 127.449411 
Q 247.767214 127.404911 247.58369 127.382963 
Q 247.400166 127.360814 247.215691 127.360814 
Q 246.874318 127.360814 246.689367 127.44176 
Q 246.504417 127.522504 246.504417 127.672917 
Q 246.504417 127.821922 246.682711 127.90327 
Q 246.861005 127.984417 247.189066 127.984417 
Q 247.278451 127.984417 247.354998 127.979785 
Q 247.431546 127.974953 247.492403 127.964885 
L 247.492403 127.782456 
L 247.142947 127.782456 
L 247.142947 127.619961 
L 248.034417 127.619961 
L 248.034417 128.071806 
z
" clip-path="url(#pc57260ac58)" style="fill: #ffa600"/>
   </g>
   <g id="patch_134">
    <path d="M 247.382494 126.696906 
L 246.566614 126.696906 
L 246.437791 127.185231 
L 245.912956 127.185231 
L 246.662473 124.504615 
L 247.284901 124.504615 
L 248.034417 127.185231 
L 247.510016 127.185231 
L 247.382494 126.696906 
z
M 246.696739 126.199389 
L 247.251069 126.199389 
L 246.974337 125.133118 
L 246.696739 126.199389 
z
" clip-path="url(#pc57260ac58)" style="fill: #008000"/>
   </g>
   <g id="patch_135">
    <path d="M 248.034417 121.09841 
Q 247.856961 122.786788 247.665072 123.640794 
Q 247.473184 124.504615 247.264192 124.504615 
Q 246.640956 124.504615 246.276956 118.104483 
Q 245.912956 111.704351 245.912956 100.75934 
Q 245.912956 89.775064 246.276956 83.384748 
Q 246.640956 76.984615 247.264192 76.984615 
Q 247.473184 76.984615 247.665072 77.848437 
Q 247.856961 78.702442 248.034417 80.390821 
L 248.034417 89.863409 
Q 247.855357 87.625326 247.681642 86.584814 
Q 247.507927 85.544301 247.316039 85.544301 
Q 246.971816 85.544301 246.774583 89.598373 
Q 246.577884 93.642628 246.577884 100.75934 
Q 246.577884 107.846603 246.774583 111.900674 
Q 246.971816 115.944929 247.316039 115.944929 
Q 247.507927 115.944929 247.681642 114.904417 
Q 247.855357 113.854089 248.034417 111.616006 
L 248.034417 121.09841 
z
" clip-path="url(#pc57260ac58)" style="fill: #0000ff"/>
   </g>
   <g id="patch_136">
    <path d="M 245.912956 17.28 
L 248.034417 17.28 
L 248.034417 28.924063 
L 247.271185 28.924063 
L 247.271185 76.984615 
L 246.677669 76.984615 
L 246.677669 28.924063 
L 245.912956 28.924063 
L 245.912956 17.28 
z
" clip-path="url(#pc57260ac58)" style="fill: #ff0000"/>
   </g>
   <g id="patch_137">
    <path d="M 250.267534 128.002791 
Q 250.090077 128.080716 249.898189 128.120131 
Q 249.706301 128.16 249.497308 128.16 
Q 248.874072 128.16 248.510073 127.864609 
Q 248.146073 127.569219 248.146073 127.064064 
Q 248.146073 126.557098 248.510073 126.26216 
Q 248.874072 125.966769 249.497308 125.966769 
Q 249.706301 125.966769 249.898189 126.006638 
Q 250.090077 126.046054 250.267534 126.123979 
L 250.267534 126.561175 
Q 250.088474 126.457879 249.914759 126.409855 
Q 249.741044 126.361832 249.549156 126.361832 
Q 249.204933 126.361832 249.007699 126.548943 
Q 248.811001 126.735601 248.811001 127.064064 
Q 248.811001 127.391169 249.007699 127.57828 
Q 249.204933 127.764938 249.549156 127.764938 
Q 249.741044 127.764938 249.914759 127.716914 
Q 250.088474 127.668437 250.267534 127.565141 
L 250.267534 128.002791 
z
" clip-path="url(#pc57260ac58)" style="fill: #0000ff"/>
   </g>
   <g id="patch_138">
    <path d="M 250.267534 125.459652 
Q 250.053581 125.71321 249.823463 125.840569 
Q 249.593345 125.966769 249.348012 125.966769 
Q 248.793637 125.966769 248.469855 125.211882 
Q 248.146073 124.456994 248.146073 123.166044 
Q 248.146073 121.860043 248.47556 121.110945 
Q 248.805523 120.361846 249.379392 120.361846 
Q 249.600477 120.361846 249.803018 120.463733 
Q 250.006036 120.564462 250.185756 120.763604 
L 250.185756 121.880883 
Q 250.000331 121.625009 249.816807 121.498808 
Q 249.633283 121.37145 249.448808 121.37145 
Q 249.107434 121.37145 248.922484 121.836887 
Q 248.737534 122.301166 248.737534 123.166044 
Q 248.737534 124.022818 248.915828 124.490571 
Q 249.094122 124.957165 249.422183 124.957165 
Q 249.511567 124.957165 249.588115 124.930536 
Q 249.664662 124.902749 249.72552 124.844858 
L 249.72552 123.795889 
L 249.376064 123.795889 
L 249.376064 122.861542 
L 250.267534 122.861542 
L 250.267534 125.459652 
z
" clip-path="url(#pc57260ac58)" style="fill: #ffa600"/>
   </g>
   <g id="patch_139">
    <path d="M 249.615611 117.076753 
L 248.799731 117.076753 
L 248.670908 120.361846 
L 248.146073 120.361846 
L 248.895589 102.328615 
L 249.518017 102.328615 
L 250.267534 120.361846 
L 249.743133 120.361846 
L 249.615611 117.076753 
z
M 248.929855 113.729822 
L 249.484185 113.729822 
L 249.207454 106.556724 
L 248.929855 113.729822 
z
" clip-path="url(#pc57260ac58)" style="fill: #008000"/>
   </g>
   <g id="patch_140">
    <path d="M 248.146073 17.28 
L 250.267534 17.28 
L 250.267534 33.86685 
L 249.504301 33.86685 
L 249.504301 102.328615 
L 248.910786 102.328615 
L 248.910786 33.86685 
L 248.146073 33.86685 
L 248.146073 17.28 
z
" clip-path="url(#pc57260ac58)" style="fill: #ff0000"/>
   </g>
   <g id="patch_141">
    <path d="M 252.50065 118.127891 
Q 252.286698 123.143945 252.056579 125.663425 
Q 251.826461 128.16 251.581129 128.16 
Q 251.026753 128.16 250.702971 113.226358 
Q 250.37919 98.292716 250.37919 72.754357 
Q 250.37919 46.91824 250.708677 32.09912 
Q 251.03864 17.28 251.612509 17.28 
Q 251.833593 17.28 252.036135 19.295584 
Q 252.239152 21.288263 252.418873 25.227812 
L 252.418873 47.330518 
Q 252.233447 42.268655 252.049923 39.77208 
Q 251.866399 37.252601 251.681924 37.252601 
Q 251.340551 37.252601 251.1556 46.460153 
Q 250.97065 55.644801 250.97065 72.754357 
Q 250.97065 89.703582 251.148944 98.956943 
Q 251.327238 108.187399 251.655299 108.187399 
Q 251.744684 108.187399 251.821231 107.660599 
Q 251.897779 107.110894 251.958637 105.965677 
L 251.958637 85.214328 
L 251.60918 85.214328 
L 251.60918 66.73051 
L 252.50065 66.73051 
L 252.50065 118.127891 
z
" clip-path="url(#pc57260ac58)" style="fill: #ffa600"/>
   </g>
   <g id="patch_142">
    <path d="M 254.733767 127.373953 
Q 254.55631 127.763578 254.364422 127.960657 
Q 254.172534 128.16 253.963541 128.16 
Q 253.340306 128.16 252.976306 126.683046 
Q 252.612306 125.206093 252.612306 122.680321 
Q 252.612306 120.145488 252.976306 118.6708 
Q 253.340306 117.193846 253.963541 117.193846 
Q 254.172534 117.193846 254.364422 117.39319 
Q 254.55631 117.590268 254.733767 117.979894 
L 254.733767 120.165875 
Q 254.554707 119.649395 254.380992 119.409277 
Q 254.207277 119.169158 254.015389 119.169158 
Q 253.671166 119.169158 253.473932 120.104713 
Q 253.277234 121.038003 253.277234 122.680321 
Q 253.277234 124.315843 253.473932 125.251398 
Q 253.671166 126.184688 254.015389 126.184688 
Q 254.207277 126.184688 254.380992 125.94457 
Q 254.554707 125.702186 254.733767 125.185705 
L 254.733767 127.373953 
z
" clip-path="url(#pc57260ac58)" style="fill: #0000ff"/>
   </g>
   <g id="patch_143">
    <path d="M 252.612306 102.572308 
L 254.733767 102.572308 
L 254.733767 105.423915 
L 253.970534 105.423915 
L 253.970534 117.193846 
L 253.377019 117.193846 
L 253.377019 105.423915 
L 252.612306 105.423915 
L 252.612306 102.572308 
z
" clip-path="url(#pc57260ac58)" style="fill: #ff0000"/>
   </g>
   <g id="patch_144">
    <path d="M 254.081844 98.044206 
L 253.265964 98.044206 
L 253.137141 102.572308 
L 252.612306 102.572308 
L 253.361822 77.715692 
L 253.984251 77.715692 
L 254.733767 102.572308 
L 254.209366 102.572308 
L 254.081844 98.044206 
z
M 253.396089 93.430869 
L 253.950418 93.430869 
L 253.673687 83.543626 
L 253.396089 93.430869 
z
" clip-path="url(#pc57260ac58)" style="fill: #008000"/>
   </g>
   <g id="patch_145">
    <path d="M 254.733767 72.622468 
Q 254.519814 75.16908 254.289696 76.4482 
Q 254.059578 77.715692 253.814245 77.715692 
Q 253.25987 77.715692 252.936088 70.133997 
Q 252.612306 62.552302 252.612306 49.586673 
Q 252.612306 36.469876 252.941793 28.946322 
Q 253.271756 21.422769 253.845625 21.422769 
Q 254.06671 21.422769 254.269252 22.446065 
Q 254.472269 23.457733 254.651989 25.457812 
L 254.651989 36.679186 
Q 254.466564 34.109317 254.28304 32.841825 
Q 254.099516 31.562705 253.915041 31.562705 
Q 253.573667 31.562705 253.388717 36.237308 
Q 253.203767 40.900283 253.203767 49.586673 
Q 253.203767 58.191665 253.382061 62.889525 
Q 253.560355 67.575757 253.888416 67.575757 
Q 253.9778 67.575757 254.054348 67.308304 
Q 254.130895 67.029223 254.191753 66.447805 
L 254.191753 55.912505 
L 253.842297 55.912505 
L 253.842297 46.528413 
L 254.733767 46.528413 
L 254.733767 72.622468 
z
" clip-path="url(#pc57260ac58)" style="fill: #ffa600"/>
   </g>
   <g id="patch_146">
    <path d="M 256.31496 124.963693 
L 255.499081 124.963693 
L 255.370258 128.16 
L 254.845423 128.16 
L 255.594939 110.614154 
L 256.217367 110.614154 
L 256.966883 128.16 
L 256.442482 128.16 
L 256.31496 124.963693 
z
M 255.629205 121.70722 
L 256.183535 121.70722 
L 255.906804 114.727989 
L 255.629205 121.70722 
z
" clip-path="url(#pc57260ac58)" style="fill: #008000"/>
   </g>
   <g id="patch_147">
    <path d="M 256.966883 108.519538 
Q 256.752931 109.566846 256.522813 110.092891 
Q 256.292694 110.614154 256.047362 110.614154 
Q 255.492986 110.614154 255.169205 107.496141 
Q 254.845423 104.378128 254.845423 99.045943 
Q 254.845423 93.651589 255.17491 90.557487 
Q 255.504873 87.463385 256.078742 87.463385 
Q 256.299826 87.463385 256.502368 87.884221 
Q 256.705386 88.300275 256.885106 89.122818 
L 256.885106 93.737669 
Q 256.69968 92.680796 256.516156 92.159533 
Q 256.332632 91.633488 256.148157 91.633488 
Q 255.806784 91.633488 255.621834 93.555944 
Q 255.436883 95.473618 255.436883 99.045943 
Q 255.436883 102.584792 255.615177 104.516812 
Q 255.793471 106.44405 256.121532 106.44405 
Q 256.210917 106.44405 256.287464 106.334059 
Q 256.364012 106.219286 256.42487 105.980174 
L 256.42487 101.647475 
L 256.075414 101.647475 
L 256.075414 97.788216 
L 256.966883 97.788216 
L 256.966883 108.519538 
z
" clip-path="url(#pc57260ac58)" style="fill: #ffa600"/>
   </g>
   <g id="patch_148">
    <path d="M 254.845423 61.875692 
L 256.966883 61.875692 
L 256.966883 66.866005 
L 256.203651 66.866005 
L 256.203651 87.463385 
L 255.610135 87.463385 
L 255.610135 66.866005 
L 254.845423 66.866005 
L 254.845423 61.875692 
z
" clip-path="url(#pc57260ac58)" style="fill: #ff0000"/>
   </g>
   <g id="patch_149">
    <path d="M 256.966883 58.976051 
Q 256.789427 60.413337 256.597539 61.140337 
Q 256.40565 61.875692 256.196658 61.875692 
Q 255.573422 61.875692 255.209422 56.427375 
Q 254.845423 50.979057 254.845423 41.661765 
Q 254.845423 32.311048 255.209422 26.871087 
Q 255.573422 21.422769 256.196658 21.422769 
Q 256.40565 21.422769 256.597539 22.158125 
Q 256.789427 22.885124 256.966883 24.322411 
L 256.966883 32.386255 
Q 256.787823 30.481015 256.614108 29.595246 
Q 256.440393 28.709476 256.248505 28.709476 
Q 255.904282 28.709476 255.707049 32.160635 
Q 255.51035 35.603437 255.51035 41.661765 
Q 255.51035 47.695025 255.707049 51.146183 
Q 255.904282 54.588985 256.248505 54.588985 
Q 256.440393 54.588985 256.614108 53.703216 
Q 256.787823 52.80909 256.966883 50.90385 
L 256.966883 58.976051 
z
" clip-path="url(#pc57260ac58)" style="fill: #0000ff"/>
   </g>
   <g id="patch_150">
    <path d="M 259.2 126.745115 
Q 259.022543 127.446441 258.830655 127.801182 
Q 258.638767 128.16 258.429775 128.16 
Q 257.806539 128.16 257.442539 125.501484 
Q 257.078539 122.842967 257.078539 118.296578 
Q 257.078539 113.733879 257.442539 111.07944 
Q 257.806539 108.420923 258.429775 108.420923 
Q 258.638767 108.420923 258.830655 108.779741 
Q 259.022543 109.134482 259.2 109.835808 
L 259.2 113.770576 
Q 259.02094 112.840911 258.847225 112.408698 
Q 258.67351 111.976485 258.481622 111.976485 
Q 258.137399 111.976485 257.940166 113.660484 
Q 257.743467 115.340405 257.743467 118.296578 
Q 257.743467 121.240518 257.940166 122.924517 
Q 258.137399 124.604438 258.481622 124.604438 
Q 258.67351 124.604438 258.847225 124.172225 
Q 259.02094 123.735935 259.2 122.80627 
L 259.2 126.745115 
z
" clip-path="url(#pc57260ac58)" style="fill: #0000ff"/>
   </g>
   <g id="patch_151">
    <path d="M 259.2 106.612939 
Q 258.986047 107.516931 258.755929 107.970991 
Q 258.525811 108.420923 258.280478 108.420923 
Q 257.726103 108.420923 257.402321 105.729585 
Q 257.078539 103.038248 257.078539 98.43573 
Q 257.078539 93.779551 257.408027 91.108852 
Q 257.737989 88.438154 258.311858 88.438154 
Q 258.532943 88.438154 258.735485 88.801402 
Q 258.938502 89.160522 259.118222 89.870507 
L 259.118222 93.853852 
Q 258.932797 92.941604 258.749273 92.491672 
Q 258.565749 92.037612 258.381274 92.037612 
Q 258.0399 92.037612 257.85495 93.696995 
Q 257.67 95.35225 257.67 98.43573 
Q 257.67 101.490316 257.848294 103.157955 
Q 258.026588 104.821465 258.354649 104.821465 
Q 258.444033 104.821465 258.520581 104.726526 
Q 258.597129 104.627458 258.657986 104.421067 
L 258.657986 100.681263 
L 258.30853 100.681263 
L 258.30853 97.350114 
L 259.2 97.350114 
L 259.2 106.612939 
z
" clip-path="url(#pc57260ac58)" style="fill: #ffa600"/>
   </g>
   <g id="patch_152">
    <path d="M 257.078539 60.657231 
L 259.2 60.657231 
L 259.2 66.075285 
L 258.436768 66.075285 
L 258.436768 88.438154 
L 257.843252 88.438154 
L 257.843252 66.075285 
L 257.078539 66.075285 
L 257.078539 60.657231 
z
" clip-path="url(#pc57260ac58)" style="fill: #ff0000"/>
   </g>
   <g id="patch_153">
    <path d="M 258.548077 53.509933 
L 257.732197 53.509933 
L 257.603374 60.657231 
L 257.078539 60.657231 
L 257.828056 21.422769 
L 258.450484 21.422769 
L 259.2 60.657231 
L 258.675599 60.657231 
L 258.548077 53.509933 
z
M 257.862322 46.228097 
L 258.416651 46.228097 
L 258.13992 30.621762 
L 257.862322 46.228097 
z
" clip-path="url(#pc57260ac58)" style="fill: #008000"/>
   </g>
  </g>
 </g>
 <defs>
  <clipPath id="pc57260ac58">
   <rect x="36" y="17.28" width="223.2" height="110.88"/>
  </clipPath>
 </defs>
</svg>
