<?xml version="1.0" encoding="utf-8" standalone="no"?>
<!DOCTYPE svg PUBLIC "-//W3C//DTD SVG 1.1//EN"
  "http://www.w3.org/Graphics/SVG/1.1/DTD/svg11.dtd">
<svg xmlns:xlink="http://www.w3.org/1999/xlink" width="288pt" height="144pt" viewBox="0 0 288 144" xmlns="http://www.w3.org/2000/svg" version="1.1">
 <metadata>
  <rdf:RDF xmlns:dc="http://purl.org/dc/elements/1.1/" xmlns:cc="http://creativecommons.org/ns#" xmlns:rdf="http://www.w3.org/1999/02/22-rdf-syntax-ns#">
   <cc:Work>
    <dc:type rdf:resource="http://purl.org/dc/dcmitype/StillImage"/>
    <dc:date>2024-11-11T17:03:44.343099</dc:date>
    <dc:format>image/svg+xml</dc:format>
    <dc:creator>
     <cc:Agent>
      <dc:title>Matplotlib v3.9.2, https://matplotlib.org/</dc:title>
     </cc:Agent>
    </dc:creator>
   </cc:Work>
  </rdf:RDF>
 </metadata>
 <defs>
  <style type="text/css">*{stroke-linejoin: round; stroke-linecap: butt}</style>
 </defs>
 <g id="figure_1">
  <g id="patch_1">
   <path d="M 0 144 
L 288 144 
L 288 0 
L 0 0 
z
" style="fill: #ffffff"/>
  </g>
  <g id="axes_1">
   <g id="line2d_1">
    <path d="M 36 128.16 
L 259.2 128.16 
" clip-path="url(#pff94608502)" style="fill: none; stroke: #000000; stroke-width: 0.5; stroke-linecap: square"/>
   </g>
   <g id="patch_2">
    <path d="M 38.121461 128.120812 
Q 37.907508 128.140406 37.67739 128.150248 
Q 37.447272 128.16 37.201939 128.16 
Q 36.647564 128.16 36.323782 128.101665 
Q 36 128.043331 36 127.943572 
Q 36 127.842649 36.329487 127.784762 
Q 36.65945 127.726875 37.233319 127.726875 
Q 37.454403 127.726875 37.656945 127.734748 
Q 37.859963 127.742532 38.039683 127.757921 
L 38.039683 127.84426 
Q 37.854257 127.824487 37.670734 127.814735 
Q 37.48721 127.804893 37.302735 127.804893 
Q 36.961361 127.804893 36.776411 127.84086 
Q 36.591461 127.876738 36.591461 127.943572 
Q 36.591461 128.00978 36.769755 128.045926 
Q 36.948049 128.081982 37.27611 128.081982 
Q 37.365494 128.081982 37.442042 128.079924 
Q 37.518589 128.077777 37.579447 128.073303 
L 37.579447 127.992243 
L 37.229991 127.992243 
L 37.229991 127.920041 
L 38.121461 127.920041 
L 38.121461 128.120812 
z
" clip-path="url(#pff94608502)" style="fill: #ffa600"/>
   </g>
   <g id="patch_3">
    <path d="M 36 126.860625 
L 38.121461 126.860625 
L 38.121461 127.029568 
L 37.358228 127.029568 
L 37.358228 127.726875 
L 36.764713 127.726875 
L 36.764713 127.029568 
L 36 127.029568 
L 36 126.860625 
z
" clip-path="url(#pff94608502)" style="fill: #ff0000"/>
   </g>
   <g id="patch_4">
    <path d="M 38.121461 124.501118 
Q 37.944004 125.670672 37.752116 126.262249 
Q 37.560228 126.860625 37.351235 126.860625 
Q 36.727999 126.860625 36.364 122.4272 
Q 36 117.993775 36 110.412075 
Q 36 102.803175 36.364 98.37655 
Q 36.727999 93.943125 37.351235 93.943125 
Q 37.560228 93.943125 37.752116 94.541501 
Q 37.944004 95.133078 38.121461 96.302632 
L 38.121461 102.864373 
Q 37.942401 101.314034 37.768686 100.593262 
Q 37.594971 99.872491 37.403082 99.872491 
Q 37.05886 99.872491 36.861626 102.68078 
Q 36.664927 105.482269 36.664927 110.412075 
Q 36.664927 115.321481 36.861626 118.12977 
Q 37.05886 120.931259 37.403082 120.931259 
Q 37.594971 120.931259 37.768686 120.210488 
Q 37.942401 119.482916 38.121461 117.932578 
L 38.121461 124.501118 
z
" clip-path="url(#pff94608502)" style="fill: #0000ff"/>
   </g>
   <g id="patch_5">
    <path d="M 40.354577 128.128954 
Q 40.177121 128.144343 39.985233 128.152127 
Q 39.793344 128.16 39.584352 128.16 
Q 38.961116 128.16 38.597116 128.101665 
Q 38.233117 128.043331 38.233117 127.943572 
Q 38.233117 127.843455 38.597116 127.78521 
Q 38.961116 127.726875 39.584352 127.726875 
Q 39.793344 127.726875 39.985233 127.734748 
Q 40.177121 127.742532 40.354577 127.757921 
L 40.354577 127.84426 
Q 40.175517 127.823861 40.001802 127.814377 
Q 39.828087 127.804893 39.636199 127.804893 
Q 39.291976 127.804893 39.094743 127.841844 
Q 38.898044 127.878706 38.898044 127.943572 
Q 38.898044 128.008169 39.094743 128.04512 
Q 39.291976 128.081982 39.636199 128.081982 
Q 39.828087 128.081982 40.001802 128.072498 
Q 40.175517 128.062925 40.354577 128.042526 
L 40.354577 128.128954 
z
" clip-path="url(#pff94608502)" style="fill: #0000ff"/>
   </g>
   <g id="patch_6">
    <path d="M 39.702654 107.606891 
L 38.886775 107.606891 
L 38.757951 127.726875 
L 38.233117 127.726875 
L 38.982633 17.28 
L 39.605061 17.28 
L 40.354577 127.726875 
L 39.830176 127.726875 
L 39.702654 107.606891 
z
M 39.016899 87.108179 
L 39.571229 87.108179 
L 39.294498 43.175602 
L 39.016899 87.108179 
z
" clip-path="url(#pff94608502)" style="fill: #008000"/>
   </g>
   <g id="patch_7">
    <path d="M 41.935771 107.961114 
L 41.119891 107.961114 
L 40.991068 128.16 
L 40.466233 128.16 
L 41.215749 17.28 
L 41.838178 17.28 
L 42.587694 128.16 
L 42.063293 128.16 
L 41.935771 107.961114 
z
M 41.250015 87.382015 
L 41.804345 87.382015 
L 41.527614 43.277154 
L 41.250015 87.382015 
z
" clip-path="url(#pff94608502)" style="fill: #008000"/>
   </g>
   <g id="patch_8">
    <path d="M 44.168887 107.961114 
L 43.353008 107.961114 
L 43.224185 128.16 
L 42.69935 128.16 
L 43.448866 17.28 
L 44.071294 17.28 
L 44.82081 128.16 
L 44.296409 128.16 
L 44.168887 107.961114 
z
M 43.483132 87.382015 
L 44.037462 87.382015 
L 43.760731 43.277154 
L 43.483132 87.382015 
z
" clip-path="url(#pff94608502)" style="fill: #008000"/>
   </g>
   <g id="patch_9">
    <path d="M 44.932466 17.28 
L 47.053927 17.28 
L 47.053927 38.904689 
L 46.290694 38.904689 
L 46.290694 128.16 
L 45.697179 128.16 
L 45.697179 38.904689 
L 44.932466 38.904689 
L 44.932466 17.28 
z
" clip-path="url(#pff94608502)" style="fill: #ff0000"/>
   </g>
   <g id="patch_10">
    <path d="M 48.635121 107.961114 
L 47.819241 107.961114 
L 47.690418 128.16 
L 47.165583 128.16 
L 47.915099 17.28 
L 48.537527 17.28 
L 49.287044 128.16 
L 48.762642 128.16 
L 48.635121 107.961114 
z
M 47.949365 87.382015 
L 48.503695 87.382015 
L 48.226964 43.277154 
L 47.949365 87.382015 
z
" clip-path="url(#pff94608502)" style="fill: #008000"/>
   </g>
   <g id="patch_11">
    <path d="M 50.868237 107.961114 
L 50.052357 107.961114 
L 49.923534 128.16 
L 49.398699 128.16 
L 50.148216 17.28 
L 50.770644 17.28 
L 51.52016 128.16 
L 50.995759 128.16 
L 50.868237 107.961114 
z
M 50.182482 87.382015 
L 50.736811 87.382015 
L 50.46008 43.277154 
L 50.182482 87.382015 
z
" clip-path="url(#pff94608502)" style="fill: #008000"/>
   </g>
   <g id="patch_12">
    <path d="M 51.631816 17.28 
L 53.753277 17.28 
L 53.753277 38.904689 
L 52.990044 38.904689 
L 52.990044 128.16 
L 52.396528 128.16 
L 52.396528 38.904689 
L 51.631816 38.904689 
L 51.631816 17.28 
z
" clip-path="url(#pff94608502)" style="fill: #ff0000"/>
   </g>
   <g id="patch_13">
    <path d="M 55.986393 118.127891 
Q 55.77244 123.143945 55.542322 125.663425 
Q 55.312204 128.16 55.066872 128.16 
Q 54.512496 128.16 54.188714 113.226358 
Q 53.864932 98.292716 53.864932 72.754357 
Q 53.864932 46.91824 54.19442 32.09912 
Q 54.524382 17.28 55.098251 17.28 
Q 55.319336 17.28 55.521878 19.295584 
Q 55.724895 21.288263 55.904616 25.227812 
L 55.904616 47.330518 
Q 55.71919 42.268655 55.535666 39.77208 
Q 55.352142 37.252601 55.167667 37.252601 
Q 54.826294 37.252601 54.641343 46.460153 
Q 54.456393 55.644801 54.456393 72.754357 
Q 54.456393 89.703582 54.634687 98.956943 
Q 54.812981 108.187399 55.141042 108.187399 
Q 55.230427 108.187399 55.306974 107.660599 
Q 55.383522 107.110894 55.444379 105.965677 
L 55.444379 85.214328 
L 55.094923 85.214328 
L 55.094923 66.73051 
L 55.986393 66.73051 
L 55.986393 118.127891 
z
" clip-path="url(#pff94608502)" style="fill: #ffa600"/>
   </g>
   <g id="patch_14">
    <path d="M 57.567587 107.961114 
L 56.751707 107.961114 
L 56.622884 128.16 
L 56.098049 128.16 
L 56.847565 17.28 
L 57.469993 17.28 
L 58.21951 128.16 
L 57.695109 128.16 
L 57.567587 107.961114 
z
M 56.881831 87.382015 
L 57.436161 87.382015 
L 57.15943 43.277154 
L 56.881831 87.382015 
z
" clip-path="url(#pff94608502)" style="fill: #008000"/>
   </g>
   <g id="patch_15">
    <path d="M 58.331166 17.28 
L 60.452626 17.28 
L 60.452626 38.904689 
L 59.689394 38.904689 
L 59.689394 128.16 
L 59.095878 128.16 
L 59.095878 38.904689 
L 58.331166 38.904689 
L 58.331166 17.28 
z
" clip-path="url(#pff94608502)" style="fill: #ff0000"/>
   </g>
   <g id="patch_16">
    <path d="M 60.564282 17.28 
L 62.685743 17.28 
L 62.685743 38.904689 
L 61.92251 38.904689 
L 61.92251 128.16 
L 61.328995 128.16 
L 61.328995 38.904689 
L 60.564282 38.904689 
L 60.564282 17.28 
z
" clip-path="url(#pff94608502)" style="fill: #ff0000"/>
   </g>
   <g id="patch_17">
    <path d="M 62.797399 17.28 
L 64.918859 17.28 
L 64.918859 38.904689 
L 64.155627 38.904689 
L 64.155627 128.16 
L 63.562111 128.16 
L 63.562111 38.904689 
L 62.797399 38.904689 
L 62.797399 17.28 
z
" clip-path="url(#pff94608502)" style="fill: #ff0000"/>
   </g>
   <g id="patch_18">
    <path d="M 65.030515 17.28 
L 67.151976 17.28 
L 67.151976 38.904689 
L 66.388743 38.904689 
L 66.388743 128.16 
L 65.795228 128.16 
L 65.795228 38.904689 
L 65.030515 38.904689 
L 65.030515 17.28 
z
" clip-path="url(#pff94608502)" style="fill: #ff0000"/>
   </g>
   <g id="patch_19">
    <path d="M 68.73317 107.961114 
L 67.91729 107.961114 
L 67.788467 128.16 
L 67.263632 128.16 
L 68.013148 17.28 
L 68.635576 17.28 
L 69.385093 128.16 
L 68.860691 128.16 
L 68.73317 107.961114 
z
M 68.047414 87.382015 
L 68.601744 87.382015 
L 68.325013 43.277154 
L 68.047414 87.382015 
z
" clip-path="url(#pff94608502)" style="fill: #008000"/>
   </g>
   <g id="patch_20">
    <path d="M 69.496748 17.28 
L 71.618209 17.28 
L 71.618209 38.904689 
L 70.854977 38.904689 
L 70.854977 128.16 
L 70.261461 128.16 
L 70.261461 38.904689 
L 69.496748 38.904689 
L 69.496748 17.28 
z
" clip-path="url(#pff94608502)" style="fill: #ff0000"/>
   </g>
   <g id="patch_21">
    <path d="M 71.729865 17.28 
L 73.851326 17.28 
L 73.851326 38.904689 
L 73.088093 38.904689 
L 73.088093 128.16 
L 72.494578 128.16 
L 72.494578 38.904689 
L 71.729865 38.904689 
L 71.729865 17.28 
z
" clip-path="url(#pff94608502)" style="fill: #ff0000"/>
   </g>
   <g id="patch_22">
    <path d="M 73.962981 17.28 
L 76.084442 17.28 
L 76.084442 38.904689 
L 75.32121 38.904689 
L 75.32121 128.16 
L 74.727694 128.16 
L 74.727694 38.904689 
L 73.962981 38.904689 
L 73.962981 17.28 
z
" clip-path="url(#pff94608502)" style="fill: #ff0000"/>
   </g>
   <g id="patch_23">
    <path d="M 76.196098 17.28 
L 78.317559 17.28 
L 78.317559 38.904689 
L 77.554326 38.904689 
L 77.554326 128.16 
L 76.960811 128.16 
L 76.960811 38.904689 
L 76.196098 38.904689 
L 76.196098 17.28 
z
" clip-path="url(#pff94608502)" style="fill: #ff0000"/>
   </g>
   <g id="patch_24">
    <path d="M 80.550675 118.127891 
Q 80.336723 123.143945 80.106604 125.663425 
Q 79.876486 128.16 79.631154 128.16 
Q 79.076778 128.16 78.752996 113.226358 
Q 78.429215 98.292716 78.429215 72.754357 
Q 78.429215 46.91824 78.758702 32.09912 
Q 79.088665 17.28 79.662534 17.28 
Q 79.883618 17.28 80.08616 19.295584 
Q 80.289177 21.288263 80.468898 25.227812 
L 80.468898 47.330518 
Q 80.283472 42.268655 80.099948 39.77208 
Q 79.916424 37.252601 79.731949 37.252601 
Q 79.390576 37.252601 79.205625 46.460153 
Q 79.020675 55.644801 79.020675 72.754357 
Q 79.020675 89.703582 79.198969 98.956943 
Q 79.377263 108.187399 79.705324 108.187399 
Q 79.794709 108.187399 79.871256 107.660599 
Q 79.947804 107.110894 80.008662 105.965677 
L 80.008662 85.214328 
L 79.659205 85.214328 
L 79.659205 66.73051 
L 80.550675 66.73051 
L 80.550675 118.127891 
z
" clip-path="url(#pff94608502)" style="fill: #ffa600"/>
   </g>
   <g id="patch_25">
    <path d="M 82.131869 107.961114 
L 81.315989 107.961114 
L 81.187166 128.16 
L 80.662331 128.16 
L 81.411847 17.28 
L 82.034276 17.28 
L 82.783792 128.16 
L 82.259391 128.16 
L 82.131869 107.961114 
z
M 81.446114 87.382015 
L 82.000443 87.382015 
L 81.723712 43.277154 
L 81.446114 87.382015 
z
" clip-path="url(#pff94608502)" style="fill: #008000"/>
   </g>
   <g id="patch_26">
    <path d="M 85.016908 120.212188 
Q 84.839452 124.151737 84.647564 126.144416 
Q 84.455675 128.16 84.246683 128.16 
Q 83.623447 128.16 83.259447 113.226358 
Q 82.895448 98.292716 82.895448 72.754357 
Q 82.895448 47.124379 83.259447 32.213642 
Q 83.623447 17.28 84.246683 17.28 
Q 84.455675 17.28 84.647564 19.295584 
Q 84.839452 21.288263 85.016908 25.227812 
L 85.016908 47.330518 
Q 84.837848 42.108325 84.664133 39.680463 
Q 84.490418 37.252601 84.29853 37.252601 
Q 83.954307 37.252601 83.757074 46.712101 
Q 83.560375 56.148697 83.560375 72.754357 
Q 83.560375 89.291303 83.757074 98.750804 
Q 83.954307 108.187399 84.29853 108.187399 
Q 84.490418 108.187399 84.664133 105.759537 
Q 84.837848 103.308771 85.016908 98.086577 
L 85.016908 120.212188 
z
" clip-path="url(#pff94608502)" style="fill: #0000ff"/>
   </g>
   <g id="patch_27">
    <path d="M 85.128564 17.28 
L 87.250025 17.28 
L 87.250025 38.904689 
L 86.486793 38.904689 
L 86.486793 128.16 
L 85.893277 128.16 
L 85.893277 38.904689 
L 85.128564 38.904689 
L 85.128564 17.28 
z
" clip-path="url(#pff94608502)" style="fill: #ff0000"/>
   </g>
   <g id="patch_28">
    <path d="M 89.483142 118.127891 
Q 89.269189 123.143945 89.039071 125.663425 
Q 88.808953 128.16 88.56362 128.16 
Q 88.009245 128.16 87.685463 113.226358 
Q 87.361681 98.292716 87.361681 72.754357 
Q 87.361681 46.91824 87.691168 32.09912 
Q 88.021131 17.28 88.595 17.28 
Q 88.816084 17.28 89.018626 19.295584 
Q 89.221644 21.288263 89.401364 25.227812 
L 89.401364 47.330518 
Q 89.215938 42.268655 89.032414 39.77208 
Q 88.84889 37.252601 88.664416 37.252601 
Q 88.323042 37.252601 88.138092 46.460153 
Q 87.953141 55.644801 87.953141 72.754357 
Q 87.953141 89.703582 88.131435 98.956943 
Q 88.309729 108.187399 88.63779 108.187399 
Q 88.727175 108.187399 88.803723 107.660599 
Q 88.88027 107.110894 88.941128 105.965677 
L 88.941128 85.214328 
L 88.591672 85.214328 
L 88.591672 66.73051 
L 89.483142 66.73051 
L 89.483142 118.127891 
z
" clip-path="url(#pff94608502)" style="fill: #ffa600"/>
   </g>
   <g id="patch_29">
    <path d="M 91.064335 107.961114 
L 90.248455 107.961114 
L 90.119632 128.16 
L 89.594797 128.16 
L 90.344314 17.28 
L 90.966742 17.28 
L 91.716258 128.16 
L 91.191857 128.16 
L 91.064335 107.961114 
z
M 90.37858 87.382015 
L 90.93291 87.382015 
L 90.656178 43.277154 
L 90.37858 87.382015 
z
" clip-path="url(#pff94608502)" style="fill: #008000"/>
   </g>
   <g id="patch_30">
    <path d="M 91.827914 17.28 
L 93.949375 17.28 
L 93.949375 38.904689 
L 93.186142 38.904689 
L 93.186142 128.16 
L 92.592627 128.16 
L 92.592627 38.904689 
L 91.827914 38.904689 
L 91.827914 17.28 
z
" clip-path="url(#pff94608502)" style="fill: #ff0000"/>
   </g>
   <g id="patch_31">
    <path d="M 95.530568 107.961114 
L 94.714689 107.961114 
L 94.585865 128.16 
L 94.061031 128.16 
L 94.810547 17.28 
L 95.432975 17.28 
L 96.182491 128.16 
L 95.65809 128.16 
L 95.530568 107.961114 
z
M 94.844813 87.382015 
L 95.399143 87.382015 
L 95.122412 43.277154 
L 94.844813 87.382015 
z
" clip-path="url(#pff94608502)" style="fill: #008000"/>
   </g>
   <g id="patch_32">
    <path d="M 98.415608 118.127891 
Q 98.201655 123.143945 97.971537 125.663425 
Q 97.741419 128.16 97.496086 128.16 
Q 96.941711 128.16 96.617929 113.226358 
Q 96.294147 98.292716 96.294147 72.754357 
Q 96.294147 46.91824 96.623634 32.09912 
Q 96.953597 17.28 97.527466 17.28 
Q 97.748551 17.28 97.951093 19.295584 
Q 98.15411 21.288263 98.33383 25.227812 
L 98.33383 47.330518 
Q 98.148405 42.268655 97.964881 39.77208 
Q 97.781357 37.252601 97.596882 37.252601 
Q 97.255508 37.252601 97.070558 46.460153 
Q 96.885608 55.644801 96.885608 72.754357 
Q 96.885608 89.703582 97.063902 98.956943 
Q 97.242196 108.187399 97.570257 108.187399 
Q 97.659641 108.187399 97.736189 107.660599 
Q 97.812736 107.110894 97.873594 105.965677 
L 97.873594 85.214328 
L 97.524138 85.214328 
L 97.524138 66.73051 
L 98.415608 66.73051 
L 98.415608 118.127891 
z
" clip-path="url(#pff94608502)" style="fill: #ffa600"/>
   </g>
   <g id="patch_33">
    <path d="M 98.527264 17.28 
L 100.648724 17.28 
L 100.648724 38.904689 
L 99.885492 38.904689 
L 99.885492 128.16 
L 99.291976 128.16 
L 99.291976 38.904689 
L 98.527264 38.904689 
L 98.527264 17.28 
z
" clip-path="url(#pff94608502)" style="fill: #ff0000"/>
   </g>
   <g id="patch_34">
    <path d="M 102.881841 118.127891 
Q 102.667888 123.143945 102.43777 125.663425 
Q 102.207652 128.16 101.962319 128.16 
Q 101.407944 128.16 101.084162 113.226358 
Q 100.76038 98.292716 100.76038 72.754357 
Q 100.76038 46.91824 101.089867 32.09912 
Q 101.41983 17.28 101.993699 17.28 
Q 102.214784 17.28 102.417326 19.295584 
Q 102.620343 21.288263 102.800063 25.227812 
L 102.800063 47.330518 
Q 102.614638 42.268655 102.431114 39.77208 
Q 102.24759 37.252601 102.063115 37.252601 
Q 101.721741 37.252601 101.536791 46.460153 
Q 101.351841 55.644801 101.351841 72.754357 
Q 101.351841 89.703582 101.530135 98.956943 
Q 101.708429 108.187399 102.03649 108.187399 
Q 102.125874 108.187399 102.202422 107.660599 
Q 102.27897 107.110894 102.339827 105.965677 
L 102.339827 85.214328 
L 101.990371 85.214328 
L 101.990371 66.73051 
L 102.881841 66.73051 
L 102.881841 118.127891 
z
" clip-path="url(#pff94608502)" style="fill: #ffa600"/>
   </g>
   <g id="patch_35">
    <path d="M 104.463034 107.961114 
L 103.647155 107.961114 
L 103.518332 128.16 
L 102.993497 128.16 
L 103.743013 17.28 
L 104.365441 17.28 
L 105.114957 128.16 
L 104.590556 128.16 
L 104.463034 107.961114 
z
M 103.777279 87.382015 
L 104.331609 87.382015 
L 104.054878 43.277154 
L 103.777279 87.382015 
z
" clip-path="url(#pff94608502)" style="fill: #008000"/>
   </g>
   <g id="patch_36">
    <path d="M 107.348074 120.212188 
Q 107.170618 124.151737 106.978729 126.144416 
Q 106.786841 128.16 106.577849 128.16 
Q 105.954613 128.16 105.590613 113.226358 
Q 105.226613 98.292716 105.226613 72.754357 
Q 105.226613 47.124379 105.590613 32.213642 
Q 105.954613 17.28 106.577849 17.28 
Q 106.786841 17.28 106.978729 19.295584 
Q 107.170618 21.288263 107.348074 25.227812 
L 107.348074 47.330518 
Q 107.169014 42.108325 106.995299 39.680463 
Q 106.821584 37.252601 106.629696 37.252601 
Q 106.285473 37.252601 106.08824 46.712101 
Q 105.891541 56.148697 105.891541 72.754357 
Q 105.891541 89.291303 106.08824 98.750804 
Q 106.285473 108.187399 106.629696 108.187399 
Q 106.821584 108.187399 106.995299 105.759537 
Q 107.169014 103.308771 107.348074 98.086577 
L 107.348074 120.212188 
z
" clip-path="url(#pff94608502)" style="fill: #0000ff"/>
   </g>
   <g id="patch_37">
    <path d="M 109.581191 120.212188 
Q 109.403734 124.151737 109.211846 126.144416 
Q 109.019958 128.16 108.810965 128.16 
Q 108.187729 128.16 107.82373 113.226358 
Q 107.45973 98.292716 107.45973 72.754357 
Q 107.45973 47.124379 107.82373 32.213642 
Q 108.187729 17.28 108.810965 17.28 
Q 109.019958 17.28 109.211846 19.295584 
Q 109.403734 21.288263 109.581191 25.227812 
L 109.581191 47.330518 
Q 109.402131 42.108325 109.228416 39.680463 
Q 109.054701 37.252601 108.862812 37.252601 
Q 108.518589 37.252601 108.321356 46.712101 
Q 108.124657 56.148697 108.124657 72.754357 
Q 108.124657 89.291303 108.321356 98.750804 
Q 108.518589 108.187399 108.862812 108.187399 
Q 109.054701 108.187399 109.228416 105.759537 
Q 109.402131 103.308771 109.581191 98.086577 
L 109.581191 120.212188 
z
" clip-path="url(#pff94608502)" style="fill: #0000ff"/>
   </g>
   <g id="patch_38">
    <path d="M 109.692846 17.28 
L 111.814307 17.28 
L 111.814307 38.904689 
L 111.051075 38.904689 
L 111.051075 128.16 
L 110.457559 128.16 
L 110.457559 38.904689 
L 109.692846 38.904689 
L 109.692846 17.28 
z
" clip-path="url(#pff94608502)" style="fill: #ff0000"/>
   </g>
   <g id="patch_39">
    <path d="M 114.047424 118.127891 
Q 113.833471 123.143945 113.603353 125.663425 
Q 113.373235 128.16 113.127902 128.16 
Q 112.573527 128.16 112.249745 113.226358 
Q 111.925963 98.292716 111.925963 72.754357 
Q 111.925963 46.91824 112.25545 32.09912 
Q 112.585413 17.28 113.159282 17.28 
Q 113.380366 17.28 113.582908 19.295584 
Q 113.785926 21.288263 113.965646 25.227812 
L 113.965646 47.330518 
Q 113.78022 42.268655 113.596697 39.77208 
Q 113.413173 37.252601 113.228698 37.252601 
Q 112.887324 37.252601 112.702374 46.460153 
Q 112.517424 55.644801 112.517424 72.754357 
Q 112.517424 89.703582 112.695718 98.956943 
Q 112.874012 108.187399 113.202072 108.187399 
Q 113.291457 108.187399 113.368005 107.660599 
Q 113.444552 107.110894 113.50541 105.965677 
L 113.50541 85.214328 
L 113.155954 85.214328 
L 113.155954 66.73051 
L 114.047424 66.73051 
L 114.047424 118.127891 
z
" clip-path="url(#pff94608502)" style="fill: #ffa600"/>
   </g>
   <g id="patch_40">
    <path d="M 114.15908 17.28 
L 116.28054 17.28 
L 116.28054 38.904689 
L 115.517308 38.904689 
L 115.517308 128.16 
L 114.923792 128.16 
L 114.923792 38.904689 
L 114.15908 38.904689 
L 114.15908 17.28 
z
" clip-path="url(#pff94608502)" style="fill: #ff0000"/>
   </g>
   <g id="patch_41">
    <path d="M 117.861734 128.081098 
L 117.045854 128.081098 
L 116.917031 128.16 
L 116.392196 128.16 
L 117.141712 127.726875 
L 117.764141 127.726875 
L 118.513657 128.16 
L 117.989256 128.16 
L 117.861734 128.081098 
z
M 117.175978 128.000711 
L 117.730308 128.000711 
L 117.453577 127.828426 
L 117.175978 128.000711 
z
" clip-path="url(#pff94608502)" style="fill: #008000"/>
   </g>
   <g id="patch_42">
    <path d="M 116.392196 17.28 
L 118.513657 17.28 
L 118.513657 38.820218 
L 117.750424 38.820218 
L 117.750424 127.726875 
L 117.156909 127.726875 
L 117.156909 38.820218 
L 116.392196 38.820218 
L 116.392196 17.28 
z
" clip-path="url(#pff94608502)" style="fill: #ff0000"/>
   </g>
   <g id="patch_43">
    <path d="M 120.746773 120.212188 
Q 120.569317 124.151737 120.377429 126.144416 
Q 120.18554 128.16 119.976548 128.16 
Q 119.353312 128.16 118.989312 113.226358 
Q 118.625313 98.292716 118.625313 72.754357 
Q 118.625313 47.124379 118.989312 32.213642 
Q 119.353312 17.28 119.976548 17.28 
Q 120.18554 17.28 120.377429 19.295584 
Q 120.569317 21.288263 120.746773 25.227812 
L 120.746773 47.330518 
Q 120.567713 42.108325 120.393998 39.680463 
Q 120.220283 37.252601 120.028395 37.252601 
Q 119.684172 37.252601 119.486939 46.712101 
Q 119.29024 56.148697 119.29024 72.754357 
Q 119.29024 89.291303 119.486939 98.750804 
Q 119.684172 108.187399 120.028395 108.187399 
Q 120.220283 108.187399 120.393998 105.759537 
Q 120.567713 103.308771 120.746773 98.086577 
L 120.746773 120.212188 
z
" clip-path="url(#pff94608502)" style="fill: #0000ff"/>
   </g>
   <g id="patch_44">
    <path d="M 122.97989 118.127891 
Q 122.765937 123.143945 122.535819 125.663425 
Q 122.305701 128.16 122.060368 128.16 
Q 121.505993 128.16 121.182211 113.226358 
Q 120.858429 98.292716 120.858429 72.754357 
Q 120.858429 46.91824 121.187917 32.09912 
Q 121.517879 17.28 122.091748 17.28 
Q 122.312833 17.28 122.515375 19.295584 
Q 122.718392 21.288263 122.898112 25.227812 
L 122.898112 47.330518 
Q 122.712687 42.268655 122.529163 39.77208 
Q 122.345639 37.252601 122.161164 37.252601 
Q 121.81979 37.252601 121.63484 46.460153 
Q 121.44989 55.644801 121.44989 72.754357 
Q 121.44989 89.703582 121.628184 98.956943 
Q 121.806478 108.187399 122.134539 108.187399 
Q 122.223923 108.187399 122.300471 107.660599 
Q 122.377019 107.110894 122.437876 105.965677 
L 122.437876 85.214328 
L 122.08842 85.214328 
L 122.08842 66.73051 
L 122.97989 66.73051 
L 122.97989 118.127891 
z
" clip-path="url(#pff94608502)" style="fill: #ffa600"/>
   </g>
   <g id="patch_45">
    <path d="M 123.091546 17.28 
L 125.213007 17.28 
L 125.213007 38.904689 
L 124.449774 38.904689 
L 124.449774 128.16 
L 123.856258 128.16 
L 123.856258 38.904689 
L 123.091546 38.904689 
L 123.091546 17.28 
z
" clip-path="url(#pff94608502)" style="fill: #ff0000"/>
   </g>
   <g id="patch_46">
    <path d="M 127.446123 128.128954 
Q 127.268667 128.144343 127.076778 128.152127 
Q 126.88489 128.16 126.675898 128.16 
Q 126.052662 128.16 125.688662 128.101665 
Q 125.324662 128.043331 125.324662 127.943572 
Q 125.324662 127.843455 125.688662 127.78521 
Q 126.052662 127.726875 126.675898 127.726875 
Q 126.88489 127.726875 127.076778 127.734748 
Q 127.268667 127.742532 127.446123 127.757921 
L 127.446123 127.84426 
Q 127.267063 127.823861 127.093348 127.814377 
Q 126.919633 127.804893 126.727745 127.804893 
Q 126.383522 127.804893 126.186289 127.841844 
Q 125.98959 127.878706 125.98959 127.943572 
Q 125.98959 128.008169 126.186289 128.04512 
Q 126.383522 128.081982 126.727745 128.081982 
Q 126.919633 128.081982 127.093348 128.072498 
Q 127.267063 128.062925 127.446123 128.042526 
L 127.446123 128.128954 
z
" clip-path="url(#pff94608502)" style="fill: #0000ff"/>
   </g>
   <g id="patch_47">
    <path d="M 125.324662 17.28 
L 127.446123 17.28 
L 127.446123 38.820218 
L 126.682891 38.820218 
L 126.682891 127.726875 
L 126.089375 127.726875 
L 126.089375 38.820218 
L 125.324662 38.820218 
L 125.324662 17.28 
z
" clip-path="url(#pff94608502)" style="fill: #ff0000"/>
   </g>
   <g id="patch_48">
    <path d="M 129.67924 118.127891 
Q 129.465287 123.143945 129.235169 125.663425 
Q 129.005051 128.16 128.759718 128.16 
Q 128.205343 128.16 127.881561 113.226358 
Q 127.557779 98.292716 127.557779 72.754357 
Q 127.557779 46.91824 127.887266 32.09912 
Q 128.217229 17.28 128.791098 17.28 
Q 129.012182 17.28 129.214724 19.295584 
Q 129.417742 21.288263 129.597462 25.227812 
L 129.597462 47.330518 
Q 129.412036 42.268655 129.228512 39.77208 
Q 129.044988 37.252601 128.860514 37.252601 
Q 128.51914 37.252601 128.33419 46.460153 
Q 128.149239 55.644801 128.149239 72.754357 
Q 128.149239 89.703582 128.327533 98.956943 
Q 128.505827 108.187399 128.833888 108.187399 
Q 128.923273 108.187399 128.999821 107.660599 
Q 129.076368 107.110894 129.137226 105.965677 
L 129.137226 85.214328 
L 128.78777 85.214328 
L 128.78777 66.73051 
L 129.67924 66.73051 
L 129.67924 118.127891 
z
" clip-path="url(#pff94608502)" style="fill: #ffa600"/>
   </g>
   <g id="patch_49">
    <path d="M 131.260433 128.081098 
L 130.444553 128.081098 
L 130.31573 128.16 
L 129.790895 128.16 
L 130.540412 127.726875 
L 131.16284 127.726875 
L 131.912356 128.16 
L 131.387955 128.16 
L 131.260433 128.081098 
z
M 130.574678 128.000711 
L 131.129008 128.000711 
L 130.852276 127.828426 
L 130.574678 128.000711 
z
" clip-path="url(#pff94608502)" style="fill: #008000"/>
   </g>
   <g id="patch_50">
    <path d="M 131.912356 119.810109 
Q 131.7349 123.73427 131.543011 125.719165 
Q 131.351123 127.726875 131.142131 127.726875 
Q 130.518895 127.726875 130.154895 112.851568 
Q 129.790895 97.97626 129.790895 72.53766 
Q 129.790895 47.0078 130.154895 32.155307 
Q 130.518895 17.28 131.142131 17.28 
Q 131.351123 17.28 131.543011 19.28771 
Q 131.7349 21.272605 131.912356 25.196766 
L 131.912356 47.213134 
Q 131.733296 42.011339 131.559581 39.592961 
Q 131.385866 37.174583 131.193978 37.174583 
Q 130.849755 37.174583 130.652522 46.597132 
Q 130.455823 55.996866 130.455823 72.53766 
Q 130.455823 89.010009 130.652522 98.432558 
Q 130.849755 107.832292 131.193978 107.832292 
Q 131.385866 107.832292 131.559581 105.413914 
Q 131.733296 102.972721 131.912356 97.770926 
L 131.912356 119.810109 
z
" clip-path="url(#pff94608502)" style="fill: #0000ff"/>
   </g>
   <g id="patch_51">
    <path d="M 133.49355 107.961114 
L 132.67767 107.961114 
L 132.548847 128.16 
L 132.024012 128.16 
L 132.773528 17.28 
L 133.395956 17.28 
L 134.145473 128.16 
L 133.621072 128.16 
L 133.49355 107.961114 
z
M 132.807794 87.382015 
L 133.362124 87.382015 
L 133.085393 43.277154 
L 132.807794 87.382015 
z
" clip-path="url(#pff94608502)" style="fill: #008000"/>
   </g>
   <g id="patch_52">
    <path d="M 135.726666 107.961114 
L 134.910787 107.961114 
L 134.781963 128.16 
L 134.257129 128.16 
L 135.006645 17.28 
L 135.629073 17.28 
L 136.378589 128.16 
L 135.854188 128.16 
L 135.726666 107.961114 
z
M 135.040911 87.382015 
L 135.595241 87.382015 
L 135.31851 43.277154 
L 135.040911 87.382015 
z
" clip-path="url(#pff94608502)" style="fill: #008000"/>
   </g>
   <g id="patch_53">
    <path d="M 138.611706 120.212188 
Q 138.434249 124.151737 138.242361 126.144416 
Q 138.050473 128.16 137.84148 128.16 
Q 137.218244 128.16 136.854245 113.226358 
Q 136.490245 98.292716 136.490245 72.754357 
Q 136.490245 47.124379 136.854245 32.213642 
Q 137.218244 17.28 137.84148 17.28 
Q 138.050473 17.28 138.242361 19.295584 
Q 138.434249 21.288263 138.611706 25.227812 
L 138.611706 47.330518 
Q 138.432646 42.108325 138.258931 39.680463 
Q 138.085216 37.252601 137.893328 37.252601 
Q 137.549105 37.252601 137.351871 46.712101 
Q 137.155173 56.148697 137.155173 72.754357 
Q 137.155173 89.291303 137.351871 98.750804 
Q 137.549105 108.187399 137.893328 108.187399 
Q 138.085216 108.187399 138.258931 105.759537 
Q 138.432646 103.308771 138.611706 98.086577 
L 138.611706 120.212188 
z
" clip-path="url(#pff94608502)" style="fill: #0000ff"/>
   </g>
   <g id="patch_54">
    <path d="M 140.192899 107.961114 
L 139.37702 107.961114 
L 139.248197 128.16 
L 138.723362 128.16 
L 139.472878 17.28 
L 140.095306 17.28 
L 140.844822 128.16 
L 140.320421 128.16 
L 140.192899 107.961114 
z
M 139.507144 87.382015 
L 140.061474 87.382015 
L 139.784743 43.277154 
L 139.507144 87.382015 
z
" clip-path="url(#pff94608502)" style="fill: #008000"/>
   </g>
   <g id="patch_55">
    <path d="M 142.426016 107.961114 
L 141.610136 107.961114 
L 141.481313 128.16 
L 140.956478 128.16 
L 141.705995 17.28 
L 142.328423 17.28 
L 143.077939 128.16 
L 142.553538 128.16 
L 142.426016 107.961114 
z
M 141.740261 87.382015 
L 142.29459 87.382015 
L 142.017859 43.277154 
L 141.740261 87.382015 
z
" clip-path="url(#pff94608502)" style="fill: #008000"/>
   </g>
   <g id="patch_56">
    <path d="M 144.659133 107.961114 
L 143.843253 107.961114 
L 143.71443 128.16 
L 143.189595 128.16 
L 143.939111 17.28 
L 144.561539 17.28 
L 145.311056 128.16 
L 144.786654 128.16 
L 144.659133 107.961114 
z
M 143.973377 87.382015 
L 144.527707 87.382015 
L 144.250976 43.277154 
L 143.973377 87.382015 
z
" clip-path="url(#pff94608502)" style="fill: #008000"/>
   </g>
   <g id="patch_57">
    <path d="M 145.422711 17.28 
L 147.544172 17.28 
L 147.544172 38.904689 
L 146.78094 38.904689 
L 146.78094 128.16 
L 146.187424 128.16 
L 146.187424 38.904689 
L 145.422711 38.904689 
L 145.422711 17.28 
z
" clip-path="url(#pff94608502)" style="fill: #ff0000"/>
   </g>
   <g id="patch_58">
    <path d="M 147.655828 17.28 
L 149.777289 17.28 
L 149.777289 38.904689 
L 149.014056 38.904689 
L 149.014056 128.16 
L 148.420541 128.16 
L 148.420541 38.904689 
L 147.655828 38.904689 
L 147.655828 17.28 
z
" clip-path="url(#pff94608502)" style="fill: #ff0000"/>
   </g>
   <g id="patch_59">
    <path d="M 152.010405 118.127891 
Q 151.796452 123.143945 151.566334 125.663425 
Q 151.336216 128.16 151.090884 128.16 
Q 150.536508 128.16 150.212726 113.226358 
Q 149.888944 98.292716 149.888944 72.754357 
Q 149.888944 46.91824 150.218432 32.09912 
Q 150.548395 17.28 151.122263 17.28 
Q 151.343348 17.28 151.54589 19.295584 
Q 151.748907 21.288263 151.928628 25.227812 
L 151.928628 47.330518 
Q 151.743202 42.268655 151.559678 39.77208 
Q 151.376154 37.252601 151.191679 37.252601 
Q 150.850306 37.252601 150.665355 46.460153 
Q 150.480405 55.644801 150.480405 72.754357 
Q 150.480405 89.703582 150.658699 98.956943 
Q 150.836993 108.187399 151.165054 108.187399 
Q 151.254439 108.187399 151.330986 107.660599 
Q 151.407534 107.110894 151.468391 105.965677 
L 151.468391 85.214328 
L 151.118935 85.214328 
L 151.118935 66.73051 
L 152.010405 66.73051 
L 152.010405 118.127891 
z
" clip-path="url(#pff94608502)" style="fill: #ffa600"/>
   </g>
   <g id="patch_60">
    <path d="M 153.591599 107.961114 
L 152.775719 107.961114 
L 152.646896 128.16 
L 152.122061 128.16 
L 152.871577 17.28 
L 153.494005 17.28 
L 154.243522 128.16 
L 153.719121 128.16 
L 153.591599 107.961114 
z
M 152.905843 87.382015 
L 153.460173 87.382015 
L 153.183442 43.277154 
L 152.905843 87.382015 
z
" clip-path="url(#pff94608502)" style="fill: #008000"/>
   </g>
   <g id="patch_61">
    <path d="M 154.355178 17.28 
L 156.476638 17.28 
L 156.476638 38.904689 
L 155.713406 38.904689 
L 155.713406 128.16 
L 155.11989 128.16 
L 155.11989 38.904689 
L 154.355178 38.904689 
L 154.355178 17.28 
z
" clip-path="url(#pff94608502)" style="fill: #ff0000"/>
   </g>
   <g id="patch_62">
    <path d="M 158.709755 127.846497 
Q 158.495802 128.003248 158.265684 128.081982 
Q 158.035566 128.16 157.790233 128.16 
Q 157.235858 128.16 156.912076 127.693324 
Q 156.588294 127.226647 156.588294 126.428574 
Q 156.588294 125.621195 156.917781 125.158098 
Q 157.247744 124.695 157.821613 124.695 
Q 158.042698 124.695 158.24524 124.757987 
Q 158.448257 124.820258 158.627977 124.943369 
L 158.627977 125.634079 
Q 158.442552 125.475895 158.259028 125.397878 
Q 158.075504 125.319144 157.891029 125.319144 
Q 157.549655 125.319144 157.364705 125.60688 
Q 157.179755 125.8939 157.179755 126.428574 
Q 157.179755 126.958237 157.358049 127.247404 
Q 157.536343 127.535856 157.864404 127.535856 
Q 157.953788 127.535856 158.030336 127.519394 
Q 158.106883 127.502215 158.167741 127.466427 
L 158.167741 126.817948 
L 157.818285 126.817948 
L 157.818285 126.240328 
L 158.709755 126.240328 
L 158.709755 127.846497 
z
" clip-path="url(#pff94608502)" style="fill: #ffa600"/>
   </g>
   <g id="patch_63">
    <path d="M 158.057832 105.12733 
L 157.241952 105.12733 
L 157.113129 124.695 
L 156.588294 124.695 
L 157.33781 17.28 
L 157.960239 17.28 
L 158.709755 124.695 
L 158.185354 124.695 
L 158.057832 105.12733 
z
M 157.372077 85.191327 
L 157.926406 85.191327 
L 157.649675 42.464743 
L 157.372077 85.191327 
z
" clip-path="url(#pff94608502)" style="fill: #008000"/>
   </g>
   <g id="patch_64">
    <path d="M 160.290948 107.961114 
L 159.475069 107.961114 
L 159.346246 128.16 
L 158.821411 128.16 
L 159.570927 17.28 
L 160.193355 17.28 
L 160.942871 128.16 
L 160.41847 128.16 
L 160.290948 107.961114 
z
M 159.605193 87.382015 
L 160.159523 87.382015 
L 159.882792 43.277154 
L 159.605193 87.382015 
z
" clip-path="url(#pff94608502)" style="fill: #008000"/>
   </g>
   <g id="patch_65">
    <path d="M 163.175988 118.127891 
Q 162.962035 123.143945 162.731917 125.663425 
Q 162.501799 128.16 162.256466 128.16 
Q 161.702091 128.16 161.378309 113.226358 
Q 161.054527 98.292716 161.054527 72.754357 
Q 161.054527 46.91824 161.384015 32.09912 
Q 161.713977 17.28 162.287846 17.28 
Q 162.508931 17.28 162.711473 19.295584 
Q 162.91449 21.288263 163.09421 25.227812 
L 163.09421 47.330518 
Q 162.908785 42.268655 162.725261 39.77208 
Q 162.541737 37.252601 162.357262 37.252601 
Q 162.015888 37.252601 161.830938 46.460153 
Q 161.645988 55.644801 161.645988 72.754357 
Q 161.645988 89.703582 161.824282 98.956943 
Q 162.002576 108.187399 162.330637 108.187399 
Q 162.420021 108.187399 162.496569 107.660599 
Q 162.573117 107.110894 162.633974 105.965677 
L 162.633974 85.214328 
L 162.284518 85.214328 
L 162.284518 66.73051 
L 163.175988 66.73051 
L 163.175988 118.127891 
z
" clip-path="url(#pff94608502)" style="fill: #ffa600"/>
   </g>
   <g id="patch_66">
    <path d="M 165.409105 120.212188 
Q 165.231648 124.151737 165.03976 126.144416 
Q 164.847872 128.16 164.638879 128.16 
Q 164.015643 128.16 163.651644 113.226358 
Q 163.287644 98.292716 163.287644 72.754357 
Q 163.287644 47.124379 163.651644 32.213642 
Q 164.015643 17.28 164.638879 17.28 
Q 164.847872 17.28 165.03976 19.295584 
Q 165.231648 21.288263 165.409105 25.227812 
L 165.409105 47.330518 
Q 165.230045 42.108325 165.05633 39.680463 
Q 164.882615 37.252601 164.690726 37.252601 
Q 164.346503 37.252601 164.14927 46.712101 
Q 163.952571 56.148697 163.952571 72.754357 
Q 163.952571 89.291303 164.14927 98.750804 
Q 164.346503 108.187399 164.690726 108.187399 
Q 164.882615 108.187399 165.05633 105.759537 
Q 165.230045 103.308771 165.409105 98.086577 
L 165.409105 120.212188 
z
" clip-path="url(#pff94608502)" style="fill: #0000ff"/>
   </g>
   <g id="patch_67">
    <path d="M 166.990298 107.961114 
L 166.174418 107.961114 
L 166.045595 128.16 
L 165.52076 128.16 
L 166.270277 17.28 
L 166.892705 17.28 
L 167.642221 128.16 
L 167.11782 128.16 
L 166.990298 107.961114 
z
M 166.304543 87.382015 
L 166.858872 87.382015 
L 166.582141 43.277154 
L 166.304543 87.382015 
z
" clip-path="url(#pff94608502)" style="fill: #008000"/>
   </g>
   <g id="patch_68">
    <path d="M 169.223415 107.961114 
L 168.407535 107.961114 
L 168.278712 128.16 
L 167.753877 128.16 
L 168.503393 17.28 
L 169.125821 17.28 
L 169.875338 128.16 
L 169.350937 128.16 
L 169.223415 107.961114 
z
M 168.537659 87.382015 
L 169.091989 87.382015 
L 168.815258 43.277154 
L 168.537659 87.382015 
z
" clip-path="url(#pff94608502)" style="fill: #008000"/>
   </g>
   <g id="patch_69">
    <path d="M 169.986993 17.28 
L 172.108454 17.28 
L 172.108454 38.904689 
L 171.345222 38.904689 
L 171.345222 128.16 
L 170.751706 128.16 
L 170.751706 38.904689 
L 169.986993 38.904689 
L 169.986993 17.28 
z
" clip-path="url(#pff94608502)" style="fill: #ff0000"/>
   </g>
   <g id="patch_70">
    <path d="M 172.22011 127.29375 
L 174.341571 127.29375 
L 174.341571 127.462693 
L 173.578338 127.462693 
L 173.578338 128.16 
L 172.984823 128.16 
L 172.984823 127.462693 
L 172.22011 127.462693 
L 172.22011 127.29375 
z
" clip-path="url(#pff94608502)" style="fill: #ff0000"/>
   </g>
   <g id="patch_71">
    <path d="M 174.341571 117.340017 
Q 174.127618 122.316883 173.8975 124.816679 
Q 173.667382 127.29375 173.422049 127.29375 
Q 172.867674 127.29375 172.543892 112.476777 
Q 172.22011 97.659805 172.22011 72.320963 
Q 172.22011 46.686691 172.549597 31.983346 
Q 172.87956 17.28 173.453429 17.28 
Q 173.674514 17.28 173.877056 19.279837 
Q 174.080073 21.256948 174.259793 25.16572 
L 174.259793 47.095749 
Q 174.074368 42.073431 173.890844 39.596361 
Q 173.70732 37.096565 173.522845 37.096565 
Q 173.181471 37.096565 172.996521 46.232183 
Q 172.811571 55.345076 172.811571 72.320963 
Q 172.811571 89.137773 172.989865 98.318842 
Q 173.168159 107.477185 173.49622 107.477185 
Q 173.585604 107.477185 173.662152 106.954501 
Q 173.738699 106.409091 173.799557 105.27282 
L 173.799557 84.683591 
L 173.450101 84.683591 
L 173.450101 66.344178 
L 174.341571 66.344178 
L 174.341571 117.340017 
z
" clip-path="url(#pff94608502)" style="fill: #ffa600"/>
   </g>
   <g id="patch_72">
    <path d="M 175.922764 128.002196 
L 175.106885 128.002196 
L 174.978062 128.16 
L 174.453227 128.16 
L 175.202743 127.29375 
L 175.825171 127.29375 
L 176.574687 128.16 
L 176.050286 128.16 
L 175.922764 128.002196 
z
M 175.237009 127.841422 
L 175.791339 127.841422 
L 175.514608 127.496853 
L 175.237009 127.841422 
z
" clip-path="url(#pff94608502)" style="fill: #008000"/>
   </g>
   <g id="patch_73">
    <path d="M 176.574687 119.40803 
Q 176.397231 123.316802 176.205343 125.293913 
Q 176.013454 127.29375 175.804462 127.29375 
Q 175.181226 127.29375 174.817226 112.476777 
Q 174.453227 97.659805 174.453227 72.320963 
Q 174.453227 46.89122 174.817226 32.096973 
Q 175.181226 17.28 175.804462 17.28 
Q 176.013454 17.28 176.205343 19.279837 
Q 176.397231 21.256948 176.574687 25.16572 
L 176.574687 47.095749 
Q 176.395627 41.914353 176.221912 39.505459 
Q 176.048197 37.096565 175.856309 37.096565 
Q 175.512086 37.096565 175.314853 46.482163 
Q 175.118154 55.845035 175.118154 72.320963 
Q 175.118154 88.728715 175.314853 98.114313 
Q 175.512086 107.477185 175.856309 107.477185 
Q 176.048197 107.477185 176.221912 105.068291 
Q 176.395627 102.636671 176.574687 97.455276 
L 176.574687 119.40803 
z
" clip-path="url(#pff94608502)" style="fill: #0000ff"/>
   </g>
   <g id="patch_74">
    <path d="M 176.686343 17.28 
L 178.807804 17.28 
L 178.807804 38.904689 
L 178.044571 38.904689 
L 178.044571 128.16 
L 177.451056 128.16 
L 177.451056 38.904689 
L 176.686343 38.904689 
L 176.686343 17.28 
z
" clip-path="url(#pff94608502)" style="fill: #ff0000"/>
   </g>
   <g id="patch_75">
    <path d="M 178.91946 17.28 
L 181.04092 17.28 
L 181.04092 38.904689 
L 180.277688 38.904689 
L 180.277688 128.16 
L 179.684172 128.16 
L 179.684172 38.904689 
L 178.91946 38.904689 
L 178.91946 17.28 
z
" clip-path="url(#pff94608502)" style="fill: #ff0000"/>
   </g>
   <g id="patch_76">
    <path d="M 181.152576 17.28 
L 183.274037 17.28 
L 183.274037 38.904689 
L 182.510805 38.904689 
L 182.510805 128.16 
L 181.917289 128.16 
L 181.917289 38.904689 
L 181.152576 38.904689 
L 181.152576 17.28 
z
" clip-path="url(#pff94608502)" style="fill: #ff0000"/>
   </g>
   <g id="patch_77">
    <path d="M 183.385693 98.7075 
L 185.507154 98.7075 
L 185.507154 104.451558 
L 184.743921 104.451558 
L 184.743921 128.16 
L 184.150405 128.16 
L 184.150405 104.451558 
L 183.385693 104.451558 
L 183.385693 98.7075 
z
" clip-path="url(#pff94608502)" style="fill: #ff0000"/>
   </g>
   <g id="patch_78">
    <path d="M 185.507154 92.870825 
Q 185.329697 95.763932 185.137809 97.227306 
Q 184.945921 98.7075 184.736928 98.7075 
Q 184.113692 98.7075 183.749693 87.740607 
Q 183.385693 76.773714 183.385693 58.018981 
Q 183.385693 39.196966 183.749693 28.246893 
Q 184.113692 17.28 184.736928 17.28 
Q 184.945921 17.28 185.137809 18.760194 
Q 185.329697 20.223568 185.507154 23.116675 
L 185.507154 39.34835 
Q 185.328094 35.513301 185.154379 33.73034 
Q 184.980664 31.947379 184.788775 31.947379 
Q 184.444552 31.947379 184.247319 38.894199 
Q 184.05062 45.824199 184.05062 58.018981 
Q 184.05062 70.163301 184.247319 77.110121 
Q 184.444552 84.040121 184.788775 84.040121 
Q 184.980664 84.040121 185.154379 82.25716 
Q 185.328094 80.457379 185.507154 76.62233 
L 185.507154 92.870825 
z
" clip-path="url(#pff94608502)" style="fill: #0000ff"/>
   </g>
   <g id="patch_79">
    <path d="M 187.74027 127.663262 
Q 187.562814 127.909484 187.370925 128.034026 
Q 187.179037 128.16 186.970045 128.16 
Q 186.346809 128.16 185.982809 127.226647 
Q 185.618809 126.293295 185.618809 124.697147 
Q 185.618809 123.095274 185.982809 122.163353 
Q 186.346809 121.23 186.970045 121.23 
Q 187.179037 121.23 187.370925 121.355974 
Q 187.562814 121.480516 187.74027 121.726738 
L 187.74027 123.108157 
Q 187.56121 122.78177 187.387495 122.630029 
Q 187.21378 122.478288 187.021892 122.478288 
Q 186.677669 122.478288 186.480436 123.069506 
Q 186.283737 123.659294 186.283737 124.697147 
Q 186.283737 125.730706 186.480436 126.321925 
Q 186.677669 126.911712 187.021892 126.911712 
Q 187.21378 126.911712 187.387495 126.759971 
Q 187.56121 126.606798 187.74027 126.280411 
L 187.74027 127.663262 
z
" clip-path="url(#pff94608502)" style="fill: #0000ff"/>
   </g>
   <g id="patch_80">
    <path d="M 185.618809 17.28 
L 187.74027 17.28 
L 187.74027 37.553146 
L 186.977038 37.553146 
L 186.977038 121.23 
L 186.383522 121.23 
L 186.383522 37.553146 
L 185.618809 37.553146 
L 185.618809 17.28 
z
" clip-path="url(#pff94608502)" style="fill: #ff0000"/>
   </g>
   <g id="patch_81">
    <path d="M 187.851926 17.28 
L 189.973387 17.28 
L 189.973387 38.904689 
L 189.210154 38.904689 
L 189.210154 128.16 
L 188.616639 128.16 
L 188.616639 38.904689 
L 187.851926 38.904689 
L 187.851926 17.28 
z
" clip-path="url(#pff94608502)" style="fill: #ff0000"/>
   </g>
   <g id="patch_82">
    <path d="M 191.55458 107.961114 
L 190.738701 107.961114 
L 190.609877 128.16 
L 190.085043 128.16 
L 190.834559 17.28 
L 191.456987 17.28 
L 192.206503 128.16 
L 191.682102 128.16 
L 191.55458 107.961114 
z
M 190.868825 87.382015 
L 191.423155 87.382015 
L 191.146424 43.277154 
L 190.868825 87.382015 
z
" clip-path="url(#pff94608502)" style="fill: #008000"/>
   </g>
   <g id="patch_83">
    <path d="M 192.318159 17.28 
L 194.43962 17.28 
L 194.43962 38.904689 
L 193.676387 38.904689 
L 193.676387 128.16 
L 193.082872 128.16 
L 193.082872 38.904689 
L 192.318159 38.904689 
L 192.318159 17.28 
z
" clip-path="url(#pff94608502)" style="fill: #ff0000"/>
   </g>
   <g id="patch_84">
    <path d="M 196.020813 107.961114 
L 195.204934 107.961114 
L 195.076111 128.16 
L 194.551276 128.16 
L 195.300792 17.28 
L 195.92322 17.28 
L 196.672736 128.16 
L 196.148335 128.16 
L 196.020813 107.961114 
z
M 195.335058 87.382015 
L 195.889388 87.382015 
L 195.612657 43.277154 
L 195.335058 87.382015 
z
" clip-path="url(#pff94608502)" style="fill: #008000"/>
   </g>
   <g id="patch_85">
    <path d="M 198.25393 107.961114 
L 197.43805 107.961114 
L 197.309227 128.16 
L 196.784392 128.16 
L 197.533908 17.28 
L 198.156337 17.28 
L 198.905853 128.16 
L 198.381452 128.16 
L 198.25393 107.961114 
z
M 197.568175 87.382015 
L 198.122504 87.382015 
L 197.845773 43.277154 
L 197.568175 87.382015 
z
" clip-path="url(#pff94608502)" style="fill: #008000"/>
   </g>
   <g id="patch_86">
    <path d="M 199.017509 17.28 
L 201.138969 17.28 
L 201.138969 38.904689 
L 200.375737 38.904689 
L 200.375737 128.16 
L 199.782221 128.16 
L 199.782221 38.904689 
L 199.017509 38.904689 
L 199.017509 17.28 
z
" clip-path="url(#pff94608502)" style="fill: #ff0000"/>
   </g>
   <g id="patch_87">
    <path d="M 203.372086 118.127891 
Q 203.158133 123.143945 202.928015 125.663425 
Q 202.697897 128.16 202.452565 128.16 
Q 201.898189 128.16 201.574407 113.226358 
Q 201.250625 98.292716 201.250625 72.754357 
Q 201.250625 46.91824 201.580113 32.09912 
Q 201.910075 17.28 202.483944 17.28 
Q 202.705029 17.28 202.907571 19.295584 
Q 203.110588 21.288263 203.290309 25.227812 
L 203.290309 47.330518 
Q 203.104883 42.268655 202.921359 39.77208 
Q 202.737835 37.252601 202.55336 37.252601 
Q 202.211986 37.252601 202.027036 46.460153 
Q 201.842086 55.644801 201.842086 72.754357 
Q 201.842086 89.703582 202.02038 98.956943 
Q 202.198674 108.187399 202.526735 108.187399 
Q 202.61612 108.187399 202.692667 107.660599 
Q 202.769215 107.110894 202.830072 105.965677 
L 202.830072 85.214328 
L 202.480616 85.214328 
L 202.480616 66.73051 
L 203.372086 66.73051 
L 203.372086 118.127891 
z
" clip-path="url(#pff94608502)" style="fill: #ffa600"/>
   </g>
   <g id="patch_88">
    <path d="M 204.95328 128.081098 
L 204.1374 128.081098 
L 204.008577 128.16 
L 203.483742 128.16 
L 204.233258 127.726875 
L 204.855686 127.726875 
L 205.605203 128.16 
L 205.080801 128.16 
L 204.95328 128.081098 
z
M 204.267524 128.000711 
L 204.821854 128.000711 
L 204.545123 127.828426 
L 204.267524 128.000711 
z
" clip-path="url(#pff94608502)" style="fill: #008000"/>
   </g>
   <g id="patch_89">
    <path d="M 205.605203 119.810109 
Q 205.427746 123.73427 205.235858 125.719165 
Q 205.04397 127.726875 204.834977 127.726875 
Q 204.211741 127.726875 203.847742 112.851568 
Q 203.483742 97.97626 203.483742 72.53766 
Q 203.483742 47.0078 203.847742 32.155307 
Q 204.211741 17.28 204.834977 17.28 
Q 205.04397 17.28 205.235858 19.28771 
Q 205.427746 21.272605 205.605203 25.196766 
L 205.605203 47.213134 
Q 205.426143 42.011339 205.252428 39.592961 
Q 205.078713 37.174583 204.886824 37.174583 
Q 204.542601 37.174583 204.345368 46.597132 
Q 204.148669 55.996866 204.148669 72.53766 
Q 204.148669 89.010009 204.345368 98.432558 
Q 204.542601 107.832292 204.886824 107.832292 
Q 205.078713 107.832292 205.252428 105.413914 
Q 205.426143 102.972721 205.605203 97.770926 
L 205.605203 119.810109 
z
" clip-path="url(#pff94608502)" style="fill: #0000ff"/>
   </g>
   <g id="patch_90">
    <path d="M 207.838319 120.212188 
Q 207.660863 124.151737 207.468974 126.144416 
Q 207.277086 128.16 207.068094 128.16 
Q 206.444858 128.16 206.080858 113.226358 
Q 205.716858 98.292716 205.716858 72.754357 
Q 205.716858 47.124379 206.080858 32.213642 
Q 206.444858 17.28 207.068094 17.28 
Q 207.277086 17.28 207.468974 19.295584 
Q 207.660863 21.288263 207.838319 25.227812 
L 207.838319 47.330518 
Q 207.659259 42.108325 207.485544 39.680463 
Q 207.311829 37.252601 207.119941 37.252601 
Q 206.775718 37.252601 206.578485 46.712101 
Q 206.381786 56.148697 206.381786 72.754357 
Q 206.381786 89.291303 206.578485 98.750804 
Q 206.775718 108.187399 207.119941 108.187399 
Q 207.311829 108.187399 207.485544 105.759537 
Q 207.659259 103.308771 207.838319 98.086577 
L 207.838319 120.212188 
z
" clip-path="url(#pff94608502)" style="fill: #0000ff"/>
   </g>
   <g id="patch_91">
    <path d="M 210.071436 126.266185 
Q 209.893979 127.204906 209.702091 127.679724 
Q 209.510203 128.16 209.30121 128.16 
Q 208.677974 128.16 208.313975 124.601593 
Q 207.949975 121.043186 207.949975 114.957874 
Q 207.949975 108.850731 208.313975 105.297782 
Q 208.677974 101.739375 209.30121 101.739375 
Q 209.510203 101.739375 209.702091 102.219651 
Q 209.893979 102.694469 210.071436 103.63319 
L 210.071436 108.89985 
Q 209.892376 107.655499 209.718661 107.076985 
Q 209.544946 106.498471 209.353057 106.498471 
Q 209.008835 106.498471 208.811601 108.752493 
Q 208.614902 111.001057 208.614902 114.957874 
Q 208.614902 118.898318 208.811601 121.15234 
Q 209.008835 123.400904 209.353057 123.400904 
Q 209.544946 123.400904 209.718661 122.82239 
Q 209.892376 122.238418 210.071436 120.994067 
L 210.071436 126.266185 
z
" clip-path="url(#pff94608502)" style="fill: #0000ff"/>
   </g>
   <g id="patch_92">
    <path d="M 209.419513 86.353505 
L 208.603633 86.353505 
L 208.47481 101.739375 
L 207.949975 101.739375 
L 208.699491 17.28 
L 209.321919 17.28 
L 210.071436 101.739375 
L 209.547035 101.739375 
L 209.419513 86.353505 
z
M 208.733757 70.678019 
L 209.288087 70.678019 
L 209.011356 37.08252 
L 208.733757 70.678019 
z
" clip-path="url(#pff94608502)" style="fill: #008000"/>
   </g>
   <g id="patch_93">
    <path d="M 211.652629 107.961114 
L 210.83675 107.961114 
L 210.707926 128.16 
L 210.183092 128.16 
L 210.932608 17.28 
L 211.555036 17.28 
L 212.304552 128.16 
L 211.780151 128.16 
L 211.652629 107.961114 
z
M 210.966874 87.382015 
L 211.521204 87.382015 
L 211.244473 43.277154 
L 210.966874 87.382015 
z
" clip-path="url(#pff94608502)" style="fill: #008000"/>
   </g>
   <g id="patch_94">
    <path d="M 214.537669 120.212188 
Q 214.360212 124.151737 214.168324 126.144416 
Q 213.976436 128.16 213.767443 128.16 
Q 213.144207 128.16 212.780208 113.226358 
Q 212.416208 98.292716 212.416208 72.754357 
Q 212.416208 47.124379 212.780208 32.213642 
Q 213.144207 17.28 213.767443 17.28 
Q 213.976436 17.28 214.168324 19.295584 
Q 214.360212 21.288263 214.537669 25.227812 
L 214.537669 47.330518 
Q 214.358609 42.108325 214.184894 39.680463 
Q 214.011179 37.252601 213.819291 37.252601 
Q 213.475068 37.252601 213.277834 46.712101 
Q 213.081136 56.148697 213.081136 72.754357 
Q 213.081136 89.291303 213.277834 98.750804 
Q 213.475068 108.187399 213.819291 108.187399 
Q 214.011179 108.187399 214.184894 105.759537 
Q 214.358609 103.308771 214.537669 98.086577 
L 214.537669 120.212188 
z
" clip-path="url(#pff94608502)" style="fill: #0000ff"/>
   </g>
   <g id="patch_95">
    <path d="M 214.649325 17.28 
L 216.770785 17.28 
L 216.770785 38.904689 
L 216.007553 38.904689 
L 216.007553 128.16 
L 215.414037 128.16 
L 215.414037 38.904689 
L 214.649325 38.904689 
L 214.649325 17.28 
z
" clip-path="url(#pff94608502)" style="fill: #ff0000"/>
   </g>
   <g id="patch_96">
    <path d="M 216.882441 17.28 
L 219.003902 17.28 
L 219.003902 38.904689 
L 218.240669 38.904689 
L 218.240669 128.16 
L 217.647154 128.16 
L 217.647154 38.904689 
L 216.882441 38.904689 
L 216.882441 17.28 
z
" clip-path="url(#pff94608502)" style="fill: #ff0000"/>
   </g>
   <g id="patch_97">
    <path d="M 219.115558 17.28 
L 221.237019 17.28 
L 221.237019 38.904689 
L 220.473786 38.904689 
L 220.473786 128.16 
L 219.88027 128.16 
L 219.88027 38.904689 
L 219.115558 38.904689 
L 219.115558 17.28 
z
" clip-path="url(#pff94608502)" style="fill: #ff0000"/>
   </g>
   <g id="patch_98">
    <path d="M 223.470135 118.127891 
Q 223.256182 123.143945 223.026064 125.663425 
Q 222.795946 128.16 222.550614 128.16 
Q 221.996238 128.16 221.672456 113.226358 
Q 221.348674 98.292716 221.348674 72.754357 
Q 221.348674 46.91824 221.678162 32.09912 
Q 222.008124 17.28 222.581993 17.28 
Q 222.803078 17.28 223.00562 19.295584 
Q 223.208637 21.288263 223.388358 25.227812 
L 223.388358 47.330518 
Q 223.202932 42.268655 223.019408 39.77208 
Q 222.835884 37.252601 222.651409 37.252601 
Q 222.310036 37.252601 222.125085 46.460153 
Q 221.940135 55.644801 221.940135 72.754357 
Q 221.940135 89.703582 222.118429 98.956943 
Q 222.296723 108.187399 222.624784 108.187399 
Q 222.714169 108.187399 222.790716 107.660599 
Q 222.867264 107.110894 222.928121 105.965677 
L 222.928121 85.214328 
L 222.578665 85.214328 
L 222.578665 66.73051 
L 223.470135 66.73051 
L 223.470135 118.127891 
z
" clip-path="url(#pff94608502)" style="fill: #ffa600"/>
   </g>
   <g id="patch_99">
    <path d="M 223.581791 17.28 
L 225.703252 17.28 
L 225.703252 38.904689 
L 224.940019 38.904689 
L 224.940019 128.16 
L 224.346503 128.16 
L 224.346503 38.904689 
L 223.581791 38.904689 
L 223.581791 17.28 
z
" clip-path="url(#pff94608502)" style="fill: #ff0000"/>
   </g>
   <g id="patch_100">
    <path d="M 227.284445 107.961114 
L 226.468565 107.961114 
L 226.339742 128.16 
L 225.814907 128.16 
L 226.564424 17.28 
L 227.186852 17.28 
L 227.936368 128.16 
L 227.411967 128.16 
L 227.284445 107.961114 
z
M 226.59869 87.382015 
L 227.15302 87.382015 
L 226.876288 43.277154 
L 226.59869 87.382015 
z
" clip-path="url(#pff94608502)" style="fill: #008000"/>
   </g>
   <g id="patch_101">
    <path d="M 230.169485 120.212188 
Q 229.992028 124.151737 229.80014 126.144416 
Q 229.608252 128.16 229.399259 128.16 
Q 228.776023 128.16 228.412024 113.226358 
Q 228.048024 98.292716 228.048024 72.754357 
Q 228.048024 47.124379 228.412024 32.213642 
Q 228.776023 17.28 229.399259 17.28 
Q 229.608252 17.28 229.80014 19.295584 
Q 229.992028 21.288263 230.169485 25.227812 
L 230.169485 47.330518 
Q 229.990425 42.108325 229.81671 39.680463 
Q 229.642995 37.252601 229.451107 37.252601 
Q 229.106884 37.252601 228.90965 46.712101 
Q 228.712951 56.148697 228.712951 72.754357 
Q 228.712951 89.291303 228.90965 98.750804 
Q 229.106884 108.187399 229.451107 108.187399 
Q 229.642995 108.187399 229.81671 105.759537 
Q 229.990425 103.308771 230.169485 98.086577 
L 230.169485 120.212188 
z
" clip-path="url(#pff94608502)" style="fill: #0000ff"/>
   </g>
   <g id="patch_102">
    <path d="M 231.750678 107.961114 
L 230.934799 107.961114 
L 230.805975 128.16 
L 230.281141 128.16 
L 231.030657 17.28 
L 231.653085 17.28 
L 232.402601 128.16 
L 231.8782 128.16 
L 231.750678 107.961114 
z
M 231.064923 87.382015 
L 231.619253 87.382015 
L 231.342522 43.277154 
L 231.064923 87.382015 
z
" clip-path="url(#pff94608502)" style="fill: #008000"/>
   </g>
   <g id="patch_103">
    <path d="M 233.983795 107.961114 
L 233.167915 107.961114 
L 233.039092 128.16 
L 232.514257 128.16 
L 233.263773 17.28 
L 233.886202 17.28 
L 234.635718 128.16 
L 234.111317 128.16 
L 233.983795 107.961114 
z
M 233.298039 87.382015 
L 233.852369 87.382015 
L 233.575638 43.277154 
L 233.298039 87.382015 
z
" clip-path="url(#pff94608502)" style="fill: #008000"/>
   </g>
   <g id="patch_104">
    <path d="M 236.868834 118.127891 
Q 236.654882 123.143945 236.424764 125.663425 
Q 236.194645 128.16 235.949313 128.16 
Q 235.394937 128.16 235.071156 113.226358 
Q 234.747374 98.292716 234.747374 72.754357 
Q 234.747374 46.91824 235.076861 32.09912 
Q 235.406824 17.28 235.980693 17.28 
Q 236.201777 17.28 236.404319 19.295584 
Q 236.607337 21.288263 236.787057 25.227812 
L 236.787057 47.330518 
Q 236.601631 42.268655 236.418107 39.77208 
Q 236.234583 37.252601 236.050108 37.252601 
Q 235.708735 37.252601 235.523785 46.460153 
Q 235.338834 55.644801 235.338834 72.754357 
Q 235.338834 89.703582 235.517128 98.956943 
Q 235.695422 108.187399 236.023483 108.187399 
Q 236.112868 108.187399 236.189415 107.660599 
Q 236.265963 107.110894 236.326821 105.965677 
L 236.326821 85.214328 
L 235.977364 85.214328 
L 235.977364 66.73051 
L 236.868834 66.73051 
L 236.868834 118.127891 
z
" clip-path="url(#pff94608502)" style="fill: #ffa600"/>
   </g>
   <g id="patch_105">
    <path d="M 238.450028 107.961114 
L 237.634148 107.961114 
L 237.505325 128.16 
L 236.98049 128.16 
L 237.730007 17.28 
L 238.352435 17.28 
L 239.101951 128.16 
L 238.57755 128.16 
L 238.450028 107.961114 
z
M 237.764273 87.382015 
L 238.318602 87.382015 
L 238.041871 43.277154 
L 237.764273 87.382015 
z
" clip-path="url(#pff94608502)" style="fill: #008000"/>
   </g>
   <g id="patch_106">
    <path d="M 240.683145 107.961114 
L 239.867265 107.961114 
L 239.738442 128.16 
L 239.213607 128.16 
L 239.963123 17.28 
L 240.585551 17.28 
L 241.335068 128.16 
L 240.810666 128.16 
L 240.683145 107.961114 
z
M 239.997389 87.382015 
L 240.551719 87.382015 
L 240.274988 43.277154 
L 239.997389 87.382015 
z
" clip-path="url(#pff94608502)" style="fill: #008000"/>
   </g>
   <g id="patch_107">
    <path d="M 242.916261 107.961114 
L 242.100381 107.961114 
L 241.971558 128.16 
L 241.446723 128.16 
L 242.19624 17.28 
L 242.818668 17.28 
L 243.568184 128.16 
L 243.043783 128.16 
L 242.916261 107.961114 
z
M 242.230506 87.382015 
L 242.784835 87.382015 
L 242.508104 43.277154 
L 242.230506 87.382015 
z
" clip-path="url(#pff94608502)" style="fill: #008000"/>
   </g>
   <g id="patch_108">
    <path d="M 243.67984 126.4275 
L 245.801301 126.4275 
L 245.801301 126.765386 
L 245.038068 126.765386 
L 245.038068 128.16 
L 244.444553 128.16 
L 244.444553 126.765386 
L 243.67984 126.765386 
L 243.67984 126.4275 
z
" clip-path="url(#pff94608502)" style="fill: #ff0000"/>
   </g>
   <g id="patch_109">
    <path d="M 245.801301 126.241223 
Q 245.623844 126.333556 245.431956 126.38026 
Q 245.240068 126.4275 245.031075 126.4275 
Q 244.407839 126.4275 244.04384 126.077493 
Q 243.67984 125.727486 243.67984 125.12893 
Q 243.67984 124.528228 244.04384 124.178757 
Q 244.407839 123.82875 245.031075 123.82875 
Q 245.240068 123.82875 245.431956 123.87599 
Q 245.623844 123.922694 245.801301 124.015027 
L 245.801301 124.533059 
Q 245.622241 124.410664 245.448526 124.353761 
Q 245.274811 124.296858 245.082922 124.296858 
Q 244.7387 124.296858 244.541466 124.518565 
Q 244.344767 124.739735 244.344767 125.12893 
Q 244.344767 125.516515 244.541466 125.738222 
Q 244.7387 125.959392 245.082922 125.959392 
Q 245.274811 125.959392 245.448526 125.902489 
Q 245.622241 125.845049 245.801301 125.722654 
L 245.801301 126.241223 
z
" clip-path="url(#pff94608502)" style="fill: #0000ff"/>
   </g>
   <g id="patch_110">
    <path d="M 245.801301 114.18852 
Q 245.587348 119.008635 245.35723 121.429697 
Q 245.127112 123.82875 244.881779 123.82875 
Q 244.327404 123.82875 244.003622 109.478454 
Q 243.67984 95.128157 243.67984 70.587389 
Q 243.67984 45.760496 244.009327 31.520248 
Q 244.33929 17.28 244.913159 17.28 
Q 245.134243 17.28 245.336785 19.21685 
Q 245.539803 21.13169 245.719523 24.917351 
L 245.719523 46.15667 
Q 245.534097 41.292536 245.350573 38.893483 
Q 245.16705 36.472421 244.982575 36.472421 
Q 244.641201 36.472421 244.456251 45.320303 
Q 244.271301 54.146176 244.271301 70.587389 
Q 244.271301 86.874536 244.449594 95.766437 
Q 244.627888 104.636329 244.955949 104.636329 
Q 245.045334 104.636329 245.121882 104.130107 
Q 245.198429 103.601875 245.259287 102.501392 
L 245.259287 82.560643 
L 244.909831 82.560643 
L 244.909831 64.79885 
L 245.801301 64.79885 
L 245.801301 114.18852 
z
" clip-path="url(#pff94608502)" style="fill: #ffa600"/>
   </g>
   <g id="patch_111">
    <path d="M 247.382494 127.923294 
L 246.566614 127.923294 
L 246.437791 128.16 
L 245.912956 128.16 
L 246.662473 126.860625 
L 247.284901 126.860625 
L 248.034417 128.16 
L 247.510016 128.16 
L 247.382494 127.923294 
z
M 246.696739 127.682133 
L 247.251069 127.682133 
L 246.974337 127.165279 
L 246.696739 127.682133 
z
" clip-path="url(#pff94608502)" style="fill: #008000"/>
   </g>
   <g id="patch_112">
    <path d="M 248.034417 126.743061 
Q 247.820464 126.801843 247.590346 126.831368 
Q 247.360228 126.860625 247.114896 126.860625 
Q 246.56052 126.860625 246.236738 126.685621 
Q 245.912956 126.510618 245.912956 126.21134 
Q 245.912956 125.908573 246.242444 125.734912 
Q 246.572407 125.56125 247.146275 125.56125 
Q 247.36736 125.56125 247.569902 125.58487 
Q 247.772919 125.608222 247.95264 125.654388 
L 247.95264 125.913405 
Q 247.767214 125.854086 247.58369 125.824829 
Q 247.400166 125.795304 247.215691 125.795304 
Q 246.874318 125.795304 246.689367 125.903205 
Q 246.504417 126.010838 246.504417 126.21134 
Q 246.504417 126.409964 246.682711 126.518402 
Q 246.861005 126.626571 247.189066 126.626571 
Q 247.278451 126.626571 247.354998 126.620398 
Q 247.431546 126.613956 247.492403 126.600535 
L 247.492403 126.357355 
L 247.142947 126.357355 
L 247.142947 126.140748 
L 248.034417 126.140748 
L 248.034417 126.743061 
z
" clip-path="url(#pff94608502)" style="fill: #ffa600"/>
   </g>
   <g id="patch_113">
    <path d="M 248.034417 122.301405 
Q 247.856961 123.917236 247.665072 124.734546 
Q 247.473184 125.56125 247.264192 125.56125 
Q 246.640956 125.56125 246.276956 119.436123 
Q 245.912956 113.310997 245.912956 102.836279 
Q 245.912956 92.323984 246.276956 86.208252 
Q 246.640956 80.083125 247.264192 80.083125 
Q 247.473184 80.083125 247.665072 80.909829 
Q 247.856961 81.727139 248.034417 83.34297 
L 248.034417 92.408533 
Q 247.855357 90.266618 247.681642 89.270815 
Q 247.507927 88.275012 247.316039 88.275012 
Q 246.971816 88.275012 246.774583 92.154885 
Q 246.577884 96.025364 246.577884 102.836279 
Q 246.577884 109.619011 246.774583 113.498884 
Q 246.971816 117.369363 247.316039 117.369363 
Q 247.507927 117.369363 247.681642 116.37356 
Q 247.855357 115.368363 248.034417 113.226448 
L 248.034417 122.301405 
z
" clip-path="url(#pff94608502)" style="fill: #0000ff"/>
   </g>
   <g id="patch_114">
    <path d="M 245.912956 17.28 
L 248.034417 17.28 
L 248.034417 29.528359 
L 247.271185 29.528359 
L 247.271185 80.083125 
L 246.677669 80.083125 
L 246.677669 29.528359 
L 245.912956 29.528359 
L 245.912956 17.28 
z
" clip-path="url(#pff94608502)" style="fill: #ff0000"/>
   </g>
   <g id="patch_115">
    <path d="M 249.615611 127.686589 
L 248.799731 127.686589 
L 248.670908 128.16 
L 248.146073 128.16 
L 248.895589 125.56125 
L 249.518017 125.56125 
L 250.267534 128.16 
L 249.743133 128.16 
L 249.615611 127.686589 
z
M 248.929855 127.204266 
L 249.484185 127.204266 
L 249.207454 126.170558 
L 248.929855 127.204266 
z
" clip-path="url(#pff94608502)" style="fill: #008000"/>
   </g>
   <g id="patch_116">
    <path d="M 250.267534 125.281835 
Q 250.090077 125.420335 249.898189 125.49039 
Q 249.706301 125.56125 249.497308 125.56125 
Q 248.874072 125.56125 248.510073 125.036239 
Q 248.146073 124.511228 248.146073 123.613395 
Q 248.146073 122.712341 248.510073 122.188136 
Q 248.874072 121.663125 249.497308 121.663125 
Q 249.706301 121.663125 249.898189 121.733985 
Q 250.090077 121.80404 250.267534 121.94254 
L 250.267534 122.719589 
Q 250.088474 122.535996 249.914759 122.450641 
Q 249.741044 122.365287 249.549156 122.365287 
Q 249.204933 122.365287 249.007699 122.697847 
Q 248.811001 123.029603 248.811001 123.613395 
Q 248.811001 124.194772 249.007699 124.527333 
Q 249.204933 124.859088 249.549156 124.859088 
Q 249.741044 124.859088 249.914759 124.773734 
Q 250.088474 124.687574 250.267534 124.503981 
L 250.267534 125.281835 
z
" clip-path="url(#pff94608502)" style="fill: #0000ff"/>
   </g>
   <g id="patch_117">
    <path d="M 250.267534 121.271246 
Q 250.053581 121.467185 249.823463 121.565603 
Q 249.593345 121.663125 249.348012 121.663125 
Q 248.793637 121.663125 248.469855 121.07978 
Q 248.146073 120.496434 248.146073 119.498842 
Q 248.146073 118.489619 248.47556 117.910747 
Q 248.805523 117.331875 249.379392 117.331875 
Q 249.600477 117.331875 249.803018 117.410609 
Q 250.006036 117.488448 250.185756 117.642336 
L 250.185756 118.505723 
Q 250.000331 118.307994 249.816807 118.210472 
Q 249.633283 118.112055 249.448808 118.112055 
Q 249.107434 118.112055 248.922484 118.471725 
Q 248.737534 118.8305 248.737534 119.498842 
Q 248.737534 120.160921 248.915828 120.522381 
Q 249.094122 120.882945 249.422183 120.882945 
Q 249.511567 120.882945 249.588115 120.862367 
Q 249.664662 120.840894 249.72552 120.796159 
L 249.72552 119.98556 
L 249.376064 119.98556 
L 249.376064 119.263536 
L 250.267534 119.263536 
L 250.267534 121.271246 
z
" clip-path="url(#pff94608502)" style="fill: #ffa600"/>
   </g>
   <g id="patch_118">
    <path d="M 248.146073 17.28 
L 250.267534 17.28 
L 250.267534 36.792903 
L 249.504301 36.792903 
L 249.504301 117.331875 
L 248.910786 117.331875 
L 248.910786 36.792903 
L 248.146073 36.792903 
L 248.146073 17.28 
z
" clip-path="url(#pff94608502)" style="fill: #ff0000"/>
   </g>
   <g id="patch_119">
    <path d="M 252.50065 118.127891 
Q 252.286698 123.143945 252.056579 125.663425 
Q 251.826461 128.16 251.581129 128.16 
Q 251.026753 128.16 250.702971 113.226358 
Q 250.37919 98.292716 250.37919 72.754357 
Q 250.37919 46.91824 250.708677 32.09912 
Q 251.03864 17.28 251.612509 17.28 
Q 251.833593 17.28 252.036135 19.295584 
Q 252.239152 21.288263 252.418873 25.227812 
L 252.418873 47.330518 
Q 252.233447 42.268655 252.049923 39.77208 
Q 251.866399 37.252601 251.681924 37.252601 
Q 251.340551 37.252601 251.1556 46.460153 
Q 250.97065 55.644801 250.97065 72.754357 
Q 250.97065 89.703582 251.148944 98.956943 
Q 251.327238 108.187399 251.655299 108.187399 
Q 251.744684 108.187399 251.821231 107.660599 
Q 251.897779 107.110894 251.958637 105.965677 
L 251.958637 85.214328 
L 251.60918 85.214328 
L 251.60918 66.73051 
L 252.50065 66.73051 
L 252.50065 118.127891 
z
" clip-path="url(#pff94608502)" style="fill: #ffa600"/>
   </g>
   <g id="patch_120">
    <path d="M 254.733767 127.632216 
Q 254.55631 127.893826 254.364422 128.026153 
Q 254.172534 128.16 253.963541 128.16 
Q 253.340306 128.16 252.976306 127.168313 
Q 252.612306 126.176626 252.612306 124.480719 
Q 252.612306 122.778728 252.976306 121.788562 
Q 253.340306 120.796875 253.963541 120.796875 
Q 254.172534 120.796875 254.364422 120.930722 
Q 254.55631 121.063049 254.733767 121.324659 
L 254.733767 122.792417 
Q 254.554707 122.445631 254.380992 122.284406 
Q 254.207277 122.123181 254.015389 122.123181 
Q 253.671166 122.123181 253.473932 122.75135 
Q 253.277234 123.377999 253.277234 124.480719 
Q 253.277234 125.578876 253.473932 126.207046 
Q 253.671166 126.833694 254.015389 126.833694 
Q 254.207277 126.833694 254.380992 126.672469 
Q 254.554707 126.509723 254.733767 126.162937 
L 254.733767 127.632216 
z
" clip-path="url(#pff94608502)" style="fill: #0000ff"/>
   </g>
   <g id="patch_121">
    <path d="M 252.612306 97.408125 
L 254.733767 97.408125 
L 254.733767 101.969583 
L 253.970534 101.969583 
L 253.970534 120.796875 
L 253.377019 120.796875 
L 253.377019 101.969583 
L 252.612306 101.969583 
L 252.612306 97.408125 
z
" clip-path="url(#pff94608502)" style="fill: #ff0000"/>
   </g>
   <g id="patch_122">
    <path d="M 254.081844 92.595109 
L 253.265964 92.595109 
L 253.137141 97.408125 
L 252.612306 97.408125 
L 253.361822 70.9875 
L 253.984251 70.9875 
L 254.733767 97.408125 
L 254.209366 97.408125 
L 254.081844 92.595109 
z
M 253.396089 87.691496 
L 253.950418 87.691496 
L 253.673687 77.182134 
L 253.396089 87.691496 
z
" clip-path="url(#pff94608502)" style="fill: #008000"/>
   </g>
   <g id="patch_123">
    <path d="M 254.733767 66.128197 
Q 254.519814 68.557849 254.289696 69.778221 
Q 254.059578 70.9875 253.814245 70.9875 
Q 253.25987 70.9875 252.936088 63.754017 
Q 252.612306 56.520534 252.612306 44.150391 
Q 252.612306 31.636023 252.941793 24.458011 
Q 253.271756 17.28 253.845625 17.28 
Q 254.06671 17.28 254.269252 18.256298 
Q 254.472269 19.221502 254.651989 21.129722 
L 254.651989 31.83572 
Q 254.466564 29.38388 254.28304 28.174601 
Q 254.099516 26.954228 253.915041 26.954228 
Q 253.573667 26.954228 253.388717 31.414137 
Q 253.203767 35.86295 253.203767 44.150391 
Q 253.203767 52.360172 253.382061 56.842269 
Q 253.560355 61.313272 253.888416 61.313272 
Q 253.9778 61.313272 254.054348 61.058103 
Q 254.130895 60.791839 254.191753 60.237125 
L 254.191753 50.18569 
L 253.842297 50.18569 
L 253.842297 41.232591 
L 254.733767 41.232591 
L 254.733767 66.128197 
z
" clip-path="url(#pff94608502)" style="fill: #ffa600"/>
   </g>
   <g id="patch_124">
    <path d="M 256.31496 124.057101 
L 255.499081 124.057101 
L 255.370258 128.16 
L 254.845423 128.16 
L 255.594939 105.6375 
L 256.217367 105.6375 
L 256.966883 128.16 
L 256.442482 128.16 
L 256.31496 124.057101 
z
M 255.629205 119.876972 
L 256.183535 119.876972 
L 255.906804 110.918172 
L 255.629205 119.876972 
z
" clip-path="url(#pff94608502)" style="fill: #008000"/>
   </g>
   <g id="patch_125">
    <path d="M 256.966883 103.712639 
Q 256.789427 104.666749 256.597539 105.149351 
Q 256.40565 105.6375 256.196658 105.6375 
Q 255.573422 105.6375 255.209422 102.020759 
Q 254.845423 98.404017 254.845423 92.218946 
Q 254.845423 86.011686 255.209422 82.400491 
Q 255.573422 78.78375 256.196658 78.78375 
Q 256.40565 78.78375 256.597539 79.271899 
Q 256.789427 79.754501 256.966883 80.708611 
L 256.966883 86.06161 
Q 256.787823 84.79686 256.614108 84.208862 
Q 256.440393 83.620864 256.248505 83.620864 
Q 255.904282 83.620864 255.707049 85.911837 
Q 255.51035 88.197262 255.51035 92.218946 
Q 255.51035 96.223988 255.707049 98.51496 
Q 255.904282 100.800386 256.248505 100.800386 
Q 256.440393 100.800386 256.614108 100.212388 
Q 256.787823 99.618843 256.966883 98.354093 
L 256.966883 103.712639 
z
" clip-path="url(#pff94608502)" style="fill: #0000ff"/>
   </g>
   <g id="patch_126">
    <path d="M 254.845423 51.06375 
L 256.966883 51.06375 
L 256.966883 56.469922 
L 256.203651 56.469922 
L 256.203651 78.78375 
L 255.610135 78.78375 
L 255.610135 56.469922 
L 254.845423 56.469922 
L 254.845423 51.06375 
z
" clip-path="url(#pff94608502)" style="fill: #ff0000"/>
   </g>
   <g id="patch_127">
    <path d="M 256.966883 48.007092 
Q 256.752931 49.535421 256.522813 50.303075 
Q 256.292694 51.06375 256.047362 51.06375 
Q 255.492986 51.06375 255.169205 46.513656 
Q 254.845423 41.963562 254.845423 34.182343 
Q 254.845423 26.310401 255.17491 21.795201 
Q 255.504873 17.28 256.078742 17.28 
Q 256.299826 17.28 256.502368 17.894123 
Q 256.705386 18.501268 256.885106 19.701599 
L 256.885106 26.436017 
Q 256.69968 24.893731 256.516156 24.133056 
Q 256.332632 23.365402 256.148157 23.365402 
Q 255.806784 23.365402 255.621834 26.170828 
Q 255.436883 28.969275 255.436883 34.182343 
Q 255.436883 39.34656 255.615177 42.165944 
Q 255.793471 44.978348 256.121532 44.978348 
Q 256.210917 44.978348 256.287464 44.817839 
Q 256.364012 44.650351 256.42487 44.301417 
L 256.42487 37.97874 
L 256.075414 37.97874 
L 256.075414 32.346952 
L 256.966883 32.346952 
L 256.966883 48.007092 
z
" clip-path="url(#pff94608502)" style="fill: #ffa600"/>
   </g>
   <g id="patch_128">
    <path d="M 259.2 126.357355 
Q 258.986047 127.258678 258.755929 127.711397 
Q 258.525811 128.16 258.280478 128.16 
Q 257.726103 128.16 257.402321 125.476611 
Q 257.078539 122.793222 257.078539 118.204298 
Q 257.078539 113.561871 257.408027 110.899061 
Q 257.737989 108.23625 258.311858 108.23625 
Q 258.532943 108.23625 258.735485 108.598425 
Q 258.938502 108.956485 259.118222 109.664373 
L 259.118222 113.635953 
Q 258.932797 112.726399 258.749273 112.277796 
Q 258.565749 111.825077 258.381274 111.825077 
Q 258.0399 111.825077 257.85495 113.479559 
Q 257.67 115.129925 257.67 118.204298 
Q 257.67 121.249862 257.848294 122.912576 
Q 258.026588 124.571173 258.354649 124.571173 
Q 258.444033 124.571173 258.520581 124.476514 
Q 258.597129 124.377739 258.657986 124.171957 
L 258.657986 120.443199 
L 258.30853 120.443199 
L 258.30853 117.121889 
L 259.2 117.121889 
L 259.2 126.357355 
z
" clip-path="url(#pff94608502)" style="fill: #ffa600"/>
   </g>
   <g id="patch_129">
    <path d="M 259.2 106.46662 
Q 259.022543 107.343785 258.830655 107.787468 
Q 258.638767 108.23625 258.429775 108.23625 
Q 257.806539 108.23625 257.442539 104.911181 
Q 257.078539 101.586113 257.078539 95.899837 
Q 257.078539 90.193163 257.442539 86.873194 
Q 257.806539 83.548125 258.429775 83.548125 
Q 258.638767 83.548125 258.830655 83.996907 
Q 259.022543 84.44059 259.2 85.317755 
L 259.2 90.239061 
Q 259.02094 89.076307 258.847225 88.535728 
Q 258.67351 87.995149 258.481622 87.995149 
Q 258.137399 87.995149 257.940166 90.101366 
Q 257.743467 92.202483 257.743467 95.899837 
Q 257.743467 99.581892 257.940166 101.688109 
Q 258.137399 103.789226 258.481622 103.789226 
Q 258.67351 103.789226 258.847225 103.248647 
Q 259.02094 102.702969 259.2 101.540214 
L 259.2 106.46662 
z
" clip-path="url(#pff94608502)" style="fill: #0000ff"/>
   </g>
   <g id="patch_130">
    <path d="M 257.078539 51.93 
L 259.2 51.93 
L 259.2 58.096415 
L 258.436768 58.096415 
L 258.436768 83.548125 
L 257.843252 83.548125 
L 257.843252 58.096415 
L 257.078539 58.096415 
L 257.078539 51.93 
z
" clip-path="url(#pff94608502)" style="fill: #ff0000"/>
   </g>
   <g id="patch_131">
    <path d="M 258.548077 45.617848 
L 257.732197 45.617848 
L 257.603374 51.93 
L 257.078539 51.93 
L 257.828056 17.28 
L 258.450484 17.28 
L 259.2 51.93 
L 258.675599 51.93 
L 258.548077 45.617848 
z
M 257.862322 39.18688 
L 258.416651 39.18688 
L 258.13992 25.404111 
L 257.862322 39.18688 
z
" clip-path="url(#pff94608502)" style="fill: #008000"/>
   </g>
  </g>
 </g>
 <defs>
  <clipPath id="pff94608502">
   <rect x="36" y="17.28" width="223.2" height="110.88"/>
  </clipPath>
 </defs>
</svg>
