<?xml version="1.0" encoding="utf-8" standalone="no"?>
<!DOCTYPE svg PUBLIC "-//W3C//DTD SVG 1.1//EN"
  "http://www.w3.org/Graphics/SVG/1.1/DTD/svg11.dtd">
<svg xmlns:xlink="http://www.w3.org/1999/xlink" width="288pt" height="144pt" viewBox="0 0 288 144" xmlns="http://www.w3.org/2000/svg" version="1.1">
 <metadata>
  <rdf:RDF xmlns:dc="http://purl.org/dc/elements/1.1/" xmlns:cc="http://creativecommons.org/ns#" xmlns:rdf="http://www.w3.org/1999/02/22-rdf-syntax-ns#">
   <cc:Work>
    <dc:type rdf:resource="http://purl.org/dc/dcmitype/StillImage"/>
    <dc:date>2024-11-11T17:03:44.148398</dc:date>
    <dc:format>image/svg+xml</dc:format>
    <dc:creator>
     <cc:Agent>
      <dc:title>Matplotlib v3.9.2, https://matplotlib.org/</dc:title>
     </cc:Agent>
    </dc:creator>
   </cc:Work>
  </rdf:RDF>
 </metadata>
 <defs>
  <style type="text/css">*{stroke-linejoin: round; stroke-linecap: butt}</style>
 </defs>
 <g id="figure_1">
  <g id="patch_1">
   <path d="M 0 144 
L 288 144 
L 288 0 
L 0 0 
z
" style="fill: #ffffff"/>
  </g>
  <g id="axes_1">
   <g id="line2d_1">
    <path d="M 36 128.16 
L 259.2 128.16 
" clip-path="url(#p5bf75c3937)" style="fill: none; stroke: #000000; stroke-width: 0.5; stroke-linecap: square"/>
   </g>
   <g id="patch_2">
    <path d="M 38.121461 127.994636 
Q 37.907508 128.077318 37.67739 128.118848 
Q 37.447272 128.16 37.201939 128.16 
Q 36.647564 128.16 36.323782 127.913841 
Q 36 127.667682 36 127.24672 
Q 36 126.82085 36.329487 126.576579 
Q 36.65945 126.332308 37.233319 126.332308 
Q 37.454403 126.332308 37.656945 126.365532 
Q 37.859963 126.398378 38.039683 126.463316 
L 38.039683 126.827646 
Q 37.854257 126.744209 37.670734 126.703056 
Q 37.48721 126.661526 37.302735 126.661526 
Q 36.961361 126.661526 36.776411 126.813299 
Q 36.591461 126.964695 36.591461 127.24672 
Q 36.591461 127.526103 36.769755 127.678631 
Q 36.948049 127.830781 37.27611 127.830781 
Q 37.365494 127.830781 37.442042 127.822098 
Q 37.518589 127.813037 37.579447 127.79416 
L 37.579447 127.452104 
L 37.229991 127.452104 
L 37.229991 127.147426 
L 38.121461 127.147426 
L 38.121461 127.994636 
z
" clip-path="url(#p5bf75c3937)" style="fill: #ffa600"/>
   </g>
   <g id="patch_3">
    <path d="M 38.121461 124.629205 
Q 37.944004 125.473394 37.752116 125.900397 
Q 37.560228 126.332308 37.351235 126.332308 
Q 36.727999 126.332308 36.364 123.132242 
Q 36 119.932175 36 114.45967 
Q 36 108.967532 36.364 105.772374 
Q 36.727999 102.572308 37.351235 102.572308 
Q 37.560228 102.572308 37.752116 103.004218 
Q 37.944004 103.431221 38.121461 104.27541 
L 38.121461 109.011705 
Q 37.942401 107.892663 37.768686 107.372407 
Q 37.594971 106.852151 37.403082 106.852151 
Q 37.05886 106.852151 36.861626 108.879186 
Q 36.664927 110.901314 36.664927 114.45967 
Q 36.664927 118.003301 36.861626 120.030337 
Q 37.05886 122.052465 37.403082 122.052465 
Q 37.594971 122.052465 37.768686 121.532209 
Q 37.942401 121.007044 38.121461 119.888003 
L 38.121461 124.629205 
z
" clip-path="url(#p5bf75c3937)" style="fill: #0000ff"/>
   </g>
   <g id="patch_4">
    <path d="M 40.354577 128.104879 
Q 40.140625 128.132439 39.910506 128.146283 
Q 39.680388 128.16 39.435056 128.16 
Q 38.88068 128.16 38.556898 128.077947 
Q 38.233117 127.995894 38.233117 127.855573 
Q 38.233117 127.713617 38.562604 127.632193 
Q 38.892567 127.550769 39.466436 127.550769 
Q 39.68752 127.550769 39.890062 127.561844 
Q 40.093079 127.572793 40.2728 127.594439 
L 40.2728 127.715882 
Q 40.087374 127.68807 39.90385 127.674352 
Q 39.720326 127.660509 39.535851 127.660509 
Q 39.194478 127.660509 39.009527 127.7111 
Q 38.824577 127.761565 38.824577 127.855573 
Q 38.824577 127.948701 39.002871 127.999544 
Q 39.181165 128.05026 39.509226 128.05026 
Q 39.598611 128.05026 39.675158 128.047366 
Q 39.751706 128.044346 39.812564 128.038053 
L 39.812564 127.924035 
L 39.463107 127.924035 
L 39.463107 127.822475 
L 40.354577 127.822475 
L 40.354577 128.104879 
z
" clip-path="url(#p5bf75c3937)" style="fill: #ffa600"/>
   </g>
   <g id="patch_5">
    <path d="M 39.702654 107.462867 
L 38.886775 107.462867 
L 38.757951 127.550769 
L 38.233117 127.550769 
L 38.982633 17.28 
L 39.605061 17.28 
L 40.354577 127.550769 
L 39.830176 127.550769 
L 39.702654 107.462867 
z
M 39.016899 86.996839 
L 39.571229 86.996839 
L 39.294498 43.134312 
L 39.016899 86.996839 
z
" clip-path="url(#p5bf75c3937)" style="fill: #008000"/>
   </g>
   <g id="patch_6">
    <path d="M 41.935771 107.961114 
L 41.119891 107.961114 
L 40.991068 128.16 
L 40.466233 128.16 
L 41.215749 17.28 
L 41.838178 17.28 
L 42.587694 128.16 
L 42.063293 128.16 
L 41.935771 107.961114 
z
M 41.250015 87.382015 
L 41.804345 87.382015 
L 41.527614 43.277154 
L 41.250015 87.382015 
z
" clip-path="url(#p5bf75c3937)" style="fill: #008000"/>
   </g>
   <g id="patch_7">
    <path d="M 44.168887 107.961114 
L 43.353008 107.961114 
L 43.224185 128.16 
L 42.69935 128.16 
L 43.448866 17.28 
L 44.071294 17.28 
L 44.82081 128.16 
L 44.296409 128.16 
L 44.168887 107.961114 
z
M 43.483132 87.382015 
L 44.037462 87.382015 
L 43.760731 43.277154 
L 43.483132 87.382015 
z
" clip-path="url(#p5bf75c3937)" style="fill: #008000"/>
   </g>
   <g id="patch_8">
    <path d="M 46.402004 125.052479 
L 45.586124 125.052479 
L 45.457301 128.16 
L 44.932466 128.16 
L 45.681983 111.101538 
L 46.304411 111.101538 
L 47.053927 128.16 
L 46.529526 128.16 
L 46.402004 125.052479 
z
M 45.716249 121.886464 
L 46.270578 121.886464 
L 45.993847 115.101101 
L 45.716249 121.886464 
z
" clip-path="url(#p5bf75c3937)" style="fill: #008000"/>
   </g>
   <g id="patch_9">
    <path d="M 44.932466 17.28 
L 47.053927 17.28 
L 47.053927 35.577814 
L 46.290694 35.577814 
L 46.290694 111.101538 
L 45.697179 111.101538 
L 45.697179 35.577814 
L 44.932466 35.577814 
L 44.932466 17.28 
z
" clip-path="url(#p5bf75c3937)" style="fill: #ff0000"/>
   </g>
   <g id="patch_10">
    <path d="M 47.165583 111.101538 
L 49.287044 111.101538 
L 49.287044 114.428414 
L 48.523811 114.428414 
L 48.523811 128.16 
L 47.930295 128.16 
L 47.930295 114.428414 
L 47.165583 114.428414 
L 47.165583 111.101538 
z
" clip-path="url(#p5bf75c3937)" style="fill: #ff0000"/>
   </g>
   <g id="patch_11">
    <path d="M 48.635121 94.010174 
L 47.819241 94.010174 
L 47.690418 111.101538 
L 47.165583 111.101538 
L 47.915099 17.28 
L 48.537527 17.28 
L 49.287044 111.101538 
L 48.762642 111.101538 
L 48.635121 94.010174 
z
M 47.949365 76.597089 
L 48.503695 76.597089 
L 48.226964 39.277592 
L 47.949365 76.597089 
z
" clip-path="url(#p5bf75c3937)" style="fill: #008000"/>
   </g>
   <g id="patch_12">
    <path d="M 50.868237 107.961114 
L 50.052357 107.961114 
L 49.923534 128.16 
L 49.398699 128.16 
L 50.148216 17.28 
L 50.770644 17.28 
L 51.52016 128.16 
L 50.995759 128.16 
L 50.868237 107.961114 
z
M 50.182482 87.382015 
L 50.736811 87.382015 
L 50.46008 43.277154 
L 50.182482 87.382015 
z
" clip-path="url(#p5bf75c3937)" style="fill: #008000"/>
   </g>
   <g id="patch_13">
    <path d="M 53.101354 125.052479 
L 52.285474 125.052479 
L 52.156651 128.16 
L 51.631816 128.16 
L 52.381332 111.101538 
L 53.00376 111.101538 
L 53.753277 128.16 
L 53.228875 128.16 
L 53.101354 125.052479 
z
M 52.415598 121.886464 
L 52.969928 121.886464 
L 52.693197 115.101101 
L 52.415598 121.886464 
z
" clip-path="url(#p5bf75c3937)" style="fill: #008000"/>
   </g>
   <g id="patch_14">
    <path d="M 51.631816 17.28 
L 53.753277 17.28 
L 53.753277 35.577814 
L 52.990044 35.577814 
L 52.990044 111.101538 
L 52.396528 111.101538 
L 52.396528 35.577814 
L 51.631816 35.577814 
L 51.631816 17.28 
z
" clip-path="url(#p5bf75c3937)" style="fill: #ff0000"/>
   </g>
   <g id="patch_15">
    <path d="M 53.864932 111.101538 
L 55.986393 111.101538 
L 55.986393 114.428414 
L 55.223161 114.428414 
L 55.223161 128.16 
L 54.629645 128.16 
L 54.629645 114.428414 
L 53.864932 114.428414 
L 53.864932 111.101538 
z
" clip-path="url(#p5bf75c3937)" style="fill: #ff0000"/>
   </g>
   <g id="patch_16">
    <path d="M 55.986393 102.612831 
Q 55.77244 106.857185 55.542322 108.989052 
Q 55.312204 111.101538 55.066872 111.101538 
Q 54.512496 111.101538 54.188714 98.46538 
Q 53.864932 85.829222 53.864932 64.21984 
Q 53.864932 42.358511 54.19442 29.819255 
Q 54.524382 17.28 55.098251 17.28 
Q 55.319336 17.28 55.521878 18.985494 
Q 55.724895 20.671607 55.904616 24.005072 
L 55.904616 42.707362 
Q 55.71919 38.424247 55.535666 36.31176 
Q 55.352142 34.179893 55.167667 34.179893 
Q 54.826294 34.179893 54.641343 41.970899 
Q 54.456393 49.742524 54.456393 64.21984 
Q 54.456393 78.561492 54.634687 86.391259 
Q 54.812981 94.201646 55.141042 94.201646 
Q 55.230427 94.201646 55.306974 93.755892 
Q 55.383522 93.290757 55.444379 92.321726 
L 55.444379 74.762893 
L 55.094923 74.762893 
L 55.094923 59.122739 
L 55.986393 59.122739 
L 55.986393 102.612831 
z
" clip-path="url(#p5bf75c3937)" style="fill: #ffa600"/>
   </g>
   <g id="patch_17">
    <path d="M 58.21951 126.616599 
Q 58.005557 127.388299 57.775439 127.775912 
Q 57.545321 128.16 57.299988 128.16 
Q 56.745613 128.16 56.421831 125.862517 
Q 56.098049 123.565033 56.098049 119.636055 
Q 56.098049 115.661268 56.427536 113.381403 
Q 56.757499 111.101538 57.331368 111.101538 
Q 57.552453 111.101538 57.754994 111.411628 
Q 57.958012 111.718194 58.137732 112.324279 
L 58.137732 115.724695 
Q 57.952306 114.945947 57.768783 114.561858 
Q 57.585259 114.174246 57.400784 114.174246 
Q 57.05941 114.174246 56.87446 115.590793 
Q 56.68951 117.003815 56.68951 119.636055 
Q 56.68951 122.243628 56.867804 123.667222 
Q 57.046098 125.087292 57.374159 125.087292 
Q 57.463543 125.087292 57.540091 125.006246 
Q 57.616638 124.921676 57.677496 124.745489 
L 57.677496 121.552973 
L 57.32804 121.552973 
L 57.32804 118.709309 
L 58.21951 118.709309 
L 58.21951 126.616599 
z
" clip-path="url(#p5bf75c3937)" style="fill: #ffa600"/>
   </g>
   <g id="patch_18">
    <path d="M 57.567587 94.010174 
L 56.751707 94.010174 
L 56.622884 111.101538 
L 56.098049 111.101538 
L 56.847565 17.28 
L 57.469993 17.28 
L 58.21951 111.101538 
L 57.695109 111.101538 
L 57.567587 94.010174 
z
M 56.881831 76.597089 
L 57.436161 76.597089 
L 57.15943 39.277592 
L 56.881831 76.597089 
z
" clip-path="url(#p5bf75c3937)" style="fill: #008000"/>
   </g>
   <g id="patch_19">
    <path d="M 59.800703 125.052479 
L 58.984824 125.052479 
L 58.856 128.16 
L 58.331166 128.16 
L 59.080682 111.101538 
L 59.70311 111.101538 
L 60.452626 128.16 
L 59.928225 128.16 
L 59.800703 125.052479 
z
M 59.114948 121.886464 
L 59.669278 121.886464 
L 59.392547 115.101101 
L 59.114948 121.886464 
z
" clip-path="url(#p5bf75c3937)" style="fill: #008000"/>
   </g>
   <g id="patch_20">
    <path d="M 58.331166 17.28 
L 60.452626 17.28 
L 60.452626 35.577814 
L 59.689394 35.577814 
L 59.689394 111.101538 
L 59.095878 111.101538 
L 59.095878 35.577814 
L 58.331166 35.577814 
L 58.331166 17.28 
z
" clip-path="url(#p5bf75c3937)" style="fill: #ff0000"/>
   </g>
   <g id="patch_21">
    <path d="M 60.564282 17.28 
L 62.685743 17.28 
L 62.685743 38.904689 
L 61.92251 38.904689 
L 61.92251 128.16 
L 61.328995 128.16 
L 61.328995 38.904689 
L 60.564282 38.904689 
L 60.564282 17.28 
z
" clip-path="url(#p5bf75c3937)" style="fill: #ff0000"/>
   </g>
   <g id="patch_22">
    <path d="M 62.797399 17.28 
L 64.918859 17.28 
L 64.918859 38.904689 
L 64.155627 38.904689 
L 64.155627 128.16 
L 63.562111 128.16 
L 63.562111 38.904689 
L 62.797399 38.904689 
L 62.797399 17.28 
z
" clip-path="url(#p5bf75c3937)" style="fill: #ff0000"/>
   </g>
   <g id="patch_23">
    <path d="M 65.030515 17.28 
L 67.151976 17.28 
L 67.151976 38.904689 
L 66.388743 38.904689 
L 66.388743 128.16 
L 65.795228 128.16 
L 65.795228 38.904689 
L 65.030515 38.904689 
L 65.030515 17.28 
z
" clip-path="url(#p5bf75c3937)" style="fill: #ff0000"/>
   </g>
   <g id="patch_24">
    <path d="M 67.263632 111.101538 
L 69.385093 111.101538 
L 69.385093 114.428414 
L 68.62186 114.428414 
L 68.62186 128.16 
L 68.028344 128.16 
L 68.028344 114.428414 
L 67.263632 114.428414 
L 67.263632 111.101538 
z
" clip-path="url(#p5bf75c3937)" style="fill: #ff0000"/>
   </g>
   <g id="patch_25">
    <path d="M 68.73317 94.010174 
L 67.91729 94.010174 
L 67.788467 111.101538 
L 67.263632 111.101538 
L 68.013148 17.28 
L 68.635576 17.28 
L 69.385093 111.101538 
L 68.860691 111.101538 
L 68.73317 94.010174 
z
M 68.047414 76.597089 
L 68.601744 76.597089 
L 68.325013 39.277592 
L 68.047414 76.597089 
z
" clip-path="url(#p5bf75c3937)" style="fill: #008000"/>
   </g>
   <g id="patch_26">
    <path d="M 70.966286 125.052479 
L 70.150406 125.052479 
L 70.021583 128.16 
L 69.496748 128.16 
L 70.246265 111.101538 
L 70.868693 111.101538 
L 71.618209 128.16 
L 71.093808 128.16 
L 70.966286 125.052479 
z
M 70.280531 121.886464 
L 70.83486 121.886464 
L 70.558129 115.101101 
L 70.280531 121.886464 
z
" clip-path="url(#p5bf75c3937)" style="fill: #008000"/>
   </g>
   <g id="patch_27">
    <path d="M 69.496748 17.28 
L 71.618209 17.28 
L 71.618209 35.577814 
L 70.854977 35.577814 
L 70.854977 111.101538 
L 70.261461 111.101538 
L 70.261461 35.577814 
L 69.496748 35.577814 
L 69.496748 17.28 
z
" clip-path="url(#p5bf75c3937)" style="fill: #ff0000"/>
   </g>
   <g id="patch_28">
    <path d="M 71.729865 17.28 
L 73.851326 17.28 
L 73.851326 38.904689 
L 73.088093 38.904689 
L 73.088093 128.16 
L 72.494578 128.16 
L 72.494578 38.904689 
L 71.729865 38.904689 
L 71.729865 17.28 
z
" clip-path="url(#p5bf75c3937)" style="fill: #ff0000"/>
   </g>
   <g id="patch_29">
    <path d="M 73.962981 17.28 
L 76.084442 17.28 
L 76.084442 38.904689 
L 75.32121 38.904689 
L 75.32121 128.16 
L 74.727694 128.16 
L 74.727694 38.904689 
L 73.962981 38.904689 
L 73.962981 17.28 
z
" clip-path="url(#p5bf75c3937)" style="fill: #ff0000"/>
   </g>
   <g id="patch_30">
    <path d="M 76.196098 17.28 
L 78.317559 17.28 
L 78.317559 38.904689 
L 77.554326 38.904689 
L 77.554326 128.16 
L 76.960811 128.16 
L 76.960811 38.904689 
L 76.196098 38.904689 
L 76.196098 17.28 
z
" clip-path="url(#p5bf75c3937)" style="fill: #ff0000"/>
   </g>
   <g id="patch_31">
    <path d="M 80.550675 118.127891 
Q 80.336723 123.143945 80.106604 125.663425 
Q 79.876486 128.16 79.631154 128.16 
Q 79.076778 128.16 78.752996 113.226358 
Q 78.429215 98.292716 78.429215 72.754357 
Q 78.429215 46.91824 78.758702 32.09912 
Q 79.088665 17.28 79.662534 17.28 
Q 79.883618 17.28 80.08616 19.295584 
Q 80.289177 21.288263 80.468898 25.227812 
L 80.468898 47.330518 
Q 80.283472 42.268655 80.099948 39.77208 
Q 79.916424 37.252601 79.731949 37.252601 
Q 79.390576 37.252601 79.205625 46.460153 
Q 79.020675 55.644801 79.020675 72.754357 
Q 79.020675 89.703582 79.198969 98.956943 
Q 79.377263 108.187399 79.705324 108.187399 
Q 79.794709 108.187399 79.871256 107.660599 
Q 79.947804 107.110894 80.008662 105.965677 
L 80.008662 85.214328 
L 79.659205 85.214328 
L 79.659205 66.73051 
L 80.550675 66.73051 
L 80.550675 118.127891 
z
" clip-path="url(#p5bf75c3937)" style="fill: #ffa600"/>
   </g>
   <g id="patch_32">
    <path d="M 82.131869 107.961114 
L 81.315989 107.961114 
L 81.187166 128.16 
L 80.662331 128.16 
L 81.411847 17.28 
L 82.034276 17.28 
L 82.783792 128.16 
L 82.259391 128.16 
L 82.131869 107.961114 
z
M 81.446114 87.382015 
L 82.000443 87.382015 
L 81.723712 43.277154 
L 81.446114 87.382015 
z
" clip-path="url(#p5bf75c3937)" style="fill: #008000"/>
   </g>
   <g id="patch_33">
    <path d="M 85.016908 120.212188 
Q 84.839452 124.151737 84.647564 126.144416 
Q 84.455675 128.16 84.246683 128.16 
Q 83.623447 128.16 83.259447 113.226358 
Q 82.895448 98.292716 82.895448 72.754357 
Q 82.895448 47.124379 83.259447 32.213642 
Q 83.623447 17.28 84.246683 17.28 
Q 84.455675 17.28 84.647564 19.295584 
Q 84.839452 21.288263 85.016908 25.227812 
L 85.016908 47.330518 
Q 84.837848 42.108325 84.664133 39.680463 
Q 84.490418 37.252601 84.29853 37.252601 
Q 83.954307 37.252601 83.757074 46.712101 
Q 83.560375 56.148697 83.560375 72.754357 
Q 83.560375 89.291303 83.757074 98.750804 
Q 83.954307 108.187399 84.29853 108.187399 
Q 84.490418 108.187399 84.664133 105.759537 
Q 84.837848 103.308771 85.016908 98.086577 
L 85.016908 120.212188 
z
" clip-path="url(#p5bf75c3937)" style="fill: #0000ff"/>
   </g>
   <g id="patch_34">
    <path d="M 85.128564 17.28 
L 87.250025 17.28 
L 87.250025 38.904689 
L 86.486793 38.904689 
L 86.486793 128.16 
L 85.893277 128.16 
L 85.893277 38.904689 
L 85.128564 38.904689 
L 85.128564 17.28 
z
" clip-path="url(#p5bf75c3937)" style="fill: #ff0000"/>
   </g>
   <g id="patch_35">
    <path d="M 89.483142 118.127891 
Q 89.269189 123.143945 89.039071 125.663425 
Q 88.808953 128.16 88.56362 128.16 
Q 88.009245 128.16 87.685463 113.226358 
Q 87.361681 98.292716 87.361681 72.754357 
Q 87.361681 46.91824 87.691168 32.09912 
Q 88.021131 17.28 88.595 17.28 
Q 88.816084 17.28 89.018626 19.295584 
Q 89.221644 21.288263 89.401364 25.227812 
L 89.401364 47.330518 
Q 89.215938 42.268655 89.032414 39.77208 
Q 88.84889 37.252601 88.664416 37.252601 
Q 88.323042 37.252601 88.138092 46.460153 
Q 87.953141 55.644801 87.953141 72.754357 
Q 87.953141 89.703582 88.131435 98.956943 
Q 88.309729 108.187399 88.63779 108.187399 
Q 88.727175 108.187399 88.803723 107.660599 
Q 88.88027 107.110894 88.941128 105.965677 
L 88.941128 85.214328 
L 88.591672 85.214328 
L 88.591672 66.73051 
L 89.483142 66.73051 
L 89.483142 118.127891 
z
" clip-path="url(#p5bf75c3937)" style="fill: #ffa600"/>
   </g>
   <g id="patch_36">
    <path d="M 91.064335 107.961114 
L 90.248455 107.961114 
L 90.119632 128.16 
L 89.594797 128.16 
L 90.344314 17.28 
L 90.966742 17.28 
L 91.716258 128.16 
L 91.191857 128.16 
L 91.064335 107.961114 
z
M 90.37858 87.382015 
L 90.93291 87.382015 
L 90.656178 43.277154 
L 90.37858 87.382015 
z
" clip-path="url(#p5bf75c3937)" style="fill: #008000"/>
   </g>
   <g id="patch_37">
    <path d="M 91.827914 17.28 
L 93.949375 17.28 
L 93.949375 38.904689 
L 93.186142 38.904689 
L 93.186142 128.16 
L 92.592627 128.16 
L 92.592627 38.904689 
L 91.827914 38.904689 
L 91.827914 17.28 
z
" clip-path="url(#p5bf75c3937)" style="fill: #ff0000"/>
   </g>
   <g id="patch_38">
    <path d="M 95.530568 107.961114 
L 94.714689 107.961114 
L 94.585865 128.16 
L 94.061031 128.16 
L 94.810547 17.28 
L 95.432975 17.28 
L 96.182491 128.16 
L 95.65809 128.16 
L 95.530568 107.961114 
z
M 94.844813 87.382015 
L 95.399143 87.382015 
L 95.122412 43.277154 
L 94.844813 87.382015 
z
" clip-path="url(#p5bf75c3937)" style="fill: #008000"/>
   </g>
   <g id="patch_39">
    <path d="M 98.415608 118.127891 
Q 98.201655 123.143945 97.971537 125.663425 
Q 97.741419 128.16 97.496086 128.16 
Q 96.941711 128.16 96.617929 113.226358 
Q 96.294147 98.292716 96.294147 72.754357 
Q 96.294147 46.91824 96.623634 32.09912 
Q 96.953597 17.28 97.527466 17.28 
Q 97.748551 17.28 97.951093 19.295584 
Q 98.15411 21.288263 98.33383 25.227812 
L 98.33383 47.330518 
Q 98.148405 42.268655 97.964881 39.77208 
Q 97.781357 37.252601 97.596882 37.252601 
Q 97.255508 37.252601 97.070558 46.460153 
Q 96.885608 55.644801 96.885608 72.754357 
Q 96.885608 89.703582 97.063902 98.956943 
Q 97.242196 108.187399 97.570257 108.187399 
Q 97.659641 108.187399 97.736189 107.660599 
Q 97.812736 107.110894 97.873594 105.965677 
L 97.873594 85.214328 
L 97.524138 85.214328 
L 97.524138 66.73051 
L 98.415608 66.73051 
L 98.415608 118.127891 
z
" clip-path="url(#p5bf75c3937)" style="fill: #ffa600"/>
   </g>
   <g id="patch_40">
    <path d="M 98.527264 17.28 
L 100.648724 17.28 
L 100.648724 38.904689 
L 99.885492 38.904689 
L 99.885492 128.16 
L 99.291976 128.16 
L 99.291976 38.904689 
L 98.527264 38.904689 
L 98.527264 17.28 
z
" clip-path="url(#p5bf75c3937)" style="fill: #ff0000"/>
   </g>
   <g id="patch_41">
    <path d="M 102.881841 118.127891 
Q 102.667888 123.143945 102.43777 125.663425 
Q 102.207652 128.16 101.962319 128.16 
Q 101.407944 128.16 101.084162 113.226358 
Q 100.76038 98.292716 100.76038 72.754357 
Q 100.76038 46.91824 101.089867 32.09912 
Q 101.41983 17.28 101.993699 17.28 
Q 102.214784 17.28 102.417326 19.295584 
Q 102.620343 21.288263 102.800063 25.227812 
L 102.800063 47.330518 
Q 102.614638 42.268655 102.431114 39.77208 
Q 102.24759 37.252601 102.063115 37.252601 
Q 101.721741 37.252601 101.536791 46.460153 
Q 101.351841 55.644801 101.351841 72.754357 
Q 101.351841 89.703582 101.530135 98.956943 
Q 101.708429 108.187399 102.03649 108.187399 
Q 102.125874 108.187399 102.202422 107.660599 
Q 102.27897 107.110894 102.339827 105.965677 
L 102.339827 85.214328 
L 101.990371 85.214328 
L 101.990371 66.73051 
L 102.881841 66.73051 
L 102.881841 118.127891 
z
" clip-path="url(#p5bf75c3937)" style="fill: #ffa600"/>
   </g>
   <g id="patch_42">
    <path d="M 104.463034 107.961114 
L 103.647155 107.961114 
L 103.518332 128.16 
L 102.993497 128.16 
L 103.743013 17.28 
L 104.365441 17.28 
L 105.114957 128.16 
L 104.590556 128.16 
L 104.463034 107.961114 
z
M 103.777279 87.382015 
L 104.331609 87.382015 
L 104.054878 43.277154 
L 103.777279 87.382015 
z
" clip-path="url(#p5bf75c3937)" style="fill: #008000"/>
   </g>
   <g id="patch_43">
    <path d="M 107.348074 120.212188 
Q 107.170618 124.151737 106.978729 126.144416 
Q 106.786841 128.16 106.577849 128.16 
Q 105.954613 128.16 105.590613 113.226358 
Q 105.226613 98.292716 105.226613 72.754357 
Q 105.226613 47.124379 105.590613 32.213642 
Q 105.954613 17.28 106.577849 17.28 
Q 106.786841 17.28 106.978729 19.295584 
Q 107.170618 21.288263 107.348074 25.227812 
L 107.348074 47.330518 
Q 107.169014 42.108325 106.995299 39.680463 
Q 106.821584 37.252601 106.629696 37.252601 
Q 106.285473 37.252601 106.08824 46.712101 
Q 105.891541 56.148697 105.891541 72.754357 
Q 105.891541 89.291303 106.08824 98.750804 
Q 106.285473 108.187399 106.629696 108.187399 
Q 106.821584 108.187399 106.995299 105.759537 
Q 107.169014 103.308771 107.348074 98.086577 
L 107.348074 120.212188 
z
" clip-path="url(#p5bf75c3937)" style="fill: #0000ff"/>
   </g>
   <g id="patch_44">
    <path d="M 109.581191 120.212188 
Q 109.403734 124.151737 109.211846 126.144416 
Q 109.019958 128.16 108.810965 128.16 
Q 108.187729 128.16 107.82373 113.226358 
Q 107.45973 98.292716 107.45973 72.754357 
Q 107.45973 47.124379 107.82373 32.213642 
Q 108.187729 17.28 108.810965 17.28 
Q 109.019958 17.28 109.211846 19.295584 
Q 109.403734 21.288263 109.581191 25.227812 
L 109.581191 47.330518 
Q 109.402131 42.108325 109.228416 39.680463 
Q 109.054701 37.252601 108.862812 37.252601 
Q 108.518589 37.252601 108.321356 46.712101 
Q 108.124657 56.148697 108.124657 72.754357 
Q 108.124657 89.291303 108.321356 98.750804 
Q 108.518589 108.187399 108.862812 108.187399 
Q 109.054701 108.187399 109.228416 105.759537 
Q 109.402131 103.308771 109.581191 98.086577 
L 109.581191 120.212188 
z
" clip-path="url(#p5bf75c3937)" style="fill: #0000ff"/>
   </g>
   <g id="patch_45">
    <path d="M 109.692846 17.28 
L 111.814307 17.28 
L 111.814307 38.904689 
L 111.051075 38.904689 
L 111.051075 128.16 
L 110.457559 128.16 
L 110.457559 38.904689 
L 109.692846 38.904689 
L 109.692846 17.28 
z
" clip-path="url(#p5bf75c3937)" style="fill: #ff0000"/>
   </g>
   <g id="patch_46">
    <path d="M 114.047424 118.127891 
Q 113.833471 123.143945 113.603353 125.663425 
Q 113.373235 128.16 113.127902 128.16 
Q 112.573527 128.16 112.249745 113.226358 
Q 111.925963 98.292716 111.925963 72.754357 
Q 111.925963 46.91824 112.25545 32.09912 
Q 112.585413 17.28 113.159282 17.28 
Q 113.380366 17.28 113.582908 19.295584 
Q 113.785926 21.288263 113.965646 25.227812 
L 113.965646 47.330518 
Q 113.78022 42.268655 113.596697 39.77208 
Q 113.413173 37.252601 113.228698 37.252601 
Q 112.887324 37.252601 112.702374 46.460153 
Q 112.517424 55.644801 112.517424 72.754357 
Q 112.517424 89.703582 112.695718 98.956943 
Q 112.874012 108.187399 113.202072 108.187399 
Q 113.291457 108.187399 113.368005 107.660599 
Q 113.444552 107.110894 113.50541 105.965677 
L 113.50541 85.214328 
L 113.155954 85.214328 
L 113.155954 66.73051 
L 114.047424 66.73051 
L 114.047424 118.127891 
z
" clip-path="url(#p5bf75c3937)" style="fill: #ffa600"/>
   </g>
   <g id="patch_47">
    <path d="M 114.15908 17.28 
L 116.28054 17.28 
L 116.28054 38.904689 
L 115.517308 38.904689 
L 115.517308 128.16 
L 114.923792 128.16 
L 114.923792 38.904689 
L 114.15908 38.904689 
L 114.15908 17.28 
z
" clip-path="url(#p5bf75c3937)" style="fill: #ff0000"/>
   </g>
   <g id="patch_48">
    <path d="M 116.392196 17.28 
L 118.513657 17.28 
L 118.513657 38.904689 
L 117.750424 38.904689 
L 117.750424 128.16 
L 117.156909 128.16 
L 117.156909 38.904689 
L 116.392196 38.904689 
L 116.392196 17.28 
z
" clip-path="url(#p5bf75c3937)" style="fill: #ff0000"/>
   </g>
   <g id="patch_49">
    <path d="M 120.746773 120.212188 
Q 120.569317 124.151737 120.377429 126.144416 
Q 120.18554 128.16 119.976548 128.16 
Q 119.353312 128.16 118.989312 113.226358 
Q 118.625313 98.292716 118.625313 72.754357 
Q 118.625313 47.124379 118.989312 32.213642 
Q 119.353312 17.28 119.976548 17.28 
Q 120.18554 17.28 120.377429 19.295584 
Q 120.569317 21.288263 120.746773 25.227812 
L 120.746773 47.330518 
Q 120.567713 42.108325 120.393998 39.680463 
Q 120.220283 37.252601 120.028395 37.252601 
Q 119.684172 37.252601 119.486939 46.712101 
Q 119.29024 56.148697 119.29024 72.754357 
Q 119.29024 89.291303 119.486939 98.750804 
Q 119.684172 108.187399 120.028395 108.187399 
Q 120.220283 108.187399 120.393998 105.759537 
Q 120.567713 103.308771 120.746773 98.086577 
L 120.746773 120.212188 
z
" clip-path="url(#p5bf75c3937)" style="fill: #0000ff"/>
   </g>
   <g id="patch_50">
    <path d="M 122.97989 118.127891 
Q 122.765937 123.143945 122.535819 125.663425 
Q 122.305701 128.16 122.060368 128.16 
Q 121.505993 128.16 121.182211 113.226358 
Q 120.858429 98.292716 120.858429 72.754357 
Q 120.858429 46.91824 121.187917 32.09912 
Q 121.517879 17.28 122.091748 17.28 
Q 122.312833 17.28 122.515375 19.295584 
Q 122.718392 21.288263 122.898112 25.227812 
L 122.898112 47.330518 
Q 122.712687 42.268655 122.529163 39.77208 
Q 122.345639 37.252601 122.161164 37.252601 
Q 121.81979 37.252601 121.63484 46.460153 
Q 121.44989 55.644801 121.44989 72.754357 
Q 121.44989 89.703582 121.628184 98.956943 
Q 121.806478 108.187399 122.134539 108.187399 
Q 122.223923 108.187399 122.300471 107.660599 
Q 122.377019 107.110894 122.437876 105.965677 
L 122.437876 85.214328 
L 122.08842 85.214328 
L 122.08842 66.73051 
L 122.97989 66.73051 
L 122.97989 118.127891 
z
" clip-path="url(#p5bf75c3937)" style="fill: #ffa600"/>
   </g>
   <g id="patch_51">
    <path d="M 123.091546 17.28 
L 125.213007 17.28 
L 125.213007 38.904689 
L 124.449774 38.904689 
L 124.449774 128.16 
L 123.856258 128.16 
L 123.856258 38.904689 
L 123.091546 38.904689 
L 123.091546 17.28 
z
" clip-path="url(#p5bf75c3937)" style="fill: #ff0000"/>
   </g>
   <g id="patch_52">
    <path d="M 125.324662 17.28 
L 127.446123 17.28 
L 127.446123 38.904689 
L 126.682891 38.904689 
L 126.682891 128.16 
L 126.089375 128.16 
L 126.089375 38.904689 
L 125.324662 38.904689 
L 125.324662 17.28 
z
" clip-path="url(#p5bf75c3937)" style="fill: #ff0000"/>
   </g>
   <g id="patch_53">
    <path d="M 129.67924 118.127891 
Q 129.465287 123.143945 129.235169 125.663425 
Q 129.005051 128.16 128.759718 128.16 
Q 128.205343 128.16 127.881561 113.226358 
Q 127.557779 98.292716 127.557779 72.754357 
Q 127.557779 46.91824 127.887266 32.09912 
Q 128.217229 17.28 128.791098 17.28 
Q 129.012182 17.28 129.214724 19.295584 
Q 129.417742 21.288263 129.597462 25.227812 
L 129.597462 47.330518 
Q 129.412036 42.268655 129.228512 39.77208 
Q 129.044988 37.252601 128.860514 37.252601 
Q 128.51914 37.252601 128.33419 46.460153 
Q 128.149239 55.644801 128.149239 72.754357 
Q 128.149239 89.703582 128.327533 98.956943 
Q 128.505827 108.187399 128.833888 108.187399 
Q 128.923273 108.187399 128.999821 107.660599 
Q 129.076368 107.110894 129.137226 105.965677 
L 129.137226 85.214328 
L 128.78777 85.214328 
L 128.78777 66.73051 
L 129.67924 66.73051 
L 129.67924 118.127891 
z
" clip-path="url(#p5bf75c3937)" style="fill: #ffa600"/>
   </g>
   <g id="patch_54">
    <path d="M 131.912356 120.212188 
Q 131.7349 124.151737 131.543011 126.144416 
Q 131.351123 128.16 131.142131 128.16 
Q 130.518895 128.16 130.154895 113.226358 
Q 129.790895 98.292716 129.790895 72.754357 
Q 129.790895 47.124379 130.154895 32.213642 
Q 130.518895 17.28 131.142131 17.28 
Q 131.351123 17.28 131.543011 19.295584 
Q 131.7349 21.288263 131.912356 25.227812 
L 131.912356 47.330518 
Q 131.733296 42.108325 131.559581 39.680463 
Q 131.385866 37.252601 131.193978 37.252601 
Q 130.849755 37.252601 130.652522 46.712101 
Q 130.455823 56.148697 130.455823 72.754357 
Q 130.455823 89.291303 130.652522 98.750804 
Q 130.849755 108.187399 131.193978 108.187399 
Q 131.385866 108.187399 131.559581 105.759537 
Q 131.733296 103.308771 131.912356 98.086577 
L 131.912356 120.212188 
z
" clip-path="url(#p5bf75c3937)" style="fill: #0000ff"/>
   </g>
   <g id="patch_55">
    <path d="M 133.49355 107.961114 
L 132.67767 107.961114 
L 132.548847 128.16 
L 132.024012 128.16 
L 132.773528 17.28 
L 133.395956 17.28 
L 134.145473 128.16 
L 133.621072 128.16 
L 133.49355 107.961114 
z
M 132.807794 87.382015 
L 133.362124 87.382015 
L 133.085393 43.277154 
L 132.807794 87.382015 
z
" clip-path="url(#p5bf75c3937)" style="fill: #008000"/>
   </g>
   <g id="patch_56">
    <path d="M 135.726666 107.961114 
L 134.910787 107.961114 
L 134.781963 128.16 
L 134.257129 128.16 
L 135.006645 17.28 
L 135.629073 17.28 
L 136.378589 128.16 
L 135.854188 128.16 
L 135.726666 107.961114 
z
M 135.040911 87.382015 
L 135.595241 87.382015 
L 135.31851 43.277154 
L 135.040911 87.382015 
z
" clip-path="url(#p5bf75c3937)" style="fill: #008000"/>
   </g>
   <g id="patch_57">
    <path d="M 138.611706 120.212188 
Q 138.434249 124.151737 138.242361 126.144416 
Q 138.050473 128.16 137.84148 128.16 
Q 137.218244 128.16 136.854245 113.226358 
Q 136.490245 98.292716 136.490245 72.754357 
Q 136.490245 47.124379 136.854245 32.213642 
Q 137.218244 17.28 137.84148 17.28 
Q 138.050473 17.28 138.242361 19.295584 
Q 138.434249 21.288263 138.611706 25.227812 
L 138.611706 47.330518 
Q 138.432646 42.108325 138.258931 39.680463 
Q 138.085216 37.252601 137.893328 37.252601 
Q 137.549105 37.252601 137.351871 46.712101 
Q 137.155173 56.148697 137.155173 72.754357 
Q 137.155173 89.291303 137.351871 98.750804 
Q 137.549105 108.187399 137.893328 108.187399 
Q 138.085216 108.187399 138.258931 105.759537 
Q 138.432646 103.308771 138.611706 98.086577 
L 138.611706 120.212188 
z
" clip-path="url(#p5bf75c3937)" style="fill: #0000ff"/>
   </g>
   <g id="patch_58">
    <path d="M 140.192899 107.961114 
L 139.37702 107.961114 
L 139.248197 128.16 
L 138.723362 128.16 
L 139.472878 17.28 
L 140.095306 17.28 
L 140.844822 128.16 
L 140.320421 128.16 
L 140.192899 107.961114 
z
M 139.507144 87.382015 
L 140.061474 87.382015 
L 139.784743 43.277154 
L 139.507144 87.382015 
z
" clip-path="url(#p5bf75c3937)" style="fill: #008000"/>
   </g>
   <g id="patch_59">
    <path d="M 143.077939 128.104879 
Q 142.863986 128.132439 142.633868 128.146283 
Q 142.40375 128.16 142.158417 128.16 
Q 141.604042 128.16 141.28026 128.077947 
Q 140.956478 127.995894 140.956478 127.855573 
Q 140.956478 127.713617 141.285966 127.632193 
Q 141.615928 127.550769 142.189797 127.550769 
Q 142.410882 127.550769 142.613424 127.561844 
Q 142.816441 127.572793 142.996161 127.594439 
L 142.996161 127.715882 
Q 142.810736 127.68807 142.627212 127.674352 
Q 142.443688 127.660509 142.259213 127.660509 
Q 141.917839 127.660509 141.732889 127.7111 
Q 141.547939 127.761565 141.547939 127.855573 
Q 141.547939 127.948701 141.726233 127.999544 
Q 141.904527 128.05026 142.232588 128.05026 
Q 142.321972 128.05026 142.39852 128.047366 
Q 142.475068 128.044346 142.535925 128.038053 
L 142.535925 127.924035 
L 142.186469 127.924035 
L 142.186469 127.822475 
L 143.077939 127.822475 
L 143.077939 128.104879 
z
" clip-path="url(#p5bf75c3937)" style="fill: #ffa600"/>
   </g>
   <g id="patch_60">
    <path d="M 143.077939 126.109682 
Q 142.900482 126.823996 142.708594 127.185306 
Q 142.516706 127.550769 142.307713 127.550769 
Q 141.684478 127.550769 141.320478 124.843021 
Q 140.956478 122.135273 140.956478 117.504691 
Q 140.956478 112.857497 141.320478 110.153902 
Q 141.684478 107.446154 142.307713 107.446154 
Q 142.516706 107.446154 142.708594 107.811617 
Q 142.900482 108.172927 143.077939 108.887241 
L 143.077939 112.894874 
Q 142.898879 111.947993 142.725164 111.507776 
Q 142.551449 111.067559 142.359561 111.067559 
Q 142.015338 111.067559 141.818105 112.782744 
Q 141.621406 114.493775 141.621406 117.504691 
Q 141.621406 120.503148 141.818105 122.218333 
Q 142.015338 123.929364 142.359561 123.929364 
Q 142.551449 123.929364 142.725164 123.489147 
Q 142.898879 123.044777 143.077939 122.097896 
L 143.077939 126.109682 
z
" clip-path="url(#p5bf75c3937)" style="fill: #0000ff"/>
   </g>
   <g id="patch_61">
    <path d="M 142.426016 91.020686 
L 141.610136 91.020686 
L 141.481313 107.446154 
L 140.956478 107.446154 
L 141.705995 17.28 
L 142.328423 17.28 
L 143.077939 107.446154 
L 142.553538 107.446154 
L 142.426016 91.020686 
z
M 141.740261 74.286034 
L 142.29459 74.286034 
L 142.017859 38.420543 
L 141.740261 74.286034 
z
" clip-path="url(#p5bf75c3937)" style="fill: #008000"/>
   </g>
   <g id="patch_62">
    <path d="M 144.659133 107.961114 
L 143.843253 107.961114 
L 143.71443 128.16 
L 143.189595 128.16 
L 143.939111 17.28 
L 144.561539 17.28 
L 145.311056 128.16 
L 144.786654 128.16 
L 144.659133 107.961114 
z
M 143.973377 87.382015 
L 144.527707 87.382015 
L 144.250976 43.277154 
L 143.973377 87.382015 
z
" clip-path="url(#p5bf75c3937)" style="fill: #008000"/>
   </g>
   <g id="patch_63">
    <path d="M 145.422711 17.28 
L 147.544172 17.28 
L 147.544172 38.904689 
L 146.78094 38.904689 
L 146.78094 128.16 
L 146.187424 128.16 
L 146.187424 38.904689 
L 145.422711 38.904689 
L 145.422711 17.28 
z
" clip-path="url(#p5bf75c3937)" style="fill: #ff0000"/>
   </g>
   <g id="patch_64">
    <path d="M 147.655828 17.28 
L 149.777289 17.28 
L 149.777289 38.904689 
L 149.014056 38.904689 
L 149.014056 128.16 
L 148.420541 128.16 
L 148.420541 38.904689 
L 147.655828 38.904689 
L 147.655828 17.28 
z
" clip-path="url(#p5bf75c3937)" style="fill: #ff0000"/>
   </g>
   <g id="patch_65">
    <path d="M 152.010405 118.127891 
Q 151.796452 123.143945 151.566334 125.663425 
Q 151.336216 128.16 151.090884 128.16 
Q 150.536508 128.16 150.212726 113.226358 
Q 149.888944 98.292716 149.888944 72.754357 
Q 149.888944 46.91824 150.218432 32.09912 
Q 150.548395 17.28 151.122263 17.28 
Q 151.343348 17.28 151.54589 19.295584 
Q 151.748907 21.288263 151.928628 25.227812 
L 151.928628 47.330518 
Q 151.743202 42.268655 151.559678 39.77208 
Q 151.376154 37.252601 151.191679 37.252601 
Q 150.850306 37.252601 150.665355 46.460153 
Q 150.480405 55.644801 150.480405 72.754357 
Q 150.480405 89.703582 150.658699 98.956943 
Q 150.836993 108.187399 151.165054 108.187399 
Q 151.254439 108.187399 151.330986 107.660599 
Q 151.407534 107.110894 151.468391 105.965677 
L 151.468391 85.214328 
L 151.118935 85.214328 
L 151.118935 66.73051 
L 152.010405 66.73051 
L 152.010405 118.127891 
z
" clip-path="url(#p5bf75c3937)" style="fill: #ffa600"/>
   </g>
   <g id="patch_66">
    <path d="M 153.591599 107.961114 
L 152.775719 107.961114 
L 152.646896 128.16 
L 152.122061 128.16 
L 152.871577 17.28 
L 153.494005 17.28 
L 154.243522 128.16 
L 153.719121 128.16 
L 153.591599 107.961114 
z
M 152.905843 87.382015 
L 153.460173 87.382015 
L 153.183442 43.277154 
L 152.905843 87.382015 
z
" clip-path="url(#p5bf75c3937)" style="fill: #008000"/>
   </g>
   <g id="patch_67">
    <path d="M 154.355178 17.28 
L 156.476638 17.28 
L 156.476638 38.904689 
L 155.713406 38.904689 
L 155.713406 128.16 
L 155.11989 128.16 
L 155.11989 38.904689 
L 154.355178 38.904689 
L 154.355178 17.28 
z
" clip-path="url(#p5bf75c3937)" style="fill: #ff0000"/>
   </g>
   <g id="patch_68">
    <path d="M 158.057832 124.164616 
L 157.241952 124.164616 
L 157.113129 128.16 
L 156.588294 128.16 
L 157.33781 106.227692 
L 157.960239 106.227692 
L 158.709755 128.16 
L 158.185354 128.16 
L 158.057832 124.164616 
z
M 157.372077 120.094025 
L 157.926406 120.094025 
L 157.649675 111.369986 
L 157.372077 120.094025 
z
" clip-path="url(#p5bf75c3937)" style="fill: #008000"/>
   </g>
   <g id="patch_69">
    <path d="M 158.709755 98.179956 
Q 158.495802 102.203824 158.265684 104.224945 
Q 158.035566 106.227692 157.790233 106.227692 
Q 157.235858 106.227692 156.912076 94.247958 
Q 156.588294 82.268223 156.588294 61.781407 
Q 156.588294 41.055731 156.917781 29.167866 
Q 157.247744 17.28 157.821613 17.28 
Q 158.042698 17.28 158.24524 18.896897 
Q 158.448257 20.49542 158.627977 23.655718 
L 158.627977 41.38646 
Q 158.442552 37.325844 158.259028 35.323097 
Q 158.075504 33.301976 157.891029 33.301976 
Q 157.549655 33.301976 157.364705 40.688254 
Q 157.179755 48.056159 157.179755 61.781407 
Q 157.179755 75.378038 157.358049 82.801064 
Q 157.536343 90.205716 157.864404 90.205716 
Q 157.953788 90.205716 158.030336 89.783118 
Q 158.106883 89.342146 158.167741 88.423455 
L 158.167741 71.776768 
L 157.818285 71.776768 
L 157.818285 56.949091 
L 158.709755 56.949091 
L 158.709755 98.179956 
z
" clip-path="url(#p5bf75c3937)" style="fill: #ffa600"/>
   </g>
   <g id="patch_70">
    <path d="M 160.290948 107.961114 
L 159.475069 107.961114 
L 159.346246 128.16 
L 158.821411 128.16 
L 159.570927 17.28 
L 160.193355 17.28 
L 160.942871 128.16 
L 160.41847 128.16 
L 160.290948 107.961114 
z
M 159.605193 87.382015 
L 160.159523 87.382015 
L 159.882792 43.277154 
L 159.605193 87.382015 
z
" clip-path="url(#p5bf75c3937)" style="fill: #008000"/>
   </g>
   <g id="patch_71">
    <path d="M 163.175988 118.127891 
Q 162.962035 123.143945 162.731917 125.663425 
Q 162.501799 128.16 162.256466 128.16 
Q 161.702091 128.16 161.378309 113.226358 
Q 161.054527 98.292716 161.054527 72.754357 
Q 161.054527 46.91824 161.384015 32.09912 
Q 161.713977 17.28 162.287846 17.28 
Q 162.508931 17.28 162.711473 19.295584 
Q 162.91449 21.288263 163.09421 25.227812 
L 163.09421 47.330518 
Q 162.908785 42.268655 162.725261 39.77208 
Q 162.541737 37.252601 162.357262 37.252601 
Q 162.015888 37.252601 161.830938 46.460153 
Q 161.645988 55.644801 161.645988 72.754357 
Q 161.645988 89.703582 161.824282 98.956943 
Q 162.002576 108.187399 162.330637 108.187399 
Q 162.420021 108.187399 162.496569 107.660599 
Q 162.573117 107.110894 162.633974 105.965677 
L 162.633974 85.214328 
L 162.284518 85.214328 
L 162.284518 66.73051 
L 163.175988 66.73051 
L 163.175988 118.127891 
z
" clip-path="url(#p5bf75c3937)" style="fill: #ffa600"/>
   </g>
   <g id="patch_72">
    <path d="M 165.409105 120.212188 
Q 165.231648 124.151737 165.03976 126.144416 
Q 164.847872 128.16 164.638879 128.16 
Q 164.015643 128.16 163.651644 113.226358 
Q 163.287644 98.292716 163.287644 72.754357 
Q 163.287644 47.124379 163.651644 32.213642 
Q 164.015643 17.28 164.638879 17.28 
Q 164.847872 17.28 165.03976 19.295584 
Q 165.231648 21.288263 165.409105 25.227812 
L 165.409105 47.330518 
Q 165.230045 42.108325 165.05633 39.680463 
Q 164.882615 37.252601 164.690726 37.252601 
Q 164.346503 37.252601 164.14927 46.712101 
Q 163.952571 56.148697 163.952571 72.754357 
Q 163.952571 89.291303 164.14927 98.750804 
Q 164.346503 108.187399 164.690726 108.187399 
Q 164.882615 108.187399 165.05633 105.759537 
Q 165.230045 103.308771 165.409105 98.086577 
L 165.409105 120.212188 
z
" clip-path="url(#p5bf75c3937)" style="fill: #0000ff"/>
   </g>
   <g id="patch_73">
    <path d="M 166.990298 107.961114 
L 166.174418 107.961114 
L 166.045595 128.16 
L 165.52076 128.16 
L 166.270277 17.28 
L 166.892705 17.28 
L 167.642221 128.16 
L 167.11782 128.16 
L 166.990298 107.961114 
z
M 166.304543 87.382015 
L 166.858872 87.382015 
L 166.582141 43.277154 
L 166.304543 87.382015 
z
" clip-path="url(#p5bf75c3937)" style="fill: #008000"/>
   </g>
   <g id="patch_74">
    <path d="M 169.223415 107.961114 
L 168.407535 107.961114 
L 168.278712 128.16 
L 167.753877 128.16 
L 168.503393 17.28 
L 169.125821 17.28 
L 169.875338 128.16 
L 169.350937 128.16 
L 169.223415 107.961114 
z
M 168.537659 87.382015 
L 169.091989 87.382015 
L 168.815258 43.277154 
L 168.537659 87.382015 
z
" clip-path="url(#p5bf75c3937)" style="fill: #008000"/>
   </g>
   <g id="patch_75">
    <path d="M 169.986993 17.28 
L 172.108454 17.28 
L 172.108454 38.904689 
L 171.345222 38.904689 
L 171.345222 128.16 
L 170.751706 128.16 
L 170.751706 38.904689 
L 169.986993 38.904689 
L 169.986993 17.28 
z
" clip-path="url(#p5bf75c3937)" style="fill: #ff0000"/>
   </g>
   <g id="patch_76">
    <path d="M 174.341571 118.127891 
Q 174.127618 123.143945 173.8975 125.663425 
Q 173.667382 128.16 173.422049 128.16 
Q 172.867674 128.16 172.543892 113.226358 
Q 172.22011 98.292716 172.22011 72.754357 
Q 172.22011 46.91824 172.549597 32.09912 
Q 172.87956 17.28 173.453429 17.28 
Q 173.674514 17.28 173.877056 19.295584 
Q 174.080073 21.288263 174.259793 25.227812 
L 174.259793 47.330518 
Q 174.074368 42.268655 173.890844 39.77208 
Q 173.70732 37.252601 173.522845 37.252601 
Q 173.181471 37.252601 172.996521 46.460153 
Q 172.811571 55.644801 172.811571 72.754357 
Q 172.811571 89.703582 172.989865 98.956943 
Q 173.168159 108.187399 173.49622 108.187399 
Q 173.585604 108.187399 173.662152 107.660599 
Q 173.738699 107.110894 173.799557 105.965677 
L 173.799557 85.214328 
L 173.450101 85.214328 
L 173.450101 66.73051 
L 174.341571 66.73051 
L 174.341571 118.127891 
z
" clip-path="url(#p5bf75c3937)" style="fill: #ffa600"/>
   </g>
   <g id="patch_77">
    <path d="M 176.574687 120.212188 
Q 176.397231 124.151737 176.205343 126.144416 
Q 176.013454 128.16 175.804462 128.16 
Q 175.181226 128.16 174.817226 113.226358 
Q 174.453227 98.292716 174.453227 72.754357 
Q 174.453227 47.124379 174.817226 32.213642 
Q 175.181226 17.28 175.804462 17.28 
Q 176.013454 17.28 176.205343 19.295584 
Q 176.397231 21.288263 176.574687 25.227812 
L 176.574687 47.330518 
Q 176.395627 42.108325 176.221912 39.680463 
Q 176.048197 37.252601 175.856309 37.252601 
Q 175.512086 37.252601 175.314853 46.712101 
Q 175.118154 56.148697 175.118154 72.754357 
Q 175.118154 89.291303 175.314853 98.750804 
Q 175.512086 108.187399 175.856309 108.187399 
Q 176.048197 108.187399 176.221912 105.759537 
Q 176.395627 103.308771 176.574687 98.086577 
L 176.574687 120.212188 
z
" clip-path="url(#p5bf75c3937)" style="fill: #0000ff"/>
   </g>
   <g id="patch_78">
    <path d="M 176.686343 17.28 
L 178.807804 17.28 
L 178.807804 38.904689 
L 178.044571 38.904689 
L 178.044571 128.16 
L 177.451056 128.16 
L 177.451056 38.904689 
L 176.686343 38.904689 
L 176.686343 17.28 
z
" clip-path="url(#p5bf75c3937)" style="fill: #ff0000"/>
   </g>
   <g id="patch_79">
    <path d="M 178.91946 17.28 
L 181.04092 17.28 
L 181.04092 38.904689 
L 180.277688 38.904689 
L 180.277688 128.16 
L 179.684172 128.16 
L 179.684172 38.904689 
L 178.91946 38.904689 
L 178.91946 17.28 
z
" clip-path="url(#p5bf75c3937)" style="fill: #ff0000"/>
   </g>
   <g id="patch_80">
    <path d="M 181.152576 17.28 
L 183.274037 17.28 
L 183.274037 38.904689 
L 182.510805 38.904689 
L 182.510805 128.16 
L 181.917289 128.16 
L 181.917289 38.904689 
L 181.152576 38.904689 
L 181.152576 17.28 
z
" clip-path="url(#p5bf75c3937)" style="fill: #ff0000"/>
   </g>
   <g id="patch_81">
    <path d="M 185.507154 127.985323 
Q 185.329697 128.071906 185.137809 128.115701 
Q 184.945921 128.16 184.736928 128.16 
Q 184.113692 128.16 183.749693 127.831788 
Q 183.385693 127.503576 183.385693 126.942294 
Q 183.385693 126.378997 183.749693 126.051289 
Q 184.113692 125.723077 184.736928 125.723077 
Q 184.945921 125.723077 185.137809 125.767375 
Q 185.329697 125.811171 185.507154 125.897754 
L 185.507154 126.383528 
Q 185.328094 126.268754 185.154379 126.215395 
Q 184.980664 126.162035 184.788775 126.162035 
Q 184.444552 126.162035 184.247319 126.369936 
Q 184.05062 126.577334 184.05062 126.942294 
Q 184.05062 127.305743 184.247319 127.513644 
Q 184.444552 127.721042 184.788775 127.721042 
Q 184.980664 127.721042 185.154379 127.667682 
Q 185.328094 127.613819 185.507154 127.499046 
L 185.507154 127.985323 
z
" clip-path="url(#p5bf75c3937)" style="fill: #0000ff"/>
   </g>
   <g id="patch_82">
    <path d="M 183.385693 17.28 
L 185.507154 17.28 
L 185.507154 38.429421 
L 184.743921 38.429421 
L 184.743921 125.723077 
L 184.150405 125.723077 
L 184.150405 38.429421 
L 183.385693 38.429421 
L 183.385693 17.28 
z
" clip-path="url(#p5bf75c3937)" style="fill: #ff0000"/>
   </g>
   <g id="patch_83">
    <path d="M 185.618809 17.28 
L 187.74027 17.28 
L 187.74027 38.904689 
L 186.977038 38.904689 
L 186.977038 128.16 
L 186.383522 128.16 
L 186.383522 38.904689 
L 185.618809 38.904689 
L 185.618809 17.28 
z
" clip-path="url(#p5bf75c3937)" style="fill: #ff0000"/>
   </g>
   <g id="patch_84">
    <path d="M 187.851926 17.28 
L 189.973387 17.28 
L 189.973387 38.904689 
L 189.210154 38.904689 
L 189.210154 128.16 
L 188.616639 128.16 
L 188.616639 38.904689 
L 187.851926 38.904689 
L 187.851926 17.28 
z
" clip-path="url(#p5bf75c3937)" style="fill: #ff0000"/>
   </g>
   <g id="patch_85">
    <path d="M 191.55458 107.961114 
L 190.738701 107.961114 
L 190.609877 128.16 
L 190.085043 128.16 
L 190.834559 17.28 
L 191.456987 17.28 
L 192.206503 128.16 
L 191.682102 128.16 
L 191.55458 107.961114 
z
M 190.868825 87.382015 
L 191.423155 87.382015 
L 191.146424 43.277154 
L 190.868825 87.382015 
z
" clip-path="url(#p5bf75c3937)" style="fill: #008000"/>
   </g>
   <g id="patch_86">
    <path d="M 192.318159 17.28 
L 194.43962 17.28 
L 194.43962 38.904689 
L 193.676387 38.904689 
L 193.676387 128.16 
L 193.082872 128.16 
L 193.082872 38.904689 
L 192.318159 38.904689 
L 192.318159 17.28 
z
" clip-path="url(#p5bf75c3937)" style="fill: #ff0000"/>
   </g>
   <g id="patch_87">
    <path d="M 196.020813 107.961114 
L 195.204934 107.961114 
L 195.076111 128.16 
L 194.551276 128.16 
L 195.300792 17.28 
L 195.92322 17.28 
L 196.672736 128.16 
L 196.148335 128.16 
L 196.020813 107.961114 
z
M 195.335058 87.382015 
L 195.889388 87.382015 
L 195.612657 43.277154 
L 195.335058 87.382015 
z
" clip-path="url(#p5bf75c3937)" style="fill: #008000"/>
   </g>
   <g id="patch_88">
    <path d="M 196.784392 127.550769 
L 198.905853 127.550769 
L 198.905853 127.669586 
L 198.14262 127.669586 
L 198.14262 128.16 
L 197.549105 128.16 
L 197.549105 127.669586 
L 196.784392 127.669586 
L 196.784392 127.550769 
z
" clip-path="url(#p5bf75c3937)" style="fill: #ff0000"/>
   </g>
   <g id="patch_89">
    <path d="M 198.25393 107.462867 
L 197.43805 107.462867 
L 197.309227 127.550769 
L 196.784392 127.550769 
L 197.533908 17.28 
L 198.156337 17.28 
L 198.905853 127.550769 
L 198.381452 127.550769 
L 198.25393 107.462867 
z
M 197.568175 86.996839 
L 198.122504 86.996839 
L 197.845773 43.134312 
L 197.568175 86.996839 
z
" clip-path="url(#p5bf75c3937)" style="fill: #008000"/>
   </g>
   <g id="patch_90">
    <path d="M 199.017509 17.28 
L 201.138969 17.28 
L 201.138969 38.904689 
L 200.375737 38.904689 
L 200.375737 128.16 
L 199.782221 128.16 
L 199.782221 38.904689 
L 199.017509 38.904689 
L 199.017509 17.28 
z
" clip-path="url(#p5bf75c3937)" style="fill: #ff0000"/>
   </g>
   <g id="patch_91">
    <path d="M 203.372086 118.127891 
Q 203.158133 123.143945 202.928015 125.663425 
Q 202.697897 128.16 202.452565 128.16 
Q 201.898189 128.16 201.574407 113.226358 
Q 201.250625 98.292716 201.250625 72.754357 
Q 201.250625 46.91824 201.580113 32.09912 
Q 201.910075 17.28 202.483944 17.28 
Q 202.705029 17.28 202.907571 19.295584 
Q 203.110588 21.288263 203.290309 25.227812 
L 203.290309 47.330518 
Q 203.104883 42.268655 202.921359 39.77208 
Q 202.737835 37.252601 202.55336 37.252601 
Q 202.211986 37.252601 202.027036 46.460153 
Q 201.842086 55.644801 201.842086 72.754357 
Q 201.842086 89.703582 202.02038 98.956943 
Q 202.198674 108.187399 202.526735 108.187399 
Q 202.61612 108.187399 202.692667 107.660599 
Q 202.769215 107.110894 202.830072 105.965677 
L 202.830072 85.214328 
L 202.480616 85.214328 
L 202.480616 66.73051 
L 203.372086 66.73051 
L 203.372086 118.127891 
z
" clip-path="url(#p5bf75c3937)" style="fill: #ffa600"/>
   </g>
   <g id="patch_92">
    <path d="M 203.483742 127.550769 
L 205.605203 127.550769 
L 205.605203 127.669586 
L 204.84197 127.669586 
L 204.84197 128.16 
L 204.248454 128.16 
L 204.248454 127.669586 
L 203.483742 127.669586 
L 203.483742 127.550769 
z
" clip-path="url(#p5bf75c3937)" style="fill: #ff0000"/>
   </g>
   <g id="patch_93">
    <path d="M 204.95328 127.328803 
L 204.1374 127.328803 
L 204.008577 127.550769 
L 203.483742 127.550769 
L 204.233258 126.332308 
L 204.855686 126.332308 
L 205.605203 127.550769 
L 205.080801 127.550769 
L 204.95328 127.328803 
z
M 204.267524 127.10266 
L 204.821854 127.10266 
L 204.545123 126.617991 
L 204.267524 127.10266 
z
" clip-path="url(#p5bf75c3937)" style="fill: #008000"/>
   </g>
   <g id="patch_94">
    <path d="M 205.605203 118.515503 
Q 205.427746 122.390115 205.235858 124.349948 
Q 205.04397 126.332308 204.834977 126.332308 
Q 204.211741 126.332308 203.847742 111.644825 
Q 203.483742 96.957342 203.483742 71.839944 
Q 203.483742 46.632439 203.847742 31.967483 
Q 204.211741 17.28 204.834977 17.28 
Q 205.04397 17.28 205.235858 19.26236 
Q 205.427746 21.222192 205.605203 25.096805 
L 205.605203 46.83518 
Q 205.426143 41.699067 205.252428 39.311224 
Q 205.078713 36.923382 204.886824 36.923382 
Q 204.542601 36.923382 204.345368 46.226956 
Q 204.148669 55.508004 204.148669 71.839944 
Q 204.148669 88.104304 204.345368 97.407878 
Q 204.542601 106.688926 204.886824 106.688926 
Q 205.078713 106.688926 205.252428 104.301083 
Q 205.426143 101.890714 205.605203 96.754601 
L 205.605203 118.515503 
z
" clip-path="url(#p5bf75c3937)" style="fill: #0000ff"/>
   </g>
   <g id="patch_95">
    <path d="M 207.838319 120.212188 
Q 207.660863 124.151737 207.468974 126.144416 
Q 207.277086 128.16 207.068094 128.16 
Q 206.444858 128.16 206.080858 113.226358 
Q 205.716858 98.292716 205.716858 72.754357 
Q 205.716858 47.124379 206.080858 32.213642 
Q 206.444858 17.28 207.068094 17.28 
Q 207.277086 17.28 207.468974 19.295584 
Q 207.660863 21.288263 207.838319 25.227812 
L 207.838319 47.330518 
Q 207.659259 42.108325 207.485544 39.680463 
Q 207.311829 37.252601 207.119941 37.252601 
Q 206.775718 37.252601 206.578485 46.712101 
Q 206.381786 56.148697 206.381786 72.754357 
Q 206.381786 89.291303 206.578485 98.750804 
Q 206.775718 108.187399 207.119941 108.187399 
Q 207.311829 108.187399 207.485544 105.759537 
Q 207.659259 103.308771 207.838319 98.086577 
L 207.838319 120.212188 
z
" clip-path="url(#p5bf75c3937)" style="fill: #0000ff"/>
   </g>
   <g id="patch_96">
    <path d="M 209.419513 107.961114 
L 208.603633 107.961114 
L 208.47481 128.16 
L 207.949975 128.16 
L 208.699491 17.28 
L 209.321919 17.28 
L 210.071436 128.16 
L 209.547035 128.16 
L 209.419513 107.961114 
z
M 208.733757 87.382015 
L 209.288087 87.382015 
L 209.011356 43.277154 
L 208.733757 87.382015 
z
" clip-path="url(#p5bf75c3937)" style="fill: #008000"/>
   </g>
   <g id="patch_97">
    <path d="M 211.652629 107.961114 
L 210.83675 107.961114 
L 210.707926 128.16 
L 210.183092 128.16 
L 210.932608 17.28 
L 211.555036 17.28 
L 212.304552 128.16 
L 211.780151 128.16 
L 211.652629 107.961114 
z
M 210.966874 87.382015 
L 211.521204 87.382015 
L 211.244473 43.277154 
L 210.966874 87.382015 
z
" clip-path="url(#p5bf75c3937)" style="fill: #008000"/>
   </g>
   <g id="patch_98">
    <path d="M 214.537669 126.506356 
Q 214.323716 127.333178 214.093598 127.748477 
Q 213.86348 128.16 213.618147 128.16 
Q 213.063772 128.16 212.73999 125.698411 
Q 212.416208 123.236821 212.416208 119.027202 
Q 212.416208 114.768501 212.745695 112.325789 
Q 213.075658 109.883077 213.649527 109.883077 
Q 213.870612 109.883077 214.073154 110.215316 
Q 214.276171 110.54378 214.455891 111.193156 
L 214.455891 114.836459 
Q 214.270466 114.002086 214.086942 113.590563 
Q 213.903418 113.175264 213.718943 113.175264 
Q 213.377569 113.175264 213.192619 114.692992 
Q 213.007669 116.206945 213.007669 119.027202 
Q 213.007669 121.82103 213.185963 123.346309 
Q 213.364257 124.867813 213.692318 124.867813 
Q 213.781702 124.867813 213.85825 124.780978 
Q 213.934797 124.690367 213.995655 124.501595 
L 213.995655 121.081043 
L 213.646199 121.081043 
L 213.646199 118.03426 
L 214.537669 118.03426 
L 214.537669 126.506356 
z
" clip-path="url(#p5bf75c3937)" style="fill: #ffa600"/>
   </g>
   <g id="patch_99">
    <path d="M 214.537669 103.245343 
Q 214.360212 106.535517 214.168324 108.199732 
Q 213.976436 109.883077 213.767443 109.883077 
Q 213.144207 109.883077 212.780208 97.411024 
Q 212.416208 84.938972 212.416208 63.610232 
Q 212.416208 42.204976 212.780208 29.752053 
Q 213.144207 17.28 213.767443 17.28 
Q 213.976436 17.28 214.168324 18.963345 
Q 214.360212 20.62756 214.537669 23.917733 
L 214.537669 42.377136 
Q 214.358609 38.015744 214.184894 35.988079 
Q 214.011179 33.960414 213.819291 33.960414 
Q 213.475068 33.960414 213.277834 41.860656 
Q 213.081136 49.741769 213.081136 63.610232 
Q 213.081136 77.421308 213.277834 85.32155 
Q 213.475068 93.202663 213.819291 93.202663 
Q 214.011179 93.202663 214.184894 91.174998 
Q 214.358609 89.128204 214.537669 84.766812 
L 214.537669 103.245343 
z
" clip-path="url(#p5bf75c3937)" style="fill: #0000ff"/>
   </g>
   <g id="patch_100">
    <path d="M 214.649325 17.28 
L 216.770785 17.28 
L 216.770785 38.904689 
L 216.007553 38.904689 
L 216.007553 128.16 
L 215.414037 128.16 
L 215.414037 38.904689 
L 214.649325 38.904689 
L 214.649325 17.28 
z
" clip-path="url(#p5bf75c3937)" style="fill: #ff0000"/>
   </g>
   <g id="patch_101">
    <path d="M 216.882441 17.28 
L 219.003902 17.28 
L 219.003902 38.904689 
L 218.240669 38.904689 
L 218.240669 128.16 
L 217.647154 128.16 
L 217.647154 38.904689 
L 216.882441 38.904689 
L 216.882441 17.28 
z
" clip-path="url(#p5bf75c3937)" style="fill: #ff0000"/>
   </g>
   <g id="patch_102">
    <path d="M 219.115558 17.28 
L 221.237019 17.28 
L 221.237019 38.904689 
L 220.473786 38.904689 
L 220.473786 128.16 
L 219.88027 128.16 
L 219.88027 38.904689 
L 219.115558 38.904689 
L 219.115558 17.28 
z
" clip-path="url(#p5bf75c3937)" style="fill: #ff0000"/>
   </g>
   <g id="patch_103">
    <path d="M 223.470135 118.127891 
Q 223.256182 123.143945 223.026064 125.663425 
Q 222.795946 128.16 222.550614 128.16 
Q 221.996238 128.16 221.672456 113.226358 
Q 221.348674 98.292716 221.348674 72.754357 
Q 221.348674 46.91824 221.678162 32.09912 
Q 222.008124 17.28 222.581993 17.28 
Q 222.803078 17.28 223.00562 19.295584 
Q 223.208637 21.288263 223.388358 25.227812 
L 223.388358 47.330518 
Q 223.202932 42.268655 223.019408 39.77208 
Q 222.835884 37.252601 222.651409 37.252601 
Q 222.310036 37.252601 222.125085 46.460153 
Q 221.940135 55.644801 221.940135 72.754357 
Q 221.940135 89.703582 222.118429 98.956943 
Q 222.296723 108.187399 222.624784 108.187399 
Q 222.714169 108.187399 222.790716 107.660599 
Q 222.867264 107.110894 222.928121 105.965677 
L 222.928121 85.214328 
L 222.578665 85.214328 
L 222.578665 66.73051 
L 223.470135 66.73051 
L 223.470135 118.127891 
z
" clip-path="url(#p5bf75c3937)" style="fill: #ffa600"/>
   </g>
   <g id="patch_104">
    <path d="M 223.581791 17.28 
L 225.703252 17.28 
L 225.703252 38.904689 
L 224.940019 38.904689 
L 224.940019 128.16 
L 224.346503 128.16 
L 224.346503 38.904689 
L 223.581791 38.904689 
L 223.581791 17.28 
z
" clip-path="url(#p5bf75c3937)" style="fill: #ff0000"/>
   </g>
   <g id="patch_105">
    <path d="M 227.284445 107.961114 
L 226.468565 107.961114 
L 226.339742 128.16 
L 225.814907 128.16 
L 226.564424 17.28 
L 227.186852 17.28 
L 227.936368 128.16 
L 227.411967 128.16 
L 227.284445 107.961114 
z
M 226.59869 87.382015 
L 227.15302 87.382015 
L 226.876288 43.277154 
L 226.59869 87.382015 
z
" clip-path="url(#p5bf75c3937)" style="fill: #008000"/>
   </g>
   <g id="patch_106">
    <path d="M 230.169485 120.212188 
Q 229.992028 124.151737 229.80014 126.144416 
Q 229.608252 128.16 229.399259 128.16 
Q 228.776023 128.16 228.412024 113.226358 
Q 228.048024 98.292716 228.048024 72.754357 
Q 228.048024 47.124379 228.412024 32.213642 
Q 228.776023 17.28 229.399259 17.28 
Q 229.608252 17.28 229.80014 19.295584 
Q 229.992028 21.288263 230.169485 25.227812 
L 230.169485 47.330518 
Q 229.990425 42.108325 229.81671 39.680463 
Q 229.642995 37.252601 229.451107 37.252601 
Q 229.106884 37.252601 228.90965 46.712101 
Q 228.712951 56.148697 228.712951 72.754357 
Q 228.712951 89.291303 228.90965 98.750804 
Q 229.106884 108.187399 229.451107 108.187399 
Q 229.642995 108.187399 229.81671 105.759537 
Q 229.990425 103.308771 230.169485 98.086577 
L 230.169485 120.212188 
z
" clip-path="url(#p5bf75c3937)" style="fill: #0000ff"/>
   </g>
   <g id="patch_107">
    <path d="M 231.750678 107.961114 
L 230.934799 107.961114 
L 230.805975 128.16 
L 230.281141 128.16 
L 231.030657 17.28 
L 231.653085 17.28 
L 232.402601 128.16 
L 231.8782 128.16 
L 231.750678 107.961114 
z
M 231.064923 87.382015 
L 231.619253 87.382015 
L 231.342522 43.277154 
L 231.064923 87.382015 
z
" clip-path="url(#p5bf75c3937)" style="fill: #008000"/>
   </g>
   <g id="patch_108">
    <path d="M 233.983795 107.961114 
L 233.167915 107.961114 
L 233.039092 128.16 
L 232.514257 128.16 
L 233.263773 17.28 
L 233.886202 17.28 
L 234.635718 128.16 
L 234.111317 128.16 
L 233.983795 107.961114 
z
M 233.298039 87.382015 
L 233.852369 87.382015 
L 233.575638 43.277154 
L 233.298039 87.382015 
z
" clip-path="url(#p5bf75c3937)" style="fill: #008000"/>
   </g>
   <g id="patch_109">
    <path d="M 236.216911 107.961114 
L 235.401032 107.961114 
L 235.272209 128.16 
L 234.747374 128.16 
L 235.49689 17.28 
L 236.119318 17.28 
L 236.868834 128.16 
L 236.344433 128.16 
L 236.216911 107.961114 
z
M 235.531156 87.382015 
L 236.085486 87.382015 
L 235.808755 43.277154 
L 235.531156 87.382015 
z
" clip-path="url(#p5bf75c3937)" style="fill: #008000"/>
   </g>
   <g id="patch_110">
    <path d="M 238.450028 107.961114 
L 237.634148 107.961114 
L 237.505325 128.16 
L 236.98049 128.16 
L 237.730007 17.28 
L 238.352435 17.28 
L 239.101951 128.16 
L 238.57755 128.16 
L 238.450028 107.961114 
z
M 237.764273 87.382015 
L 238.318602 87.382015 
L 238.041871 43.277154 
L 237.764273 87.382015 
z
" clip-path="url(#p5bf75c3937)" style="fill: #008000"/>
   </g>
   <g id="patch_111">
    <path d="M 240.683145 107.961114 
L 239.867265 107.961114 
L 239.738442 128.16 
L 239.213607 128.16 
L 239.963123 17.28 
L 240.585551 17.28 
L 241.335068 128.16 
L 240.810666 128.16 
L 240.683145 107.961114 
z
M 239.997389 87.382015 
L 240.551719 87.382015 
L 240.274988 43.277154 
L 239.997389 87.382015 
z
" clip-path="url(#p5bf75c3937)" style="fill: #008000"/>
   </g>
   <g id="patch_112">
    <path d="M 242.916261 107.961114 
L 242.100381 107.961114 
L 241.971558 128.16 
L 241.446723 128.16 
L 242.19624 17.28 
L 242.818668 17.28 
L 243.568184 128.16 
L 243.043783 128.16 
L 242.916261 107.961114 
z
M 242.230506 87.382015 
L 242.784835 87.382015 
L 242.508104 43.277154 
L 242.230506 87.382015 
z
" clip-path="url(#p5bf75c3937)" style="fill: #008000"/>
   </g>
   <g id="patch_113">
    <path d="M 245.149378 128.049017 
L 244.333498 128.049017 
L 244.204675 128.16 
L 243.67984 128.16 
L 244.429356 127.550769 
L 245.051784 127.550769 
L 245.801301 128.16 
L 245.2769 128.16 
L 245.149378 128.049017 
z
M 244.463622 127.935945 
L 245.017952 127.935945 
L 244.741221 127.693611 
L 244.463622 127.935945 
z
" clip-path="url(#p5bf75c3937)" style="fill: #008000"/>
   </g>
   <g id="patch_114">
    <path d="M 243.67984 124.504615 
L 245.801301 124.504615 
L 245.801301 125.0987 
L 245.038068 125.0987 
L 245.038068 127.550769 
L 244.444553 127.550769 
L 244.444553 125.0987 
L 243.67984 125.0987 
L 243.67984 124.504615 
z
" clip-path="url(#p5bf75c3937)" style="fill: #ff0000"/>
   </g>
   <g id="patch_115">
    <path d="M 245.801301 114.803235 
Q 245.587348 119.653925 245.35723 122.090345 
Q 245.127112 124.504615 244.881779 124.504615 
Q 244.327404 124.504615 244.003622 110.063291 
Q 243.67984 95.621967 243.67984 70.925532 
Q 243.67984 45.941155 244.009327 31.610578 
Q 244.33929 17.28 244.913159 17.28 
Q 245.134243 17.28 245.336785 19.229136 
Q 245.539803 21.156122 245.719523 24.965797 
L 245.719523 46.339842 
Q 245.534097 41.444853 245.350573 39.030583 
Q 245.16705 36.594163 244.982575 36.594163 
Q 244.641201 36.594163 244.456251 45.49817 
Q 244.271301 54.380027 244.271301 70.925532 
Q 244.271301 87.315991 244.449594 96.264296 
Q 244.627888 105.190452 244.955949 105.190452 
Q 245.045334 105.190452 245.121882 104.681019 
Q 245.198429 104.149436 245.259287 103.041973 
L 245.259287 82.974734 
L 244.909831 82.974734 
L 244.909831 65.100274 
L 245.801301 65.100274 
L 245.801301 114.803235 
z
" clip-path="url(#p5bf75c3937)" style="fill: #ffa600"/>
   </g>
   <g id="patch_116">
    <path d="M 248.034417 128.104879 
Q 247.820464 128.132439 247.590346 128.146283 
Q 247.360228 128.16 247.114896 128.16 
Q 246.56052 128.16 246.236738 128.077947 
Q 245.912956 127.995894 245.912956 127.855573 
Q 245.912956 127.713617 246.242444 127.632193 
Q 246.572407 127.550769 247.146275 127.550769 
Q 247.36736 127.550769 247.569902 127.561844 
Q 247.772919 127.572793 247.95264 127.594439 
L 247.95264 127.715882 
Q 247.767214 127.68807 247.58369 127.674352 
Q 247.400166 127.660509 247.215691 127.660509 
Q 246.874318 127.660509 246.689367 127.7111 
Q 246.504417 127.761565 246.504417 127.855573 
Q 246.504417 127.948701 246.682711 127.999544 
Q 246.861005 128.05026 247.189066 128.05026 
Q 247.278451 128.05026 247.354998 128.047366 
Q 247.431546 128.044346 247.492403 128.038053 
L 247.492403 127.924035 
L 247.142947 127.924035 
L 247.142947 127.822475 
L 248.034417 127.822475 
L 248.034417 128.104879 
z
" clip-path="url(#p5bf75c3937)" style="fill: #ffa600"/>
   </g>
   <g id="patch_117">
    <path d="M 247.382494 126.662906 
L 246.566614 126.662906 
L 246.437791 127.550769 
L 245.912956 127.550769 
L 246.662473 122.676923 
L 247.284901 122.676923 
L 248.034417 127.550769 
L 247.510016 127.550769 
L 247.382494 126.662906 
z
M 246.696739 125.75833 
L 247.251069 125.75833 
L 246.974337 123.819655 
L 246.696739 125.75833 
z
" clip-path="url(#p5bf75c3937)" style="fill: #008000"/>
   </g>
   <g id="patch_118">
    <path d="M 245.912956 72.110769 
L 248.034417 72.110769 
L 248.034417 81.972578 
L 247.271185 81.972578 
L 247.271185 122.676923 
L 246.677669 122.676923 
L 246.677669 81.972578 
L 245.912956 81.972578 
L 245.912956 72.110769 
z
" clip-path="url(#p5bf75c3937)" style="fill: #ff0000"/>
   </g>
   <g id="patch_119">
    <path d="M 248.034417 68.180532 
Q 247.856961 70.128661 247.665072 71.114052 
Q 247.473184 72.110769 247.264192 72.110769 
Q 246.640956 72.110769 246.276956 64.726001 
Q 245.912956 57.341233 245.912956 44.712374 
Q 245.912956 32.03821 246.276956 24.664768 
Q 246.640956 17.28 247.264192 17.28 
Q 247.473184 17.28 247.665072 18.276717 
Q 247.856961 19.262108 248.034417 21.210237 
L 248.034417 32.140147 
Q 247.855357 29.557743 247.681642 28.357152 
Q 247.507927 27.156561 247.316039 27.156561 
Q 246.971816 27.156561 246.774583 31.834336 
Q 246.577884 36.500784 246.577884 44.712374 
Q 246.577884 52.889985 246.774583 57.56776 
Q 246.971816 62.234208 247.316039 62.234208 
Q 247.507927 62.234208 247.681642 61.033617 
Q 247.855357 59.8217 248.034417 57.239296 
L 248.034417 68.180532 
z
" clip-path="url(#p5bf75c3937)" style="fill: #0000ff"/>
   </g>
   <g id="patch_120">
    <path d="M 250.267534 127.553664 
Q 250.053581 127.856832 249.823463 128.009108 
Q 249.593345 128.16 249.348012 128.16 
Q 248.793637 128.16 248.469855 127.257417 
Q 248.146073 126.354835 248.146073 124.811307 
Q 248.146073 123.249784 248.47556 122.354123 
Q 248.805523 121.458462 249.379392 121.458462 
Q 249.600477 121.458462 249.803018 121.580283 
Q 250.006036 121.700719 250.185756 121.938824 
L 250.185756 123.274702 
Q 250.000331 122.968765 249.816807 122.817873 
Q 249.633283 122.665597 249.448808 122.665597 
Q 249.107434 122.665597 248.922484 123.222097 
Q 248.737534 123.777213 248.737534 124.811307 
Q 248.737534 125.835711 248.915828 126.39498 
Q 249.094122 126.952865 249.422183 126.952865 
Q 249.511567 126.952865 249.588115 126.921025 
Q 249.664662 126.887801 249.72552 126.818585 
L 249.72552 125.564382 
L 249.376064 125.564382 
L 249.376064 124.447229 
L 250.267534 124.447229 
L 250.267534 127.553664 
z
" clip-path="url(#p5bf75c3937)" style="fill: #ffa600"/>
   </g>
   <g id="patch_121">
    <path d="M 249.615611 114.022608 
L 248.799731 114.022608 
L 248.670908 121.458462 
L 248.146073 121.458462 
L 248.895589 80.64 
L 249.518017 80.64 
L 250.267534 121.458462 
L 249.743133 121.458462 
L 249.615611 114.022608 
z
M 248.929855 106.446786 
L 249.484185 106.446786 
L 249.207454 90.210381 
L 248.929855 106.446786 
z
" clip-path="url(#p5bf75c3937)" style="fill: #008000"/>
   </g>
   <g id="patch_122">
    <path d="M 248.146073 17.28 
L 250.267534 17.28 
L 250.267534 29.636965 
L 249.504301 29.636965 
L 249.504301 80.64 
L 248.910786 80.64 
L 248.910786 29.636965 
L 248.146073 29.636965 
L 248.146073 17.28 
z
" clip-path="url(#p5bf75c3937)" style="fill: #ff0000"/>
   </g>
   <g id="patch_123">
    <path d="M 252.50065 118.127891 
Q 252.286698 123.143945 252.056579 125.663425 
Q 251.826461 128.16 251.581129 128.16 
Q 251.026753 128.16 250.702971 113.226358 
Q 250.37919 98.292716 250.37919 72.754357 
Q 250.37919 46.91824 250.708677 32.09912 
Q 251.03864 17.28 251.612509 17.28 
Q 251.833593 17.28 252.036135 19.295584 
Q 252.239152 21.288263 252.418873 25.227812 
L 252.418873 47.330518 
Q 252.233447 42.268655 252.049923 39.77208 
Q 251.866399 37.252601 251.681924 37.252601 
Q 251.340551 37.252601 251.1556 46.460153 
Q 250.97065 55.644801 250.97065 72.754357 
Q 250.97065 89.703582 251.148944 98.956943 
Q 251.327238 108.187399 251.655299 108.187399 
Q 251.744684 108.187399 251.821231 107.660599 
Q 251.897779 107.110894 251.958637 105.965677 
L 251.958637 85.214328 
L 251.60918 85.214328 
L 251.60918 66.73051 
L 252.50065 66.73051 
L 252.50065 118.127891 
z
" clip-path="url(#p5bf75c3937)" style="fill: #ffa600"/>
   </g>
   <g id="patch_124">
    <path d="M 252.612306 124.504615 
L 254.733767 124.504615 
L 254.733767 125.217517 
L 253.970534 125.217517 
L 253.970534 128.16 
L 253.377019 128.16 
L 253.377019 125.217517 
L 252.612306 125.217517 
L 252.612306 124.504615 
z
" clip-path="url(#p5bf75c3937)" style="fill: #ff0000"/>
   </g>
   <g id="patch_125">
    <path d="M 254.733767 123.281875 
Q 254.55631 123.88796 254.364422 124.194526 
Q 254.172534 124.504615 253.963541 124.504615 
Q 253.340306 124.504615 252.976306 122.207132 
Q 252.612306 119.909649 252.612306 115.98067 
Q 252.612306 112.037597 252.976306 109.743637 
Q 253.340306 107.446154 253.963541 107.446154 
Q 254.172534 107.446154 254.364422 107.756244 
Q 254.55631 108.06281 254.733767 108.668894 
L 254.733767 112.069311 
Q 254.554707 111.265896 254.380992 110.892379 
Q 254.207277 110.518862 254.015389 110.518862 
Q 253.671166 110.518862 253.473932 111.974169 
Q 253.277234 113.425953 253.277234 115.98067 
Q 253.277234 118.524816 253.473932 119.980124 
Q 253.671166 121.431908 254.015389 121.431908 
Q 254.207277 121.431908 254.380992 121.05839 
Q 254.554707 120.681349 254.733767 119.877935 
L 254.733767 123.281875 
z
" clip-path="url(#p5bf75c3937)" style="fill: #0000ff"/>
   </g>
   <g id="patch_126">
    <path d="M 254.081844 102.895855 
L 253.265964 102.895855 
L 253.137141 107.446154 
L 252.612306 107.446154 
L 253.361822 82.467692 
L 253.984251 82.467692 
L 254.733767 107.446154 
L 254.209366 107.446154 
L 254.081844 102.895855 
z
M 253.396089 98.259904 
L 253.950418 98.259904 
L 253.673687 88.324194 
L 253.396089 98.259904 
z
" clip-path="url(#p5bf75c3937)" style="fill: #008000"/>
   </g>
   <g id="patch_127">
    <path d="M 254.733767 76.569694 
Q 254.519814 79.518693 254.289696 80.999926 
Q 254.059578 82.467692 253.814245 82.467692 
Q 253.25987 82.467692 252.936088 73.688024 
Q 252.612306 64.908355 252.612306 49.894045 
Q 252.612306 34.70468 252.941793 25.99234 
Q 253.271756 17.28 253.845625 17.28 
Q 254.06671 17.28 254.269252 18.464986 
Q 254.472269 19.636506 254.651989 21.952615 
L 254.651989 34.947063 
Q 254.466564 31.971132 254.28304 30.503366 
Q 254.099516 29.022133 253.915041 29.022133 
Q 253.573667 29.022133 253.388717 34.435365 
Q 253.203767 39.83513 253.203767 49.894045 
Q 253.203767 59.858699 253.382061 65.298862 
Q 253.560355 70.725559 253.888416 70.725559 
Q 253.9778 70.725559 254.054348 70.415847 
Q 254.130895 70.092669 254.191753 69.419381 
L 254.191753 57.219412 
L 253.842297 57.219412 
L 253.842297 46.352553 
L 254.733767 46.352553 
L 254.733767 76.569694 
z
" clip-path="url(#p5bf75c3937)" style="fill: #ffa600"/>
   </g>
   <g id="patch_128">
    <path d="M 256.966883 127.222935 
Q 256.752931 127.691467 256.522813 127.926803 
Q 256.292694 128.16 256.047362 128.16 
Q 255.492986 128.16 255.169205 126.765099 
Q 254.845423 125.370199 254.845423 122.984748 
Q 254.845423 120.571484 255.17491 119.18728 
Q 255.504873 117.803077 256.078742 117.803077 
Q 256.299826 117.803077 256.502368 117.991346 
Q 256.705386 118.177475 256.885106 118.545455 
L 256.885106 120.609993 
Q 256.69968 120.137182 256.516156 119.903986 
Q 256.332632 119.66865 256.148157 119.66865 
Q 255.806784 119.66865 255.621834 120.528696 
Q 255.436883 121.386602 255.436883 122.984748 
Q 255.436883 124.567917 255.615177 125.432242 
Q 255.793471 126.294427 256.121532 126.294427 
Q 256.210917 126.294427 256.287464 126.245221 
Q 256.364012 126.193875 256.42487 126.086904 
L 256.42487 124.148591 
L 256.075414 124.148591 
L 256.075414 122.422081 
L 256.966883 122.422081 
L 256.966883 127.222935 
z
" clip-path="url(#p5bf75c3937)" style="fill: #ffa600"/>
   </g>
   <g id="patch_129">
    <path d="M 256.31496 115.583419 
L 255.499081 115.583419 
L 255.370258 117.803077 
L 254.845423 117.803077 
L 255.594939 105.618462 
L 256.217367 105.618462 
L 256.966883 117.803077 
L 256.442482 117.803077 
L 256.31496 115.583419 
z
M 255.629205 113.32198 
L 256.183535 113.32198 
L 255.906804 108.475292 
L 255.629205 113.32198 
z
" clip-path="url(#p5bf75c3937)" style="fill: #008000"/>
   </g>
   <g id="patch_130">
    <path d="M 254.845423 80.64 
L 256.966883 80.64 
L 256.966883 85.511496 
L 256.203651 85.511496 
L 256.203651 105.618462 
L 255.610135 105.618462 
L 255.610135 85.511496 
L 254.845423 85.511496 
L 254.845423 80.64 
z
" clip-path="url(#p5bf75c3937)" style="fill: #ff0000"/>
   </g>
   <g id="patch_131">
    <path d="M 256.966883 76.098393 
Q 256.789427 78.349564 256.597539 79.488238 
Q 256.40565 80.64 256.196658 80.64 
Q 255.573422 80.64 255.209422 72.10649 
Q 254.845423 63.572981 254.845423 48.979632 
Q 254.845423 34.333931 255.209422 25.81351 
Q 255.573422 17.28 256.196658 17.28 
Q 256.40565 17.28 256.597539 18.431762 
Q 256.789427 19.570436 256.966883 21.821607 
L 256.966883 34.451725 
Q 256.787823 31.467614 256.614108 30.080264 
Q 256.440393 28.692915 256.248505 28.692915 
Q 255.904282 28.692915 255.707049 34.098343 
Q 255.51035 39.490684 255.51035 48.979632 
Q 255.51035 58.429316 255.707049 63.834745 
Q 255.904282 69.227085 256.248505 69.227085 
Q 256.440393 69.227085 256.614108 67.839736 
Q 256.787823 66.439298 256.966883 63.455187 
L 256.966883 76.098393 
z
" clip-path="url(#p5bf75c3937)" style="fill: #0000ff"/>
   </g>
   <g id="patch_132">
    <path d="M 259.2 127.111937 
Q 259.022543 127.631438 258.830655 127.894209 
Q 258.638767 128.16 258.429775 128.16 
Q 257.806539 128.16 257.442539 126.190729 
Q 257.078539 124.221457 257.078539 120.853761 
Q 257.078539 117.473984 257.442539 115.507733 
Q 257.806539 113.538462 258.429775 113.538462 
Q 258.638767 113.538462 258.830655 113.804253 
Q 259.022543 114.067024 259.2 114.586525 
L 259.2 117.501167 
Q 259.02094 116.812526 258.847225 116.492369 
Q 258.67351 116.172211 258.481622 116.172211 
Q 258.137399 116.172211 257.940166 117.419618 
Q 257.743467 118.664004 257.743467 120.853761 
Q 257.743467 123.034458 257.940166 124.281864 
Q 258.137399 125.52625 258.481622 125.52625 
Q 258.67351 125.52625 258.847225 125.206093 
Q 259.02094 124.882915 259.2 124.194274 
L 259.2 127.111937 
z
" clip-path="url(#p5bf75c3937)" style="fill: #0000ff"/>
   </g>
   <g id="patch_133">
    <path d="M 259.2 111.554088 
Q 258.986047 112.546275 258.755929 113.044633 
Q 258.525811 113.538462 258.280478 113.538462 
Q 257.726103 113.538462 257.402321 110.584554 
Q 257.078539 107.630647 257.078539 102.579103 
Q 257.078539 97.468663 257.408027 94.537408 
Q 257.737989 91.606154 258.311858 91.606154 
Q 258.532943 91.606154 258.735485 92.004841 
Q 258.938502 92.398997 259.118222 93.178249 
L 259.118222 97.550212 
Q 258.932797 96.548965 258.749273 96.055137 
Q 258.565749 95.556778 258.381274 95.556778 
Q 258.0399 95.556778 257.85495 97.378052 
Q 257.67 99.194796 257.67 102.579103 
Q 257.67 105.931698 257.848294 107.762033 
Q 258.026588 109.587837 258.354649 109.587837 
Q 258.444033 109.587837 258.520581 109.483635 
Q 258.597129 109.374902 258.657986 109.148376 
L 258.657986 105.043713 
L 258.30853 105.043713 
L 258.30853 101.387573 
L 259.2 101.387573 
L 259.2 111.554088 
z
" clip-path="url(#p5bf75c3937)" style="fill: #ffa600"/>
   </g>
   <g id="patch_134">
    <path d="M 257.078539 66.627692 
L 259.2 66.627692 
L 259.2 71.499188 
L 258.436768 71.499188 
L 258.436768 91.606154 
L 257.843252 91.606154 
L 257.843252 71.499188 
L 257.078539 71.499188 
L 257.078539 66.627692 
z
" clip-path="url(#p5bf75c3937)" style="fill: #ff0000"/>
   </g>
   <g id="patch_135">
    <path d="M 258.548077 57.638078 
L 257.732197 57.638078 
L 257.603374 66.627692 
L 257.078539 66.627692 
L 257.828056 17.28 
L 258.450484 17.28 
L 259.2 66.627692 
L 258.675599 66.627692 
L 258.548077 57.638078 
z
M 257.862322 48.479248 
L 258.416651 48.479248 
L 258.13992 28.850162 
L 257.862322 48.479248 
z
" clip-path="url(#p5bf75c3937)" style="fill: #008000"/>
   </g>
  </g>
 </g>
 <defs>
  <clipPath id="p5bf75c3937">
   <rect x="36" y="17.28" width="223.2" height="110.88"/>
  </clipPath>
 </defs>
</svg>
