<?xml version="1.0" encoding="utf-8" standalone="no"?>
<!DOCTYPE svg PUBLIC "-//W3C//DTD SVG 1.1//EN"
  "http://www.w3.org/Graphics/SVG/1.1/DTD/svg11.dtd">
<svg xmlns:xlink="http://www.w3.org/1999/xlink" width="288pt" height="144pt" viewBox="0 0 288 144" xmlns="http://www.w3.org/2000/svg" version="1.1">
 <metadata>
  <rdf:RDF xmlns:dc="http://purl.org/dc/elements/1.1/" xmlns:cc="http://creativecommons.org/ns#" xmlns:rdf="http://www.w3.org/1999/02/22-rdf-syntax-ns#">
   <cc:Work>
    <dc:type rdf:resource="http://purl.org/dc/dcmitype/StillImage"/>
    <dc:date>2024-11-11T17:03:44.602328</dc:date>
    <dc:format>image/svg+xml</dc:format>
    <dc:creator>
     <cc:Agent>
      <dc:title>Matplotlib v3.9.2, https://matplotlib.org/</dc:title>
     </cc:Agent>
    </dc:creator>
   </cc:Work>
  </rdf:RDF>
 </metadata>
 <defs>
  <style type="text/css">*{stroke-linejoin: round; stroke-linecap: butt}</style>
 </defs>
 <g id="figure_1">
  <g id="patch_1">
   <path d="M 0 144 
L 288 144 
L 288 0 
L 0 0 
z
" style="fill: #ffffff"/>
  </g>
  <g id="axes_1">
   <g id="line2d_1">
    <path d="M 36 128.16 
L 259.2 128.16 
" clip-path="url(#p340722fd0a)" style="fill: none; stroke: #000000; stroke-width: 0.5; stroke-linecap: square"/>
   </g>
   <g id="patch_2">
    <path d="M 37.5308 107.961114 
L 36.680908 107.961114 
L 36.546714 128.16 
L 36 128.16 
L 36.780762 17.28 
L 37.429139 17.28 
L 38.209901 128.16 
L 37.663638 128.16 
L 37.5308 107.961114 
z
M 36.816457 87.382015 
L 37.393896 87.382015 
L 37.105628 43.277154 
L 36.816457 87.382015 
z
" clip-path="url(#p340722fd0a)" style="fill: #008000"/>
   </g>
   <g id="patch_3">
    <path d="M 39.857012 107.961114 
L 39.00712 107.961114 
L 38.872926 128.16 
L 38.326212 128.16 
L 39.106974 17.28 
L 39.75535 17.28 
L 40.536113 128.16 
L 39.98985 128.16 
L 39.857012 107.961114 
z
M 39.142669 87.382015 
L 39.720107 87.382015 
L 39.43184 43.277154 
L 39.142669 87.382015 
z
" clip-path="url(#p340722fd0a)" style="fill: #008000"/>
   </g>
   <g id="patch_4">
    <path d="M 42.183223 107.961114 
L 41.333331 107.961114 
L 41.199138 128.16 
L 40.652423 128.16 
L 41.433186 17.28 
L 42.081562 17.28 
L 42.862324 128.16 
L 42.316062 128.16 
L 42.183223 107.961114 
z
M 41.46888 87.382015 
L 42.046319 87.382015 
L 41.758051 43.277154 
L 41.46888 87.382015 
z
" clip-path="url(#p340722fd0a)" style="fill: #008000"/>
   </g>
   <g id="patch_5">
    <path d="M 42.978635 17.28 
L 45.188536 17.28 
L 45.188536 38.904689 
L 44.393485 38.904689 
L 44.393485 128.16 
L 43.775227 128.16 
L 43.775227 38.904689 
L 42.978635 38.904689 
L 42.978635 17.28 
z
" clip-path="url(#p340722fd0a)" style="fill: #ff0000"/>
   </g>
   <g id="patch_6">
    <path d="M 46.835647 107.961114 
L 45.985754 107.961114 
L 45.851561 128.16 
L 45.304846 128.16 
L 46.085609 17.28 
L 46.733985 17.28 
L 47.514747 128.16 
L 46.968485 128.16 
L 46.835647 107.961114 
z
M 46.121303 87.382015 
L 46.698742 87.382015 
L 46.410475 43.277154 
L 46.121303 87.382015 
z
" clip-path="url(#p340722fd0a)" style="fill: #008000"/>
   </g>
   <g id="patch_7">
    <path d="M 49.161858 107.961114 
L 48.311966 107.961114 
L 48.177772 128.16 
L 47.631058 128.16 
L 48.41182 17.28 
L 49.060196 17.28 
L 49.840959 128.16 
L 49.294696 128.16 
L 49.161858 107.961114 
z
M 48.447515 87.382015 
L 49.024954 87.382015 
L 48.736686 43.277154 
L 48.447515 87.382015 
z
" clip-path="url(#p340722fd0a)" style="fill: #008000"/>
   </g>
   <g id="patch_8">
    <path d="M 49.957269 17.28 
L 52.16717 17.28 
L 52.16717 38.904689 
L 51.37212 38.904689 
L 51.37212 128.16 
L 50.753862 128.16 
L 50.753862 38.904689 
L 49.957269 38.904689 
L 49.957269 17.28 
z
" clip-path="url(#p340722fd0a)" style="fill: #ff0000"/>
   </g>
   <g id="patch_9">
    <path d="M 54.493382 118.127891 
Q 54.27051 123.143945 54.030798 125.663425 
Q 53.791087 128.16 53.535527 128.16 
Q 52.958041 128.16 52.620761 113.226358 
Q 52.283481 98.292716 52.283481 72.754357 
Q 52.283481 46.91824 52.626704 32.09912 
Q 52.970422 17.28 53.568215 17.28 
Q 53.798516 17.28 54.009502 19.295584 
Q 54.220983 21.288263 54.408195 25.227812 
L 54.408195 47.330518 
Q 54.215039 42.268655 54.023865 39.77208 
Q 53.83269 37.252601 53.640525 37.252601 
Q 53.28492 37.252601 53.092259 46.460153 
Q 52.899599 55.644801 52.899599 72.754357 
Q 52.899599 89.703582 53.085325 98.956943 
Q 53.271052 108.187399 53.612789 108.187399 
Q 53.7059 108.187399 53.785639 107.660599 
Q 53.865378 107.110894 53.928773 105.965677 
L 53.928773 85.214328 
L 53.564748 85.214328 
L 53.564748 66.73051 
L 54.493382 66.73051 
L 54.493382 118.127891 
z
" clip-path="url(#p340722fd0a)" style="fill: #ffa600"/>
   </g>
   <g id="patch_10">
    <path d="M 56.140493 107.961114 
L 55.2906 107.961114 
L 55.156407 128.16 
L 54.609693 128.16 
L 55.390455 17.28 
L 56.038831 17.28 
L 56.819594 128.16 
L 56.273331 128.16 
L 56.140493 107.961114 
z
M 55.42615 87.382015 
L 56.003588 87.382015 
L 55.715321 43.277154 
L 55.42615 87.382015 
z
" clip-path="url(#p340722fd0a)" style="fill: #008000"/>
   </g>
   <g id="patch_11">
    <path d="M 56.935904 17.28 
L 59.145805 17.28 
L 59.145805 38.904689 
L 58.350755 38.904689 
L 58.350755 128.16 
L 57.732496 128.16 
L 57.732496 38.904689 
L 56.935904 38.904689 
L 56.935904 17.28 
z
" clip-path="url(#p340722fd0a)" style="fill: #ff0000"/>
   </g>
   <g id="patch_12">
    <path d="M 59.262116 17.28 
L 61.472017 17.28 
L 61.472017 38.904689 
L 60.676966 38.904689 
L 60.676966 128.16 
L 60.058708 128.16 
L 60.058708 38.904689 
L 59.262116 38.904689 
L 59.262116 17.28 
z
" clip-path="url(#p340722fd0a)" style="fill: #ff0000"/>
   </g>
   <g id="patch_13">
    <path d="M 61.588327 17.28 
L 63.798228 17.28 
L 63.798228 38.904689 
L 63.003178 38.904689 
L 63.003178 128.16 
L 62.384919 128.16 
L 62.384919 38.904689 
L 61.588327 38.904689 
L 61.588327 17.28 
z
" clip-path="url(#p340722fd0a)" style="fill: #ff0000"/>
   </g>
   <g id="patch_14">
    <path d="M 63.914539 17.28 
L 66.12444 17.28 
L 66.12444 38.904689 
L 65.329389 38.904689 
L 65.329389 128.16 
L 64.711131 128.16 
L 64.711131 38.904689 
L 63.914539 38.904689 
L 63.914539 17.28 
z
" clip-path="url(#p340722fd0a)" style="fill: #ff0000"/>
   </g>
   <g id="patch_15">
    <path d="M 67.771551 107.961114 
L 66.921658 107.961114 
L 66.787465 128.16 
L 66.24075 128.16 
L 67.021513 17.28 
L 67.669889 17.28 
L 68.450651 128.16 
L 67.904389 128.16 
L 67.771551 107.961114 
z
M 67.057207 87.382015 
L 67.634646 87.382015 
L 67.346379 43.277154 
L 67.057207 87.382015 
z
" clip-path="url(#p340722fd0a)" style="fill: #008000"/>
   </g>
   <g id="patch_16">
    <path d="M 68.566962 17.28 
L 70.776863 17.28 
L 70.776863 38.904689 
L 69.981813 38.904689 
L 69.981813 128.16 
L 69.363554 128.16 
L 69.363554 38.904689 
L 68.566962 38.904689 
L 68.566962 17.28 
z
" clip-path="url(#p340722fd0a)" style="fill: #ff0000"/>
   </g>
   <g id="patch_17">
    <path d="M 70.893174 17.28 
L 73.103075 17.28 
L 73.103075 38.904689 
L 72.308024 38.904689 
L 72.308024 128.16 
L 71.689766 128.16 
L 71.689766 38.904689 
L 70.893174 38.904689 
L 70.893174 17.28 
z
" clip-path="url(#p340722fd0a)" style="fill: #ff0000"/>
   </g>
   <g id="patch_18">
    <path d="M 73.219385 17.28 
L 75.429286 17.28 
L 75.429286 38.904689 
L 74.634236 38.904689 
L 74.634236 128.16 
L 74.015977 128.16 
L 74.015977 38.904689 
L 73.219385 38.904689 
L 73.219385 17.28 
z
" clip-path="url(#p340722fd0a)" style="fill: #ff0000"/>
   </g>
   <g id="patch_19">
    <path d="M 75.545597 17.28 
L 77.755498 17.28 
L 77.755498 38.904689 
L 76.960447 38.904689 
L 76.960447 128.16 
L 76.342189 128.16 
L 76.342189 38.904689 
L 75.545597 38.904689 
L 75.545597 17.28 
z
" clip-path="url(#p340722fd0a)" style="fill: #ff0000"/>
   </g>
   <g id="patch_20">
    <path d="M 80.081709 118.127891 
Q 79.858837 123.143945 79.619126 125.663425 
Q 79.379414 128.16 79.123854 128.16 
Q 78.546368 128.16 78.209088 113.226358 
Q 77.871808 98.292716 77.871808 72.754357 
Q 77.871808 46.91824 78.215031 32.09912 
Q 78.55875 17.28 79.156542 17.28 
Q 79.386843 17.28 79.597829 19.295584 
Q 79.80931 21.288263 79.996523 25.227812 
L 79.996523 47.330518 
Q 79.803367 42.268655 79.612192 39.77208 
Q 79.421017 37.252601 79.228852 37.252601 
Q 78.873247 37.252601 78.680586 46.460153 
Q 78.487926 55.644801 78.487926 72.754357 
Q 78.487926 89.703582 78.673653 98.956943 
Q 78.859379 108.187399 79.201117 108.187399 
Q 79.294228 108.187399 79.373966 107.660599 
Q 79.453705 107.110894 79.5171 105.965677 
L 79.5171 85.214328 
L 79.153075 85.214328 
L 79.153075 66.73051 
L 80.081709 66.73051 
L 80.081709 118.127891 
z
" clip-path="url(#p340722fd0a)" style="fill: #ffa600"/>
   </g>
   <g id="patch_21">
    <path d="M 81.72882 107.961114 
L 80.878928 107.961114 
L 80.744734 128.16 
L 80.19802 128.16 
L 80.978782 17.28 
L 81.627158 17.28 
L 82.407921 128.16 
L 81.861658 128.16 
L 81.72882 107.961114 
z
M 81.014477 87.382015 
L 81.591916 87.382015 
L 81.303648 43.277154 
L 81.014477 87.382015 
z
" clip-path="url(#p340722fd0a)" style="fill: #008000"/>
   </g>
   <g id="patch_22">
    <path d="M 84.734132 120.212188 
Q 84.549278 124.151737 84.34939 126.144416 
Q 84.149502 128.16 83.931797 128.16 
Q 83.28258 128.16 82.903406 113.226358 
Q 82.524231 98.292716 82.524231 72.754357 
Q 82.524231 47.124379 82.903406 32.213642 
Q 83.28258 17.28 83.931797 17.28 
Q 84.149502 17.28 84.34939 19.295584 
Q 84.549278 21.288263 84.734132 25.227812 
L 84.734132 47.330518 
Q 84.547608 42.108325 84.366651 39.680463 
Q 84.185694 37.252601 83.985806 37.252601 
Q 83.627233 37.252601 83.421777 46.712101 
Q 83.216879 56.148697 83.216879 72.754357 
Q 83.216879 89.291303 83.421777 98.750804 
Q 83.627233 108.187399 83.985806 108.187399 
Q 84.185694 108.187399 84.366651 105.759537 
Q 84.547608 103.308771 84.734132 98.086577 
L 84.734132 120.212188 
z
" clip-path="url(#p340722fd0a)" style="fill: #0000ff"/>
   </g>
   <g id="patch_23">
    <path d="M 84.850443 17.28 
L 87.060344 17.28 
L 87.060344 38.904689 
L 86.265294 38.904689 
L 86.265294 128.16 
L 85.647035 128.16 
L 85.647035 38.904689 
L 84.850443 38.904689 
L 84.850443 17.28 
z
" clip-path="url(#p340722fd0a)" style="fill: #ff0000"/>
   </g>
   <g id="patch_24">
    <path d="M 89.386555 118.127891 
Q 89.163683 123.143945 88.923972 125.663425 
Q 88.684261 128.16 88.428701 128.16 
Q 87.851214 128.16 87.513934 113.226358 
Q 87.176655 98.292716 87.176655 72.754357 
Q 87.176655 46.91824 87.519878 32.09912 
Q 87.863596 17.28 88.461389 17.28 
Q 88.69169 17.28 88.902675 19.295584 
Q 89.114156 21.288263 89.301369 25.227812 
L 89.301369 47.330518 
Q 89.108213 42.268655 88.917038 39.77208 
Q 88.725863 37.252601 88.533698 37.252601 
Q 88.178093 37.252601 87.985433 46.460153 
Q 87.792772 55.644801 87.792772 72.754357 
Q 87.792772 89.703582 87.978499 98.956943 
Q 88.164226 108.187399 88.505963 108.187399 
Q 88.599074 108.187399 88.678813 107.660599 
Q 88.758551 107.110894 88.821946 105.965677 
L 88.821946 85.214328 
L 88.457922 85.214328 
L 88.457922 66.73051 
L 89.386555 66.73051 
L 89.386555 118.127891 
z
" clip-path="url(#p340722fd0a)" style="fill: #ffa600"/>
   </g>
   <g id="patch_25">
    <path d="M 91.033666 107.961114 
L 90.183774 107.961114 
L 90.04958 128.16 
L 89.502866 128.16 
L 90.283628 17.28 
L 90.932005 17.28 
L 91.712767 128.16 
L 91.166504 128.16 
L 91.033666 107.961114 
z
M 90.319323 87.382015 
L 90.896762 87.382015 
L 90.608494 43.277154 
L 90.319323 87.382015 
z
" clip-path="url(#p340722fd0a)" style="fill: #008000"/>
   </g>
   <g id="patch_26">
    <path d="M 91.829078 17.28 
L 94.038979 17.28 
L 94.038979 38.904689 
L 93.243928 38.904689 
L 93.243928 128.16 
L 92.62567 128.16 
L 92.62567 38.904689 
L 91.829078 38.904689 
L 91.829078 17.28 
z
" clip-path="url(#p340722fd0a)" style="fill: #ff0000"/>
   </g>
   <g id="patch_27">
    <path d="M 95.68609 107.961114 
L 94.836197 107.961114 
L 94.702004 128.16 
L 94.155289 128.16 
L 94.936052 17.28 
L 95.584428 17.28 
L 96.36519 128.16 
L 95.818928 128.16 
L 95.68609 107.961114 
z
M 94.971746 87.382015 
L 95.549185 87.382015 
L 95.260917 43.277154 
L 94.971746 87.382015 
z
" clip-path="url(#p340722fd0a)" style="fill: #008000"/>
   </g>
   <g id="patch_28">
    <path d="M 98.691402 118.127891 
Q 98.46853 123.143945 98.228818 125.663425 
Q 97.989107 128.16 97.733547 128.16 
Q 97.15606 128.16 96.818781 113.226358 
Q 96.481501 98.292716 96.481501 72.754357 
Q 96.481501 46.91824 96.824724 32.09912 
Q 97.168442 17.28 97.766235 17.28 
Q 97.996536 17.28 98.207522 19.295584 
Q 98.419003 21.288263 98.606215 25.227812 
L 98.606215 47.330518 
Q 98.413059 42.268655 98.221884 39.77208 
Q 98.03071 37.252601 97.838544 37.252601 
Q 97.48294 37.252601 97.290279 46.460153 
Q 97.097618 55.644801 97.097618 72.754357 
Q 97.097618 89.703582 97.283345 98.956943 
Q 97.469072 108.187399 97.810809 108.187399 
Q 97.90392 108.187399 97.983659 107.660599 
Q 98.063398 107.110894 98.126792 105.965677 
L 98.126792 85.214328 
L 97.762768 85.214328 
L 97.762768 66.73051 
L 98.691402 66.73051 
L 98.691402 118.127891 
z
" clip-path="url(#p340722fd0a)" style="fill: #ffa600"/>
   </g>
   <g id="patch_29">
    <path d="M 98.807712 17.28 
L 101.017613 17.28 
L 101.017613 38.904689 
L 100.222563 38.904689 
L 100.222563 128.16 
L 99.604305 128.16 
L 99.604305 38.904689 
L 98.807712 38.904689 
L 98.807712 17.28 
z
" clip-path="url(#p340722fd0a)" style="fill: #ff0000"/>
   </g>
   <g id="patch_30">
    <path d="M 103.343825 118.127891 
Q 103.120953 123.143945 102.881241 125.663425 
Q 102.64153 128.16 102.38597 128.16 
Q 101.808484 128.16 101.471204 113.226358 
Q 101.133924 98.292716 101.133924 72.754357 
Q 101.133924 46.91824 101.477147 32.09912 
Q 101.820865 17.28 102.418658 17.28 
Q 102.648959 17.28 102.859945 19.295584 
Q 103.071426 21.288263 103.258638 25.227812 
L 103.258638 47.330518 
Q 103.065482 42.268655 102.874308 39.77208 
Q 102.683133 37.252601 102.490968 37.252601 
Q 102.135363 37.252601 101.942702 46.460153 
Q 101.750042 55.644801 101.750042 72.754357 
Q 101.750042 89.703582 101.935768 98.956943 
Q 102.121495 108.187399 102.463232 108.187399 
Q 102.556343 108.187399 102.636082 107.660599 
Q 102.715821 107.110894 102.779216 105.965677 
L 102.779216 85.214328 
L 102.415191 85.214328 
L 102.415191 66.73051 
L 103.343825 66.73051 
L 103.343825 118.127891 
z
" clip-path="url(#p340722fd0a)" style="fill: #ffa600"/>
   </g>
   <g id="patch_31">
    <path d="M 104.990936 107.961114 
L 104.141043 107.961114 
L 104.00685 128.16 
L 103.460135 128.16 
L 104.240898 17.28 
L 104.889274 17.28 
L 105.670036 128.16 
L 105.123774 128.16 
L 104.990936 107.961114 
z
M 104.276592 87.382015 
L 104.854031 87.382015 
L 104.565764 43.277154 
L 104.276592 87.382015 
z
" clip-path="url(#p340722fd0a)" style="fill: #008000"/>
   </g>
   <g id="patch_32">
    <path d="M 107.996248 120.212188 
Q 107.811394 124.151737 107.611506 126.144416 
Q 107.411618 128.16 107.193913 128.16 
Q 106.544696 128.16 106.165521 113.226358 
Q 105.786347 98.292716 105.786347 72.754357 
Q 105.786347 47.124379 106.165521 32.213642 
Q 106.544696 17.28 107.193913 17.28 
Q 107.411618 17.28 107.611506 19.295584 
Q 107.811394 21.288263 107.996248 25.227812 
L 107.996248 47.330518 
Q 107.809723 42.108325 107.628766 39.680463 
Q 107.44781 37.252601 107.247922 37.252601 
Q 106.889349 37.252601 106.683893 46.712101 
Q 106.478994 56.148697 106.478994 72.754357 
Q 106.478994 89.291303 106.683893 98.750804 
Q 106.889349 108.187399 107.247922 108.187399 
Q 107.44781 108.187399 107.628766 105.759537 
Q 107.809723 103.308771 107.996248 98.086577 
L 107.996248 120.212188 
z
" clip-path="url(#p340722fd0a)" style="fill: #0000ff"/>
   </g>
   <g id="patch_33">
    <path d="M 110.32246 120.212188 
Q 110.137605 124.151737 109.937717 126.144416 
Q 109.73783 128.16 109.520125 128.16 
Q 108.870907 128.16 108.491733 113.226358 
Q 108.112559 98.292716 108.112559 72.754357 
Q 108.112559 47.124379 108.491733 32.213642 
Q 108.870907 17.28 109.520125 17.28 
Q 109.73783 17.28 109.937717 19.295584 
Q 110.137605 21.288263 110.32246 25.227812 
L 110.32246 47.330518 
Q 110.135935 42.108325 109.954978 39.680463 
Q 109.774021 37.252601 109.574133 37.252601 
Q 109.21556 37.252601 109.010105 46.712101 
Q 108.805206 56.148697 108.805206 72.754357 
Q 108.805206 89.291303 109.010105 98.750804 
Q 109.21556 108.187399 109.574133 108.187399 
Q 109.774021 108.187399 109.954978 105.759537 
Q 110.135935 103.308771 110.32246 98.086577 
L 110.32246 120.212188 
z
" clip-path="url(#p340722fd0a)" style="fill: #0000ff"/>
   </g>
   <g id="patch_34">
    <path d="M 110.43877 17.28 
L 112.648671 17.28 
L 112.648671 38.904689 
L 111.853621 38.904689 
L 111.853621 128.16 
L 111.235362 128.16 
L 111.235362 38.904689 
L 110.43877 38.904689 
L 110.43877 17.28 
z
" clip-path="url(#p340722fd0a)" style="fill: #ff0000"/>
   </g>
   <g id="patch_35">
    <path d="M 114.974883 118.127891 
Q 114.752011 123.143945 114.512299 125.663425 
Q 114.272588 128.16 114.017028 128.16 
Q 113.439541 128.16 113.102262 113.226358 
Q 112.764982 98.292716 112.764982 72.754357 
Q 112.764982 46.91824 113.108205 32.09912 
Q 113.451923 17.28 114.049716 17.28 
Q 114.280017 17.28 114.491003 19.295584 
Q 114.702483 21.288263 114.889696 25.227812 
L 114.889696 47.330518 
Q 114.69654 42.268655 114.505365 39.77208 
Q 114.314191 37.252601 114.122025 37.252601 
Q 113.766421 37.252601 113.57376 46.460153 
Q 113.381099 55.644801 113.381099 72.754357 
Q 113.381099 89.703582 113.566826 98.956943 
Q 113.752553 108.187399 114.09429 108.187399 
Q 114.187401 108.187399 114.26714 107.660599 
Q 114.346879 107.110894 114.410273 105.965677 
L 114.410273 85.214328 
L 114.046249 85.214328 
L 114.046249 66.73051 
L 114.974883 66.73051 
L 114.974883 118.127891 
z
" clip-path="url(#p340722fd0a)" style="fill: #ffa600"/>
   </g>
   <g id="patch_36">
    <path d="M 115.091193 17.28 
L 117.301094 17.28 
L 117.301094 38.904689 
L 116.506044 38.904689 
L 116.506044 128.16 
L 115.887786 128.16 
L 115.887786 38.904689 
L 115.091193 38.904689 
L 115.091193 17.28 
z
" clip-path="url(#p340722fd0a)" style="fill: #ff0000"/>
   </g>
   <g id="patch_37">
    <path d="M 117.417405 17.28 
L 119.627306 17.28 
L 119.627306 38.904689 
L 118.832255 38.904689 
L 118.832255 128.16 
L 118.213997 128.16 
L 118.213997 38.904689 
L 117.417405 38.904689 
L 117.417405 17.28 
z
" clip-path="url(#p340722fd0a)" style="fill: #ff0000"/>
   </g>
   <g id="patch_38">
    <path d="M 121.953517 120.212188 
Q 121.768663 124.151737 121.568775 126.144416 
Q 121.368888 128.16 121.151183 128.16 
Q 120.501965 128.16 120.122791 113.226358 
Q 119.743616 98.292716 119.743616 72.754357 
Q 119.743616 47.124379 120.122791 32.213642 
Q 120.501965 17.28 121.151183 17.28 
Q 121.368888 17.28 121.568775 19.295584 
Q 121.768663 21.288263 121.953517 25.227812 
L 121.953517 47.330518 
Q 121.766993 42.108325 121.586036 39.680463 
Q 121.405079 37.252601 121.205191 37.252601 
Q 120.846618 37.252601 120.641163 46.712101 
Q 120.436264 56.148697 120.436264 72.754357 
Q 120.436264 89.291303 120.641163 98.750804 
Q 120.846618 108.187399 121.205191 108.187399 
Q 121.405079 108.187399 121.586036 105.759537 
Q 121.766993 103.308771 121.953517 98.086577 
L 121.953517 120.212188 
z
" clip-path="url(#p340722fd0a)" style="fill: #0000ff"/>
   </g>
   <g id="patch_39">
    <path d="M 124.279729 118.127891 
Q 124.056857 123.143945 123.817146 125.663425 
Q 123.577434 128.16 123.321874 128.16 
Q 122.744388 128.16 122.407108 113.226358 
Q 122.069828 98.292716 122.069828 72.754357 
Q 122.069828 46.91824 122.413051 32.09912 
Q 122.756769 17.28 123.354562 17.28 
Q 123.584863 17.28 123.795849 19.295584 
Q 124.00733 21.288263 124.194542 25.227812 
L 124.194542 47.330518 
Q 124.001386 42.268655 123.810212 39.77208 
Q 123.619037 37.252601 123.426872 37.252601 
Q 123.071267 37.252601 122.878606 46.460153 
Q 122.685946 55.644801 122.685946 72.754357 
Q 122.685946 89.703582 122.871672 98.956943 
Q 123.057399 108.187399 123.399136 108.187399 
Q 123.492247 108.187399 123.571986 107.660599 
Q 123.651725 107.110894 123.71512 105.965677 
L 123.71512 85.214328 
L 123.351095 85.214328 
L 123.351095 66.73051 
L 124.279729 66.73051 
L 124.279729 118.127891 
z
" clip-path="url(#p340722fd0a)" style="fill: #ffa600"/>
   </g>
   <g id="patch_40">
    <path d="M 124.39604 17.28 
L 126.605941 17.28 
L 126.605941 38.904689 
L 125.81089 38.904689 
L 125.81089 128.16 
L 125.192632 128.16 
L 125.192632 38.904689 
L 124.39604 38.904689 
L 124.39604 17.28 
z
" clip-path="url(#p340722fd0a)" style="fill: #ff0000"/>
   </g>
   <g id="patch_41">
    <path d="M 126.722251 17.28 
L 128.932152 17.28 
L 128.932152 38.904689 
L 128.137102 38.904689 
L 128.137102 128.16 
L 127.518843 128.16 
L 127.518843 38.904689 
L 126.722251 38.904689 
L 126.722251 17.28 
z
" clip-path="url(#p340722fd0a)" style="fill: #ff0000"/>
   </g>
   <g id="patch_42">
    <path d="M 131.258364 118.127891 
Q 131.035492 123.143945 130.79578 125.663425 
Q 130.556069 128.16 130.300509 128.16 
Q 129.723022 128.16 129.385743 113.226358 
Q 129.048463 98.292716 129.048463 72.754357 
Q 129.048463 46.91824 129.391686 32.09912 
Q 129.735404 17.28 130.333197 17.28 
Q 130.563498 17.28 130.774484 19.295584 
Q 130.985964 21.288263 131.173177 25.227812 
L 131.173177 47.330518 
Q 130.980021 42.268655 130.788846 39.77208 
Q 130.597672 37.252601 130.405506 37.252601 
Q 130.049902 37.252601 129.857241 46.460153 
Q 129.66458 55.644801 129.66458 72.754357 
Q 129.66458 89.703582 129.850307 98.956943 
Q 130.036034 108.187399 130.377771 108.187399 
Q 130.470882 108.187399 130.550621 107.660599 
Q 130.63036 107.110894 130.693754 105.965677 
L 130.693754 85.214328 
L 130.32973 85.214328 
L 130.32973 66.73051 
L 131.258364 66.73051 
L 131.258364 118.127891 
z
" clip-path="url(#p340722fd0a)" style="fill: #ffa600"/>
   </g>
   <g id="patch_43">
    <path d="M 133.584575 120.212188 
Q 133.399721 124.151737 133.199833 126.144416 
Q 132.999945 128.16 132.78224 128.16 
Q 132.133023 128.16 131.753849 113.226358 
Q 131.374674 98.292716 131.374674 72.754357 
Q 131.374674 47.124379 131.753849 32.213642 
Q 132.133023 17.28 132.78224 17.28 
Q 132.999945 17.28 133.199833 19.295584 
Q 133.399721 21.288263 133.584575 25.227812 
L 133.584575 47.330518 
Q 133.398051 42.108325 133.217094 39.680463 
Q 133.036137 37.252601 132.836249 37.252601 
Q 132.477676 37.252601 132.27222 46.712101 
Q 132.067322 56.148697 132.067322 72.754357 
Q 132.067322 89.291303 132.27222 98.750804 
Q 132.477676 108.187399 132.836249 108.187399 
Q 133.036137 108.187399 133.217094 105.759537 
Q 133.398051 103.308771 133.584575 98.086577 
L 133.584575 120.212188 
z
" clip-path="url(#p340722fd0a)" style="fill: #0000ff"/>
   </g>
   <g id="patch_44">
    <path d="M 135.231686 107.961114 
L 134.381794 107.961114 
L 134.2476 128.16 
L 133.700886 128.16 
L 134.481648 17.28 
L 135.130024 17.28 
L 135.910787 128.16 
L 135.364524 128.16 
L 135.231686 107.961114 
z
M 134.517343 87.382015 
L 135.094782 87.382015 
L 134.806514 43.277154 
L 134.517343 87.382015 
z
" clip-path="url(#p340722fd0a)" style="fill: #008000"/>
   </g>
   <g id="patch_45">
    <path d="M 137.557898 107.961114 
L 136.708005 107.961114 
L 136.573812 128.16 
L 136.027097 128.16 
L 136.80786 17.28 
L 137.456236 17.28 
L 138.236998 128.16 
L 137.690736 128.16 
L 137.557898 107.961114 
z
M 136.843554 87.382015 
L 137.420993 87.382015 
L 137.132726 43.277154 
L 136.843554 87.382015 
z
" clip-path="url(#p340722fd0a)" style="fill: #008000"/>
   </g>
   <g id="patch_46">
    <path d="M 140.56321 120.212188 
Q 140.378356 124.151737 140.178468 126.144416 
Q 139.97858 128.16 139.760875 128.16 
Q 139.111658 128.16 138.732483 113.226358 
Q 138.353309 98.292716 138.353309 72.754357 
Q 138.353309 47.124379 138.732483 32.213642 
Q 139.111658 17.28 139.760875 17.28 
Q 139.97858 17.28 140.178468 19.295584 
Q 140.378356 21.288263 140.56321 25.227812 
L 140.56321 47.330518 
Q 140.376685 42.108325 140.195728 39.680463 
Q 140.014771 37.252601 139.814884 37.252601 
Q 139.456311 37.252601 139.250855 46.712101 
Q 139.045956 56.148697 139.045956 72.754357 
Q 139.045956 89.291303 139.250855 98.750804 
Q 139.456311 108.187399 139.814884 108.187399 
Q 140.014771 108.187399 140.195728 105.759537 
Q 140.376685 103.308771 140.56321 98.086577 
L 140.56321 120.212188 
z
" clip-path="url(#p340722fd0a)" style="fill: #0000ff"/>
   </g>
   <g id="patch_47">
    <path d="M 142.210321 107.961114 
L 141.360429 107.961114 
L 141.226235 128.16 
L 140.679521 128.16 
L 141.460283 17.28 
L 142.108659 17.28 
L 142.889422 128.16 
L 142.343159 128.16 
L 142.210321 107.961114 
z
M 141.495978 87.382015 
L 142.073416 87.382015 
L 141.785149 43.277154 
L 141.495978 87.382015 
z
" clip-path="url(#p340722fd0a)" style="fill: #008000"/>
   </g>
   <g id="patch_48">
    <path d="M 144.536533 107.961114 
L 143.68664 107.961114 
L 143.552447 128.16 
L 143.005732 128.16 
L 143.786495 17.28 
L 144.434871 17.28 
L 145.215633 128.16 
L 144.669371 128.16 
L 144.536533 107.961114 
z
M 143.822189 87.382015 
L 144.399628 87.382015 
L 144.11136 43.277154 
L 143.822189 87.382015 
z
" clip-path="url(#p340722fd0a)" style="fill: #008000"/>
   </g>
   <g id="patch_49">
    <path d="M 146.862744 107.961114 
L 146.012852 107.961114 
L 145.878658 128.16 
L 145.331944 128.16 
L 146.112706 17.28 
L 146.761082 17.28 
L 147.541845 128.16 
L 146.995582 128.16 
L 146.862744 107.961114 
z
M 146.148401 87.382015 
L 146.72584 87.382015 
L 146.437572 43.277154 
L 146.148401 87.382015 
z
" clip-path="url(#p340722fd0a)" style="fill: #008000"/>
   </g>
   <g id="patch_50">
    <path d="M 147.658155 17.28 
L 149.868056 17.28 
L 149.868056 38.904689 
L 149.073006 38.904689 
L 149.073006 128.16 
L 148.454748 128.16 
L 148.454748 38.904689 
L 147.658155 38.904689 
L 147.658155 17.28 
z
" clip-path="url(#p340722fd0a)" style="fill: #ff0000"/>
   </g>
   <g id="patch_51">
    <path d="M 149.984367 17.28 
L 152.194268 17.28 
L 152.194268 38.904689 
L 151.399217 38.904689 
L 151.399217 128.16 
L 150.780959 128.16 
L 150.780959 38.904689 
L 149.984367 38.904689 
L 149.984367 17.28 
z
" clip-path="url(#p340722fd0a)" style="fill: #ff0000"/>
   </g>
   <g id="patch_52">
    <path d="M 154.520479 118.127891 
Q 154.297607 123.143945 154.057896 125.663425 
Q 153.818185 128.16 153.562625 128.16 
Q 152.985138 128.16 152.647858 113.226358 
Q 152.310578 98.292716 152.310578 72.754357 
Q 152.310578 46.91824 152.653802 32.09912 
Q 152.99752 17.28 153.595312 17.28 
Q 153.825614 17.28 154.036599 19.295584 
Q 154.24808 21.288263 154.435293 25.227812 
L 154.435293 47.330518 
Q 154.242137 42.268655 154.050962 39.77208 
Q 153.859787 37.252601 153.667622 37.252601 
Q 153.312017 37.252601 153.119357 46.460153 
Q 152.926696 55.644801 152.926696 72.754357 
Q 152.926696 89.703582 153.112423 98.956943 
Q 153.29815 108.187399 153.639887 108.187399 
Q 153.732998 108.187399 153.812737 107.660599 
Q 153.892475 107.110894 153.95587 105.965677 
L 153.95587 85.214328 
L 153.591846 85.214328 
L 153.591846 66.73051 
L 154.520479 66.73051 
L 154.520479 118.127891 
z
" clip-path="url(#p340722fd0a)" style="fill: #ffa600"/>
   </g>
   <g id="patch_53">
    <path d="M 156.16759 107.961114 
L 155.317698 107.961114 
L 155.183504 128.16 
L 154.63679 128.16 
L 155.417552 17.28 
L 156.065929 17.28 
L 156.846691 128.16 
L 156.300428 128.16 
L 156.16759 107.961114 
z
M 155.453247 87.382015 
L 156.030686 87.382015 
L 155.742418 43.277154 
L 155.453247 87.382015 
z
" clip-path="url(#p340722fd0a)" style="fill: #008000"/>
   </g>
   <g id="patch_54">
    <path d="M 156.963002 17.28 
L 159.172903 17.28 
L 159.172903 38.904689 
L 158.377852 38.904689 
L 158.377852 128.16 
L 157.759594 128.16 
L 157.759594 38.904689 
L 156.963002 38.904689 
L 156.963002 17.28 
z
" clip-path="url(#p340722fd0a)" style="fill: #ff0000"/>
   </g>
   <g id="patch_55">
    <path d="M 160.820013 107.961114 
L 159.970121 107.961114 
L 159.835928 128.16 
L 159.289213 128.16 
L 160.069976 17.28 
L 160.718352 17.28 
L 161.499114 128.16 
L 160.952852 128.16 
L 160.820013 107.961114 
z
M 160.10567 87.382015 
L 160.683109 87.382015 
L 160.394841 43.277154 
L 160.10567 87.382015 
z
" clip-path="url(#p340722fd0a)" style="fill: #008000"/>
   </g>
   <g id="patch_56">
    <path d="M 163.146225 107.961114 
L 162.296333 107.961114 
L 162.162139 128.16 
L 161.615425 128.16 
L 162.396187 17.28 
L 163.044563 17.28 
L 163.825326 128.16 
L 163.279063 128.16 
L 163.146225 107.961114 
z
M 162.431882 87.382015 
L 163.009321 87.382015 
L 162.721053 43.277154 
L 162.431882 87.382015 
z
" clip-path="url(#p340722fd0a)" style="fill: #008000"/>
   </g>
   <g id="patch_57">
    <path d="M 166.151537 118.127891 
Q 165.928665 123.143945 165.688954 125.663425 
Q 165.449242 128.16 165.193682 128.16 
Q 164.616196 128.16 164.278916 113.226358 
Q 163.941636 98.292716 163.941636 72.754357 
Q 163.941636 46.91824 164.284859 32.09912 
Q 164.628578 17.28 165.22637 17.28 
Q 165.456671 17.28 165.667657 19.295584 
Q 165.879138 21.288263 166.066351 25.227812 
L 166.066351 47.330518 
Q 165.873195 42.268655 165.68202 39.77208 
Q 165.490845 37.252601 165.29868 37.252601 
Q 164.943075 37.252601 164.750414 46.460153 
Q 164.557754 55.644801 164.557754 72.754357 
Q 164.557754 89.703582 164.743481 98.956943 
Q 164.929207 108.187399 165.270945 108.187399 
Q 165.364056 108.187399 165.443794 107.660599 
Q 165.523533 107.110894 165.586928 105.965677 
L 165.586928 85.214328 
L 165.222903 85.214328 
L 165.222903 66.73051 
L 166.151537 66.73051 
L 166.151537 118.127891 
z
" clip-path="url(#p340722fd0a)" style="fill: #ffa600"/>
   </g>
   <g id="patch_58">
    <path d="M 168.477749 120.212188 
Q 168.292894 124.151737 168.093007 126.144416 
Q 167.893119 128.16 167.675414 128.16 
Q 167.026196 128.16 166.647022 113.226358 
Q 166.267848 98.292716 166.267848 72.754357 
Q 166.267848 47.124379 166.647022 32.213642 
Q 167.026196 17.28 167.675414 17.28 
Q 167.893119 17.28 168.093007 19.295584 
Q 168.292894 21.288263 168.477749 25.227812 
L 168.477749 47.330518 
Q 168.291224 42.108325 168.110267 39.680463 
Q 167.92931 37.252601 167.729423 37.252601 
Q 167.37085 37.252601 167.165394 46.712101 
Q 166.960495 56.148697 166.960495 72.754357 
Q 166.960495 89.291303 167.165394 98.750804 
Q 167.37085 108.187399 167.729423 108.187399 
Q 167.92931 108.187399 168.110267 105.759537 
Q 168.291224 103.308771 168.477749 98.086577 
L 168.477749 120.212188 
z
" clip-path="url(#p340722fd0a)" style="fill: #0000ff"/>
   </g>
   <g id="patch_59">
    <path d="M 170.12486 107.961114 
L 169.274967 107.961114 
L 169.140774 128.16 
L 168.594059 128.16 
L 169.374822 17.28 
L 170.023198 17.28 
L 170.80396 128.16 
L 170.257698 128.16 
L 170.12486 107.961114 
z
M 169.410516 87.382015 
L 169.987955 87.382015 
L 169.699688 43.277154 
L 169.410516 87.382015 
z
" clip-path="url(#p340722fd0a)" style="fill: #008000"/>
   </g>
   <g id="patch_60">
    <path d="M 172.451071 107.961114 
L 171.601179 107.961114 
L 171.466985 128.16 
L 170.920271 128.16 
L 171.701033 17.28 
L 172.34941 17.28 
L 173.130172 128.16 
L 172.583909 128.16 
L 172.451071 107.961114 
z
M 171.736728 87.382015 
L 172.314167 87.382015 
L 172.025899 43.277154 
L 171.736728 87.382015 
z
" clip-path="url(#p340722fd0a)" style="fill: #008000"/>
   </g>
   <g id="patch_61">
    <path d="M 173.246483 17.28 
L 175.456384 17.28 
L 175.456384 38.904689 
L 174.661333 38.904689 
L 174.661333 128.16 
L 174.043075 128.16 
L 174.043075 38.904689 
L 173.246483 38.904689 
L 173.246483 17.28 
z
" clip-path="url(#p340722fd0a)" style="fill: #ff0000"/>
   </g>
   <g id="patch_62">
    <path d="M 177.782595 118.127891 
Q 177.559723 123.143945 177.320012 125.663425 
Q 177.0803 128.16 176.82474 128.16 
Q 176.247254 128.16 175.909974 113.226358 
Q 175.572694 98.292716 175.572694 72.754357 
Q 175.572694 46.91824 175.915917 32.09912 
Q 176.259636 17.28 176.857428 17.28 
Q 177.087729 17.28 177.298715 19.295584 
Q 177.510196 21.288263 177.697408 25.227812 
L 177.697408 47.330518 
Q 177.504253 42.268655 177.313078 39.77208 
Q 177.121903 37.252601 176.929738 37.252601 
Q 176.574133 37.252601 176.381472 46.460153 
Q 176.188812 55.644801 176.188812 72.754357 
Q 176.188812 89.703582 176.374539 98.956943 
Q 176.560265 108.187399 176.902003 108.187399 
Q 176.995114 108.187399 177.074852 107.660599 
Q 177.154591 107.110894 177.217986 105.965677 
L 177.217986 85.214328 
L 176.853961 85.214328 
L 176.853961 66.73051 
L 177.782595 66.73051 
L 177.782595 118.127891 
z
" clip-path="url(#p340722fd0a)" style="fill: #ffa600"/>
   </g>
   <g id="patch_63">
    <path d="M 180.108807 120.212188 
Q 179.923952 124.151737 179.724065 126.144416 
Q 179.524177 128.16 179.306472 128.16 
Q 178.657254 128.16 178.27808 113.226358 
Q 177.898906 98.292716 177.898906 72.754357 
Q 177.898906 47.124379 178.27808 32.213642 
Q 178.657254 17.28 179.306472 17.28 
Q 179.524177 17.28 179.724065 19.295584 
Q 179.923952 21.288263 180.108807 25.227812 
L 180.108807 47.330518 
Q 179.922282 42.108325 179.741325 39.680463 
Q 179.560368 37.252601 179.36048 37.252601 
Q 179.001907 37.252601 178.796452 46.712101 
Q 178.591553 56.148697 178.591553 72.754357 
Q 178.591553 89.291303 178.796452 98.750804 
Q 179.001907 108.187399 179.36048 108.187399 
Q 179.560368 108.187399 179.741325 105.759537 
Q 179.922282 103.308771 180.108807 98.086577 
L 180.108807 120.212188 
z
" clip-path="url(#p340722fd0a)" style="fill: #0000ff"/>
   </g>
   <g id="patch_64">
    <path d="M 180.225117 17.28 
L 182.435018 17.28 
L 182.435018 38.904689 
L 181.639968 38.904689 
L 181.639968 128.16 
L 181.021709 128.16 
L 181.021709 38.904689 
L 180.225117 38.904689 
L 180.225117 17.28 
z
" clip-path="url(#p340722fd0a)" style="fill: #ff0000"/>
   </g>
   <g id="patch_65">
    <path d="M 182.551329 17.28 
L 184.76123 17.28 
L 184.76123 38.904689 
L 183.966179 38.904689 
L 183.966179 128.16 
L 183.347921 128.16 
L 183.347921 38.904689 
L 182.551329 38.904689 
L 182.551329 17.28 
z
" clip-path="url(#p340722fd0a)" style="fill: #ff0000"/>
   </g>
   <g id="patch_66">
    <path d="M 184.87754 17.28 
L 187.087441 17.28 
L 187.087441 38.904689 
L 186.292391 38.904689 
L 186.292391 128.16 
L 185.674133 128.16 
L 185.674133 38.904689 
L 184.87754 38.904689 
L 184.87754 17.28 
z
" clip-path="url(#p340722fd0a)" style="fill: #ff0000"/>
   </g>
   <g id="patch_67">
    <path d="M 189.413653 124.186094 
Q 189.228799 126.155869 189.028911 127.152208 
Q 188.829023 128.16 188.611318 128.16 
Q 187.9621 128.16 187.582926 120.693179 
Q 187.203752 113.226358 187.203752 100.457178 
Q 187.203752 87.64219 187.582926 80.186821 
Q 187.9621 72.72 188.611318 72.72 
Q 188.829023 72.72 189.028911 73.727792 
Q 189.228799 74.724131 189.413653 76.693906 
L 189.413653 87.745259 
Q 189.227128 85.134162 189.046171 83.920231 
Q 188.865214 82.7063 188.665327 82.7063 
Q 188.306754 82.7063 188.101298 87.43605 
Q 187.896399 92.154348 187.896399 100.457178 
Q 187.896399 108.725652 188.101298 113.455402 
Q 188.306754 118.1737 188.665327 118.1737 
Q 188.865214 118.1737 189.046171 116.959769 
Q 189.227128 115.734385 189.413653 113.123289 
L 189.413653 124.186094 
z
" clip-path="url(#p340722fd0a)" style="fill: #0000ff"/>
   </g>
   <g id="patch_68">
    <path d="M 187.203752 17.28 
L 189.413653 17.28 
L 189.413653 28.092345 
L 188.618603 28.092345 
L 188.618603 72.72 
L 188.000344 72.72 
L 188.000344 28.092345 
L 187.203752 28.092345 
L 187.203752 17.28 
z
" clip-path="url(#p340722fd0a)" style="fill: #ff0000"/>
   </g>
   <g id="patch_69">
    <path d="M 189.529964 17.28 
L 191.739865 17.28 
L 191.739865 38.904689 
L 190.944814 38.904689 
L 190.944814 128.16 
L 190.326556 128.16 
L 190.326556 38.904689 
L 189.529964 38.904689 
L 189.529964 17.28 
z
" clip-path="url(#p340722fd0a)" style="fill: #ff0000"/>
   </g>
   <g id="patch_70">
    <path d="M 191.856175 17.28 
L 194.066076 17.28 
L 194.066076 38.904689 
L 193.271026 38.904689 
L 193.271026 128.16 
L 192.652767 128.16 
L 192.652767 38.904689 
L 191.856175 38.904689 
L 191.856175 17.28 
z
" clip-path="url(#p340722fd0a)" style="fill: #ff0000"/>
   </g>
   <g id="patch_71">
    <path d="M 195.713187 107.961114 
L 194.863295 107.961114 
L 194.729101 128.16 
L 194.182387 128.16 
L 194.963149 17.28 
L 195.611525 17.28 
L 196.392288 128.16 
L 195.846025 128.16 
L 195.713187 107.961114 
z
M 194.998844 87.382015 
L 195.576282 87.382015 
L 195.288015 43.277154 
L 194.998844 87.382015 
z
" clip-path="url(#p340722fd0a)" style="fill: #008000"/>
   </g>
   <g id="patch_72">
    <path d="M 196.508598 17.28 
L 198.718499 17.28 
L 198.718499 38.904689 
L 197.923449 38.904689 
L 197.923449 128.16 
L 197.30519 128.16 
L 197.30519 38.904689 
L 196.508598 38.904689 
L 196.508598 17.28 
z
" clip-path="url(#p340722fd0a)" style="fill: #ff0000"/>
   </g>
   <g id="patch_73">
    <path d="M 200.36561 107.961114 
L 199.515718 107.961114 
L 199.381524 128.16 
L 198.83481 128.16 
L 199.615572 17.28 
L 200.263948 17.28 
L 201.044711 128.16 
L 200.498448 128.16 
L 200.36561 107.961114 
z
M 199.651267 87.382015 
L 200.228706 87.382015 
L 199.940438 43.277154 
L 199.651267 87.382015 
z
" clip-path="url(#p340722fd0a)" style="fill: #008000"/>
   </g>
   <g id="patch_74">
    <path d="M 202.691822 107.961114 
L 201.841929 107.961114 
L 201.707736 128.16 
L 201.161021 128.16 
L 201.941784 17.28 
L 202.59016 17.28 
L 203.370922 128.16 
L 202.82466 128.16 
L 202.691822 107.961114 
z
M 201.977478 87.382015 
L 202.554917 87.382015 
L 202.26665 43.277154 
L 201.977478 87.382015 
z
" clip-path="url(#p340722fd0a)" style="fill: #008000"/>
   </g>
   <g id="patch_75">
    <path d="M 203.487233 17.28 
L 205.697134 17.28 
L 205.697134 38.904689 
L 204.902083 38.904689 
L 204.902083 128.16 
L 204.283825 128.16 
L 204.283825 38.904689 
L 203.487233 38.904689 
L 203.487233 17.28 
z
" clip-path="url(#p340722fd0a)" style="fill: #ff0000"/>
   </g>
   <g id="patch_76">
    <path d="M 208.023345 118.127891 
Q 207.800473 123.143945 207.560762 125.663425 
Q 207.321051 128.16 207.065491 128.16 
Q 206.488004 128.16 206.150724 113.226358 
Q 205.813445 98.292716 205.813445 72.754357 
Q 205.813445 46.91824 206.156668 32.09912 
Q 206.500386 17.28 207.098179 17.28 
Q 207.32848 17.28 207.539465 19.295584 
Q 207.750946 21.288263 207.938159 25.227812 
L 207.938159 47.330518 
Q 207.745003 42.268655 207.553828 39.77208 
Q 207.362653 37.252601 207.170488 37.252601 
Q 206.814883 37.252601 206.622223 46.460153 
Q 206.429562 55.644801 206.429562 72.754357 
Q 206.429562 89.703582 206.615289 98.956943 
Q 206.801016 108.187399 207.142753 108.187399 
Q 207.235864 108.187399 207.315603 107.660599 
Q 207.395341 107.110894 207.458736 105.965677 
L 207.458736 85.214328 
L 207.094712 85.214328 
L 207.094712 66.73051 
L 208.023345 66.73051 
L 208.023345 118.127891 
z
" clip-path="url(#p340722fd0a)" style="fill: #ffa600"/>
   </g>
   <g id="patch_77">
    <path d="M 210.349557 120.212188 
Q 210.164703 124.151737 209.964815 126.144416 
Q 209.764927 128.16 209.547222 128.16 
Q 208.898005 128.16 208.51883 113.226358 
Q 208.139656 98.292716 208.139656 72.754357 
Q 208.139656 47.124379 208.51883 32.213642 
Q 208.898005 17.28 209.547222 17.28 
Q 209.764927 17.28 209.964815 19.295584 
Q 210.164703 21.288263 210.349557 25.227812 
L 210.349557 47.330518 
Q 210.163032 42.108325 209.982075 39.680463 
Q 209.801119 37.252601 209.601231 37.252601 
Q 209.242658 37.252601 209.037202 46.712101 
Q 208.832303 56.148697 208.832303 72.754357 
Q 208.832303 89.291303 209.037202 98.750804 
Q 209.242658 108.187399 209.601231 108.187399 
Q 209.801119 108.187399 209.982075 105.759537 
Q 210.163032 103.308771 210.349557 98.086577 
L 210.349557 120.212188 
z
" clip-path="url(#p340722fd0a)" style="fill: #0000ff"/>
   </g>
   <g id="patch_78">
    <path d="M 212.675769 120.212188 
Q 212.490914 124.151737 212.291026 126.144416 
Q 212.091139 128.16 211.873434 128.16 
Q 211.224216 128.16 210.845042 113.226358 
Q 210.465868 98.292716 210.465868 72.754357 
Q 210.465868 47.124379 210.845042 32.213642 
Q 211.224216 17.28 211.873434 17.28 
Q 212.091139 17.28 212.291026 19.295584 
Q 212.490914 21.288263 212.675769 25.227812 
L 212.675769 47.330518 
Q 212.489244 42.108325 212.308287 39.680463 
Q 212.12733 37.252601 211.927442 37.252601 
Q 211.568869 37.252601 211.363414 46.712101 
Q 211.158515 56.148697 211.158515 72.754357 
Q 211.158515 89.291303 211.363414 98.750804 
Q 211.568869 108.187399 211.927442 108.187399 
Q 212.12733 108.187399 212.308287 105.759537 
Q 212.489244 103.308771 212.675769 98.086577 
L 212.675769 120.212188 
z
" clip-path="url(#p340722fd0a)" style="fill: #0000ff"/>
   </g>
   <g id="patch_79">
    <path d="M 214.32288 107.961114 
L 213.472987 107.961114 
L 213.338794 128.16 
L 212.792079 128.16 
L 213.572842 17.28 
L 214.221218 17.28 
L 215.00198 128.16 
L 214.455718 128.16 
L 214.32288 107.961114 
z
M 213.608536 87.382015 
L 214.185975 87.382015 
L 213.897707 43.277154 
L 213.608536 87.382015 
z
" clip-path="url(#p340722fd0a)" style="fill: #008000"/>
   </g>
   <g id="patch_80">
    <path d="M 216.649091 107.961114 
L 215.799199 107.961114 
L 215.665005 128.16 
L 215.118291 128.16 
L 215.899053 17.28 
L 216.547429 17.28 
L 217.328192 128.16 
L 216.781929 128.16 
L 216.649091 107.961114 
z
M 215.934748 87.382015 
L 216.512187 87.382015 
L 216.223919 43.277154 
L 215.934748 87.382015 
z
" clip-path="url(#p340722fd0a)" style="fill: #008000"/>
   </g>
   <g id="patch_81">
    <path d="M 219.654403 120.212188 
Q 219.469549 124.151737 219.269661 126.144416 
Q 219.069773 128.16 218.852068 128.16 
Q 218.202851 128.16 217.823677 113.226358 
Q 217.444502 98.292716 217.444502 72.754357 
Q 217.444502 47.124379 217.823677 32.213642 
Q 218.202851 17.28 218.852068 17.28 
Q 219.069773 17.28 219.269661 19.295584 
Q 219.469549 21.288263 219.654403 25.227812 
L 219.654403 47.330518 
Q 219.467879 42.108325 219.286922 39.680463 
Q 219.105965 37.252601 218.906077 37.252601 
Q 218.547504 37.252601 218.342048 46.712101 
Q 218.13715 56.148697 218.13715 72.754357 
Q 218.13715 89.291303 218.342048 98.750804 
Q 218.547504 108.187399 218.906077 108.187399 
Q 219.105965 108.187399 219.286922 105.759537 
Q 219.467879 103.308771 219.654403 98.086577 
L 219.654403 120.212188 
z
" clip-path="url(#p340722fd0a)" style="fill: #0000ff"/>
   </g>
   <g id="patch_82">
    <path d="M 219.770714 17.28 
L 221.980615 17.28 
L 221.980615 38.904689 
L 221.185564 38.904689 
L 221.185564 128.16 
L 220.567306 128.16 
L 220.567306 38.904689 
L 219.770714 38.904689 
L 219.770714 17.28 
z
" clip-path="url(#p340722fd0a)" style="fill: #ff0000"/>
   </g>
   <g id="patch_83">
    <path d="M 222.096925 17.28 
L 224.306826 17.28 
L 224.306826 38.904689 
L 223.511776 38.904689 
L 223.511776 128.16 
L 222.893518 128.16 
L 222.893518 38.904689 
L 222.096925 38.904689 
L 222.096925 17.28 
z
" clip-path="url(#p340722fd0a)" style="fill: #ff0000"/>
   </g>
   <g id="patch_84">
    <path d="M 224.423137 17.28 
L 226.633038 17.28 
L 226.633038 38.904689 
L 225.837988 38.904689 
L 225.837988 128.16 
L 225.219729 128.16 
L 225.219729 38.904689 
L 224.423137 38.904689 
L 224.423137 17.28 
z
" clip-path="url(#p340722fd0a)" style="fill: #ff0000"/>
   </g>
   <g id="patch_85">
    <path d="M 228.95925 118.127891 
Q 228.736377 123.143945 228.496666 125.663425 
Q 228.256955 128.16 228.001395 128.16 
Q 227.423908 128.16 227.086628 113.226358 
Q 226.749349 98.292716 226.749349 72.754357 
Q 226.749349 46.91824 227.092572 32.09912 
Q 227.43629 17.28 228.034083 17.28 
Q 228.264384 17.28 228.475369 19.295584 
Q 228.68685 21.288263 228.874063 25.227812 
L 228.874063 47.330518 
Q 228.680907 42.268655 228.489732 39.77208 
Q 228.298558 37.252601 228.106392 37.252601 
Q 227.750787 37.252601 227.558127 46.460153 
Q 227.365466 55.644801 227.365466 72.754357 
Q 227.365466 89.703582 227.551193 98.956943 
Q 227.73692 108.187399 228.078657 108.187399 
Q 228.171768 108.187399 228.251507 107.660599 
Q 228.331245 107.110894 228.39464 105.965677 
L 228.39464 85.214328 
L 228.030616 85.214328 
L 228.030616 66.73051 
L 228.95925 66.73051 
L 228.95925 118.127891 
z
" clip-path="url(#p340722fd0a)" style="fill: #ffa600"/>
   </g>
   <g id="patch_86">
    <path d="M 229.07556 17.28 
L 231.285461 17.28 
L 231.285461 38.904689 
L 230.490411 38.904689 
L 230.490411 128.16 
L 229.872152 128.16 
L 229.872152 38.904689 
L 229.07556 38.904689 
L 229.07556 17.28 
z
" clip-path="url(#p340722fd0a)" style="fill: #ff0000"/>
   </g>
   <g id="patch_87">
    <path d="M 232.932572 107.961114 
L 232.08268 107.961114 
L 231.948486 128.16 
L 231.401772 128.16 
L 232.182534 17.28 
L 232.83091 17.28 
L 233.611673 128.16 
L 233.06541 128.16 
L 232.932572 107.961114 
z
M 232.218229 87.382015 
L 232.795668 87.382015 
L 232.5074 43.277154 
L 232.218229 87.382015 
z
" clip-path="url(#p340722fd0a)" style="fill: #008000"/>
   </g>
   <g id="patch_88">
    <path d="M 233.727983 17.28 
L 235.937884 17.28 
L 235.937884 38.904689 
L 235.142834 38.904689 
L 235.142834 128.16 
L 234.524576 128.16 
L 234.524576 38.904689 
L 233.727983 38.904689 
L 233.727983 17.28 
z
" clip-path="url(#p340722fd0a)" style="fill: #ff0000"/>
   </g>
   <g id="patch_89">
    <path d="M 237.584995 107.961114 
L 236.735103 107.961114 
L 236.600909 128.16 
L 236.054195 128.16 
L 236.834957 17.28 
L 237.483333 17.28 
L 238.264096 128.16 
L 237.717833 128.16 
L 237.584995 107.961114 
z
M 236.870652 87.382015 
L 237.448091 87.382015 
L 237.159823 43.277154 
L 236.870652 87.382015 
z
" clip-path="url(#p340722fd0a)" style="fill: #008000"/>
   </g>
   <g id="patch_90">
    <path d="M 240.590307 118.127891 
Q 240.367435 123.143945 240.127724 125.663425 
Q 239.888013 128.16 239.632453 128.16 
Q 239.054966 128.16 238.717686 113.226358 
Q 238.380406 98.292716 238.380406 72.754357 
Q 238.380406 46.91824 238.72363 32.09912 
Q 239.067348 17.28 239.66514 17.28 
Q 239.895442 17.28 240.106427 19.295584 
Q 240.317908 21.288263 240.505121 25.227812 
L 240.505121 47.330518 
Q 240.311965 42.268655 240.12079 39.77208 
Q 239.929615 37.252601 239.73745 37.252601 
Q 239.381845 37.252601 239.189185 46.460153 
Q 238.996524 55.644801 238.996524 72.754357 
Q 238.996524 89.703582 239.182251 98.956943 
Q 239.367978 108.187399 239.709715 108.187399 
Q 239.802826 108.187399 239.882565 107.660599 
Q 239.962303 107.110894 240.025698 105.965677 
L 240.025698 85.214328 
L 239.661674 85.214328 
L 239.661674 66.73051 
L 240.590307 66.73051 
L 240.590307 118.127891 
z
" clip-path="url(#p340722fd0a)" style="fill: #ffa600"/>
   </g>
   <g id="patch_91">
    <path d="M 242.237418 107.961114 
L 241.387526 107.961114 
L 241.253332 128.16 
L 240.706618 128.16 
L 241.48738 17.28 
L 242.135757 17.28 
L 242.916519 128.16 
L 242.370256 128.16 
L 242.237418 107.961114 
z
M 241.523075 87.382015 
L 242.100514 87.382015 
L 241.812246 43.277154 
L 241.523075 87.382015 
z
" clip-path="url(#p340722fd0a)" style="fill: #008000"/>
   </g>
   <g id="patch_92">
    <path d="M 244.56363 107.961114 
L 243.713738 107.961114 
L 243.579544 128.16 
L 243.03283 128.16 
L 243.813592 17.28 
L 244.461968 17.28 
L 245.242731 128.16 
L 244.696468 128.16 
L 244.56363 107.961114 
z
M 243.849287 87.382015 
L 244.426725 87.382015 
L 244.138458 43.277154 
L 243.849287 87.382015 
z
" clip-path="url(#p340722fd0a)" style="fill: #008000"/>
   </g>
   <g id="patch_93">
    <path d="M 246.889842 107.961114 
L 246.039949 107.961114 
L 245.905756 128.16 
L 245.359041 128.16 
L 246.139804 17.28 
L 246.78818 17.28 
L 247.568942 128.16 
L 247.02268 128.16 
L 246.889842 107.961114 
z
M 246.175498 87.382015 
L 246.752937 87.382015 
L 246.464669 43.277154 
L 246.175498 87.382015 
z
" clip-path="url(#p340722fd0a)" style="fill: #008000"/>
   </g>
   <g id="patch_94">
    <path d="M 249.216053 107.961114 
L 248.366161 107.961114 
L 248.231967 128.16 
L 247.685253 128.16 
L 248.466015 17.28 
L 249.114391 17.28 
L 249.895154 128.16 
L 249.348891 128.16 
L 249.216053 107.961114 
z
M 248.50171 87.382015 
L 249.079149 87.382015 
L 248.790881 43.277154 
L 248.50171 87.382015 
z
" clip-path="url(#p340722fd0a)" style="fill: #008000"/>
   </g>
   <g id="patch_95">
    <path d="M 252.221365 118.127891 
Q 251.998493 123.143945 251.758782 125.663425 
Q 251.51907 128.16 251.26351 128.16 
Q 250.686024 128.16 250.348744 113.226358 
Q 250.011464 98.292716 250.011464 72.754357 
Q 250.011464 46.91824 250.354687 32.09912 
Q 250.698406 17.28 251.296198 17.28 
Q 251.5265 17.28 251.737485 19.295584 
Q 251.948966 21.288263 252.136179 25.227812 
L 252.136179 47.330518 
Q 251.943023 42.268655 251.751848 39.77208 
Q 251.560673 37.252601 251.368508 37.252601 
Q 251.012903 37.252601 250.820243 46.460153 
Q 250.627582 55.644801 250.627582 72.754357 
Q 250.627582 89.703582 250.813309 98.956943 
Q 250.999035 108.187399 251.340773 108.187399 
Q 251.433884 108.187399 251.513622 107.660599 
Q 251.593361 107.110894 251.656756 105.965677 
L 251.656756 85.214328 
L 251.292731 85.214328 
L 251.292731 66.73051 
L 252.221365 66.73051 
L 252.221365 118.127891 
z
" clip-path="url(#p340722fd0a)" style="fill: #ffa600"/>
   </g>
   <g id="patch_96">
    <path d="M 252.337676 17.28 
L 254.547577 17.28 
L 254.547577 38.904689 
L 253.752526 38.904689 
L 253.752526 128.16 
L 253.134268 128.16 
L 253.134268 38.904689 
L 252.337676 38.904689 
L 252.337676 17.28 
z
" clip-path="url(#p340722fd0a)" style="fill: #ff0000"/>
   </g>
   <g id="patch_97">
    <path d="M 256.873788 123.143945 
Q 256.650916 125.651973 256.411205 126.911712 
Q 256.171494 128.16 255.915934 128.16 
Q 255.338447 128.16 255.001167 120.693179 
Q 254.663887 113.226358 254.663887 100.457178 
Q 254.663887 87.53912 255.007111 80.12956 
Q 255.350829 72.72 255.948621 72.72 
Q 256.178923 72.72 256.389908 73.727792 
Q 256.601389 74.724131 256.788602 76.693906 
L 256.788602 87.745259 
Q 256.595446 85.214328 256.404271 83.96604 
Q 256.213096 82.7063 256.020931 82.7063 
Q 255.665326 82.7063 255.472666 87.310076 
Q 255.280005 91.9024 255.280005 100.457178 
Q 255.280005 108.931791 255.465732 113.558471 
Q 255.651459 118.1737 255.993196 118.1737 
Q 256.086307 118.1737 256.166046 117.9103 
Q 256.245784 117.635447 256.309179 117.062838 
L 256.309179 106.687164 
L 255.945155 106.687164 
L 255.945155 97.445255 
L 256.873788 97.445255 
L 256.873788 123.143945 
z
" clip-path="url(#p340722fd0a)" style="fill: #ffa600"/>
   </g>
   <g id="patch_98">
    <path d="M 254.663887 17.28 
L 256.873788 17.28 
L 256.873788 28.092345 
L 256.078738 28.092345 
L 256.078738 72.72 
L 255.46048 72.72 
L 255.46048 28.092345 
L 254.663887 28.092345 
L 254.663887 17.28 
z
" clip-path="url(#p340722fd0a)" style="fill: #ff0000"/>
   </g>
   <g id="patch_99">
    <path d="M 259.2 118.127891 
Q 258.977128 123.143945 258.737417 125.663425 
Q 258.497705 128.16 258.242145 128.16 
Q 257.664659 128.16 257.327379 113.226358 
Q 256.990099 98.292716 256.990099 72.754357 
Q 256.990099 46.91824 257.333322 32.09912 
Q 257.67704 17.28 258.274833 17.28 
Q 258.505134 17.28 258.71612 19.295584 
Q 258.927601 21.288263 259.114813 25.227812 
L 259.114813 47.330518 
Q 258.921657 42.268655 258.730483 39.77208 
Q 258.539308 37.252601 258.347143 37.252601 
Q 257.991538 37.252601 257.798877 46.460153 
Q 257.606217 55.644801 257.606217 72.754357 
Q 257.606217 89.703582 257.791943 98.956943 
Q 257.97767 108.187399 258.319407 108.187399 
Q 258.412518 108.187399 258.492257 107.660599 
Q 258.571996 107.110894 258.635391 105.965677 
L 258.635391 85.214328 
L 258.271366 85.214328 
L 258.271366 66.73051 
L 259.2 66.73051 
L 259.2 118.127891 
z
" clip-path="url(#p340722fd0a)" style="fill: #ffa600"/>
   </g>
  </g>
 </g>
 <defs>
  <clipPath id="p340722fd0a">
   <rect x="36" y="17.28" width="223.2" height="110.88"/>
  </clipPath>
 </defs>
</svg>
