<?xml version="1.0" encoding="utf-8" standalone="no"?>
<!DOCTYPE svg PUBLIC "-//W3C//DTD SVG 1.1//EN"
  "http://www.w3.org/Graphics/SVG/1.1/DTD/svg11.dtd">
<svg xmlns:xlink="http://www.w3.org/1999/xlink" width="288pt" height="144pt" viewBox="0 0 288 144" xmlns="http://www.w3.org/2000/svg" version="1.1">
 <metadata>
  <rdf:RDF xmlns:dc="http://purl.org/dc/elements/1.1/" xmlns:cc="http://creativecommons.org/ns#" xmlns:rdf="http://www.w3.org/1999/02/22-rdf-syntax-ns#">
   <cc:Work>
    <dc:type rdf:resource="http://purl.org/dc/dcmitype/StillImage"/>
    <dc:date>2024-11-11T17:03:47.955090</dc:date>
    <dc:format>image/svg+xml</dc:format>
    <dc:creator>
     <cc:Agent>
      <dc:title>Matplotlib v3.9.2, https://matplotlib.org/</dc:title>
     </cc:Agent>
    </dc:creator>
   </cc:Work>
  </rdf:RDF>
 </metadata>
 <defs>
  <style type="text/css">*{stroke-linejoin: round; stroke-linecap: butt}</style>
 </defs>
 <g id="figure_1">
  <g id="patch_1">
   <path d="M 0 144 
L 288 144 
L 288 0 
L 0 0 
z
" style="fill: #ffffff"/>
  </g>
  <g id="axes_1">
   <g id="line2d_1">
    <path d="M 36 128.16 
L 259.2 128.16 
" clip-path="url(#p1c3043b3d3)" style="fill: none; stroke: #000000; stroke-width: 0.5; stroke-linecap: square"/>
   </g>
   <g id="patch_2">
    <path d="M 37.351004 120.212188 
Q 37.237994 124.151737 37.115795 126.144416 
Q 36.993595 128.16 36.860503 128.16 
Q 36.46361 128.16 36.231805 113.226358 
Q 36 98.292716 36 72.754357 
Q 36 47.124379 36.231805 32.213642 
Q 36.46361 17.28 36.860503 17.28 
Q 36.993595 17.28 37.115795 19.295584 
Q 37.237994 21.288263 37.351004 25.227812 
L 37.351004 47.330518 
Q 37.236973 42.108325 37.126347 39.680463 
Q 37.01572 37.252601 36.893521 37.252601 
Q 36.67431 37.252601 36.548707 46.712101 
Q 36.423444 56.148697 36.423444 72.754357 
Q 36.423444 89.291303 36.548707 98.750804 
Q 36.67431 108.187399 36.893521 108.187399 
Q 37.01572 108.187399 37.126347 105.759537 
Q 37.236973 103.308771 37.351004 98.086577 
L 37.351004 120.212188 
z
" clip-path="url(#p1c3043b3d3)" style="fill: #0000ff"/>
   </g>
   <g id="patch_3">
    <path d="M 38.35795 118.060557 
L 37.838376 118.060557 
L 37.756338 128.16 
L 37.422109 128.16 
L 37.899421 72.72 
L 38.2958 72.72 
L 38.773112 128.16 
L 38.43916 128.16 
L 38.35795 118.060557 
z
M 37.921243 107.771007 
L 38.274255 107.771007 
L 38.098025 85.718577 
L 37.921243 107.771007 
z
" clip-path="url(#p1c3043b3d3)" style="fill: #008000"/>
   </g>
   <g id="patch_4">
    <path d="M 38.773112 68.746094 
Q 38.660103 70.715869 38.537904 71.712208 
Q 38.415704 72.72 38.282612 72.72 
Q 37.885719 72.72 37.653914 65.253179 
Q 37.422109 57.786358 37.422109 45.017178 
Q 37.422109 32.20219 37.653914 24.746821 
Q 37.885719 17.28 38.282612 17.28 
Q 38.415704 17.28 38.537904 18.287792 
Q 38.660103 19.284131 38.773112 21.253906 
L 38.773112 32.305259 
Q 38.659082 29.694162 38.548456 28.480231 
Q 38.437829 27.2663 38.31563 27.2663 
Q 38.096419 27.2663 37.970816 31.99605 
Q 37.845553 36.714348 37.845553 45.017178 
Q 37.845553 53.285652 37.970816 58.015402 
Q 38.096419 62.7337 38.31563 62.7337 
Q 38.437829 62.7337 38.548456 61.519769 
Q 38.659082 60.294385 38.773112 57.683289 
L 38.773112 68.746094 
z
" clip-path="url(#p1c3043b3d3)" style="fill: #0000ff"/>
   </g>
   <g id="patch_5">
    <path d="M 39.780059 107.961114 
L 39.260485 107.961114 
L 39.178447 128.16 
L 38.844218 128.16 
L 39.32153 17.28 
L 39.717909 17.28 
L 40.195221 128.16 
L 39.861269 128.16 
L 39.780059 107.961114 
z
M 39.343352 87.382015 
L 39.696364 87.382015 
L 39.520134 43.277154 
L 39.343352 87.382015 
z
" clip-path="url(#p1c3043b3d3)" style="fill: #008000"/>
   </g>
   <g id="patch_6">
    <path d="M 41.61733 120.212188 
Q 41.504321 124.151737 41.382122 126.144416 
Q 41.259922 128.16 41.12683 128.16 
Q 40.729937 128.16 40.498132 113.226358 
Q 40.266327 98.292716 40.266327 72.754357 
Q 40.266327 47.124379 40.498132 32.213642 
Q 40.729937 17.28 41.12683 17.28 
Q 41.259922 17.28 41.382122 19.295584 
Q 41.504321 21.288263 41.61733 25.227812 
L 41.61733 47.330518 
Q 41.5033 42.108325 41.392674 39.680463 
Q 41.282047 37.252601 41.159848 37.252601 
Q 40.940637 37.252601 40.815034 46.712101 
Q 40.689771 56.148697 40.689771 72.754357 
Q 40.689771 89.291303 40.815034 98.750804 
Q 40.940637 108.187399 41.159848 108.187399 
Q 41.282047 108.187399 41.392674 105.759537 
Q 41.5033 103.308771 41.61733 98.086577 
L 41.61733 120.212188 
z
" clip-path="url(#p1c3043b3d3)" style="fill: #0000ff"/>
   </g>
   <g id="patch_7">
    <path d="M 41.688436 17.28 
L 43.039439 17.28 
L 43.039439 38.904689 
L 42.553392 38.904689 
L 42.553392 128.16 
L 42.175425 128.16 
L 42.175425 38.904689 
L 41.688436 38.904689 
L 41.688436 17.28 
z
" clip-path="url(#p1c3043b3d3)" style="fill: #ff0000"/>
   </g>
   <g id="patch_8">
    <path d="M 43.110545 17.28 
L 44.461548 17.28 
L 44.461548 38.904689 
L 43.975501 38.904689 
L 43.975501 128.16 
L 43.597534 128.16 
L 43.597534 38.904689 
L 43.110545 38.904689 
L 43.110545 17.28 
z
" clip-path="url(#p1c3043b3d3)" style="fill: #ff0000"/>
   </g>
   <g id="patch_9">
    <path d="M 44.532654 17.28 
L 45.883657 17.28 
L 45.883657 38.904689 
L 45.39761 38.904689 
L 45.39761 128.16 
L 45.019643 128.16 
L 45.019643 38.904689 
L 44.532654 38.904689 
L 44.532654 17.28 
z
" clip-path="url(#p1c3043b3d3)" style="fill: #ff0000"/>
   </g>
   <g id="patch_10">
    <path d="M 47.305766 118.127891 
Q 47.169515 123.143945 47.02297 125.663425 
Q 46.876424 128.16 46.72019 128.16 
Q 46.367149 128.16 46.160956 113.226358 
Q 45.954763 98.292716 45.954763 72.754357 
Q 45.954763 46.91824 46.164589 32.09912 
Q 46.374718 17.28 46.740173 17.28 
Q 46.880966 17.28 47.00995 19.295584 
Q 47.139237 21.288263 47.253688 25.227812 
L 47.253688 47.330518 
Q 47.135604 42.268655 47.018731 39.77208 
Q 46.901858 37.252601 46.784379 37.252601 
Q 46.566983 37.252601 46.449202 46.460153 
Q 46.331421 55.644801 46.331421 72.754357 
Q 46.331421 89.703582 46.444963 98.956943 
Q 46.558506 108.187399 46.767424 108.187399 
Q 46.824346 108.187399 46.873094 107.660599 
Q 46.921841 107.110894 46.960597 105.965677 
L 46.960597 85.214328 
L 46.738054 85.214328 
L 46.738054 66.73051 
L 47.305766 66.73051 
L 47.305766 118.127891 
z
" clip-path="url(#p1c3043b3d3)" style="fill: #ffa600"/>
   </g>
   <g id="patch_11">
    <path d="M 47.376872 17.28 
L 48.727875 17.28 
L 48.727875 38.904689 
L 48.241828 38.904689 
L 48.241828 128.16 
L 47.863861 128.16 
L 47.863861 38.904689 
L 47.376872 38.904689 
L 47.376872 17.28 
z
" clip-path="url(#p1c3043b3d3)" style="fill: #ff0000"/>
   </g>
   <g id="patch_12">
    <path d="M 49.734822 107.961114 
L 49.215248 107.961114 
L 49.13321 128.16 
L 48.798981 128.16 
L 49.276293 17.28 
L 49.672672 17.28 
L 50.149984 128.16 
L 49.816031 128.16 
L 49.734822 107.961114 
z
M 49.298114 87.382015 
L 49.651127 87.382015 
L 49.474897 43.277154 
L 49.298114 87.382015 
z
" clip-path="url(#p1c3043b3d3)" style="fill: #008000"/>
   </g>
   <g id="patch_13">
    <path d="M 50.22109 17.28 
L 51.572093 17.28 
L 51.572093 38.904689 
L 51.086046 38.904689 
L 51.086046 128.16 
L 50.708079 128.16 
L 50.708079 38.904689 
L 50.22109 38.904689 
L 50.22109 17.28 
z
" clip-path="url(#p1c3043b3d3)" style="fill: #ff0000"/>
   </g>
   <g id="patch_14">
    <path d="M 52.57904 107.961114 
L 52.059466 107.961114 
L 51.977428 128.16 
L 51.643198 128.16 
L 52.120511 17.28 
L 52.51689 17.28 
L 52.994202 128.16 
L 52.660249 128.16 
L 52.57904 107.961114 
z
M 52.142332 87.382015 
L 52.495344 87.382015 
L 52.319115 43.277154 
L 52.142332 87.382015 
z
" clip-path="url(#p1c3043b3d3)" style="fill: #008000"/>
   </g>
   <g id="patch_15">
    <path d="M 54.416311 120.212188 
Q 54.303302 124.151737 54.181102 126.144416 
Q 54.058903 128.16 53.925811 128.16 
Q 53.528917 128.16 53.297112 113.226358 
Q 53.065307 98.292716 53.065307 72.754357 
Q 53.065307 47.124379 53.297112 32.213642 
Q 53.528917 17.28 53.925811 17.28 
Q 54.058903 17.28 54.181102 19.295584 
Q 54.303302 21.288263 54.416311 25.227812 
L 54.416311 47.330518 
Q 54.302281 42.108325 54.191654 39.680463 
Q 54.081028 37.252601 53.958828 37.252601 
Q 53.739618 37.252601 53.614014 46.712101 
Q 53.488751 56.148697 53.488751 72.754357 
Q 53.488751 89.291303 53.614014 98.750804 
Q 53.739618 108.187399 53.958828 108.187399 
Q 54.081028 108.187399 54.191654 105.759537 
Q 54.302281 103.308771 54.416311 98.086577 
L 54.416311 120.212188 
z
" clip-path="url(#p1c3043b3d3)" style="fill: #0000ff"/>
   </g>
   <g id="patch_16">
    <path d="M 55.423258 107.961114 
L 54.903683 107.961114 
L 54.821645 128.16 
L 54.487416 128.16 
L 54.964729 17.28 
L 55.361108 17.28 
L 55.83842 128.16 
L 55.504467 128.16 
L 55.423258 107.961114 
z
M 54.98655 87.382015 
L 55.339562 87.382015 
L 55.163332 43.277154 
L 54.98655 87.382015 
z
" clip-path="url(#p1c3043b3d3)" style="fill: #008000"/>
   </g>
   <g id="patch_17">
    <path d="M 56.845367 107.961114 
L 56.325792 107.961114 
L 56.243754 128.16 
L 55.909525 128.16 
L 56.386838 17.28 
L 56.783217 17.28 
L 57.260529 128.16 
L 56.926576 128.16 
L 56.845367 107.961114 
z
M 56.408659 87.382015 
L 56.761671 87.382015 
L 56.585441 43.277154 
L 56.408659 87.382015 
z
" clip-path="url(#p1c3043b3d3)" style="fill: #008000"/>
   </g>
   <g id="patch_18">
    <path d="M 58.267476 107.961114 
L 57.747901 107.961114 
L 57.665863 128.16 
L 57.331634 128.16 
L 57.808946 17.28 
L 58.205326 17.28 
L 58.682638 128.16 
L 58.348685 128.16 
L 58.267476 107.961114 
z
M 57.830768 87.382015 
L 58.18378 87.382015 
L 58.00755 43.277154 
L 57.830768 87.382015 
z
" clip-path="url(#p1c3043b3d3)" style="fill: #008000"/>
   </g>
   <g id="patch_19">
    <path d="M 59.689585 107.961114 
L 59.17001 107.961114 
L 59.087972 128.16 
L 58.753743 128.16 
L 59.231055 17.28 
L 59.627435 17.28 
L 60.104747 128.16 
L 59.770794 128.16 
L 59.689585 107.961114 
z
M 59.252877 87.382015 
L 59.605889 87.382015 
L 59.429659 43.277154 
L 59.252877 87.382015 
z
" clip-path="url(#p1c3043b3d3)" style="fill: #008000"/>
   </g>
   <g id="patch_20">
    <path d="M 61.526856 118.127891 
Q 61.390605 123.143945 61.244059 125.663425 
Q 61.097514 128.16 60.94128 128.16 
Q 60.588238 128.16 60.382045 113.226358 
Q 60.175852 98.292716 60.175852 72.754357 
Q 60.175852 46.91824 60.385679 32.09912 
Q 60.595808 17.28 60.961263 17.28 
Q 61.102056 17.28 61.23104 19.295584 
Q 61.360327 21.288263 61.474778 25.227812 
L 61.474778 47.330518 
Q 61.356693 42.268655 61.23982 39.77208 
Q 61.122947 37.252601 61.005469 37.252601 
Q 60.788073 37.252601 60.670292 46.460153 
Q 60.55251 55.644801 60.55251 72.754357 
Q 60.55251 89.703582 60.666053 98.956943 
Q 60.779595 108.187399 60.988513 108.187399 
Q 61.045436 108.187399 61.094183 107.660599 
Q 61.142931 107.110894 61.181687 105.965677 
L 61.181687 85.214328 
L 60.959144 85.214328 
L 60.959144 66.73051 
L 61.526856 66.73051 
L 61.526856 118.127891 
z
" clip-path="url(#p1c3043b3d3)" style="fill: #ffa600"/>
   </g>
   <g id="patch_21">
    <path d="M 61.597961 17.28 
L 62.948965 17.28 
L 62.948965 38.904689 
L 62.462918 38.904689 
L 62.462918 128.16 
L 62.084951 128.16 
L 62.084951 38.904689 
L 61.597961 38.904689 
L 61.597961 17.28 
z
" clip-path="url(#p1c3043b3d3)" style="fill: #ff0000"/>
   </g>
   <g id="patch_22">
    <path d="M 63.02007 17.28 
L 64.371074 17.28 
L 64.371074 38.904689 
L 63.885027 38.904689 
L 63.885027 128.16 
L 63.50706 128.16 
L 63.50706 38.904689 
L 63.02007 38.904689 
L 63.02007 17.28 
z
" clip-path="url(#p1c3043b3d3)" style="fill: #ff0000"/>
   </g>
   <g id="patch_23">
    <path d="M 65.793183 118.127891 
Q 65.656932 123.143945 65.510386 125.663425 
Q 65.363841 128.16 65.207606 128.16 
Q 64.854565 128.16 64.648372 113.226358 
Q 64.442179 98.292716 64.442179 72.754357 
Q 64.442179 46.91824 64.652005 32.09912 
Q 64.862135 17.28 65.22759 17.28 
Q 65.368382 17.28 65.497367 19.295584 
Q 65.626654 21.288263 65.741104 25.227812 
L 65.741104 47.330518 
Q 65.62302 42.268655 65.506147 39.77208 
Q 65.389274 37.252601 65.271796 37.252601 
Q 65.0544 37.252601 64.936618 46.460153 
Q 64.818837 55.644801 64.818837 72.754357 
Q 64.818837 89.703582 64.93238 98.956943 
Q 65.045922 108.187399 65.25484 108.187399 
Q 65.311763 108.187399 65.36051 107.660599 
Q 65.409258 107.110894 65.448014 105.965677 
L 65.448014 85.214328 
L 65.22547 85.214328 
L 65.22547 66.73051 
L 65.793183 66.73051 
L 65.793183 118.127891 
z
" clip-path="url(#p1c3043b3d3)" style="fill: #ffa600"/>
   </g>
   <g id="patch_24">
    <path d="M 66.800129 107.961114 
L 66.280555 107.961114 
L 66.198517 128.16 
L 65.864288 128.16 
L 66.3416 17.28 
L 66.737979 17.28 
L 67.215291 128.16 
L 66.881339 128.16 
L 66.800129 107.961114 
z
M 66.363422 87.382015 
L 66.716434 87.382015 
L 66.540204 43.277154 
L 66.363422 87.382015 
z
" clip-path="url(#p1c3043b3d3)" style="fill: #008000"/>
   </g>
   <g id="patch_25">
    <path d="M 68.222238 107.961114 
L 67.702664 107.961114 
L 67.620626 128.16 
L 67.286397 128.16 
L 67.763709 17.28 
L 68.160088 17.28 
L 68.6374 128.16 
L 68.303448 128.16 
L 68.222238 107.961114 
z
M 67.785531 87.382015 
L 68.138543 87.382015 
L 67.962313 43.277154 
L 67.785531 87.382015 
z
" clip-path="url(#p1c3043b3d3)" style="fill: #008000"/>
   </g>
   <g id="patch_26">
    <path d="M 70.059509 120.212188 
Q 69.9465 124.151737 69.824301 126.144416 
Q 69.702101 128.16 69.569009 128.16 
Q 69.172116 128.16 68.940311 113.226358 
Q 68.708506 98.292716 68.708506 72.754357 
Q 68.708506 47.124379 68.940311 32.213642 
Q 69.172116 17.28 69.569009 17.28 
Q 69.702101 17.28 69.824301 19.295584 
Q 69.9465 21.288263 70.059509 25.227812 
L 70.059509 47.330518 
Q 69.945479 42.108325 69.834853 39.680463 
Q 69.724226 37.252601 69.602027 37.252601 
Q 69.382816 37.252601 69.257213 46.712101 
Q 69.13195 56.148697 69.13195 72.754357 
Q 69.13195 89.291303 69.257213 98.750804 
Q 69.382816 108.187399 69.602027 108.187399 
Q 69.724226 108.187399 69.834853 105.759537 
Q 69.945479 103.308771 70.059509 98.086577 
L 70.059509 120.212188 
z
" clip-path="url(#p1c3043b3d3)" style="fill: #0000ff"/>
   </g>
   <g id="patch_27">
    <path d="M 71.481618 118.127891 
Q 71.345367 123.143945 71.198822 125.663425 
Q 71.052277 128.16 70.896042 128.16 
Q 70.543001 128.16 70.336808 113.226358 
Q 70.130615 98.292716 70.130615 72.754357 
Q 70.130615 46.91824 70.340441 32.09912 
Q 70.55057 17.28 70.916026 17.28 
Q 71.056818 17.28 71.185802 19.295584 
Q 71.315089 21.288263 71.42954 25.227812 
L 71.42954 47.330518 
Q 71.311456 42.268655 71.194583 39.77208 
Q 71.07771 37.252601 70.960232 37.252601 
Q 70.742836 37.252601 70.625054 46.460153 
Q 70.507273 55.644801 70.507273 72.754357 
Q 70.507273 89.703582 70.620815 98.956943 
Q 70.734358 108.187399 70.943276 108.187399 
Q 71.000198 108.187399 71.048946 107.660599 
Q 71.097694 107.110894 71.136449 105.965677 
L 71.136449 85.214328 
L 70.913906 85.214328 
L 70.913906 66.73051 
L 71.481618 66.73051 
L 71.481618 118.127891 
z
" clip-path="url(#p1c3043b3d3)" style="fill: #ffa600"/>
   </g>
   <g id="patch_28">
    <path d="M 72.488565 107.961114 
L 71.968991 107.961114 
L 71.886953 128.16 
L 71.552724 128.16 
L 72.030036 17.28 
L 72.426415 17.28 
L 72.903727 128.16 
L 72.569774 128.16 
L 72.488565 107.961114 
z
M 72.051858 87.382015 
L 72.40487 87.382015 
L 72.22864 43.277154 
L 72.051858 87.382015 
z
" clip-path="url(#p1c3043b3d3)" style="fill: #008000"/>
   </g>
   <g id="patch_29">
    <path d="M 74.325836 118.127891 
Q 74.189585 123.143945 74.04304 125.663425 
Q 73.896494 128.16 73.74026 128.16 
Q 73.387219 128.16 73.181026 113.226358 
Q 72.974833 98.292716 72.974833 72.754357 
Q 72.974833 46.91824 73.184659 32.09912 
Q 73.394788 17.28 73.760244 17.28 
Q 73.901036 17.28 74.03002 19.295584 
Q 74.159307 21.288263 74.273758 25.227812 
L 74.273758 47.330518 
Q 74.155674 42.268655 74.038801 39.77208 
Q 73.921928 37.252601 73.804449 37.252601 
Q 73.587054 37.252601 73.469272 46.460153 
Q 73.351491 55.644801 73.351491 72.754357 
Q 73.351491 89.703582 73.465033 98.956943 
Q 73.578576 108.187399 73.787494 108.187399 
Q 73.844416 108.187399 73.893164 107.660599 
Q 73.941911 107.110894 73.980667 105.965677 
L 73.980667 85.214328 
L 73.758124 85.214328 
L 73.758124 66.73051 
L 74.325836 66.73051 
L 74.325836 118.127891 
z
" clip-path="url(#p1c3043b3d3)" style="fill: #ffa600"/>
   </g>
   <g id="patch_30">
    <path d="M 75.332783 107.961114 
L 74.813209 107.961114 
L 74.731171 128.16 
L 74.396942 128.16 
L 74.874254 17.28 
L 75.270633 17.28 
L 75.747945 128.16 
L 75.413992 128.16 
L 75.332783 107.961114 
z
M 74.896075 87.382015 
L 75.249088 87.382015 
L 75.072858 43.277154 
L 74.896075 87.382015 
z
" clip-path="url(#p1c3043b3d3)" style="fill: #008000"/>
   </g>
   <g id="patch_31">
    <path d="M 76.754892 107.961114 
L 76.235318 107.961114 
L 76.15328 128.16 
L 75.819051 128.16 
L 76.296363 17.28 
L 76.692742 17.28 
L 77.170054 128.16 
L 76.836101 128.16 
L 76.754892 107.961114 
z
M 76.318184 87.382015 
L 76.671197 87.382015 
L 76.494967 43.277154 
L 76.318184 87.382015 
z
" clip-path="url(#p1c3043b3d3)" style="fill: #008000"/>
   </g>
   <g id="patch_32">
    <path d="M 78.177001 107.961114 
L 77.657427 107.961114 
L 77.575389 128.16 
L 77.24116 128.16 
L 77.718472 17.28 
L 78.114851 17.28 
L 78.592163 128.16 
L 78.25821 128.16 
L 78.177001 107.961114 
z
M 77.740293 87.382015 
L 78.093306 87.382015 
L 77.917076 43.277154 
L 77.740293 87.382015 
z
" clip-path="url(#p1c3043b3d3)" style="fill: #008000"/>
   </g>
   <g id="patch_33">
    <path d="M 80.014272 120.212188 
Q 79.901263 124.151737 79.779063 126.144416 
Q 79.656864 128.16 79.523772 128.16 
Q 79.126878 128.16 78.895073 113.226358 
Q 78.663269 98.292716 78.663269 72.754357 
Q 78.663269 47.124379 78.895073 32.213642 
Q 79.126878 17.28 79.523772 17.28 
Q 79.656864 17.28 79.779063 19.295584 
Q 79.901263 21.288263 80.014272 25.227812 
L 80.014272 47.330518 
Q 79.900242 42.108325 79.789615 39.680463 
Q 79.678989 37.252601 79.556789 37.252601 
Q 79.337579 37.252601 79.211975 46.712101 
Q 79.086712 56.148697 79.086712 72.754357 
Q 79.086712 89.291303 79.211975 98.750804 
Q 79.337579 108.187399 79.556789 108.187399 
Q 79.678989 108.187399 79.789615 105.759537 
Q 79.900242 103.308771 80.014272 98.086577 
L 80.014272 120.212188 
z
" clip-path="url(#p1c3043b3d3)" style="fill: #0000ff"/>
   </g>
   <g id="patch_34">
    <path d="M 81.436381 118.127891 
Q 81.30013 123.143945 81.153585 125.663425 
Q 81.007039 128.16 80.850805 128.16 
Q 80.497764 128.16 80.291571 113.226358 
Q 80.085378 98.292716 80.085378 72.754357 
Q 80.085378 46.91824 80.295204 32.09912 
Q 80.505333 17.28 80.870788 17.28 
Q 81.011581 17.28 81.140565 19.295584 
Q 81.269852 21.288263 81.384303 25.227812 
L 81.384303 47.330518 
Q 81.266219 42.268655 81.149346 39.77208 
Q 81.032473 37.252601 80.914994 37.252601 
Q 80.697598 37.252601 80.579817 46.460153 
Q 80.462036 55.644801 80.462036 72.754357 
Q 80.462036 89.703582 80.575578 98.956943 
Q 80.68912 108.187399 80.898039 108.187399 
Q 80.954961 108.187399 81.003709 107.660599 
Q 81.052456 107.110894 81.091212 105.965677 
L 81.091212 85.214328 
L 80.868669 85.214328 
L 80.868669 66.73051 
L 81.436381 66.73051 
L 81.436381 118.127891 
z
" clip-path="url(#p1c3043b3d3)" style="fill: #ffa600"/>
   </g>
   <g id="patch_35">
    <path d="M 81.507486 17.28 
L 82.85849 17.28 
L 82.85849 38.904689 
L 82.372443 38.904689 
L 82.372443 128.16 
L 81.994476 128.16 
L 81.994476 38.904689 
L 81.507486 38.904689 
L 81.507486 17.28 
z
" clip-path="url(#p1c3043b3d3)" style="fill: #ff0000"/>
   </g>
   <g id="patch_36">
    <path d="M 83.865437 107.961114 
L 83.345862 107.961114 
L 83.263824 128.16 
L 82.929595 128.16 
L 83.406908 17.28 
L 83.803287 17.28 
L 84.280599 128.16 
L 83.946646 128.16 
L 83.865437 107.961114 
z
M 83.428729 87.382015 
L 83.781741 87.382015 
L 83.605511 43.277154 
L 83.428729 87.382015 
z
" clip-path="url(#p1c3043b3d3)" style="fill: #008000"/>
   </g>
   <g id="patch_37">
    <path d="M 85.287546 107.961114 
L 84.767971 107.961114 
L 84.685933 128.16 
L 84.351704 128.16 
L 84.829017 17.28 
L 85.225396 17.28 
L 85.702708 128.16 
L 85.368755 128.16 
L 85.287546 107.961114 
z
M 84.850838 87.382015 
L 85.20385 87.382015 
L 85.02762 43.277154 
L 84.850838 87.382015 
z
" clip-path="url(#p1c3043b3d3)" style="fill: #008000"/>
   </g>
   <g id="patch_38">
    <path d="M 86.709655 107.961114 
L 86.19008 107.961114 
L 86.108042 128.16 
L 85.773813 128.16 
L 86.251126 17.28 
L 86.647505 17.28 
L 87.124817 128.16 
L 86.790864 128.16 
L 86.709655 107.961114 
z
M 86.272947 87.382015 
L 86.625959 87.382015 
L 86.449729 43.277154 
L 86.272947 87.382015 
z
" clip-path="url(#p1c3043b3d3)" style="fill: #008000"/>
   </g>
   <g id="patch_39">
    <path d="M 88.131764 107.961114 
L 87.612189 107.961114 
L 87.530151 128.16 
L 87.195922 128.16 
L 87.673234 17.28 
L 88.069614 17.28 
L 88.546926 128.16 
L 88.212973 128.16 
L 88.131764 107.961114 
z
M 87.695056 87.382015 
L 88.048068 87.382015 
L 87.871838 43.277154 
L 87.695056 87.382015 
z
" clip-path="url(#p1c3043b3d3)" style="fill: #008000"/>
   </g>
   <g id="patch_40">
    <path d="M 88.618031 17.28 
L 89.969035 17.28 
L 89.969035 38.904689 
L 89.482988 38.904689 
L 89.482988 128.16 
L 89.105021 128.16 
L 89.105021 38.904689 
L 88.618031 38.904689 
L 88.618031 17.28 
z
" clip-path="url(#p1c3043b3d3)" style="fill: #ff0000"/>
   </g>
   <g id="patch_41">
    <path d="M 91.391144 118.127891 
Q 91.254893 123.143945 91.108347 125.663425 
Q 90.961802 128.16 90.805568 128.16 
Q 90.452526 128.16 90.246333 113.226358 
Q 90.04014 98.292716 90.04014 72.754357 
Q 90.04014 46.91824 90.249967 32.09912 
Q 90.460096 17.28 90.825551 17.28 
Q 90.966344 17.28 91.095328 19.295584 
Q 91.224615 21.288263 91.339066 25.227812 
L 91.339066 47.330518 
Q 91.220981 42.268655 91.104108 39.77208 
Q 90.987235 37.252601 90.869757 37.252601 
Q 90.652361 37.252601 90.53458 46.460153 
Q 90.416798 55.644801 90.416798 72.754357 
Q 90.416798 89.703582 90.530341 98.956943 
Q 90.643883 108.187399 90.852801 108.187399 
Q 90.909724 108.187399 90.958471 107.660599 
Q 91.007219 107.110894 91.045975 105.965677 
L 91.045975 85.214328 
L 90.823432 85.214328 
L 90.823432 66.73051 
L 91.391144 66.73051 
L 91.391144 118.127891 
z
" clip-path="url(#p1c3043b3d3)" style="fill: #ffa600"/>
   </g>
   <g id="patch_42">
    <path d="M 92.39809 107.961114 
L 91.878516 107.961114 
L 91.796478 128.16 
L 91.462249 128.16 
L 91.939561 17.28 
L 92.33594 17.28 
L 92.813253 128.16 
L 92.4793 128.16 
L 92.39809 107.961114 
z
M 91.961383 87.382015 
L 92.314395 87.382015 
L 92.138165 43.277154 
L 91.961383 87.382015 
z
" clip-path="url(#p1c3043b3d3)" style="fill: #008000"/>
   </g>
   <g id="patch_43">
    <path d="M 92.884358 17.28 
L 94.235362 17.28 
L 94.235362 38.904689 
L 93.749315 38.904689 
L 93.749315 128.16 
L 93.371348 128.16 
L 93.371348 38.904689 
L 92.884358 38.904689 
L 92.884358 17.28 
z
" clip-path="url(#p1c3043b3d3)" style="fill: #ff0000"/>
   </g>
   <g id="patch_44">
    <path d="M 95.242308 107.961114 
L 94.722734 107.961114 
L 94.640696 128.16 
L 94.306467 128.16 
L 94.783779 17.28 
L 95.180158 17.28 
L 95.657471 128.16 
L 95.323518 128.16 
L 95.242308 107.961114 
z
M 94.805601 87.382015 
L 95.158613 87.382015 
L 94.982383 43.277154 
L 94.805601 87.382015 
z
" clip-path="url(#p1c3043b3d3)" style="fill: #008000"/>
   </g>
   <g id="patch_45">
    <path d="M 95.728576 17.28 
L 97.079579 17.28 
L 97.079579 38.904689 
L 96.593532 38.904689 
L 96.593532 128.16 
L 96.215566 128.16 
L 96.215566 38.904689 
L 95.728576 38.904689 
L 95.728576 17.28 
z
" clip-path="url(#p1c3043b3d3)" style="fill: #ff0000"/>
   </g>
   <g id="patch_46">
    <path d="M 98.086526 107.961114 
L 97.566952 107.961114 
L 97.484914 128.16 
L 97.150685 128.16 
L 97.627997 17.28 
L 98.024376 17.28 
L 98.501688 128.16 
L 98.167736 128.16 
L 98.086526 107.961114 
z
M 97.649819 87.382015 
L 98.002831 87.382015 
L 97.826601 43.277154 
L 97.649819 87.382015 
z
" clip-path="url(#p1c3043b3d3)" style="fill: #008000"/>
   </g>
   <g id="patch_47">
    <path d="M 99.508635 107.961114 
L 98.989061 107.961114 
L 98.907023 128.16 
L 98.572794 128.16 
L 99.050106 17.28 
L 99.446485 17.28 
L 99.923797 128.16 
L 99.589845 128.16 
L 99.508635 107.961114 
z
M 99.071928 87.382015 
L 99.42494 87.382015 
L 99.24871 43.277154 
L 99.071928 87.382015 
z
" clip-path="url(#p1c3043b3d3)" style="fill: #008000"/>
   </g>
   <g id="patch_48">
    <path d="M 100.930744 107.961114 
L 100.41117 107.961114 
L 100.329132 128.16 
L 99.994903 128.16 
L 100.472215 17.28 
L 100.868594 17.28 
L 101.345906 128.16 
L 101.011954 128.16 
L 100.930744 107.961114 
z
M 100.494037 87.382015 
L 100.847049 87.382015 
L 100.670819 43.277154 
L 100.494037 87.382015 
z
" clip-path="url(#p1c3043b3d3)" style="fill: #008000"/>
   </g>
   <g id="patch_49">
    <path d="M 101.417012 17.28 
L 102.768015 17.28 
L 102.768015 38.904689 
L 102.281968 38.904689 
L 102.281968 128.16 
L 101.904001 128.16 
L 101.904001 38.904689 
L 101.417012 38.904689 
L 101.417012 17.28 
z
" clip-path="url(#p1c3043b3d3)" style="fill: #ff0000"/>
   </g>
   <g id="patch_50">
    <path d="M 103.774962 107.961114 
L 103.255388 107.961114 
L 103.17335 128.16 
L 102.839121 128.16 
L 103.316433 17.28 
L 103.712812 17.28 
L 104.190124 128.16 
L 103.856171 128.16 
L 103.774962 107.961114 
z
M 103.338255 87.382015 
L 103.691267 87.382015 
L 103.515037 43.277154 
L 103.338255 87.382015 
z
" clip-path="url(#p1c3043b3d3)" style="fill: #008000"/>
   </g>
   <g id="patch_51">
    <path d="M 104.26123 17.28 
L 105.612233 17.28 
L 105.612233 38.904689 
L 105.126186 38.904689 
L 105.126186 128.16 
L 104.748219 128.16 
L 104.748219 38.904689 
L 104.26123 38.904689 
L 104.26123 17.28 
z
" clip-path="url(#p1c3043b3d3)" style="fill: #ff0000"/>
   </g>
   <g id="patch_52">
    <path d="M 107.034342 120.212188 
Q 106.921333 124.151737 106.799133 126.144416 
Q 106.676934 128.16 106.543842 128.16 
Q 106.146948 128.16 105.915143 113.226358 
Q 105.683339 98.292716 105.683339 72.754357 
Q 105.683339 47.124379 105.915143 32.213642 
Q 106.146948 17.28 106.543842 17.28 
Q 106.676934 17.28 106.799133 19.295584 
Q 106.921333 21.288263 107.034342 25.227812 
L 107.034342 47.330518 
Q 106.920312 42.108325 106.809685 39.680463 
Q 106.699059 37.252601 106.576859 37.252601 
Q 106.357649 37.252601 106.232046 46.712101 
Q 106.106782 56.148697 106.106782 72.754357 
Q 106.106782 89.291303 106.232046 98.750804 
Q 106.357649 108.187399 106.576859 108.187399 
Q 106.699059 108.187399 106.809685 105.759537 
Q 106.920312 103.308771 107.034342 98.086577 
L 107.034342 120.212188 
z
" clip-path="url(#p1c3043b3d3)" style="fill: #0000ff"/>
   </g>
   <g id="patch_53">
    <path d="M 108.041289 107.961114 
L 107.521715 107.961114 
L 107.439677 128.16 
L 107.105448 128.16 
L 107.58276 17.28 
L 107.979139 17.28 
L 108.456451 128.16 
L 108.122498 128.16 
L 108.041289 107.961114 
z
M 107.604581 87.382015 
L 107.957594 87.382015 
L 107.781364 43.277154 
L 107.604581 87.382015 
z
" clip-path="url(#p1c3043b3d3)" style="fill: #008000"/>
   </g>
   <g id="patch_54">
    <path d="M 109.463398 107.961114 
L 108.943824 107.961114 
L 108.861786 128.16 
L 108.527557 128.16 
L 109.004869 17.28 
L 109.401248 17.28 
L 109.87856 128.16 
L 109.544607 128.16 
L 109.463398 107.961114 
z
M 109.02669 87.382015 
L 109.379702 87.382015 
L 109.203473 43.277154 
L 109.02669 87.382015 
z
" clip-path="url(#p1c3043b3d3)" style="fill: #008000"/>
   </g>
   <g id="patch_55">
    <path d="M 109.949665 17.28 
L 111.300669 17.28 
L 111.300669 38.904689 
L 110.814622 38.904689 
L 110.814622 128.16 
L 110.436655 128.16 
L 110.436655 38.904689 
L 109.949665 38.904689 
L 109.949665 17.28 
z
" clip-path="url(#p1c3043b3d3)" style="fill: #ff0000"/>
   </g>
   <g id="patch_56">
    <path d="M 112.307616 107.961114 
L 111.788042 107.961114 
L 111.706003 128.16 
L 111.371774 128.16 
L 111.849087 17.28 
L 112.245466 17.28 
L 112.722778 128.16 
L 112.388825 128.16 
L 112.307616 107.961114 
z
M 111.870908 87.382015 
L 112.22392 87.382015 
L 112.047691 43.277154 
L 111.870908 87.382015 
z
" clip-path="url(#p1c3043b3d3)" style="fill: #008000"/>
   </g>
   <g id="patch_57">
    <path d="M 112.793883 17.28 
L 114.144887 17.28 
L 114.144887 38.904689 
L 113.65884 38.904689 
L 113.65884 128.16 
L 113.280873 128.16 
L 113.280873 38.904689 
L 112.793883 38.904689 
L 112.793883 17.28 
z
" clip-path="url(#p1c3043b3d3)" style="fill: #ff0000"/>
   </g>
   <g id="patch_58">
    <path d="M 115.151834 107.961114 
L 114.632259 107.961114 
L 114.550221 128.16 
L 114.215992 128.16 
L 114.693305 17.28 
L 115.089684 17.28 
L 115.566996 128.16 
L 115.233043 128.16 
L 115.151834 107.961114 
z
M 114.715126 87.382015 
L 115.068138 87.382015 
L 114.891908 43.277154 
L 114.715126 87.382015 
z
" clip-path="url(#p1c3043b3d3)" style="fill: #008000"/>
   </g>
   <g id="patch_59">
    <path d="M 115.638101 17.28 
L 116.989105 17.28 
L 116.989105 38.904689 
L 116.503058 38.904689 
L 116.503058 128.16 
L 116.125091 128.16 
L 116.125091 38.904689 
L 115.638101 38.904689 
L 115.638101 17.28 
z
" clip-path="url(#p1c3043b3d3)" style="fill: #ff0000"/>
   </g>
   <g id="patch_60">
    <path d="M 117.06021 17.28 
L 118.411214 17.28 
L 118.411214 38.904689 
L 117.925167 38.904689 
L 117.925167 128.16 
L 117.5472 128.16 
L 117.5472 38.904689 
L 117.06021 38.904689 
L 117.06021 17.28 
z
" clip-path="url(#p1c3043b3d3)" style="fill: #ff0000"/>
   </g>
   <g id="patch_61">
    <path d="M 119.418161 107.961114 
L 118.898586 107.961114 
L 118.816548 128.16 
L 118.482319 128.16 
L 118.959631 17.28 
L 119.35601 17.28 
L 119.833323 128.16 
L 119.49937 128.16 
L 119.418161 107.961114 
z
M 118.981453 87.382015 
L 119.334465 87.382015 
L 119.158235 43.277154 
L 118.981453 87.382015 
z
" clip-path="url(#p1c3043b3d3)" style="fill: #008000"/>
   </g>
   <g id="patch_62">
    <path d="M 120.840269 107.961114 
L 120.320695 107.961114 
L 120.238657 128.16 
L 119.904428 128.16 
L 120.38174 17.28 
L 120.778119 17.28 
L 121.255432 128.16 
L 120.921479 128.16 
L 120.840269 107.961114 
z
M 120.403562 87.382015 
L 120.756574 87.382015 
L 120.580344 43.277154 
L 120.403562 87.382015 
z
" clip-path="url(#p1c3043b3d3)" style="fill: #008000"/>
   </g>
   <g id="patch_63">
    <path d="M 122.262378 107.961114 
L 121.742804 107.961114 
L 121.660766 128.16 
L 121.326537 128.16 
L 121.803849 17.28 
L 122.200228 17.28 
L 122.677541 128.16 
L 122.343588 128.16 
L 122.262378 107.961114 
z
M 121.825671 87.382015 
L 122.178683 87.382015 
L 122.002453 43.277154 
L 121.825671 87.382015 
z
" clip-path="url(#p1c3043b3d3)" style="fill: #008000"/>
   </g>
   <g id="patch_64">
    <path d="M 122.748646 17.28 
L 124.09965 17.28 
L 124.09965 38.904689 
L 123.613602 38.904689 
L 123.613602 128.16 
L 123.235636 128.16 
L 123.235636 38.904689 
L 122.748646 38.904689 
L 122.748646 17.28 
z
" clip-path="url(#p1c3043b3d3)" style="fill: #ff0000"/>
   </g>
   <g id="patch_65">
    <path d="M 124.170755 17.28 
L 125.521759 17.28 
L 125.521759 38.904689 
L 125.035711 38.904689 
L 125.035711 128.16 
L 124.657745 128.16 
L 124.657745 38.904689 
L 124.170755 38.904689 
L 124.170755 17.28 
z
" clip-path="url(#p1c3043b3d3)" style="fill: #ff0000"/>
   </g>
   <g id="patch_66">
    <path d="M 126.528705 107.961114 
L 126.009131 107.961114 
L 125.927093 128.16 
L 125.592864 128.16 
L 126.070176 17.28 
L 126.466555 17.28 
L 126.943867 128.16 
L 126.609915 128.16 
L 126.528705 107.961114 
z
M 126.091998 87.382015 
L 126.44501 87.382015 
L 126.26878 43.277154 
L 126.091998 87.382015 
z
" clip-path="url(#p1c3043b3d3)" style="fill: #008000"/>
   </g>
   <g id="patch_67">
    <path d="M 128.365976 118.127891 
Q 128.229726 123.143945 128.08318 125.663425 
Q 127.936635 128.16 127.7804 128.16 
Q 127.427359 128.16 127.221166 113.226358 
Q 127.014973 98.292716 127.014973 72.754357 
Q 127.014973 46.91824 127.224799 32.09912 
Q 127.434929 17.28 127.800384 17.28 
Q 127.941176 17.28 128.070161 19.295584 
Q 128.199448 21.288263 128.313898 25.227812 
L 128.313898 47.330518 
Q 128.195814 42.268655 128.078941 39.77208 
Q 127.962068 37.252601 127.84459 37.252601 
Q 127.627194 37.252601 127.509412 46.460153 
Q 127.391631 55.644801 127.391631 72.754357 
Q 127.391631 89.703582 127.505173 98.956943 
Q 127.618716 108.187399 127.827634 108.187399 
Q 127.884557 108.187399 127.933304 107.660599 
Q 127.982052 107.110894 128.020807 105.965677 
L 128.020807 85.214328 
L 127.798264 85.214328 
L 127.798264 66.73051 
L 128.365976 66.73051 
L 128.365976 118.127891 
z
" clip-path="url(#p1c3043b3d3)" style="fill: #ffa600"/>
   </g>
   <g id="patch_68">
    <path d="M 129.372923 107.961114 
L 128.853349 107.961114 
L 128.771311 128.16 
L 128.437082 128.16 
L 128.914394 17.28 
L 129.310773 17.28 
L 129.788085 128.16 
L 129.454133 128.16 
L 129.372923 107.961114 
z
M 128.936216 87.382015 
L 129.289228 87.382015 
L 129.112998 43.277154 
L 128.936216 87.382015 
z
" clip-path="url(#p1c3043b3d3)" style="fill: #008000"/>
   </g>
   <g id="patch_69">
    <path d="M 129.859191 17.28 
L 131.210194 17.28 
L 131.210194 38.904689 
L 130.724147 38.904689 
L 130.724147 128.16 
L 130.34618 128.16 
L 130.34618 38.904689 
L 129.859191 38.904689 
L 129.859191 17.28 
z
" clip-path="url(#p1c3043b3d3)" style="fill: #ff0000"/>
   </g>
   <g id="patch_70">
    <path d="M 131.2813 17.28 
L 132.632303 17.28 
L 132.632303 38.904689 
L 132.146256 38.904689 
L 132.146256 128.16 
L 131.768289 128.16 
L 131.768289 38.904689 
L 131.2813 38.904689 
L 131.2813 17.28 
z
" clip-path="url(#p1c3043b3d3)" style="fill: #ff0000"/>
   </g>
   <g id="patch_71">
    <path d="M 132.703409 17.28 
L 134.054412 17.28 
L 134.054412 38.904689 
L 133.568365 38.904689 
L 133.568365 128.16 
L 133.190398 128.16 
L 133.190398 38.904689 
L 132.703409 38.904689 
L 132.703409 17.28 
z
" clip-path="url(#p1c3043b3d3)" style="fill: #ff0000"/>
   </g>
   <g id="patch_72">
    <path d="M 134.125518 17.28 
L 135.476521 17.28 
L 135.476521 38.904689 
L 134.990474 38.904689 
L 134.990474 128.16 
L 134.612507 128.16 
L 134.612507 38.904689 
L 134.125518 38.904689 
L 134.125518 17.28 
z
" clip-path="url(#p1c3043b3d3)" style="fill: #ff0000"/>
   </g>
   <g id="patch_73">
    <path d="M 136.89863 118.127891 
Q 136.762379 123.143945 136.615834 125.663425 
Q 136.469288 128.16 136.313054 128.16 
Q 135.960013 128.16 135.75382 113.226358 
Q 135.547627 98.292716 135.547627 72.754357 
Q 135.547627 46.91824 135.757453 32.09912 
Q 135.967582 17.28 136.333037 17.28 
Q 136.47383 17.28 136.602814 19.295584 
Q 136.732101 21.288263 136.846552 25.227812 
L 136.846552 47.330518 
Q 136.728468 42.268655 136.611595 39.77208 
Q 136.494722 37.252601 136.377243 37.252601 
Q 136.159847 37.252601 136.042066 46.460153 
Q 135.924285 55.644801 135.924285 72.754357 
Q 135.924285 89.703582 136.037827 98.956943 
Q 136.15137 108.187399 136.360288 108.187399 
Q 136.41721 108.187399 136.465958 107.660599 
Q 136.514705 107.110894 136.553461 105.965677 
L 136.553461 85.214328 
L 136.330918 85.214328 
L 136.330918 66.73051 
L 136.89863 66.73051 
L 136.89863 118.127891 
z
" clip-path="url(#p1c3043b3d3)" style="fill: #ffa600"/>
   </g>
   <g id="patch_74">
    <path d="M 138.320739 120.212188 
Q 138.20773 124.151737 138.08553 126.144416 
Q 137.963331 128.16 137.830239 128.16 
Q 137.433345 128.16 137.20154 113.226358 
Q 136.969736 98.292716 136.969736 72.754357 
Q 136.969736 47.124379 137.20154 32.213642 
Q 137.433345 17.28 137.830239 17.28 
Q 137.963331 17.28 138.08553 19.295584 
Q 138.20773 21.288263 138.320739 25.227812 
L 138.320739 47.330518 
Q 138.206709 42.108325 138.096082 39.680463 
Q 137.985456 37.252601 137.863256 37.252601 
Q 137.644046 37.252601 137.518442 46.712101 
Q 137.393179 56.148697 137.393179 72.754357 
Q 137.393179 89.291303 137.518442 98.750804 
Q 137.644046 108.187399 137.863256 108.187399 
Q 137.985456 108.187399 138.096082 105.759537 
Q 138.206709 103.308771 138.320739 98.086577 
L 138.320739 120.212188 
z
" clip-path="url(#p1c3043b3d3)" style="fill: #0000ff"/>
   </g>
   <g id="patch_75">
    <path d="M 139.327686 107.961114 
L 138.808112 107.961114 
L 138.726074 128.16 
L 138.391845 128.16 
L 138.869157 17.28 
L 139.265536 17.28 
L 139.742848 128.16 
L 139.408895 128.16 
L 139.327686 107.961114 
z
M 138.890978 87.382015 
L 139.24399 87.382015 
L 139.067761 43.277154 
L 138.890978 87.382015 
z
" clip-path="url(#p1c3043b3d3)" style="fill: #008000"/>
   </g>
   <g id="patch_76">
    <path d="M 139.813953 17.28 
L 141.164957 17.28 
L 141.164957 38.904689 
L 140.67891 38.904689 
L 140.67891 128.16 
L 140.300943 128.16 
L 140.300943 38.904689 
L 139.813953 38.904689 
L 139.813953 17.28 
z
" clip-path="url(#p1c3043b3d3)" style="fill: #ff0000"/>
   </g>
   <g id="patch_77">
    <path d="M 142.171904 107.961114 
L 141.65233 107.961114 
L 141.570291 128.16 
L 141.236062 128.16 
L 141.713375 17.28 
L 142.109754 17.28 
L 142.587066 128.16 
L 142.253113 128.16 
L 142.171904 107.961114 
z
M 141.735196 87.382015 
L 142.088208 87.382015 
L 141.911979 43.277154 
L 141.735196 87.382015 
z
" clip-path="url(#p1c3043b3d3)" style="fill: #008000"/>
   </g>
   <g id="patch_78">
    <path d="M 143.594013 107.961114 
L 143.074438 107.961114 
L 142.9924 128.16 
L 142.658171 128.16 
L 143.135484 17.28 
L 143.531863 17.28 
L 144.009175 128.16 
L 143.675222 128.16 
L 143.594013 107.961114 
z
M 143.157305 87.382015 
L 143.510317 87.382015 
L 143.334087 43.277154 
L 143.157305 87.382015 
z
" clip-path="url(#p1c3043b3d3)" style="fill: #008000"/>
   </g>
   <g id="patch_79">
    <path d="M 145.016122 107.961114 
L 144.496547 107.961114 
L 144.414509 128.16 
L 144.08028 128.16 
L 144.557593 17.28 
L 144.953972 17.28 
L 145.431284 128.16 
L 145.097331 128.16 
L 145.016122 107.961114 
z
M 144.579414 87.382015 
L 144.932426 87.382015 
L 144.756196 43.277154 
L 144.579414 87.382015 
z
" clip-path="url(#p1c3043b3d3)" style="fill: #008000"/>
   </g>
   <g id="patch_80">
    <path d="M 146.438231 107.961114 
L 145.918656 107.961114 
L 145.836618 128.16 
L 145.502389 128.16 
L 145.979702 17.28 
L 146.376081 17.28 
L 146.853393 128.16 
L 146.51944 128.16 
L 146.438231 107.961114 
z
M 146.001523 87.382015 
L 146.354535 87.382015 
L 146.178305 43.277154 
L 146.001523 87.382015 
z
" clip-path="url(#p1c3043b3d3)" style="fill: #008000"/>
   </g>
   <g id="patch_81">
    <path d="M 147.86034 107.961114 
L 147.340765 107.961114 
L 147.258727 128.16 
L 146.924498 128.16 
L 147.40181 17.28 
L 147.79819 17.28 
L 148.275502 128.16 
L 147.941549 128.16 
L 147.86034 107.961114 
z
M 147.423632 87.382015 
L 147.776644 87.382015 
L 147.600414 43.277154 
L 147.423632 87.382015 
z
" clip-path="url(#p1c3043b3d3)" style="fill: #008000"/>
   </g>
   <g id="patch_82">
    <path d="M 149.282449 107.961114 
L 148.762874 107.961114 
L 148.680836 128.16 
L 148.346607 128.16 
L 148.823919 17.28 
L 149.220298 17.28 
L 149.697611 128.16 
L 149.363658 128.16 
L 149.282449 107.961114 
z
M 148.845741 87.382015 
L 149.198753 87.382015 
L 149.022523 43.277154 
L 148.845741 87.382015 
z
" clip-path="url(#p1c3043b3d3)" style="fill: #008000"/>
   </g>
   <g id="patch_83">
    <path d="M 151.11972 120.212188 
Q 151.006711 124.151737 150.884511 126.144416 
Q 150.762311 128.16 150.629219 128.16 
Q 150.232326 128.16 150.000521 113.226358 
Q 149.768716 98.292716 149.768716 72.754357 
Q 149.768716 47.124379 150.000521 32.213642 
Q 150.232326 17.28 150.629219 17.28 
Q 150.762311 17.28 150.884511 19.295584 
Q 151.006711 21.288263 151.11972 25.227812 
L 151.11972 47.330518 
Q 151.005689 42.108325 150.895063 39.680463 
Q 150.784437 37.252601 150.662237 37.252601 
Q 150.443027 37.252601 150.317423 46.712101 
Q 150.19216 56.148697 150.19216 72.754357 
Q 150.19216 89.291303 150.317423 98.750804 
Q 150.443027 108.187399 150.662237 108.187399 
Q 150.784437 108.187399 150.895063 105.759537 
Q 151.005689 103.308771 151.11972 98.086577 
L 151.11972 120.212188 
z
" clip-path="url(#p1c3043b3d3)" style="fill: #0000ff"/>
   </g>
   <g id="patch_84">
    <path d="M 152.126666 107.961114 
L 151.607092 107.961114 
L 151.525054 128.16 
L 151.190825 128.16 
L 151.668137 17.28 
L 152.064516 17.28 
L 152.541829 128.16 
L 152.207876 128.16 
L 152.126666 107.961114 
z
M 151.689959 87.382015 
L 152.042971 87.382015 
L 151.866741 43.277154 
L 151.689959 87.382015 
z
" clip-path="url(#p1c3043b3d3)" style="fill: #008000"/>
   </g>
   <g id="patch_85">
    <path d="M 153.963938 118.127891 
Q 153.827687 123.143945 153.681141 125.663425 
Q 153.534596 128.16 153.378361 128.16 
Q 153.02532 128.16 152.819127 113.226358 
Q 152.612934 98.292716 152.612934 72.754357 
Q 152.612934 46.91824 152.82276 32.09912 
Q 153.03289 17.28 153.398345 17.28 
Q 153.539137 17.28 153.668122 19.295584 
Q 153.797409 21.288263 153.911859 25.227812 
L 153.911859 47.330518 
Q 153.793775 42.268655 153.676902 39.77208 
Q 153.560029 37.252601 153.442551 37.252601 
Q 153.225155 37.252601 153.107373 46.460153 
Q 152.989592 55.644801 152.989592 72.754357 
Q 152.989592 89.703582 153.103135 98.956943 
Q 153.216677 108.187399 153.425595 108.187399 
Q 153.482518 108.187399 153.531265 107.660599 
Q 153.580013 107.110894 153.618769 105.965677 
L 153.618769 85.214328 
L 153.396225 85.214328 
L 153.396225 66.73051 
L 153.963938 66.73051 
L 153.963938 118.127891 
z
" clip-path="url(#p1c3043b3d3)" style="fill: #ffa600"/>
   </g>
   <g id="patch_86">
    <path d="M 154.970884 107.961114 
L 154.45131 107.961114 
L 154.369272 128.16 
L 154.035043 128.16 
L 154.512355 17.28 
L 154.908734 17.28 
L 155.386047 128.16 
L 155.052094 128.16 
L 154.970884 107.961114 
z
M 154.534177 87.382015 
L 154.887189 87.382015 
L 154.710959 43.277154 
L 154.534177 87.382015 
z
" clip-path="url(#p1c3043b3d3)" style="fill: #008000"/>
   </g>
   <g id="patch_87">
    <path d="M 156.808155 120.212188 
Q 156.695146 124.151737 156.572947 126.144416 
Q 156.450747 128.16 156.317655 128.16 
Q 155.920762 128.16 155.688957 113.226358 
Q 155.457152 98.292716 155.457152 72.754357 
Q 155.457152 47.124379 155.688957 32.213642 
Q 155.920762 17.28 156.317655 17.28 
Q 156.450747 17.28 156.572947 19.295584 
Q 156.695146 21.288263 156.808155 25.227812 
L 156.808155 47.330518 
Q 156.694125 42.108325 156.583499 39.680463 
Q 156.472872 37.252601 156.350673 37.252601 
Q 156.131462 37.252601 156.005859 46.712101 
Q 155.880596 56.148697 155.880596 72.754357 
Q 155.880596 89.291303 156.005859 98.750804 
Q 156.131462 108.187399 156.350673 108.187399 
Q 156.472872 108.187399 156.583499 105.759537 
Q 156.694125 103.308771 156.808155 98.086577 
L 156.808155 120.212188 
z
" clip-path="url(#p1c3043b3d3)" style="fill: #0000ff"/>
   </g>
   <g id="patch_88">
    <path d="M 156.879261 17.28 
L 158.230264 17.28 
L 158.230264 38.904689 
L 157.744217 38.904689 
L 157.744217 128.16 
L 157.366251 128.16 
L 157.366251 38.904689 
L 156.879261 38.904689 
L 156.879261 17.28 
z
" clip-path="url(#p1c3043b3d3)" style="fill: #ff0000"/>
   </g>
   <g id="patch_89">
    <path d="M 159.237211 107.961114 
L 158.717637 107.961114 
L 158.635599 128.16 
L 158.30137 128.16 
L 158.778682 17.28 
L 159.175061 17.28 
L 159.652373 128.16 
L 159.318421 128.16 
L 159.237211 107.961114 
z
M 158.800504 87.382015 
L 159.153516 87.382015 
L 158.977286 43.277154 
L 158.800504 87.382015 
z
" clip-path="url(#p1c3043b3d3)" style="fill: #008000"/>
   </g>
   <g id="patch_90">
    <path d="M 161.074482 120.212188 
Q 160.961473 124.151737 160.839274 126.144416 
Q 160.717074 128.16 160.583982 128.16 
Q 160.187088 128.16 159.955284 113.226358 
Q 159.723479 98.292716 159.723479 72.754357 
Q 159.723479 47.124379 159.955284 32.213642 
Q 160.187088 17.28 160.583982 17.28 
Q 160.717074 17.28 160.839274 19.295584 
Q 160.961473 21.288263 161.074482 25.227812 
L 161.074482 47.330518 
Q 160.960452 42.108325 160.849826 39.680463 
Q 160.739199 37.252601 160.617 37.252601 
Q 160.397789 37.252601 160.272186 46.712101 
Q 160.146923 56.148697 160.146923 72.754357 
Q 160.146923 89.291303 160.272186 98.750804 
Q 160.397789 108.187399 160.617 108.187399 
Q 160.739199 108.187399 160.849826 105.759537 
Q 160.960452 103.308771 161.074482 98.086577 
L 161.074482 120.212188 
z
" clip-path="url(#p1c3043b3d3)" style="fill: #0000ff"/>
   </g>
   <g id="patch_91">
    <path d="M 162.081429 107.961114 
L 161.561855 107.961114 
L 161.479817 128.16 
L 161.145588 128.16 
L 161.6229 17.28 
L 162.019279 17.28 
L 162.496591 128.16 
L 162.162638 128.16 
L 162.081429 107.961114 
z
M 161.644722 87.382015 
L 161.997734 87.382015 
L 161.821504 43.277154 
L 161.644722 87.382015 
z
" clip-path="url(#p1c3043b3d3)" style="fill: #008000"/>
   </g>
   <g id="patch_92">
    <path d="M 162.567697 17.28 
L 163.9187 17.28 
L 163.9187 38.904689 
L 163.432653 38.904689 
L 163.432653 128.16 
L 163.054686 128.16 
L 163.054686 38.904689 
L 162.567697 38.904689 
L 162.567697 17.28 
z
" clip-path="url(#p1c3043b3d3)" style="fill: #ff0000"/>
   </g>
   <g id="patch_93">
    <path d="M 164.925647 107.961114 
L 164.406073 107.961114 
L 164.324035 128.16 
L 163.989806 128.16 
L 164.467118 17.28 
L 164.863497 17.28 
L 165.340809 128.16 
L 165.006856 128.16 
L 164.925647 107.961114 
z
M 164.488939 87.382015 
L 164.841952 87.382015 
L 164.665722 43.277154 
L 164.488939 87.382015 
z
" clip-path="url(#p1c3043b3d3)" style="fill: #008000"/>
   </g>
   <g id="patch_94">
    <path d="M 166.347756 107.961114 
L 165.828182 107.961114 
L 165.746144 128.16 
L 165.411915 128.16 
L 165.889227 17.28 
L 166.285606 17.28 
L 166.762918 128.16 
L 166.428965 128.16 
L 166.347756 107.961114 
z
M 165.911048 87.382015 
L 166.264061 87.382015 
L 166.087831 43.277154 
L 165.911048 87.382015 
z
" clip-path="url(#p1c3043b3d3)" style="fill: #008000"/>
   </g>
   <g id="patch_95">
    <path d="M 166.834024 17.28 
L 168.185027 17.28 
L 168.185027 38.904689 
L 167.69898 38.904689 
L 167.69898 128.16 
L 167.321013 128.16 
L 167.321013 38.904689 
L 166.834024 38.904689 
L 166.834024 17.28 
z
" clip-path="url(#p1c3043b3d3)" style="fill: #ff0000"/>
   </g>
   <g id="patch_96">
    <path d="M 169.191974 107.961114 
L 168.6724 107.961114 
L 168.590362 128.16 
L 168.256133 128.16 
L 168.733445 17.28 
L 169.129824 17.28 
L 169.607136 128.16 
L 169.273183 128.16 
L 169.191974 107.961114 
z
M 168.755266 87.382015 
L 169.108278 87.382015 
L 168.932049 43.277154 
L 168.755266 87.382015 
z
" clip-path="url(#p1c3043b3d3)" style="fill: #008000"/>
   </g>
   <g id="patch_97">
    <path d="M 171.029245 120.212188 
Q 170.916236 124.151737 170.794036 126.144416 
Q 170.671837 128.16 170.538745 128.16 
Q 170.141851 128.16 169.910046 113.226358 
Q 169.678241 98.292716 169.678241 72.754357 
Q 169.678241 47.124379 169.910046 32.213642 
Q 170.141851 17.28 170.538745 17.28 
Q 170.671837 17.28 170.794036 19.295584 
Q 170.916236 21.288263 171.029245 25.227812 
L 171.029245 47.330518 
Q 170.915215 42.108325 170.804588 39.680463 
Q 170.693962 37.252601 170.571762 37.252601 
Q 170.352552 37.252601 170.226948 46.712101 
Q 170.101685 56.148697 170.101685 72.754357 
Q 170.101685 89.291303 170.226948 98.750804 
Q 170.352552 108.187399 170.571762 108.187399 
Q 170.693962 108.187399 170.804588 105.759537 
Q 170.915215 103.308771 171.029245 98.086577 
L 171.029245 120.212188 
z
" clip-path="url(#p1c3043b3d3)" style="fill: #0000ff"/>
   </g>
   <g id="patch_98">
    <path d="M 171.10035 17.28 
L 172.451354 17.28 
L 172.451354 38.904689 
L 171.965307 38.904689 
L 171.965307 128.16 
L 171.58734 128.16 
L 171.58734 38.904689 
L 171.10035 38.904689 
L 171.10035 17.28 
z
" clip-path="url(#p1c3043b3d3)" style="fill: #ff0000"/>
   </g>
   <g id="patch_99">
    <path d="M 173.873463 118.127891 
Q 173.737212 123.143945 173.590667 125.663425 
Q 173.444121 128.16 173.287887 128.16 
Q 172.934845 128.16 172.728652 113.226358 
Q 172.522459 98.292716 172.522459 72.754357 
Q 172.522459 46.91824 172.732286 32.09912 
Q 172.942415 17.28 173.30787 17.28 
Q 173.448663 17.28 173.577647 19.295584 
Q 173.706934 21.288263 173.821385 25.227812 
L 173.821385 47.330518 
Q 173.703301 42.268655 173.586428 39.77208 
Q 173.469555 37.252601 173.352076 37.252601 
Q 173.13468 37.252601 173.016899 46.460153 
Q 172.899117 55.644801 172.899117 72.754357 
Q 172.899117 89.703582 173.01266 98.956943 
Q 173.126202 108.187399 173.33512 108.187399 
Q 173.392043 108.187399 173.440791 107.660599 
Q 173.489538 107.110894 173.528294 105.965677 
L 173.528294 85.214328 
L 173.305751 85.214328 
L 173.305751 66.73051 
L 173.873463 66.73051 
L 173.873463 118.127891 
z
" clip-path="url(#p1c3043b3d3)" style="fill: #ffa600"/>
   </g>
   <g id="patch_100">
    <path d="M 173.944568 17.28 
L 175.295572 17.28 
L 175.295572 38.904689 
L 174.809525 38.904689 
L 174.809525 128.16 
L 174.431558 128.16 
L 174.431558 38.904689 
L 173.944568 38.904689 
L 173.944568 17.28 
z
" clip-path="url(#p1c3043b3d3)" style="fill: #ff0000"/>
   </g>
   <g id="patch_101">
    <path d="M 176.302519 107.961114 
L 175.782944 107.961114 
L 175.700906 128.16 
L 175.366677 128.16 
L 175.84399 17.28 
L 176.240369 17.28 
L 176.717681 128.16 
L 176.383728 128.16 
L 176.302519 107.961114 
z
M 175.865811 87.382015 
L 176.218823 87.382015 
L 176.042593 43.277154 
L 175.865811 87.382015 
z
" clip-path="url(#p1c3043b3d3)" style="fill: #008000"/>
   </g>
   <g id="patch_102">
    <path d="M 177.724628 107.961114 
L 177.205053 107.961114 
L 177.123015 128.16 
L 176.788786 128.16 
L 177.266098 17.28 
L 177.662478 17.28 
L 178.13979 128.16 
L 177.805837 128.16 
L 177.724628 107.961114 
z
M 177.28792 87.382015 
L 177.640932 87.382015 
L 177.464702 43.277154 
L 177.28792 87.382015 
z
" clip-path="url(#p1c3043b3d3)" style="fill: #008000"/>
   </g>
   <g id="patch_103">
    <path d="M 179.146737 107.961114 
L 178.627162 107.961114 
L 178.545124 128.16 
L 178.210895 128.16 
L 178.688207 17.28 
L 179.084586 17.28 
L 179.561899 128.16 
L 179.227946 128.16 
L 179.146737 107.961114 
z
M 178.710029 87.382015 
L 179.063041 87.382015 
L 178.886811 43.277154 
L 178.710029 87.382015 
z
" clip-path="url(#p1c3043b3d3)" style="fill: #008000"/>
   </g>
   <g id="patch_104">
    <path d="M 180.568845 107.961114 
L 180.049271 107.961114 
L 179.967233 128.16 
L 179.633004 128.16 
L 180.110316 17.28 
L 180.506695 17.28 
L 180.984008 128.16 
L 180.650055 128.16 
L 180.568845 107.961114 
z
M 180.132138 87.382015 
L 180.48515 87.382015 
L 180.30892 43.277154 
L 180.132138 87.382015 
z
" clip-path="url(#p1c3043b3d3)" style="fill: #008000"/>
   </g>
   <g id="patch_105">
    <path d="M 182.406117 120.212188 
Q 182.293107 124.151737 182.170908 126.144416 
Q 182.048708 128.16 181.915616 128.16 
Q 181.518723 128.16 181.286918 113.226358 
Q 181.055113 98.292716 181.055113 72.754357 
Q 181.055113 47.124379 181.286918 32.213642 
Q 181.518723 17.28 181.915616 17.28 
Q 182.048708 17.28 182.170908 19.295584 
Q 182.293107 21.288263 182.406117 25.227812 
L 182.406117 47.330518 
Q 182.292086 42.108325 182.18146 39.680463 
Q 182.070834 37.252601 181.948634 37.252601 
Q 181.729423 37.252601 181.60382 46.712101 
Q 181.478557 56.148697 181.478557 72.754357 
Q 181.478557 89.291303 181.60382 98.750804 
Q 181.729423 108.187399 181.948634 108.187399 
Q 182.070834 108.187399 182.18146 105.759537 
Q 182.292086 103.308771 182.406117 98.086577 
L 182.406117 120.212188 
z
" clip-path="url(#p1c3043b3d3)" style="fill: #0000ff"/>
   </g>
   <g id="patch_106">
    <path d="M 183.413063 107.961114 
L 182.893489 107.961114 
L 182.811451 128.16 
L 182.477222 128.16 
L 182.954534 17.28 
L 183.350913 17.28 
L 183.828226 128.16 
L 183.494273 128.16 
L 183.413063 107.961114 
z
M 182.976356 87.382015 
L 183.329368 87.382015 
L 183.153138 43.277154 
L 182.976356 87.382015 
z
" clip-path="url(#p1c3043b3d3)" style="fill: #008000"/>
   </g>
   <g id="patch_107">
    <path d="M 185.250335 120.212188 
Q 185.137325 124.151737 185.015126 126.144416 
Q 184.892926 128.16 184.759834 128.16 
Q 184.362941 128.16 184.131136 113.226358 
Q 183.899331 98.292716 183.899331 72.754357 
Q 183.899331 47.124379 184.131136 32.213642 
Q 184.362941 17.28 184.759834 17.28 
Q 184.892926 17.28 185.015126 19.295584 
Q 185.137325 21.288263 185.250335 25.227812 
L 185.250335 47.330518 
Q 185.136304 42.108325 185.025678 39.680463 
Q 184.915051 37.252601 184.792852 37.252601 
Q 184.573641 37.252601 184.448038 46.712101 
Q 184.322775 56.148697 184.322775 72.754357 
Q 184.322775 89.291303 184.448038 98.750804 
Q 184.573641 108.187399 184.792852 108.187399 
Q 184.915051 108.187399 185.025678 105.759537 
Q 185.136304 103.308771 185.250335 98.086577 
L 185.250335 120.212188 
z
" clip-path="url(#p1c3043b3d3)" style="fill: #0000ff"/>
   </g>
   <g id="patch_108">
    <path d="M 186.257281 107.961114 
L 185.737707 107.961114 
L 185.655669 128.16 
L 185.32144 128.16 
L 185.798752 17.28 
L 186.195131 17.28 
L 186.672443 128.16 
L 186.338491 128.16 
L 186.257281 107.961114 
z
M 185.820574 87.382015 
L 186.173586 87.382015 
L 185.997356 43.277154 
L 185.820574 87.382015 
z
" clip-path="url(#p1c3043b3d3)" style="fill: #008000"/>
   </g>
   <g id="patch_109">
    <path d="M 187.67939 107.961114 
L 187.159816 107.961114 
L 187.077778 128.16 
L 186.743549 128.16 
L 187.220861 17.28 
L 187.61724 17.28 
L 188.094552 128.16 
L 187.7606 128.16 
L 187.67939 107.961114 
z
M 187.242683 87.382015 
L 187.595695 87.382015 
L 187.419465 43.277154 
L 187.242683 87.382015 
z
" clip-path="url(#p1c3043b3d3)" style="fill: #008000"/>
   </g>
   <g id="patch_110">
    <path d="M 189.516661 120.212188 
Q 189.403652 124.151737 189.281453 126.144416 
Q 189.159253 128.16 189.026161 128.16 
Q 188.629268 128.16 188.397463 113.226358 
Q 188.165658 98.292716 188.165658 72.754357 
Q 188.165658 47.124379 188.397463 32.213642 
Q 188.629268 17.28 189.026161 17.28 
Q 189.159253 17.28 189.281453 19.295584 
Q 189.403652 21.288263 189.516661 25.227812 
L 189.516661 47.330518 
Q 189.402631 42.108325 189.292005 39.680463 
Q 189.181378 37.252601 189.059179 37.252601 
Q 188.839968 37.252601 188.714365 46.712101 
Q 188.589102 56.148697 188.589102 72.754357 
Q 188.589102 89.291303 188.714365 98.750804 
Q 188.839968 108.187399 189.059179 108.187399 
Q 189.181378 108.187399 189.292005 105.759537 
Q 189.402631 103.308771 189.516661 98.086577 
L 189.516661 120.212188 
z
" clip-path="url(#p1c3043b3d3)" style="fill: #0000ff"/>
   </g>
   <g id="patch_111">
    <path d="M 190.523608 107.961114 
L 190.004034 107.961114 
L 189.921996 128.16 
L 189.587767 128.16 
L 190.065079 17.28 
L 190.461458 17.28 
L 190.93877 128.16 
L 190.604817 128.16 
L 190.523608 107.961114 
z
M 190.086901 87.382015 
L 190.439913 87.382015 
L 190.263683 43.277154 
L 190.086901 87.382015 
z
" clip-path="url(#p1c3043b3d3)" style="fill: #008000"/>
   </g>
   <g id="patch_112">
    <path d="M 191.009876 17.28 
L 192.360879 17.28 
L 192.360879 38.904689 
L 191.874832 38.904689 
L 191.874832 128.16 
L 191.496865 128.16 
L 191.496865 38.904689 
L 191.009876 38.904689 
L 191.009876 17.28 
z
" clip-path="url(#p1c3043b3d3)" style="fill: #ff0000"/>
   </g>
   <g id="patch_113">
    <path d="M 193.367826 107.961114 
L 192.848252 107.961114 
L 192.766214 128.16 
L 192.431985 128.16 
L 192.909297 17.28 
L 193.305676 17.28 
L 193.782988 128.16 
L 193.449035 128.16 
L 193.367826 107.961114 
z
M 192.931118 87.382015 
L 193.284131 87.382015 
L 193.107901 43.277154 
L 192.931118 87.382015 
z
" clip-path="url(#p1c3043b3d3)" style="fill: #008000"/>
   </g>
   <g id="patch_114">
    <path d="M 193.854094 17.28 
L 195.205097 17.28 
L 195.205097 38.904689 
L 194.71905 38.904689 
L 194.71905 128.16 
L 194.341083 128.16 
L 194.341083 38.904689 
L 193.854094 38.904689 
L 193.854094 17.28 
z
" clip-path="url(#p1c3043b3d3)" style="fill: #ff0000"/>
   </g>
   <g id="patch_115">
    <path d="M 196.627206 124.815964 
Q 196.490955 126.487982 196.34441 127.327808 
Q 196.197864 128.16 196.04163 128.16 
Q 195.688589 128.16 195.482396 123.182119 
Q 195.276203 118.204239 195.276203 109.691452 
Q 195.276203 101.079413 195.486029 96.139707 
Q 195.696158 91.2 196.061613 91.2 
Q 196.202406 91.2 196.33139 91.871861 
Q 196.460677 92.536088 196.575128 93.849271 
L 196.575128 101.216839 
Q 196.457044 99.529552 196.340171 98.69736 
Q 196.223298 97.857534 196.105819 97.857534 
Q 195.888423 97.857534 195.770642 100.926718 
Q 195.652861 103.988267 195.652861 109.691452 
Q 195.652861 115.341194 195.766403 118.425648 
Q 195.879946 121.502466 196.088864 121.502466 
Q 196.145786 121.502466 196.194534 121.326866 
Q 196.243281 121.143631 196.282037 120.761892 
L 196.282037 113.844776 
L 196.059494 113.844776 
L 196.059494 107.683503 
L 196.627206 107.683503 
L 196.627206 124.815964 
z
" clip-path="url(#p1c3043b3d3)" style="fill: #ffa600"/>
   </g>
   <g id="patch_116">
    <path d="M 196.627206 85.901458 
Q 196.514197 88.527825 196.391997 89.856278 
Q 196.269798 91.2 196.136706 91.2 
Q 195.739812 91.2 195.508007 81.244239 
Q 195.276203 71.288478 195.276203 54.262904 
Q 195.276203 37.176253 195.508007 27.235761 
Q 195.739812 17.28 196.136706 17.28 
Q 196.269798 17.28 196.391997 18.623722 
Q 196.514197 19.952175 196.627206 22.578542 
L 196.627206 37.313679 
Q 196.513176 33.832216 196.402549 32.213642 
Q 196.291923 30.595067 196.169723 30.595067 
Q 195.950513 30.595067 195.82491 36.901401 
Q 195.699646 43.192464 195.699646 54.262904 
Q 195.699646 65.287536 195.82491 71.593869 
Q 195.950513 77.884933 196.169723 77.884933 
Q 196.291923 77.884933 196.402549 76.266358 
Q 196.513176 74.632514 196.627206 71.151051 
L 196.627206 85.901458 
z
" clip-path="url(#p1c3043b3d3)" style="fill: #0000ff"/>
   </g>
   <g id="patch_117">
    <path d="M 198.049315 120.212188 
Q 197.936306 124.151737 197.814106 126.144416 
Q 197.691907 128.16 197.558815 128.16 
Q 197.161921 128.16 196.930116 113.226358 
Q 196.698312 98.292716 196.698312 72.754357 
Q 196.698312 47.124379 196.930116 32.213642 
Q 197.161921 17.28 197.558815 17.28 
Q 197.691907 17.28 197.814106 19.295584 
Q 197.936306 21.288263 198.049315 25.227812 
L 198.049315 47.330518 
Q 197.935285 42.108325 197.824658 39.680463 
Q 197.714032 37.252601 197.591832 37.252601 
Q 197.372622 37.252601 197.247018 46.712101 
Q 197.121755 56.148697 197.121755 72.754357 
Q 197.121755 89.291303 197.247018 98.750804 
Q 197.372622 108.187399 197.591832 108.187399 
Q 197.714032 108.187399 197.824658 105.759537 
Q 197.935285 103.308771 198.049315 98.086577 
L 198.049315 120.212188 
z
" clip-path="url(#p1c3043b3d3)" style="fill: #0000ff"/>
   </g>
   <g id="patch_118">
    <path d="M 199.056262 107.961114 
L 198.536688 107.961114 
L 198.45465 128.16 
L 198.120421 128.16 
L 198.597733 17.28 
L 198.994112 17.28 
L 199.471424 128.16 
L 199.137471 128.16 
L 199.056262 107.961114 
z
M 198.619554 87.382015 
L 198.972566 87.382015 
L 198.796337 43.277154 
L 198.619554 87.382015 
z
" clip-path="url(#p1c3043b3d3)" style="fill: #008000"/>
   </g>
   <g id="patch_119">
    <path d="M 200.893533 118.127891 
Q 200.757282 123.143945 200.610737 125.663425 
Q 200.464191 128.16 200.307957 128.16 
Q 199.954916 128.16 199.748723 113.226358 
Q 199.542529 98.292716 199.542529 72.754357 
Q 199.542529 46.91824 199.752356 32.09912 
Q 199.962485 17.28 200.32794 17.28 
Q 200.468733 17.28 200.597717 19.295584 
Q 200.727004 21.288263 200.841455 25.227812 
L 200.841455 47.330518 
Q 200.723371 42.268655 200.606498 39.77208 
Q 200.489625 37.252601 200.372146 37.252601 
Q 200.15475 37.252601 200.036969 46.460153 
Q 199.919188 55.644801 199.919188 72.754357 
Q 199.919188 89.703582 200.03273 98.956943 
Q 200.146272 108.187399 200.35519 108.187399 
Q 200.412113 108.187399 200.460861 107.660599 
Q 200.509608 107.110894 200.548364 105.965677 
L 200.548364 85.214328 
L 200.325821 85.214328 
L 200.325821 66.73051 
L 200.893533 66.73051 
L 200.893533 118.127891 
z
" clip-path="url(#p1c3043b3d3)" style="fill: #ffa600"/>
   </g>
   <g id="patch_120">
    <path d="M 200.964638 17.28 
L 202.315642 17.28 
L 202.315642 38.904689 
L 201.829595 38.904689 
L 201.829595 128.16 
L 201.451628 128.16 
L 201.451628 38.904689 
L 200.964638 38.904689 
L 200.964638 17.28 
z
" clip-path="url(#p1c3043b3d3)" style="fill: #ff0000"/>
   </g>
   <g id="patch_121">
    <path d="M 203.737751 120.212188 
Q 203.624742 124.151737 203.502542 126.144416 
Q 203.380343 128.16 203.24725 128.16 
Q 202.850357 128.16 202.618552 113.226358 
Q 202.386747 98.292716 202.386747 72.754357 
Q 202.386747 47.124379 202.618552 32.213642 
Q 202.850357 17.28 203.24725 17.28 
Q 203.380343 17.28 203.502542 19.295584 
Q 203.624742 21.288263 203.737751 25.227812 
L 203.737751 47.330518 
Q 203.623721 42.108325 203.513094 39.680463 
Q 203.402468 37.252601 203.280268 37.252601 
Q 203.061058 37.252601 202.935454 46.712101 
Q 202.810191 56.148697 202.810191 72.754357 
Q 202.810191 89.291303 202.935454 98.750804 
Q 203.061058 108.187399 203.280268 108.187399 
Q 203.402468 108.187399 203.513094 105.759537 
Q 203.623721 103.308771 203.737751 98.086577 
L 203.737751 120.212188 
z
" clip-path="url(#p1c3043b3d3)" style="fill: #0000ff"/>
   </g>
   <g id="patch_122">
    <path d="M 204.744698 107.961114 
L 204.225123 107.961114 
L 204.143085 128.16 
L 203.808856 128.16 
L 204.286169 17.28 
L 204.682548 17.28 
L 205.15986 128.16 
L 204.825907 128.16 
L 204.744698 107.961114 
z
M 204.30799 87.382015 
L 204.661002 87.382015 
L 204.484772 43.277154 
L 204.30799 87.382015 
z
" clip-path="url(#p1c3043b3d3)" style="fill: #008000"/>
   </g>
   <g id="patch_123">
    <path d="M 206.581969 120.212188 
Q 206.46896 124.151737 206.34676 126.144416 
Q 206.22456 128.16 206.091468 128.16 
Q 205.694575 128.16 205.46277 113.226358 
Q 205.230965 98.292716 205.230965 72.754357 
Q 205.230965 47.124379 205.46277 32.213642 
Q 205.694575 17.28 206.091468 17.28 
Q 206.22456 17.28 206.34676 19.295584 
Q 206.46896 21.288263 206.581969 25.227812 
L 206.581969 47.330518 
Q 206.467939 42.108325 206.357312 39.680463 
Q 206.246686 37.252601 206.124486 37.252601 
Q 205.905276 37.252601 205.779672 46.712101 
Q 205.654409 56.148697 205.654409 72.754357 
Q 205.654409 89.291303 205.779672 98.750804 
Q 205.905276 108.187399 206.124486 108.187399 
Q 206.246686 108.187399 206.357312 105.759537 
Q 206.467939 103.308771 206.581969 98.086577 
L 206.581969 120.212188 
z
" clip-path="url(#p1c3043b3d3)" style="fill: #0000ff"/>
   </g>
   <g id="patch_124">
    <path d="M 206.653074 17.28 
L 208.004078 17.28 
L 208.004078 38.904689 
L 207.518031 38.904689 
L 207.518031 128.16 
L 207.140064 128.16 
L 207.140064 38.904689 
L 206.653074 38.904689 
L 206.653074 17.28 
z
" clip-path="url(#p1c3043b3d3)" style="fill: #ff0000"/>
   </g>
   <g id="patch_125">
    <path d="M 209.011024 107.961114 
L 208.49145 107.961114 
L 208.409412 128.16 
L 208.075183 128.16 
L 208.552495 17.28 
L 208.948874 17.28 
L 209.426187 128.16 
L 209.092234 128.16 
L 209.011024 107.961114 
z
M 208.574317 87.382015 
L 208.927329 87.382015 
L 208.751099 43.277154 
L 208.574317 87.382015 
z
" clip-path="url(#p1c3043b3d3)" style="fill: #008000"/>
   </g>
   <g id="patch_126">
    <path d="M 209.497292 17.28 
L 210.848296 17.28 
L 210.848296 38.904689 
L 210.362249 38.904689 
L 210.362249 128.16 
L 209.984282 128.16 
L 209.984282 38.904689 
L 209.497292 38.904689 
L 209.497292 17.28 
z
" clip-path="url(#p1c3043b3d3)" style="fill: #ff0000"/>
   </g>
   <g id="patch_127">
    <path d="M 212.270405 118.127891 
Q 212.134154 123.143945 211.987608 125.663425 
Q 211.841063 128.16 211.684828 128.16 
Q 211.331787 128.16 211.125594 113.226358 
Q 210.919401 98.292716 210.919401 72.754357 
Q 210.919401 46.91824 211.129227 32.09912 
Q 211.339357 17.28 211.704812 17.28 
Q 211.845605 17.28 211.974589 19.295584 
Q 212.103876 21.288263 212.218326 25.227812 
L 212.218326 47.330518 
Q 212.100242 42.268655 211.983369 39.77208 
Q 211.866496 37.252601 211.749018 37.252601 
Q 211.531622 37.252601 211.413841 46.460153 
Q 211.296059 55.644801 211.296059 72.754357 
Q 211.296059 89.703582 211.409602 98.956943 
Q 211.523144 108.187399 211.732062 108.187399 
Q 211.788985 108.187399 211.837732 107.660599 
Q 211.88648 107.110894 211.925236 105.965677 
L 211.925236 85.214328 
L 211.702692 85.214328 
L 211.702692 66.73051 
L 212.270405 66.73051 
L 212.270405 118.127891 
z
" clip-path="url(#p1c3043b3d3)" style="fill: #ffa600"/>
   </g>
   <g id="patch_128">
    <path d="M 213.277351 121.427038 
L 212.757777 121.427038 
L 212.675739 128.16 
L 212.34151 128.16 
L 212.818822 91.2 
L 213.215201 91.2 
L 213.692514 128.16 
L 213.358561 128.16 
L 213.277351 121.427038 
z
M 212.840644 114.567338 
L 213.193656 114.567338 
L 213.017426 99.865718 
L 212.840644 114.567338 
z
" clip-path="url(#p1c3043b3d3)" style="fill: #008000"/>
   </g>
   <g id="patch_129">
    <path d="M 214.69946 121.427038 
L 214.179886 121.427038 
L 214.097848 128.16 
L 213.763619 128.16 
L 214.240931 91.2 
L 214.63731 91.2 
L 215.114622 128.16 
L 214.78067 128.16 
L 214.69946 121.427038 
z
M 214.262753 114.567338 
L 214.615765 114.567338 
L 214.439535 99.865718 
L 214.262753 114.567338 
z
" clip-path="url(#p1c3043b3d3)" style="fill: #008000"/>
   </g>
   <g id="patch_130">
    <path d="M 215.185728 91.2 
L 216.536731 91.2 
L 216.536731 98.40823 
L 216.050684 98.40823 
L 216.050684 128.16 
L 215.672718 128.16 
L 215.672718 98.40823 
L 215.185728 98.40823 
L 215.185728 91.2 
z
" clip-path="url(#p1c3043b3d3)" style="fill: #ff0000"/>
   </g>
   <g id="patch_131">
    <path d="M 217.95884 125.510729 
Q 217.845831 126.823912 217.723632 127.488139 
Q 217.601432 128.16 217.46834 128.16 
Q 217.071447 128.16 216.839642 123.182119 
Q 216.607837 118.204239 216.607837 109.691452 
Q 216.607837 101.148126 216.839642 96.177881 
Q 217.071447 91.2 217.46834 91.2 
Q 217.601432 91.2 217.723632 91.871861 
Q 217.845831 92.536088 217.95884 93.849271 
L 217.95884 101.216839 
Q 217.84481 99.476108 217.734184 98.666821 
Q 217.623557 97.857534 217.501358 97.857534 
Q 217.282147 97.857534 217.156544 101.0107 
Q 217.031281 104.156232 217.031281 109.691452 
Q 217.031281 115.203768 217.156544 118.356935 
Q 217.282147 121.502466 217.501358 121.502466 
Q 217.623557 121.502466 217.734184 120.693179 
Q 217.84481 119.876257 217.95884 118.135526 
L 217.95884 125.510729 
z
" clip-path="url(#p1c3043b3d3)" style="fill: #0000ff"/>
   </g>
   <g id="patch_132">
    <path d="M 218.965787 121.427038 
L 218.446213 121.427038 
L 218.364175 128.16 
L 218.029946 128.16 
L 218.507258 91.2 
L 218.903637 91.2 
L 219.380949 128.16 
L 219.046997 128.16 
L 218.965787 121.427038 
z
M 218.52908 114.567338 
L 218.882092 114.567338 
L 218.705862 99.865718 
L 218.52908 114.567338 
z
" clip-path="url(#p1c3043b3d3)" style="fill: #008000"/>
   </g>
   <g id="patch_133">
    <path d="M 220.387896 121.427038 
L 219.868322 121.427038 
L 219.786284 128.16 
L 219.452055 128.16 
L 219.929367 91.2 
L 220.325746 91.2 
L 220.803058 128.16 
L 220.469105 128.16 
L 220.387896 121.427038 
z
M 219.951189 114.567338 
L 220.304201 114.567338 
L 220.127971 99.865718 
L 219.951189 114.567338 
z
" clip-path="url(#p1c3043b3d3)" style="fill: #008000"/>
   </g>
   <g id="patch_134">
    <path d="M 222.225167 125.510729 
Q 222.112158 126.823912 221.989959 127.488139 
Q 221.867759 128.16 221.734667 128.16 
Q 221.337773 128.16 221.105969 123.182119 
Q 220.874164 118.204239 220.874164 109.691452 
Q 220.874164 101.148126 221.105969 96.177881 
Q 221.337773 91.2 221.734667 91.2 
Q 221.867759 91.2 221.989959 91.871861 
Q 222.112158 92.536088 222.225167 93.849271 
L 222.225167 101.216839 
Q 222.111137 99.476108 222.000511 98.666821 
Q 221.889884 97.857534 221.767685 97.857534 
Q 221.548474 97.857534 221.422871 101.0107 
Q 221.297608 104.156232 221.297608 109.691452 
Q 221.297608 115.203768 221.422871 118.356935 
Q 221.548474 121.502466 221.767685 121.502466 
Q 221.889884 121.502466 222.000511 120.693179 
Q 222.111137 119.876257 222.225167 118.135526 
L 222.225167 125.510729 
z
" clip-path="url(#p1c3043b3d3)" style="fill: #0000ff"/>
   </g>
   <g id="patch_135">
    <path d="M 222.296273 91.2 
L 223.647276 91.2 
L 223.647276 98.40823 
L 223.161229 98.40823 
L 223.161229 128.16 
L 222.783262 128.16 
L 222.783262 98.40823 
L 222.296273 98.40823 
L 222.296273 91.2 
z
" clip-path="url(#p1c3043b3d3)" style="fill: #ff0000"/>
   </g>
   <g id="patch_136">
    <path d="M 224.654223 121.427038 
L 224.134649 121.427038 
L 224.052611 128.16 
L 223.718382 128.16 
L 224.195694 91.2 
L 224.592073 91.2 
L 225.069385 128.16 
L 224.735432 128.16 
L 224.654223 121.427038 
z
M 224.217515 114.567338 
L 224.570528 114.567338 
L 224.394298 99.865718 
L 224.217515 114.567338 
z
" clip-path="url(#p1c3043b3d3)" style="fill: #008000"/>
   </g>
   <g id="patch_137">
    <path d="M 226.491494 125.510729 
Q 226.378485 126.823912 226.256285 127.488139 
Q 226.134086 128.16 226.000994 128.16 
Q 225.6041 128.16 225.372295 123.182119 
Q 225.140491 118.204239 225.140491 109.691452 
Q 225.140491 101.148126 225.372295 96.177881 
Q 225.6041 91.2 226.000994 91.2 
Q 226.134086 91.2 226.256285 91.871861 
Q 226.378485 92.536088 226.491494 93.849271 
L 226.491494 101.216839 
Q 226.377464 99.476108 226.266837 98.666821 
Q 226.156211 97.857534 226.034011 97.857534 
Q 225.814801 97.857534 225.689197 101.0107 
Q 225.563934 104.156232 225.563934 109.691452 
Q 225.563934 115.203768 225.689197 118.356935 
Q 225.814801 121.502466 226.034011 121.502466 
Q 226.156211 121.502466 226.266837 120.693179 
Q 226.377464 119.876257 226.491494 118.135526 
L 226.491494 125.510729 
z
" clip-path="url(#p1c3043b3d3)" style="fill: #0000ff"/>
   </g>
   <g id="patch_138">
    <path d="M 226.5626 91.2 
L 227.913603 91.2 
L 227.913603 98.40823 
L 227.427556 98.40823 
L 227.427556 128.16 
L 227.049589 128.16 
L 227.049589 98.40823 
L 226.5626 98.40823 
L 226.5626 91.2 
z
" clip-path="url(#p1c3043b3d3)" style="fill: #ff0000"/>
   </g>
   <g id="patch_139">
    <path d="M 227.984709 91.2 
L 229.335712 91.2 
L 229.335712 98.40823 
L 228.849665 98.40823 
L 228.849665 128.16 
L 228.471698 128.16 
L 228.471698 98.40823 
L 227.984709 98.40823 
L 227.984709 91.2 
z
" clip-path="url(#p1c3043b3d3)" style="fill: #ff0000"/>
   </g>
   <g id="patch_140">
    <path d="M 230.342659 121.427038 
L 229.823085 121.427038 
L 229.741046 128.16 
L 229.406817 128.16 
L 229.88413 91.2 
L 230.280509 91.2 
L 230.757821 128.16 
L 230.423868 128.16 
L 230.342659 121.427038 
z
M 229.905951 114.567338 
L 230.258963 114.567338 
L 230.082734 99.865718 
L 229.905951 114.567338 
z
" clip-path="url(#p1c3043b3d3)" style="fill: #008000"/>
   </g>
   <g id="patch_141">
    <path d="M 232.17993 124.815964 
Q 232.043679 126.487982 231.897134 127.327808 
Q 231.750588 128.16 231.594354 128.16 
Q 231.241313 128.16 231.035119 123.182119 
Q 230.828926 118.204239 230.828926 109.691452 
Q 230.828926 101.079413 231.038753 96.139707 
Q 231.248882 91.2 231.614337 91.2 
Q 231.75513 91.2 231.884114 91.871861 
Q 232.013401 92.536088 232.127852 93.849271 
L 232.127852 101.216839 
Q 232.009768 99.529552 231.892895 98.69736 
Q 231.776022 97.857534 231.658543 97.857534 
Q 231.441147 97.857534 231.323366 100.926718 
Q 231.205584 103.988267 231.205584 109.691452 
Q 231.205584 115.341194 231.319127 118.425648 
Q 231.432669 121.502466 231.641587 121.502466 
Q 231.69851 121.502466 231.747258 121.326866 
Q 231.796005 121.143631 231.834761 120.761892 
L 231.834761 113.844776 
L 231.612218 113.844776 
L 231.612218 107.683503 
L 232.17993 107.683503 
L 232.17993 124.815964 
z
" clip-path="url(#p1c3043b3d3)" style="fill: #ffa600"/>
   </g>
   <g id="patch_142">
    <path d="M 233.186877 121.427038 
L 232.667302 121.427038 
L 232.585264 128.16 
L 232.251035 128.16 
L 232.728348 91.2 
L 233.124727 91.2 
L 233.602039 128.16 
L 233.268086 128.16 
L 233.186877 121.427038 
z
M 232.750169 114.567338 
L 233.103181 114.567338 
L 232.926951 99.865718 
L 232.750169 114.567338 
z
" clip-path="url(#p1c3043b3d3)" style="fill: #008000"/>
   </g>
   <g id="patch_143">
    <path d="M 233.673144 91.2 
L 235.024148 91.2 
L 235.024148 98.40823 
L 234.538101 98.40823 
L 234.538101 128.16 
L 234.160134 128.16 
L 234.160134 98.40823 
L 233.673144 98.40823 
L 233.673144 91.2 
z
" clip-path="url(#p1c3043b3d3)" style="fill: #ff0000"/>
   </g>
   <g id="patch_144">
    <path d="M 236.446257 124.815964 
Q 236.310006 126.487982 236.16346 127.327808 
Q 236.016915 128.16 235.860681 128.16 
Q 235.507639 128.16 235.301446 123.182119 
Q 235.095253 118.204239 235.095253 109.691452 
Q 235.095253 101.079413 235.30508 96.139707 
Q 235.515209 91.2 235.880664 91.2 
Q 236.021457 91.2 236.150441 91.871861 
Q 236.279728 92.536088 236.394179 93.849271 
L 236.394179 101.216839 
Q 236.276095 99.529552 236.159222 98.69736 
Q 236.042349 97.857534 235.92487 97.857534 
Q 235.707474 97.857534 235.589693 100.926718 
Q 235.471911 103.988267 235.471911 109.691452 
Q 235.471911 115.341194 235.585454 118.425648 
Q 235.698996 121.502466 235.907914 121.502466 
Q 235.964837 121.502466 236.013584 121.326866 
Q 236.062332 121.143631 236.101088 120.761892 
L 236.101088 113.844776 
L 235.878545 113.844776 
L 235.878545 107.683503 
L 236.446257 107.683503 
L 236.446257 124.815964 
z
" clip-path="url(#p1c3043b3d3)" style="fill: #ffa600"/>
   </g>
   <g id="patch_145">
    <path d="M 237.868366 124.815964 
Q 237.732115 126.487982 237.585569 127.327808 
Q 237.439024 128.16 237.28279 128.16 
Q 236.929748 128.16 236.723555 123.182119 
Q 236.517362 118.204239 236.517362 109.691452 
Q 236.517362 101.079413 236.727189 96.139707 
Q 236.937318 91.2 237.302773 91.2 
Q 237.443566 91.2 237.57255 91.871861 
Q 237.701837 92.536088 237.816288 93.849271 
L 237.816288 101.216839 
Q 237.698203 99.529552 237.58133 98.69736 
Q 237.464457 97.857534 237.346979 97.857534 
Q 237.129583 97.857534 237.011802 100.926718 
Q 236.89402 103.988267 236.89402 109.691452 
Q 236.89402 115.341194 237.007563 118.425648 
Q 237.121105 121.502466 237.330023 121.502466 
Q 237.386946 121.502466 237.435693 121.326866 
Q 237.484441 121.143631 237.523197 120.761892 
L 237.523197 113.844776 
L 237.300654 113.844776 
L 237.300654 107.683503 
L 237.868366 107.683503 
L 237.868366 124.815964 
z
" clip-path="url(#p1c3043b3d3)" style="fill: #ffa600"/>
   </g>
   <g id="patch_146">
    <path d="M 237.939471 91.2 
L 239.290475 91.2 
L 239.290475 98.40823 
L 238.804428 98.40823 
L 238.804428 128.16 
L 238.426461 128.16 
L 238.426461 98.40823 
L 237.939471 98.40823 
L 237.939471 91.2 
z
" clip-path="url(#p1c3043b3d3)" style="fill: #ff0000"/>
   </g>
   <g id="patch_147">
    <path d="M 240.297421 121.427038 
L 239.777847 121.427038 
L 239.695809 128.16 
L 239.36158 128.16 
L 239.838892 91.2 
L 240.235271 91.2 
L 240.712584 128.16 
L 240.378631 128.16 
L 240.297421 121.427038 
z
M 239.860714 114.567338 
L 240.213726 114.567338 
L 240.037496 99.865718 
L 239.860714 114.567338 
z
" clip-path="url(#p1c3043b3d3)" style="fill: #008000"/>
   </g>
   <g id="patch_148">
    <path d="M 240.783689 91.2 
L 242.134693 91.2 
L 242.134693 98.40823 
L 241.648646 98.40823 
L 241.648646 128.16 
L 241.270679 128.16 
L 241.270679 98.40823 
L 240.783689 98.40823 
L 240.783689 91.2 
z
" clip-path="url(#p1c3043b3d3)" style="fill: #ff0000"/>
   </g>
   <g id="patch_149">
    <path d="M 242.205798 91.2 
L 243.556802 91.2 
L 243.556802 98.40823 
L 243.070754 98.40823 
L 243.070754 128.16 
L 242.692788 128.16 
L 242.692788 98.40823 
L 242.205798 98.40823 
L 242.205798 91.2 
z
" clip-path="url(#p1c3043b3d3)" style="fill: #ff0000"/>
   </g>
   <g id="patch_150">
    <path d="M 244.563748 121.427038 
L 244.044174 121.427038 
L 243.962136 128.16 
L 243.627907 128.16 
L 244.105219 91.2 
L 244.501598 91.2 
L 244.97891 128.16 
L 244.644958 128.16 
L 244.563748 121.427038 
z
M 244.127041 114.567338 
L 244.480053 114.567338 
L 244.303823 99.865718 
L 244.127041 114.567338 
z
" clip-path="url(#p1c3043b3d3)" style="fill: #008000"/>
   </g>
   <g id="patch_151">
    <path d="M 246.401019 124.815964 
Q 246.264769 126.487982 246.118223 127.327808 
Q 245.971678 128.16 245.815443 128.16 
Q 245.462402 128.16 245.256209 123.182119 
Q 245.050016 118.204239 245.050016 109.691452 
Q 245.050016 101.079413 245.259842 96.139707 
Q 245.469972 91.2 245.835427 91.2 
Q 245.976219 91.2 246.105204 91.871861 
Q 246.234491 92.536088 246.348941 93.849271 
L 246.348941 101.216839 
Q 246.230857 99.529552 246.113984 98.69736 
Q 245.997111 97.857534 245.879633 97.857534 
Q 245.662237 97.857534 245.544455 100.926718 
Q 245.426674 103.988267 245.426674 109.691452 
Q 245.426674 115.341194 245.540216 118.425648 
Q 245.653759 121.502466 245.862677 121.502466 
Q 245.9196 121.502466 245.968347 121.326866 
Q 246.017095 121.143631 246.05585 120.761892 
L 246.05585 113.844776 
L 245.833307 113.844776 
L 245.833307 107.683503 
L 246.401019 107.683503 
L 246.401019 124.815964 
z
" clip-path="url(#p1c3043b3d3)" style="fill: #ffa600"/>
   </g>
   <g id="patch_152">
    <path d="M 246.472125 91.2 
L 247.823128 91.2 
L 247.823128 98.40823 
L 247.337081 98.40823 
L 247.337081 128.16 
L 246.959115 128.16 
L 246.959115 98.40823 
L 246.472125 98.40823 
L 246.472125 91.2 
z
" clip-path="url(#p1c3043b3d3)" style="fill: #ff0000"/>
   </g>
   <g id="patch_153">
    <path d="M 249.245237 124.815964 
Q 249.108986 126.487982 248.962441 127.327808 
Q 248.815896 128.16 248.659661 128.16 
Q 248.30662 128.16 248.100427 123.182119 
Q 247.894234 118.204239 247.894234 109.691452 
Q 247.894234 101.079413 248.10406 96.139707 
Q 248.314189 91.2 248.679645 91.2 
Q 248.820437 91.2 248.949421 91.871861 
Q 249.078708 92.536088 249.193159 93.849271 
L 249.193159 101.216839 
Q 249.075075 99.529552 248.958202 98.69736 
Q 248.841329 97.857534 248.723851 97.857534 
Q 248.506455 97.857534 248.388673 100.926718 
Q 248.270892 103.988267 248.270892 109.691452 
Q 248.270892 115.341194 248.384434 118.425648 
Q 248.497977 121.502466 248.706895 121.502466 
Q 248.763817 121.502466 248.812565 121.326866 
Q 248.861313 121.143631 248.900068 120.761892 
L 248.900068 113.844776 
L 248.677525 113.844776 
L 248.677525 107.683503 
L 249.245237 107.683503 
L 249.245237 124.815964 
z
" clip-path="url(#p1c3043b3d3)" style="fill: #ffa600"/>
   </g>
   <g id="patch_154">
    <path d="M 250.252184 121.427038 
L 249.73261 121.427038 
L 249.650572 128.16 
L 249.316343 128.16 
L 249.793655 91.2 
L 250.190034 91.2 
L 250.667346 128.16 
L 250.333393 128.16 
L 250.252184 121.427038 
z
M 249.815477 114.567338 
L 250.168489 114.567338 
L 249.992259 99.865718 
L 249.815477 114.567338 
z
" clip-path="url(#p1c3043b3d3)" style="fill: #008000"/>
   </g>
   <g id="patch_155">
    <path d="M 252.089455 125.510729 
Q 251.976446 126.823912 251.854247 127.488139 
Q 251.732047 128.16 251.598955 128.16 
Q 251.202061 128.16 250.970257 123.182119 
Q 250.738452 118.204239 250.738452 109.691452 
Q 250.738452 101.148126 250.970257 96.177881 
Q 251.202061 91.2 251.598955 91.2 
Q 251.732047 91.2 251.854247 91.871861 
Q 251.976446 92.536088 252.089455 93.849271 
L 252.089455 101.216839 
Q 251.975425 99.476108 251.864799 98.666821 
Q 251.754172 97.857534 251.631973 97.857534 
Q 251.412762 97.857534 251.287159 101.0107 
Q 251.161896 104.156232 251.161896 109.691452 
Q 251.161896 115.203768 251.287159 118.356935 
Q 251.412762 121.502466 251.631973 121.502466 
Q 251.754172 121.502466 251.864799 120.693179 
Q 251.975425 119.876257 252.089455 118.135526 
L 252.089455 125.510729 
z
" clip-path="url(#p1c3043b3d3)" style="fill: #0000ff"/>
   </g>
   <g id="patch_156">
    <path d="M 253.511564 125.510729 
Q 253.398555 126.823912 253.276355 127.488139 
Q 253.154156 128.16 253.021064 128.16 
Q 252.62417 128.16 252.392366 123.182119 
Q 252.160561 118.204239 252.160561 109.691452 
Q 252.160561 101.148126 252.392366 96.177881 
Q 252.62417 91.2 253.021064 91.2 
Q 253.154156 91.2 253.276355 91.871861 
Q 253.398555 92.536088 253.511564 93.849271 
L 253.511564 101.216839 
Q 253.397534 99.476108 253.286908 98.666821 
Q 253.176281 97.857534 253.054082 97.857534 
Q 252.834871 97.857534 252.709268 101.0107 
Q 252.584004 104.156232 252.584004 109.691452 
Q 252.584004 115.203768 252.709268 118.356935 
Q 252.834871 121.502466 253.054082 121.502466 
Q 253.176281 121.502466 253.286908 120.693179 
Q 253.397534 119.876257 253.511564 118.135526 
L 253.511564 125.510729 
z
" clip-path="url(#p1c3043b3d3)" style="fill: #0000ff"/>
   </g>
   <g id="patch_157">
    <path d="M 253.58267 91.2 
L 254.933673 91.2 
L 254.933673 98.40823 
L 254.447626 98.40823 
L 254.447626 128.16 
L 254.069659 128.16 
L 254.069659 98.40823 
L 253.58267 98.40823 
L 253.58267 91.2 
z
" clip-path="url(#p1c3043b3d3)" style="fill: #ff0000"/>
   </g>
   <g id="patch_158">
    <path d="M 256.355782 124.815964 
Q 256.219531 126.487982 256.072986 127.327808 
Q 255.92644 128.16 255.770206 128.16 
Q 255.417165 128.16 255.210972 123.182119 
Q 255.004779 118.204239 255.004779 109.691452 
Q 255.004779 101.079413 255.214605 96.139707 
Q 255.424734 91.2 255.790189 91.2 
Q 255.930982 91.2 256.059966 91.871861 
Q 256.189253 92.536088 256.303704 93.849271 
L 256.303704 101.216839 
Q 256.18562 99.529552 256.068747 98.69736 
Q 255.951874 97.857534 255.834395 97.857534 
Q 255.616999 97.857534 255.499218 100.926718 
Q 255.381437 103.988267 255.381437 109.691452 
Q 255.381437 115.341194 255.494979 118.425648 
Q 255.608522 121.502466 255.81744 121.502466 
Q 255.874362 121.502466 255.92311 121.326866 
Q 255.971857 121.143631 256.010613 120.761892 
L 256.010613 113.844776 
L 255.78807 113.844776 
L 255.78807 107.683503 
L 256.355782 107.683503 
L 256.355782 124.815964 
z
" clip-path="url(#p1c3043b3d3)" style="fill: #ffa600"/>
   </g>
   <g id="patch_159">
    <path d="M 256.426888 91.2 
L 257.777891 91.2 
L 257.777891 98.40823 
L 257.291844 98.40823 
L 257.291844 128.16 
L 256.913877 128.16 
L 256.913877 98.40823 
L 256.426888 98.40823 
L 256.426888 91.2 
z
" clip-path="url(#p1c3043b3d3)" style="fill: #ff0000"/>
   </g>
   <g id="patch_160">
    <path d="M 258.784838 121.427038 
L 258.265264 121.427038 
L 258.183226 128.16 
L 257.848996 128.16 
L 258.326309 91.2 
L 258.722688 91.2 
L 259.2 128.16 
L 258.866047 128.16 
L 258.784838 121.427038 
z
M 258.34813 114.567338 
L 258.701142 114.567338 
L 258.524913 99.865718 
L 258.34813 114.567338 
z
" clip-path="url(#p1c3043b3d3)" style="fill: #008000"/>
   </g>
  </g>
 </g>
 <defs>
  <clipPath id="p1c3043b3d3">
   <rect x="36" y="17.28" width="223.2" height="110.88"/>
  </clipPath>
 </defs>
</svg>
