<?xml version="1.0" encoding="utf-8" standalone="no"?>
<!DOCTYPE svg PUBLIC "-//W3C//DTD SVG 1.1//EN"
  "http://www.w3.org/Graphics/SVG/1.1/DTD/svg11.dtd">
<svg xmlns:xlink="http://www.w3.org/1999/xlink" width="288pt" height="144pt" viewBox="0 0 288 144" xmlns="http://www.w3.org/2000/svg" version="1.1">
 <metadata>
  <rdf:RDF xmlns:dc="http://purl.org/dc/elements/1.1/" xmlns:cc="http://creativecommons.org/ns#" xmlns:rdf="http://www.w3.org/1999/02/22-rdf-syntax-ns#">
   <cc:Work>
    <dc:type rdf:resource="http://purl.org/dc/dcmitype/StillImage"/>
    <dc:date>2024-11-11T17:03:47.128893</dc:date>
    <dc:format>image/svg+xml</dc:format>
    <dc:creator>
     <cc:Agent>
      <dc:title>Matplotlib v3.9.2, https://matplotlib.org/</dc:title>
     </cc:Agent>
    </dc:creator>
   </cc:Work>
  </rdf:RDF>
 </metadata>
 <defs>
  <style type="text/css">*{stroke-linejoin: round; stroke-linecap: butt}</style>
 </defs>
 <g id="figure_1">
  <g id="patch_1">
   <path d="M 0 144 
L 288 144 
L 288 0 
L 0 0 
z
" style="fill: #ffffff"/>
  </g>
  <g id="axes_1">
   <g id="line2d_1">
    <path d="M 36 128.16 
L 259.2 128.16 
" clip-path="url(#p9156600c3e)" style="fill: none; stroke: #000000; stroke-width: 0.5; stroke-linecap: square"/>
   </g>
   <g id="patch_2">
    <path d="M 37.34245 126.646131 
Q 37.230157 127.396521 37.108731 127.776079 
Q 36.987305 128.16 36.855055 128.16 
Q 36.460675 128.16 36.230337 125.315497 
Q 36 122.470994 36 117.606544 
Q 36 112.724644 36.230337 109.884503 
Q 36.460675 107.04 36.855055 107.04 
Q 36.987305 107.04 37.108731 107.423921 
Q 37.230157 107.803479 37.34245 108.553869 
L 37.34245 112.763908 
Q 37.229142 111.769205 37.119216 111.306755 
Q 37.00929 110.844305 36.887864 110.844305 
Q 36.670041 110.844305 36.545233 112.646114 
Q 36.420763 114.443561 36.420763 117.606544 
Q 36.420763 120.756439 36.545233 122.558248 
Q 36.670041 124.355695 36.887864 124.355695 
Q 37.00929 124.355695 37.119216 123.893245 
Q 37.229142 123.426433 37.34245 122.431729 
L 37.34245 126.646131 
z
" clip-path="url(#p9156600c3e)" style="fill: #0000ff"/>
   </g>
   <g id="patch_3">
    <path d="M 37.34245 105.129122 
Q 37.207062 106.084561 37.061444 106.564462 
Q 36.915827 107.04 36.760581 107.04 
Q 36.409775 107.04 36.204888 104.195497 
Q 36 101.350994 36 96.486544 
Q 36 91.565379 36.208498 88.74269 
Q 36.417297 85.92 36.780438 85.92 
Q 36.92034 85.92 37.048507 86.303921 
Q 37.176976 86.683479 37.290702 87.433869 
L 37.290702 91.643908 
Q 37.173365 90.679744 37.057232 90.204206 
Q 36.941099 89.724305 36.824364 89.724305 
Q 36.608345 89.724305 36.491309 91.478124 
Q 36.374273 93.227581 36.374273 96.486544 
Q 36.374273 99.714968 36.487097 101.477513 
Q 36.599921 103.235695 36.807516 103.235695 
Q 36.864078 103.235695 36.912517 103.135352 
Q 36.960956 103.030647 36.999466 102.81251 
L 36.999466 98.859872 
L 36.778332 98.859872 
L 36.778332 95.339145 
L 37.34245 95.339145 
L 37.34245 105.129122 
z
" clip-path="url(#p9156600c3e)" style="fill: #ffa600"/>
   </g>
   <g id="patch_4">
    <path d="M 36 64.8 
L 37.34245 64.8 
L 37.34245 68.918988 
L 36.85948 68.918988 
L 36.85948 85.92 
L 36.483906 85.92 
L 36.483906 68.918988 
L 36 68.918988 
L 36 64.8 
z
" clip-path="url(#p9156600c3e)" style="fill: #ff0000"/>
   </g>
   <g id="patch_5">
    <path d="M 36.929916 57.425804 
L 36.413632 57.425804 
L 36.332113 64.8 
L 36 64.8 
L 36.47429 24.32 
L 36.86816 24.32 
L 37.34245 64.8 
L 37.010612 64.8 
L 36.929916 57.425804 
z
M 36.495974 49.912799 
L 36.846751 49.912799 
L 36.671637 33.811024 
L 36.495974 49.912799 
z
" clip-path="url(#p9156600c3e)" style="fill: #008000"/>
   </g>
   <g id="patch_6">
    <path d="M 38.755556 120.212188 
Q 38.643262 124.151737 38.521836 126.144416 
Q 38.40041 128.16 38.268161 128.16 
Q 37.87378 128.16 37.643443 113.226358 
Q 37.413105 98.292716 37.413105 72.754357 
Q 37.413105 47.124379 37.643443 32.213642 
Q 37.87378 17.28 38.268161 17.28 
Q 38.40041 17.28 38.521836 19.295584 
Q 38.643262 21.288263 38.755556 25.227812 
L 38.755556 47.330518 
Q 38.642247 42.108325 38.532321 39.680463 
Q 38.422395 37.252601 38.300969 37.252601 
Q 38.083147 37.252601 37.958338 46.712101 
Q 37.833868 56.148697 37.833868 72.754357 
Q 37.833868 89.291303 37.958338 98.750804 
Q 38.083147 108.187399 38.300969 108.187399 
Q 38.422395 108.187399 38.532321 105.759537 
Q 38.642247 103.308771 38.755556 98.086577 
L 38.755556 120.212188 
z
" clip-path="url(#p9156600c3e)" style="fill: #0000ff"/>
   </g>
   <g id="patch_7">
    <path d="M 39.756127 107.961114 
L 39.239842 107.961114 
L 39.158324 128.16 
L 38.826211 128.16 
L 39.300501 17.28 
L 39.694371 17.28 
L 40.168661 128.16 
L 39.836822 128.16 
L 39.756127 107.961114 
z
M 39.322185 87.382015 
L 39.672962 87.382015 
L 39.497848 43.277154 
L 39.322185 87.382015 
z
" clip-path="url(#p9156600c3e)" style="fill: #008000"/>
   </g>
   <g id="patch_8">
    <path d="M 41.169233 107.961114 
L 40.652948 107.961114 
L 40.571429 128.16 
L 40.239316 128.16 
L 40.713607 17.28 
L 41.107476 17.28 
L 41.581766 128.16 
L 41.249928 128.16 
L 41.169233 107.961114 
z
M 40.73529 87.382015 
L 41.086067 87.382015 
L 40.910953 43.277154 
L 40.73529 87.382015 
z
" clip-path="url(#p9156600c3e)" style="fill: #008000"/>
   </g>
   <g id="patch_9">
    <path d="M 42.994872 124.753795 
Q 42.882578 126.442173 42.761152 127.296178 
Q 42.639726 128.16 42.507477 128.16 
Q 42.113096 128.16 41.882759 121.759868 
Q 41.652422 115.359736 41.652422 104.414724 
Q 41.652422 93.430448 41.882759 87.040132 
Q 42.113096 80.64 42.507477 80.64 
Q 42.639726 80.64 42.761152 81.503822 
Q 42.882578 82.357827 42.994872 84.046205 
L 42.994872 93.518794 
Q 42.881563 91.280711 42.771637 90.240198 
Q 42.661711 89.199686 42.540286 89.199686 
Q 42.322463 89.199686 42.197655 93.253757 
Q 42.073185 97.298013 42.073185 104.414724 
Q 42.073185 111.501987 42.197655 115.556059 
Q 42.322463 119.600314 42.540286 119.600314 
Q 42.661711 119.600314 42.771637 118.559802 
Q 42.881563 117.509473 42.994872 115.27139 
L 42.994872 124.753795 
z
" clip-path="url(#p9156600c3e)" style="fill: #0000ff"/>
   </g>
   <g id="patch_10">
    <path d="M 42.994872 74.907366 
Q 42.859484 77.773683 42.713866 79.213386 
Q 42.568248 80.64 42.413003 80.64 
Q 42.062197 80.64 41.857309 72.10649 
Q 41.652422 63.572981 41.652422 48.979632 
Q 41.652422 34.216137 41.86092 25.748069 
Q 42.069718 17.28 42.43286 17.28 
Q 42.572761 17.28 42.700929 18.431762 
Q 42.829397 19.570436 42.943123 21.821607 
L 42.943123 34.451725 
Q 42.825787 31.559232 42.709654 30.132617 
Q 42.593521 28.692915 42.476786 28.692915 
Q 42.260766 28.692915 42.143731 33.954373 
Q 42.026695 39.202743 42.026695 48.979632 
Q 42.026695 58.664904 42.139519 63.952539 
Q 42.252342 69.227085 42.459938 69.227085 
Q 42.5165 69.227085 42.564939 68.926057 
Q 42.613378 68.61194 42.651888 67.957529 
L 42.651888 56.099616 
L 42.430754 56.099616 
L 42.430754 45.537434 
L 42.994872 45.537434 
L 42.994872 74.907366 
z
" clip-path="url(#p9156600c3e)" style="fill: #ffa600"/>
   </g>
   <g id="patch_11">
    <path d="M 43.065527 17.28 
L 44.407977 17.28 
L 44.407977 38.904689 
L 43.925007 38.904689 
L 43.925007 128.16 
L 43.549434 128.16 
L 43.549434 38.904689 
L 43.065527 38.904689 
L 43.065527 17.28 
z
" clip-path="url(#p9156600c3e)" style="fill: #ff0000"/>
   </g>
   <g id="patch_12">
    <path d="M 44.478632 17.28 
L 45.821083 17.28 
L 45.821083 38.904689 
L 45.338113 38.904689 
L 45.338113 128.16 
L 44.962539 128.16 
L 44.962539 38.904689 
L 44.478632 38.904689 
L 44.478632 17.28 
z
" clip-path="url(#p9156600c3e)" style="fill: #ff0000"/>
   </g>
   <g id="patch_13">
    <path d="M 45.891738 17.28 
L 47.234188 17.28 
L 47.234188 38.904689 
L 46.751218 38.904689 
L 46.751218 128.16 
L 46.375644 128.16 
L 46.375644 38.904689 
L 45.891738 38.904689 
L 45.891738 17.28 
z
" clip-path="url(#p9156600c3e)" style="fill: #ff0000"/>
   </g>
   <g id="patch_14">
    <path d="M 48.647293 118.127891 
Q 48.511905 123.143945 48.366288 125.663425 
Q 48.22067 128.16 48.065425 128.16 
Q 47.714619 128.16 47.509731 113.226358 
Q 47.304843 98.292716 47.304843 72.754357 
Q 47.304843 46.91824 47.513341 32.09912 
Q 47.72214 17.28 48.085282 17.28 
Q 48.225183 17.28 48.35335 19.295584 
Q 48.481819 21.288263 48.595545 25.227812 
L 48.595545 47.330518 
Q 48.478209 42.268655 48.362075 39.77208 
Q 48.245942 37.252601 48.129208 37.252601 
Q 47.913188 37.252601 47.796152 46.460153 
Q 47.679117 55.644801 47.679117 72.754357 
Q 47.679117 89.703582 47.79194 98.956943 
Q 47.904764 108.187399 48.112359 108.187399 
Q 48.168921 108.187399 48.21736 107.660599 
Q 48.265799 107.110894 48.30431 105.965677 
L 48.30431 85.214328 
L 48.083176 85.214328 
L 48.083176 66.73051 
L 48.647293 66.73051 
L 48.647293 118.127891 
z
" clip-path="url(#p9156600c3e)" style="fill: #ffa600"/>
   </g>
   <g id="patch_15">
    <path d="M 48.717949 17.28 
L 50.060399 17.28 
L 50.060399 38.904689 
L 49.577429 38.904689 
L 49.577429 128.16 
L 49.201855 128.16 
L 49.201855 38.904689 
L 48.717949 38.904689 
L 48.717949 17.28 
z
" clip-path="url(#p9156600c3e)" style="fill: #ff0000"/>
   </g>
   <g id="patch_16">
    <path d="M 51.060971 107.961114 
L 50.544686 107.961114 
L 50.463167 128.16 
L 50.131054 128.16 
L 50.605344 17.28 
L 50.999214 17.28 
L 51.473504 128.16 
L 51.141666 128.16 
L 51.060971 107.961114 
z
M 50.627028 87.382015 
L 50.977805 87.382015 
L 50.802691 43.277154 
L 50.627028 87.382015 
z
" clip-path="url(#p9156600c3e)" style="fill: #008000"/>
   </g>
   <g id="patch_17">
    <path d="M 52.88661 120.212188 
Q 52.774316 124.151737 52.65289 126.144416 
Q 52.531464 128.16 52.399215 128.16 
Q 52.004834 128.16 51.774497 113.226358 
Q 51.54416 98.292716 51.54416 72.754357 
Q 51.54416 47.124379 51.774497 32.213642 
Q 52.004834 17.28 52.399215 17.28 
Q 52.531464 17.28 52.65289 19.295584 
Q 52.774316 21.288263 52.88661 25.227812 
L 52.88661 47.330518 
Q 52.773301 42.108325 52.663375 39.680463 
Q 52.553449 37.252601 52.432023 37.252601 
Q 52.214201 37.252601 52.089393 46.712101 
Q 51.964922 56.148697 51.964922 72.754357 
Q 51.964922 89.291303 52.089393 98.750804 
Q 52.214201 108.187399 52.432023 108.187399 
Q 52.553449 108.187399 52.663375 105.759537 
Q 52.773301 103.308771 52.88661 98.086577 
L 52.88661 120.212188 
z
" clip-path="url(#p9156600c3e)" style="fill: #0000ff"/>
   </g>
   <g id="patch_18">
    <path d="M 53.887181 107.961114 
L 53.370897 107.961114 
L 53.289378 128.16 
L 52.957265 128.16 
L 53.431555 17.28 
L 53.825425 17.28 
L 54.299715 128.16 
L 53.967877 128.16 
L 53.887181 107.961114 
z
M 53.453239 87.382015 
L 53.804016 87.382015 
L 53.628902 43.277154 
L 53.453239 87.382015 
z
" clip-path="url(#p9156600c3e)" style="fill: #008000"/>
   </g>
   <g id="patch_19">
    <path d="M 55.300287 107.961114 
L 54.784002 107.961114 
L 54.702483 128.16 
L 54.37037 128.16 
L 54.844661 17.28 
L 55.23853 17.28 
L 55.712821 128.16 
L 55.380982 128.16 
L 55.300287 107.961114 
z
M 54.866344 87.382015 
L 55.217121 87.382015 
L 55.042007 43.277154 
L 54.866344 87.382015 
z
" clip-path="url(#p9156600c3e)" style="fill: #008000"/>
   </g>
   <g id="patch_20">
    <path d="M 56.713392 107.961114 
L 56.197107 107.961114 
L 56.115589 128.16 
L 55.783476 128.16 
L 56.257766 17.28 
L 56.651636 17.28 
L 57.125926 128.16 
L 56.794087 128.16 
L 56.713392 107.961114 
z
M 56.279449 87.382015 
L 56.630227 87.382015 
L 56.455113 43.277154 
L 56.279449 87.382015 
z
" clip-path="url(#p9156600c3e)" style="fill: #008000"/>
   </g>
   <g id="patch_21">
    <path d="M 58.126498 107.961114 
L 57.610213 107.961114 
L 57.528694 128.16 
L 57.196581 128.16 
L 57.670871 17.28 
L 58.064741 17.28 
L 58.539031 128.16 
L 58.207193 128.16 
L 58.126498 107.961114 
z
M 57.692555 87.382015 
L 58.043332 87.382015 
L 57.868218 43.277154 
L 57.692555 87.382015 
z
" clip-path="url(#p9156600c3e)" style="fill: #008000"/>
   </g>
   <g id="patch_22">
    <path d="M 59.539603 107.961114 
L 59.023318 107.961114 
L 58.9418 128.16 
L 58.609687 128.16 
L 59.083977 17.28 
L 59.477846 17.28 
L 59.952137 128.16 
L 59.620298 128.16 
L 59.539603 107.961114 
z
M 59.10566 87.382015 
L 59.456438 87.382015 
L 59.281323 43.277154 
L 59.10566 87.382015 
z
" clip-path="url(#p9156600c3e)" style="fill: #008000"/>
   </g>
   <g id="patch_23">
    <path d="M 60.952708 107.961114 
L 60.436424 107.961114 
L 60.354905 128.16 
L 60.022792 128.16 
L 60.497082 17.28 
L 60.890952 17.28 
L 61.365242 128.16 
L 61.033404 128.16 
L 60.952708 107.961114 
z
M 60.518766 87.382015 
L 60.869543 87.382015 
L 60.694429 43.277154 
L 60.518766 87.382015 
z
" clip-path="url(#p9156600c3e)" style="fill: #008000"/>
   </g>
   <g id="patch_24">
    <path d="M 62.778348 118.127891 
Q 62.642959 123.143945 62.497342 125.663425 
Q 62.351724 128.16 62.196479 128.16 
Q 61.845673 128.16 61.640785 113.226358 
Q 61.435897 98.292716 61.435897 72.754357 
Q 61.435897 46.91824 61.644395 32.09912 
Q 61.853194 17.28 62.216336 17.28 
Q 62.356237 17.28 62.484405 19.295584 
Q 62.612873 21.288263 62.726599 25.227812 
L 62.726599 47.330518 
Q 62.609263 42.268655 62.49313 39.77208 
Q 62.376997 37.252601 62.260262 37.252601 
Q 62.044242 37.252601 61.927207 46.460153 
Q 61.810171 55.644801 61.810171 72.754357 
Q 61.810171 89.703582 61.922994 98.956943 
Q 62.035818 108.187399 62.243413 108.187399 
Q 62.299976 108.187399 62.348415 107.660599 
Q 62.396853 107.110894 62.435364 105.965677 
L 62.435364 85.214328 
L 62.21423 85.214328 
L 62.21423 66.73051 
L 62.778348 66.73051 
L 62.778348 118.127891 
z
" clip-path="url(#p9156600c3e)" style="fill: #ffa600"/>
   </g>
   <g id="patch_25">
    <path d="M 62.849003 92.96 
L 64.191453 92.96 
L 64.191453 99.824981 
L 63.708483 99.824981 
L 63.708483 128.16 
L 63.332909 128.16 
L 63.332909 99.824981 
L 62.849003 99.824981 
L 62.849003 92.96 
z
" clip-path="url(#p9156600c3e)" style="fill: #ff0000"/>
   </g>
   <g id="patch_26">
    <path d="M 64.191453 87.535303 
Q 64.079159 90.224202 63.957733 91.584284 
Q 63.836307 92.96 63.704058 92.96 
Q 63.309677 92.96 63.07934 82.767197 
Q 62.849003 72.574394 62.849003 55.14345 
Q 62.849003 37.649973 63.07934 27.472803 
Q 63.309677 17.28 63.704058 17.28 
Q 63.836307 17.28 63.957733 18.655716 
Q 64.079159 20.015798 64.191453 22.704697 
L 64.191453 37.790671 
Q 64.078145 34.226317 63.968219 32.569205 
Q 63.858293 30.912093 63.736867 30.912093 
Q 63.519044 30.912093 63.394236 37.368577 
Q 63.269766 43.809428 63.269766 55.14345 
Q 63.269766 66.430572 63.394236 72.887056 
Q 63.519044 79.327907 63.736867 79.327907 
Q 63.858293 79.327907 63.968219 77.670795 
Q 64.078145 75.99805 64.191453 72.433696 
L 64.191453 87.535303 
z
" clip-path="url(#p9156600c3e)" style="fill: #0000ff"/>
   </g>
   <g id="patch_27">
    <path d="M 65.192025 125.595062 
L 64.67574 125.595062 
L 64.594221 128.16 
L 64.262108 128.16 
L 64.736399 114.08 
L 65.130268 114.08 
L 65.604558 128.16 
L 65.27272 128.16 
L 65.192025 125.595062 
z
M 64.758082 122.981843 
L 65.108859 122.981843 
L 64.933745 117.381226 
L 64.758082 122.981843 
z
" clip-path="url(#p9156600c3e)" style="fill: #008000"/>
   </g>
   <g id="patch_28">
    <path d="M 64.262108 17.28 
L 65.604558 17.28 
L 65.604558 36.158697 
L 65.121589 36.158697 
L 65.121589 114.08 
L 64.746015 114.08 
L 64.746015 36.158697 
L 64.262108 36.158697 
L 64.262108 17.28 
z
" clip-path="url(#p9156600c3e)" style="fill: #ff0000"/>
   </g>
   <g id="patch_29">
    <path d="M 67.017664 118.127891 
Q 66.882276 123.143945 66.736658 125.663425 
Q 66.59104 128.16 66.435795 128.16 
Q 66.084989 128.16 65.880101 113.226358 
Q 65.675214 98.292716 65.675214 72.754357 
Q 65.675214 46.91824 65.883712 32.09912 
Q 66.09251 17.28 66.455652 17.28 
Q 66.595553 17.28 66.723721 19.295584 
Q 66.852189 21.288263 66.965915 25.227812 
L 66.965915 47.330518 
Q 66.848579 42.268655 66.732446 39.77208 
Q 66.616313 37.252601 66.499578 37.252601 
Q 66.283558 37.252601 66.166523 46.460153 
Q 66.049487 55.644801 66.049487 72.754357 
Q 66.049487 89.703582 66.162311 98.956943 
Q 66.275134 108.187399 66.48273 108.187399 
Q 66.539292 108.187399 66.587731 107.660599 
Q 66.63617 107.110894 66.67468 105.965677 
L 66.67468 85.214328 
L 66.453546 85.214328 
L 66.453546 66.73051 
L 67.017664 66.73051 
L 67.017664 118.127891 
z
" clip-path="url(#p9156600c3e)" style="fill: #ffa600"/>
   </g>
   <g id="patch_30">
    <path d="M 68.018235 107.961114 
L 67.501951 107.961114 
L 67.420432 128.16 
L 67.088319 128.16 
L 67.562609 17.28 
L 67.956479 17.28 
L 68.430769 128.16 
L 68.098931 128.16 
L 68.018235 107.961114 
z
M 67.584293 87.382015 
L 67.93507 87.382015 
L 67.759956 43.277154 
L 67.584293 87.382015 
z
" clip-path="url(#p9156600c3e)" style="fill: #008000"/>
   </g>
   <g id="patch_31">
    <path d="M 69.431341 107.961114 
L 68.915056 107.961114 
L 68.833537 128.16 
L 68.501425 128.16 
L 68.975715 17.28 
L 69.369584 17.28 
L 69.843875 128.16 
L 69.512036 128.16 
L 69.431341 107.961114 
z
M 68.997398 87.382015 
L 69.348175 87.382015 
L 69.173061 43.277154 
L 68.997398 87.382015 
z
" clip-path="url(#p9156600c3e)" style="fill: #008000"/>
   </g>
   <g id="patch_32">
    <path d="M 71.25698 120.212188 
Q 71.144686 124.151737 71.02326 126.144416 
Q 70.901835 128.16 70.769585 128.16 
Q 70.375204 128.16 70.144867 113.226358 
Q 69.91453 98.292716 69.91453 72.754357 
Q 69.91453 47.124379 70.144867 32.213642 
Q 70.375204 17.28 70.769585 17.28 
Q 70.901835 17.28 71.02326 19.295584 
Q 71.144686 21.288263 71.25698 25.227812 
L 71.25698 47.330518 
Q 71.143672 42.108325 71.033746 39.680463 
Q 70.92382 37.252601 70.802394 37.252601 
Q 70.584571 37.252601 70.459763 46.712101 
Q 70.335293 56.148697 70.335293 72.754357 
Q 70.335293 89.291303 70.459763 98.750804 
Q 70.584571 108.187399 70.802394 108.187399 
Q 70.92382 108.187399 71.033746 105.759537 
Q 71.143672 103.308771 71.25698 98.086577 
L 71.25698 120.212188 
z
" clip-path="url(#p9156600c3e)" style="fill: #0000ff"/>
   </g>
   <g id="patch_33">
    <path d="M 72.670085 118.127891 
Q 72.534697 123.143945 72.38908 125.663425 
Q 72.243462 128.16 72.088217 128.16 
Q 71.737411 128.16 71.532523 113.226358 
Q 71.327635 98.292716 71.327635 72.754357 
Q 71.327635 46.91824 71.536133 32.09912 
Q 71.744932 17.28 72.108074 17.28 
Q 72.247975 17.28 72.376142 19.295584 
Q 72.504611 21.288263 72.618337 25.227812 
L 72.618337 47.330518 
Q 72.501001 42.268655 72.384867 39.77208 
Q 72.268734 37.252601 72.152 37.252601 
Q 71.93598 37.252601 71.818944 46.460153 
Q 71.701909 55.644801 71.701909 72.754357 
Q 71.701909 89.703582 71.814732 98.956943 
Q 71.927556 108.187399 72.135151 108.187399 
Q 72.191714 108.187399 72.240152 107.660599 
Q 72.288591 107.110894 72.327102 105.965677 
L 72.327102 85.214328 
L 72.105968 85.214328 
L 72.105968 66.73051 
L 72.670085 66.73051 
L 72.670085 118.127891 
z
" clip-path="url(#p9156600c3e)" style="fill: #ffa600"/>
   </g>
   <g id="patch_34">
    <path d="M 73.670657 107.961114 
L 73.154372 107.961114 
L 73.072854 128.16 
L 72.740741 128.16 
L 73.215031 17.28 
L 73.608901 17.28 
L 74.083191 128.16 
L 73.751352 128.16 
L 73.670657 107.961114 
z
M 73.236714 87.382015 
L 73.587492 87.382015 
L 73.412378 43.277154 
L 73.236714 87.382015 
z
" clip-path="url(#p9156600c3e)" style="fill: #008000"/>
   </g>
   <g id="patch_35">
    <path d="M 75.496296 118.127891 
Q 75.360908 123.143945 75.21529 125.663425 
Q 75.069673 128.16 74.914427 128.16 
Q 74.563621 128.16 74.358734 113.226358 
Q 74.153846 98.292716 74.153846 72.754357 
Q 74.153846 46.91824 74.362344 32.09912 
Q 74.571143 17.28 74.934284 17.28 
Q 75.074186 17.28 75.202353 19.295584 
Q 75.330822 21.288263 75.444548 25.227812 
L 75.444548 47.330518 
Q 75.327211 42.268655 75.211078 39.77208 
Q 75.094945 37.252601 74.97821 37.252601 
Q 74.762191 37.252601 74.645155 46.460153 
Q 74.52812 55.644801 74.52812 72.754357 
Q 74.52812 89.703582 74.640943 98.956943 
Q 74.753767 108.187399 74.961362 108.187399 
Q 75.017924 108.187399 75.066363 107.660599 
Q 75.114802 107.110894 75.153313 105.965677 
L 75.153313 85.214328 
L 74.932178 85.214328 
L 74.932178 66.73051 
L 75.496296 66.73051 
L 75.496296 118.127891 
z
" clip-path="url(#p9156600c3e)" style="fill: #ffa600"/>
   </g>
   <g id="patch_36">
    <path d="M 76.496868 107.961114 
L 75.980583 107.961114 
L 75.899065 128.16 
L 75.566952 128.16 
L 76.041242 17.28 
L 76.435111 17.28 
L 76.909402 128.16 
L 76.577563 128.16 
L 76.496868 107.961114 
z
M 76.062925 87.382015 
L 76.413702 87.382015 
L 76.238588 43.277154 
L 76.062925 87.382015 
z
" clip-path="url(#p9156600c3e)" style="fill: #008000"/>
   </g>
   <g id="patch_37">
    <path d="M 77.909973 107.961114 
L 77.393689 107.961114 
L 77.31217 128.16 
L 76.980057 128.16 
L 77.454347 17.28 
L 77.848217 17.28 
L 78.322507 128.16 
L 77.990669 128.16 
L 77.909973 107.961114 
z
M 77.476031 87.382015 
L 77.826808 87.382015 
L 77.651694 43.277154 
L 77.476031 87.382015 
z
" clip-path="url(#p9156600c3e)" style="fill: #008000"/>
   </g>
   <g id="patch_38">
    <path d="M 79.735613 126.886081 
Q 79.600224 127.523041 79.454607 127.842975 
Q 79.308989 128.16 79.153744 128.16 
Q 78.802938 128.16 78.59805 126.263665 
Q 78.393162 124.367329 78.393162 121.124363 
Q 78.393162 117.843586 78.60166 115.961793 
Q 78.810459 114.08 79.173601 114.08 
Q 79.313502 114.08 79.44167 114.335947 
Q 79.570138 114.588986 79.683864 115.089246 
L 79.683864 117.895939 
Q 79.566528 117.253163 79.450395 116.936137 
Q 79.334261 116.616203 79.217527 116.616203 
Q 79.001507 116.616203 78.884471 117.785416 
Q 78.767436 118.951721 78.767436 121.124363 
Q 78.767436 123.276645 78.880259 124.451675 
Q 78.993083 125.623797 79.200678 125.623797 
Q 79.257241 125.623797 79.305679 125.556901 
Q 79.354118 125.487098 79.392629 125.341673 
L 79.392629 122.706581 
L 79.171495 122.706581 
L 79.171495 120.35943 
L 79.735613 120.35943 
L 79.735613 126.886081 
z
" clip-path="url(#p9156600c3e)" style="fill: #ffa600"/>
   </g>
   <g id="patch_39">
    <path d="M 79.323079 96.446052 
L 78.806794 96.446052 
L 78.725275 114.08 
L 78.393162 114.08 
L 78.867453 17.28 
L 79.261322 17.28 
L 79.735613 114.08 
L 79.403774 114.08 
L 79.323079 96.446052 
z
M 78.889136 78.480171 
L 79.239913 78.480171 
L 79.064799 39.975928 
L 78.889136 78.480171 
z
" clip-path="url(#p9156600c3e)" style="fill: #008000"/>
   </g>
   <g id="patch_40">
    <path d="M 81.148718 120.212188 
Q 81.036424 124.151737 80.914998 126.144416 
Q 80.793572 128.16 80.661323 128.16 
Q 80.266942 128.16 80.036605 113.226358 
Q 79.806268 98.292716 79.806268 72.754357 
Q 79.806268 47.124379 80.036605 32.213642 
Q 80.266942 17.28 80.661323 17.28 
Q 80.793572 17.28 80.914998 19.295584 
Q 81.036424 21.288263 81.148718 25.227812 
L 81.148718 47.330518 
Q 81.03541 42.108325 80.925484 39.680463 
Q 80.815558 37.252601 80.694132 37.252601 
Q 80.476309 37.252601 80.351501 46.712101 
Q 80.227031 56.148697 80.227031 72.754357 
Q 80.227031 89.291303 80.351501 98.750804 
Q 80.476309 108.187399 80.694132 108.187399 
Q 80.815558 108.187399 80.925484 105.759537 
Q 81.03541 103.308771 81.148718 98.086577 
L 81.148718 120.212188 
z
" clip-path="url(#p9156600c3e)" style="fill: #0000ff"/>
   </g>
   <g id="patch_41">
    <path d="M 82.561823 118.127891 
Q 82.426435 123.143945 82.280817 125.663425 
Q 82.1352 128.16 81.979955 128.16 
Q 81.629148 128.16 81.424261 113.226358 
Q 81.219373 98.292716 81.219373 72.754357 
Q 81.219373 46.91824 81.427871 32.09912 
Q 81.63667 17.28 81.999812 17.28 
Q 82.139713 17.28 82.26788 19.295584 
Q 82.396349 21.288263 82.510075 25.227812 
L 82.510075 47.330518 
Q 82.392738 42.268655 82.276605 39.77208 
Q 82.160472 37.252601 82.043737 37.252601 
Q 81.827718 37.252601 81.710682 46.460153 
Q 81.593647 55.644801 81.593647 72.754357 
Q 81.593647 89.703582 81.70647 98.956943 
Q 81.819294 108.187399 82.026889 108.187399 
Q 82.083451 108.187399 82.13189 107.660599 
Q 82.180329 107.110894 82.21884 105.965677 
L 82.21884 85.214328 
L 81.997705 85.214328 
L 81.997705 66.73051 
L 82.561823 66.73051 
L 82.561823 118.127891 
z
" clip-path="url(#p9156600c3e)" style="fill: #ffa600"/>
   </g>
   <g id="patch_42">
    <path d="M 82.632479 17.28 
L 83.974929 17.28 
L 83.974929 38.904689 
L 83.491959 38.904689 
L 83.491959 128.16 
L 83.116385 128.16 
L 83.116385 38.904689 
L 82.632479 38.904689 
L 82.632479 17.28 
z
" clip-path="url(#p9156600c3e)" style="fill: #ff0000"/>
   </g>
   <g id="patch_43">
    <path d="M 84.9755 107.961114 
L 84.459216 107.961114 
L 84.377697 128.16 
L 84.045584 128.16 
L 84.519874 17.28 
L 84.913744 17.28 
L 85.388034 128.16 
L 85.056196 128.16 
L 84.9755 107.961114 
z
M 84.541558 87.382015 
L 84.892335 87.382015 
L 84.717221 43.277154 
L 84.541558 87.382015 
z
" clip-path="url(#p9156600c3e)" style="fill: #008000"/>
   </g>
   <g id="patch_44">
    <path d="M 86.388606 107.961114 
L 85.872321 107.961114 
L 85.790802 128.16 
L 85.458689 128.16 
L 85.93298 17.28 
L 86.326849 17.28 
L 86.80114 128.16 
L 86.469301 128.16 
L 86.388606 107.961114 
z
M 85.954663 87.382015 
L 86.30544 87.382015 
L 86.130326 43.277154 
L 85.954663 87.382015 
z
" clip-path="url(#p9156600c3e)" style="fill: #008000"/>
   </g>
   <g id="patch_45">
    <path d="M 87.801711 107.961114 
L 87.285427 107.961114 
L 87.203908 128.16 
L 86.871795 128.16 
L 87.346085 17.28 
L 87.739955 17.28 
L 88.214245 128.16 
L 87.882406 128.16 
L 87.801711 107.961114 
z
M 87.367769 87.382015 
L 87.718546 87.382015 
L 87.543432 43.277154 
L 87.367769 87.382015 
z
" clip-path="url(#p9156600c3e)" style="fill: #008000"/>
   </g>
   <g id="patch_46">
    <path d="M 89.62735 126.886081 
Q 89.491962 127.523041 89.346345 127.842975 
Q 89.200727 128.16 89.045482 128.16 
Q 88.694676 128.16 88.489788 126.263665 
Q 88.2849 124.367329 88.2849 121.124363 
Q 88.2849 117.843586 88.493398 115.961793 
Q 88.702197 114.08 89.065339 114.08 
Q 89.20524 114.08 89.333407 114.335947 
Q 89.461876 114.588986 89.575602 115.089246 
L 89.575602 117.895939 
Q 89.458265 117.253163 89.342132 116.936137 
Q 89.225999 116.616203 89.109265 116.616203 
Q 88.893245 116.616203 88.776209 117.785416 
Q 88.659174 118.951721 88.659174 121.124363 
Q 88.659174 123.276645 88.771997 124.451675 
Q 88.884821 125.623797 89.092416 125.623797 
Q 89.148978 125.623797 89.197417 125.556901 
Q 89.245856 125.487098 89.284367 125.341673 
L 89.284367 122.706581 
L 89.063233 122.706581 
L 89.063233 120.35943 
L 89.62735 120.35943 
L 89.62735 126.886081 
z
" clip-path="url(#p9156600c3e)" style="fill: #ffa600"/>
   </g>
   <g id="patch_47">
    <path d="M 89.214817 96.446052 
L 88.698532 96.446052 
L 88.617013 114.08 
L 88.2849 114.08 
L 88.759191 17.28 
L 89.15306 17.28 
L 89.62735 114.08 
L 89.295512 114.08 
L 89.214817 96.446052 
z
M 88.780874 78.480171 
L 89.131651 78.480171 
L 88.956537 39.975928 
L 88.780874 78.480171 
z
" clip-path="url(#p9156600c3e)" style="fill: #008000"/>
   </g>
   <g id="patch_48">
    <path d="M 89.698006 17.28 
L 91.040456 17.28 
L 91.040456 38.904689 
L 90.557486 38.904689 
L 90.557486 128.16 
L 90.181912 128.16 
L 90.181912 38.904689 
L 89.698006 38.904689 
L 89.698006 17.28 
z
" clip-path="url(#p9156600c3e)" style="fill: #ff0000"/>
   </g>
   <g id="patch_49">
    <path d="M 92.453561 118.127891 
Q 92.318173 123.143945 92.172555 125.663425 
Q 92.026938 128.16 91.871692 128.16 
Q 91.520886 128.16 91.315999 113.226358 
Q 91.111111 98.292716 91.111111 72.754357 
Q 91.111111 46.91824 91.319609 32.09912 
Q 91.528408 17.28 91.891549 17.28 
Q 92.031451 17.28 92.159618 19.295584 
Q 92.288087 21.288263 92.401813 25.227812 
L 92.401813 47.330518 
Q 92.284476 42.268655 92.168343 39.77208 
Q 92.05221 37.252601 91.935475 37.252601 
Q 91.719456 37.252601 91.60242 46.460153 
Q 91.485385 55.644801 91.485385 72.754357 
Q 91.485385 89.703582 91.598208 98.956943 
Q 91.711032 108.187399 91.918627 108.187399 
Q 91.975189 108.187399 92.023628 107.660599 
Q 92.072067 107.110894 92.110578 105.965677 
L 92.110578 85.214328 
L 91.889443 85.214328 
L 91.889443 66.73051 
L 92.453561 66.73051 
L 92.453561 118.127891 
z
" clip-path="url(#p9156600c3e)" style="fill: #ffa600"/>
   </g>
   <g id="patch_50">
    <path d="M 93.454133 107.961114 
L 92.937848 107.961114 
L 92.85633 128.16 
L 92.524217 128.16 
L 92.998507 17.28 
L 93.392376 17.28 
L 93.866667 128.16 
L 93.534828 128.16 
L 93.454133 107.961114 
z
M 93.02019 87.382015 
L 93.370967 87.382015 
L 93.195853 43.277154 
L 93.02019 87.382015 
z
" clip-path="url(#p9156600c3e)" style="fill: #008000"/>
   </g>
   <g id="patch_51">
    <path d="M 93.937322 17.28 
L 95.279772 17.28 
L 95.279772 38.904689 
L 94.796802 38.904689 
L 94.796802 128.16 
L 94.421228 128.16 
L 94.421228 38.904689 
L 93.937322 38.904689 
L 93.937322 17.28 
z
" clip-path="url(#p9156600c3e)" style="fill: #ff0000"/>
   </g>
   <g id="patch_52">
    <path d="M 96.280344 107.961114 
L 95.764059 107.961114 
L 95.68254 128.16 
L 95.350427 128.16 
L 95.824718 17.28 
L 96.218587 17.28 
L 96.692877 128.16 
L 96.361039 128.16 
L 96.280344 107.961114 
z
M 95.846401 87.382015 
L 96.197178 87.382015 
L 96.022064 43.277154 
L 95.846401 87.382015 
z
" clip-path="url(#p9156600c3e)" style="fill: #008000"/>
   </g>
   <g id="patch_53">
    <path d="M 96.763533 17.28 
L 98.105983 17.28 
L 98.105983 38.904689 
L 97.623013 38.904689 
L 97.623013 128.16 
L 97.247439 128.16 
L 97.247439 38.904689 
L 96.763533 38.904689 
L 96.763533 17.28 
z
" clip-path="url(#p9156600c3e)" style="fill: #ff0000"/>
   </g>
   <g id="patch_54">
    <path d="M 99.106555 107.961114 
L 98.59027 107.961114 
L 98.508751 128.16 
L 98.176638 128.16 
L 98.650928 17.28 
L 99.044798 17.28 
L 99.519088 128.16 
L 99.18725 128.16 
L 99.106555 107.961114 
z
M 98.672612 87.382015 
L 99.023389 87.382015 
L 98.848275 43.277154 
L 98.672612 87.382015 
z
" clip-path="url(#p9156600c3e)" style="fill: #008000"/>
   </g>
   <g id="patch_55">
    <path d="M 100.51966 107.961114 
L 100.003375 107.961114 
L 99.921857 128.16 
L 99.589744 128.16 
L 100.064034 17.28 
L 100.457903 17.28 
L 100.932194 128.16 
L 100.600355 128.16 
L 100.51966 107.961114 
z
M 100.085717 87.382015 
L 100.436494 87.382015 
L 100.26138 43.277154 
L 100.085717 87.382015 
z
" clip-path="url(#p9156600c3e)" style="fill: #008000"/>
   </g>
   <g id="patch_56">
    <path d="M 101.932765 107.961114 
L 101.416481 107.961114 
L 101.334962 128.16 
L 101.002849 128.16 
L 101.477139 17.28 
L 101.871009 17.28 
L 102.345299 128.16 
L 102.013461 128.16 
L 101.932765 107.961114 
z
M 101.498823 87.382015 
L 101.8496 87.382015 
L 101.674486 43.277154 
L 101.498823 87.382015 
z
" clip-path="url(#p9156600c3e)" style="fill: #008000"/>
   </g>
   <g id="patch_57">
    <path d="M 102.415954 17.28 
L 103.758405 17.28 
L 103.758405 38.904689 
L 103.275435 38.904689 
L 103.275435 128.16 
L 102.899861 128.16 
L 102.899861 38.904689 
L 102.415954 38.904689 
L 102.415954 17.28 
z
" clip-path="url(#p9156600c3e)" style="fill: #ff0000"/>
   </g>
   <g id="patch_58">
    <path d="M 104.758976 107.961114 
L 104.242691 107.961114 
L 104.161173 128.16 
L 103.82906 128.16 
L 104.30335 17.28 
L 104.69722 17.28 
L 105.17151 128.16 
L 104.839671 128.16 
L 104.758976 107.961114 
z
M 104.325034 87.382015 
L 104.675811 87.382015 
L 104.500697 43.277154 
L 104.325034 87.382015 
z
" clip-path="url(#p9156600c3e)" style="fill: #008000"/>
   </g>
   <g id="patch_59">
    <path d="M 105.242165 17.28 
L 106.584615 17.28 
L 106.584615 38.904689 
L 106.101646 38.904689 
L 106.101646 128.16 
L 105.726072 128.16 
L 105.726072 38.904689 
L 105.242165 38.904689 
L 105.242165 17.28 
z
" clip-path="url(#p9156600c3e)" style="fill: #ff0000"/>
   </g>
   <g id="patch_60">
    <path d="M 107.997721 120.212188 
Q 107.885427 124.151737 107.764001 126.144416 
Q 107.642575 128.16 107.510326 128.16 
Q 107.115945 128.16 106.885608 113.226358 
Q 106.655271 98.292716 106.655271 72.754357 
Q 106.655271 47.124379 106.885608 32.213642 
Q 107.115945 17.28 107.510326 17.28 
Q 107.642575 17.28 107.764001 19.295584 
Q 107.885427 21.288263 107.997721 25.227812 
L 107.997721 47.330518 
Q 107.884412 42.108325 107.774486 39.680463 
Q 107.66456 37.252601 107.543135 37.252601 
Q 107.325312 37.252601 107.200504 46.712101 
Q 107.076034 56.148697 107.076034 72.754357 
Q 107.076034 89.291303 107.200504 98.750804 
Q 107.325312 108.187399 107.543135 108.187399 
Q 107.66456 108.187399 107.774486 105.759537 
Q 107.884412 103.308771 107.997721 98.086577 
L 107.997721 120.212188 
z
" clip-path="url(#p9156600c3e)" style="fill: #0000ff"/>
   </g>
   <g id="patch_61">
    <path d="M 108.998292 107.961114 
L 108.482008 107.961114 
L 108.400489 128.16 
L 108.068376 128.16 
L 108.542666 17.28 
L 108.936536 17.28 
L 109.410826 128.16 
L 109.078988 128.16 
L 108.998292 107.961114 
z
M 108.56435 87.382015 
L 108.915127 87.382015 
L 108.740013 43.277154 
L 108.56435 87.382015 
z
" clip-path="url(#p9156600c3e)" style="fill: #008000"/>
   </g>
   <g id="patch_62">
    <path d="M 110.411398 107.961114 
L 109.895113 107.961114 
L 109.813594 128.16 
L 109.481481 128.16 
L 109.955772 17.28 
L 110.349641 17.28 
L 110.823932 128.16 
L 110.492093 128.16 
L 110.411398 107.961114 
z
M 109.977455 87.382015 
L 110.328232 87.382015 
L 110.153118 43.277154 
L 109.977455 87.382015 
z
" clip-path="url(#p9156600c3e)" style="fill: #008000"/>
   </g>
   <g id="patch_63">
    <path d="M 110.894587 17.28 
L 112.237037 17.28 
L 112.237037 38.904689 
L 111.754067 38.904689 
L 111.754067 128.16 
L 111.378493 128.16 
L 111.378493 38.904689 
L 110.894587 38.904689 
L 110.894587 17.28 
z
" clip-path="url(#p9156600c3e)" style="fill: #ff0000"/>
   </g>
   <g id="patch_64">
    <path d="M 113.237609 107.961114 
L 112.721324 107.961114 
L 112.639805 128.16 
L 112.307692 128.16 
L 112.781983 17.28 
L 113.175852 17.28 
L 113.650142 128.16 
L 113.318304 128.16 
L 113.237609 107.961114 
z
M 112.803666 87.382015 
L 113.154443 87.382015 
L 112.979329 43.277154 
L 112.803666 87.382015 
z
" clip-path="url(#p9156600c3e)" style="fill: #008000"/>
   </g>
   <g id="patch_65">
    <path d="M 113.720798 17.28 
L 115.063248 17.28 
L 115.063248 38.904689 
L 114.580278 38.904689 
L 114.580278 128.16 
L 114.204704 128.16 
L 114.204704 38.904689 
L 113.720798 38.904689 
L 113.720798 17.28 
z
" clip-path="url(#p9156600c3e)" style="fill: #ff0000"/>
   </g>
   <g id="patch_66">
    <path d="M 116.06382 107.961114 
L 115.547535 107.961114 
L 115.466016 128.16 
L 115.133903 128.16 
L 115.608193 17.28 
L 116.002063 17.28 
L 116.476353 128.16 
L 116.144515 128.16 
L 116.06382 107.961114 
z
M 115.629877 87.382015 
L 115.980654 87.382015 
L 115.80554 43.277154 
L 115.629877 87.382015 
z
" clip-path="url(#p9156600c3e)" style="fill: #008000"/>
   </g>
   <g id="patch_67">
    <path d="M 116.547009 17.28 
L 117.889459 17.28 
L 117.889459 38.904689 
L 117.406489 38.904689 
L 117.406489 128.16 
L 117.030915 128.16 
L 117.030915 38.904689 
L 116.547009 38.904689 
L 116.547009 17.28 
z
" clip-path="url(#p9156600c3e)" style="fill: #ff0000"/>
   </g>
   <g id="patch_68">
    <path d="M 117.960114 17.28 
L 119.302564 17.28 
L 119.302564 38.904689 
L 118.819594 38.904689 
L 118.819594 128.16 
L 118.44402 128.16 
L 118.44402 38.904689 
L 117.960114 38.904689 
L 117.960114 17.28 
z
" clip-path="url(#p9156600c3e)" style="fill: #ff0000"/>
   </g>
   <g id="patch_69">
    <path d="M 120.303136 107.961114 
L 119.786851 107.961114 
L 119.705332 128.16 
L 119.373219 128.16 
L 119.84751 17.28 
L 120.241379 17.28 
L 120.71567 128.16 
L 120.383831 128.16 
L 120.303136 107.961114 
z
M 119.869193 87.382015 
L 120.21997 87.382015 
L 120.044856 43.277154 
L 119.869193 87.382015 
z
" clip-path="url(#p9156600c3e)" style="fill: #008000"/>
   </g>
   <g id="patch_70">
    <path d="M 121.716241 107.961114 
L 121.199956 107.961114 
L 121.118438 128.16 
L 120.786325 128.16 
L 121.260615 17.28 
L 121.654485 17.28 
L 122.128775 128.16 
L 121.796936 128.16 
L 121.716241 107.961114 
z
M 121.282298 87.382015 
L 121.633076 87.382015 
L 121.457962 43.277154 
L 121.282298 87.382015 
z
" clip-path="url(#p9156600c3e)" style="fill: #008000"/>
   </g>
   <g id="patch_71">
    <path d="M 123.129347 107.961114 
L 122.613062 107.961114 
L 122.531543 128.16 
L 122.19943 128.16 
L 122.67372 17.28 
L 123.06759 17.28 
L 123.54188 128.16 
L 123.210042 128.16 
L 123.129347 107.961114 
z
M 122.695404 87.382015 
L 123.046181 87.382015 
L 122.871067 43.277154 
L 122.695404 87.382015 
z
" clip-path="url(#p9156600c3e)" style="fill: #008000"/>
   </g>
   <g id="patch_72">
    <path d="M 123.612536 17.28 
L 124.954986 17.28 
L 124.954986 38.904689 
L 124.472016 38.904689 
L 124.472016 128.16 
L 124.096442 128.16 
L 124.096442 38.904689 
L 123.612536 38.904689 
L 123.612536 17.28 
z
" clip-path="url(#p9156600c3e)" style="fill: #ff0000"/>
   </g>
   <g id="patch_73">
    <path d="M 125.025641 17.28 
L 126.368091 17.28 
L 126.368091 38.904689 
L 125.885121 38.904689 
L 125.885121 128.16 
L 125.509547 128.16 
L 125.509547 38.904689 
L 125.025641 38.904689 
L 125.025641 17.28 
z
" clip-path="url(#p9156600c3e)" style="fill: #ff0000"/>
   </g>
   <g id="patch_74">
    <path d="M 127.368663 107.961114 
L 126.852378 107.961114 
L 126.770859 128.16 
L 126.438746 128.16 
L 126.913037 17.28 
L 127.306906 17.28 
L 127.781197 128.16 
L 127.449358 128.16 
L 127.368663 107.961114 
z
M 126.93472 87.382015 
L 127.285497 87.382015 
L 127.110383 43.277154 
L 126.93472 87.382015 
z
" clip-path="url(#p9156600c3e)" style="fill: #008000"/>
   </g>
   <g id="patch_75">
    <path d="M 129.194302 118.127891 
Q 129.058914 123.143945 128.913296 125.663425 
Q 128.767678 128.16 128.612433 128.16 
Q 128.261627 128.16 128.056739 113.226358 
Q 127.851852 98.292716 127.851852 72.754357 
Q 127.851852 46.91824 128.06035 32.09912 
Q 128.269149 17.28 128.63229 17.28 
Q 128.772191 17.28 128.900359 19.295584 
Q 129.028827 21.288263 129.142554 25.227812 
L 129.142554 47.330518 
Q 129.025217 42.268655 128.909084 39.77208 
Q 128.792951 37.252601 128.676216 37.252601 
Q 128.460197 37.252601 128.343161 46.460153 
Q 128.226125 55.644801 128.226125 72.754357 
Q 128.226125 89.703582 128.338949 98.956943 
Q 128.451772 108.187399 128.659368 108.187399 
Q 128.71593 108.187399 128.764369 107.660599 
Q 128.812808 107.110894 128.851318 105.965677 
L 128.851318 85.214328 
L 128.630184 85.214328 
L 128.630184 66.73051 
L 129.194302 66.73051 
L 129.194302 118.127891 
z
" clip-path="url(#p9156600c3e)" style="fill: #ffa600"/>
   </g>
   <g id="patch_76">
    <path d="M 130.194874 107.961114 
L 129.678589 107.961114 
L 129.59707 128.16 
L 129.264957 128.16 
L 129.739248 17.28 
L 130.133117 17.28 
L 130.607407 128.16 
L 130.275569 128.16 
L 130.194874 107.961114 
z
M 129.760931 87.382015 
L 130.111708 87.382015 
L 129.936594 43.277154 
L 129.760931 87.382015 
z
" clip-path="url(#p9156600c3e)" style="fill: #008000"/>
   </g>
   <g id="patch_77">
    <path d="M 130.678063 17.28 
L 132.020513 17.28 
L 132.020513 38.904689 
L 131.537543 38.904689 
L 131.537543 128.16 
L 131.161969 128.16 
L 131.161969 38.904689 
L 130.678063 38.904689 
L 130.678063 17.28 
z
" clip-path="url(#p9156600c3e)" style="fill: #ff0000"/>
   </g>
   <g id="patch_78">
    <path d="M 132.091168 17.28 
L 133.433618 17.28 
L 133.433618 38.904689 
L 132.950648 38.904689 
L 132.950648 128.16 
L 132.575075 128.16 
L 132.575075 38.904689 
L 132.091168 38.904689 
L 132.091168 17.28 
z
" clip-path="url(#p9156600c3e)" style="fill: #ff0000"/>
   </g>
   <g id="patch_79">
    <path d="M 133.504274 17.28 
L 134.846724 17.28 
L 134.846724 38.904689 
L 134.363754 38.904689 
L 134.363754 128.16 
L 133.98818 128.16 
L 133.98818 38.904689 
L 133.504274 38.904689 
L 133.504274 17.28 
z
" clip-path="url(#p9156600c3e)" style="fill: #ff0000"/>
   </g>
   <g id="patch_80">
    <path d="M 134.917379 17.28 
L 136.259829 17.28 
L 136.259829 38.904689 
L 135.776859 38.904689 
L 135.776859 128.16 
L 135.401285 128.16 
L 135.401285 38.904689 
L 134.917379 38.904689 
L 134.917379 17.28 
z
" clip-path="url(#p9156600c3e)" style="fill: #ff0000"/>
   </g>
   <g id="patch_81">
    <path d="M 137.672934 118.127891 
Q 137.537546 123.143945 137.391929 125.663425 
Q 137.246311 128.16 137.091066 128.16 
Q 136.74026 128.16 136.535372 113.226358 
Q 136.330484 98.292716 136.330484 72.754357 
Q 136.330484 46.91824 136.538982 32.09912 
Q 136.747781 17.28 137.110923 17.28 
Q 137.250824 17.28 137.378991 19.295584 
Q 137.50746 21.288263 137.621186 25.227812 
L 137.621186 47.330518 
Q 137.50385 42.268655 137.387716 39.77208 
Q 137.271583 37.252601 137.154849 37.252601 
Q 136.938829 37.252601 136.821793 46.460153 
Q 136.704758 55.644801 136.704758 72.754357 
Q 136.704758 89.703582 136.817581 98.956943 
Q 136.930405 108.187399 137.138 108.187399 
Q 137.194563 108.187399 137.243001 107.660599 
Q 137.29144 107.110894 137.329951 105.965677 
L 137.329951 85.214328 
L 137.108817 85.214328 
L 137.108817 66.73051 
L 137.672934 66.73051 
L 137.672934 118.127891 
z
" clip-path="url(#p9156600c3e)" style="fill: #ffa600"/>
   </g>
   <g id="patch_82">
    <path d="M 139.08604 120.212188 
Q 138.973746 124.151737 138.85232 126.144416 
Q 138.730894 128.16 138.598645 128.16 
Q 138.204264 128.16 137.973927 113.226358 
Q 137.74359 98.292716 137.74359 72.754357 
Q 137.74359 47.124379 137.973927 32.213642 
Q 138.204264 17.28 138.598645 17.28 
Q 138.730894 17.28 138.85232 19.295584 
Q 138.973746 21.288263 139.08604 25.227812 
L 139.08604 47.330518 
Q 138.972732 42.108325 138.862806 39.680463 
Q 138.75288 37.252601 138.631454 37.252601 
Q 138.413631 37.252601 138.288823 46.712101 
Q 138.164353 56.148697 138.164353 72.754357 
Q 138.164353 89.291303 138.288823 98.750804 
Q 138.413631 108.187399 138.631454 108.187399 
Q 138.75288 108.187399 138.862806 105.759537 
Q 138.972732 103.308771 139.08604 98.086577 
L 139.08604 120.212188 
z
" clip-path="url(#p9156600c3e)" style="fill: #0000ff"/>
   </g>
   <g id="patch_83">
    <path d="M 140.086612 107.961114 
L 139.570327 107.961114 
L 139.488808 128.16 
L 139.156695 128.16 
L 139.630985 17.28 
L 140.024855 17.28 
L 140.499145 128.16 
L 140.167307 128.16 
L 140.086612 107.961114 
z
M 139.652669 87.382015 
L 140.003446 87.382015 
L 139.828332 43.277154 
L 139.652669 87.382015 
z
" clip-path="url(#p9156600c3e)" style="fill: #008000"/>
   </g>
   <g id="patch_84">
    <path d="M 140.569801 17.28 
L 141.912251 17.28 
L 141.912251 38.904689 
L 141.429281 38.904689 
L 141.429281 128.16 
L 141.053707 128.16 
L 141.053707 38.904689 
L 140.569801 38.904689 
L 140.569801 17.28 
z
" clip-path="url(#p9156600c3e)" style="fill: #ff0000"/>
   </g>
   <g id="patch_85">
    <path d="M 142.912822 107.961114 
L 142.396538 107.961114 
L 142.315019 128.16 
L 141.982906 128.16 
L 142.457196 17.28 
L 142.851066 17.28 
L 143.325356 128.16 
L 142.993518 128.16 
L 142.912822 107.961114 
z
M 142.47888 87.382015 
L 142.829657 87.382015 
L 142.654543 43.277154 
L 142.47888 87.382015 
z
" clip-path="url(#p9156600c3e)" style="fill: #008000"/>
   </g>
   <g id="patch_86">
    <path d="M 144.325928 107.961114 
L 143.809643 107.961114 
L 143.728124 128.16 
L 143.396011 128.16 
L 143.870302 17.28 
L 144.264171 17.28 
L 144.738462 128.16 
L 144.406623 128.16 
L 144.325928 107.961114 
z
M 143.891985 87.382015 
L 144.242762 87.382015 
L 144.067648 43.277154 
L 143.891985 87.382015 
z
" clip-path="url(#p9156600c3e)" style="fill: #008000"/>
   </g>
   <g id="patch_87">
    <path d="M 145.739033 107.961114 
L 145.222748 107.961114 
L 145.14123 128.16 
L 144.809117 128.16 
L 145.283407 17.28 
L 145.677277 17.28 
L 146.151567 128.16 
L 145.819728 128.16 
L 145.739033 107.961114 
z
M 145.305091 87.382015 
L 145.655868 87.382015 
L 145.480754 43.277154 
L 145.305091 87.382015 
z
" clip-path="url(#p9156600c3e)" style="fill: #008000"/>
   </g>
   <g id="patch_88">
    <path d="M 147.152139 107.961114 
L 146.635854 107.961114 
L 146.554335 128.16 
L 146.222222 128.16 
L 146.696513 17.28 
L 147.090382 17.28 
L 147.564672 128.16 
L 147.232834 128.16 
L 147.152139 107.961114 
z
M 146.718196 87.382015 
L 147.068973 87.382015 
L 146.893859 43.277154 
L 146.718196 87.382015 
z
" clip-path="url(#p9156600c3e)" style="fill: #008000"/>
   </g>
   <g id="patch_89">
    <path d="M 148.565244 107.961114 
L 148.048959 107.961114 
L 147.967441 128.16 
L 147.635328 128.16 
L 148.109618 17.28 
L 148.503487 17.28 
L 148.977778 128.16 
L 148.645939 128.16 
L 148.565244 107.961114 
z
M 148.131301 87.382015 
L 148.482079 87.382015 
L 148.306964 43.277154 
L 148.131301 87.382015 
z
" clip-path="url(#p9156600c3e)" style="fill: #008000"/>
   </g>
   <g id="patch_90">
    <path d="M 149.978349 107.961114 
L 149.462065 107.961114 
L 149.380546 128.16 
L 149.048433 128.16 
L 149.522723 17.28 
L 149.916593 17.28 
L 150.390883 128.16 
L 150.059045 128.16 
L 149.978349 107.961114 
z
M 149.544407 87.382015 
L 149.895184 87.382015 
L 149.72007 43.277154 
L 149.544407 87.382015 
z
" clip-path="url(#p9156600c3e)" style="fill: #008000"/>
   </g>
   <g id="patch_91">
    <path d="M 151.803989 120.212188 
Q 151.691695 124.151737 151.570269 126.144416 
Q 151.448843 128.16 151.316594 128.16 
Q 150.922213 128.16 150.691876 113.226358 
Q 150.461538 98.292716 150.461538 72.754357 
Q 150.461538 47.124379 150.691876 32.213642 
Q 150.922213 17.28 151.316594 17.28 
Q 151.448843 17.28 151.570269 19.295584 
Q 151.691695 21.288263 151.803989 25.227812 
L 151.803989 47.330518 
Q 151.69068 42.108325 151.580754 39.680463 
Q 151.470828 37.252601 151.349402 37.252601 
Q 151.13158 37.252601 151.006771 46.712101 
Q 150.882301 56.148697 150.882301 72.754357 
Q 150.882301 89.291303 151.006771 98.750804 
Q 151.13158 108.187399 151.349402 108.187399 
Q 151.470828 108.187399 151.580754 105.759537 
Q 151.69068 103.308771 151.803989 98.086577 
L 151.803989 120.212188 
z
" clip-path="url(#p9156600c3e)" style="fill: #0000ff"/>
   </g>
   <g id="patch_92">
    <path d="M 152.80456 107.961114 
L 152.288276 107.961114 
L 152.206757 128.16 
L 151.874644 128.16 
L 152.348934 17.28 
L 152.742804 17.28 
L 153.217094 128.16 
L 152.885255 128.16 
L 152.80456 107.961114 
z
M 152.370618 87.382015 
L 152.721395 87.382015 
L 152.546281 43.277154 
L 152.370618 87.382015 
z
" clip-path="url(#p9156600c3e)" style="fill: #008000"/>
   </g>
   <g id="patch_93">
    <path d="M 154.630199 118.127891 
Q 154.494811 123.143945 154.349194 125.663425 
Q 154.203576 128.16 154.048331 128.16 
Q 153.697525 128.16 153.492637 113.226358 
Q 153.287749 98.292716 153.287749 72.754357 
Q 153.287749 46.91824 153.496247 32.09912 
Q 153.705046 17.28 154.068188 17.28 
Q 154.208089 17.28 154.336256 19.295584 
Q 154.464725 21.288263 154.578451 25.227812 
L 154.578451 47.330518 
Q 154.461114 42.268655 154.344981 39.77208 
Q 154.228848 37.252601 154.112114 37.252601 
Q 153.896094 37.252601 153.779058 46.460153 
Q 153.662023 55.644801 153.662023 72.754357 
Q 153.662023 89.703582 153.774846 98.956943 
Q 153.88767 108.187399 154.095265 108.187399 
Q 154.151827 108.187399 154.200266 107.660599 
Q 154.248705 107.110894 154.287216 105.965677 
L 154.287216 85.214328 
L 154.066082 85.214328 
L 154.066082 66.73051 
L 154.630199 66.73051 
L 154.630199 118.127891 
z
" clip-path="url(#p9156600c3e)" style="fill: #ffa600"/>
   </g>
   <g id="patch_94">
    <path d="M 155.630771 107.961114 
L 155.114486 107.961114 
L 155.032968 128.16 
L 154.700855 128.16 
L 155.175145 17.28 
L 155.569015 17.28 
L 156.043305 128.16 
L 155.711466 128.16 
L 155.630771 107.961114 
z
M 155.196828 87.382015 
L 155.547606 87.382015 
L 155.372491 43.277154 
L 155.196828 87.382015 
z
" clip-path="url(#p9156600c3e)" style="fill: #008000"/>
   </g>
   <g id="patch_95">
    <path d="M 157.45641 120.212188 
Q 157.344117 124.151737 157.222691 126.144416 
Q 157.101265 128.16 156.969015 128.16 
Q 156.574635 128.16 156.344297 113.226358 
Q 156.11396 98.292716 156.11396 72.754357 
Q 156.11396 47.124379 156.344297 32.213642 
Q 156.574635 17.28 156.969015 17.28 
Q 157.101265 17.28 157.222691 19.295584 
Q 157.344117 21.288263 157.45641 25.227812 
L 157.45641 47.330518 
Q 157.343102 42.108325 157.233176 39.680463 
Q 157.12325 37.252601 157.001824 37.252601 
Q 156.784001 37.252601 156.659193 46.712101 
Q 156.534723 56.148697 156.534723 72.754357 
Q 156.534723 89.291303 156.659193 98.750804 
Q 156.784001 108.187399 157.001824 108.187399 
Q 157.12325 108.187399 157.233176 105.759537 
Q 157.343102 103.308771 157.45641 98.086577 
L 157.45641 120.212188 
z
" clip-path="url(#p9156600c3e)" style="fill: #0000ff"/>
   </g>
   <g id="patch_96">
    <path d="M 157.527066 17.28 
L 158.869516 17.28 
L 158.869516 38.904689 
L 158.386546 38.904689 
L 158.386546 128.16 
L 158.010972 128.16 
L 158.010972 38.904689 
L 157.527066 38.904689 
L 157.527066 17.28 
z
" clip-path="url(#p9156600c3e)" style="fill: #ff0000"/>
   </g>
   <g id="patch_97">
    <path d="M 159.870087 107.961114 
L 159.353803 107.961114 
L 159.272284 128.16 
L 158.940171 128.16 
L 159.414461 17.28 
L 159.808331 17.28 
L 160.282621 128.16 
L 159.950783 128.16 
L 159.870087 107.961114 
z
M 159.436145 87.382015 
L 159.786922 87.382015 
L 159.611808 43.277154 
L 159.436145 87.382015 
z
" clip-path="url(#p9156600c3e)" style="fill: #008000"/>
   </g>
   <g id="patch_98">
    <path d="M 161.695726 120.212188 
Q 161.583433 124.151737 161.462007 126.144416 
Q 161.340581 128.16 161.208332 128.16 
Q 160.813951 128.16 160.583614 113.226358 
Q 160.353276 98.292716 160.353276 72.754357 
Q 160.353276 47.124379 160.583614 32.213642 
Q 160.813951 17.28 161.208332 17.28 
Q 161.340581 17.28 161.462007 19.295584 
Q 161.583433 21.288263 161.695726 25.227812 
L 161.695726 47.330518 
Q 161.582418 42.108325 161.472492 39.680463 
Q 161.362566 37.252601 161.24114 37.252601 
Q 161.023318 37.252601 160.898509 46.712101 
Q 160.774039 56.148697 160.774039 72.754357 
Q 160.774039 89.291303 160.898509 98.750804 
Q 161.023318 108.187399 161.24114 108.187399 
Q 161.362566 108.187399 161.472492 105.759537 
Q 161.582418 103.308771 161.695726 98.086577 
L 161.695726 120.212188 
z
" clip-path="url(#p9156600c3e)" style="fill: #0000ff"/>
   </g>
   <g id="patch_99">
    <path d="M 162.696298 107.961114 
L 162.180013 107.961114 
L 162.098495 128.16 
L 161.766382 128.16 
L 162.240672 17.28 
L 162.634542 17.28 
L 163.108832 128.16 
L 162.776993 128.16 
L 162.696298 107.961114 
z
M 162.262355 87.382015 
L 162.613133 87.382015 
L 162.438019 43.277154 
L 162.262355 87.382015 
z
" clip-path="url(#p9156600c3e)" style="fill: #008000"/>
   </g>
   <g id="patch_100">
    <path d="M 163.179487 17.28 
L 164.521937 17.28 
L 164.521937 38.904689 
L 164.038967 38.904689 
L 164.038967 128.16 
L 163.663394 128.16 
L 163.663394 38.904689 
L 163.179487 38.904689 
L 163.179487 17.28 
z
" clip-path="url(#p9156600c3e)" style="fill: #ff0000"/>
   </g>
   <g id="patch_101">
    <path d="M 165.522509 107.961114 
L 165.006224 107.961114 
L 164.924706 128.16 
L 164.592593 128.16 
L 165.066883 17.28 
L 165.460752 17.28 
L 165.935043 128.16 
L 165.603204 128.16 
L 165.522509 107.961114 
z
M 165.088566 87.382015 
L 165.439344 87.382015 
L 165.264229 43.277154 
L 165.088566 87.382015 
z
" clip-path="url(#p9156600c3e)" style="fill: #008000"/>
   </g>
   <g id="patch_102">
    <path d="M 166.935614 107.961114 
L 166.41933 107.961114 
L 166.337811 128.16 
L 166.005698 128.16 
L 166.479988 17.28 
L 166.873858 17.28 
L 167.348148 128.16 
L 167.01631 128.16 
L 166.935614 107.961114 
z
M 166.501672 87.382015 
L 166.852449 87.382015 
L 166.677335 43.277154 
L 166.501672 87.382015 
z
" clip-path="url(#p9156600c3e)" style="fill: #008000"/>
   </g>
   <g id="patch_103">
    <path d="M 167.418803 17.28 
L 168.761254 17.28 
L 168.761254 38.904689 
L 168.278284 38.904689 
L 168.278284 128.16 
L 167.90271 128.16 
L 167.90271 38.904689 
L 167.418803 38.904689 
L 167.418803 17.28 
z
" clip-path="url(#p9156600c3e)" style="fill: #ff0000"/>
   </g>
   <g id="patch_104">
    <path d="M 169.761825 107.961114 
L 169.24554 107.961114 
L 169.164022 128.16 
L 168.831909 128.16 
L 169.306199 17.28 
L 169.700069 17.28 
L 170.174359 128.16 
L 169.84252 128.16 
L 169.761825 107.961114 
z
M 169.327883 87.382015 
L 169.67866 87.382015 
L 169.503546 43.277154 
L 169.327883 87.382015 
z
" clip-path="url(#p9156600c3e)" style="fill: #008000"/>
   </g>
   <g id="patch_105">
    <path d="M 171.587464 120.212188 
Q 171.475171 124.151737 171.353745 126.144416 
Q 171.232319 128.16 171.100069 128.16 
Q 170.705689 128.16 170.475351 113.226358 
Q 170.245014 98.292716 170.245014 72.754357 
Q 170.245014 47.124379 170.475351 32.213642 
Q 170.705689 17.28 171.100069 17.28 
Q 171.232319 17.28 171.353745 19.295584 
Q 171.475171 21.288263 171.587464 25.227812 
L 171.587464 47.330518 
Q 171.474156 42.108325 171.36423 39.680463 
Q 171.254304 37.252601 171.132878 37.252601 
Q 170.915055 37.252601 170.790247 46.712101 
Q 170.665777 56.148697 170.665777 72.754357 
Q 170.665777 89.291303 170.790247 98.750804 
Q 170.915055 108.187399 171.132878 108.187399 
Q 171.254304 108.187399 171.36423 105.759537 
Q 171.474156 103.308771 171.587464 98.086577 
L 171.587464 120.212188 
z
" clip-path="url(#p9156600c3e)" style="fill: #0000ff"/>
   </g>
   <g id="patch_106">
    <path d="M 171.65812 17.28 
L 173.00057 17.28 
L 173.00057 38.904689 
L 172.5176 38.904689 
L 172.5176 128.16 
L 172.142026 128.16 
L 172.142026 38.904689 
L 171.65812 38.904689 
L 171.65812 17.28 
z
" clip-path="url(#p9156600c3e)" style="fill: #ff0000"/>
   </g>
   <g id="patch_107">
    <path d="M 174.413675 118.127891 
Q 174.278287 123.143945 174.132669 125.663425 
Q 173.987052 128.16 173.831806 128.16 
Q 173.481 128.16 173.276113 113.226358 
Q 173.071225 98.292716 173.071225 72.754357 
Q 173.071225 46.91824 173.279723 32.09912 
Q 173.488522 17.28 173.851663 17.28 
Q 173.991565 17.28 174.119732 19.295584 
Q 174.248201 21.288263 174.361927 25.227812 
L 174.361927 47.330518 
Q 174.24459 42.268655 174.128457 39.77208 
Q 174.012324 37.252601 173.895589 37.252601 
Q 173.67957 37.252601 173.562534 46.460153 
Q 173.445498 55.644801 173.445498 72.754357 
Q 173.445498 89.703582 173.558322 98.956943 
Q 173.671146 108.187399 173.878741 108.187399 
Q 173.935303 108.187399 173.983742 107.660599 
Q 174.032181 107.110894 174.070692 105.965677 
L 174.070692 85.214328 
L 173.849557 85.214328 
L 173.849557 66.73051 
L 174.413675 66.73051 
L 174.413675 118.127891 
z
" clip-path="url(#p9156600c3e)" style="fill: #ffa600"/>
   </g>
   <g id="patch_108">
    <path d="M 174.48433 17.28 
L 175.826781 17.28 
L 175.826781 38.904689 
L 175.343811 38.904689 
L 175.343811 128.16 
L 174.968237 128.16 
L 174.968237 38.904689 
L 174.48433 38.904689 
L 174.48433 17.28 
z
" clip-path="url(#p9156600c3e)" style="fill: #ff0000"/>
   </g>
   <g id="patch_109">
    <path d="M 176.827352 107.961114 
L 176.311068 107.961114 
L 176.229549 128.16 
L 175.897436 128.16 
L 176.371726 17.28 
L 176.765596 17.28 
L 177.239886 128.16 
L 176.908048 128.16 
L 176.827352 107.961114 
z
M 176.39341 87.382015 
L 176.744187 87.382015 
L 176.569073 43.277154 
L 176.39341 87.382015 
z
" clip-path="url(#p9156600c3e)" style="fill: #008000"/>
   </g>
   <g id="patch_110">
    <path d="M 178.240458 107.961114 
L 177.724173 107.961114 
L 177.642654 128.16 
L 177.310541 128.16 
L 177.784832 17.28 
L 178.178701 17.28 
L 178.652991 128.16 
L 178.321153 128.16 
L 178.240458 107.961114 
z
M 177.806515 87.382015 
L 178.157292 87.382015 
L 177.982178 43.277154 
L 177.806515 87.382015 
z
" clip-path="url(#p9156600c3e)" style="fill: #008000"/>
   </g>
   <g id="patch_111">
    <path d="M 180.066097 128.00076 
Q 179.930709 128.08038 179.785091 128.120372 
Q 179.639473 128.16 179.484228 128.16 
Q 179.133422 128.16 178.928534 127.922958 
Q 178.723647 127.685916 178.723647 127.280545 
Q 178.723647 126.870448 178.932145 126.635224 
Q 179.140944 126.4 179.504085 126.4 
Q 179.643986 126.4 179.772154 126.431993 
Q 179.900622 126.463623 180.014348 126.526156 
L 180.014348 126.876992 
Q 179.897012 126.796645 179.780879 126.757017 
Q 179.664746 126.717025 179.548011 126.717025 
Q 179.331991 126.717025 179.214956 126.863177 
Q 179.09792 127.008965 179.09792 127.280545 
Q 179.09792 127.549581 179.210744 127.696459 
Q 179.323567 127.842975 179.531163 127.842975 
Q 179.587725 127.842975 179.636164 127.834613 
Q 179.684603 127.825887 179.723113 127.807709 
L 179.723113 127.478323 
L 179.501979 127.478323 
L 179.501979 127.184929 
L 180.066097 127.184929 
L 180.066097 128.00076 
z
" clip-path="url(#p9156600c3e)" style="fill: #ffa600"/>
   </g>
   <g id="patch_112">
    <path d="M 179.653563 106.521732 
L 179.137278 106.521732 
L 179.05576 126.4 
L 178.723647 126.4 
L 179.197937 17.28 
L 179.591807 17.28 
L 180.066097 126.4 
L 179.734258 126.4 
L 179.653563 106.521732 
z
M 179.21962 86.269284 
L 179.570398 86.269284 
L 179.395284 42.864501 
L 179.21962 86.269284 
z
" clip-path="url(#p9156600c3e)" style="fill: #008000"/>
   </g>
   <g id="patch_113">
    <path d="M 181.066669 107.961114 
L 180.550384 107.961114 
L 180.468865 128.16 
L 180.136752 128.16 
L 180.611042 17.28 
L 181.004912 17.28 
L 181.479202 128.16 
L 181.147364 128.16 
L 181.066669 107.961114 
z
M 180.632726 87.382015 
L 180.983503 87.382015 
L 180.808389 43.277154 
L 180.632726 87.382015 
z
" clip-path="url(#p9156600c3e)" style="fill: #008000"/>
   </g>
   <g id="patch_114">
    <path d="M 182.892308 120.212188 
Q 182.780014 124.151737 182.658588 126.144416 
Q 182.537162 128.16 182.404913 128.16 
Q 182.010532 128.16 181.780195 113.226358 
Q 181.549858 98.292716 181.549858 72.754357 
Q 181.549858 47.124379 181.780195 32.213642 
Q 182.010532 17.28 182.404913 17.28 
Q 182.537162 17.28 182.658588 19.295584 
Q 182.780014 21.288263 182.892308 25.227812 
L 182.892308 47.330518 
Q 182.778999 42.108325 182.669073 39.680463 
Q 182.559147 37.252601 182.437721 37.252601 
Q 182.219899 37.252601 182.095091 46.712101 
Q 181.97062 56.148697 181.97062 72.754357 
Q 181.97062 89.291303 182.095091 98.750804 
Q 182.219899 108.187399 182.437721 108.187399 
Q 182.559147 108.187399 182.669073 105.759537 
Q 182.778999 103.308771 182.892308 98.086577 
L 182.892308 120.212188 
z
" clip-path="url(#p9156600c3e)" style="fill: #0000ff"/>
   </g>
   <g id="patch_115">
    <path d="M 183.892879 107.961114 
L 183.376595 107.961114 
L 183.295076 128.16 
L 182.962963 128.16 
L 183.437253 17.28 
L 183.831123 17.28 
L 184.305413 128.16 
L 183.973575 128.16 
L 183.892879 107.961114 
z
M 183.458937 87.382015 
L 183.809714 87.382015 
L 183.6346 43.277154 
L 183.458937 87.382015 
z
" clip-path="url(#p9156600c3e)" style="fill: #008000"/>
   </g>
   <g id="patch_116">
    <path d="M 185.718519 120.212188 
Q 185.606225 124.151737 185.484799 126.144416 
Q 185.363373 128.16 185.231124 128.16 
Q 184.836743 128.16 184.606406 113.226358 
Q 184.376068 98.292716 184.376068 72.754357 
Q 184.376068 47.124379 184.606406 32.213642 
Q 184.836743 17.28 185.231124 17.28 
Q 185.363373 17.28 185.484799 19.295584 
Q 185.606225 21.288263 185.718519 25.227812 
L 185.718519 47.330518 
Q 185.60521 42.108325 185.495284 39.680463 
Q 185.385358 37.252601 185.263932 37.252601 
Q 185.04611 37.252601 184.921301 46.712101 
Q 184.796831 56.148697 184.796831 72.754357 
Q 184.796831 89.291303 184.921301 98.750804 
Q 185.04611 108.187399 185.263932 108.187399 
Q 185.385358 108.187399 185.495284 105.759537 
Q 185.60521 103.308771 185.718519 98.086577 
L 185.718519 120.212188 
z
" clip-path="url(#p9156600c3e)" style="fill: #0000ff"/>
   </g>
   <g id="patch_117">
    <path d="M 186.71909 107.961114 
L 186.202805 107.961114 
L 186.121287 128.16 
L 185.789174 128.16 
L 186.263464 17.28 
L 186.657334 17.28 
L 187.131624 128.16 
L 186.799785 128.16 
L 186.71909 107.961114 
z
M 186.285147 87.382015 
L 186.635925 87.382015 
L 186.460811 43.277154 
L 186.285147 87.382015 
z
" clip-path="url(#p9156600c3e)" style="fill: #008000"/>
   </g>
   <g id="patch_118">
    <path d="M 188.132196 107.961114 
L 187.615911 107.961114 
L 187.534392 128.16 
L 187.202279 128.16 
L 187.67657 17.28 
L 188.070439 17.28 
L 188.544729 128.16 
L 188.212891 128.16 
L 188.132196 107.961114 
z
M 187.698253 87.382015 
L 188.04903 87.382015 
L 187.873916 43.277154 
L 187.698253 87.382015 
z
" clip-path="url(#p9156600c3e)" style="fill: #008000"/>
   </g>
   <g id="patch_119">
    <path d="M 189.957835 120.212188 
Q 189.845541 124.151737 189.724115 126.144416 
Q 189.602689 128.16 189.47044 128.16 
Q 189.076059 128.16 188.845722 113.226358 
Q 188.615385 98.292716 188.615385 72.754357 
Q 188.615385 47.124379 188.845722 32.213642 
Q 189.076059 17.28 189.47044 17.28 
Q 189.602689 17.28 189.724115 19.295584 
Q 189.845541 21.288263 189.957835 25.227812 
L 189.957835 47.330518 
Q 189.844526 42.108325 189.7346 39.680463 
Q 189.624674 37.252601 189.503248 37.252601 
Q 189.285426 37.252601 189.160618 46.712101 
Q 189.036148 56.148697 189.036148 72.754357 
Q 189.036148 89.291303 189.160618 98.750804 
Q 189.285426 108.187399 189.503248 108.187399 
Q 189.624674 108.187399 189.7346 105.759537 
Q 189.844526 103.308771 189.957835 98.086577 
L 189.957835 120.212188 
z
" clip-path="url(#p9156600c3e)" style="fill: #0000ff"/>
   </g>
   <g id="patch_120">
    <path d="M 190.958406 107.961114 
L 190.442122 107.961114 
L 190.360603 128.16 
L 190.02849 128.16 
L 190.50278 17.28 
L 190.89665 17.28 
L 191.37094 128.16 
L 191.039102 128.16 
L 190.958406 107.961114 
z
M 190.524464 87.382015 
L 190.875241 87.382015 
L 190.700127 43.277154 
L 190.524464 87.382015 
z
" clip-path="url(#p9156600c3e)" style="fill: #008000"/>
   </g>
   <g id="patch_121">
    <path d="M 191.441595 17.28 
L 192.784046 17.28 
L 192.784046 38.904689 
L 192.301076 38.904689 
L 192.301076 128.16 
L 191.925502 128.16 
L 191.925502 38.904689 
L 191.441595 38.904689 
L 191.441595 17.28 
z
" clip-path="url(#p9156600c3e)" style="fill: #ff0000"/>
   </g>
   <g id="patch_122">
    <path d="M 193.784617 107.961114 
L 193.268332 107.961114 
L 193.186814 128.16 
L 192.854701 128.16 
L 193.328991 17.28 
L 193.722861 17.28 
L 194.197151 128.16 
L 193.865312 128.16 
L 193.784617 107.961114 
z
M 193.350675 87.382015 
L 193.701452 87.382015 
L 193.526338 43.277154 
L 193.350675 87.382015 
z
" clip-path="url(#p9156600c3e)" style="fill: #008000"/>
   </g>
   <g id="patch_123">
    <path d="M 194.267806 17.28 
L 195.610256 17.28 
L 195.610256 38.904689 
L 195.127287 38.904689 
L 195.127287 128.16 
L 194.751713 128.16 
L 194.751713 38.904689 
L 194.267806 38.904689 
L 194.267806 17.28 
z
" clip-path="url(#p9156600c3e)" style="fill: #ff0000"/>
   </g>
   <g id="patch_124">
    <path d="M 197.023362 124.815964 
Q 196.887974 126.487982 196.742356 127.327808 
Q 196.596738 128.16 196.441493 128.16 
Q 196.090687 128.16 195.885799 123.182119 
Q 195.680912 118.204239 195.680912 109.691452 
Q 195.680912 101.079413 195.88941 96.139707 
Q 196.098208 91.2 196.46135 91.2 
Q 196.601251 91.2 196.729419 91.871861 
Q 196.857887 92.536088 196.971613 93.849271 
L 196.971613 101.216839 
Q 196.854277 99.529552 196.738144 98.69736 
Q 196.622011 97.857534 196.505276 97.857534 
Q 196.289256 97.857534 196.172221 100.926718 
Q 196.055185 103.988267 196.055185 109.691452 
Q 196.055185 115.341194 196.168009 118.425648 
Q 196.280832 121.502466 196.488428 121.502466 
Q 196.54499 121.502466 196.593429 121.326866 
Q 196.641868 121.143631 196.680378 120.761892 
L 196.680378 113.844776 
L 196.459244 113.844776 
L 196.459244 107.683503 
L 197.023362 107.683503 
L 197.023362 124.815964 
z
" clip-path="url(#p9156600c3e)" style="fill: #ffa600"/>
   </g>
   <g id="patch_125">
    <path d="M 197.023362 85.901458 
Q 196.911068 88.527825 196.789642 89.856278 
Q 196.668216 91.2 196.535967 91.2 
Q 196.141586 91.2 195.911249 81.244239 
Q 195.680912 71.288478 195.680912 54.262904 
Q 195.680912 37.176253 195.911249 27.235761 
Q 196.141586 17.28 196.535967 17.28 
Q 196.668216 17.28 196.789642 18.623722 
Q 196.911068 19.952175 197.023362 22.578542 
L 197.023362 37.313679 
Q 196.910053 33.832216 196.800127 32.213642 
Q 196.690201 30.595067 196.568776 30.595067 
Q 196.350953 30.595067 196.226145 36.901401 
Q 196.101675 43.192464 196.101675 54.262904 
Q 196.101675 65.287536 196.226145 71.593869 
Q 196.350953 77.884933 196.568776 77.884933 
Q 196.690201 77.884933 196.800127 76.266358 
Q 196.910053 74.632514 197.023362 71.151051 
L 197.023362 85.901458 
z
" clip-path="url(#p9156600c3e)" style="fill: #0000ff"/>
   </g>
   <g id="patch_126">
    <path d="M 198.436467 120.212188 
Q 198.324174 124.151737 198.202748 126.144416 
Q 198.081322 128.16 197.949072 128.16 
Q 197.554692 128.16 197.324354 113.226358 
Q 197.094017 98.292716 197.094017 72.754357 
Q 197.094017 47.124379 197.324354 32.213642 
Q 197.554692 17.28 197.949072 17.28 
Q 198.081322 17.28 198.202748 19.295584 
Q 198.324174 21.288263 198.436467 25.227812 
L 198.436467 47.330518 
Q 198.323159 42.108325 198.213233 39.680463 
Q 198.103307 37.252601 197.981881 37.252601 
Q 197.764058 37.252601 197.63925 46.712101 
Q 197.51478 56.148697 197.51478 72.754357 
Q 197.51478 89.291303 197.63925 98.750804 
Q 197.764058 108.187399 197.981881 108.187399 
Q 198.103307 108.187399 198.213233 105.759537 
Q 198.323159 103.308771 198.436467 98.086577 
L 198.436467 120.212188 
z
" clip-path="url(#p9156600c3e)" style="fill: #0000ff"/>
   </g>
   <g id="patch_127">
    <path d="M 199.437039 107.961114 
L 198.920754 107.961114 
L 198.839236 128.16 
L 198.507123 128.16 
L 198.981413 17.28 
L 199.375282 17.28 
L 199.849573 128.16 
L 199.517734 128.16 
L 199.437039 107.961114 
z
M 199.003096 87.382015 
L 199.353873 87.382015 
L 199.178759 43.277154 
L 199.003096 87.382015 
z
" clip-path="url(#p9156600c3e)" style="fill: #008000"/>
   </g>
   <g id="patch_128">
    <path d="M 201.262678 118.127891 
Q 201.12729 123.143945 200.981672 125.663425 
Q 200.836055 128.16 200.680809 128.16 
Q 200.330003 128.16 200.125116 113.226358 
Q 199.920228 98.292716 199.920228 72.754357 
Q 199.920228 46.91824 200.128726 32.09912 
Q 200.337525 17.28 200.700666 17.28 
Q 200.840567 17.28 200.968735 19.295584 
Q 201.097203 21.288263 201.21093 25.227812 
L 201.21093 47.330518 
Q 201.093593 42.268655 200.97746 39.77208 
Q 200.861327 37.252601 200.744592 37.252601 
Q 200.528573 37.252601 200.411537 46.460153 
Q 200.294501 55.644801 200.294501 72.754357 
Q 200.294501 89.703582 200.407325 98.956943 
Q 200.520148 108.187399 200.727744 108.187399 
Q 200.784306 108.187399 200.832745 107.660599 
Q 200.881184 107.110894 200.919694 105.965677 
L 200.919694 85.214328 
L 200.69856 85.214328 
L 200.69856 66.73051 
L 201.262678 66.73051 
L 201.262678 118.127891 
z
" clip-path="url(#p9156600c3e)" style="fill: #ffa600"/>
   </g>
   <g id="patch_129">
    <path d="M 201.333333 17.28 
L 202.675783 17.28 
L 202.675783 38.904689 
L 202.192814 38.904689 
L 202.192814 128.16 
L 201.81724 128.16 
L 201.81724 38.904689 
L 201.333333 38.904689 
L 201.333333 17.28 
z
" clip-path="url(#p9156600c3e)" style="fill: #ff0000"/>
   </g>
   <g id="patch_130">
    <path d="M 204.088889 120.212188 
Q 203.976595 124.151737 203.855169 126.144416 
Q 203.733743 128.16 203.601494 128.16 
Q 203.207113 128.16 202.976776 113.226358 
Q 202.746439 98.292716 202.746439 72.754357 
Q 202.746439 47.124379 202.976776 32.213642 
Q 203.207113 17.28 203.601494 17.28 
Q 203.733743 17.28 203.855169 19.295584 
Q 203.976595 21.288263 204.088889 25.227812 
L 204.088889 47.330518 
Q 203.975581 42.108325 203.865655 39.680463 
Q 203.755729 37.252601 203.634303 37.252601 
Q 203.41648 37.252601 203.291672 46.712101 
Q 203.167202 56.148697 203.167202 72.754357 
Q 203.167202 89.291303 203.291672 98.750804 
Q 203.41648 108.187399 203.634303 108.187399 
Q 203.755729 108.187399 203.865655 105.759537 
Q 203.975581 103.308771 204.088889 98.086577 
L 204.088889 120.212188 
z
" clip-path="url(#p9156600c3e)" style="fill: #0000ff"/>
   </g>
   <g id="patch_131">
    <path d="M 205.501994 128.00076 
Q 205.366606 128.08038 205.220988 128.120372 
Q 205.075371 128.16 204.920126 128.16 
Q 204.569319 128.16 204.364432 127.922958 
Q 204.159544 127.685916 204.159544 127.280545 
Q 204.159544 126.870448 204.368042 126.635224 
Q 204.576841 126.4 204.939982 126.4 
Q 205.079884 126.4 205.208051 126.431993 
Q 205.33652 126.463623 205.450246 126.526156 
L 205.450246 126.876992 
Q 205.332909 126.796645 205.216776 126.757017 
Q 205.100643 126.717025 204.983908 126.717025 
Q 204.767889 126.717025 204.650853 126.863177 
Q 204.533818 127.008965 204.533818 127.280545 
Q 204.533818 127.549581 204.646641 127.696459 
Q 204.759465 127.842975 204.96706 127.842975 
Q 205.023622 127.842975 205.072061 127.834613 
Q 205.1205 127.825887 205.159011 127.807709 
L 205.159011 127.478323 
L 204.937876 127.478323 
L 204.937876 127.184929 
L 205.501994 127.184929 
L 205.501994 128.00076 
z
" clip-path="url(#p9156600c3e)" style="fill: #ffa600"/>
   </g>
   <g id="patch_132">
    <path d="M 205.501994 126.147688 
Q 205.389701 126.272754 205.268275 126.336013 
Q 205.146849 126.4 205.014599 126.4 
Q 204.620219 126.4 204.389881 125.925916 
Q 204.159544 125.451832 204.159544 124.641091 
Q 204.159544 123.827441 204.389881 123.354084 
Q 204.620219 122.88 205.014599 122.88 
Q 205.146849 122.88 205.268275 122.943987 
Q 205.389701 123.007246 205.501994 123.132312 
L 205.501994 123.833985 
Q 205.388686 123.668201 205.27876 123.591126 
Q 205.168834 123.514051 205.047408 123.514051 
Q 204.829585 123.514051 204.704777 123.814352 
Q 204.580307 124.113927 204.580307 124.641091 
Q 204.580307 125.166073 204.704777 125.466375 
Q 204.829585 125.765949 205.047408 125.765949 
Q 205.168834 125.765949 205.27876 125.688874 
Q 205.388686 125.611072 205.501994 125.445288 
L 205.501994 126.147688 
z
" clip-path="url(#p9156600c3e)" style="fill: #0000ff"/>
   </g>
   <g id="patch_133">
    <path d="M 205.089461 103.642966 
L 204.573176 103.642966 
L 204.491657 122.88 
L 204.159544 122.88 
L 204.633834 17.28 
L 205.027704 17.28 
L 205.501994 122.88 
L 205.170156 122.88 
L 205.089461 103.642966 
z
M 204.655518 84.043823 
L 205.006295 84.043823 
L 204.831181 42.039194 
L 204.655518 84.043823 
z
" clip-path="url(#p9156600c3e)" style="fill: #008000"/>
   </g>
   <g id="patch_134">
    <path d="M 205.57265 121.12 
L 206.9151 121.12 
L 206.9151 122.492996 
L 206.43213 122.492996 
L 206.43213 128.16 
L 206.056556 128.16 
L 206.056556 122.492996 
L 205.57265 122.492996 
L 205.57265 121.12 
z
" clip-path="url(#p9156600c3e)" style="fill: #ff0000"/>
   </g>
   <g id="patch_135">
    <path d="M 206.9151 113.802966 
Q 206.802806 117.429853 206.68138 119.264383 
Q 206.559954 121.12 206.427705 121.12 
Q 206.033324 121.12 205.802987 107.371568 
Q 205.57265 93.623136 205.57265 70.11163 
Q 205.57265 46.515778 205.802987 32.788432 
Q 206.033324 19.04 206.427705 19.04 
Q 206.559954 19.04 206.68138 20.895617 
Q 206.802806 22.730147 206.9151 26.357034 
L 206.9151 46.705557 
Q 206.801791 41.897823 206.691865 39.662648 
Q 206.581939 37.427474 206.460513 37.427474 
Q 206.242691 37.427474 206.117883 46.13622 
Q 205.993412 54.823879 205.993412 70.11163 
Q 205.993412 85.336121 206.117883 94.044867 
Q 206.242691 102.732526 206.460513 102.732526 
Q 206.581939 102.732526 206.691865 100.497352 
Q 206.801791 98.241091 206.9151 93.433357 
L 206.9151 113.802966 
z
" clip-path="url(#p9156600c3e)" style="fill: #0000ff"/>
   </g>
   <g id="patch_136">
    <path d="M 207.915671 127.198148 
L 207.399387 127.198148 
L 207.317868 128.16 
L 206.985755 128.16 
L 207.460045 122.88 
L 207.853915 122.88 
L 208.328205 128.16 
L 207.996367 128.16 
L 207.915671 127.198148 
z
M 207.481729 126.218191 
L 207.832506 126.218191 
L 207.657392 124.11796 
L 207.481729 126.218191 
z
" clip-path="url(#p9156600c3e)" style="fill: #008000"/>
   </g>
   <g id="patch_137">
    <path d="M 206.985755 19.04 
L 208.328205 19.04 
L 208.328205 39.291693 
L 207.845235 39.291693 
L 207.845235 122.88 
L 207.469661 122.88 
L 207.469661 39.291693 
L 206.985755 39.291693 
L 206.985755 19.04 
z
" clip-path="url(#p9156600c3e)" style="fill: #ff0000"/>
   </g>
   <g id="patch_138">
    <path d="M 208.39886 121.12 
L 209.741311 121.12 
L 209.741311 122.492996 
L 209.258341 122.492996 
L 209.258341 128.16 
L 208.882767 128.16 
L 208.882767 122.492996 
L 208.39886 122.492996 
L 208.39886 121.12 
z
" clip-path="url(#p9156600c3e)" style="fill: #ff0000"/>
   </g>
   <g id="patch_139">
    <path d="M 209.328777 102.524201 
L 208.812492 102.524201 
L 208.730973 121.12 
L 208.39886 121.12 
L 208.873151 19.04 
L 209.26702 19.04 
L 209.741311 121.12 
L 209.409472 121.12 
L 209.328777 102.524201 
z
M 208.894834 83.578363 
L 209.245611 83.578363 
L 209.070497 42.973888 
L 208.894834 83.578363 
z
" clip-path="url(#p9156600c3e)" style="fill: #008000"/>
   </g>
   <g id="patch_140">
    <path d="M 211.154416 127.84152 
Q 211.019028 128.00076 210.87341 128.080744 
Q 210.727792 128.16 210.572547 128.16 
Q 210.221741 128.16 210.016853 127.685916 
Q 209.811966 127.211832 209.811966 126.401091 
Q 209.811966 125.580897 210.020464 125.110448 
Q 210.229263 124.64 210.592404 124.64 
Q 210.732305 124.64 210.860473 124.703987 
Q 210.988941 124.767246 211.102668 124.892312 
L 211.102668 125.593985 
Q 210.985331 125.433291 210.869198 125.354034 
Q 210.753065 125.274051 210.63633 125.274051 
Q 210.420311 125.274051 210.303275 125.566354 
Q 210.186239 125.85793 210.186239 126.401091 
Q 210.186239 126.939161 210.299063 127.232919 
Q 210.411886 127.525949 210.619482 127.525949 
Q 210.676044 127.525949 210.724483 127.509225 
Q 210.772922 127.491774 210.811432 127.455418 
L 210.811432 126.796645 
L 210.590298 126.796645 
L 210.590298 126.209857 
L 211.154416 126.209857 
L 211.154416 127.84152 
z
" clip-path="url(#p9156600c3e)" style="fill: #ffa600"/>
   </g>
   <g id="patch_141">
    <path d="M 209.811966 19.04 
L 211.154416 19.04 
L 211.154416 39.634942 
L 210.671446 39.634942 
L 210.671446 124.64 
L 210.295872 124.64 
L 210.295872 39.634942 
L 209.811966 39.634942 
L 209.811966 19.04 
z
" clip-path="url(#p9156600c3e)" style="fill: #ff0000"/>
   </g>
   <g id="patch_142">
    <path d="M 212.567521 118.287131 
Q 212.432133 123.223565 212.286515 125.703053 
Q 212.140898 128.16 211.985653 128.16 
Q 211.634846 128.16 211.429959 113.4634 
Q 211.225071 98.7668 211.225071 73.633811 
Q 211.225071 48.207792 211.433569 33.623896 
Q 211.642368 19.04 212.00551 19.04 
Q 212.145411 19.04 212.273578 21.02359 
Q 212.402047 22.98464 212.515773 26.861657 
L 212.515773 48.613526 
Q 212.398436 43.63201 212.282303 41.175063 
Q 212.16617 38.695575 212.049435 38.695575 
Q 211.833416 38.695575 211.71638 47.756976 
Q 211.599345 56.795836 211.599345 73.633811 
Q 211.599345 90.314001 211.712168 99.420483 
Q 211.824992 108.504425 212.032587 108.504425 
Q 212.089149 108.504425 212.137588 107.985986 
Q 212.186027 107.445007 212.224538 106.317967 
L 212.224538 85.896005 
L 212.003403 85.896005 
L 212.003403 67.705581 
L 212.567521 67.705581 
L 212.567521 118.287131 
z
" clip-path="url(#p9156600c3e)" style="fill: #ffa600"/>
   </g>
   <g id="patch_143">
    <path d="M 213.568093 112.770373 
L 213.051808 112.770373 
L 212.97029 128.16 
L 212.638177 128.16 
L 213.112467 43.68 
L 213.506336 43.68 
L 213.980627 128.16 
L 213.648788 128.16 
L 213.568093 112.770373 
z
M 213.13415 97.091059 
L 213.484928 97.091059 
L 213.309813 63.487355 
L 213.13415 97.091059 
z
" clip-path="url(#p9156600c3e)" style="fill: #008000"/>
   </g>
   <g id="patch_144">
    <path d="M 214.981198 112.770373 
L 214.464914 112.770373 
L 214.383395 128.16 
L 214.051282 128.16 
L 214.525572 43.68 
L 214.919442 43.68 
L 215.393732 128.16 
L 215.061894 128.16 
L 214.981198 112.770373 
z
M 214.547256 97.091059 
L 214.898033 97.091059 
L 214.722919 63.487355 
L 214.547256 97.091059 
z
" clip-path="url(#p9156600c3e)" style="fill: #008000"/>
   </g>
   <g id="patch_145">
    <path d="M 216.806838 127.150754 
Q 216.694544 127.651014 216.573118 127.904053 
Q 216.451692 128.16 216.319443 128.16 
Q 215.925062 128.16 215.694725 126.263665 
Q 215.464387 124.367329 215.464387 121.124363 
Q 215.464387 117.869762 215.694725 115.976335 
Q 215.925062 114.08 216.319443 114.08 
Q 216.451692 114.08 216.573118 114.335947 
Q 216.694544 114.588986 216.806838 115.089246 
L 216.806838 117.895939 
Q 216.693529 117.232803 216.583603 116.924503 
Q 216.473677 116.616203 216.352251 116.616203 
Q 216.134429 116.616203 216.00962 117.81741 
Q 215.88515 119.015707 215.88515 121.124363 
Q 215.88515 123.224293 216.00962 124.425499 
Q 216.134429 125.623797 216.352251 125.623797 
Q 216.473677 125.623797 216.583603 125.315497 
Q 216.693529 125.004288 216.806838 124.341153 
L 216.806838 127.150754 
z
" clip-path="url(#p9156600c3e)" style="fill: #0000ff"/>
   </g>
   <g id="patch_146">
    <path d="M 215.464387 43.68 
L 216.806838 43.68 
L 216.806838 57.409961 
L 216.323868 57.409961 
L 216.323868 114.08 
L 215.948294 114.08 
L 215.948294 57.409961 
L 215.464387 57.409961 
L 215.464387 43.68 
z
" clip-path="url(#p9156600c3e)" style="fill: #ff0000"/>
   </g>
   <g id="patch_147">
    <path d="M 218.219943 122.104524 
Q 218.107649 125.106086 217.986223 126.624317 
Q 217.864797 128.16 217.732548 128.16 
Q 217.338167 128.16 217.10783 116.781987 
Q 216.877493 105.403974 216.877493 85.946176 
Q 216.877493 66.418575 217.10783 55.058013 
Q 217.338167 43.68 217.732548 43.68 
Q 217.864797 43.68 217.986223 45.215683 
Q 218.107649 46.733914 218.219943 49.735476 
L 218.219943 66.575633 
Q 218.106635 62.596819 217.996709 60.747019 
Q 217.886783 58.89722 217.765357 58.89722 
Q 217.547534 58.89722 217.422726 66.104458 
Q 217.298256 73.294245 217.298256 85.946176 
Q 217.298256 98.545755 217.422726 105.752993 
Q 217.547534 112.94278 217.765357 112.94278 
Q 217.886783 112.94278 217.996709 111.092981 
Q 218.106635 109.22573 218.219943 105.246916 
L 218.219943 122.104524 
z
" clip-path="url(#p9156600c3e)" style="fill: #0000ff"/>
   </g>
   <g id="patch_148">
    <path d="M 219.220515 112.770373 
L 218.70423 112.770373 
L 218.622711 128.16 
L 218.290598 128.16 
L 218.764889 43.68 
L 219.158758 43.68 
L 219.633048 128.16 
L 219.30121 128.16 
L 219.220515 112.770373 
z
M 218.786572 97.091059 
L 219.137349 97.091059 
L 218.962235 63.487355 
L 218.786572 97.091059 
z
" clip-path="url(#p9156600c3e)" style="fill: #008000"/>
   </g>
   <g id="patch_149">
    <path d="M 220.63362 112.770373 
L 220.117335 112.770373 
L 220.035817 128.16 
L 219.703704 128.16 
L 220.177994 43.68 
L 220.571864 43.68 
L 221.046154 128.16 
L 220.714315 128.16 
L 220.63362 112.770373 
z
M 220.199677 97.091059 
L 220.550455 97.091059 
L 220.37534 63.487355 
L 220.199677 97.091059 
z
" clip-path="url(#p9156600c3e)" style="fill: #008000"/>
   </g>
   <g id="patch_150">
    <path d="M 222.459259 122.104524 
Q 222.346966 125.106086 222.22554 126.624317 
Q 222.104114 128.16 221.971864 128.16 
Q 221.577484 128.16 221.347146 116.781987 
Q 221.116809 105.403974 221.116809 85.946176 
Q 221.116809 66.418575 221.347146 55.058013 
Q 221.577484 43.68 221.971864 43.68 
Q 222.104114 43.68 222.22554 45.215683 
Q 222.346966 46.733914 222.459259 49.735476 
L 222.459259 66.575633 
Q 222.345951 62.596819 222.236025 60.747019 
Q 222.126099 58.89722 222.004673 58.89722 
Q 221.78685 58.89722 221.662042 66.104458 
Q 221.537572 73.294245 221.537572 85.946176 
Q 221.537572 98.545755 221.662042 105.752993 
Q 221.78685 112.94278 222.004673 112.94278 
Q 222.126099 112.94278 222.236025 111.092981 
Q 222.345951 109.22573 222.459259 105.246916 
L 222.459259 122.104524 
z
" clip-path="url(#p9156600c3e)" style="fill: #0000ff"/>
   </g>
   <g id="patch_151">
    <path d="M 222.529915 43.68 
L 223.872365 43.68 
L 223.872365 60.155954 
L 223.389395 60.155954 
L 223.389395 128.16 
L 223.013821 128.16 
L 223.013821 60.155954 
L 222.529915 60.155954 
L 222.529915 43.68 
z
" clip-path="url(#p9156600c3e)" style="fill: #ff0000"/>
   </g>
   <g id="patch_152">
    <path d="M 224.872936 112.770373 
L 224.356652 112.770373 
L 224.275133 128.16 
L 223.94302 128.16 
L 224.41731 43.68 
L 224.81118 43.68 
L 225.28547 128.16 
L 224.953632 128.16 
L 224.872936 112.770373 
z
M 224.438994 97.091059 
L 224.789771 97.091059 
L 224.614657 63.487355 
L 224.438994 97.091059 
z
" clip-path="url(#p9156600c3e)" style="fill: #008000"/>
   </g>
   <g id="patch_153">
    <path d="M 226.698575 122.104524 
Q 226.586282 125.106086 226.464856 126.624317 
Q 226.34343 128.16 226.211181 128.16 
Q 225.8168 128.16 225.586463 116.781987 
Q 225.356125 105.403974 225.356125 85.946176 
Q 225.356125 66.418575 225.586463 55.058013 
Q 225.8168 43.68 226.211181 43.68 
Q 226.34343 43.68 226.464856 45.215683 
Q 226.586282 46.733914 226.698575 49.735476 
L 226.698575 66.575633 
Q 226.585267 62.596819 226.475341 60.747019 
Q 226.365415 58.89722 226.243989 58.89722 
Q 226.026167 58.89722 225.901358 66.104458 
Q 225.776888 73.294245 225.776888 85.946176 
Q 225.776888 98.545755 225.901358 105.752993 
Q 226.026167 112.94278 226.243989 112.94278 
Q 226.365415 112.94278 226.475341 111.092981 
Q 226.585267 109.22573 226.698575 105.246916 
L 226.698575 122.104524 
z
" clip-path="url(#p9156600c3e)" style="fill: #0000ff"/>
   </g>
   <g id="patch_154">
    <path d="M 226.769231 43.68 
L 228.111681 43.68 
L 228.111681 60.155954 
L 227.628711 60.155954 
L 227.628711 128.16 
L 227.253137 128.16 
L 227.253137 60.155954 
L 226.769231 60.155954 
L 226.769231 43.68 
z
" clip-path="url(#p9156600c3e)" style="fill: #ff0000"/>
   </g>
   <g id="patch_155">
    <path d="M 228.182336 43.68 
L 229.524786 43.68 
L 229.524786 60.155954 
L 229.041816 60.155954 
L 229.041816 128.16 
L 228.666243 128.16 
L 228.666243 60.155954 
L 228.182336 60.155954 
L 228.182336 43.68 
z
" clip-path="url(#p9156600c3e)" style="fill: #ff0000"/>
   </g>
   <g id="patch_156">
    <path d="M 230.525358 112.770373 
L 230.009073 112.770373 
L 229.927555 128.16 
L 229.595442 128.16 
L 230.069732 43.68 
L 230.463601 43.68 
L 230.937892 128.16 
L 230.606053 128.16 
L 230.525358 112.770373 
z
M 230.091415 97.091059 
L 230.442193 97.091059 
L 230.267078 63.487355 
L 230.091415 97.091059 
z
" clip-path="url(#p9156600c3e)" style="fill: #008000"/>
   </g>
   <g id="patch_157">
    <path d="M 232.350997 120.516488 
Q 232.215609 124.338244 232.069991 126.257848 
Q 231.924374 128.16 231.769128 128.16 
Q 231.418322 128.16 231.213435 116.781987 
Q 231.008547 105.403974 231.008547 85.946176 
Q 231.008547 66.261516 231.217045 54.970758 
Q 231.425844 43.68 231.788985 43.68 
Q 231.928887 43.68 232.057054 45.215683 
Q 232.185523 46.733914 232.299249 49.735476 
L 232.299249 66.575633 
Q 232.181912 62.718975 232.065779 60.816823 
Q 231.949646 58.89722 231.832911 58.89722 
Q 231.616892 58.89722 231.499856 65.912497 
Q 231.38282 72.910324 231.38282 85.946176 
Q 231.38282 98.859872 231.495644 105.910052 
Q 231.608468 112.94278 231.816063 112.94278 
Q 231.872625 112.94278 231.921064 112.541409 
Q 231.969503 112.122586 232.008013 111.250039 
L 232.008013 95.439488 
L 231.786879 95.439488 
L 231.786879 81.356579 
L 232.350997 81.356579 
L 232.350997 120.516488 
z
" clip-path="url(#p9156600c3e)" style="fill: #ffa600"/>
   </g>
   <g id="patch_158">
    <path d="M 233.351569 112.770373 
L 232.835284 112.770373 
L 232.753765 128.16 
L 232.421652 128.16 
L 232.895943 43.68 
L 233.289812 43.68 
L 233.764103 128.16 
L 233.432264 128.16 
L 233.351569 112.770373 
z
M 232.917626 97.091059 
L 233.268403 97.091059 
L 233.093289 63.487355 
L 232.917626 97.091059 
z
" clip-path="url(#p9156600c3e)" style="fill: #008000"/>
   </g>
   <g id="patch_159">
    <path d="M 233.834758 43.68 
L 235.177208 43.68 
L 235.177208 60.155954 
L 234.694238 60.155954 
L 234.694238 128.16 
L 234.318664 128.16 
L 234.318664 60.155954 
L 233.834758 60.155954 
L 233.834758 43.68 
z
" clip-path="url(#p9156600c3e)" style="fill: #ff0000"/>
   </g>
   <g id="patch_160">
    <path d="M 236.590313 120.516488 
Q 236.454925 124.338244 236.309307 126.257848 
Q 236.16369 128.16 236.008445 128.16 
Q 235.657638 128.16 235.452751 116.781987 
Q 235.247863 105.403974 235.247863 85.946176 
Q 235.247863 66.261516 235.456361 54.970758 
Q 235.66516 43.68 236.028302 43.68 
Q 236.168203 43.68 236.29637 45.215683 
Q 236.424839 46.733914 236.538565 49.735476 
L 236.538565 66.575633 
Q 236.421228 62.718975 236.305095 60.816823 
Q 236.188962 58.89722 236.072228 58.89722 
Q 235.856208 58.89722 235.739172 65.912497 
Q 235.622137 72.910324 235.622137 85.946176 
Q 235.622137 98.859872 235.73496 105.910052 
Q 235.847784 112.94278 236.055379 112.94278 
Q 236.111941 112.94278 236.16038 112.541409 
Q 236.208819 112.122586 236.24733 111.250039 
L 236.24733 95.439488 
L 236.026196 95.439488 
L 236.026196 81.356579 
L 236.590313 81.356579 
L 236.590313 120.516488 
z
" clip-path="url(#p9156600c3e)" style="fill: #ffa600"/>
   </g>
   <g id="patch_161">
    <path d="M 238.003419 120.516488 
Q 237.868031 124.338244 237.722413 126.257848 
Q 237.576795 128.16 237.42155 128.16 
Q 237.070744 128.16 236.865856 116.781987 
Q 236.660969 105.403974 236.660969 85.946176 
Q 236.660969 66.261516 236.869467 54.970758 
Q 237.078265 43.68 237.441407 43.68 
Q 237.581308 43.68 237.709476 45.215683 
Q 237.837944 46.733914 237.95167 49.735476 
L 237.95167 66.575633 
Q 237.834334 62.718975 237.718201 60.816823 
Q 237.602068 58.89722 237.485333 58.89722 
Q 237.269313 58.89722 237.152278 65.912497 
Q 237.035242 72.910324 237.035242 85.946176 
Q 237.035242 98.859872 237.148066 105.910052 
Q 237.260889 112.94278 237.468485 112.94278 
Q 237.525047 112.94278 237.573486 112.541409 
Q 237.621925 112.122586 237.660435 111.250039 
L 237.660435 95.439488 
L 237.439301 95.439488 
L 237.439301 81.356579 
L 238.003419 81.356579 
L 238.003419 120.516488 
z
" clip-path="url(#p9156600c3e)" style="fill: #ffa600"/>
   </g>
   <g id="patch_162">
    <path d="M 238.074074 43.68 
L 239.416524 43.68 
L 239.416524 60.155954 
L 238.933554 60.155954 
L 238.933554 128.16 
L 238.557981 128.16 
L 238.557981 60.155954 
L 238.074074 60.155954 
L 238.074074 43.68 
z
" clip-path="url(#p9156600c3e)" style="fill: #ff0000"/>
   </g>
   <g id="patch_163">
    <path d="M 240.417096 112.770373 
L 239.900811 112.770373 
L 239.819292 128.16 
L 239.487179 128.16 
L 239.96147 43.68 
L 240.355339 43.68 
L 240.82963 128.16 
L 240.497791 128.16 
L 240.417096 112.770373 
z
M 239.983153 97.091059 
L 240.33393 97.091059 
L 240.158816 63.487355 
L 239.983153 97.091059 
z
" clip-path="url(#p9156600c3e)" style="fill: #008000"/>
   </g>
   <g id="patch_164">
    <path d="M 240.900285 43.68 
L 242.242735 43.68 
L 242.242735 60.155954 
L 241.759765 60.155954 
L 241.759765 128.16 
L 241.384191 128.16 
L 241.384191 60.155954 
L 240.900285 60.155954 
L 240.900285 43.68 
z
" clip-path="url(#p9156600c3e)" style="fill: #ff0000"/>
   </g>
   <g id="patch_165">
    <path d="M 242.31339 43.68 
L 243.65584 43.68 
L 243.65584 60.155954 
L 243.172871 60.155954 
L 243.172871 128.16 
L 242.797297 128.16 
L 242.797297 60.155954 
L 242.31339 60.155954 
L 242.31339 43.68 
z
" clip-path="url(#p9156600c3e)" style="fill: #ff0000"/>
   </g>
   <g id="patch_166">
    <path d="M 244.656412 112.770373 
L 244.140127 112.770373 
L 244.058609 128.16 
L 243.726496 128.16 
L 244.200786 43.68 
L 244.594656 43.68 
L 245.068946 128.16 
L 244.737107 128.16 
L 244.656412 112.770373 
z
M 244.222469 97.091059 
L 244.573247 97.091059 
L 244.398133 63.487355 
L 244.222469 97.091059 
z
" clip-path="url(#p9156600c3e)" style="fill: #008000"/>
   </g>
   <g id="patch_167">
    <path d="M 246.482051 120.516488 
Q 246.346663 124.338244 246.201045 126.257848 
Q 246.055428 128.16 245.900182 128.16 
Q 245.549376 128.16 245.344489 116.781987 
Q 245.139601 105.403974 245.139601 85.946176 
Q 245.139601 66.261516 245.348099 54.970758 
Q 245.556898 43.68 245.920039 43.68 
Q 246.059941 43.68 246.188108 45.215683 
Q 246.316577 46.733914 246.430303 49.735476 
L 246.430303 66.575633 
Q 246.312966 62.718975 246.196833 60.816823 
Q 246.0807 58.89722 245.963965 58.89722 
Q 245.747946 58.89722 245.63091 65.912497 
Q 245.513875 72.910324 245.513875 85.946176 
Q 245.513875 98.859872 245.626698 105.910052 
Q 245.739522 112.94278 245.947117 112.94278 
Q 246.003679 112.94278 246.052118 112.541409 
Q 246.100557 112.122586 246.139068 111.250039 
L 246.139068 95.439488 
L 245.917933 95.439488 
L 245.917933 81.356579 
L 246.482051 81.356579 
L 246.482051 120.516488 
z
" clip-path="url(#p9156600c3e)" style="fill: #ffa600"/>
   </g>
   <g id="patch_168">
    <path d="M 246.552707 43.68 
L 247.895157 43.68 
L 247.895157 60.155954 
L 247.412187 60.155954 
L 247.412187 128.16 
L 247.036613 128.16 
L 247.036613 60.155954 
L 246.552707 60.155954 
L 246.552707 43.68 
z
" clip-path="url(#p9156600c3e)" style="fill: #ff0000"/>
   </g>
   <g id="patch_169">
    <path d="M 249.308262 120.516488 
Q 249.172874 124.338244 249.027256 126.257848 
Q 248.881639 128.16 248.726393 128.16 
Q 248.375587 128.16 248.1707 116.781987 
Q 247.965812 105.403974 247.965812 85.946176 
Q 247.965812 66.261516 248.17431 54.970758 
Q 248.383109 43.68 248.74625 43.68 
Q 248.886151 43.68 249.014319 45.215683 
Q 249.142788 46.733914 249.256514 49.735476 
L 249.256514 66.575633 
Q 249.139177 62.718975 249.023044 60.816823 
Q 248.906911 58.89722 248.790176 58.89722 
Q 248.574157 58.89722 248.457121 65.912497 
Q 248.340085 72.910324 248.340085 85.946176 
Q 248.340085 98.859872 248.452909 105.910052 
Q 248.565733 112.94278 248.773328 112.94278 
Q 248.82989 112.94278 248.878329 112.541409 
Q 248.926768 112.122586 248.965278 111.250039 
L 248.965278 95.439488 
L 248.744144 95.439488 
L 248.744144 81.356579 
L 249.308262 81.356579 
L 249.308262 120.516488 
z
" clip-path="url(#p9156600c3e)" style="fill: #ffa600"/>
   </g>
   <g id="patch_170">
    <path d="M 250.308834 112.770373 
L 249.792549 112.770373 
L 249.71103 128.16 
L 249.378917 128.16 
L 249.853208 43.68 
L 250.247077 43.68 
L 250.721368 128.16 
L 250.389529 128.16 
L 250.308834 112.770373 
z
M 249.874891 97.091059 
L 250.225668 97.091059 
L 250.050554 63.487355 
L 249.874891 97.091059 
z
" clip-path="url(#p9156600c3e)" style="fill: #008000"/>
   </g>
   <g id="patch_171">
    <path d="M 252.134473 122.104524 
Q 252.022179 125.106086 251.900753 126.624317 
Q 251.779327 128.16 251.647078 128.16 
Q 251.252697 128.16 251.02236 116.781987 
Q 250.792023 105.403974 250.792023 85.946176 
Q 250.792023 66.418575 251.02236 55.058013 
Q 251.252697 43.68 251.647078 43.68 
Q 251.779327 43.68 251.900753 45.215683 
Q 252.022179 46.733914 252.134473 49.735476 
L 252.134473 66.575633 
Q 252.021165 62.596819 251.911239 60.747019 
Q 251.801313 58.89722 251.679887 58.89722 
Q 251.462064 58.89722 251.337256 66.104458 
Q 251.212786 73.294245 251.212786 85.946176 
Q 251.212786 98.545755 251.337256 105.752993 
Q 251.462064 112.94278 251.679887 112.94278 
Q 251.801313 112.94278 251.911239 111.092981 
Q 252.021165 109.22573 252.134473 105.246916 
L 252.134473 122.104524 
z
" clip-path="url(#p9156600c3e)" style="fill: #0000ff"/>
   </g>
   <g id="patch_172">
    <path d="M 253.547578 122.104524 
Q 253.435285 125.106086 253.313859 126.624317 
Q 253.192433 128.16 253.060183 128.16 
Q 252.665803 128.16 252.435465 116.781987 
Q 252.205128 105.403974 252.205128 85.946176 
Q 252.205128 66.418575 252.435465 55.058013 
Q 252.665803 43.68 253.060183 43.68 
Q 253.192433 43.68 253.313859 45.215683 
Q 253.435285 46.733914 253.547578 49.735476 
L 253.547578 66.575633 
Q 253.43427 62.596819 253.324344 60.747019 
Q 253.214418 58.89722 253.092992 58.89722 
Q 252.875169 58.89722 252.750361 66.104458 
Q 252.625891 73.294245 252.625891 85.946176 
Q 252.625891 98.545755 252.750361 105.752993 
Q 252.875169 112.94278 253.092992 112.94278 
Q 253.214418 112.94278 253.324344 111.092981 
Q 253.43427 109.22573 253.547578 105.246916 
L 253.547578 122.104524 
z
" clip-path="url(#p9156600c3e)" style="fill: #0000ff"/>
   </g>
   <g id="patch_173">
    <path d="M 253.618234 43.68 
L 254.960684 43.68 
L 254.960684 60.155954 
L 254.477714 60.155954 
L 254.477714 128.16 
L 254.10214 128.16 
L 254.10214 60.155954 
L 253.618234 60.155954 
L 253.618234 43.68 
z
" clip-path="url(#p9156600c3e)" style="fill: #ff0000"/>
   </g>
   <g id="patch_174">
    <path d="M 256.373789 120.516488 
Q 256.238401 124.338244 256.092783 126.257848 
Q 255.947166 128.16 255.79192 128.16 
Q 255.441114 128.16 255.236227 116.781987 
Q 255.031339 105.403974 255.031339 85.946176 
Q 255.031339 66.261516 255.239837 54.970758 
Q 255.448636 43.68 255.811777 43.68 
Q 255.951679 43.68 256.079846 45.215683 
Q 256.208315 46.733914 256.322041 49.735476 
L 256.322041 66.575633 
Q 256.204704 62.718975 256.088571 60.816823 
Q 255.972438 58.89722 255.855703 58.89722 
Q 255.639684 58.89722 255.522648 65.912497 
Q 255.405612 72.910324 255.405612 85.946176 
Q 255.405612 98.859872 255.518436 105.910052 
Q 255.63126 112.94278 255.838855 112.94278 
Q 255.895417 112.94278 255.943856 112.541409 
Q 255.992295 112.122586 256.030805 111.250039 
L 256.030805 95.439488 
L 255.809671 95.439488 
L 255.809671 81.356579 
L 256.373789 81.356579 
L 256.373789 120.516488 
z
" clip-path="url(#p9156600c3e)" style="fill: #ffa600"/>
   </g>
   <g id="patch_175">
    <path d="M 256.444444 43.68 
L 257.786895 43.68 
L 257.786895 60.155954 
L 257.303925 60.155954 
L 257.303925 128.16 
L 256.928351 128.16 
L 256.928351 60.155954 
L 256.444444 60.155954 
L 256.444444 43.68 
z
" clip-path="url(#p9156600c3e)" style="fill: #ff0000"/>
   </g>
   <g id="patch_176">
    <path d="M 258.787466 112.770373 
L 258.271182 112.770373 
L 258.189663 128.16 
L 257.85755 128.16 
L 258.33184 43.68 
L 258.72571 43.68 
L 259.2 128.16 
L 258.868161 128.16 
L 258.787466 112.770373 
z
M 258.353524 97.091059 
L 258.704301 97.091059 
L 258.529187 63.487355 
L 258.353524 97.091059 
z
" clip-path="url(#p9156600c3e)" style="fill: #008000"/>
   </g>
  </g>
 </g>
 <defs>
  <clipPath id="p9156600c3e">
   <rect x="36" y="17.28" width="223.2" height="110.88"/>
  </clipPath>
 </defs>
</svg>
