<?xml version="1.0" encoding="utf-8" standalone="no"?>
<!DOCTYPE svg PUBLIC "-//W3C//DTD SVG 1.1//EN"
  "http://www.w3.org/Graphics/SVG/1.1/DTD/svg11.dtd">
<svg xmlns:xlink="http://www.w3.org/1999/xlink" width="257.04pt" height="144pt" viewBox="0 0 257.04 144" xmlns="http://www.w3.org/2000/svg" version="1.1">
 <metadata>
  <rdf:RDF xmlns:dc="http://purl.org/dc/elements/1.1/" xmlns:cc="http://creativecommons.org/ns#" xmlns:rdf="http://www.w3.org/1999/02/22-rdf-syntax-ns#">
   <cc:Work>
    <dc:type rdf:resource="http://purl.org/dc/dcmitype/StillImage"/>
    <dc:date>2024-11-11T17:06:36.879538</dc:date>
    <dc:format>image/svg+xml</dc:format>
    <dc:creator>
     <cc:Agent>
      <dc:title>Matplotlib v3.9.2, https://matplotlib.org/</dc:title>
     </cc:Agent>
    </dc:creator>
   </cc:Work>
  </rdf:RDF>
 </metadata>
 <defs>
  <style type="text/css">*{stroke-linejoin: round; stroke-linecap: butt}</style>
 </defs>
 <g id="figure_1">
  <g id="patch_1">
   <path d="M 0 144 
L 257.04 144 
L 257.04 0 
L 0 0 
z
" style="fill: #ffffff"/>
  </g>
  <g id="axes_1">
   <g id="line2d_1">
    <path d="M 32.13 128.16 
L 231.336 128.16 
" clip-path="url(#pb40fbdfa5d)" style="fill: none; stroke: #000000; stroke-width: 0.5; stroke-linecap: square"/>
   </g>
   <g id="patch_2">
    <path d="M 32.13 118.92 
L 39.714998 118.92 
L 39.714998 120.722057 
L 36.986163 120.722057 
L 36.986163 128.16 
L 34.864127 128.16 
L 34.864127 120.722057 
L 32.13 120.722057 
L 32.13 118.92 
z
" clip-path="url(#pb40fbdfa5d)" style="fill: #ff0000"/>
   </g>
   <g id="patch_3">
    <path d="M 39.714998 117.874989 
Q 38.950039 118.397494 38.127282 118.65994 
Q 37.304526 118.92 36.427372 118.92 
Q 34.445277 118.92 33.287639 117.364412 
Q 32.13 115.808825 32.13 113.148579 
Q 32.13 110.457317 33.308038 108.913658 
Q 34.487775 107.37 36.539566 107.37 
Q 37.330024 107.37 38.054186 107.579957 
Q 38.780048 107.787527 39.422613 108.197897 
L 39.422613 110.500262 
Q 38.759649 109.972985 38.103483 109.712925 
Q 37.447318 109.450479 36.787753 109.450479 
Q 35.567218 109.450479 34.905953 110.409599 
Q 34.244688 111.366333 34.244688 113.148579 
Q 34.244688 114.914123 34.882154 115.878015 
Q 35.51962 116.839521 36.692558 116.839521 
Q 37.012141 116.839521 37.285827 116.784646 
Q 37.559512 116.727385 37.777101 116.608091 
L 37.777101 114.446492 
L 36.527667 114.446492 
L 36.527667 112.521095 
L 39.714998 112.521095 
L 39.714998 117.874989 
z
" clip-path="url(#pb40fbdfa5d)" style="fill: #ffa600"/>
   </g>
   <g id="patch_4">
    <path d="M 39.714998 106.045365 
Q 39.080526 106.701956 38.394455 107.034069 
Q 37.708385 107.37 36.96116 107.37 
Q 34.732864 107.37 33.431432 104.88106 
Q 32.13 102.392119 32.13 98.135726 
Q 32.13 93.864063 33.431432 91.37894 
Q 34.732864 88.89 36.96116 88.89 
Q 37.708385 88.89 38.394455 89.225931 
Q 39.080526 89.558044 39.714998 90.214635 
L 39.714998 93.89842 
Q 39.074793 93.028054 38.453698 92.62341 
Q 37.832604 92.218767 37.146533 92.218767 
Q 35.91581 92.218767 35.210629 93.79535 
Q 34.507359 95.368116 34.507359 98.135726 
Q 34.507359 100.891884 35.210629 102.468467 
Q 35.91581 104.041233 37.146533 104.041233 
Q 37.832604 104.041233 38.453698 103.63659 
Q 39.074793 103.228128 39.714998 102.357763 
L 39.714998 106.045365 
z
" clip-path="url(#pb40fbdfa5d)" style="fill: #0000ff"/>
   </g>
   <g id="patch_5">
    <path d="M 37.384135 75.844886 
L 34.467066 75.844886 
L 34.006477 88.89 
L 32.13 88.89 
L 34.809795 17.28 
L 37.035203 17.28 
L 39.714998 88.89 
L 37.840072 88.89 
L 37.384135 75.844886 
z
M 34.932309 62.554218 
L 36.91424 62.554218 
L 35.924825 34.069829 
L 34.932309 62.554218 
z
" clip-path="url(#pb40fbdfa5d)" style="fill: #008000"/>
   </g>
   <g id="patch_6">
    <path d="M 47.699206 120.212188 
Q 47.064734 124.151737 46.378664 126.144416 
Q 45.692593 128.16 44.945369 128.16 
Q 42.717072 128.16 41.41564 113.226358 
Q 40.114208 98.292716 40.114208 72.754357 
Q 40.114208 47.124379 41.41564 32.213642 
Q 42.717072 17.28 44.945369 17.28 
Q 45.692593 17.28 46.378664 19.295584 
Q 47.064734 21.288263 47.699206 25.227812 
L 47.699206 47.330518 
Q 47.059001 42.108325 46.437907 39.680463 
Q 45.816812 37.252601 45.130741 37.252601 
Q 43.900019 37.252601 43.194837 46.712101 
Q 42.491567 56.148697 42.491567 72.754357 
Q 42.491567 89.291303 43.194837 98.750804 
Q 43.900019 108.187399 45.130741 108.187399 
Q 45.816812 108.187399 46.437907 105.759537 
Q 47.059001 103.308771 47.699206 98.086577 
L 47.699206 120.212188 
z
" clip-path="url(#pb40fbdfa5d)" style="fill: #0000ff"/>
   </g>
   <g id="patch_7">
    <path d="M 53.352552 107.961114 
L 50.435483 107.961114 
L 49.974894 128.16 
L 48.098417 128.16 
L 50.778212 17.28 
L 53.00362 17.28 
L 55.683415 128.16 
L 53.808489 128.16 
L 53.352552 107.961114 
z
M 50.900725 87.382015 
L 52.882657 87.382015 
L 51.893242 43.277154 
L 50.900725 87.382015 
z
" clip-path="url(#pb40fbdfa5d)" style="fill: #008000"/>
   </g>
   <g id="patch_8">
    <path d="M 61.33676 107.961114 
L 58.419692 107.961114 
L 57.959102 128.16 
L 56.082625 128.16 
L 58.76242 17.28 
L 60.987828 17.28 
L 63.667623 128.16 
L 61.792697 128.16 
L 61.33676 107.961114 
z
M 58.884934 87.382015 
L 60.866865 87.382015 
L 59.87745 43.277154 
L 58.884934 87.382015 
z
" clip-path="url(#pb40fbdfa5d)" style="fill: #008000"/>
   </g>
   <g id="patch_9">
    <path d="M 71.651832 126.007467 
Q 71.01736 127.074429 70.331289 127.614113 
Q 69.645218 128.16 68.897994 128.16 
Q 66.669698 128.16 65.368266 124.115472 
Q 64.066834 120.070944 64.066834 113.154305 
Q 64.066834 106.212853 65.368266 102.174528 
Q 66.669698 98.13 68.897994 98.13 
Q 69.645218 98.13 70.331289 98.675887 
Q 71.01736 99.215571 71.651832 100.282533 
L 71.651832 106.268682 
Q 71.011626 104.854338 70.390532 104.196792 
Q 69.769437 103.539246 69.083367 103.539246 
Q 67.852644 103.539246 67.147463 106.101194 
Q 66.444193 108.656939 66.444193 113.154305 
Q 66.444193 117.633061 67.147463 120.195009 
Q 67.852644 122.750754 69.083367 122.750754 
Q 69.769437 122.750754 70.390532 122.093208 
Q 71.011626 121.429459 71.651832 120.015115 
L 71.651832 126.007467 
z
" clip-path="url(#pb40fbdfa5d)" style="fill: #0000ff"/>
   </g>
   <g id="patch_10">
    <path d="M 71.651832 90.81492 
Q 70.886872 94.47246 70.064116 96.309581 
Q 69.241359 98.13 68.364206 98.13 
Q 66.382111 98.13 65.224472 87.240886 
Q 64.066834 76.351772 64.066834 57.730052 
Q 64.066834 38.891217 65.244871 28.085608 
Q 66.424609 17.28 68.4764 17.28 
Q 69.266858 17.28 69.99102 18.749696 
Q 70.716881 20.202692 71.359447 23.07528 
L 71.359447 39.191836 
Q 70.696482 35.500894 70.040317 33.680475 
Q 69.384152 31.843355 68.724587 31.843355 
Q 67.504051 31.843355 66.842787 38.557195 
Q 66.181522 45.254334 66.181522 57.730052 
Q 66.181522 70.088862 66.818988 76.836104 
Q 67.456454 83.566645 68.629392 83.566645 
Q 68.948975 83.566645 69.22266 83.18252 
Q 69.496346 82.781694 69.713934 81.946639 
L 69.713934 66.815447 
L 68.464501 66.815447 
L 68.464501 53.337664 
L 71.651832 53.337664 
L 71.651832 90.81492 
z
" clip-path="url(#pb40fbdfa5d)" style="fill: #ffa600"/>
   </g>
   <g id="patch_11">
    <path d="M 72.051042 17.28 
L 79.63604 17.28 
L 79.63604 38.904689 
L 76.907205 38.904689 
L 76.907205 128.16 
L 74.785169 128.16 
L 74.785169 38.904689 
L 72.051042 38.904689 
L 72.051042 17.28 
z
" clip-path="url(#pb40fbdfa5d)" style="fill: #ff0000"/>
   </g>
   <g id="patch_12">
    <path d="M 80.035251 17.28 
L 87.620248 17.28 
L 87.620248 38.904689 
L 84.891413 38.904689 
L 84.891413 128.16 
L 82.769378 128.16 
L 82.769378 38.904689 
L 80.035251 38.904689 
L 80.035251 17.28 
z
" clip-path="url(#pb40fbdfa5d)" style="fill: #ff0000"/>
   </g>
   <g id="patch_13">
    <path d="M 88.019459 17.28 
L 95.604457 17.28 
L 95.604457 38.904689 
L 92.875622 38.904689 
L 92.875622 128.16 
L 90.753586 128.16 
L 90.753586 38.904689 
L 88.019459 38.904689 
L 88.019459 17.28 
z
" clip-path="url(#pb40fbdfa5d)" style="fill: #ff0000"/>
   </g>
   <g id="patch_14">
    <path d="M 103.588665 118.127891 
Q 102.823706 123.143945 102.000949 125.663425 
Q 101.178193 128.16 100.30104 128.16 
Q 98.318945 128.16 97.161306 113.226358 
Q 96.003667 98.292716 96.003667 72.754357 
Q 96.003667 46.91824 97.181705 32.09912 
Q 98.361442 17.28 100.413234 17.28 
Q 101.203692 17.28 101.927853 19.295584 
Q 102.653715 21.288263 103.296281 25.227812 
L 103.296281 47.330518 
Q 102.633316 42.268655 101.977151 39.77208 
Q 101.320986 37.252601 100.66142 37.252601 
Q 99.440885 37.252601 98.77962 46.460153 
Q 98.118355 55.644801 98.118355 72.754357 
Q 98.118355 89.703582 98.755821 98.956943 
Q 99.393288 108.187399 100.566226 108.187399 
Q 100.885809 108.187399 101.159494 107.660599 
Q 101.43318 107.110894 101.650768 105.965677 
L 101.650768 85.214328 
L 100.401334 85.214328 
L 100.401334 66.73051 
L 103.588665 66.73051 
L 103.588665 118.127891 
z
" clip-path="url(#pb40fbdfa5d)" style="fill: #ffa600"/>
   </g>
   <g id="patch_15">
    <path d="M 103.987876 17.28 
L 111.572874 17.28 
L 111.572874 38.904689 
L 108.844038 38.904689 
L 108.844038 128.16 
L 106.722003 128.16 
L 106.722003 38.904689 
L 103.987876 38.904689 
L 103.987876 17.28 
z
" clip-path="url(#pb40fbdfa5d)" style="fill: #ff0000"/>
   </g>
   <g id="patch_16">
    <path d="M 117.226219 107.961114 
L 114.309151 107.961114 
L 113.848561 128.16 
L 111.972084 128.16 
L 114.651879 17.28 
L 116.877287 17.28 
L 119.557082 128.16 
L 117.682156 128.16 
L 117.226219 107.961114 
z
M 114.774393 87.382015 
L 116.756324 87.382015 
L 115.766909 43.277154 
L 114.774393 87.382015 
z
" clip-path="url(#pb40fbdfa5d)" style="fill: #008000"/>
   </g>
   <g id="patch_17">
    <path d="M 127.541291 120.212188 
Q 126.906819 124.151737 126.220748 126.144416 
Q 125.534677 128.16 124.787453 128.16 
Q 122.559157 128.16 121.257725 113.226358 
Q 119.956293 98.292716 119.956293 72.754357 
Q 119.956293 47.124379 121.257725 32.213642 
Q 122.559157 17.28 124.787453 17.28 
Q 125.534677 17.28 126.220748 19.295584 
Q 126.906819 21.288263 127.541291 25.227812 
L 127.541291 47.330518 
Q 126.901085 42.108325 126.279991 39.680463 
Q 125.658896 37.252601 124.972826 37.252601 
Q 123.742103 37.252601 123.036922 46.712101 
Q 122.333651 56.148697 122.333651 72.754357 
Q 122.333651 89.291303 123.036922 98.750804 
Q 123.742103 108.187399 124.972826 108.187399 
Q 125.658896 108.187399 126.279991 105.759537 
Q 126.901085 103.308771 127.541291 98.086577 
L 127.541291 120.212188 
z
" clip-path="url(#pb40fbdfa5d)" style="fill: #0000ff"/>
   </g>
   <g id="patch_18">
    <path d="M 133.194636 107.961114 
L 130.277567 107.961114 
L 129.816978 128.16 
L 127.940501 128.16 
L 130.620296 17.28 
L 132.845704 17.28 
L 135.525499 128.16 
L 133.650573 128.16 
L 133.194636 107.961114 
z
M 130.74281 87.382015 
L 132.724741 87.382015 
L 131.735326 43.277154 
L 130.74281 87.382015 
z
" clip-path="url(#pb40fbdfa5d)" style="fill: #008000"/>
   </g>
   <g id="patch_19">
    <path d="M 141.178844 107.961114 
L 138.261776 107.961114 
L 137.801186 128.16 
L 135.924709 128.16 
L 138.604504 17.28 
L 140.829913 17.28 
L 143.509707 128.16 
L 141.634782 128.16 
L 141.178844 107.961114 
z
M 138.727018 87.382015 
L 140.70895 87.382015 
L 139.719535 43.277154 
L 138.727018 87.382015 
z
" clip-path="url(#pb40fbdfa5d)" style="fill: #008000"/>
   </g>
   <g id="patch_20">
    <path d="M 149.163053 107.961114 
L 146.245984 107.961114 
L 145.785395 128.16 
L 143.908918 128.16 
L 146.588713 17.28 
L 148.814121 17.28 
L 151.493916 128.16 
L 149.61899 128.16 
L 149.163053 107.961114 
z
M 146.711226 87.382015 
L 148.693158 87.382015 
L 147.703743 43.277154 
L 146.711226 87.382015 
z
" clip-path="url(#pb40fbdfa5d)" style="fill: #008000"/>
   </g>
   <g id="patch_21">
    <path d="M 157.147261 107.961114 
L 154.230193 107.961114 
L 153.769603 128.16 
L 151.893126 128.16 
L 154.572921 17.28 
L 156.798329 17.28 
L 159.478124 128.16 
L 157.603198 128.16 
L 157.147261 107.961114 
z
M 154.695435 87.382015 
L 156.677366 87.382015 
L 155.687951 43.277154 
L 154.695435 87.382015 
z
" clip-path="url(#pb40fbdfa5d)" style="fill: #008000"/>
   </g>
   <g id="patch_22">
    <path d="M 165.131469 107.961114 
L 162.214401 107.961114 
L 161.753811 128.16 
L 159.877335 128.16 
L 162.55713 17.28 
L 164.782538 17.28 
L 167.462333 128.16 
L 165.587407 128.16 
L 165.131469 107.961114 
z
M 162.679643 87.382015 
L 164.661575 87.382015 
L 163.67216 43.277154 
L 162.679643 87.382015 
z
" clip-path="url(#pb40fbdfa5d)" style="fill: #008000"/>
   </g>
   <g id="patch_23">
    <path d="M 173.115678 107.961114 
L 170.19861 107.961114 
L 169.73802 128.16 
L 167.861543 128.16 
L 170.541338 17.28 
L 172.766746 17.28 
L 175.446541 128.16 
L 173.571615 128.16 
L 173.115678 107.961114 
z
M 170.663852 87.382015 
L 172.645783 87.382015 
L 171.656368 43.277154 
L 170.663852 87.382015 
z
" clip-path="url(#pb40fbdfa5d)" style="fill: #008000"/>
   </g>
   <g id="patch_24">
    <path d="M 175.845752 125.85 
L 183.430749 125.85 
L 183.430749 126.300514 
L 180.701914 126.300514 
L 180.701914 128.16 
L 178.579879 128.16 
L 178.579879 126.300514 
L 175.845752 126.300514 
L 175.845752 125.85 
z
" clip-path="url(#pb40fbdfa5d)" style="fill: #ff0000"/>
   </g>
   <g id="patch_25">
    <path d="M 183.430749 116.026893 
Q 182.66579 120.938447 181.843034 123.405437 
Q 181.020277 125.85 180.143124 125.85 
Q 178.161029 125.85 177.00339 111.227476 
Q 175.845752 96.604951 175.845752 71.598641 
Q 175.845752 46.300777 177.023789 31.790388 
Q 178.203527 17.28 180.255318 17.28 
Q 181.045776 17.28 181.769938 19.253592 
Q 182.495799 21.204757 183.138365 25.062233 
L 183.138365 46.704466 
Q 182.4754 41.748058 181.819235 39.303495 
Q 181.16307 36.836505 180.503505 36.836505 
Q 179.282969 36.836505 178.621704 45.852233 
Q 177.960439 54.845534 177.960439 71.598641 
Q 177.960439 88.194757 178.597906 97.25534 
Q 179.235372 106.293495 180.40831 106.293495 
Q 180.727893 106.293495 181.001578 105.77767 
Q 181.275264 105.239417 181.492852 104.118058 
L 181.492852 83.799029 
L 180.243418 83.799029 
L 180.243418 65.700291 
L 183.430749 65.700291 
L 183.430749 116.026893 
z
" clip-path="url(#pb40fbdfa5d)" style="fill: #ffa600"/>
   </g>
   <g id="patch_26">
    <path d="M 189.084095 127.73919 
L 186.167026 127.73919 
L 185.706437 128.16 
L 183.82996 128.16 
L 186.509755 125.85 
L 188.735163 125.85 
L 191.414958 128.16 
L 189.540032 128.16 
L 189.084095 127.73919 
z
M 186.632269 127.310459 
L 188.6142 127.310459 
L 187.624785 126.391607 
L 186.632269 127.310459 
z
" clip-path="url(#pb40fbdfa5d)" style="fill: #008000"/>
   </g>
   <g id="patch_27">
    <path d="M 183.82996 75.03 
L 191.414958 75.03 
L 191.414958 84.941316 
L 188.686123 84.941316 
L 188.686123 125.85 
L 186.564087 125.85 
L 186.564087 84.941316 
L 183.82996 84.941316 
L 183.82996 75.03 
z
" clip-path="url(#pb40fbdfa5d)" style="fill: #ff0000"/>
   </g>
   <g id="patch_28">
    <path d="M 191.414958 70.890514 
Q 190.780486 72.942363 190.094415 73.980217 
Q 189.408345 75.03 188.66112 75.03 
Q 186.432824 75.03 185.131392 67.252062 
Q 183.82996 59.474123 183.82996 46.172894 
Q 183.82996 32.823948 185.131392 25.057938 
Q 186.432824 17.28 188.66112 17.28 
Q 189.408345 17.28 190.094415 18.329783 
Q 190.780486 19.367637 191.414958 21.419486 
L 191.414958 32.931312 
Q 190.774753 30.211419 190.153658 28.946908 
Q 189.532564 27.682396 188.846493 27.682396 
Q 187.61577 27.682396 186.910589 32.609219 
Q 186.207319 37.524113 186.207319 46.172894 
Q 186.207319 54.785887 186.910589 59.71271 
Q 187.61577 64.627604 188.846493 64.627604 
Q 189.532564 64.627604 190.153658 63.363092 
Q 190.774753 62.086652 191.414958 59.366759 
L 191.414958 70.890514 
z
" clip-path="url(#pb40fbdfa5d)" style="fill: #0000ff"/>
   </g>
   <g id="patch_29">
    <path d="M 199.399166 127.741995 
Q 198.634207 127.950998 197.81145 128.055976 
Q 196.988694 128.16 196.111541 128.16 
Q 194.129446 128.16 192.971807 127.537765 
Q 191.814168 126.91553 191.814168 125.851432 
Q 191.814168 124.774927 192.992206 124.157463 
Q 194.171943 123.54 196.223735 123.54 
Q 197.014193 123.54 197.738354 123.623983 
Q 198.464216 123.707011 199.106782 123.871159 
L 199.106782 124.792105 
Q 198.443817 124.581194 197.787652 124.47717 
Q 197.131487 124.372192 196.471921 124.372192 
Q 195.251386 124.372192 194.590121 124.75584 
Q 193.928856 125.138533 193.928856 125.851432 
Q 193.928856 126.557649 194.566322 126.943206 
Q 195.203789 127.327808 196.376727 127.327808 
Q 196.69631 127.327808 196.969995 127.305858 
Q 197.243681 127.282954 197.461269 127.235237 
L 197.461269 126.370597 
L 196.211835 126.370597 
L 196.211835 125.600438 
L 199.399166 125.600438 
L 199.399166 127.741995 
z
" clip-path="url(#pb40fbdfa5d)" style="fill: #ffa600"/>
   </g>
   <g id="patch_30">
    <path d="M 197.068303 114.702988 
L 194.151235 114.702988 
L 193.690645 123.54 
L 191.814168 123.54 
L 194.493963 75.03 
L 196.719371 75.03 
L 199.399166 123.54 
L 197.52424 123.54 
L 197.068303 114.702988 
z
M 194.616477 105.699631 
L 196.598409 105.699631 
L 195.608994 86.403755 
L 194.616477 105.699631 
z
" clip-path="url(#pb40fbdfa5d)" style="fill: #008000"/>
   </g>
   <g id="patch_31">
    <path d="M 191.814168 17.28 
L 199.399166 17.28 
L 199.399166 28.542859 
L 196.670331 28.542859 
L 196.670331 75.03 
L 194.548296 75.03 
L 194.548296 28.542859 
L 191.814168 28.542859 
L 191.814168 17.28 
z
" clip-path="url(#pb40fbdfa5d)" style="fill: #ff0000"/>
   </g>
   <g id="patch_32">
    <path d="M 207.383375 118.127891 
Q 206.618415 123.143945 205.795659 125.663425 
Q 204.972903 128.16 204.095749 128.16 
Q 202.113654 128.16 200.956015 113.226358 
Q 199.798377 98.292716 199.798377 72.754357 
Q 199.798377 46.91824 200.976414 32.09912 
Q 202.156152 17.28 204.207943 17.28 
Q 204.998401 17.28 205.722563 19.295584 
Q 206.448424 21.288263 207.09099 25.227812 
L 207.09099 47.330518 
Q 206.428025 42.268655 205.77186 39.77208 
Q 205.115695 37.252601 204.45613 37.252601 
Q 203.235595 37.252601 202.57433 46.460153 
Q 201.913065 55.644801 201.913065 72.754357 
Q 201.913065 89.703582 202.550531 98.956943 
Q 203.187997 108.187399 204.360935 108.187399 
Q 204.680518 108.187399 204.954203 107.660599 
Q 205.227889 107.110894 205.445477 105.965677 
L 205.445477 85.214328 
L 204.196044 85.214328 
L 204.196044 66.73051 
L 207.383375 66.73051 
L 207.383375 118.127891 
z
" clip-path="url(#pb40fbdfa5d)" style="fill: #ffa600"/>
   </g>
   <g id="patch_33">
    <path d="M 207.782585 125.85 
L 215.367583 125.85 
L 215.367583 126.300514 
L 212.638748 126.300514 
L 212.638748 128.16 
L 210.516712 128.16 
L 210.516712 126.300514 
L 207.782585 126.300514 
L 207.782585 125.85 
z
" clip-path="url(#pb40fbdfa5d)" style="fill: #ff0000"/>
   </g>
   <g id="patch_34">
    <path d="M 215.367583 125.022103 
Q 214.733111 125.432473 214.047041 125.640043 
Q 213.36097 125.85 212.613745 125.85 
Q 210.385449 125.85 209.084017 124.294412 
Q 207.782585 122.738825 207.782585 120.078579 
Q 207.782585 117.40879 209.084017 115.855588 
Q 210.385449 114.3 212.613745 114.3 
Q 213.36097 114.3 214.047041 114.509957 
Q 214.733111 114.717527 215.367583 115.127897 
L 215.367583 117.430262 
Q 214.727378 116.886284 214.106283 116.633382 
Q 213.485189 116.380479 212.799118 116.380479 
Q 211.568395 116.380479 210.863214 117.365844 
Q 210.159944 118.348823 210.159944 120.078579 
Q 210.159944 121.801177 210.863214 122.786542 
Q 211.568395 123.769521 212.799118 123.769521 
Q 213.485189 123.769521 214.106283 123.516618 
Q 214.727378 123.26133 215.367583 122.717352 
L 215.367583 125.022103 
z
" clip-path="url(#pb40fbdfa5d)" style="fill: #0000ff"/>
   </g>
   <g id="patch_35">
    <path d="M 213.03672 110.091899 
L 210.119652 110.091899 
L 209.659062 114.3 
L 207.782585 114.3 
L 210.46238 91.2 
L 212.687788 91.2 
L 215.367583 114.3 
L 213.492657 114.3 
L 213.03672 110.091899 
z
M 210.584894 105.804586 
L 212.566825 105.804586 
L 211.57741 96.616074 
L 210.584894 105.804586 
z
" clip-path="url(#pb40fbdfa5d)" style="fill: #008000"/>
   </g>
   <g id="patch_36">
    <path d="M 215.367583 84.511927 
Q 214.602624 87.855964 213.779867 89.535617 
Q 212.957111 91.2 212.079957 91.2 
Q 210.097862 91.2 208.940224 81.244239 
Q 207.782585 71.288478 207.782585 54.262904 
Q 207.782585 37.038827 208.960623 27.159413 
Q 210.14036 17.28 212.192151 17.28 
Q 212.98261 17.28 213.706771 18.623722 
Q 214.432633 19.952175 215.075199 22.578542 
L 215.075199 37.313679 
Q 214.412234 33.939103 213.756069 32.27472 
Q 213.099903 30.595067 212.440338 30.595067 
Q 211.219803 30.595067 210.558538 36.733435 
Q 209.897273 42.856534 209.897273 54.262904 
Q 209.897273 65.562388 210.534739 71.731295 
Q 211.172206 77.884933 212.345143 77.884933 
Q 212.664726 77.884933 212.938412 77.533733 
Q 213.212097 77.167263 213.429686 76.403784 
L 213.429686 62.569552 
L 212.180252 62.569552 
L 212.180252 50.247007 
L 215.367583 50.247007 
L 215.367583 84.511927 
z
" clip-path="url(#pb40fbdfa5d)" style="fill: #ffa600"/>
   </g>
   <g id="patch_37">
    <path d="M 223.351792 127.532993 
Q 222.586832 127.846497 221.764076 128.003964 
Q 220.941319 128.16 220.064166 128.16 
Q 218.082071 128.16 216.924432 127.226647 
Q 215.766794 126.293295 215.766794 124.697147 
Q 215.766794 123.08239 216.944831 122.156195 
Q 218.124569 121.23 220.17636 121.23 
Q 220.966818 121.23 221.69098 121.355974 
Q 222.416841 121.480516 223.059407 121.726738 
L 223.059407 123.108157 
Q 222.396442 122.791791 221.740277 122.635755 
Q 221.084112 122.478288 220.424547 122.478288 
Q 219.204011 122.478288 218.542746 123.05376 
Q 217.881482 123.6278 217.881482 124.697147 
Q 217.881482 125.756474 218.518948 126.334809 
Q 219.156414 126.911712 220.329352 126.911712 
Q 220.648935 126.911712 220.92262 126.878787 
Q 221.196306 126.844431 221.413894 126.772855 
L 221.413894 125.475895 
L 220.164461 125.475895 
L 220.164461 124.320657 
L 223.351792 124.320657 
L 223.351792 127.532993 
z
" clip-path="url(#pb40fbdfa5d)" style="fill: #ffa600"/>
   </g>
   <g id="patch_38">
    <path d="M 221.020928 118.705139 
L 218.10386 118.705139 
L 217.64327 121.23 
L 215.766794 121.23 
L 218.446588 107.37 
L 220.671997 107.37 
L 223.351792 121.23 
L 221.476866 121.23 
L 221.020928 118.705139 
z
M 218.569102 116.132752 
L 220.551034 116.132752 
L 219.561619 110.619644 
L 218.569102 116.132752 
z
" clip-path="url(#pb40fbdfa5d)" style="fill: #008000"/>
   </g>
   <g id="patch_39">
    <path d="M 215.766794 91.2 
L 223.351792 91.2 
L 223.351792 94.353601 
L 220.622956 94.353601 
L 220.622956 107.37 
L 218.500921 107.37 
L 218.500921 94.353601 
L 215.766794 94.353601 
L 215.766794 91.2 
z
" clip-path="url(#pb40fbdfa5d)" style="fill: #ff0000"/>
   </g>
   <g id="patch_40">
    <path d="M 223.351792 85.901458 
Q 222.71732 88.527825 222.031249 89.856278 
Q 221.345178 91.2 220.597954 91.2 
Q 218.369658 91.2 217.068226 81.244239 
Q 215.766794 71.288478 215.766794 54.262904 
Q 215.766794 37.176253 217.068226 27.235761 
Q 218.369658 17.28 220.597954 17.28 
Q 221.345178 17.28 222.031249 18.623722 
Q 222.71732 19.952175 223.351792 22.578542 
L 223.351792 37.313679 
Q 222.711586 33.832216 222.090492 32.213642 
Q 221.469397 30.595067 220.783327 30.595067 
Q 219.552604 30.595067 218.847423 36.901401 
Q 218.144152 43.192464 218.144152 54.262904 
Q 218.144152 65.287536 218.847423 71.593869 
Q 219.552604 77.884933 220.783327 77.884933 
Q 221.469397 77.884933 222.090492 76.266358 
Q 222.711586 74.632514 223.351792 71.151051 
L 223.351792 85.901458 
z
" clip-path="url(#pb40fbdfa5d)" style="fill: #0000ff"/>
   </g>
   <g id="patch_41">
    <path d="M 231.336 127.332103 
Q 230.701528 127.742473 230.015457 127.950043 
Q 229.329387 128.16 228.582162 128.16 
Q 226.353866 128.16 225.052434 126.604412 
Q 223.751002 125.048825 223.751002 122.388579 
Q 223.751002 119.71879 225.052434 118.165588 
Q 226.353866 116.61 228.582162 116.61 
Q 229.329387 116.61 230.015457 116.819957 
Q 230.701528 117.027527 231.336 117.437897 
L 231.336 119.740262 
Q 230.695795 119.196284 230.0747 118.943382 
Q 229.453606 118.690479 228.767535 118.690479 
Q 227.536812 118.690479 226.831631 119.675844 
Q 226.128361 120.658823 226.128361 122.388579 
Q 226.128361 124.111177 226.831631 125.096542 
Q 227.536812 126.079521 228.767535 126.079521 
Q 229.453606 126.079521 230.0747 125.826618 
Q 230.695795 125.57133 231.336 125.027352 
L 231.336 127.332103 
z
" clip-path="url(#pb40fbdfa5d)" style="fill: #0000ff"/>
   </g>
   <g id="patch_42">
    <path d="M 231.336 114.72898 
Q 230.571041 115.66949 229.748284 116.141892 
Q 228.925528 116.61 228.048374 116.61 
Q 226.066279 116.61 224.908641 113.809942 
Q 223.751002 111.009884 223.751002 106.221442 
Q 223.751002 101.37717 224.92904 98.598585 
Q 226.108777 95.82 228.160568 95.82 
Q 228.951026 95.82 229.675188 96.197922 
Q 230.40105 96.571549 231.043615 97.310215 
L 231.043615 101.454472 
Q 230.380651 100.505373 229.724485 100.037265 
Q 229.06832 99.564863 228.408755 99.564863 
Q 227.18822 99.564863 226.526955 101.291279 
Q 225.86569 103.0134 225.86569 106.221442 
Q 225.86569 109.399422 226.503156 111.134427 
Q 227.140622 112.865137 228.31356 112.865137 
Q 228.633143 112.865137 228.906829 112.766362 
Q 229.180514 112.663293 229.398103 112.448564 
L 229.398103 108.557686 
L 228.148669 108.557686 
L 228.148669 105.091971 
L 231.336 105.091971 
L 231.336 114.72898 
z
" clip-path="url(#pb40fbdfa5d)" style="fill: #ffa600"/>
   </g>
   <g id="patch_43">
    <path d="M 223.751002 63.48 
L 231.336 63.48 
L 231.336 69.787201 
L 228.607165 69.787201 
L 228.607165 95.82 
L 226.485129 95.82 
L 226.485129 69.787201 
L 223.751002 69.787201 
L 223.751002 63.48 
z
" clip-path="url(#pb40fbdfa5d)" style="fill: #ff0000"/>
   </g>
   <g id="patch_44">
    <path d="M 229.005137 55.063798 
L 226.088068 55.063798 
L 225.627479 63.48 
L 223.751002 63.48 
L 226.430797 17.28 
L 228.656205 17.28 
L 231.336 63.48 
L 229.461074 63.48 
L 229.005137 55.063798 
z
M 226.553311 46.489173 
L 228.535242 46.489173 
L 227.545827 28.112147 
L 226.553311 46.489173 
z
" clip-path="url(#pb40fbdfa5d)" style="fill: #008000"/>
   </g>
  </g>
 </g>
 <defs>
  <clipPath id="pb40fbdfa5d">
   <rect x="32.13" y="17.28" width="199.206" height="110.88"/>
  </clipPath>
 </defs>
</svg>
