<?xml version="1.0" encoding="utf-8" standalone="no"?>
<!DOCTYPE svg PUBLIC "-//W3C//DTD SVG 1.1//EN"
  "http://www.w3.org/Graphics/SVG/1.1/DTD/svg11.dtd">
<svg xmlns:xlink="http://www.w3.org/1999/xlink" width="216pt" height="144pt" viewBox="0 0 216 144" xmlns="http://www.w3.org/2000/svg" version="1.1">
 <metadata>
  <rdf:RDF xmlns:dc="http://purl.org/dc/elements/1.1/" xmlns:cc="http://creativecommons.org/ns#" xmlns:rdf="http://www.w3.org/1999/02/22-rdf-syntax-ns#">
   <cc:Work>
    <dc:type rdf:resource="http://purl.org/dc/dcmitype/StillImage"/>
    <dc:date>2024-11-11T17:06:36.956921</dc:date>
    <dc:format>image/svg+xml</dc:format>
    <dc:creator>
     <cc:Agent>
      <dc:title>Matplotlib v3.9.2, https://matplotlib.org/</dc:title>
     </cc:Agent>
    </dc:creator>
   </cc:Work>
  </rdf:RDF>
 </metadata>
 <defs>
  <style type="text/css">*{stroke-linejoin: round; stroke-linecap: butt}</style>
 </defs>
 <g id="figure_1">
  <g id="patch_1">
   <path d="M 0 144 
L 216 144 
L 216 0 
L 0 0 
z
" style="fill: #ffffff"/>
  </g>
  <g id="axes_1">
   <g id="line2d_1">
    <path d="M 27 128.16 
L 194.4 128.16 
" clip-path="url(#pf1997f0eda)" style="fill: none; stroke: #000000; stroke-width: 0.5; stroke-linecap: square"/>
   </g>
   <g id="patch_2">
    <path d="M 34.590931 120.212188 
Q 33.955963 124.151737 33.269355 126.144416 
Q 32.582748 128.16 31.834939 128.16 
Q 29.6049 128.16 28.30245 113.226358 
Q 27 98.292716 27 72.754357 
Q 27 47.124379 28.30245 32.213642 
Q 29.6049 17.28 31.834939 17.28 
Q 32.582748 17.28 33.269355 19.295584 
Q 33.955963 21.288263 34.590931 25.227812 
L 34.590931 47.330518 
Q 33.950225 42.108325 33.328644 39.680463 
Q 32.707064 37.252601 32.020457 37.252601 
Q 30.788771 37.252601 30.083039 46.712101 
Q 29.379218 56.148697 29.379218 72.754357 
Q 29.379218 89.291303 30.083039 98.750804 
Q 30.788771 108.187399 32.020457 108.187399 
Q 32.707064 108.187399 33.328644 105.759537 
Q 33.950225 103.308771 34.590931 98.086577 
L 34.590931 120.212188 
z
" clip-path="url(#pf1997f0eda)" style="fill: #0000ff"/>
   </g>
   <g id="patch_3">
    <path d="M 40.248698 121.427038 
L 37.329348 121.427038 
L 36.868398 128.16 
L 34.990453 128.16 
L 37.672344 91.2 
L 39.899493 91.2 
L 42.581384 128.16 
L 40.704992 128.16 
L 40.248698 121.427038 
z
M 37.794954 114.567338 
L 39.778436 114.567338 
L 38.788247 99.865718 
L 37.794954 114.567338 
z
" clip-path="url(#pf1997f0eda)" style="fill: #008000"/>
   </g>
   <g id="patch_4">
    <path d="M 42.581384 85.901458 
Q 41.946416 88.527825 41.259809 89.856278 
Q 40.573202 91.2 39.825392 91.2 
Q 37.595353 91.2 36.292903 81.244239 
Q 34.990453 71.288478 34.990453 54.262904 
Q 34.990453 37.176253 36.292903 27.235761 
Q 37.595353 17.28 39.825392 17.28 
Q 40.573202 17.28 41.259809 18.623722 
Q 41.946416 19.952175 42.581384 22.578542 
L 42.581384 37.313679 
Q 41.940678 33.832216 41.319098 32.213642 
Q 40.697518 30.595067 40.01091 30.595067 
Q 38.779225 30.595067 38.073492 36.901401 
Q 37.369672 43.192464 37.369672 54.262904 
Q 37.369672 65.287536 38.073492 71.593869 
Q 38.779225 77.884933 40.01091 77.884933 
Q 40.697518 77.884933 41.319098 76.266358 
Q 41.940678 74.632514 42.581384 71.151051 
L 42.581384 85.901458 
z
" clip-path="url(#pf1997f0eda)" style="fill: #0000ff"/>
   </g>
   <g id="patch_5">
    <path d="M 48.239151 107.961114 
L 45.319801 107.961114 
L 44.858851 128.16 
L 42.980907 128.16 
L 45.662798 17.28 
L 47.889947 17.28 
L 50.571838 128.16 
L 48.695445 128.16 
L 48.239151 107.961114 
z
M 45.785407 87.382015 
L 47.768889 87.382015 
L 46.7787 43.277154 
L 45.785407 87.382015 
z
" clip-path="url(#pf1997f0eda)" style="fill: #008000"/>
   </g>
   <g id="patch_6">
    <path d="M 58.562291 120.212188 
Q 57.927323 124.151737 57.240716 126.144416 
Q 56.554108 128.16 55.806299 128.16 
Q 53.57626 128.16 52.27381 113.226358 
Q 50.97136 98.292716 50.97136 72.754357 
Q 50.97136 47.124379 52.27381 32.213642 
Q 53.57626 17.28 55.806299 17.28 
Q 56.554108 17.28 57.240716 19.295584 
Q 57.927323 21.288263 58.562291 25.227812 
L 58.562291 47.330518 
Q 57.921585 42.108325 57.300005 39.680463 
Q 56.678424 37.252601 55.991817 37.252601 
Q 54.760132 37.252601 54.054399 46.712101 
Q 53.350579 56.148697 53.350579 72.754357 
Q 53.350579 89.291303 54.054399 98.750804 
Q 54.760132 108.187399 55.991817 108.187399 
Q 56.678424 108.187399 57.300005 105.759537 
Q 57.921585 103.308771 58.562291 98.086577 
L 58.562291 120.212188 
z
" clip-path="url(#pf1997f0eda)" style="fill: #0000ff"/>
   </g>
   <g id="patch_7">
    <path d="M 58.961814 17.28 
L 66.552745 17.28 
L 66.552745 38.904689 
L 63.821775 38.904689 
L 63.821775 128.16 
L 61.69808 128.16 
L 61.69808 38.904689 
L 58.961814 38.904689 
L 58.961814 17.28 
z
" clip-path="url(#pf1997f0eda)" style="fill: #ff0000"/>
   </g>
   <g id="patch_8">
    <path d="M 66.952267 17.28 
L 74.543198 17.28 
L 74.543198 38.904689 
L 71.812228 38.904689 
L 71.812228 128.16 
L 69.688533 128.16 
L 69.688533 38.904689 
L 66.952267 38.904689 
L 66.952267 17.28 
z
" clip-path="url(#pf1997f0eda)" style="fill: #ff0000"/>
   </g>
   <g id="patch_9">
    <path d="M 74.942721 17.28 
L 82.533652 17.28 
L 82.533652 38.904689 
L 79.802682 38.904689 
L 79.802682 128.16 
L 77.678987 128.16 
L 77.678987 38.904689 
L 74.942721 38.904689 
L 74.942721 17.28 
z
" clip-path="url(#pf1997f0eda)" style="fill: #ff0000"/>
   </g>
   <g id="patch_10">
    <path d="M 90.524105 118.127891 
Q 89.758547 123.143945 88.935147 125.663425 
Q 88.111747 128.16 87.233908 128.16 
Q 85.250262 128.16 84.091718 113.226358 
Q 82.933174 98.292716 82.933174 72.754357 
Q 82.933174 46.91824 84.112133 32.09912 
Q 85.292793 17.28 87.34619 17.28 
Q 88.137266 17.28 88.861994 19.295584 
Q 89.588423 21.288263 90.231492 25.227812 
L 90.231492 47.330518 
Q 89.568008 42.268655 88.91133 39.77208 
Q 88.254651 37.252601 87.594571 37.252601 
Q 86.373081 37.252601 85.711298 46.460153 
Q 85.049516 55.644801 85.049516 72.754357 
Q 85.049516 89.703582 85.687481 98.956943 
Q 86.325446 108.187399 87.499301 108.187399 
Q 87.819134 108.187399 88.093034 107.660599 
Q 88.366933 107.110894 88.584692 105.965677 
L 88.584692 85.214328 
L 87.334281 85.214328 
L 87.334281 66.73051 
L 90.524105 66.73051 
L 90.524105 118.127891 
z
" clip-path="url(#pf1997f0eda)" style="fill: #ffa600"/>
   </g>
   <g id="patch_11">
    <path d="M 90.923628 17.28 
L 98.514558 17.28 
L 98.514558 38.904689 
L 95.783589 38.904689 
L 95.783589 128.16 
L 93.659893 128.16 
L 93.659893 38.904689 
L 90.923628 38.904689 
L 90.923628 17.28 
z
" clip-path="url(#pf1997f0eda)" style="fill: #ff0000"/>
   </g>
   <g id="patch_12">
    <path d="M 104.172326 107.961114 
L 101.252976 107.961114 
L 100.792026 128.16 
L 98.914081 128.16 
L 101.595972 17.28 
L 103.823121 17.28 
L 106.505012 128.16 
L 104.62862 128.16 
L 104.172326 107.961114 
z
M 101.718582 87.382015 
L 103.702063 87.382015 
L 102.711875 43.277154 
L 101.718582 87.382015 
z
" clip-path="url(#pf1997f0eda)" style="fill: #008000"/>
   </g>
   <g id="patch_13">
    <path d="M 106.904535 17.28 
L 114.495465 17.28 
L 114.495465 38.904689 
L 111.764496 38.904689 
L 111.764496 128.16 
L 109.6408 128.16 
L 109.6408 38.904689 
L 106.904535 38.904689 
L 106.904535 17.28 
z
" clip-path="url(#pf1997f0eda)" style="fill: #ff0000"/>
   </g>
   <g id="patch_14">
    <path d="M 120.153232 107.961114 
L 117.233883 107.961114 
L 116.772933 128.16 
L 114.894988 128.16 
L 117.576879 17.28 
L 119.804028 17.28 
L 122.485919 128.16 
L 120.609526 128.16 
L 120.153232 107.961114 
z
M 117.699489 87.382015 
L 119.68297 87.382015 
L 118.692781 43.277154 
L 117.699489 87.382015 
z
" clip-path="url(#pf1997f0eda)" style="fill: #008000"/>
   </g>
   <g id="patch_15">
    <path d="M 130.476372 118.127891 
Q 129.710815 123.143945 128.887415 125.663425 
Q 128.064015 128.16 127.186175 128.16 
Q 125.20253 128.16 124.043986 113.226358 
Q 122.885442 98.292716 122.885442 72.754357 
Q 122.885442 46.91824 124.064401 32.09912 
Q 125.245061 17.28 127.298457 17.28 
Q 128.089533 17.28 128.814261 19.295584 
Q 129.540691 21.288263 130.183759 25.227812 
L 130.183759 47.330518 
Q 129.520276 42.268655 128.863597 39.77208 
Q 128.206919 37.252601 127.546838 37.252601 
Q 126.325348 37.252601 125.663566 46.460153 
Q 125.001784 55.644801 125.001784 72.754357 
Q 125.001784 89.703582 125.639748 98.956943 
Q 126.277713 108.187399 127.451568 108.187399 
Q 127.771401 108.187399 128.045301 107.660599 
Q 128.319201 107.110894 128.536959 105.965677 
L 128.536959 85.214328 
L 127.286548 85.214328 
L 127.286548 66.73051 
L 130.476372 66.73051 
L 130.476372 118.127891 
z
" clip-path="url(#pf1997f0eda)" style="fill: #ffa600"/>
   </g>
   <g id="patch_16">
    <path d="M 136.134139 107.961114 
L 133.214789 107.961114 
L 132.753839 128.16 
L 130.875895 128.16 
L 133.557786 17.28 
L 135.784935 17.28 
L 138.466826 128.16 
L 136.590433 128.16 
L 136.134139 107.961114 
z
M 133.680395 87.382015 
L 135.663877 87.382015 
L 134.673688 43.277154 
L 133.680395 87.382015 
z
" clip-path="url(#pf1997f0eda)" style="fill: #008000"/>
   </g>
   <g id="patch_17">
    <path d="M 144.124593 107.961114 
L 141.205243 107.961114 
L 140.744293 128.16 
L 138.866348 128.16 
L 141.548239 17.28 
L 143.775388 17.28 
L 146.457279 128.16 
L 144.580887 128.16 
L 144.124593 107.961114 
z
M 141.670849 87.382015 
L 143.654331 87.382015 
L 142.664142 43.277154 
L 141.670849 87.382015 
z
" clip-path="url(#pf1997f0eda)" style="fill: #008000"/>
   </g>
   <g id="patch_18">
    <path d="M 152.115046 107.961114 
L 149.195696 107.961114 
L 148.734746 128.16 
L 146.856802 128.16 
L 149.538693 17.28 
L 151.765842 17.28 
L 154.447733 128.16 
L 152.57134 128.16 
L 152.115046 107.961114 
z
M 149.661302 87.382015 
L 151.644784 87.382015 
L 150.654595 43.277154 
L 149.661302 87.382015 
z
" clip-path="url(#pf1997f0eda)" style="fill: #008000"/>
   </g>
   <g id="patch_19">
    <path d="M 160.1055 107.961114 
L 157.18615 107.961114 
L 156.7252 128.16 
L 154.847255 128.16 
L 157.529146 17.28 
L 159.756295 17.28 
L 162.438186 128.16 
L 160.561794 128.16 
L 160.1055 107.961114 
z
M 157.651756 87.382015 
L 159.635238 87.382015 
L 158.645049 43.277154 
L 157.651756 87.382015 
z
" clip-path="url(#pf1997f0eda)" style="fill: #008000"/>
   </g>
   <g id="patch_20">
    <path d="M 170.42864 118.127891 
Q 169.663082 123.143945 168.839682 125.663425 
Q 168.016282 128.16 167.138442 128.16 
Q 165.154797 128.16 163.996253 113.226358 
Q 162.837709 98.292716 162.837709 72.754357 
Q 162.837709 46.91824 164.016668 32.09912 
Q 165.197328 17.28 167.250724 17.28 
Q 168.041801 17.28 168.766529 19.295584 
Q 169.492958 21.288263 170.136026 25.227812 
L 170.136026 47.330518 
Q 169.472543 42.268655 168.815865 39.77208 
Q 168.159186 37.252601 167.499105 37.252601 
Q 166.277615 37.252601 165.615833 46.460153 
Q 164.954051 55.644801 164.954051 72.754357 
Q 164.954051 89.703582 165.592016 98.956943 
Q 166.22998 108.187399 167.403836 108.187399 
Q 167.723669 108.187399 167.997568 107.660599 
Q 168.271468 107.110894 168.489227 105.965677 
L 168.489227 85.214328 
L 167.238815 85.214328 
L 167.238815 66.73051 
L 170.42864 66.73051 
L 170.42864 118.127891 
z
" clip-path="url(#pf1997f0eda)" style="fill: #ffa600"/>
   </g>
   <g id="patch_21">
    <path d="M 170.828162 17.28 
L 178.419093 17.28 
L 178.419093 38.904689 
L 175.688123 38.904689 
L 175.688123 128.16 
L 173.564428 128.16 
L 173.564428 38.904689 
L 170.828162 38.904689 
L 170.828162 17.28 
z
" clip-path="url(#pf1997f0eda)" style="fill: #ff0000"/>
   </g>
   <g id="patch_22">
    <path d="M 186.409547 124.815964 
Q 185.643989 126.487982 184.820589 127.327808 
Q 183.997189 128.16 183.119349 128.16 
Q 181.135704 128.16 179.97716 123.182119 
Q 178.818616 118.204239 178.818616 109.691452 
Q 178.818616 101.079413 179.997575 96.139707 
Q 181.178235 91.2 183.231631 91.2 
Q 184.022707 91.2 184.747436 91.871861 
Q 185.473865 92.536088 186.116933 93.849271 
L 186.116933 101.216839 
Q 185.45345 99.529552 184.796771 98.69736 
Q 184.140093 97.857534 183.480012 97.857534 
Q 182.258522 97.857534 181.59674 100.926718 
Q 180.934958 103.988267 180.934958 109.691452 
Q 180.934958 115.341194 181.572923 118.425648 
Q 182.210887 121.502466 183.384743 121.502466 
Q 183.704576 121.502466 183.978475 121.326866 
Q 184.252375 121.143631 184.470133 120.761892 
L 184.470133 113.844776 
L 183.219722 113.844776 
L 183.219722 107.683503 
L 186.409547 107.683503 
L 186.409547 124.815964 
z
" clip-path="url(#pf1997f0eda)" style="fill: #ffa600"/>
   </g>
   <g id="patch_23">
    <path d="M 178.818616 17.28 
L 186.409547 17.28 
L 186.409547 31.696459 
L 183.678577 31.696459 
L 183.678577 91.2 
L 181.554882 91.2 
L 181.554882 31.696459 
L 178.818616 31.696459 
L 178.818616 17.28 
z
" clip-path="url(#pf1997f0eda)" style="fill: #ff0000"/>
   </g>
   <g id="patch_24">
    <path d="M 194.4 118.127891 
Q 193.634442 123.143945 192.811042 125.663425 
Q 191.987642 128.16 191.109803 128.16 
Q 189.126157 128.16 187.967613 113.226358 
Q 186.809069 98.292716 186.809069 72.754357 
Q 186.809069 46.91824 187.988028 32.09912 
Q 189.168688 17.28 191.222085 17.28 
Q 192.013161 17.28 192.737889 19.295584 
Q 193.464318 21.288263 194.107387 25.227812 
L 194.107387 47.330518 
Q 193.443903 42.268655 192.787225 39.77208 
Q 192.130546 37.252601 191.470466 37.252601 
Q 190.248976 37.252601 189.587193 46.460153 
Q 188.925411 55.644801 188.925411 72.754357 
Q 188.925411 89.703582 189.563376 98.956943 
Q 190.201341 108.187399 191.375196 108.187399 
Q 191.695029 108.187399 191.968929 107.660599 
Q 192.242828 107.110894 192.460587 105.965677 
L 192.460587 85.214328 
L 191.210176 85.214328 
L 191.210176 66.73051 
L 194.4 66.73051 
L 194.4 118.127891 
z
" clip-path="url(#pf1997f0eda)" style="fill: #ffa600"/>
   </g>
  </g>
 </g>
 <defs>
  <clipPath id="pf1997f0eda">
   <rect x="27" y="17.28" width="167.4" height="110.88"/>
  </clipPath>
 </defs>
</svg>
