<?xml version="1.0" encoding="utf-8" standalone="no"?>
<!DOCTYPE svg PUBLIC "-//W3C//DTD SVG 1.1//EN"
  "http://www.w3.org/Graphics/SVG/1.1/DTD/svg11.dtd">
<svg xmlns:xlink="http://www.w3.org/1999/xlink" width="257.04pt" height="144pt" viewBox="0 0 257.04 144" xmlns="http://www.w3.org/2000/svg" version="1.1">
 <metadata>
  <rdf:RDF xmlns:dc="http://purl.org/dc/elements/1.1/" xmlns:cc="http://creativecommons.org/ns#" xmlns:rdf="http://www.w3.org/1999/02/22-rdf-syntax-ns#">
   <cc:Work>
    <dc:type rdf:resource="http://purl.org/dc/dcmitype/StillImage"/>
    <dc:date>2024-11-11T17:06:40.923443</dc:date>
    <dc:format>image/svg+xml</dc:format>
    <dc:creator>
     <cc:Agent>
      <dc:title>Matplotlib v3.9.2, https://matplotlib.org/</dc:title>
     </cc:Agent>
    </dc:creator>
   </cc:Work>
  </rdf:RDF>
 </metadata>
 <defs>
  <style type="text/css">*{stroke-linejoin: round; stroke-linecap: butt}</style>
 </defs>
 <g id="figure_1">
  <g id="patch_1">
   <path d="M 0 144 
L 257.04 144 
L 257.04 0 
L 0 0 
z
" style="fill: #ffffff"/>
  </g>
  <g id="axes_1">
   <g id="line2d_1">
    <path d="M 32.13 128.16 
L 231.336 128.16 
" clip-path="url(#pb203877c3c)" style="fill: none; stroke: #000000; stroke-width: 0.5; stroke-linecap: square"/>
   </g>
   <g id="patch_2">
    <path d="M 39.714998 127.654786 
Q 38.950039 127.907393 38.127282 128.034273 
Q 37.304526 128.16 36.427372 128.16 
Q 34.445277 128.16 33.287639 127.407946 
Q 32.13 126.655892 32.13 125.369788 
Q 32.13 124.068688 33.308038 123.322402 
Q 34.487775 122.576115 36.539566 122.576115 
Q 37.330024 122.576115 38.054186 122.677619 
Q 38.780048 122.77797 39.422613 122.976365 
L 39.422613 124.089451 
Q 38.759649 123.834537 38.103483 123.70881 
Q 37.447318 123.58193 36.787753 123.58193 
Q 35.567218 123.58193 34.905953 124.045619 
Q 34.244688 124.508155 34.244688 125.369788 
Q 34.244688 126.223346 34.882154 126.689342 
Q 35.51962 127.154186 36.692558 127.154186 
Q 37.012141 127.154186 37.285827 127.127656 
Q 37.559512 127.099973 37.777101 127.0423 
L 37.777101 125.997268 
L 36.527667 125.997268 
L 36.527667 125.066429 
L 39.714998 125.066429 
L 39.714998 127.654786 
z
" clip-path="url(#pb203877c3c)" style="fill: #ffa600"/>
   </g>
   <g id="patch_3">
    <path d="M 32.13 114.599137 
L 39.714998 114.599137 
L 39.714998 116.15487 
L 36.986163 116.15487 
L 36.986163 122.576115 
L 34.864127 122.576115 
L 34.864127 116.15487 
L 32.13 116.15487 
L 32.13 114.599137 
z
" clip-path="url(#pb203877c3c)" style="fill: #ff0000"/>
   </g>
   <g id="patch_4">
    <path d="M 39.714998 113.512745 
Q 39.080526 114.051245 38.394455 114.323625 
Q 37.708385 114.599137 36.96116 114.599137 
Q 34.732864 114.599137 33.431432 112.557848 
Q 32.13 110.516558 32.13 107.025703 
Q 32.13 103.522325 33.431432 101.484167 
Q 34.732864 99.442878 36.96116 99.442878 
Q 37.708385 99.442878 38.394455 99.718389 
Q 39.080526 99.99077 39.714998 100.529269 
L 39.714998 103.550503 
Q 39.074793 102.836677 38.453698 102.504811 
Q 37.832604 102.172945 37.146533 102.172945 
Q 35.91581 102.172945 35.210629 103.465971 
Q 34.507359 104.755865 34.507359 107.025703 
Q 34.507359 109.286149 35.210629 110.579175 
Q 35.91581 111.869069 37.146533 111.869069 
Q 37.832604 111.869069 38.453698 111.537203 
Q 39.074793 111.202206 39.714998 110.488381 
L 39.714998 113.512745 
z
" clip-path="url(#pb203877c3c)" style="fill: #0000ff"/>
   </g>
   <g id="patch_5">
    <path d="M 37.384135 85.492568 
L 34.467066 85.492568 
L 34.006477 99.442878 
L 32.13 99.442878 
L 34.809795 22.863885 
L 37.035203 22.863885 
L 39.714998 99.442878 
L 37.840072 99.442878 
L 37.384135 85.492568 
z
M 34.932309 71.279665 
L 36.91424 71.279665 
L 35.924825 40.818754 
L 34.932309 71.279665 
z
" clip-path="url(#pb203877c3c)" style="fill: #008000"/>
   </g>
   <g id="patch_6">
    <path d="M 47.699206 120.212188 
Q 47.064734 124.151737 46.378664 126.144416 
Q 45.692593 128.16 44.945369 128.16 
Q 42.717072 128.16 41.41564 113.226358 
Q 40.114208 98.292716 40.114208 72.754357 
Q 40.114208 47.124379 41.41564 32.213642 
Q 42.717072 17.28 44.945369 17.28 
Q 45.692593 17.28 46.378664 19.295584 
Q 47.064734 21.288263 47.699206 25.227812 
L 47.699206 47.330518 
Q 47.059001 42.108325 46.437907 39.680463 
Q 45.816812 37.252601 45.130741 37.252601 
Q 43.900019 37.252601 43.194837 46.712101 
Q 42.491567 56.148697 42.491567 72.754357 
Q 42.491567 89.291303 43.194837 98.750804 
Q 43.900019 108.187399 45.130741 108.187399 
Q 45.816812 108.187399 46.437907 105.759537 
Q 47.059001 103.308771 47.699206 98.086577 
L 47.699206 120.212188 
z
" clip-path="url(#pb203877c3c)" style="fill: #0000ff"/>
   </g>
   <g id="patch_7">
    <path d="M 48.098417 127.362302 
L 55.683415 127.362302 
L 55.683415 127.517875 
L 52.95458 127.517875 
L 52.95458 128.16 
L 50.832544 128.16 
L 50.832544 127.517875 
L 48.098417 127.517875 
L 48.098417 127.362302 
z
" clip-path="url(#pb203877c3c)" style="fill: #ff0000"/>
   </g>
   <g id="patch_8">
    <path d="M 53.352552 117.91678 
L 50.435483 117.91678 
L 49.974894 127.362302 
L 48.098417 127.362302 
L 50.778212 75.511942 
L 53.00362 75.511942 
L 55.683415 127.362302 
L 53.808489 127.362302 
L 53.352552 117.91678 
z
M 50.900725 108.29346 
L 52.882657 108.29346 
L 51.893242 87.668885 
L 50.900725 108.29346 
z
" clip-path="url(#pb203877c3c)" style="fill: #008000"/>
   </g>
   <g id="patch_9">
    <path d="M 55.683415 71.337911 
Q 55.048943 73.406884 54.362872 74.453399 
Q 53.676802 75.511942 52.929577 75.511942 
Q 50.701281 75.511942 49.399849 67.669095 
Q 48.098417 59.826247 48.098417 46.414015 
Q 48.098417 32.953667 49.399849 25.122848 
Q 50.701281 17.28 52.929577 17.28 
Q 53.676802 17.28 54.362872 18.338544 
Q 55.048943 19.385059 55.683415 21.454031 
L 55.683415 33.061927 
Q 55.04321 30.319336 54.422115 29.044272 
Q 53.801021 27.769208 53.11495 27.769208 
Q 51.884227 27.769208 51.179046 32.737146 
Q 50.475776 37.693056 50.475776 46.414015 
Q 50.475776 55.098886 51.179046 60.066825 
Q 51.884227 65.022735 53.11495 65.022735 
Q 53.801021 65.022735 54.422115 63.747671 
Q 55.04321 62.460578 55.683415 59.717987 
L 55.683415 71.337911 
z
" clip-path="url(#pb203877c3c)" style="fill: #0000ff"/>
   </g>
   <g id="patch_10">
    <path d="M 56.082625 127.362302 
L 63.667623 127.362302 
L 63.667623 127.517875 
L 60.938788 127.517875 
L 60.938788 128.16 
L 58.816752 128.16 
L 58.816752 127.517875 
L 56.082625 127.517875 
L 56.082625 127.362302 
z
" clip-path="url(#pb203877c3c)" style="fill: #ff0000"/>
   </g>
   <g id="patch_11">
    <path d="M 61.33676 107.308732 
L 58.419692 107.308732 
L 57.959102 127.362302 
L 56.082625 127.362302 
L 58.76242 17.28 
L 60.987828 17.28 
L 63.667623 127.362302 
L 61.792697 127.362302 
L 61.33676 107.308732 
z
M 58.884934 86.877684 
L 60.866865 86.877684 
L 59.87745 43.090124 
L 58.884934 86.877684 
z
" clip-path="url(#pb203877c3c)" style="fill: #008000"/>
   </g>
   <g id="patch_12">
    <path d="M 69.320968 128.014684 
L 66.4039 128.014684 
L 65.94331 128.16 
L 64.066834 128.16 
L 66.746629 127.362302 
L 68.972037 127.362302 
L 71.651832 128.16 
L 69.776906 128.16 
L 69.320968 128.014684 
z
M 66.869142 127.866633 
L 68.851074 127.866633 
L 67.861659 127.549332 
L 66.869142 127.866633 
z
" clip-path="url(#pb203877c3c)" style="fill: #008000"/>
   </g>
   <g id="patch_13">
    <path d="M 71.651832 124.764058 
Q 70.886872 126.06318 70.064116 126.715707 
Q 69.241359 127.362302 68.364206 127.362302 
Q 66.382111 127.362302 65.224472 123.494596 
Q 64.066834 119.626891 64.066834 113.012639 
Q 64.066834 106.321271 65.244871 102.483225 
Q 66.424609 98.64518 68.4764 98.64518 
Q 69.266858 98.64518 69.99102 99.167201 
Q 70.716881 99.683291 71.359447 100.703606 
L 71.359447 106.428048 
Q 70.696482 105.117062 70.040317 104.470467 
Q 69.384152 103.81794 68.724587 103.81794 
Q 67.504051 103.81794 66.842787 106.20263 
Q 66.181522 108.581387 66.181522 113.012639 
Q 66.181522 117.402367 66.818988 119.79892 
Q 67.456454 122.189542 68.629392 122.189542 
Q 68.948975 122.189542 69.22266 122.053105 
Q 69.496346 121.910735 69.713934 121.614132 
L 69.713934 116.239682 
L 68.464501 116.239682 
L 68.464501 111.452506 
L 71.651832 111.452506 
L 71.651832 124.764058 
z
" clip-path="url(#pb203877c3c)" style="fill: #ffa600"/>
   </g>
   <g id="patch_14">
    <path d="M 71.651832 92.812972 
Q 71.01736 95.703865 70.331289 97.166119 
Q 69.645218 98.64518 68.897994 98.64518 
Q 66.669698 98.64518 65.368266 87.68668 
Q 64.066834 76.72818 64.066834 57.987801 
Q 64.066834 39.180192 65.368266 28.2385 
Q 66.669698 17.28 68.897994 17.28 
Q 69.645218 17.28 70.331289 18.759061 
Q 71.01736 20.221315 71.651832 23.112208 
L 71.651832 39.33146 
Q 71.011626 35.499346 70.390532 33.71775 
Q 69.769437 31.936153 69.083367 31.936153 
Q 67.852644 31.936153 67.147463 38.877657 
Q 66.444193 45.802353 66.444193 57.987801 
Q 66.444193 70.122827 67.147463 77.064331 
Q 67.852644 83.989027 69.083367 83.989027 
Q 69.769437 83.989027 70.390532 82.20743 
Q 71.011626 80.409026 71.651832 76.576913 
L 71.651832 92.812972 
z
" clip-path="url(#pb203877c3c)" style="fill: #0000ff"/>
   </g>
   <g id="patch_15">
    <path d="M 72.051042 17.28 
L 79.63604 17.28 
L 79.63604 38.904689 
L 76.907205 38.904689 
L 76.907205 128.16 
L 74.785169 128.16 
L 74.785169 38.904689 
L 72.051042 38.904689 
L 72.051042 17.28 
z
" clip-path="url(#pb203877c3c)" style="fill: #ff0000"/>
   </g>
   <g id="patch_16">
    <path d="M 85.289385 128.014684 
L 82.372317 128.014684 
L 81.911727 128.16 
L 80.035251 128.16 
L 82.715045 127.362302 
L 84.940454 127.362302 
L 87.620248 128.16 
L 85.745323 128.16 
L 85.289385 128.014684 
z
M 82.837559 127.866633 
L 84.819491 127.866633 
L 83.830076 127.549332 
L 82.837559 127.866633 
z
" clip-path="url(#pb203877c3c)" style="fill: #008000"/>
   </g>
   <g id="patch_17">
    <path d="M 80.035251 17.28 
L 87.620248 17.28 
L 87.620248 38.749116 
L 84.891413 38.749116 
L 84.891413 127.362302 
L 82.769378 127.362302 
L 82.769378 38.749116 
L 80.035251 38.749116 
L 80.035251 17.28 
z
" clip-path="url(#pb203877c3c)" style="fill: #ff0000"/>
   </g>
   <g id="patch_18">
    <path d="M 88.019459 17.28 
L 95.604457 17.28 
L 95.604457 38.904689 
L 92.875622 38.904689 
L 92.875622 128.16 
L 90.753586 128.16 
L 90.753586 38.904689 
L 88.019459 38.904689 
L 88.019459 17.28 
z
" clip-path="url(#pb203877c3c)" style="fill: #ff0000"/>
   </g>
   <g id="patch_19">
    <path d="M 103.588665 118.127891 
Q 102.823706 123.143945 102.000949 125.663425 
Q 101.178193 128.16 100.30104 128.16 
Q 98.318945 128.16 97.161306 113.226358 
Q 96.003667 98.292716 96.003667 72.754357 
Q 96.003667 46.91824 97.181705 32.09912 
Q 98.361442 17.28 100.413234 17.28 
Q 101.203692 17.28 101.927853 19.295584 
Q 102.653715 21.288263 103.296281 25.227812 
L 103.296281 47.330518 
Q 102.633316 42.268655 101.977151 39.77208 
Q 101.320986 37.252601 100.66142 37.252601 
Q 99.440885 37.252601 98.77962 46.460153 
Q 98.118355 55.644801 98.118355 72.754357 
Q 98.118355 89.703582 98.755821 98.956943 
Q 99.393288 108.187399 100.566226 108.187399 
Q 100.885809 108.187399 101.159494 107.660599 
Q 101.43318 107.110894 101.650768 105.965677 
L 101.650768 85.214328 
L 100.401334 85.214328 
L 100.401334 66.73051 
L 103.588665 66.73051 
L 103.588665 118.127891 
z
" clip-path="url(#pb203877c3c)" style="fill: #ffa600"/>
   </g>
   <g id="patch_20">
    <path d="M 103.987876 17.28 
L 111.572874 17.28 
L 111.572874 38.904689 
L 108.844038 38.904689 
L 108.844038 128.16 
L 106.722003 128.16 
L 106.722003 38.904689 
L 103.987876 38.904689 
L 103.987876 17.28 
z
" clip-path="url(#pb203877c3c)" style="fill: #ff0000"/>
   </g>
   <g id="patch_21">
    <path d="M 117.226219 107.961114 
L 114.309151 107.961114 
L 113.848561 128.16 
L 111.972084 128.16 
L 114.651879 17.28 
L 116.877287 17.28 
L 119.557082 128.16 
L 117.682156 128.16 
L 117.226219 107.961114 
z
M 114.774393 87.382015 
L 116.756324 87.382015 
L 115.766909 43.277154 
L 114.774393 87.382015 
z
" clip-path="url(#pb203877c3c)" style="fill: #008000"/>
   </g>
   <g id="patch_22">
    <path d="M 119.956293 122.576115 
L 127.541291 122.576115 
L 127.541291 123.665128 
L 124.812455 123.665128 
L 124.812455 128.16 
L 122.69042 128.16 
L 122.69042 123.665128 
L 119.956293 123.665128 
L 119.956293 122.576115 
z
" clip-path="url(#pb203877c3c)" style="fill: #ff0000"/>
   </g>
   <g id="patch_23">
    <path d="M 127.541291 115.028552 
Q 126.906819 118.769707 126.220748 120.662036 
Q 125.534677 122.576115 124.787453 122.576115 
Q 122.559157 122.576115 121.257725 108.394527 
Q 119.956293 94.212939 119.956293 69.960684 
Q 119.956293 45.621425 121.257725 31.461588 
Q 122.559157 17.28 124.787453 17.28 
Q 125.534677 17.28 126.220748 19.194079 
Q 126.906819 21.086408 127.541291 24.827563 
L 127.541291 45.817183 
Q 126.901085 40.857977 126.279991 38.552382 
Q 125.658896 36.246786 124.972826 36.246786 
Q 123.742103 36.246786 123.036922 45.229909 
Q 122.333651 54.19128 122.333651 69.960684 
Q 122.333651 85.664835 123.036922 94.647957 
Q 123.742103 103.609329 124.972826 103.609329 
Q 125.658896 103.609329 126.279991 101.303733 
Q 126.901085 98.976387 127.541291 94.017181 
L 127.541291 115.028552 
z
" clip-path="url(#pb203877c3c)" style="fill: #0000ff"/>
   </g>
   <g id="patch_24">
    <path d="M 133.194636 107.961114 
L 130.277567 107.961114 
L 129.816978 128.16 
L 127.940501 128.16 
L 130.620296 17.28 
L 132.845704 17.28 
L 135.525499 128.16 
L 133.650573 128.16 
L 133.194636 107.961114 
z
M 130.74281 87.382015 
L 132.724741 87.382015 
L 131.735326 43.277154 
L 130.74281 87.382015 
z
" clip-path="url(#pb203877c3c)" style="fill: #008000"/>
   </g>
   <g id="patch_25">
    <path d="M 143.509707 128.045643 
Q 142.875235 128.102327 142.189165 128.130999 
Q 141.503094 128.16 140.75587 128.16 
Q 138.527573 128.16 137.226141 127.945127 
Q 135.924709 127.730255 135.924709 127.362796 
Q 135.924709 126.99402 137.226141 126.779477 
Q 138.527573 126.564604 140.75587 126.564604 
Q 141.503094 126.564604 142.189165 126.593606 
Q 142.875235 126.622277 143.509707 126.678961 
L 143.509707 126.996986 
Q 142.869502 126.921846 142.248408 126.886913 
Q 141.627313 126.85198 140.941242 126.85198 
Q 139.71052 126.85198 139.005338 126.988088 
Q 138.302068 127.123866 138.302068 127.362796 
Q 138.302068 127.600738 139.005338 127.736846 
Q 139.71052 127.872624 140.941242 127.872624 
Q 141.627313 127.872624 142.248408 127.837691 
Q 142.869502 127.802428 143.509707 127.727289 
L 143.509707 128.045643 
z
" clip-path="url(#pb203877c3c)" style="fill: #0000ff"/>
   </g>
   <g id="patch_26">
    <path d="M 143.509707 126.348084 
Q 142.744748 126.456344 141.921992 126.510721 
Q 141.099235 126.564604 140.222082 126.564604 
Q 138.239987 126.564604 137.082348 126.242296 
Q 135.924709 125.919987 135.924709 125.368799 
Q 135.924709 124.811185 137.102747 124.491348 
Q 138.282484 124.171511 140.334276 124.171511 
Q 141.124734 124.171511 141.848895 124.215013 
Q 142.574757 124.25802 143.217323 124.343046 
L 143.217323 124.820083 
Q 142.554358 124.710834 141.898193 124.656951 
Q 141.242028 124.602574 140.582463 124.602574 
Q 139.361927 124.602574 138.700662 124.801298 
Q 138.039397 124.999528 138.039397 125.368799 
Q 138.039397 125.73461 138.676864 125.934323 
Q 139.31433 126.133541 140.487268 126.133541 
Q 140.806851 126.133541 141.080536 126.122171 
Q 141.354222 126.110307 141.57181 126.08559 
L 141.57181 125.637719 
L 140.322376 125.637719 
L 140.322376 125.238788 
L 143.509707 125.238788 
L 143.509707 126.348084 
z
" clip-path="url(#pb203877c3c)" style="fill: #ffa600"/>
   </g>
   <g id="patch_27">
    <path d="M 141.178844 104.699204 
L 138.261776 104.699204 
L 137.801186 124.171511 
L 135.924709 124.171511 
L 138.604504 17.28 
L 140.829913 17.28 
L 143.509707 124.171511 
L 141.634782 124.171511 
L 141.178844 104.699204 
z
M 138.727018 84.860359 
L 140.70895 84.860359 
L 139.719535 42.342004 
L 138.727018 84.860359 
z
" clip-path="url(#pb203877c3c)" style="fill: #008000"/>
   </g>
   <g id="patch_28">
    <path d="M 143.908918 126.564604 
L 151.493916 126.564604 
L 151.493916 126.875751 
L 148.765081 126.875751 
L 148.765081 128.16 
L 146.643045 128.16 
L 146.643045 126.875751 
L 143.908918 126.875751 
L 143.908918 126.564604 
z
" clip-path="url(#pb203877c3c)" style="fill: #ff0000"/>
   </g>
   <g id="patch_29">
    <path d="M 149.163053 118.862871 
L 146.245984 118.862871 
L 145.785395 126.564604 
L 143.908918 126.564604 
L 146.588713 84.286619 
L 148.814121 84.286619 
L 151.493916 126.564604 
L 149.61899 126.564604 
L 149.163053 118.862871 
z
M 146.711226 111.016164 
L 148.693158 111.016164 
L 147.703743 94.199203 
L 146.711226 111.016164 
z
" clip-path="url(#pb203877c3c)" style="fill: #008000"/>
   </g>
   <g id="patch_30">
    <path d="M 151.493916 78.224049 
Q 150.728956 81.255334 149.9062 82.777897 
Q 149.083444 84.286619 148.20629 84.286619 
Q 146.224195 84.286619 145.066556 75.261972 
Q 143.908918 66.237325 143.908918 50.804072 
Q 143.908918 35.190879 145.086955 26.235439 
Q 146.266693 17.28 148.318484 17.28 
Q 149.108942 17.28 149.833104 18.49805 
Q 150.558965 19.70226 151.201531 22.082995 
L 151.201531 35.440026 
Q 150.538566 32.381058 149.882401 30.872336 
Q 149.226236 29.349773 148.566671 29.349773 
Q 147.346136 29.349773 146.684871 34.914049 
Q 146.023606 40.464484 146.023606 50.804072 
Q 146.023606 61.046769 146.661072 66.638728 
Q 147.298538 72.216846 148.471476 72.216846 
Q 148.791059 72.216846 149.064745 71.898492 
Q 149.33843 71.566296 149.556019 70.874222 
L 149.556019 58.333838 
L 148.306585 58.333838 
L 148.306585 47.163762 
L 151.493916 47.163762 
L 151.493916 78.224049 
z
" clip-path="url(#pb203877c3c)" style="fill: #ffa600"/>
   </g>
   <g id="patch_31">
    <path d="M 157.147261 107.961114 
L 154.230193 107.961114 
L 153.769603 128.16 
L 151.893126 128.16 
L 154.572921 17.28 
L 156.798329 17.28 
L 159.478124 128.16 
L 157.603198 128.16 
L 157.147261 107.961114 
z
M 154.695435 87.382015 
L 156.677366 87.382015 
L 155.687951 43.277154 
L 154.695435 87.382015 
z
" clip-path="url(#pb203877c3c)" style="fill: #008000"/>
   </g>
   <g id="patch_32">
    <path d="M 165.131469 107.961114 
L 162.214401 107.961114 
L 161.753811 128.16 
L 159.877335 128.16 
L 162.55713 17.28 
L 164.782538 17.28 
L 167.462333 128.16 
L 165.587407 128.16 
L 165.131469 107.961114 
z
M 162.679643 87.382015 
L 164.661575 87.382015 
L 163.67216 43.277154 
L 162.679643 87.382015 
z
" clip-path="url(#pb203877c3c)" style="fill: #008000"/>
   </g>
   <g id="patch_33">
    <path d="M 173.115678 107.961114 
L 170.19861 107.961114 
L 169.73802 128.16 
L 167.861543 128.16 
L 170.541338 17.28 
L 172.766746 17.28 
L 175.446541 128.16 
L 173.571615 128.16 
L 173.115678 107.961114 
z
M 170.663852 87.382015 
L 172.645783 87.382015 
L 171.656368 43.277154 
L 170.663852 87.382015 
z
" clip-path="url(#pb203877c3c)" style="fill: #008000"/>
   </g>
   <g id="patch_34">
    <path d="M 183.430749 128.045643 
Q 182.796278 128.102327 182.110207 128.130999 
Q 181.424136 128.16 180.676912 128.16 
Q 178.448616 128.16 177.147184 127.945127 
Q 175.845752 127.730255 175.845752 127.362796 
Q 175.845752 126.99402 177.147184 126.779477 
Q 178.448616 126.564604 180.676912 126.564604 
Q 181.424136 126.564604 182.110207 126.593606 
Q 182.796278 126.622277 183.430749 126.678961 
L 183.430749 126.996986 
Q 182.790544 126.921846 182.16945 126.886913 
Q 181.548355 126.85198 180.862285 126.85198 
Q 179.631562 126.85198 178.926381 126.988088 
Q 178.22311 127.123866 178.22311 127.362796 
Q 178.22311 127.600738 178.926381 127.736846 
Q 179.631562 127.872624 180.862285 127.872624 
Q 181.548355 127.872624 182.16945 127.837691 
Q 182.790544 127.802428 183.430749 127.727289 
L 183.430749 128.045643 
z
" clip-path="url(#pb203877c3c)" style="fill: #0000ff"/>
   </g>
   <g id="patch_35">
    <path d="M 175.845752 124.969209 
L 183.430749 124.969209 
L 183.430749 125.280355 
L 180.701914 125.280355 
L 180.701914 126.564604 
L 178.579879 126.564604 
L 178.579879 125.280355 
L 175.845752 125.280355 
L 175.845752 124.969209 
z
" clip-path="url(#pb203877c3c)" style="fill: #ff0000"/>
   </g>
   <g id="patch_36">
    <path d="M 183.430749 115.225793 
Q 182.66579 120.097501 181.843034 122.544477 
Q 181.020277 124.969209 180.143124 124.969209 
Q 178.161029 124.969209 177.00339 110.465312 
Q 175.845752 95.961415 175.845752 71.157972 
Q 175.845752 46.065341 177.023789 31.672671 
Q 178.203527 17.28 180.255318 17.28 
Q 181.045776 17.28 181.769938 19.237581 
Q 182.495799 21.172917 183.138365 24.999098 
L 183.138365 46.465755 
Q 182.4754 41.549557 181.819235 39.124826 
Q 181.16307 36.67785 180.503505 36.67785 
Q 179.282969 36.67785 178.621704 45.620436 
Q 177.960439 54.540778 177.960439 71.157972 
Q 177.960439 87.61945 178.597906 96.606527 
Q 179.235372 105.571359 180.40831 105.571359 
Q 180.727893 105.571359 181.001578 105.059719 
Q 181.275264 104.525833 181.492852 103.413571 
L 181.492852 83.259383 
L 180.243418 83.259383 
L 180.243418 65.307474 
L 183.430749 65.307474 
L 183.430749 115.225793 
z
" clip-path="url(#pb203877c3c)" style="fill: #ffa600"/>
   </g>
   <g id="patch_37">
    <path d="M 191.414958 128.087827 
Q 190.649998 128.123913 189.827242 128.142039 
Q 189.004486 128.16 188.127332 128.16 
Q 186.145237 128.16 184.987599 128.052564 
Q 183.82996 127.945127 183.82996 127.761398 
Q 183.82996 127.575527 185.007997 127.468915 
Q 186.187735 127.362302 188.239526 127.362302 
Q 189.029984 127.362302 189.754146 127.376803 
Q 190.480007 127.391139 191.122573 127.419481 
L 191.122573 127.578493 
Q 190.459609 127.542077 189.803443 127.524116 
Q 189.147278 127.50599 188.487713 127.50599 
Q 187.267178 127.50599 186.605913 127.572231 
Q 185.944648 127.638308 185.944648 127.761398 
Q 185.944648 127.883335 186.582114 127.949906 
Q 187.21958 128.016312 188.392518 128.016312 
Q 188.712101 128.016312 188.985787 128.012522 
Q 189.259472 128.008568 189.477061 128.000329 
L 189.477061 127.851038 
L 188.227627 127.851038 
L 188.227627 127.718061 
L 191.414958 127.718061 
L 191.414958 128.087827 
z
" clip-path="url(#pb203877c3c)" style="fill: #ffa600"/>
   </g>
   <g id="patch_38">
    <path d="M 189.084095 127.071671 
L 186.167026 127.071671 
L 185.706437 127.362302 
L 183.82996 127.362302 
L 186.509755 125.766906 
L 188.735163 125.766906 
L 191.414958 127.362302 
L 189.540032 127.362302 
L 189.084095 127.071671 
z
M 186.632269 126.775569 
L 188.6142 126.775569 
L 187.624785 126.140966 
L 186.632269 126.775569 
z
" clip-path="url(#pb203877c3c)" style="fill: #008000"/>
   </g>
   <g id="patch_39">
    <path d="M 191.414958 122.050304 
Q 190.780486 123.892539 190.094415 124.824367 
Q 189.408345 125.766906 188.66112 125.766906 
Q 186.432824 125.766906 185.131392 118.783549 
Q 183.82996 111.800191 183.82996 99.857793 
Q 183.82996 87.872551 185.131392 80.899904 
Q 186.432824 73.916547 188.66112 73.916547 
Q 189.408345 73.916547 190.094415 74.859086 
Q 190.780486 75.790914 191.414958 77.63315 
L 191.414958 87.968947 
Q 190.774753 85.526914 190.153658 84.391583 
Q 189.532564 83.256252 188.846493 83.256252 
Q 187.61577 83.256252 186.910589 87.679759 
Q 186.207319 92.092556 186.207319 99.857793 
Q 186.207319 107.590897 186.910589 112.014405 
Q 187.61577 116.427201 188.846493 116.427201 
Q 189.532564 116.427201 190.153658 115.29187 
Q 190.774753 114.145828 191.414958 111.703795 
L 191.414958 122.050304 
z
" clip-path="url(#pb203877c3c)" style="fill: #0000ff"/>
   </g>
   <g id="patch_40">
    <path d="M 183.82996 17.28 
L 191.414958 17.28 
L 191.414958 28.325705 
L 188.686123 28.325705 
L 188.686123 73.916547 
L 186.564087 73.916547 
L 186.564087 28.325705 
L 183.82996 28.325705 
L 183.82996 17.28 
z
" clip-path="url(#pb203877c3c)" style="fill: #ff0000"/>
   </g>
   <g id="patch_41">
    <path d="M 199.399166 127.988464 
Q 198.764694 128.073491 198.078624 128.116498 
Q 197.392553 128.16 196.645329 128.16 
Q 194.417032 128.16 193.1156 127.837691 
Q 191.814168 127.515382 191.814168 126.964195 
Q 191.814168 126.41103 193.1156 126.089215 
Q 194.417032 125.766906 196.645329 125.766906 
Q 197.392553 125.766906 198.078624 125.810408 
Q 198.764694 125.853416 199.399166 125.938442 
L 199.399166 126.415479 
Q 198.758961 126.30277 198.137867 126.25037 
Q 197.516772 126.19797 196.830701 126.19797 
Q 195.599979 126.19797 194.894797 126.402132 
Q 194.191527 126.605799 194.191527 126.964195 
Q 194.191527 127.321107 194.894797 127.525269 
Q 195.599979 127.728937 196.830701 127.728937 
Q 197.516772 127.728937 198.137867 127.676537 
Q 198.758961 127.623643 199.399166 127.510933 
L 199.399166 127.988464 
z
" clip-path="url(#pb203877c3c)" style="fill: #0000ff"/>
   </g>
   <g id="patch_42">
    <path d="M 199.399166 125.333866 
Q 198.634207 125.550386 197.81145 125.659141 
Q 196.988694 125.766906 196.111541 125.766906 
Q 194.129446 125.766906 192.971807 125.122289 
Q 191.814168 124.477671 191.814168 123.375296 
Q 191.814168 122.260068 192.992206 121.620394 
Q 194.171943 120.980719 196.223735 120.980719 
Q 197.014193 120.980719 197.738354 121.067723 
Q 198.464216 121.153738 199.106782 121.32379 
L 199.106782 122.277864 
Q 198.443817 122.059366 197.787652 121.951601 
Q 197.131487 121.842846 196.471921 121.842846 
Q 195.251386 121.842846 194.590121 122.240294 
Q 193.928856 122.636754 193.928856 123.375296 
Q 193.928856 124.106917 194.566322 124.506343 
Q 195.203789 124.90478 196.376727 124.90478 
Q 196.69631 124.90478 196.969995 124.88204 
Q 197.243681 124.858312 197.461269 124.808878 
L 197.461269 123.913136 
L 196.211835 123.913136 
L 196.211835 123.115274 
L 199.399166 123.115274 
L 199.399166 125.333866 
z
" clip-path="url(#pb203877c3c)" style="fill: #ffa600"/>
   </g>
   <g id="patch_43">
    <path d="M 197.068303 117.493142 
L 194.151235 117.493142 
L 193.690645 120.980719 
L 191.814168 120.980719 
L 194.493963 101.835971 
L 196.719371 101.835971 
L 199.399166 120.980719 
L 197.52424 120.980719 
L 197.068303 117.493142 
z
M 194.616477 113.939916 
L 196.598409 113.939916 
L 195.608994 106.324688 
L 194.616477 113.939916 
z
" clip-path="url(#pb203877c3c)" style="fill: #008000"/>
   </g>
   <g id="patch_44">
    <path d="M 191.814168 17.28 
L 199.399166 17.28 
L 199.399166 33.77077 
L 196.670331 33.77077 
L 196.670331 101.835971 
L 194.548296 101.835971 
L 194.548296 33.77077 
L 191.814168 33.77077 
L 191.814168 17.28 
z
" clip-path="url(#pb203877c3c)" style="fill: #ff0000"/>
   </g>
   <g id="patch_45">
    <path d="M 207.383375 118.127891 
Q 206.618415 123.143945 205.795659 125.663425 
Q 204.972903 128.16 204.095749 128.16 
Q 202.113654 128.16 200.956015 113.226358 
Q 199.798377 98.292716 199.798377 72.754357 
Q 199.798377 46.91824 200.976414 32.09912 
Q 202.156152 17.28 204.207943 17.28 
Q 204.998401 17.28 205.722563 19.295584 
Q 206.448424 21.288263 207.09099 25.227812 
L 207.09099 47.330518 
Q 206.428025 42.268655 205.77186 39.77208 
Q 205.115695 37.252601 204.45613 37.252601 
Q 203.235595 37.252601 202.57433 46.460153 
Q 201.913065 55.644801 201.913065 72.754357 
Q 201.913065 89.703582 202.550531 98.956943 
Q 203.187997 108.187399 204.360935 108.187399 
Q 204.680518 108.187399 204.954203 107.660599 
Q 205.227889 107.110894 205.445477 105.965677 
L 205.445477 85.214328 
L 204.196044 85.214328 
L 204.196044 66.73051 
L 207.383375 66.73051 
L 207.383375 118.127891 
z
" clip-path="url(#pb203877c3c)" style="fill: #ffa600"/>
   </g>
   <g id="patch_46">
    <path d="M 215.367583 127.645393 
Q 214.733111 127.900472 214.047041 128.029495 
Q 213.36097 128.16 212.613745 128.16 
Q 210.385449 128.16 209.084017 127.193074 
Q 207.782585 126.226147 207.782585 124.572584 
Q 207.782585 122.913089 209.084017 121.947646 
Q 210.385449 120.980719 212.613745 120.980719 
Q 213.36097 120.980719 214.047041 121.111225 
Q 214.733111 121.240247 215.367583 121.495326 
L 215.367583 122.926436 
Q 214.727378 122.588309 214.106283 122.431109 
Q 213.485189 122.273909 212.799118 122.273909 
Q 211.568395 122.273909 210.863214 122.886395 
Q 210.159944 123.497398 210.159944 124.572584 
Q 210.159944 125.643322 210.863214 126.255807 
Q 211.568395 126.86681 212.799118 126.86681 
Q 213.485189 126.86681 214.106283 126.70961 
Q 214.727378 126.550928 215.367583 126.2128 
L 215.367583 127.645393 
z
" clip-path="url(#pb203877c3c)" style="fill: #0000ff"/>
   </g>
   <g id="patch_47">
    <path d="M 207.782585 107.419856 
L 215.367583 107.419856 
L 215.367583 110.064602 
L 212.638748 110.064602 
L 212.638748 120.980719 
L 210.516712 120.980719 
L 210.516712 110.064602 
L 207.782585 110.064602 
L 207.782585 107.419856 
z
" clip-path="url(#pb203877c3c)" style="fill: #ff0000"/>
   </g>
   <g id="patch_48">
    <path d="M 213.03672 103.932279 
L 210.119652 103.932279 
L 209.659062 107.419856 
L 207.782585 107.419856 
L 210.46238 88.275108 
L 212.687788 88.275108 
L 215.367583 107.419856 
L 213.492657 107.419856 
L 213.03672 103.932279 
z
M 210.584894 100.379053 
L 212.566825 100.379053 
L 211.57741 92.763825 
L 210.584894 100.379053 
z
" clip-path="url(#pb203877c3c)" style="fill: #008000"/>
   </g>
   <g id="patch_49">
    <path d="M 215.367583 82.356885 
Q 214.602624 85.315997 213.779867 86.802308 
Q 212.957111 88.275108 212.079957 88.275108 
Q 210.097862 88.275108 208.940224 79.465334 
Q 207.782585 70.655559 207.782585 55.589764 
Q 207.782585 40.348314 208.960623 31.6061 
Q 210.14036 22.863885 212.192151 22.863885 
Q 212.98261 22.863885 213.706771 24.052934 
Q 214.432633 25.228472 215.075199 27.552522 
L 215.075199 40.591529 
Q 214.412234 37.605394 213.756069 36.132594 
Q 213.099903 34.646282 212.440338 34.646282 
Q 211.219803 34.646282 210.558538 40.078076 
Q 209.897273 45.496357 209.897273 55.589764 
Q 209.897273 65.588588 210.534739 71.047405 
Q 211.172206 76.49271 212.345143 76.49271 
Q 212.664726 76.49271 212.938412 76.181936 
Q 213.212097 75.85765 213.429686 75.182054 
L 213.429686 62.940251 
L 212.180252 62.940251 
L 212.180252 52.036128 
L 215.367583 52.036128 
L 215.367583 82.356885 
z
" clip-path="url(#pb203877c3c)" style="fill: #ffa600"/>
   </g>
   <g id="patch_50">
    <path d="M 221.020928 125.399001 
L 218.10386 125.399001 
L 217.64327 128.16 
L 215.766794 128.16 
L 218.446588 113.003741 
L 220.671997 113.003741 
L 223.351792 128.16 
L 221.476866 128.16 
L 221.020928 125.399001 
z
M 218.569102 122.586031 
L 220.551034 122.586031 
L 219.561619 116.557309 
L 218.569102 122.586031 
z
" clip-path="url(#pb203877c3c)" style="fill: #008000"/>
   </g>
   <g id="patch_51">
    <path d="M 215.766794 90.668201 
L 223.351792 90.668201 
L 223.351792 95.024254 
L 220.622956 95.024254 
L 220.622956 113.003741 
L 218.500921 113.003741 
L 218.500921 95.024254 
L 215.766794 95.024254 
L 215.766794 90.668201 
z
" clip-path="url(#pb203877c3c)" style="fill: #ff0000"/>
   </g>
   <g id="patch_52">
    <path d="M 223.351792 87.997784 
Q 222.586832 89.332993 221.764076 90.003645 
Q 220.941319 90.668201 220.064166 90.668201 
Q 218.082071 90.668201 216.924432 86.693059 
Q 215.766794 82.717917 215.766794 75.919937 
Q 215.766794 69.042697 216.944831 65.098039 
Q 218.124569 61.153381 220.17636 61.153381 
Q 220.966818 61.153381 221.69098 61.689904 
Q 222.416841 62.220329 223.059407 63.268986 
L 223.059407 69.15244 
Q 222.396442 67.805038 221.740277 67.140482 
Q 221.084112 66.469829 220.424547 66.469829 
Q 219.204011 66.469829 218.542746 68.92076 
Q 217.881482 71.365594 217.881482 75.919937 
Q 217.881482 80.431601 218.518948 82.894726 
Q 219.156414 85.351754 220.329352 85.351754 
Q 220.648935 85.351754 220.92262 85.211526 
Q 221.196306 85.065202 221.413894 84.76036 
L 221.413894 79.23662 
L 220.164461 79.23662 
L 220.164461 74.316467 
L 223.351792 74.316467 
L 223.351792 87.997784 
z
" clip-path="url(#pb203877c3c)" style="fill: #ffa600"/>
   </g>
   <g id="patch_53">
    <path d="M 223.351792 58.408813 
Q 222.71732 59.769233 222.031249 60.457352 
Q 221.345178 61.153381 220.597954 61.153381 
Q 218.369658 61.153381 217.068226 55.99644 
Q 215.766794 50.839499 215.766794 42.020497 
Q 215.766794 33.169858 217.068226 28.020826 
Q 218.369658 22.863885 220.597954 22.863885 
Q 221.345178 22.863885 222.031249 23.559914 
Q 222.71732 24.248033 223.351792 25.608453 
L 223.351792 33.241042 
Q 222.711586 31.437695 222.090492 30.599296 
Q 221.469397 29.760898 220.783327 29.760898 
Q 219.552604 29.760898 218.847423 33.027488 
Q 218.144152 36.286169 218.144152 42.020497 
Q 218.144152 47.731098 218.847423 50.997688 
Q 219.552604 54.256368 220.783327 54.256368 
Q 221.469397 54.256368 222.090492 53.41797 
Q 222.711586 52.571662 223.351792 50.768314 
L 223.351792 58.408813 
z
" clip-path="url(#pb203877c3c)" style="fill: #0000ff"/>
   </g>
   <g id="patch_54">
    <path d="M 231.336 126.427837 
Q 230.571041 127.293919 229.748284 127.728937 
Q 228.925528 128.16 228.048374 128.16 
Q 226.066279 128.16 224.908641 125.581529 
Q 223.751002 123.003059 223.751002 118.593558 
Q 223.751002 114.132646 224.92904 111.573949 
Q 226.108777 109.015252 228.160568 109.015252 
Q 228.951026 109.015252 229.675188 109.363266 
Q 230.40105 109.707326 231.043615 110.387536 
L 231.043615 114.203831 
Q 230.380651 113.32984 229.724485 112.898776 
Q 229.06832 112.463758 228.408755 112.463758 
Q 227.18822 112.463758 226.526955 114.053552 
Q 225.86569 115.63939 225.86569 118.593558 
Q 225.86569 121.520043 226.503156 123.117746 
Q 227.140622 124.711493 228.31356 124.711493 
Q 228.633143 124.711493 228.906829 124.620535 
Q 229.180514 124.525622 229.398103 124.327887 
L 229.398103 120.74492 
L 228.148669 120.74492 
L 228.148669 117.553469 
L 231.336 117.553469 
L 231.336 126.427837 
z
" clip-path="url(#pb203877c3c)" style="fill: #ffa600"/>
   </g>
   <g id="patch_55">
    <path d="M 231.336 107.585789 
Q 230.701528 108.294341 230.015457 108.652737 
Q 229.329387 109.015252 228.582162 109.015252 
Q 226.353866 109.015252 225.052434 106.329345 
Q 223.751002 103.643438 223.751002 99.050208 
Q 223.751002 94.4405 225.052434 91.758713 
Q 226.353866 89.072806 228.582162 89.072806 
Q 229.329387 89.072806 230.015457 89.435321 
Q 230.701528 89.793716 231.336 90.502268 
L 231.336 94.477575 
Q 230.695795 93.538332 230.0747 93.101666 
Q 229.453606 92.665 228.767535 92.665 
Q 227.536812 92.665 226.831631 94.366349 
Q 226.128361 96.063579 226.128361 99.050208 
Q 226.128361 102.024479 226.831631 103.725828 
Q 227.536812 105.423057 228.767535 105.423057 
Q 229.453606 105.423057 230.0747 104.986392 
Q 230.695795 104.545606 231.336 103.606363 
L 231.336 107.585789 
z
" clip-path="url(#pb203877c3c)" style="fill: #0000ff"/>
   </g>
   <g id="patch_56">
    <path d="M 223.751002 56.367194 
L 231.336 56.367194 
L 231.336 62.7457 
L 228.607165 62.7457 
L 228.607165 89.072806 
L 226.485129 89.072806 
L 226.485129 62.7457 
L 223.751002 62.7457 
L 223.751002 56.367194 
z
" clip-path="url(#pb203877c3c)" style="fill: #ff0000"/>
   </g>
   <g id="patch_57">
    <path d="M 229.005137 50.263934 
L 226.088068 50.263934 
L 225.627479 56.367194 
L 223.751002 56.367194 
L 226.430797 22.863885 
L 228.656205 22.863885 
L 231.336 56.367194 
L 229.461074 56.367194 
L 229.005137 50.263934 
z
M 226.553311 44.045789 
L 228.535242 44.045789 
L 227.545827 30.71914 
L 226.553311 44.045789 
z
" clip-path="url(#pb203877c3c)" style="fill: #008000"/>
   </g>
  </g>
 </g>
 <defs>
  <clipPath id="pb203877c3c">
   <rect x="32.13" y="17.28" width="199.206" height="110.88"/>
  </clipPath>
 </defs>
</svg>
