<?xml version="1.0" encoding="utf-8" standalone="no"?>
<!DOCTYPE svg PUBLIC "-//W3C//DTD SVG 1.1//EN"
  "http://www.w3.org/Graphics/SVG/1.1/DTD/svg11.dtd">
<svg xmlns:xlink="http://www.w3.org/1999/xlink" width="257.04pt" height="144pt" viewBox="0 0 257.04 144" xmlns="http://www.w3.org/2000/svg" version="1.1">
 <metadata>
  <rdf:RDF xmlns:dc="http://purl.org/dc/elements/1.1/" xmlns:cc="http://creativecommons.org/ns#" xmlns:rdf="http://www.w3.org/1999/02/22-rdf-syntax-ns#">
   <cc:Work>
    <dc:type rdf:resource="http://purl.org/dc/dcmitype/StillImage"/>
    <dc:date>2024-11-11T17:06:36.817920</dc:date>
    <dc:format>image/svg+xml</dc:format>
    <dc:creator>
     <cc:Agent>
      <dc:title>Matplotlib v3.9.2, https://matplotlib.org/</dc:title>
     </cc:Agent>
    </dc:creator>
   </cc:Work>
  </rdf:RDF>
 </metadata>
 <defs>
  <style type="text/css">*{stroke-linejoin: round; stroke-linecap: butt}</style>
 </defs>
 <g id="figure_1">
  <g id="patch_1">
   <path d="M 0 144 
L 257.04 144 
L 257.04 0 
L 0 0 
z
" style="fill: #ffffff"/>
  </g>
  <g id="axes_1">
   <g id="line2d_1">
    <path d="M 32.13 128.16 
L 231.336 128.16 
" clip-path="url(#pb9d78929ca)" style="fill: none; stroke: #000000; stroke-width: 0.5; stroke-linecap: square"/>
   </g>
   <g id="patch_2">
    <path d="M 39.714998 127.92114 
Q 38.950039 128.04057 38.127282 128.100558 
Q 37.304526 128.16 36.427372 128.16 
Q 34.445277 128.16 33.287639 127.804437 
Q 32.13 127.448874 32.13 126.840818 
Q 32.13 126.225672 33.308038 125.872836 
Q 34.487775 125.52 36.539566 125.52 
Q 37.330024 125.52 38.054186 125.56799 
Q 38.780048 125.615435 39.422613 125.709234 
L 39.422613 126.235489 
Q 38.759649 126.114968 38.103483 126.055526 
Q 37.447318 125.995538 36.787753 125.995538 
Q 35.567218 125.995538 34.905953 126.214766 
Q 34.244688 126.433448 34.244688 126.840818 
Q 34.244688 127.244371 34.882154 127.464689 
Q 35.51962 127.684462 36.692558 127.684462 
Q 37.012141 127.684462 37.285827 127.671919 
Q 37.559512 127.658831 37.777101 127.631564 
L 37.777101 127.137484 
L 36.527667 127.137484 
L 36.527667 126.697393 
L 39.714998 126.697393 
L 39.714998 127.92114 
z
" clip-path="url(#pb9d78929ca)" style="fill: #ffa600"/>
   </g>
   <g id="patch_3">
    <path d="M 32.13 117.6 
L 39.714998 117.6 
L 39.714998 119.144621 
L 36.986163 119.144621 
L 36.986163 125.52 
L 34.864127 125.52 
L 34.864127 119.144621 
L 32.13 119.144621 
L 32.13 117.6 
z
" clip-path="url(#pb9d78929ca)" style="fill: #ff0000"/>
   </g>
   <g id="patch_4">
    <path d="M 39.714998 116.559215 
Q 39.080526 117.075108 38.394455 117.336055 
Q 37.708385 117.6 36.96116 117.6 
Q 34.732864 117.6 33.431432 115.644404 
Q 32.13 113.688808 32.13 110.344499 
Q 32.13 106.988193 33.431432 105.035596 
Q 34.732864 103.08 36.96116 103.08 
Q 37.708385 103.08 38.394455 103.343945 
Q 39.080526 103.604892 39.714998 104.120785 
L 39.714998 107.015187 
Q 39.074793 106.331328 38.453698 106.013394 
Q 37.832604 105.69546 37.146533 105.69546 
Q 35.91581 105.69546 35.210629 106.934204 
Q 34.507359 108.169948 34.507359 110.344499 
Q 34.507359 112.510052 35.210629 113.748796 
Q 35.91581 114.98454 37.146533 114.98454 
Q 37.832604 114.98454 38.453698 114.666606 
Q 39.074793 114.345672 39.714998 113.661814 
L 39.714998 116.559215 
z
" clip-path="url(#pb9d78929ca)" style="fill: #0000ff"/>
   </g>
   <g id="patch_5">
    <path d="M 37.384135 87.44991 
L 34.467066 87.44991 
L 34.006477 103.08 
L 32.13 103.08 
L 34.809795 17.28 
L 37.035203 17.28 
L 39.714998 103.08 
L 37.840072 103.08 
L 37.384135 87.44991 
z
M 34.932309 71.525607 
L 36.91424 71.525607 
L 35.924825 37.396845 
L 34.932309 71.525607 
z
" clip-path="url(#pb9d78929ca)" style="fill: #008000"/>
   </g>
   <g id="patch_6">
    <path d="M 47.699206 120.212188 
Q 47.064734 124.151737 46.378664 126.144416 
Q 45.692593 128.16 44.945369 128.16 
Q 42.717072 128.16 41.41564 113.226358 
Q 40.114208 98.292716 40.114208 72.754357 
Q 40.114208 47.124379 41.41564 32.213642 
Q 42.717072 17.28 44.945369 17.28 
Q 45.692593 17.28 46.378664 19.295584 
Q 47.064734 21.288263 47.699206 25.227812 
L 47.699206 47.330518 
Q 47.059001 42.108325 46.437907 39.680463 
Q 45.816812 37.252601 45.130741 37.252601 
Q 43.900019 37.252601 43.194837 46.712101 
Q 42.491567 56.148697 42.491567 72.754357 
Q 42.491567 89.291303 43.194837 98.750804 
Q 43.900019 108.187399 45.130741 108.187399 
Q 45.816812 108.187399 46.437907 105.759537 
Q 47.059001 103.308771 47.699206 98.086577 
L 47.699206 120.212188 
z
" clip-path="url(#pb9d78929ca)" style="fill: #0000ff"/>
   </g>
   <g id="patch_7">
    <path d="M 48.098417 126.84 
L 55.683415 126.84 
L 55.683415 127.097437 
L 52.95458 127.097437 
L 52.95458 128.16 
L 50.832544 128.16 
L 50.832544 127.097437 
L 48.098417 127.097437 
L 48.098417 126.84 
z
" clip-path="url(#pb9d78929ca)" style="fill: #ff0000"/>
   </g>
   <g id="patch_8">
    <path d="M 53.352552 123.713982 
L 50.435483 123.713982 
L 49.974894 126.84 
L 48.098417 126.84 
L 50.778212 109.68 
L 53.00362 109.68 
L 55.683415 126.84 
L 53.808489 126.84 
L 53.352552 123.713982 
z
M 50.900725 120.529121 
L 52.882657 120.529121 
L 51.893242 113.703369 
L 50.900725 120.529121 
z
" clip-path="url(#pb9d78929ca)" style="fill: #008000"/>
   </g>
   <g id="patch_9">
    <path d="M 55.683415 103.056823 
Q 55.048943 106.339781 54.362872 108.000347 
Q 53.676802 109.68 52.929577 109.68 
Q 50.701281 109.68 49.399849 97.235298 
Q 48.098417 84.790597 48.098417 63.50863 
Q 48.098417 42.150316 49.399849 29.724702 
Q 50.701281 17.28 52.929577 17.28 
Q 53.676802 17.28 54.362872 18.959653 
Q 55.048943 20.620219 55.683415 23.903177 
L 55.683415 42.322099 
Q 55.04321 37.970271 54.422115 35.947052 
Q 53.801021 33.923834 53.11495 33.923834 
Q 51.884227 33.923834 51.179046 41.806751 
Q 50.475776 49.67058 50.475776 63.50863 
Q 50.475776 77.28942 51.179046 85.172336 
Q 51.884227 93.036166 53.11495 93.036166 
Q 53.801021 93.036166 54.422115 91.012948 
Q 55.04321 88.970642 55.683415 84.618814 
L 55.683415 103.056823 
z
" clip-path="url(#pb9d78929ca)" style="fill: #0000ff"/>
   </g>
   <g id="patch_10">
    <path d="M 56.082625 126.84 
L 63.667623 126.84 
L 63.667623 127.097437 
L 60.938788 127.097437 
L 60.938788 128.16 
L 58.816752 128.16 
L 58.816752 127.097437 
L 56.082625 127.097437 
L 56.082625 126.84 
z
" clip-path="url(#pb9d78929ca)" style="fill: #ff0000"/>
   </g>
   <g id="patch_11">
    <path d="M 61.33676 106.881577 
L 58.419692 106.881577 
L 57.959102 126.84 
L 56.082625 126.84 
L 58.76242 17.28 
L 60.987828 17.28 
L 63.667623 126.84 
L 61.792697 126.84 
L 61.33676 106.881577 
z
M 58.884934 86.547467 
L 60.866865 86.547467 
L 59.87745 42.967664 
L 58.884934 86.547467 
z
" clip-path="url(#pb9d78929ca)" style="fill: #008000"/>
   </g>
   <g id="patch_12">
    <path d="M 69.320968 127.919537 
L 66.4039 127.919537 
L 65.94331 128.16 
L 64.066834 128.16 
L 66.746629 126.84 
L 68.972037 126.84 
L 71.651832 128.16 
L 69.776906 128.16 
L 69.320968 127.919537 
z
M 66.869142 127.674548 
L 68.851074 127.674548 
L 67.861659 127.14949 
L 66.869142 127.674548 
z
" clip-path="url(#pb9d78929ca)" style="fill: #008000"/>
   </g>
   <g id="patch_13">
    <path d="M 71.651832 126.72057 
Q 70.886872 126.780285 70.064116 126.810279 
Q 69.241359 126.84 68.364206 126.84 
Q 66.382111 126.84 65.224472 126.662219 
Q 64.066834 126.484437 64.066834 126.180409 
Q 64.066834 125.872836 65.244871 125.696418 
Q 66.424609 125.52 68.4764 125.52 
Q 69.266858 125.52 69.99102 125.543995 
Q 70.716881 125.567717 71.359447 125.614617 
L 71.359447 125.877744 
Q 70.696482 125.817484 70.040317 125.787763 
Q 69.384152 125.757769 68.724587 125.757769 
Q 67.504051 125.757769 66.842787 125.867383 
Q 66.181522 125.976724 66.181522 126.180409 
Q 66.181522 126.382185 66.818988 126.492345 
Q 67.456454 126.602231 68.629392 126.602231 
Q 68.948975 126.602231 69.22266 126.59596 
Q 69.496346 126.589415 69.713934 126.575782 
L 69.713934 126.328742 
L 68.464501 126.328742 
L 68.464501 126.108697 
L 71.651832 126.108697 
L 71.651832 126.72057 
z
" clip-path="url(#pb9d78929ca)" style="fill: #ffa600"/>
   </g>
   <g id="patch_14">
    <path d="M 71.651832 117.761421 
Q 71.01736 121.607172 70.331289 123.552407 
Q 69.645218 125.52 68.897994 125.52 
Q 66.669698 125.52 65.368266 110.941921 
Q 64.066834 96.363842 64.066834 71.433539 
Q 64.066834 46.413799 65.368266 31.858079 
Q 66.669698 17.28 68.897994 17.28 
Q 69.645218 17.28 70.331289 19.247593 
Q 71.01736 21.192828 71.651832 25.038579 
L 71.651832 46.61503 
Q 71.011626 41.517174 70.390532 39.147118 
Q 69.769437 36.777063 69.083367 36.777063 
Q 67.852644 36.777063 67.147463 46.011337 
Q 66.444193 55.223251 66.444193 71.433539 
Q 66.444193 87.576749 67.147463 96.811023 
Q 67.852644 106.022937 69.083367 106.022937 
Q 69.769437 106.022937 70.390532 103.652882 
Q 71.011626 101.260467 71.651832 96.162611 
L 71.651832 117.761421 
z
" clip-path="url(#pb9d78929ca)" style="fill: #0000ff"/>
   </g>
   <g id="patch_15">
    <path d="M 72.051042 17.28 
L 79.63604 17.28 
L 79.63604 38.904689 
L 76.907205 38.904689 
L 76.907205 128.16 
L 74.785169 128.16 
L 74.785169 38.904689 
L 72.051042 38.904689 
L 72.051042 17.28 
z
" clip-path="url(#pb9d78929ca)" style="fill: #ff0000"/>
   </g>
   <g id="patch_16">
    <path d="M 80.035251 17.28 
L 87.620248 17.28 
L 87.620248 38.904689 
L 84.891413 38.904689 
L 84.891413 128.16 
L 82.769378 128.16 
L 82.769378 38.904689 
L 80.035251 38.904689 
L 80.035251 17.28 
z
" clip-path="url(#pb9d78929ca)" style="fill: #ff0000"/>
   </g>
   <g id="patch_17">
    <path d="M 88.019459 17.28 
L 95.604457 17.28 
L 95.604457 38.904689 
L 92.875622 38.904689 
L 92.875622 128.16 
L 90.753586 128.16 
L 90.753586 38.904689 
L 88.019459 38.904689 
L 88.019459 17.28 
z
" clip-path="url(#pb9d78929ca)" style="fill: #ff0000"/>
   </g>
   <g id="patch_18">
    <path d="M 103.588665 118.127891 
Q 102.823706 123.143945 102.000949 125.663425 
Q 101.178193 128.16 100.30104 128.16 
Q 98.318945 128.16 97.161306 113.226358 
Q 96.003667 98.292716 96.003667 72.754357 
Q 96.003667 46.91824 97.181705 32.09912 
Q 98.361442 17.28 100.413234 17.28 
Q 101.203692 17.28 101.927853 19.295584 
Q 102.653715 21.288263 103.296281 25.227812 
L 103.296281 47.330518 
Q 102.633316 42.268655 101.977151 39.77208 
Q 101.320986 37.252601 100.66142 37.252601 
Q 99.440885 37.252601 98.77962 46.460153 
Q 98.118355 55.644801 98.118355 72.754357 
Q 98.118355 89.703582 98.755821 98.956943 
Q 99.393288 108.187399 100.566226 108.187399 
Q 100.885809 108.187399 101.159494 107.660599 
Q 101.43318 107.110894 101.650768 105.965677 
L 101.650768 85.214328 
L 100.401334 85.214328 
L 100.401334 66.73051 
L 103.588665 66.73051 
L 103.588665 118.127891 
z
" clip-path="url(#pb9d78929ca)" style="fill: #ffa600"/>
   </g>
   <g id="patch_19">
    <path d="M 103.987876 17.28 
L 111.572874 17.28 
L 111.572874 38.904689 
L 108.844038 38.904689 
L 108.844038 128.16 
L 106.722003 128.16 
L 106.722003 38.904689 
L 103.987876 38.904689 
L 103.987876 17.28 
z
" clip-path="url(#pb9d78929ca)" style="fill: #ff0000"/>
   </g>
   <g id="patch_20">
    <path d="M 117.226219 107.961114 
L 114.309151 107.961114 
L 113.848561 128.16 
L 111.972084 128.16 
L 114.651879 17.28 
L 116.877287 17.28 
L 119.557082 128.16 
L 117.682156 128.16 
L 117.226219 107.961114 
z
M 114.774393 87.382015 
L 116.756324 87.382015 
L 115.766909 43.277154 
L 114.774393 87.382015 
z
" clip-path="url(#pb9d78929ca)" style="fill: #008000"/>
   </g>
   <g id="patch_21">
    <path d="M 127.541291 120.212188 
Q 126.906819 124.151737 126.220748 126.144416 
Q 125.534677 128.16 124.787453 128.16 
Q 122.559157 128.16 121.257725 113.226358 
Q 119.956293 98.292716 119.956293 72.754357 
Q 119.956293 47.124379 121.257725 32.213642 
Q 122.559157 17.28 124.787453 17.28 
Q 125.534677 17.28 126.220748 19.295584 
Q 126.906819 21.288263 127.541291 25.227812 
L 127.541291 47.330518 
Q 126.901085 42.108325 126.279991 39.680463 
Q 125.658896 37.252601 124.972826 37.252601 
Q 123.742103 37.252601 123.036922 46.712101 
Q 122.333651 56.148697 122.333651 72.754357 
Q 122.333651 89.291303 123.036922 98.750804 
Q 123.742103 108.187399 124.972826 108.187399 
Q 125.658896 108.187399 126.279991 105.759537 
Q 126.901085 103.308771 127.541291 98.086577 
L 127.541291 120.212188 
z
" clip-path="url(#pb9d78929ca)" style="fill: #0000ff"/>
   </g>
   <g id="patch_22">
    <path d="M 133.194636 107.961114 
L 130.277567 107.961114 
L 129.816978 128.16 
L 127.940501 128.16 
L 130.620296 17.28 
L 132.845704 17.28 
L 135.525499 128.16 
L 133.650573 128.16 
L 133.194636 107.961114 
z
M 130.74281 87.382015 
L 132.724741 87.382015 
L 131.735326 43.277154 
L 130.74281 87.382015 
z
" clip-path="url(#pb9d78929ca)" style="fill: #008000"/>
   </g>
   <g id="patch_23">
    <path d="M 141.178844 107.961114 
L 138.261776 107.961114 
L 137.801186 128.16 
L 135.924709 128.16 
L 138.604504 17.28 
L 140.829913 17.28 
L 143.509707 128.16 
L 141.634782 128.16 
L 141.178844 107.961114 
z
M 138.727018 87.382015 
L 140.70895 87.382015 
L 139.719535 43.277154 
L 138.727018 87.382015 
z
" clip-path="url(#pb9d78929ca)" style="fill: #008000"/>
   </g>
   <g id="patch_24">
    <path d="M 151.493916 118.127891 
Q 150.728956 123.143945 149.9062 125.663425 
Q 149.083444 128.16 148.20629 128.16 
Q 146.224195 128.16 145.066556 113.226358 
Q 143.908918 98.292716 143.908918 72.754357 
Q 143.908918 46.91824 145.086955 32.09912 
Q 146.266693 17.28 148.318484 17.28 
Q 149.108942 17.28 149.833104 19.295584 
Q 150.558965 21.288263 151.201531 25.227812 
L 151.201531 47.330518 
Q 150.538566 42.268655 149.882401 39.77208 
Q 149.226236 37.252601 148.566671 37.252601 
Q 147.346136 37.252601 146.684871 46.460153 
Q 146.023606 55.644801 146.023606 72.754357 
Q 146.023606 89.703582 146.661072 98.956943 
Q 147.298538 108.187399 148.471476 108.187399 
Q 148.791059 108.187399 149.064745 107.660599 
Q 149.33843 107.110894 149.556019 105.965677 
L 149.556019 85.214328 
L 148.306585 85.214328 
L 148.306585 66.73051 
L 151.493916 66.73051 
L 151.493916 118.127891 
z
" clip-path="url(#pb9d78929ca)" style="fill: #ffa600"/>
   </g>
   <g id="patch_25">
    <path d="M 157.147261 107.961114 
L 154.230193 107.961114 
L 153.769603 128.16 
L 151.893126 128.16 
L 154.572921 17.28 
L 156.798329 17.28 
L 159.478124 128.16 
L 157.603198 128.16 
L 157.147261 107.961114 
z
M 154.695435 87.382015 
L 156.677366 87.382015 
L 155.687951 43.277154 
L 154.695435 87.382015 
z
" clip-path="url(#pb9d78929ca)" style="fill: #008000"/>
   </g>
   <g id="patch_26">
    <path d="M 165.131469 107.961114 
L 162.214401 107.961114 
L 161.753811 128.16 
L 159.877335 128.16 
L 162.55713 17.28 
L 164.782538 17.28 
L 167.462333 128.16 
L 165.587407 128.16 
L 165.131469 107.961114 
z
M 162.679643 87.382015 
L 164.661575 87.382015 
L 163.67216 43.277154 
L 162.679643 87.382015 
z
" clip-path="url(#pb9d78929ca)" style="fill: #008000"/>
   </g>
   <g id="patch_27">
    <path d="M 173.115678 107.961114 
L 170.19861 107.961114 
L 169.73802 128.16 
L 167.861543 128.16 
L 170.541338 17.28 
L 172.766746 17.28 
L 175.446541 128.16 
L 173.571615 128.16 
L 173.115678 107.961114 
z
M 170.663852 87.382015 
L 172.645783 87.382015 
L 171.656368 43.277154 
L 170.663852 87.382015 
z
" clip-path="url(#pb9d78929ca)" style="fill: #008000"/>
   </g>
   <g id="patch_28">
    <path d="M 175.845752 126.84 
L 183.430749 126.84 
L 183.430749 127.097437 
L 180.701914 127.097437 
L 180.701914 128.16 
L 178.579879 128.16 
L 178.579879 127.097437 
L 175.845752 127.097437 
L 175.845752 126.84 
z
" clip-path="url(#pb9d78929ca)" style="fill: #ff0000"/>
   </g>
   <g id="patch_29">
    <path d="M 183.430749 126.650766 
Q 182.796278 126.744565 182.110207 126.79201 
Q 181.424136 126.84 180.676912 126.84 
Q 178.448616 126.84 177.147184 126.484437 
Q 175.845752 126.128874 175.845752 125.520818 
Q 175.845752 124.91058 177.147184 124.555563 
Q 178.448616 124.2 180.676912 124.2 
Q 181.424136 124.2 182.110207 124.24799 
Q 182.796278 124.295435 183.430749 124.389234 
L 183.430749 124.915489 
Q 182.790544 124.791151 182.16945 124.733344 
Q 181.548355 124.675538 180.862285 124.675538 
Q 179.631562 124.675538 178.926381 124.900764 
Q 178.22311 125.125445 178.22311 125.520818 
Q 178.22311 125.914555 178.926381 126.139781 
Q 179.631562 126.364462 180.862285 126.364462 
Q 181.548355 126.364462 182.16945 126.306656 
Q 182.790544 126.248304 183.430749 126.123966 
L 183.430749 126.650766 
z
" clip-path="url(#pb9d78929ca)" style="fill: #0000ff"/>
   </g>
   <g id="patch_30">
    <path d="M 183.430749 114.526181 
Q 182.66579 119.36309 181.843034 121.792588 
Q 181.020277 124.2 180.143124 124.2 
Q 178.161029 124.2 177.00339 109.799703 
Q 175.845752 95.399405 175.845752 70.77313 
Q 175.845752 45.859731 177.023789 31.569866 
Q 178.203527 17.28 180.255318 17.28 
Q 181.045776 17.28 181.769938 19.223598 
Q 182.495799 21.145111 183.138365 24.943962 
L 183.138365 46.257286 
Q 182.4754 41.376203 181.819235 38.968792 
Q 181.16307 36.539294 180.503505 36.539294 
Q 179.282969 36.539294 178.621704 45.418005 
Q 177.960439 54.274629 177.960439 70.77313 
Q 177.960439 87.117025 178.597906 96.039909 
Q 179.235372 104.940706 180.40831 104.940706 
Q 180.727893 104.940706 181.001578 104.432721 
Q 181.275264 103.902648 181.492852 102.798331 
L 181.492852 82.788102 
L 180.243418 82.788102 
L 180.243418 64.964421 
L 183.430749 64.964421 
L 183.430749 114.526181 
z
" clip-path="url(#pb9d78929ca)" style="fill: #ffa600"/>
   </g>
   <g id="patch_31">
    <path d="M 189.084095 127.919537 
L 186.167026 127.919537 
L 185.706437 128.16 
L 183.82996 128.16 
L 186.509755 126.84 
L 188.735163 126.84 
L 191.414958 128.16 
L 189.540032 128.16 
L 189.084095 127.919537 
z
M 186.632269 127.674548 
L 188.6142 127.674548 
L 187.624785 127.14949 
L 186.632269 127.674548 
z
" clip-path="url(#pb9d78929ca)" style="fill: #008000"/>
   </g>
   <g id="patch_32">
    <path d="M 191.414958 126.72057 
Q 190.649998 126.780285 189.827242 126.810279 
Q 189.004486 126.84 188.127332 126.84 
Q 186.145237 126.84 184.987599 126.662219 
Q 183.82996 126.484437 183.82996 126.180409 
Q 183.82996 125.872836 185.007997 125.696418 
Q 186.187735 125.52 188.239526 125.52 
Q 189.029984 125.52 189.754146 125.543995 
Q 190.480007 125.567717 191.122573 125.614617 
L 191.122573 125.877744 
Q 190.459609 125.817484 189.803443 125.787763 
Q 189.147278 125.757769 188.487713 125.757769 
Q 187.267178 125.757769 186.605913 125.867383 
Q 185.944648 125.976724 185.944648 126.180409 
Q 185.944648 126.382185 186.582114 126.492345 
Q 187.21958 126.602231 188.392518 126.602231 
Q 188.712101 126.602231 188.985787 126.59596 
Q 189.259472 126.589415 189.477061 126.575782 
L 189.477061 126.328742 
L 188.227627 126.328742 
L 188.227627 126.108697 
L 191.414958 126.108697 
L 191.414958 126.72057 
z
" clip-path="url(#pb9d78929ca)" style="fill: #ffa600"/>
   </g>
   <g id="patch_33">
    <path d="M 191.414958 121.735327 
Q 190.780486 123.611303 190.094415 124.560198 
Q 189.408345 125.52 188.66112 125.52 
Q 186.432824 125.52 185.131392 118.408742 
Q 183.82996 111.297484 183.82996 99.13636 
Q 183.82996 86.931609 185.131392 79.831258 
Q 186.432824 72.72 188.66112 72.72 
Q 189.408345 72.72 190.094415 73.679802 
Q 190.780486 74.628697 191.414958 76.504673 
L 191.414958 87.029771 
Q 190.774753 84.543012 190.153658 83.386887 
Q 189.532564 82.230762 188.846493 82.230762 
Q 187.61577 82.230762 186.910589 86.735286 
Q 186.207319 91.228903 186.207319 99.13636 
Q 186.207319 107.011097 186.910589 111.515621 
Q 187.61577 116.009238 188.846493 116.009238 
Q 189.532564 116.009238 190.153658 114.853113 
Q 190.774753 113.686081 191.414958 111.199322 
L 191.414958 121.735327 
z
" clip-path="url(#pb9d78929ca)" style="fill: #0000ff"/>
   </g>
   <g id="patch_34">
    <path d="M 183.82996 17.28 
L 191.414958 17.28 
L 191.414958 28.092345 
L 188.686123 28.092345 
L 188.686123 72.72 
L 186.564087 72.72 
L 186.564087 28.092345 
L 183.82996 28.092345 
L 183.82996 17.28 
z
" clip-path="url(#pb9d78929ca)" style="fill: #ff0000"/>
   </g>
   <g id="patch_35">
    <path d="M 197.068303 127.438611 
L 194.151235 127.438611 
L 193.690645 128.16 
L 191.814168 128.16 
L 194.493963 124.2 
L 196.719371 124.2 
L 199.399166 128.16 
L 197.52424 128.16 
L 197.068303 127.438611 
z
M 194.616477 126.703643 
L 196.598409 126.703643 
L 195.608994 125.12847 
L 194.616477 126.703643 
z
" clip-path="url(#pb9d78929ca)" style="fill: #008000"/>
   </g>
   <g id="patch_36">
    <path d="M 199.399166 123.91615 
Q 198.764694 124.056848 198.078624 124.128015 
Q 197.392553 124.2 196.645329 124.2 
Q 194.417032 124.2 193.1156 123.666656 
Q 191.814168 123.133311 191.814168 122.221227 
Q 191.814168 121.305871 193.1156 120.773344 
Q 194.417032 120.24 196.645329 120.24 
Q 197.392553 120.24 198.078624 120.311985 
Q 198.764694 120.383152 199.399166 120.52385 
L 199.399166 121.313233 
Q 198.758961 121.126726 198.137867 121.040017 
Q 197.516772 120.953307 196.830701 120.953307 
Q 195.599979 120.953307 194.894797 121.291146 
Q 194.191527 121.628168 194.191527 122.221227 
Q 194.191527 122.811832 194.894797 123.149672 
Q 195.599979 123.486693 196.830701 123.486693 
Q 197.516772 123.486693 198.137867 123.399983 
Q 198.758961 123.312456 199.399166 123.125949 
L 199.399166 123.91615 
z
" clip-path="url(#pb9d78929ca)" style="fill: #0000ff"/>
   </g>
   <g id="patch_37">
    <path d="M 199.399166 119.88171 
Q 198.634207 120.060855 197.81145 120.150837 
Q 196.988694 120.24 196.111541 120.24 
Q 194.129446 120.24 192.971807 119.706656 
Q 191.814168 119.173311 191.814168 118.261227 
Q 191.814168 117.338509 192.992206 116.809254 
Q 194.171943 116.28 196.223735 116.28 
Q 197.014193 116.28 197.738354 116.351985 
Q 198.464216 116.423152 199.106782 116.56385 
L 199.106782 117.353233 
Q 198.443817 117.172452 197.787652 117.083289 
Q 197.131487 116.993307 196.471921 116.993307 
Q 195.251386 116.993307 194.590121 117.322148 
Q 193.928856 117.650171 193.928856 118.261227 
Q 193.928856 118.866556 194.566322 119.197034 
Q 195.203789 119.526693 196.376727 119.526693 
Q 196.69631 119.526693 196.969995 119.507879 
Q 197.243681 119.488246 197.461269 119.447346 
L 197.461269 118.706226 
L 196.211835 118.706226 
L 196.211835 118.04609 
L 199.399166 118.04609 
L 199.399166 119.88171 
z
" clip-path="url(#pb9d78929ca)" style="fill: #ffa600"/>
   </g>
   <g id="patch_38">
    <path d="M 191.814168 17.28 
L 199.399166 17.28 
L 199.399166 36.587758 
L 196.670331 36.587758 
L 196.670331 116.28 
L 194.548296 116.28 
L 194.548296 36.587758 
L 191.814168 36.587758 
L 191.814168 17.28 
z
" clip-path="url(#pb9d78929ca)" style="fill: #ff0000"/>
   </g>
   <g id="patch_39">
    <path d="M 207.383375 118.127891 
Q 206.618415 123.143945 205.795659 125.663425 
Q 204.972903 128.16 204.095749 128.16 
Q 202.113654 128.16 200.956015 113.226358 
Q 199.798377 98.292716 199.798377 72.754357 
Q 199.798377 46.91824 200.976414 32.09912 
Q 202.156152 17.28 204.207943 17.28 
Q 204.998401 17.28 205.722563 19.295584 
Q 206.448424 21.288263 207.09099 25.227812 
L 207.09099 47.330518 
Q 206.428025 42.268655 205.77186 39.77208 
Q 205.115695 37.252601 204.45613 37.252601 
Q 203.235595 37.252601 202.57433 46.460153 
Q 201.913065 55.644801 201.913065 72.754357 
Q 201.913065 89.703582 202.550531 98.956943 
Q 203.187997 108.187399 204.360935 108.187399 
Q 204.680518 108.187399 204.954203 107.660599 
Q 205.227889 107.110894 205.445477 105.965677 
L 205.445477 85.214328 
L 204.196044 85.214328 
L 204.196044 66.73051 
L 207.383375 66.73051 
L 207.383375 118.127891 
z
" clip-path="url(#pb9d78929ca)" style="fill: #ffa600"/>
   </g>
   <g id="patch_40">
    <path d="M 215.367583 127.781533 
Q 214.733111 127.96913 214.047041 128.06402 
Q 213.36097 128.16 212.613745 128.16 
Q 210.385449 128.16 209.084017 127.448874 
Q 207.782585 126.737748 207.782585 125.521636 
Q 207.782585 124.301161 209.084017 123.591126 
Q 210.385449 122.88 212.613745 122.88 
Q 213.36097 122.88 214.047041 122.97598 
Q 214.733111 123.07087 215.367583 123.258467 
L 215.367583 124.310977 
Q 214.727378 124.062301 214.106283 123.946689 
Q 213.485189 123.831076 212.799118 123.831076 
Q 211.568395 123.831076 210.863214 124.281529 
Q 210.159944 124.73089 210.159944 125.521636 
Q 210.159944 126.30911 210.863214 126.759562 
Q 211.568395 127.208924 212.799118 127.208924 
Q 213.485189 127.208924 214.106283 127.093311 
Q 214.727378 126.976608 215.367583 126.727932 
L 215.367583 127.781533 
z
" clip-path="url(#pb9d78929ca)" style="fill: #0000ff"/>
   </g>
   <g id="patch_41">
    <path d="M 213.03672 119.513519 
L 210.119652 119.513519 
L 209.659062 122.88 
L 207.782585 122.88 
L 210.46238 104.4 
L 212.687788 104.4 
L 215.367583 122.88 
L 213.492657 122.88 
L 213.03672 119.513519 
z
M 210.584894 116.083669 
L 212.566825 116.083669 
L 211.57741 108.732859 
L 210.584894 116.083669 
z
" clip-path="url(#pb9d78929ca)" style="fill: #008000"/>
   </g>
   <g id="patch_42">
    <path d="M 207.782585 83.28 
L 215.367583 83.28 
L 215.367583 87.398988 
L 212.638748 87.398988 
L 212.638748 104.4 
L 210.516712 104.4 
L 210.516712 87.398988 
L 207.782585 87.398988 
L 207.782585 83.28 
z
" clip-path="url(#pb9d78929ca)" style="fill: #ff0000"/>
   </g>
   <g id="patch_43">
    <path d="M 215.367583 77.308507 
Q 214.602624 80.294253 213.779867 81.793943 
Q 212.957111 83.28 212.079957 83.28 
Q 210.097862 83.28 208.940224 74.390927 
Q 207.782585 65.501855 207.782585 50.30045 
Q 207.782585 34.92181 208.960623 26.100905 
Q 210.14036 17.28 212.192151 17.28 
Q 212.98261 17.28 213.706771 18.479752 
Q 214.432633 19.665871 215.075199 22.010841 
L 215.075199 35.167213 
Q 214.412234 32.1542 213.756069 30.668143 
Q 213.099903 29.168453 212.440338 29.168453 
Q 211.219803 29.168453 210.558538 34.649139 
Q 209.897273 40.116191 209.897273 50.30045 
Q 209.897273 60.389275 210.534739 65.897228 
Q 211.172206 71.391547 212.345143 71.391547 
Q 212.664726 71.391547 212.938412 71.077976 
Q 213.212097 70.750771 213.429686 70.069093 
L 213.429686 57.7171 
L 212.180252 57.7171 
L 212.180252 46.714828 
L 215.367583 46.714828 
L 215.367583 77.308507 
z
" clip-path="url(#pb9d78929ca)" style="fill: #ffa600"/>
   </g>
   <g id="patch_44">
    <path d="M 221.020928 125.033982 
L 218.10386 125.033982 
L 217.64327 128.16 
L 215.766794 128.16 
L 218.446588 111 
L 220.671997 111 
L 223.351792 128.16 
L 221.476866 128.16 
L 221.020928 125.033982 
z
M 218.569102 121.849121 
L 220.551034 121.849121 
L 219.561619 115.023369 
L 218.569102 121.849121 
z
" clip-path="url(#pb9d78929ca)" style="fill: #008000"/>
   </g>
   <g id="patch_45">
    <path d="M 223.351792 109.486131 
Q 222.71732 110.236521 222.031249 110.616079 
Q 221.345178 111 220.597954 111 
Q 218.369658 111 217.068226 108.155497 
Q 215.766794 105.310994 215.766794 100.446544 
Q 215.766794 95.564644 217.068226 92.724503 
Q 218.369658 89.88 220.597954 89.88 
Q 221.345178 89.88 222.031249 90.263921 
Q 222.71732 90.643479 223.351792 91.393869 
L 223.351792 95.603908 
Q 222.711586 94.609205 222.090492 94.146755 
Q 221.469397 93.684305 220.783327 93.684305 
Q 219.552604 93.684305 218.847423 95.486114 
Q 218.144152 97.283561 218.144152 100.446544 
Q 218.144152 103.596439 218.847423 105.398248 
Q 219.552604 107.195695 220.783327 107.195695 
Q 221.469397 107.195695 222.090492 106.733245 
Q 222.711586 106.266433 223.351792 105.271729 
L 223.351792 109.486131 
z
" clip-path="url(#pb9d78929ca)" style="fill: #0000ff"/>
   </g>
   <g id="patch_46">
    <path d="M 215.766794 62.16 
L 223.351792 62.16 
L 223.351792 67.566172 
L 220.622956 67.566172 
L 220.622956 89.88 
L 218.500921 89.88 
L 218.500921 67.566172 
L 215.766794 67.566172 
L 215.766794 62.16 
z
" clip-path="url(#pb9d78929ca)" style="fill: #ff0000"/>
   </g>
   <g id="patch_47">
    <path d="M 223.351792 58.099384 
Q 222.586832 60.129692 221.764076 61.149482 
Q 220.941319 62.16 220.064166 62.16 
Q 218.082071 62.16 216.924432 56.115431 
Q 215.766794 50.070861 215.766794 39.733906 
Q 215.766794 29.27643 216.944831 23.278215 
Q 218.124569 17.28 220.17636 17.28 
Q 220.966818 17.28 221.69098 18.095831 
Q 222.416841 18.902392 223.059407 20.496972 
L 223.059407 29.443305 
Q 222.396442 27.394456 221.740277 26.383937 
Q 221.084112 25.364148 220.424547 25.364148 
Q 219.204011 25.364148 218.542746 29.091014 
Q 217.881482 32.80861 217.881482 39.733906 
Q 217.881482 46.594307 218.518948 50.339715 
Q 219.156414 54.075852 220.329352 54.075852 
Q 220.648935 54.075852 220.92262 53.862623 
Q 221.196306 53.640124 221.413894 53.176583 
L 221.413894 44.777228 
L 220.164461 44.777228 
L 220.164461 37.295683 
L 223.351792 37.295683 
L 223.351792 58.099384 
z
" clip-path="url(#pb9d78929ca)" style="fill: #ffa600"/>
   </g>
   <g id="patch_48">
    <path d="M 231.336 126.368552 
Q 230.571041 127.264276 229.748284 127.714183 
Q 228.925528 128.16 228.048374 128.16 
Q 226.066279 128.16 224.908641 125.493278 
Q 223.751002 122.826556 223.751002 118.266135 
Q 223.751002 113.652543 224.92904 111.006271 
Q 226.108777 108.36 228.160568 108.36 
Q 228.951026 108.36 229.675188 108.719926 
Q 230.40105 109.075761 231.043615 109.779252 
L 231.043615 113.726164 
Q 230.380651 112.82226 229.724485 112.376443 
Q 229.06832 111.926536 228.408755 111.926536 
Q 227.18822 111.926536 226.526955 113.570742 
Q 225.86569 115.210857 225.86569 118.266135 
Q 225.86569 121.292782 226.503156 122.945168 
Q 227.140622 124.593464 228.31356 124.593464 
Q 228.633143 124.593464 228.906829 124.499393 
Q 229.180514 124.401231 229.398103 124.196728 
L 229.398103 120.49113 
L 228.148669 120.49113 
L 228.148669 117.190448 
L 231.336 117.190448 
L 231.336 126.368552 
z
" clip-path="url(#pb9d78929ca)" style="fill: #ffa600"/>
   </g>
   <g id="patch_49">
    <path d="M 231.336 106.467664 
Q 230.701528 107.405652 230.015457 107.880099 
Q 229.329387 108.36 228.582162 108.36 
Q 226.353866 108.36 225.052434 104.804371 
Q 223.751002 101.248742 223.751002 95.16818 
Q 223.751002 89.065805 225.052434 85.515629 
Q 226.353866 81.96 228.582162 81.96 
Q 229.329387 81.96 230.015457 82.439901 
Q 230.701528 82.914348 231.336 83.852336 
L 231.336 89.114885 
Q 230.695795 87.871506 230.0747 87.293444 
Q 229.453606 86.715381 228.767535 86.715381 
Q 227.536812 86.715381 226.831631 88.967643 
Q 226.128361 91.214452 226.128361 95.16818 
Q 226.128361 99.105548 226.831631 101.35781 
Q 227.536812 103.604619 228.767535 103.604619 
Q 229.453606 103.604619 230.0747 103.026556 
Q 230.695795 102.443041 231.336 101.199661 
L 231.336 106.467664 
z
" clip-path="url(#pb9d78929ca)" style="fill: #0000ff"/>
   </g>
   <g id="patch_50">
    <path d="M 229.005137 76.669816 
L 226.088068 76.669816 
L 225.627479 81.96 
L 223.751002 81.96 
L 226.430797 52.92 
L 228.656205 52.92 
L 231.336 81.96 
L 229.461074 81.96 
L 229.005137 76.669816 
z
M 226.553311 71.280051 
L 228.535242 71.280051 
L 227.545827 59.728778 
L 226.553311 71.280051 
z
" clip-path="url(#pb9d78929ca)" style="fill: #008000"/>
   </g>
   <g id="patch_51">
    <path d="M 223.751002 17.28 
L 231.336 17.28 
L 231.336 24.230793 
L 228.607165 24.230793 
L 228.607165 52.92 
L 226.485129 52.92 
L 226.485129 24.230793 
L 223.751002 24.230793 
L 223.751002 17.28 
z
" clip-path="url(#pb9d78929ca)" style="fill: #ff0000"/>
   </g>
  </g>
 </g>
 <defs>
  <clipPath id="pb9d78929ca">
   <rect x="32.13" y="17.28" width="199.206" height="110.88"/>
  </clipPath>
 </defs>
</svg>
