<?xml version="1.0" encoding="utf-8" standalone="no"?>
<!DOCTYPE svg PUBLIC "-//W3C//DTD SVG 1.1//EN"
  "http://www.w3.org/Graphics/SVG/1.1/DTD/svg11.dtd">
<svg xmlns:xlink="http://www.w3.org/1999/xlink" width="987.12pt" height="144pt" viewBox="0 0 987.12 144" xmlns="http://www.w3.org/2000/svg" version="1.1">
 <metadata>
  <rdf:RDF xmlns:dc="http://purl.org/dc/elements/1.1/" xmlns:cc="http://creativecommons.org/ns#" xmlns:rdf="http://www.w3.org/1999/02/22-rdf-syntax-ns#">
   <cc:Work>
    <dc:type rdf:resource="http://purl.org/dc/dcmitype/StillImage"/>
    <dc:date>2024-11-11T17:06:41.213022</dc:date>
    <dc:format>image/svg+xml</dc:format>
    <dc:creator>
     <cc:Agent>
      <dc:title>Matplotlib v3.9.2, https://matplotlib.org/</dc:title>
     </cc:Agent>
    </dc:creator>
   </cc:Work>
  </rdf:RDF>
 </metadata>
 <defs>
  <style type="text/css">*{stroke-linejoin: round; stroke-linecap: butt}</style>
 </defs>
 <g id="figure_1">
  <g id="patch_1">
   <path d="M 0 144 
L 987.12 144 
L 987.12 0 
L 0 0 
z
" style="fill: #ffffff"/>
  </g>
  <g id="axes_1">
   <g id="line2d_1">
    <path d="M 123.39 128.16 
L 888.408 128.16 
" clip-path="url(#p1ac8275d0d)" style="fill: none; stroke: #000000; stroke-width: 0.5; stroke-linecap: square"/>
   </g>
   <g id="patch_2">
    <path d="M 128.636818 107.961114 
L 125.723812 107.961114 
L 125.263864 128.16 
L 123.39 128.16 
L 126.066063 17.28 
L 128.288373 17.28 
L 130.964436 128.16 
L 129.092121 128.16 
L 128.636818 107.961114 
z
M 126.188406 87.382015 
L 128.167578 87.382015 
L 127.179541 43.277154 
L 126.188406 87.382015 
z
" clip-path="url(#p1ac8275d0d)" style="fill: #008000"/>
   </g>
   <g id="patch_3">
    <path d="M 136.609908 107.961114 
L 133.696902 107.961114 
L 133.236954 128.16 
L 131.36309 128.16 
L 134.039153 17.28 
L 136.261463 17.28 
L 138.937526 128.16 
L 137.065211 128.16 
L 136.609908 107.961114 
z
M 134.161496 87.382015 
L 136.140668 87.382015 
L 135.152631 43.277154 
L 134.161496 87.382015 
z
" clip-path="url(#p1ac8275d0d)" style="fill: #008000"/>
   </g>
   <g id="patch_4">
    <path d="M 144.582999 107.961114 
L 141.669992 107.961114 
L 141.210044 128.16 
L 139.33618 128.16 
L 142.012243 17.28 
L 144.234553 17.28 
L 146.910616 128.16 
L 145.038301 128.16 
L 144.582999 107.961114 
z
M 142.134587 87.382015 
L 144.113758 87.382015 
L 143.125721 43.277154 
L 142.134587 87.382015 
z
" clip-path="url(#p1ac8275d0d)" style="fill: #008000"/>
   </g>
   <g id="patch_5">
    <path d="M 147.30927 17.28 
L 154.883706 17.28 
L 154.883706 38.904689 
L 152.158671 38.904689 
L 152.158671 128.16 
L 150.03959 128.16 
L 150.03959 38.904689 
L 147.30927 38.904689 
L 147.30927 17.28 
z
" clip-path="url(#p1ac8275d0d)" style="fill: #ff0000"/>
   </g>
   <g id="patch_6">
    <path d="M 160.529179 107.961114 
L 157.616173 107.961114 
L 157.156224 128.16 
L 155.282361 128.16 
L 157.958424 17.28 
L 160.180733 17.28 
L 162.856796 128.16 
L 160.984481 128.16 
L 160.529179 107.961114 
z
M 158.080767 87.382015 
L 160.059939 87.382015 
L 159.071901 43.277154 
L 158.080767 87.382015 
z
" clip-path="url(#p1ac8275d0d)" style="fill: #008000"/>
   </g>
   <g id="patch_7">
    <path d="M 168.502269 107.961114 
L 165.589263 107.961114 
L 165.129314 128.16 
L 163.255451 128.16 
L 165.931514 17.28 
L 168.153823 17.28 
L 170.829886 128.16 
L 168.957571 128.16 
L 168.502269 107.961114 
z
M 166.053857 87.382015 
L 168.033029 87.382015 
L 167.044992 43.277154 
L 166.053857 87.382015 
z
" clip-path="url(#p1ac8275d0d)" style="fill: #008000"/>
   </g>
   <g id="patch_8">
    <path d="M 171.228541 17.28 
L 178.802977 17.28 
L 178.802977 38.904689 
L 176.077941 38.904689 
L 176.077941 128.16 
L 173.958861 128.16 
L 173.958861 38.904689 
L 171.228541 38.904689 
L 171.228541 17.28 
z
" clip-path="url(#p1ac8275d0d)" style="fill: #ff0000"/>
   </g>
   <g id="patch_9">
    <path d="M 186.776067 118.127891 
Q 186.012172 123.143945 185.190562 125.663425 
Q 184.368951 128.16 183.493019 128.16 
Q 181.513684 128.16 180.357658 113.226358 
Q 179.201631 98.292716 179.201631 72.754357 
Q 179.201631 46.91824 180.378028 32.09912 
Q 181.556123 17.28 183.605057 17.28 
Q 184.394414 17.28 185.117567 19.295584 
Q 185.842418 21.288263 186.484089 25.227812 
L 186.484089 47.330518 
Q 185.822048 42.268655 185.166796 39.77208 
Q 184.511545 37.252601 183.852898 37.252601 
Q 182.634062 37.252601 181.973718 46.460153 
Q 181.313374 55.644801 181.313374 72.754357 
Q 181.313374 89.703582 181.949953 98.956943 
Q 182.586531 108.187399 183.757836 108.187399 
Q 184.076974 108.187399 184.350278 107.660599 
Q 184.623583 107.110894 184.840868 105.965677 
L 184.840868 85.214328 
L 183.593174 85.214328 
L 183.593174 66.73051 
L 186.776067 66.73051 
L 186.776067 118.127891 
z
" clip-path="url(#p1ac8275d0d)" style="fill: #ffa600"/>
   </g>
   <g id="patch_10">
    <path d="M 192.421539 107.961114 
L 189.508533 107.961114 
L 189.048585 128.16 
L 187.174721 128.16 
L 189.850784 17.28 
L 192.073094 17.28 
L 194.749157 128.16 
L 192.876842 128.16 
L 192.421539 107.961114 
z
M 189.973128 87.382015 
L 191.952299 87.382015 
L 190.964262 43.277154 
L 189.973128 87.382015 
z
" clip-path="url(#p1ac8275d0d)" style="fill: #008000"/>
   </g>
   <g id="patch_11">
    <path d="M 195.147811 17.28 
L 202.722247 17.28 
L 202.722247 38.904689 
L 199.997212 38.904689 
L 199.997212 128.16 
L 197.878131 128.16 
L 197.878131 38.904689 
L 195.147811 38.904689 
L 195.147811 17.28 
z
" clip-path="url(#p1ac8275d0d)" style="fill: #ff0000"/>
   </g>
   <g id="patch_12">
    <path d="M 203.120902 17.28 
L 210.695337 17.28 
L 210.695337 38.904689 
L 207.970302 38.904689 
L 207.970302 128.16 
L 205.851221 128.16 
L 205.851221 38.904689 
L 203.120902 38.904689 
L 203.120902 17.28 
z
" clip-path="url(#p1ac8275d0d)" style="fill: #ff0000"/>
   </g>
   <g id="patch_13">
    <path d="M 211.093992 17.28 
L 218.668427 17.28 
L 218.668427 38.904689 
L 215.943392 38.904689 
L 215.943392 128.16 
L 213.824311 128.16 
L 213.824311 38.904689 
L 211.093992 38.904689 
L 211.093992 17.28 
z
" clip-path="url(#p1ac8275d0d)" style="fill: #ff0000"/>
   </g>
   <g id="patch_14">
    <path d="M 219.067082 17.28 
L 226.641517 17.28 
L 226.641517 38.904689 
L 223.916482 38.904689 
L 223.916482 128.16 
L 221.797402 128.16 
L 221.797402 38.904689 
L 219.067082 38.904689 
L 219.067082 17.28 
z
" clip-path="url(#p1ac8275d0d)" style="fill: #ff0000"/>
   </g>
   <g id="patch_15">
    <path d="M 232.28699 107.961114 
L 229.373984 107.961114 
L 228.914036 128.16 
L 227.040172 128.16 
L 229.716235 17.28 
L 231.938544 17.28 
L 234.614608 128.16 
L 232.742293 128.16 
L 232.28699 107.961114 
z
M 229.838578 87.382015 
L 231.81775 87.382015 
L 230.829713 43.277154 
L 229.838578 87.382015 
z
" clip-path="url(#p1ac8275d0d)" style="fill: #008000"/>
   </g>
   <g id="patch_16">
    <path d="M 235.013262 17.28 
L 242.587698 17.28 
L 242.587698 38.904689 
L 239.862662 38.904689 
L 239.862662 128.16 
L 237.743582 128.16 
L 237.743582 38.904689 
L 235.013262 38.904689 
L 235.013262 17.28 
z
" clip-path="url(#p1ac8275d0d)" style="fill: #ff0000"/>
   </g>
   <g id="patch_17">
    <path d="M 242.986352 17.28 
L 250.560788 17.28 
L 250.560788 38.904689 
L 247.835753 38.904689 
L 247.835753 128.16 
L 245.716672 128.16 
L 245.716672 38.904689 
L 242.986352 38.904689 
L 242.986352 17.28 
z
" clip-path="url(#p1ac8275d0d)" style="fill: #ff0000"/>
   </g>
   <g id="patch_18">
    <path d="M 250.959442 17.28 
L 258.533878 17.28 
L 258.533878 38.904689 
L 255.808843 38.904689 
L 255.808843 128.16 
L 253.689762 128.16 
L 253.689762 38.904689 
L 250.959442 38.904689 
L 250.959442 17.28 
z
" clip-path="url(#p1ac8275d0d)" style="fill: #ff0000"/>
   </g>
   <g id="patch_19">
    <path d="M 266.506968 126.570438 
Q 265.87338 127.358347 265.188265 127.756883 
Q 264.503149 128.16 263.756965 128.16 
Q 261.531772 128.16 260.232152 125.173272 
Q 258.932533 122.186543 258.932533 117.078871 
Q 258.932533 111.952876 260.232152 108.970728 
Q 261.531772 105.984 263.756965 105.984 
Q 264.503149 105.984 265.188265 106.387117 
Q 265.87338 106.785653 266.506968 107.573562 
L 266.506968 111.994104 
Q 265.867655 110.949665 265.247425 110.464093 
Q 264.627195 109.97852 263.94208 109.97852 
Q 262.713071 109.97852 262.008872 111.87042 
Q 261.306581 113.757739 261.306581 117.078871 
Q 261.306581 120.386261 262.008872 122.278161 
Q 262.713071 124.16548 263.94208 124.16548 
Q 264.627195 124.16548 265.247425 123.679907 
Q 265.867655 123.189754 266.506968 122.145315 
L 266.506968 126.570438 
z
" clip-path="url(#p1ac8275d0d)" style="fill: #0000ff"/>
   </g>
   <g id="patch_20">
    <path d="M 258.932533 17.28 
L 266.506968 17.28 
L 266.506968 34.579751 
L 263.781933 34.579751 
L 263.781933 105.984 
L 261.662852 105.984 
L 261.662852 34.579751 
L 258.932533 34.579751 
L 258.932533 17.28 
z
" clip-path="url(#p1ac8275d0d)" style="fill: #ff0000"/>
   </g>
   <g id="patch_21">
    <path d="M 274.480058 118.127891 
Q 273.716164 123.143945 272.894553 125.663425 
Q 272.072943 128.16 271.197011 128.16 
Q 269.217676 128.16 268.061649 113.226358 
Q 266.905623 98.292716 266.905623 72.754357 
Q 266.905623 46.91824 268.08202 32.09912 
Q 269.260114 17.28 271.309049 17.28 
Q 272.098406 17.28 272.821559 19.295584 
Q 273.54641 21.288263 274.188081 25.227812 
L 274.188081 47.330518 
Q 273.526039 42.268655 272.870788 39.77208 
Q 272.215536 37.252601 271.55689 37.252601 
Q 270.338054 37.252601 269.67771 46.460153 
Q 269.017366 55.644801 269.017366 72.754357 
Q 269.017366 89.703582 269.653944 98.956943 
Q 270.290523 108.187399 271.461827 108.187399 
Q 271.780965 108.187399 272.05427 107.660599 
Q 272.327574 107.110894 272.54486 105.965677 
L 272.54486 85.214328 
L 271.297166 85.214328 
L 271.297166 66.73051 
L 274.480058 66.73051 
L 274.480058 118.127891 
z
" clip-path="url(#p1ac8275d0d)" style="fill: #ffa600"/>
   </g>
   <g id="patch_22">
    <path d="M 280.125531 107.961114 
L 277.212525 107.961114 
L 276.752577 128.16 
L 274.878713 128.16 
L 277.554776 17.28 
L 279.777085 17.28 
L 282.453149 128.16 
L 280.580834 128.16 
L 280.125531 107.961114 
z
M 277.677119 87.382015 
L 279.656291 87.382015 
L 278.668254 43.277154 
L 277.677119 87.382015 
z
" clip-path="url(#p1ac8275d0d)" style="fill: #008000"/>
   </g>
   <g id="patch_23">
    <path d="M 290.426239 120.212188 
Q 289.79265 124.151737 289.107535 126.144416 
Q 288.42242 128.16 287.676236 128.16 
Q 285.451042 128.16 284.151423 113.226358 
Q 282.851803 98.292716 282.851803 72.754357 
Q 282.851803 47.124379 284.151423 32.213642 
Q 285.451042 17.28 287.676236 17.28 
Q 288.42242 17.28 289.107535 19.295584 
Q 289.79265 21.288263 290.426239 25.227812 
L 290.426239 47.330518 
Q 289.786925 42.108325 289.166695 39.680463 
Q 288.546466 37.252601 287.86135 37.252601 
Q 286.632341 37.252601 285.928142 46.712101 
Q 285.225851 56.148697 285.225851 72.754357 
Q 285.225851 89.291303 285.928142 98.750804 
Q 286.632341 108.187399 287.86135 108.187399 
Q 288.546466 108.187399 289.166695 105.759537 
Q 289.786925 103.308771 290.426239 98.086577 
L 290.426239 120.212188 
z
" clip-path="url(#p1ac8275d0d)" style="fill: #0000ff"/>
   </g>
   <g id="patch_24">
    <path d="M 290.824893 17.28 
L 298.399329 17.28 
L 298.399329 38.904689 
L 295.674293 38.904689 
L 295.674293 128.16 
L 293.555213 128.16 
L 293.555213 38.904689 
L 290.824893 38.904689 
L 290.824893 17.28 
z
" clip-path="url(#p1ac8275d0d)" style="fill: #ff0000"/>
   </g>
   <g id="patch_25">
    <path d="M 306.372419 118.127891 
Q 305.608525 123.143945 304.786914 125.663425 
Q 303.965303 128.16 303.089371 128.16 
Q 301.110037 128.16 299.95401 113.226358 
Q 298.797983 98.292716 298.797983 72.754357 
Q 298.797983 46.91824 299.97438 32.09912 
Q 301.152475 17.28 303.201409 17.28 
Q 303.990767 17.28 304.71392 19.295584 
Q 305.43877 21.288263 306.080442 25.227812 
L 306.080442 47.330518 
Q 305.4184 42.268655 304.763148 39.77208 
Q 304.107897 37.252601 303.44925 37.252601 
Q 302.230415 37.252601 301.570071 46.460153 
Q 300.909726 55.644801 300.909726 72.754357 
Q 300.909726 89.703582 301.546305 98.956943 
Q 302.182884 108.187399 303.354188 108.187399 
Q 303.673326 108.187399 303.94663 107.660599 
Q 304.219935 107.110894 304.43722 105.965677 
L 304.43722 85.214328 
L 303.189526 85.214328 
L 303.189526 66.73051 
L 306.372419 66.73051 
L 306.372419 118.127891 
z
" clip-path="url(#p1ac8275d0d)" style="fill: #ffa600"/>
   </g>
   <g id="patch_26">
    <path d="M 312.017892 107.961114 
L 309.104885 107.961114 
L 308.644937 128.16 
L 306.771073 128.16 
L 309.447137 17.28 
L 311.669446 17.28 
L 314.345509 128.16 
L 312.473194 128.16 
L 312.017892 107.961114 
z
M 309.56948 87.382015 
L 311.548651 87.382015 
L 310.560614 43.277154 
L 309.56948 87.382015 
z
" clip-path="url(#p1ac8275d0d)" style="fill: #008000"/>
   </g>
   <g id="patch_27">
    <path d="M 314.744164 17.28 
L 322.318599 17.28 
L 322.318599 38.904689 
L 319.593564 38.904689 
L 319.593564 128.16 
L 317.474483 128.16 
L 317.474483 38.904689 
L 314.744164 38.904689 
L 314.744164 17.28 
z
" clip-path="url(#p1ac8275d0d)" style="fill: #ff0000"/>
   </g>
   <g id="patch_28">
    <path d="M 327.964072 107.961114 
L 325.051066 107.961114 
L 324.591117 128.16 
L 322.717254 128.16 
L 325.393317 17.28 
L 327.615626 17.28 
L 330.291689 128.16 
L 328.419374 128.16 
L 327.964072 107.961114 
z
M 325.51566 87.382015 
L 327.494832 87.382015 
L 326.506795 43.277154 
L 325.51566 87.382015 
z
" clip-path="url(#p1ac8275d0d)" style="fill: #008000"/>
   </g>
   <g id="patch_29">
    <path d="M 338.26478 118.127891 
Q 337.500885 123.143945 336.679275 125.663425 
Q 335.857664 128.16 334.981732 128.16 
Q 333.002397 128.16 331.846371 113.226358 
Q 330.690344 98.292716 330.690344 72.754357 
Q 330.690344 46.91824 331.866741 32.09912 
Q 333.044836 17.28 335.09377 17.28 
Q 335.883127 17.28 336.60628 19.295584 
Q 337.331131 21.288263 337.972802 25.227812 
L 337.972802 47.330518 
Q 337.310761 42.268655 336.655509 39.77208 
Q 336.000258 37.252601 335.341611 37.252601 
Q 334.122775 37.252601 333.462431 46.460153 
Q 332.802087 55.644801 332.802087 72.754357 
Q 332.802087 89.703582 333.438666 98.956943 
Q 334.075244 108.187399 335.246549 108.187399 
Q 335.565687 108.187399 335.838991 107.660599 
Q 336.112295 107.110894 336.329581 105.965677 
L 336.329581 85.214328 
L 335.081887 85.214328 
L 335.081887 66.73051 
L 338.26478 66.73051 
L 338.26478 118.127891 
z
" clip-path="url(#p1ac8275d0d)" style="fill: #ffa600"/>
   </g>
   <g id="patch_30">
    <path d="M 338.663434 17.28 
L 346.23787 17.28 
L 346.23787 38.904689 
L 343.512834 38.904689 
L 343.512834 128.16 
L 341.393754 128.16 
L 341.393754 38.904689 
L 338.663434 38.904689 
L 338.663434 17.28 
z
" clip-path="url(#p1ac8275d0d)" style="fill: #ff0000"/>
   </g>
   <g id="patch_31">
    <path d="M 354.21096 118.127891 
Q 353.447066 123.143945 352.625455 125.663425 
Q 351.803844 128.16 350.927912 128.16 
Q 348.948577 128.16 347.792551 113.226358 
Q 346.636524 98.292716 346.636524 72.754357 
Q 346.636524 46.91824 347.812921 32.09912 
Q 348.991016 17.28 351.03995 17.28 
Q 351.829307 17.28 352.552461 19.295584 
Q 353.277311 21.288263 353.918983 25.227812 
L 353.918983 47.330518 
Q 353.256941 42.268655 352.601689 39.77208 
Q 351.946438 37.252601 351.287791 37.252601 
Q 350.068956 37.252601 349.408612 46.460153 
Q 348.748267 55.644801 348.748267 72.754357 
Q 348.748267 89.703582 349.384846 98.956943 
Q 350.021424 108.187399 351.192729 108.187399 
Q 351.511867 108.187399 351.785171 107.660599 
Q 352.058476 107.110894 352.275761 105.965677 
L 352.275761 85.214328 
L 351.028067 85.214328 
L 351.028067 66.73051 
L 354.21096 66.73051 
L 354.21096 118.127891 
z
" clip-path="url(#p1ac8275d0d)" style="fill: #ffa600"/>
   </g>
   <g id="patch_32">
    <path d="M 359.856433 107.961114 
L 356.943426 107.961114 
L 356.483478 128.16 
L 354.609614 128.16 
L 357.285678 17.28 
L 359.507987 17.28 
L 362.18405 128.16 
L 360.311735 128.16 
L 359.856433 107.961114 
z
M 357.408021 87.382015 
L 359.387192 87.382015 
L 358.399155 43.277154 
L 357.408021 87.382015 
z
" clip-path="url(#p1ac8275d0d)" style="fill: #008000"/>
   </g>
   <g id="patch_33">
    <path d="M 370.15714 120.212188 
Q 369.523552 124.151737 368.838436 126.144416 
Q 368.153321 128.16 367.407137 128.16 
Q 365.181944 128.16 363.882324 113.226358 
Q 362.582705 98.292716 362.582705 72.754357 
Q 362.582705 47.124379 363.882324 32.213642 
Q 365.181944 17.28 367.407137 17.28 
Q 368.153321 17.28 368.838436 19.295584 
Q 369.523552 21.288263 370.15714 25.227812 
L 370.15714 47.330518 
Q 369.517827 42.108325 368.897597 39.680463 
Q 368.277367 37.252601 367.592252 37.252601 
Q 366.363243 37.252601 365.659044 46.712101 
Q 364.956753 56.148697 364.956753 72.754357 
Q 364.956753 89.291303 365.659044 98.750804 
Q 366.363243 108.187399 367.592252 108.187399 
Q 368.277367 108.187399 368.897597 105.759537 
Q 369.517827 103.308771 370.15714 98.086577 
L 370.15714 120.212188 
z
" clip-path="url(#p1ac8275d0d)" style="fill: #0000ff"/>
   </g>
   <g id="patch_34">
    <path d="M 378.13023 120.212188 
Q 377.496642 124.151737 376.811527 126.144416 
Q 376.126411 128.16 375.380227 128.16 
Q 373.155034 128.16 371.855414 113.226358 
Q 370.555795 98.292716 370.555795 72.754357 
Q 370.555795 47.124379 371.855414 32.213642 
Q 373.155034 17.28 375.380227 17.28 
Q 376.126411 17.28 376.811527 19.295584 
Q 377.496642 21.288263 378.13023 25.227812 
L 378.13023 47.330518 
Q 377.490917 42.108325 376.870687 39.680463 
Q 376.250457 37.252601 375.565342 37.252601 
Q 374.336333 37.252601 373.632134 46.712101 
Q 372.929843 56.148697 372.929843 72.754357 
Q 372.929843 89.291303 373.632134 98.750804 
Q 374.336333 108.187399 375.565342 108.187399 
Q 376.250457 108.187399 376.870687 105.759537 
Q 377.490917 103.308771 378.13023 98.086577 
L 378.13023 120.212188 
z
" clip-path="url(#p1ac8275d0d)" style="fill: #0000ff"/>
   </g>
   <g id="patch_35">
    <path d="M 378.528885 17.28 
L 386.10332 17.28 
L 386.10332 38.904689 
L 383.378285 38.904689 
L 383.378285 128.16 
L 381.259205 128.16 
L 381.259205 38.904689 
L 378.528885 38.904689 
L 378.528885 17.28 
z
" clip-path="url(#p1ac8275d0d)" style="fill: #ff0000"/>
   </g>
   <g id="patch_36">
    <path d="M 394.076411 118.127891 
Q 393.312516 123.143945 392.490906 125.663425 
Q 391.669295 128.16 390.793363 128.16 
Q 388.814028 128.16 387.658002 113.226358 
Q 386.501975 98.292716 386.501975 72.754357 
Q 386.501975 46.91824 387.678372 32.09912 
Q 388.856467 17.28 390.905401 17.28 
Q 391.694758 17.28 392.417911 19.295584 
Q 393.142762 21.288263 393.784433 25.227812 
L 393.784433 47.330518 
Q 393.122392 42.268655 392.46714 39.77208 
Q 391.811889 37.252601 391.153242 37.252601 
Q 389.934406 37.252601 389.274062 46.460153 
Q 388.613718 55.644801 388.613718 72.754357 
Q 388.613718 89.703582 389.250297 98.956943 
Q 389.886875 108.187399 391.05818 108.187399 
Q 391.377318 108.187399 391.650622 107.660599 
Q 391.923926 107.110894 392.141212 105.965677 
L 392.141212 85.214328 
L 390.893518 85.214328 
L 390.893518 66.73051 
L 394.076411 66.73051 
L 394.076411 118.127891 
z
" clip-path="url(#p1ac8275d0d)" style="fill: #ffa600"/>
   </g>
   <g id="patch_37">
    <path d="M 394.475065 17.28 
L 402.049501 17.28 
L 402.049501 38.904689 
L 399.324465 38.904689 
L 399.324465 128.16 
L 397.205385 128.16 
L 397.205385 38.904689 
L 394.475065 38.904689 
L 394.475065 17.28 
z
" clip-path="url(#p1ac8275d0d)" style="fill: #ff0000"/>
   </g>
   <g id="patch_38">
    <path d="M 402.448155 17.28 
L 410.022591 17.28 
L 410.022591 38.904689 
L 407.297556 38.904689 
L 407.297556 128.16 
L 405.178475 128.16 
L 405.178475 38.904689 
L 402.448155 38.904689 
L 402.448155 17.28 
z
" clip-path="url(#p1ac8275d0d)" style="fill: #ff0000"/>
   </g>
   <g id="patch_39">
    <path d="M 417.995681 120.212188 
Q 417.362093 124.151737 416.676977 126.144416 
Q 415.991862 128.16 415.245678 128.16 
Q 413.020485 128.16 411.720865 113.226358 
Q 410.421245 98.292716 410.421245 72.754357 
Q 410.421245 47.124379 411.720865 32.213642 
Q 413.020485 17.28 415.245678 17.28 
Q 415.991862 17.28 416.676977 19.295584 
Q 417.362093 21.288263 417.995681 25.227812 
L 417.995681 47.330518 
Q 417.356367 42.108325 416.736138 39.680463 
Q 416.115908 37.252601 415.430793 37.252601 
Q 414.201784 37.252601 413.497585 46.712101 
Q 412.795294 56.148697 412.795294 72.754357 
Q 412.795294 89.291303 413.497585 98.750804 
Q 414.201784 108.187399 415.430793 108.187399 
Q 416.115908 108.187399 416.736138 105.759537 
Q 417.356367 103.308771 417.995681 98.086577 
L 417.995681 120.212188 
z
" clip-path="url(#p1ac8275d0d)" style="fill: #0000ff"/>
   </g>
   <g id="patch_40">
    <path d="M 425.968771 118.127891 
Q 425.204877 123.143945 424.383266 125.663425 
Q 423.561656 128.16 422.685724 128.16 
Q 420.706389 128.16 419.550362 113.226358 
Q 418.394336 98.292716 418.394336 72.754357 
Q 418.394336 46.91824 419.570733 32.09912 
Q 420.748827 17.28 422.797761 17.28 
Q 423.587119 17.28 424.310272 19.295584 
Q 425.035123 21.288263 425.676794 25.227812 
L 425.676794 47.330518 
Q 425.014752 42.268655 424.359501 39.77208 
Q 423.704249 37.252601 423.045603 37.252601 
Q 421.826767 37.252601 421.166423 46.460153 
Q 420.506079 55.644801 420.506079 72.754357 
Q 420.506079 89.703582 421.142657 98.956943 
Q 421.779236 108.187399 422.95054 108.187399 
Q 423.269678 108.187399 423.542983 107.660599 
Q 423.816287 107.110894 424.033573 105.965677 
L 424.033573 85.214328 
L 422.785879 85.214328 
L 422.785879 66.73051 
L 425.968771 66.73051 
L 425.968771 118.127891 
z
" clip-path="url(#p1ac8275d0d)" style="fill: #ffa600"/>
   </g>
   <g id="patch_41">
    <path d="M 426.367426 17.28 
L 433.941861 17.28 
L 433.941861 38.904689 
L 431.216826 38.904689 
L 431.216826 128.16 
L 429.097746 128.16 
L 429.097746 38.904689 
L 426.367426 38.904689 
L 426.367426 17.28 
z
" clip-path="url(#p1ac8275d0d)" style="fill: #ff0000"/>
   </g>
   <g id="patch_42">
    <path d="M 434.340516 17.28 
L 441.914952 17.28 
L 441.914952 38.904689 
L 439.189916 38.904689 
L 439.189916 128.16 
L 437.070836 128.16 
L 437.070836 38.904689 
L 434.340516 38.904689 
L 434.340516 17.28 
z
" clip-path="url(#p1ac8275d0d)" style="fill: #ff0000"/>
   </g>
   <g id="patch_43">
    <path d="M 449.888042 118.127891 
Q 449.124147 123.143945 448.302537 125.663425 
Q 447.480926 128.16 446.604994 128.16 
Q 444.625659 128.16 443.469633 113.226358 
Q 442.313606 98.292716 442.313606 72.754357 
Q 442.313606 46.91824 443.490003 32.09912 
Q 444.668098 17.28 446.717032 17.28 
Q 447.506389 17.28 448.229542 19.295584 
Q 448.954393 21.288263 449.596064 25.227812 
L 449.596064 47.330518 
Q 448.934023 42.268655 448.278771 39.77208 
Q 447.62352 37.252601 446.964873 37.252601 
Q 445.746037 37.252601 445.085693 46.460153 
Q 444.425349 55.644801 444.425349 72.754357 
Q 444.425349 89.703582 445.061928 98.956943 
Q 445.698506 108.187399 446.869811 108.187399 
Q 447.188949 108.187399 447.462253 107.660599 
Q 447.735558 107.110894 447.952843 105.965677 
L 447.952843 85.214328 
L 446.705149 85.214328 
L 446.705149 66.73051 
L 449.888042 66.73051 
L 449.888042 118.127891 
z
" clip-path="url(#p1ac8275d0d)" style="fill: #ffa600"/>
   </g>
   <g id="patch_44">
    <path d="M 457.861132 120.212188 
Q 457.227543 124.151737 456.542428 126.144416 
Q 455.857313 128.16 455.111129 128.16 
Q 452.885936 128.16 451.586316 113.226358 
Q 450.286696 98.292716 450.286696 72.754357 
Q 450.286696 47.124379 451.586316 32.213642 
Q 452.885936 17.28 455.111129 17.28 
Q 455.857313 17.28 456.542428 19.295584 
Q 457.227543 21.288263 457.861132 25.227812 
L 457.861132 47.330518 
Q 457.221818 42.108325 456.601588 39.680463 
Q 455.981359 37.252601 455.296244 37.252601 
Q 454.067235 37.252601 453.363035 46.712101 
Q 452.660745 56.148697 452.660745 72.754357 
Q 452.660745 89.291303 453.363035 98.750804 
Q 454.067235 108.187399 455.296244 108.187399 
Q 455.981359 108.187399 456.601588 105.759537 
Q 457.221818 103.308771 457.861132 98.086577 
L 457.861132 120.212188 
z
" clip-path="url(#p1ac8275d0d)" style="fill: #0000ff"/>
   </g>
   <g id="patch_45">
    <path d="M 463.506605 107.961114 
L 460.593598 107.961114 
L 460.13365 128.16 
L 458.259786 128.16 
L 460.935849 17.28 
L 463.158159 17.28 
L 465.834222 128.16 
L 463.961907 128.16 
L 463.506605 107.961114 
z
M 461.058193 87.382015 
L 463.037364 87.382015 
L 462.049327 43.277154 
L 461.058193 87.382015 
z
" clip-path="url(#p1ac8275d0d)" style="fill: #008000"/>
   </g>
   <g id="patch_46">
    <path d="M 471.479695 107.961114 
L 468.566689 107.961114 
L 468.10674 128.16 
L 466.232876 128.16 
L 468.90894 17.28 
L 471.131249 17.28 
L 473.807312 128.16 
L 471.934997 128.16 
L 471.479695 107.961114 
z
M 469.031283 87.382015 
L 471.010454 87.382015 
L 470.022417 43.277154 
L 469.031283 87.382015 
z
" clip-path="url(#p1ac8275d0d)" style="fill: #008000"/>
   </g>
   <g id="patch_47">
    <path d="M 481.780402 120.212188 
Q 481.146814 124.151737 480.461699 126.144416 
Q 479.776583 128.16 479.030399 128.16 
Q 476.805206 128.16 475.505586 113.226358 
Q 474.205967 98.292716 474.205967 72.754357 
Q 474.205967 47.124379 475.505586 32.213642 
Q 476.805206 17.28 479.030399 17.28 
Q 479.776583 17.28 480.461699 19.295584 
Q 481.146814 21.288263 481.780402 25.227812 
L 481.780402 47.330518 
Q 481.141089 42.108325 480.520859 39.680463 
Q 479.900629 37.252601 479.215514 37.252601 
Q 477.986505 37.252601 477.282306 46.712101 
Q 476.580015 56.148697 476.580015 72.754357 
Q 476.580015 89.291303 477.282306 98.750804 
Q 477.986505 108.187399 479.215514 108.187399 
Q 479.900629 108.187399 480.520859 105.759537 
Q 481.141089 103.308771 481.780402 98.086577 
L 481.780402 120.212188 
z
" clip-path="url(#p1ac8275d0d)" style="fill: #0000ff"/>
   </g>
   <g id="patch_48">
    <path d="M 487.425875 107.961114 
L 484.512869 107.961114 
L 484.05292 128.16 
L 482.179057 128.16 
L 484.85512 17.28 
L 487.077429 17.28 
L 489.753492 128.16 
L 487.881177 128.16 
L 487.425875 107.961114 
z
M 484.977463 87.382015 
L 486.956635 87.382015 
L 485.968598 43.277154 
L 484.977463 87.382015 
z
" clip-path="url(#p1ac8275d0d)" style="fill: #008000"/>
   </g>
   <g id="patch_49">
    <path d="M 495.398965 107.961114 
L 492.485959 107.961114 
L 492.026011 128.16 
L 490.152147 128.16 
L 492.82821 17.28 
L 495.050519 17.28 
L 497.726583 128.16 
L 495.854268 128.16 
L 495.398965 107.961114 
z
M 492.950553 87.382015 
L 494.929725 87.382015 
L 493.941688 43.277154 
L 492.950553 87.382015 
z
" clip-path="url(#p1ac8275d0d)" style="fill: #008000"/>
   </g>
   <g id="patch_50">
    <path d="M 503.372055 107.961114 
L 500.459049 107.961114 
L 499.999101 128.16 
L 498.125237 128.16 
L 500.8013 17.28 
L 503.02361 17.28 
L 505.699673 128.16 
L 503.827358 128.16 
L 503.372055 107.961114 
z
M 500.923643 87.382015 
L 502.902815 87.382015 
L 501.914778 43.277154 
L 500.923643 87.382015 
z
" clip-path="url(#p1ac8275d0d)" style="fill: #008000"/>
   </g>
   <g id="patch_51">
    <path d="M 506.098327 17.28 
L 513.672763 17.28 
L 513.672763 38.904689 
L 510.947728 38.904689 
L 510.947728 128.16 
L 508.828647 128.16 
L 508.828647 38.904689 
L 506.098327 38.904689 
L 506.098327 17.28 
z
" clip-path="url(#p1ac8275d0d)" style="fill: #ff0000"/>
   </g>
   <g id="patch_52">
    <path d="M 514.071417 17.28 
L 521.645853 17.28 
L 521.645853 38.904689 
L 518.920818 38.904689 
L 518.920818 128.16 
L 516.801737 128.16 
L 516.801737 38.904689 
L 514.071417 38.904689 
L 514.071417 17.28 
z
" clip-path="url(#p1ac8275d0d)" style="fill: #ff0000"/>
   </g>
   <g id="patch_53">
    <path d="M 529.618943 118.127891 
Q 528.855049 123.143945 528.033438 125.663425 
Q 527.211828 128.16 526.335896 128.16 
Q 524.356561 128.16 523.200534 113.226358 
Q 522.044508 98.292716 522.044508 72.754357 
Q 522.044508 46.91824 523.220905 32.09912 
Q 524.398999 17.28 526.447933 17.28 
Q 527.237291 17.28 527.960444 19.295584 
Q 528.685295 21.288263 529.326966 25.227812 
L 529.326966 47.330518 
Q 528.664924 42.268655 528.009673 39.77208 
Q 527.354421 37.252601 526.695775 37.252601 
Q 525.476939 37.252601 524.816595 46.460153 
Q 524.156251 55.644801 524.156251 72.754357 
Q 524.156251 89.703582 524.792829 98.956943 
Q 525.429408 108.187399 526.600712 108.187399 
Q 526.91985 108.187399 527.193155 107.660599 
Q 527.466459 107.110894 527.683744 105.965677 
L 527.683744 85.214328 
L 526.436051 85.214328 
L 526.436051 66.73051 
L 529.618943 66.73051 
L 529.618943 118.127891 
z
" clip-path="url(#p1ac8275d0d)" style="fill: #ffa600"/>
   </g>
   <g id="patch_54">
    <path d="M 535.264416 107.961114 
L 532.35141 107.961114 
L 531.891461 128.16 
L 530.017598 128.16 
L 532.693661 17.28 
L 534.91597 17.28 
L 537.592033 128.16 
L 535.719718 128.16 
L 535.264416 107.961114 
z
M 532.816004 87.382015 
L 534.795176 87.382015 
L 533.807139 43.277154 
L 532.816004 87.382015 
z
" clip-path="url(#p1ac8275d0d)" style="fill: #008000"/>
   </g>
   <g id="patch_55">
    <path d="M 537.990688 17.28 
L 545.565124 17.28 
L 545.565124 38.904689 
L 542.840088 38.904689 
L 542.840088 128.16 
L 540.721008 128.16 
L 540.721008 38.904689 
L 537.990688 38.904689 
L 537.990688 17.28 
z
" clip-path="url(#p1ac8275d0d)" style="fill: #ff0000"/>
   </g>
   <g id="patch_56">
    <path d="M 551.210596 120.080446 
L 548.29759 120.080446 
L 547.837642 128.16 
L 545.963778 128.16 
L 548.639841 83.808 
L 550.862151 83.808 
L 553.538214 128.16 
L 551.665899 128.16 
L 551.210596 120.080446 
z
M 548.762184 111.848806 
L 550.741356 111.848806 
L 549.753319 94.206862 
L 548.762184 111.848806 
z
" clip-path="url(#p1ac8275d0d)" style="fill: #008000"/>
   </g>
   <g id="patch_57">
    <path d="M 553.538214 77.788735 
Q 552.774319 80.798367 551.952709 82.310055 
Q 551.131098 83.808 550.255166 83.808 
Q 548.275831 83.808 547.119805 74.847815 
Q 545.963778 65.88763 545.963778 50.564614 
Q 545.963778 35.062944 547.140175 26.171472 
Q 548.31827 17.28 550.367204 17.28 
Q 551.156561 17.28 551.879714 18.48935 
Q 552.604565 19.684958 553.246236 22.048687 
L 553.246236 35.310311 
Q 552.584195 32.273193 551.928943 30.775248 
Q 551.273692 29.26356 550.615045 29.26356 
Q 549.396209 29.26356 548.735865 34.788092 
Q 548.075521 40.29888 548.075521 50.564614 
Q 548.075521 60.734149 548.7121 66.286166 
Q 549.348678 71.82444 550.519983 71.82444 
Q 550.839121 71.82444 551.112425 71.508359 
Q 551.385729 71.178537 551.603015 70.491406 
L 551.603015 58.040597 
L 550.355321 58.040597 
L 550.355321 46.950306 
L 553.538214 46.950306 
L 553.538214 77.788735 
z
" clip-path="url(#p1ac8275d0d)" style="fill: #ffa600"/>
   </g>
   <g id="patch_58">
    <path d="M 559.183686 107.961114 
L 556.27068 107.961114 
L 555.810732 128.16 
L 553.936868 128.16 
L 556.612931 17.28 
L 558.835241 17.28 
L 561.511304 128.16 
L 559.638989 128.16 
L 559.183686 107.961114 
z
M 556.735274 87.382015 
L 558.714446 87.382015 
L 557.726409 43.277154 
L 556.735274 87.382015 
z
" clip-path="url(#p1ac8275d0d)" style="fill: #008000"/>
   </g>
   <g id="patch_59">
    <path d="M 569.484394 118.127891 
Q 568.7205 123.143945 567.898889 125.663425 
Q 567.077278 128.16 566.201346 128.16 
Q 564.222012 128.16 563.065985 113.226358 
Q 561.909958 98.292716 561.909958 72.754357 
Q 561.909958 46.91824 563.086355 32.09912 
Q 564.26445 17.28 566.313384 17.28 
Q 567.102742 17.28 567.825895 19.295584 
Q 568.550745 21.288263 569.192417 25.227812 
L 569.192417 47.330518 
Q 568.530375 42.268655 567.875123 39.77208 
Q 567.219872 37.252601 566.561225 37.252601 
Q 565.34239 37.252601 564.682046 46.460153 
Q 564.021701 55.644801 564.021701 72.754357 
Q 564.021701 89.703582 564.65828 98.956943 
Q 565.294859 108.187399 566.466163 108.187399 
Q 566.785301 108.187399 567.058605 107.660599 
Q 567.33191 107.110894 567.549195 105.965677 
L 567.549195 85.214328 
L 566.301501 85.214328 
L 566.301501 66.73051 
L 569.484394 66.73051 
L 569.484394 118.127891 
z
" clip-path="url(#p1ac8275d0d)" style="fill: #ffa600"/>
   </g>
   <g id="patch_60">
    <path d="M 577.457484 120.212188 
Q 576.823896 124.151737 576.13878 126.144416 
Q 575.453665 128.16 574.707481 128.16 
Q 572.482288 128.16 571.182668 113.226358 
Q 569.883048 98.292716 569.883048 72.754357 
Q 569.883048 47.124379 571.182668 32.213642 
Q 572.482288 17.28 574.707481 17.28 
Q 575.453665 17.28 576.13878 19.295584 
Q 576.823896 21.288263 577.457484 25.227812 
L 577.457484 47.330518 
Q 576.81817 42.108325 576.197941 39.680463 
Q 575.577711 37.252601 574.892596 37.252601 
Q 573.663587 37.252601 572.959388 46.712101 
Q 572.257097 56.148697 572.257097 72.754357 
Q 572.257097 89.291303 572.959388 98.750804 
Q 573.663587 108.187399 574.892596 108.187399 
Q 575.577711 108.187399 576.197941 105.759537 
Q 576.81817 103.308771 577.457484 98.086577 
L 577.457484 120.212188 
z
" clip-path="url(#p1ac8275d0d)" style="fill: #0000ff"/>
   </g>
   <g id="patch_61">
    <path d="M 583.102957 107.961114 
L 580.189951 107.961114 
L 579.730002 128.16 
L 577.856139 128.16 
L 580.532202 17.28 
L 582.754511 17.28 
L 585.430574 128.16 
L 583.558259 128.16 
L 583.102957 107.961114 
z
M 580.654545 87.382015 
L 582.633717 87.382015 
L 581.645679 43.277154 
L 580.654545 87.382015 
z
" clip-path="url(#p1ac8275d0d)" style="fill: #008000"/>
   </g>
   <g id="patch_62">
    <path d="M 591.076047 107.961114 
L 588.163041 107.961114 
L 587.703092 128.16 
L 585.829229 128.16 
L 588.505292 17.28 
L 590.727601 17.28 
L 593.403664 128.16 
L 591.531349 128.16 
L 591.076047 107.961114 
z
M 588.627635 87.382015 
L 590.606807 87.382015 
L 589.61877 43.277154 
L 588.627635 87.382015 
z
" clip-path="url(#p1ac8275d0d)" style="fill: #008000"/>
   </g>
   <g id="patch_63">
    <path d="M 593.802319 17.28 
L 601.376755 17.28 
L 601.376755 38.904689 
L 598.651719 38.904689 
L 598.651719 128.16 
L 596.532639 128.16 
L 596.532639 38.904689 
L 593.802319 38.904689 
L 593.802319 17.28 
z
" clip-path="url(#p1ac8275d0d)" style="fill: #ff0000"/>
   </g>
   <g id="patch_64">
    <path d="M 609.349845 118.127891 
Q 608.58595 123.143945 607.76434 125.663425 
Q 606.942729 128.16 606.066797 128.16 
Q 604.087462 128.16 602.931436 113.226358 
Q 601.775409 98.292716 601.775409 72.754357 
Q 601.775409 46.91824 602.951806 32.09912 
Q 604.129901 17.28 606.178835 17.28 
Q 606.968192 17.28 607.691345 19.295584 
Q 608.416196 21.288263 609.057867 25.227812 
L 609.057867 47.330518 
Q 608.395826 42.268655 607.740574 39.77208 
Q 607.085323 37.252601 606.426676 37.252601 
Q 605.20784 37.252601 604.547496 46.460153 
Q 603.887152 55.644801 603.887152 72.754357 
Q 603.887152 89.703582 604.523731 98.956943 
Q 605.160309 108.187399 606.331614 108.187399 
Q 606.650752 108.187399 606.924056 107.660599 
Q 607.197361 107.110894 607.414646 105.965677 
L 607.414646 85.214328 
L 606.166952 85.214328 
L 606.166952 66.73051 
L 609.349845 66.73051 
L 609.349845 118.127891 
z
" clip-path="url(#p1ac8275d0d)" style="fill: #ffa600"/>
   </g>
   <g id="patch_65">
    <path d="M 617.322935 120.212188 
Q 616.689346 124.151737 616.004231 126.144416 
Q 615.319116 128.16 614.572932 128.16 
Q 612.347739 128.16 611.048119 113.226358 
Q 609.748499 98.292716 609.748499 72.754357 
Q 609.748499 47.124379 611.048119 32.213642 
Q 612.347739 17.28 614.572932 17.28 
Q 615.319116 17.28 616.004231 19.295584 
Q 616.689346 21.288263 617.322935 25.227812 
L 617.322935 47.330518 
Q 616.683621 42.108325 616.063392 39.680463 
Q 615.443162 37.252601 614.758047 37.252601 
Q 613.529038 37.252601 612.824838 46.712101 
Q 612.122548 56.148697 612.122548 72.754357 
Q 612.122548 89.291303 612.824838 98.750804 
Q 613.529038 108.187399 614.758047 108.187399 
Q 615.443162 108.187399 616.063392 105.759537 
Q 616.683621 103.308771 617.322935 98.086577 
L 617.322935 120.212188 
z
" clip-path="url(#p1ac8275d0d)" style="fill: #0000ff"/>
   </g>
   <g id="patch_66">
    <path d="M 617.721589 17.28 
L 625.296025 17.28 
L 625.296025 38.904689 
L 622.57099 38.904689 
L 622.57099 128.16 
L 620.451909 128.16 
L 620.451909 38.904689 
L 617.721589 38.904689 
L 617.721589 17.28 
z
" clip-path="url(#p1ac8275d0d)" style="fill: #ff0000"/>
   </g>
   <g id="patch_67">
    <path d="M 625.69468 17.28 
L 633.269115 17.28 
L 633.269115 38.904689 
L 630.54408 38.904689 
L 630.54408 128.16 
L 628.424999 128.16 
L 628.424999 38.904689 
L 625.69468 38.904689 
L 625.69468 17.28 
z
" clip-path="url(#p1ac8275d0d)" style="fill: #ff0000"/>
   </g>
   <g id="patch_68">
    <path d="M 633.66777 17.28 
L 641.242205 17.28 
L 641.242205 38.904689 
L 638.51717 38.904689 
L 638.51717 128.16 
L 636.398089 128.16 
L 636.398089 38.904689 
L 633.66777 38.904689 
L 633.66777 17.28 
z
" clip-path="url(#p1ac8275d0d)" style="fill: #ff0000"/>
   </g>
   <g id="patch_69">
    <path d="M 649.215295 126.570438 
Q 648.581707 127.358347 647.896592 127.756883 
Q 647.211477 128.16 646.465293 128.16 
Q 644.240099 128.16 642.94048 125.173272 
Q 641.64086 122.186543 641.64086 117.078871 
Q 641.64086 111.952876 642.94048 108.970728 
Q 644.240099 105.984 646.465293 105.984 
Q 647.211477 105.984 647.896592 106.387117 
Q 648.581707 106.785653 649.215295 107.573562 
L 649.215295 111.994104 
Q 648.575982 110.949665 647.955752 110.464093 
Q 647.335522 109.97852 646.650407 109.97852 
Q 645.421398 109.97852 644.717199 111.87042 
Q 644.014908 113.757739 644.014908 117.078871 
Q 644.014908 120.386261 644.717199 122.278161 
Q 645.421398 124.16548 646.650407 124.16548 
Q 647.335522 124.16548 647.955752 123.679907 
Q 648.575982 123.189754 649.215295 122.145315 
L 649.215295 126.570438 
z
" clip-path="url(#p1ac8275d0d)" style="fill: #0000ff"/>
   </g>
   <g id="patch_70">
    <path d="M 641.64086 17.28 
L 649.215295 17.28 
L 649.215295 34.579751 
L 646.49026 34.579751 
L 646.49026 105.984 
L 644.37118 105.984 
L 644.37118 34.579751 
L 641.64086 34.579751 
L 641.64086 17.28 
z
" clip-path="url(#p1ac8275d0d)" style="fill: #ff0000"/>
   </g>
   <g id="patch_71">
    <path d="M 657.188386 126.570438 
Q 656.554797 127.358347 655.869682 127.756883 
Q 655.184567 128.16 654.438383 128.16 
Q 652.213189 128.16 650.91357 125.173272 
Q 649.61395 122.186543 649.61395 117.078871 
Q 649.61395 111.952876 650.91357 108.970728 
Q 652.213189 105.984 654.438383 105.984 
Q 655.184567 105.984 655.869682 106.387117 
Q 656.554797 106.785653 657.188386 107.573562 
L 657.188386 111.994104 
Q 656.549072 110.949665 655.928842 110.464093 
Q 655.308613 109.97852 654.623497 109.97852 
Q 653.394488 109.97852 652.690289 111.87042 
Q 651.987998 113.757739 651.987998 117.078871 
Q 651.987998 120.386261 652.690289 122.278161 
Q 653.394488 124.16548 654.623497 124.16548 
Q 655.308613 124.16548 655.928842 123.679907 
Q 656.549072 123.189754 657.188386 122.145315 
L 657.188386 126.570438 
z
" clip-path="url(#p1ac8275d0d)" style="fill: #0000ff"/>
   </g>
   <g id="patch_72">
    <path d="M 649.61395 17.28 
L 657.188386 17.28 
L 657.188386 34.579751 
L 654.46335 34.579751 
L 654.46335 105.984 
L 652.34427 105.984 
L 652.34427 34.579751 
L 649.61395 34.579751 
L 649.61395 17.28 
z
" clip-path="url(#p1ac8275d0d)" style="fill: #ff0000"/>
   </g>
   <g id="patch_73">
    <path d="M 657.58704 17.28 
L 665.161476 17.28 
L 665.161476 38.904689 
L 662.43644 38.904689 
L 662.43644 128.16 
L 660.31736 128.16 
L 660.31736 38.904689 
L 657.58704 38.904689 
L 657.58704 17.28 
z
" clip-path="url(#p1ac8275d0d)" style="fill: #ff0000"/>
   </g>
   <g id="patch_74">
    <path d="M 670.806949 107.961114 
L 667.893942 107.961114 
L 667.433994 128.16 
L 665.56013 128.16 
L 668.236193 17.28 
L 670.458503 17.28 
L 673.134566 128.16 
L 671.262251 128.16 
L 670.806949 107.961114 
z
M 668.358537 87.382015 
L 670.337708 87.382015 
L 669.349671 43.277154 
L 668.358537 87.382015 
z
" clip-path="url(#p1ac8275d0d)" style="fill: #008000"/>
   </g>
   <g id="patch_75">
    <path d="M 673.53322 17.28 
L 681.107656 17.28 
L 681.107656 38.904689 
L 678.382621 38.904689 
L 678.382621 128.16 
L 676.26354 128.16 
L 676.26354 38.904689 
L 673.53322 38.904689 
L 673.53322 17.28 
z
" clip-path="url(#p1ac8275d0d)" style="fill: #ff0000"/>
   </g>
   <g id="patch_76">
    <path d="M 686.753129 107.961114 
L 683.840123 107.961114 
L 683.380174 128.16 
L 681.506311 128.16 
L 684.182374 17.28 
L 686.404683 17.28 
L 689.080746 128.16 
L 687.208431 128.16 
L 686.753129 107.961114 
z
M 684.304717 87.382015 
L 686.283889 87.382015 
L 685.295851 43.277154 
L 684.304717 87.382015 
z
" clip-path="url(#p1ac8275d0d)" style="fill: #008000"/>
   </g>
   <g id="patch_77">
    <path d="M 694.726219 107.961114 
L 691.813213 107.961114 
L 691.353264 128.16 
L 689.479401 128.16 
L 692.155464 17.28 
L 694.377773 17.28 
L 697.053836 128.16 
L 695.181521 128.16 
L 694.726219 107.961114 
z
M 692.277807 87.382015 
L 694.256979 87.382015 
L 693.268942 43.277154 
L 692.277807 87.382015 
z
" clip-path="url(#p1ac8275d0d)" style="fill: #008000"/>
   </g>
   <g id="patch_78">
    <path d="M 697.452491 17.28 
L 705.026927 17.28 
L 705.026927 38.904689 
L 702.301891 38.904689 
L 702.301891 128.16 
L 700.182811 128.16 
L 700.182811 38.904689 
L 697.452491 38.904689 
L 697.452491 17.28 
z
" clip-path="url(#p1ac8275d0d)" style="fill: #ff0000"/>
   </g>
   <g id="patch_79">
    <path d="M 713.000017 118.127891 
Q 712.236122 123.143945 711.414512 125.663425 
Q 710.592901 128.16 709.716969 128.16 
Q 707.737634 128.16 706.581608 113.226358 
Q 705.425581 98.292716 705.425581 72.754357 
Q 705.425581 46.91824 706.601978 32.09912 
Q 707.780073 17.28 709.829007 17.28 
Q 710.618364 17.28 711.341517 19.295584 
Q 712.066368 21.288263 712.708039 25.227812 
L 712.708039 47.330518 
Q 712.045998 42.268655 711.390746 39.77208 
Q 710.735495 37.252601 710.076848 37.252601 
Q 708.858012 37.252601 708.197668 46.460153 
Q 707.537324 55.644801 707.537324 72.754357 
Q 707.537324 89.703582 708.173903 98.956943 
Q 708.810481 108.187399 709.981786 108.187399 
Q 710.300924 108.187399 710.574228 107.660599 
Q 710.847532 107.110894 711.064818 105.965677 
L 711.064818 85.214328 
L 709.817124 85.214328 
L 709.817124 66.73051 
L 713.000017 66.73051 
L 713.000017 118.127891 
z
" clip-path="url(#p1ac8275d0d)" style="fill: #ffa600"/>
   </g>
   <g id="patch_80">
    <path d="M 720.973107 120.212188 
Q 720.339518 124.151737 719.654403 126.144416 
Q 718.969288 128.16 718.223104 128.16 
Q 715.997911 128.16 714.698291 113.226358 
Q 713.398671 98.292716 713.398671 72.754357 
Q 713.398671 47.124379 714.698291 32.213642 
Q 715.997911 17.28 718.223104 17.28 
Q 718.969288 17.28 719.654403 19.295584 
Q 720.339518 21.288263 720.973107 25.227812 
L 720.973107 47.330518 
Q 720.333793 42.108325 719.713563 39.680463 
Q 719.093334 37.252601 718.408219 37.252601 
Q 717.17921 37.252601 716.47501 46.712101 
Q 715.77272 56.148697 715.77272 72.754357 
Q 715.77272 89.291303 716.47501 98.750804 
Q 717.17921 108.187399 718.408219 108.187399 
Q 719.093334 108.187399 719.713563 105.759537 
Q 720.333793 103.308771 720.973107 98.086577 
L 720.973107 120.212188 
z
" clip-path="url(#p1ac8275d0d)" style="fill: #0000ff"/>
   </g>
   <g id="patch_81">
    <path d="M 728.946197 120.212188 
Q 728.312609 124.151737 727.627493 126.144416 
Q 726.942378 128.16 726.196194 128.16 
Q 723.971001 128.16 722.671381 113.226358 
Q 721.371761 98.292716 721.371761 72.754357 
Q 721.371761 47.124379 722.671381 32.213642 
Q 723.971001 17.28 726.196194 17.28 
Q 726.942378 17.28 727.627493 19.295584 
Q 728.312609 21.288263 728.946197 25.227812 
L 728.946197 47.330518 
Q 728.306883 42.108325 727.686654 39.680463 
Q 727.066424 37.252601 726.381309 37.252601 
Q 725.1523 37.252601 724.448101 46.712101 
Q 723.74581 56.148697 723.74581 72.754357 
Q 723.74581 89.291303 724.448101 98.750804 
Q 725.1523 108.187399 726.381309 108.187399 
Q 727.066424 108.187399 727.686654 105.759537 
Q 728.306883 103.308771 728.946197 98.086577 
L 728.946197 120.212188 
z
" clip-path="url(#p1ac8275d0d)" style="fill: #0000ff"/>
   </g>
   <g id="patch_82">
    <path d="M 734.59167 107.961114 
L 731.678663 107.961114 
L 731.218715 128.16 
L 729.344851 128.16 
L 732.020915 17.28 
L 734.243224 17.28 
L 736.919287 128.16 
L 735.046972 128.16 
L 734.59167 107.961114 
z
M 732.143258 87.382015 
L 734.122429 87.382015 
L 733.134392 43.277154 
L 732.143258 87.382015 
z
" clip-path="url(#p1ac8275d0d)" style="fill: #008000"/>
   </g>
   <g id="patch_83">
    <path d="M 742.56476 107.961114 
L 739.651754 107.961114 
L 739.191805 128.16 
L 737.317942 128.16 
L 739.994005 17.28 
L 742.216314 17.28 
L 744.892377 128.16 
L 743.020062 128.16 
L 742.56476 107.961114 
z
M 740.116348 87.382015 
L 742.09552 87.382015 
L 741.107482 43.277154 
L 740.116348 87.382015 
z
" clip-path="url(#p1ac8275d0d)" style="fill: #008000"/>
   </g>
   <g id="patch_84">
    <path d="M 752.865467 120.212188 
Q 752.231879 124.151737 751.546764 126.144416 
Q 750.861648 128.16 750.115464 128.16 
Q 747.890271 128.16 746.590652 113.226358 
Q 745.291032 98.292716 745.291032 72.754357 
Q 745.291032 47.124379 746.590652 32.213642 
Q 747.890271 17.28 750.115464 17.28 
Q 750.861648 17.28 751.546764 19.295584 
Q 752.231879 21.288263 752.865467 25.227812 
L 752.865467 47.330518 
Q 752.226154 42.108325 751.605924 39.680463 
Q 750.985694 37.252601 750.300579 37.252601 
Q 749.07157 37.252601 748.367371 46.712101 
Q 747.66508 56.148697 747.66508 72.754357 
Q 747.66508 89.291303 748.367371 98.750804 
Q 749.07157 108.187399 750.300579 108.187399 
Q 750.985694 108.187399 751.605924 105.759537 
Q 752.226154 103.308771 752.865467 98.086577 
L 752.865467 120.212188 
z
" clip-path="url(#p1ac8275d0d)" style="fill: #0000ff"/>
   </g>
   <g id="patch_85">
    <path d="M 753.264122 17.28 
L 760.838558 17.28 
L 760.838558 38.904689 
L 758.113522 38.904689 
L 758.113522 128.16 
L 755.994442 128.16 
L 755.994442 38.904689 
L 753.264122 38.904689 
L 753.264122 17.28 
z
" clip-path="url(#p1ac8275d0d)" style="fill: #ff0000"/>
   </g>
   <g id="patch_86">
    <path d="M 761.237212 17.28 
L 768.811648 17.28 
L 768.811648 38.904689 
L 766.086612 38.904689 
L 766.086612 128.16 
L 763.967532 128.16 
L 763.967532 38.904689 
L 761.237212 38.904689 
L 761.237212 17.28 
z
" clip-path="url(#p1ac8275d0d)" style="fill: #ff0000"/>
   </g>
   <g id="patch_87">
    <path d="M 769.210302 17.28 
L 776.784738 17.28 
L 776.784738 38.904689 
L 774.059703 38.904689 
L 774.059703 128.16 
L 771.940622 128.16 
L 771.940622 38.904689 
L 769.210302 38.904689 
L 769.210302 17.28 
z
" clip-path="url(#p1ac8275d0d)" style="fill: #ff0000"/>
   </g>
   <g id="patch_88">
    <path d="M 784.757828 118.127891 
Q 783.993934 123.143945 783.172323 125.663425 
Q 782.350712 128.16 781.47478 128.16 
Q 779.495446 128.16 778.339419 113.226358 
Q 777.183392 98.292716 777.183392 72.754357 
Q 777.183392 46.91824 778.35979 32.09912 
Q 779.537884 17.28 781.586818 17.28 
Q 782.376176 17.28 783.099329 19.295584 
Q 783.82418 21.288263 784.465851 25.227812 
L 784.465851 47.330518 
Q 783.803809 42.268655 783.148558 39.77208 
Q 782.493306 37.252601 781.834659 37.252601 
Q 780.615824 37.252601 779.95548 46.460153 
Q 779.295136 55.644801 779.295136 72.754357 
Q 779.295136 89.703582 779.931714 98.956943 
Q 780.568293 108.187399 781.739597 108.187399 
Q 782.058735 108.187399 782.332039 107.660599 
Q 782.605344 107.110894 782.822629 105.965677 
L 782.822629 85.214328 
L 781.574935 85.214328 
L 781.574935 66.73051 
L 784.757828 66.73051 
L 784.757828 118.127891 
z
" clip-path="url(#p1ac8275d0d)" style="fill: #ffa600"/>
   </g>
   <g id="patch_89">
    <path d="M 785.156483 17.28 
L 792.730918 17.28 
L 792.730918 38.904689 
L 790.005883 38.904689 
L 790.005883 128.16 
L 787.886802 128.16 
L 787.886802 38.904689 
L 785.156483 38.904689 
L 785.156483 17.28 
z
" clip-path="url(#p1ac8275d0d)" style="fill: #ff0000"/>
   </g>
   <g id="patch_90">
    <path d="M 798.376391 107.961114 
L 795.463385 107.961114 
L 795.003436 128.16 
L 793.129573 128.16 
L 795.805636 17.28 
L 798.027945 17.28 
L 800.704008 128.16 
L 798.831693 128.16 
L 798.376391 107.961114 
z
M 795.927979 87.382015 
L 797.907151 87.382015 
L 796.919113 43.277154 
L 795.927979 87.382015 
z
" clip-path="url(#p1ac8275d0d)" style="fill: #008000"/>
   </g>
   <g id="patch_91">
    <path d="M 801.102663 17.28 
L 808.677098 17.28 
L 808.677098 38.904689 
L 805.952063 38.904689 
L 805.952063 128.16 
L 803.832983 128.16 
L 803.832983 38.904689 
L 801.102663 38.904689 
L 801.102663 17.28 
z
" clip-path="url(#p1ac8275d0d)" style="fill: #ff0000"/>
   </g>
   <g id="patch_92">
    <path d="M 814.322571 107.961114 
L 811.409565 107.961114 
L 810.949617 128.16 
L 809.075753 128.16 
L 811.751816 17.28 
L 813.974126 17.28 
L 816.650189 128.16 
L 814.777874 128.16 
L 814.322571 107.961114 
z
M 811.874159 87.382015 
L 813.853331 87.382015 
L 812.865294 43.277154 
L 811.874159 87.382015 
z
" clip-path="url(#p1ac8275d0d)" style="fill: #008000"/>
   </g>
   <g id="patch_93">
    <path d="M 822.295661 107.961114 
L 819.382655 107.961114 
L 818.922707 128.16 
L 817.048843 128.16 
L 819.724906 17.28 
L 821.947216 17.28 
L 824.623279 128.16 
L 822.750964 128.16 
L 822.295661 107.961114 
z
M 819.847249 87.382015 
L 821.826421 87.382015 
L 820.838384 43.277154 
L 819.847249 87.382015 
z
" clip-path="url(#p1ac8275d0d)" style="fill: #008000"/>
   </g>
   <g id="patch_94">
    <path d="M 825.021933 17.28 
L 832.596369 17.28 
L 832.596369 38.904689 
L 829.871334 38.904689 
L 829.871334 128.16 
L 827.752253 128.16 
L 827.752253 38.904689 
L 825.021933 38.904689 
L 825.021933 17.28 
z
" clip-path="url(#p1ac8275d0d)" style="fill: #ff0000"/>
   </g>
   <g id="patch_95">
    <path d="M 838.241842 107.961114 
L 835.328835 107.961114 
L 834.868887 128.16 
L 832.995023 128.16 
L 835.671087 17.28 
L 837.893396 17.28 
L 840.569459 128.16 
L 838.697144 128.16 
L 838.241842 107.961114 
z
M 835.79343 87.382015 
L 837.772601 87.382015 
L 836.784564 43.277154 
L 835.79343 87.382015 
z
" clip-path="url(#p1ac8275d0d)" style="fill: #008000"/>
   </g>
   <g id="patch_96">
    <path d="M 846.214932 107.961114 
L 843.301926 107.961114 
L 842.841977 128.16 
L 840.968114 128.16 
L 843.644177 17.28 
L 845.866486 17.28 
L 848.542549 128.16 
L 846.670234 128.16 
L 846.214932 107.961114 
z
M 843.76652 87.382015 
L 845.745692 87.382015 
L 844.757654 43.277154 
L 843.76652 87.382015 
z
" clip-path="url(#p1ac8275d0d)" style="fill: #008000"/>
   </g>
   <g id="patch_97">
    <path d="M 854.188022 107.961114 
L 851.275016 107.961114 
L 850.815067 128.16 
L 848.941204 128.16 
L 851.617267 17.28 
L 853.839576 17.28 
L 856.515639 128.16 
L 854.643324 128.16 
L 854.188022 107.961114 
z
M 851.73961 87.382015 
L 853.718782 87.382015 
L 852.730745 43.277154 
L 851.73961 87.382015 
z
" clip-path="url(#p1ac8275d0d)" style="fill: #008000"/>
   </g>
   <g id="patch_98">
    <path d="M 864.48873 118.127891 
Q 863.724835 123.143945 862.903225 125.663425 
Q 862.081614 128.16 861.205682 128.16 
Q 859.226347 128.16 858.07032 113.226358 
Q 856.914294 98.292716 856.914294 72.754357 
Q 856.914294 46.91824 858.090691 32.09912 
Q 859.268786 17.28 861.31772 17.28 
Q 862.107077 17.28 862.83023 19.295584 
Q 863.555081 21.288263 864.196752 25.227812 
L 864.196752 47.330518 
Q 863.534711 42.268655 862.879459 39.77208 
Q 862.224208 37.252601 861.565561 37.252601 
Q 860.346725 37.252601 859.686381 46.460153 
Q 859.026037 55.644801 859.026037 72.754357 
Q 859.026037 89.703582 859.662616 98.956943 
Q 860.299194 108.187399 861.470499 108.187399 
Q 861.789637 108.187399 862.062941 107.660599 
Q 862.336245 107.110894 862.553531 105.965677 
L 862.553531 85.214328 
L 861.305837 85.214328 
L 861.305837 66.73051 
L 864.48873 66.73051 
L 864.48873 118.127891 
z
" clip-path="url(#p1ac8275d0d)" style="fill: #ffa600"/>
   </g>
   <g id="patch_99">
    <path d="M 864.887384 17.28 
L 872.46182 17.28 
L 872.46182 38.904689 
L 869.736784 38.904689 
L 869.736784 128.16 
L 867.617704 128.16 
L 867.617704 38.904689 
L 864.887384 38.904689 
L 864.887384 17.28 
z
" clip-path="url(#p1ac8275d0d)" style="fill: #ff0000"/>
   </g>
   <g id="patch_100">
    <path d="M 878.107292 124.120223 
L 875.194286 124.120223 
L 874.734338 128.16 
L 872.860474 128.16 
L 875.536537 105.984 
L 877.758847 105.984 
L 880.43491 128.16 
L 878.562595 128.16 
L 878.107292 124.120223 
z
M 875.658881 120.004403 
L 877.638052 120.004403 
L 876.650015 111.183431 
L 875.658881 120.004403 
z
" clip-path="url(#p1ac8275d0d)" style="fill: #008000"/>
   </g>
   <g id="patch_101">
    <path d="M 872.860474 17.28 
L 880.43491 17.28 
L 880.43491 34.579751 
L 877.709875 34.579751 
L 877.709875 105.984 
L 875.590794 105.984 
L 875.590794 34.579751 
L 872.860474 34.579751 
L 872.860474 17.28 
z
" clip-path="url(#p1ac8275d0d)" style="fill: #ff0000"/>
   </g>
   <g id="patch_102">
    <path d="M 888.408 118.127891 
Q 887.644106 123.143945 886.822495 125.663425 
Q 886.000884 128.16 885.124952 128.16 
Q 883.145618 128.16 881.989591 113.226358 
Q 880.833564 98.292716 880.833564 72.754357 
Q 880.833564 46.91824 882.009961 32.09912 
Q 883.188056 17.28 885.23699 17.28 
Q 886.026348 17.28 886.749501 19.295584 
Q 887.474352 21.288263 888.116023 25.227812 
L 888.116023 47.330518 
Q 887.453981 42.268655 886.798729 39.77208 
Q 886.143478 37.252601 885.484831 37.252601 
Q 884.265996 37.252601 883.605652 46.460153 
Q 882.945308 55.644801 882.945308 72.754357 
Q 882.945308 89.703582 883.581886 98.956943 
Q 884.218465 108.187399 885.389769 108.187399 
Q 885.708907 108.187399 885.982211 107.660599 
Q 886.255516 107.110894 886.472801 105.965677 
L 886.472801 85.214328 
L 885.225107 85.214328 
L 885.225107 66.73051 
L 888.408 66.73051 
L 888.408 118.127891 
z
" clip-path="url(#p1ac8275d0d)" style="fill: #ffa600"/>
   </g>
  </g>
 </g>
 <defs>
  <clipPath id="p1ac8275d0d">
   <rect x="123.39" y="17.28" width="765.018" height="110.88"/>
  </clipPath>
 </defs>
</svg>
