<?xml version="1.0" encoding="utf-8" standalone="no"?>
<!DOCTYPE svg PUBLIC "-//W3C//DTD SVG 1.1//EN"
  "http://www.w3.org/Graphics/SVG/1.1/DTD/svg11.dtd">
<svg xmlns:xlink="http://www.w3.org/1999/xlink" width="1028.16pt" height="144pt" viewBox="0 0 1028.16 144" xmlns="http://www.w3.org/2000/svg" version="1.1">
 <metadata>
  <rdf:RDF xmlns:dc="http://purl.org/dc/elements/1.1/" xmlns:cc="http://creativecommons.org/ns#" xmlns:rdf="http://www.w3.org/1999/02/22-rdf-syntax-ns#">
   <cc:Work>
    <dc:type rdf:resource="http://purl.org/dc/dcmitype/StillImage"/>
    <dc:date>2024-11-11T17:06:36.738716</dc:date>
    <dc:format>image/svg+xml</dc:format>
    <dc:creator>
     <cc:Agent>
      <dc:title>Matplotlib v3.9.2, https://matplotlib.org/</dc:title>
     </cc:Agent>
    </dc:creator>
   </cc:Work>
  </rdf:RDF>
 </metadata>
 <defs>
  <style type="text/css">*{stroke-linejoin: round; stroke-linecap: butt}</style>
 </defs>
 <g id="figure_1">
  <g id="patch_1">
   <path d="M 0 144 
L 1028.16 144 
L 1028.16 0 
L 0 0 
z
" style="fill: #ffffff"/>
  </g>
  <g id="axes_1">
   <g id="line2d_1">
    <path d="M 128.52 128.16 
L 925.344 128.16 
" clip-path="url(#p26a85d521e)" style="fill: none; stroke: #000000; stroke-width: 0.5; stroke-linecap: square"/>
   </g>
   <g id="patch_2">
    <path d="M 128.52 126.505075 
L 136.093615 126.505075 
L 136.093615 126.827831 
L 133.368875 126.827831 
L 133.368875 128.16 
L 131.250024 128.16 
L 131.250024 126.827831 
L 128.52 126.827831 
L 128.52 126.505075 
z
" clip-path="url(#p26a85d521e)" style="fill: #ff0000"/>
   </g>
   <g id="patch_3">
    <path d="M 136.093615 126.205609 
Q 135.329803 126.355342 134.508282 126.43055 
Q 133.68676 126.505075 132.810923 126.505075 
Q 130.831803 126.505075 129.675901 126.059294 
Q 128.52 125.613514 128.52 124.851175 
Q 128.52 124.079947 129.69627 123.637586 
Q 130.874237 123.195224 132.922949 123.195224 
Q 133.71222 123.195224 134.435295 123.255391 
Q 135.160067 123.314874 135.801669 123.432472 
L 135.801669 124.092254 
Q 135.139699 123.941154 134.484519 123.866629 
Q 133.829338 123.791421 133.170763 123.791421 
Q 131.952059 123.791421 131.291787 124.066273 
Q 130.631514 124.340442 130.631514 124.851175 
Q 130.631514 125.357122 131.268024 125.633342 
Q 131.904533 125.908878 133.075711 125.908878 
Q 133.394814 125.908878 133.668089 125.893152 
Q 133.941364 125.876743 134.158626 125.842558 
L 134.158626 125.223114 
L 132.911067 125.223114 
L 132.911067 124.671359 
L 136.093615 124.671359 
L 136.093615 126.205609 
z
" clip-path="url(#p26a85d521e)" style="fill: #ffa600"/>
   </g>
   <g id="patch_4">
    <path d="M 136.093615 116.37434 
Q 135.460095 119.755297 134.775054 121.465432 
Q 134.090013 123.195224 133.34391 123.195224 
Q 131.118958 123.195224 129.819479 110.379039 
Q 128.52 97.562854 128.52 75.645604 
Q 128.52 53.649728 129.819479 40.8532 
Q 131.118958 28.037015 133.34391 28.037015 
Q 134.090013 28.037015 134.775054 29.766807 
Q 135.460095 31.476942 136.093615 34.857899 
L 136.093615 53.826639 
Q 135.45437 49.344906 134.834208 47.261293 
Q 134.214045 45.17768 133.529005 45.17768 
Q 132.300129 45.17768 131.596006 53.295907 
Q 130.893791 61.394478 130.893791 75.645604 
Q 130.893791 89.83776 131.596006 97.955988 
Q 132.300129 106.054559 133.529005 106.054559 
Q 134.214045 106.054559 134.834208 103.970946 
Q 135.45437 101.867677 136.093615 97.385943 
L 136.093615 116.37434 
z
" clip-path="url(#p26a85d521e)" style="fill: #0000ff"/>
   </g>
   <g id="patch_5">
    <path d="M 144.065841 128.085134 
Q 143.302029 128.122567 142.480508 128.141369 
Q 141.658986 128.16 140.783149 128.16 
Q 138.804029 128.16 137.648127 128.048555 
Q 136.492226 127.93711 136.492226 127.746525 
Q 136.492226 127.553718 137.668496 127.443128 
Q 138.846463 127.332537 140.895175 127.332537 
Q 141.684447 127.332537 142.407521 127.347579 
Q 143.132294 127.36245 143.773895 127.391849 
L 143.773895 127.556795 
Q 143.111925 127.51902 142.456745 127.500389 
Q 141.801564 127.481587 141.142989 127.481587 
Q 139.924286 127.481587 139.264013 127.5503 
Q 138.60374 127.618842 138.60374 127.746525 
Q 138.60374 127.873012 139.24025 127.942067 
Q 139.876759 128.010951 141.047937 128.010951 
Q 141.36704 128.010951 141.640315 128.007019 
Q 141.91359 128.002917 142.130852 127.994371 
L 142.130852 127.83951 
L 140.883293 127.83951 
L 140.883293 127.701571 
L 144.065841 127.701571 
L 144.065841 128.085134 
z
" clip-path="url(#p26a85d521e)" style="fill: #ffa600"/>
   </g>
   <g id="patch_6">
    <path d="M 144.065841 127.154601 
Q 143.432321 127.2428 142.74728 127.287412 
Q 142.062239 127.332537 141.316136 127.332537 
Q 139.091184 127.332537 137.791705 126.998202 
Q 136.492226 126.663867 136.492226 126.092112 
Q 136.492226 125.518307 137.791705 125.184485 
Q 139.091184 124.850149 141.316136 124.850149 
Q 142.062239 124.850149 142.74728 124.895274 
Q 143.432321 124.939886 144.065841 125.028085 
L 144.065841 125.522922 
Q 143.426597 125.406007 142.806434 125.351652 
Q 142.186272 125.297297 141.501231 125.297297 
Q 140.272355 125.297297 139.568232 125.509077 
Q 138.866017 125.720344 138.866017 126.092112 
Q 138.866017 126.462343 139.568232 126.674122 
Q 140.272355 126.88539 141.501231 126.88539 
Q 142.186272 126.88539 142.806434 126.831034 
Q 143.426597 126.776167 144.065841 126.659252 
L 144.065841 127.154601 
z
" clip-path="url(#p26a85d521e)" style="fill: #0000ff"/>
   </g>
   <g id="patch_7">
    <path d="M 141.738476 105.254216 
L 138.825785 105.254216 
L 138.365887 124.850149 
L 136.492226 124.850149 
L 139.167999 17.28 
L 141.390068 17.28 
L 144.065841 124.850149 
L 142.193729 124.850149 
L 141.738476 105.254216 
z
M 139.290329 85.289417 
L 141.269286 85.289417 
L 140.281356 42.501119 
L 139.290329 85.289417 
z
" clip-path="url(#p26a85d521e)" style="fill: #008000"/>
   </g>
   <g id="patch_8">
    <path d="M 149.710702 107.961114 
L 146.798011 107.961114 
L 146.338113 128.16 
L 144.464452 128.16 
L 147.140225 17.28 
L 149.362294 17.28 
L 152.038067 128.16 
L 150.165955 128.16 
L 149.710702 107.961114 
z
M 147.262555 87.382015 
L 149.241512 87.382015 
L 148.253582 43.277154 
L 147.262555 87.382015 
z
" clip-path="url(#p26a85d521e)" style="fill: #008000"/>
   </g>
   <g id="patch_9">
    <path d="M 157.682928 107.961114 
L 154.770237 107.961114 
L 154.310339 128.16 
L 152.436678 128.16 
L 155.112451 17.28 
L 157.33452 17.28 
L 160.010293 128.16 
L 158.138181 128.16 
L 157.682928 107.961114 
z
M 155.234781 87.382015 
L 157.213739 87.382015 
L 156.225808 43.277154 
L 155.234781 87.382015 
z
" clip-path="url(#p26a85d521e)" style="fill: #008000"/>
   </g>
   <g id="patch_10">
    <path d="M 160.408904 17.28 
L 167.982519 17.28 
L 167.982519 38.904689 
L 165.257779 38.904689 
L 165.257779 128.16 
L 163.138928 128.16 
L 163.138928 38.904689 
L 160.408904 38.904689 
L 160.408904 17.28 
z
" clip-path="url(#p26a85d521e)" style="fill: #ff0000"/>
   </g>
   <g id="patch_11">
    <path d="M 173.62738 107.961114 
L 170.71469 107.961114 
L 170.254791 128.16 
L 168.381131 128.16 
L 171.056904 17.28 
L 173.278972 17.28 
L 175.954745 128.16 
L 174.082633 128.16 
L 173.62738 107.961114 
z
M 171.179234 87.382015 
L 173.158191 87.382015 
L 172.170261 43.277154 
L 171.179234 87.382015 
z
" clip-path="url(#p26a85d521e)" style="fill: #008000"/>
   </g>
   <g id="patch_12">
    <path d="M 181.599606 107.961114 
L 178.686916 107.961114 
L 178.227017 128.16 
L 176.353357 128.16 
L 179.02913 17.28 
L 181.251198 17.28 
L 183.926971 128.16 
L 182.054859 128.16 
L 181.599606 107.961114 
z
M 179.15146 87.382015 
L 181.130417 87.382015 
L 180.142487 43.277154 
L 179.15146 87.382015 
z
" clip-path="url(#p26a85d521e)" style="fill: #008000"/>
   </g>
   <g id="patch_13">
    <path d="M 184.325583 17.28 
L 191.899198 17.28 
L 191.899198 38.904689 
L 189.174458 38.904689 
L 189.174458 128.16 
L 187.055607 128.16 
L 187.055607 38.904689 
L 184.325583 38.904689 
L 184.325583 17.28 
z
" clip-path="url(#p26a85d521e)" style="fill: #ff0000"/>
   </g>
   <g id="patch_14">
    <path d="M 199.871424 118.127891 
Q 199.107612 123.143945 198.286091 125.663425 
Q 197.464569 128.16 196.588732 128.16 
Q 194.609612 128.16 193.45371 113.226358 
Q 192.297809 98.292716 192.297809 72.754357 
Q 192.297809 46.91824 193.474079 32.09912 
Q 194.652046 17.28 196.700758 17.28 
Q 197.490029 17.28 198.213104 19.295584 
Q 198.937876 21.288263 199.579478 25.227812 
L 199.579478 47.330518 
Q 198.917508 42.268655 198.262328 39.77208 
Q 197.607147 37.252601 196.948572 37.252601 
Q 195.729868 37.252601 195.069596 46.460153 
Q 194.409323 55.644801 194.409323 72.754357 
Q 194.409323 89.703582 195.045833 98.956943 
Q 195.682342 108.187399 196.85352 108.187399 
Q 197.172623 108.187399 197.445898 107.660599 
Q 197.719173 107.110894 197.936435 105.965677 
L 197.936435 85.214328 
L 196.688876 85.214328 
L 196.688876 66.73051 
L 199.871424 66.73051 
L 199.871424 118.127891 
z
" clip-path="url(#p26a85d521e)" style="fill: #ffa600"/>
   </g>
   <g id="patch_15">
    <path d="M 205.516285 107.961114 
L 202.603594 107.961114 
L 202.143696 128.16 
L 200.270035 128.16 
L 202.945808 17.28 
L 205.167877 17.28 
L 207.84365 128.16 
L 205.971538 128.16 
L 205.516285 107.961114 
z
M 203.068138 87.382015 
L 205.047095 87.382015 
L 204.059165 43.277154 
L 203.068138 87.382015 
z
" clip-path="url(#p26a85d521e)" style="fill: #008000"/>
   </g>
   <g id="patch_16">
    <path d="M 208.242261 17.28 
L 215.815876 17.28 
L 215.815876 38.904689 
L 213.091136 38.904689 
L 213.091136 128.16 
L 210.972285 128.16 
L 210.972285 38.904689 
L 208.242261 38.904689 
L 208.242261 17.28 
z
" clip-path="url(#p26a85d521e)" style="fill: #ff0000"/>
   </g>
   <g id="patch_17">
    <path d="M 216.214487 17.28 
L 223.788102 17.28 
L 223.788102 38.904689 
L 221.063362 38.904689 
L 221.063362 128.16 
L 218.944511 128.16 
L 218.944511 38.904689 
L 216.214487 38.904689 
L 216.214487 17.28 
z
" clip-path="url(#p26a85d521e)" style="fill: #ff0000"/>
   </g>
   <g id="patch_18">
    <path d="M 224.186713 17.28 
L 231.760328 17.28 
L 231.760328 38.904689 
L 229.035588 38.904689 
L 229.035588 128.16 
L 226.916737 128.16 
L 226.916737 38.904689 
L 224.186713 38.904689 
L 224.186713 17.28 
z
" clip-path="url(#p26a85d521e)" style="fill: #ff0000"/>
   </g>
   <g id="patch_19">
    <path d="M 232.158939 17.28 
L 239.732554 17.28 
L 239.732554 38.904689 
L 237.007814 38.904689 
L 237.007814 128.16 
L 234.888963 128.16 
L 234.888963 38.904689 
L 232.158939 38.904689 
L 232.158939 17.28 
z
" clip-path="url(#p26a85d521e)" style="fill: #ff0000"/>
   </g>
   <g id="patch_20">
    <path d="M 245.377415 107.961114 
L 242.464725 107.961114 
L 242.004826 128.16 
L 240.131166 128.16 
L 242.806939 17.28 
L 245.029007 17.28 
L 247.70478 128.16 
L 245.832668 128.16 
L 245.377415 107.961114 
z
M 242.929269 87.382015 
L 244.908226 87.382015 
L 243.920296 43.277154 
L 242.929269 87.382015 
z
" clip-path="url(#p26a85d521e)" style="fill: #008000"/>
   </g>
   <g id="patch_21">
    <path d="M 248.103392 17.28 
L 255.677007 17.28 
L 255.677007 38.904689 
L 252.952266 38.904689 
L 252.952266 128.16 
L 250.833416 128.16 
L 250.833416 38.904689 
L 248.103392 38.904689 
L 248.103392 17.28 
z
" clip-path="url(#p26a85d521e)" style="fill: #ff0000"/>
   </g>
   <g id="patch_22">
    <path d="M 256.075618 17.28 
L 263.649233 17.28 
L 263.649233 38.904689 
L 260.924493 38.904689 
L 260.924493 128.16 
L 258.805642 128.16 
L 258.805642 38.904689 
L 256.075618 38.904689 
L 256.075618 17.28 
z
" clip-path="url(#p26a85d521e)" style="fill: #ff0000"/>
   </g>
   <g id="patch_23">
    <path d="M 264.047844 17.28 
L 271.621459 17.28 
L 271.621459 38.904689 
L 268.896719 38.904689 
L 268.896719 128.16 
L 266.777868 128.16 
L 266.777868 38.904689 
L 264.047844 38.904689 
L 264.047844 17.28 
z
" clip-path="url(#p26a85d521e)" style="fill: #ff0000"/>
   </g>
   <g id="patch_24">
    <path d="M 279.593685 128.100688 
Q 278.960165 128.130088 278.275124 128.144958 
Q 277.590083 128.16 276.84398 128.16 
Q 274.619028 128.16 273.319549 128.048555 
Q 272.02007 127.93711 272.02007 127.746525 
Q 272.02007 127.555257 273.319549 127.443982 
Q 274.619028 127.332537 276.84398 127.332537 
Q 277.590083 127.332537 278.275124 127.347579 
Q 278.960165 127.36245 279.593685 127.391849 
L 279.593685 127.556795 
Q 278.95444 127.517823 278.334278 127.499705 
Q 277.714116 127.481587 277.029075 127.481587 
Q 275.800199 127.481587 275.096076 127.55218 
Q 274.393861 127.622602 274.393861 127.746525 
Q 274.393861 127.869935 275.096076 127.940528 
Q 275.800199 128.010951 277.029075 128.010951 
Q 277.714116 128.010951 278.334278 127.992832 
Q 278.95444 127.974543 279.593685 127.935571 
L 279.593685 128.100688 
z
" clip-path="url(#p26a85d521e)" style="fill: #0000ff"/>
   </g>
   <g id="patch_25">
    <path d="M 272.02007 17.28 
L 279.593685 17.28 
L 279.593685 38.743311 
L 276.868945 38.743311 
L 276.868945 127.332537 
L 274.750094 127.332537 
L 274.750094 38.743311 
L 272.02007 38.743311 
L 272.02007 17.28 
z
" clip-path="url(#p26a85d521e)" style="fill: #ff0000"/>
   </g>
   <g id="patch_26">
    <path d="M 287.565911 118.127891 
Q 286.8021 123.143945 285.980578 125.663425 
Q 285.159056 128.16 284.283219 128.16 
Q 282.304099 128.16 281.148197 113.226358 
Q 279.992296 98.292716 279.992296 72.754357 
Q 279.992296 46.91824 281.168566 32.09912 
Q 282.346533 17.28 284.395245 17.28 
Q 285.184517 17.28 285.907591 19.295584 
Q 286.632364 21.288263 287.273965 25.227812 
L 287.273965 47.330518 
Q 286.611995 42.268655 285.956815 39.77208 
Q 285.301634 37.252601 284.643059 37.252601 
Q 283.424356 37.252601 282.764083 46.460153 
Q 282.10381 55.644801 282.10381 72.754357 
Q 282.10381 89.703582 282.74032 98.956943 
Q 283.37683 108.187399 284.548007 108.187399 
Q 284.867111 108.187399 285.140385 107.660599 
Q 285.41366 107.110894 285.630922 105.965677 
L 285.630922 85.214328 
L 284.383363 85.214328 
L 284.383363 66.73051 
L 287.565911 66.73051 
L 287.565911 118.127891 
z
" clip-path="url(#p26a85d521e)" style="fill: #ffa600"/>
   </g>
   <g id="patch_27">
    <path d="M 293.210772 107.961114 
L 290.298081 107.961114 
L 289.838183 128.16 
L 287.964522 128.16 
L 290.640295 17.28 
L 292.862364 17.28 
L 295.538137 128.16 
L 293.666025 128.16 
L 293.210772 107.961114 
z
M 290.762625 87.382015 
L 292.741583 87.382015 
L 291.753652 43.277154 
L 290.762625 87.382015 
z
" clip-path="url(#p26a85d521e)" style="fill: #008000"/>
   </g>
   <g id="patch_28">
    <path d="M 303.510363 120.212188 
Q 302.876843 124.151737 302.191802 126.144416 
Q 301.506761 128.16 300.760658 128.16 
Q 298.535706 128.16 297.236227 113.226358 
Q 295.936748 98.292716 295.936748 72.754357 
Q 295.936748 47.124379 297.236227 32.213642 
Q 298.535706 17.28 300.760658 17.28 
Q 301.506761 17.28 302.191802 19.295584 
Q 302.876843 21.288263 303.510363 25.227812 
L 303.510363 47.330518 
Q 302.871119 42.108325 302.250956 39.680463 
Q 301.630794 37.252601 300.945753 37.252601 
Q 299.716877 37.252601 299.012754 46.712101 
Q 298.310539 56.148697 298.310539 72.754357 
Q 298.310539 89.291303 299.012754 98.750804 
Q 299.716877 108.187399 300.945753 108.187399 
Q 301.630794 108.187399 302.250956 105.759537 
Q 302.871119 103.308771 303.510363 98.086577 
L 303.510363 120.212188 
z
" clip-path="url(#p26a85d521e)" style="fill: #0000ff"/>
   </g>
   <g id="patch_29">
    <path d="M 303.908974 17.28 
L 311.482589 17.28 
L 311.482589 38.904689 
L 308.757849 38.904689 
L 308.757849 128.16 
L 306.638998 128.16 
L 306.638998 38.904689 
L 303.908974 38.904689 
L 303.908974 17.28 
z
" clip-path="url(#p26a85d521e)" style="fill: #ff0000"/>
   </g>
   <g id="patch_30">
    <path d="M 319.454815 118.127891 
Q 318.691004 123.143945 317.869482 125.663425 
Q 317.047961 128.16 316.172124 128.16 
Q 314.193003 128.16 313.037102 113.226358 
Q 311.881201 98.292716 311.881201 72.754357 
Q 311.881201 46.91824 313.05747 32.09912 
Q 314.235437 17.28 316.284149 17.28 
Q 317.073421 17.28 317.796496 19.295584 
Q 318.521268 21.288263 319.16287 25.227812 
L 319.16287 47.330518 
Q 318.5009 42.268655 317.845719 39.77208 
Q 317.190539 37.252601 316.531964 37.252601 
Q 315.31326 37.252601 314.652987 46.460153 
Q 313.992715 55.644801 313.992715 72.754357 
Q 313.992715 89.703582 314.629224 98.956943 
Q 315.265734 108.187399 316.436912 108.187399 
Q 316.756015 108.187399 317.02929 107.660599 
Q 317.302564 107.110894 317.519826 105.965677 
L 317.519826 85.214328 
L 316.272268 85.214328 
L 316.272268 66.73051 
L 319.454815 66.73051 
L 319.454815 118.127891 
z
" clip-path="url(#p26a85d521e)" style="fill: #ffa600"/>
   </g>
   <g id="patch_31">
    <path d="M 325.099676 107.961114 
L 322.186986 107.961114 
L 321.727087 128.16 
L 319.853427 128.16 
L 322.5292 17.28 
L 324.751268 17.28 
L 327.427042 128.16 
L 325.554929 128.16 
L 325.099676 107.961114 
z
M 322.65153 87.382015 
L 324.630487 87.382015 
L 323.642557 43.277154 
L 322.65153 87.382015 
z
" clip-path="url(#p26a85d521e)" style="fill: #008000"/>
   </g>
   <g id="patch_32">
    <path d="M 327.825653 17.28 
L 335.399268 17.28 
L 335.399268 38.904689 
L 332.674528 38.904689 
L 332.674528 128.16 
L 330.555677 128.16 
L 330.555677 38.904689 
L 327.825653 38.904689 
L 327.825653 17.28 
z
" clip-path="url(#p26a85d521e)" style="fill: #ff0000"/>
   </g>
   <g id="patch_33">
    <path d="M 341.044129 107.961114 
L 338.131438 107.961114 
L 337.67154 128.16 
L 335.797879 128.16 
L 338.473652 17.28 
L 340.695721 17.28 
L 343.371494 128.16 
L 341.499382 128.16 
L 341.044129 107.961114 
z
M 338.595982 87.382015 
L 340.574939 87.382015 
L 339.587009 43.277154 
L 338.595982 87.382015 
z
" clip-path="url(#p26a85d521e)" style="fill: #008000"/>
   </g>
   <g id="patch_34">
    <path d="M 351.34372 118.127891 
Q 350.579908 123.143945 349.758387 125.663425 
Q 348.936865 128.16 348.061028 128.16 
Q 346.081908 128.16 344.926006 113.226358 
Q 343.770105 98.292716 343.770105 72.754357 
Q 343.770105 46.91824 344.946375 32.09912 
Q 346.124342 17.28 348.173054 17.28 
Q 348.962326 17.28 349.6854 19.295584 
Q 350.410173 21.288263 351.051774 25.227812 
L 351.051774 47.330518 
Q 350.389804 42.268655 349.734624 39.77208 
Q 349.079443 37.252601 348.420868 37.252601 
Q 347.202164 37.252601 346.541892 46.460153 
Q 345.881619 55.644801 345.881619 72.754357 
Q 345.881619 89.703582 346.518129 98.956943 
Q 347.154638 108.187399 348.325816 108.187399 
Q 348.644919 108.187399 348.918194 107.660599 
Q 349.191469 107.110894 349.408731 105.965677 
L 349.408731 85.214328 
L 348.161172 85.214328 
L 348.161172 66.73051 
L 351.34372 66.73051 
L 351.34372 118.127891 
z
" clip-path="url(#p26a85d521e)" style="fill: #ffa600"/>
   </g>
   <g id="patch_35">
    <path d="M 351.742331 17.28 
L 359.315946 17.28 
L 359.315946 38.904689 
L 356.591206 38.904689 
L 356.591206 128.16 
L 354.472355 128.16 
L 354.472355 38.904689 
L 351.742331 38.904689 
L 351.742331 17.28 
z
" clip-path="url(#p26a85d521e)" style="fill: #ff0000"/>
   </g>
   <g id="patch_36">
    <path d="M 367.288172 118.127891 
Q 366.524361 123.143945 365.702839 125.663425 
Q 364.881317 128.16 364.00548 128.16 
Q 362.02636 128.16 360.870459 113.226358 
Q 359.714557 98.292716 359.714557 72.754357 
Q 359.714557 46.91824 360.890827 32.09912 
Q 362.068794 17.28 364.117506 17.28 
Q 364.906778 17.28 365.629853 19.295584 
Q 366.354625 21.288263 366.996226 25.227812 
L 366.996226 47.330518 
Q 366.334256 42.268655 365.679076 39.77208 
Q 365.023895 37.252601 364.36532 37.252601 
Q 363.146617 37.252601 362.486344 46.460153 
Q 361.826072 55.644801 361.826072 72.754357 
Q 361.826072 89.703582 362.462581 98.956943 
Q 363.099091 108.187399 364.270268 108.187399 
Q 364.589372 108.187399 364.862646 107.660599 
Q 365.135921 107.110894 365.353183 105.965677 
L 365.353183 85.214328 
L 364.105624 85.214328 
L 364.105624 66.73051 
L 367.288172 66.73051 
L 367.288172 118.127891 
z
" clip-path="url(#p26a85d521e)" style="fill: #ffa600"/>
   </g>
   <g id="patch_37">
    <path d="M 372.933033 107.961114 
L 370.020342 107.961114 
L 369.560444 128.16 
L 367.686783 128.16 
L 370.362557 17.28 
L 372.584625 17.28 
L 375.260398 128.16 
L 373.388286 128.16 
L 372.933033 107.961114 
z
M 370.484886 87.382015 
L 372.463844 87.382015 
L 371.475914 43.277154 
L 370.484886 87.382015 
z
" clip-path="url(#p26a85d521e)" style="fill: #008000"/>
   </g>
   <g id="patch_38">
    <path d="M 383.232624 120.212188 
Q 382.599105 124.151737 381.914064 126.144416 
Q 381.229023 128.16 380.482919 128.16 
Q 378.257967 128.16 376.958488 113.226358 
Q 375.65901 98.292716 375.65901 72.754357 
Q 375.65901 47.124379 376.958488 32.213642 
Q 378.257967 17.28 380.482919 17.28 
Q 381.229023 17.28 381.914064 19.295584 
Q 382.599105 21.288263 383.232624 25.227812 
L 383.232624 47.330518 
Q 382.59338 42.108325 381.973217 39.680463 
Q 381.353055 37.252601 380.668014 37.252601 
Q 379.439138 37.252601 378.735015 46.712101 
Q 378.032801 56.148697 378.032801 72.754357 
Q 378.032801 89.291303 378.735015 98.750804 
Q 379.439138 108.187399 380.668014 108.187399 
Q 381.353055 108.187399 381.973217 105.759537 
Q 382.59338 103.308771 383.232624 98.086577 
L 383.232624 120.212188 
z
" clip-path="url(#p26a85d521e)" style="fill: #0000ff"/>
   </g>
   <g id="patch_39">
    <path d="M 391.20485 120.212188 
Q 390.571331 124.151737 389.88629 126.144416 
Q 389.201249 128.16 388.455145 128.16 
Q 386.230193 128.16 384.930715 113.226358 
Q 383.631236 98.292716 383.631236 72.754357 
Q 383.631236 47.124379 384.930715 32.213642 
Q 386.230193 17.28 388.455145 17.28 
Q 389.201249 17.28 389.88629 19.295584 
Q 390.571331 21.288263 391.20485 25.227812 
L 391.20485 47.330518 
Q 390.565606 42.108325 389.945444 39.680463 
Q 389.325281 37.252601 388.64024 37.252601 
Q 387.411364 37.252601 386.707241 46.712101 
Q 386.005027 56.148697 386.005027 72.754357 
Q 386.005027 89.291303 386.707241 98.750804 
Q 387.411364 108.187399 388.64024 108.187399 
Q 389.325281 108.187399 389.945444 105.759537 
Q 390.565606 103.308771 391.20485 98.086577 
L 391.20485 120.212188 
z
" clip-path="url(#p26a85d521e)" style="fill: #0000ff"/>
   </g>
   <g id="patch_40">
    <path d="M 391.603462 17.28 
L 399.177077 17.28 
L 399.177077 38.904689 
L 396.452337 38.904689 
L 396.452337 128.16 
L 394.333486 128.16 
L 394.333486 38.904689 
L 391.603462 38.904689 
L 391.603462 17.28 
z
" clip-path="url(#p26a85d521e)" style="fill: #ff0000"/>
   </g>
   <g id="patch_41">
    <path d="M 407.149303 118.127891 
Q 406.385491 123.143945 405.56397 125.663425 
Q 404.742448 128.16 403.866611 128.16 
Q 401.88749 128.16 400.731589 113.226358 
Q 399.575688 98.292716 399.575688 72.754357 
Q 399.575688 46.91824 400.751957 32.09912 
Q 401.929924 17.28 403.978636 17.28 
Q 404.767908 17.28 405.490983 19.295584 
Q 406.215755 21.288263 406.857357 25.227812 
L 406.857357 47.330518 
Q 406.195387 42.268655 405.540207 39.77208 
Q 404.885026 37.252601 404.226451 37.252601 
Q 403.007747 37.252601 402.347475 46.460153 
Q 401.687202 55.644801 401.687202 72.754357 
Q 401.687202 89.703582 402.323712 98.956943 
Q 402.960221 108.187399 404.131399 108.187399 
Q 404.450502 108.187399 404.723777 107.660599 
Q 404.997052 107.110894 405.214314 105.965677 
L 405.214314 85.214328 
L 403.966755 85.214328 
L 403.966755 66.73051 
L 407.149303 66.73051 
L 407.149303 118.127891 
z
" clip-path="url(#p26a85d521e)" style="fill: #ffa600"/>
   </g>
   <g id="patch_42">
    <path d="M 407.547914 17.28 
L 415.121529 17.28 
L 415.121529 38.904689 
L 412.396789 38.904689 
L 412.396789 128.16 
L 410.277938 128.16 
L 410.277938 38.904689 
L 407.547914 38.904689 
L 407.547914 17.28 
z
" clip-path="url(#p26a85d521e)" style="fill: #ff0000"/>
   </g>
   <g id="patch_43">
    <path d="M 420.76639 128.009262 
L 417.853699 128.009262 
L 417.393801 128.16 
L 415.52014 128.16 
L 418.195913 127.332537 
L 420.417982 127.332537 
L 423.093755 128.16 
L 421.221643 128.16 
L 420.76639 128.009262 
z
M 418.318243 127.855687 
L 420.2972 127.855687 
L 419.30927 127.526546 
L 418.318243 127.855687 
z
" clip-path="url(#p26a85d521e)" style="fill: #008000"/>
   </g>
   <g id="patch_44">
    <path d="M 415.52014 17.28 
L 423.093755 17.28 
L 423.093755 38.743311 
L 420.369015 38.743311 
L 420.369015 127.332537 
L 418.250164 127.332537 
L 418.250164 38.743311 
L 415.52014 38.743311 
L 415.52014 17.28 
z
" clip-path="url(#p26a85d521e)" style="fill: #ff0000"/>
   </g>
   <g id="patch_45">
    <path d="M 431.065981 120.212188 
Q 430.432461 124.151737 429.74742 126.144416 
Q 429.062379 128.16 428.316276 128.16 
Q 426.091324 128.16 424.791845 113.226358 
Q 423.492366 98.292716 423.492366 72.754357 
Q 423.492366 47.124379 424.791845 32.213642 
Q 426.091324 17.28 428.316276 17.28 
Q 429.062379 17.28 429.74742 19.295584 
Q 430.432461 21.288263 431.065981 25.227812 
L 431.065981 47.330518 
Q 430.426737 42.108325 429.806574 39.680463 
Q 429.186412 37.252601 428.501371 37.252601 
Q 427.272495 37.252601 426.568372 46.712101 
Q 425.866157 56.148697 425.866157 72.754357 
Q 425.866157 89.291303 426.568372 98.750804 
Q 427.272495 108.187399 428.501371 108.187399 
Q 429.186412 108.187399 429.806574 105.759537 
Q 430.426737 103.308771 431.065981 98.086577 
L 431.065981 120.212188 
z
" clip-path="url(#p26a85d521e)" style="fill: #0000ff"/>
   </g>
   <g id="patch_46">
    <path d="M 439.038207 118.127891 
Q 438.274396 123.143945 437.452874 125.663425 
Q 436.631352 128.16 435.755515 128.16 
Q 433.776395 128.16 432.620494 113.226358 
Q 431.464592 98.292716 431.464592 72.754357 
Q 431.464592 46.91824 432.640862 32.09912 
Q 433.818829 17.28 435.867541 17.28 
Q 436.656813 17.28 437.379888 19.295584 
Q 438.10466 21.288263 438.746261 25.227812 
L 438.746261 47.330518 
Q 438.084291 42.268655 437.429111 39.77208 
Q 436.773931 37.252601 436.115355 37.252601 
Q 434.896652 37.252601 434.236379 46.460153 
Q 433.576107 55.644801 433.576107 72.754357 
Q 433.576107 89.703582 434.212616 98.956943 
Q 434.849126 108.187399 436.020303 108.187399 
Q 436.339407 108.187399 436.612681 107.660599 
Q 436.885956 107.110894 437.103218 105.965677 
L 437.103218 85.214328 
L 435.855659 85.214328 
L 435.855659 66.73051 
L 439.038207 66.73051 
L 439.038207 118.127891 
z
" clip-path="url(#p26a85d521e)" style="fill: #ffa600"/>
   </g>
   <g id="patch_47">
    <path d="M 439.436818 17.28 
L 447.010433 17.28 
L 447.010433 38.904689 
L 444.285693 38.904689 
L 444.285693 128.16 
L 442.166842 128.16 
L 442.166842 38.904689 
L 439.436818 38.904689 
L 439.436818 17.28 
z
" clip-path="url(#p26a85d521e)" style="fill: #ff0000"/>
   </g>
   <g id="patch_48">
    <path d="M 454.982659 128.100688 
Q 454.34914 128.130088 453.664099 128.144958 
Q 452.979058 128.16 452.232954 128.16 
Q 450.008002 128.16 448.708523 128.048555 
Q 447.409045 127.93711 447.409045 127.746525 
Q 447.409045 127.555257 448.708523 127.443982 
Q 450.008002 127.332537 452.232954 127.332537 
Q 452.979058 127.332537 453.664099 127.347579 
Q 454.34914 127.36245 454.982659 127.391849 
L 454.982659 127.556795 
Q 454.343415 127.517823 453.723252 127.499705 
Q 453.10309 127.481587 452.418049 127.481587 
Q 451.189173 127.481587 450.48505 127.55218 
Q 449.782836 127.622602 449.782836 127.746525 
Q 449.782836 127.869935 450.48505 127.940528 
Q 451.189173 128.010951 452.418049 128.010951 
Q 453.10309 128.010951 453.723252 127.992832 
Q 454.343415 127.974543 454.982659 127.935571 
L 454.982659 128.100688 
z
" clip-path="url(#p26a85d521e)" style="fill: #0000ff"/>
   </g>
   <g id="patch_49">
    <path d="M 447.409045 17.28 
L 454.982659 17.28 
L 454.982659 38.743311 
L 452.257919 38.743311 
L 452.257919 127.332537 
L 450.139068 127.332537 
L 450.139068 38.743311 
L 447.409045 38.743311 
L 447.409045 17.28 
z
" clip-path="url(#p26a85d521e)" style="fill: #ff0000"/>
   </g>
   <g id="patch_50">
    <path d="M 462.954885 118.127891 
Q 462.191074 123.143945 461.369552 125.663425 
Q 460.548031 128.16 459.672194 128.16 
Q 457.693073 128.16 456.537172 113.226358 
Q 455.381271 98.292716 455.381271 72.754357 
Q 455.381271 46.91824 456.55754 32.09912 
Q 457.735507 17.28 459.784219 17.28 
Q 460.573491 17.28 461.296566 19.295584 
Q 462.021338 21.288263 462.66294 25.227812 
L 462.66294 47.330518 
Q 462.00097 42.268655 461.345789 39.77208 
Q 460.690609 37.252601 460.032034 37.252601 
Q 458.81333 37.252601 458.153057 46.460153 
Q 457.492785 55.644801 457.492785 72.754357 
Q 457.492785 89.703582 458.129294 98.956943 
Q 458.765804 108.187399 459.936982 108.187399 
Q 460.256085 108.187399 460.52936 107.660599 
Q 460.802635 107.110894 461.019896 105.965677 
L 461.019896 85.214328 
L 459.772338 85.214328 
L 459.772338 66.73051 
L 462.954885 66.73051 
L 462.954885 118.127891 
z
" clip-path="url(#p26a85d521e)" style="fill: #ffa600"/>
   </g>
   <g id="patch_51">
    <path d="M 468.599746 128.009262 
L 465.687056 128.009262 
L 465.227157 128.16 
L 463.353497 128.16 
L 466.02927 127.332537 
L 468.251338 127.332537 
L 470.927112 128.16 
L 469.054999 128.16 
L 468.599746 128.009262 
z
M 466.1516 127.855687 
L 468.130557 127.855687 
L 467.142627 127.526546 
L 466.1516 127.855687 
z
" clip-path="url(#p26a85d521e)" style="fill: #008000"/>
   </g>
   <g id="patch_52">
    <path d="M 470.927112 119.444037 
Q 470.293592 123.354187 469.608551 125.331995 
Q 468.92351 127.332537 468.177407 127.332537 
Q 465.952455 127.332537 464.652976 112.510341 
Q 463.353497 97.688144 463.353497 72.340369 
Q 463.353497 46.90166 464.652976 32.102197 
Q 465.952455 17.28 468.177407 17.28 
Q 468.92351 17.28 469.608551 19.280542 
Q 470.293592 21.25835 470.927112 25.1685 
L 470.927112 47.106261 
Q 470.287867 41.923039 469.667705 39.513295 
Q 469.047542 37.103551 468.362501 37.103551 
Q 467.133625 37.103551 466.429503 46.492458 
Q 465.727288 55.858632 465.727288 72.340369 
Q 465.727288 88.753906 466.429503 98.142812 
Q 467.133625 107.508986 468.362501 107.508986 
Q 469.047542 107.508986 469.667705 105.099242 
Q 470.287867 102.666765 470.927112 97.483543 
L 470.927112 119.444037 
z
" clip-path="url(#p26a85d521e)" style="fill: #0000ff"/>
   </g>
   <g id="patch_53">
    <path d="M 476.571972 107.961114 
L 473.659282 107.961114 
L 473.199383 128.16 
L 471.325723 128.16 
L 474.001496 17.28 
L 476.223565 17.28 
L 478.899338 128.16 
L 477.027226 128.16 
L 476.571972 107.961114 
z
M 474.123826 87.382015 
L 476.102783 87.382015 
L 475.114853 43.277154 
L 474.123826 87.382015 
z
" clip-path="url(#p26a85d521e)" style="fill: #008000"/>
   </g>
   <g id="patch_54">
    <path d="M 484.544199 107.961114 
L 481.631508 107.961114 
L 481.17161 128.16 
L 479.297949 128.16 
L 481.973722 17.28 
L 484.195791 17.28 
L 486.871564 128.16 
L 484.999452 128.16 
L 484.544199 107.961114 
z
M 482.096052 87.382015 
L 484.075009 87.382015 
L 483.087079 43.277154 
L 482.096052 87.382015 
z
" clip-path="url(#p26a85d521e)" style="fill: #008000"/>
   </g>
   <g id="patch_55">
    <path d="M 494.84379 120.212188 
Q 494.21027 124.151737 493.525229 126.144416 
Q 492.840188 128.16 492.094085 128.16 
Q 489.869133 128.16 488.569654 113.226358 
Q 487.270175 98.292716 487.270175 72.754357 
Q 487.270175 47.124379 488.569654 32.213642 
Q 489.869133 17.28 492.094085 17.28 
Q 492.840188 17.28 493.525229 19.295584 
Q 494.21027 21.288263 494.84379 25.227812 
L 494.84379 47.330518 
Q 494.204546 42.108325 493.584383 39.680463 
Q 492.964221 37.252601 492.27918 37.252601 
Q 491.050304 37.252601 490.346181 46.712101 
Q 489.643966 56.148697 489.643966 72.754357 
Q 489.643966 89.291303 490.346181 98.750804 
Q 491.050304 108.187399 492.27918 108.187399 
Q 492.964221 108.187399 493.584383 105.759537 
Q 494.204546 103.308771 494.84379 98.086577 
L 494.84379 120.212188 
z
" clip-path="url(#p26a85d521e)" style="fill: #0000ff"/>
   </g>
   <g id="patch_56">
    <path d="M 500.488651 107.961114 
L 497.57596 107.961114 
L 497.116062 128.16 
L 495.242401 128.16 
L 497.918174 17.28 
L 500.140243 17.28 
L 502.816016 128.16 
L 500.943904 128.16 
L 500.488651 107.961114 
z
M 498.040504 87.382015 
L 500.019461 87.382015 
L 499.031531 43.277154 
L 498.040504 87.382015 
z
" clip-path="url(#p26a85d521e)" style="fill: #008000"/>
   </g>
   <g id="patch_57">
    <path d="M 510.788242 128.085134 
Q 510.024431 128.122567 509.202909 128.141369 
Q 508.381387 128.16 507.50555 128.16 
Q 505.52643 128.16 504.370529 128.048555 
Q 503.214627 127.93711 503.214627 127.746525 
Q 503.214627 127.553718 504.390897 127.443128 
Q 505.568864 127.332537 507.617576 127.332537 
Q 508.406848 127.332537 509.129923 127.347579 
Q 509.854695 127.36245 510.496296 127.391849 
L 510.496296 127.556795 
Q 509.834326 127.51902 509.179146 127.500389 
Q 508.523966 127.481587 507.86539 127.481587 
Q 506.646687 127.481587 505.986414 127.5503 
Q 505.326142 127.618842 505.326142 127.746525 
Q 505.326142 127.873012 505.962651 127.942067 
Q 506.599161 128.010951 507.770338 128.010951 
Q 508.089442 128.010951 508.362716 128.007019 
Q 508.635991 128.002917 508.853253 127.994371 
L 508.853253 127.83951 
L 507.605694 127.83951 
L 507.605694 127.701571 
L 510.788242 127.701571 
L 510.788242 128.085134 
z
" clip-path="url(#p26a85d521e)" style="fill: #ffa600"/>
   </g>
   <g id="patch_58">
    <path d="M 510.788242 127.035977 
Q 510.154722 127.182975 509.469681 127.257329 
Q 508.78464 127.332537 508.038537 127.332537 
Q 505.813585 127.332537 504.514106 126.775312 
Q 503.214627 126.218086 503.214627 125.265163 
Q 503.214627 124.30882 504.514106 123.752449 
Q 505.813585 123.195224 508.038537 123.195224 
Q 508.78464 123.195224 509.469681 123.270432 
Q 510.154722 123.344786 510.788242 123.491784 
L 510.788242 124.316512 
Q 510.148998 124.121654 509.528835 124.031062 
Q 508.908673 123.94047 508.223632 123.94047 
Q 506.994756 123.94047 506.290633 124.293437 
Q 505.588418 124.645548 505.588418 125.265163 
Q 505.588418 125.882213 506.290633 126.235179 
Q 506.994756 126.587291 508.223632 126.587291 
Q 508.908673 126.587291 509.528835 126.496699 
Q 510.148998 126.405253 510.788242 126.210395 
L 510.788242 127.035977 
z
" clip-path="url(#p26a85d521e)" style="fill: #0000ff"/>
   </g>
   <g id="patch_59">
    <path d="M 508.460877 103.900766 
L 505.548186 103.900766 
L 505.088288 123.195224 
L 503.214627 123.195224 
L 505.8904 17.28 
L 508.112469 17.28 
L 510.788242 123.195224 
L 508.91613 123.195224 
L 508.460877 103.900766 
z
M 506.01273 84.243118 
L 507.991688 84.243118 
L 507.003757 42.113102 
L 506.01273 84.243118 
z
" clip-path="url(#p26a85d521e)" style="fill: #008000"/>
   </g>
   <g id="patch_60">
    <path d="M 516.433103 107.961114 
L 513.520413 107.961114 
L 513.060514 128.16 
L 511.186853 128.16 
L 513.862627 17.28 
L 516.084695 17.28 
L 518.760468 128.16 
L 516.888356 128.16 
L 516.433103 107.961114 
z
M 513.984956 87.382015 
L 515.963914 87.382015 
L 514.975984 43.277154 
L 513.984956 87.382015 
z
" clip-path="url(#p26a85d521e)" style="fill: #008000"/>
   </g>
   <g id="patch_61">
    <path d="M 519.15908 17.28 
L 526.732694 17.28 
L 526.732694 38.904689 
L 524.007954 38.904689 
L 524.007954 128.16 
L 521.889103 128.16 
L 521.889103 38.904689 
L 519.15908 38.904689 
L 519.15908 17.28 
z
" clip-path="url(#p26a85d521e)" style="fill: #ff0000"/>
   </g>
   <g id="patch_62">
    <path d="M 527.131306 17.28 
L 534.70492 17.28 
L 534.70492 38.904689 
L 531.98018 38.904689 
L 531.98018 128.16 
L 529.86133 128.16 
L 529.86133 38.904689 
L 527.131306 38.904689 
L 527.131306 17.28 
z
" clip-path="url(#p26a85d521e)" style="fill: #ff0000"/>
   </g>
   <g id="patch_63">
    <path d="M 542.677147 118.127891 
Q 541.913335 123.143945 541.091813 125.663425 
Q 540.270292 128.16 539.394455 128.16 
Q 537.415334 128.16 536.259433 113.226358 
Q 535.103532 98.292716 535.103532 72.754357 
Q 535.103532 46.91824 536.279801 32.09912 
Q 537.457768 17.28 539.50648 17.28 
Q 540.295752 17.28 541.018827 19.295584 
Q 541.743599 21.288263 542.385201 25.227812 
L 542.385201 47.330518 
Q 541.723231 42.268655 541.06805 39.77208 
Q 540.41287 37.252601 539.754295 37.252601 
Q 538.535591 37.252601 537.875319 46.460153 
Q 537.215046 55.644801 537.215046 72.754357 
Q 537.215046 89.703582 537.851556 98.956943 
Q 538.488065 108.187399 539.659243 108.187399 
Q 539.978346 108.187399 540.251621 107.660599 
Q 540.524896 107.110894 540.742158 105.965677 
L 540.742158 85.214328 
L 539.494599 85.214328 
L 539.494599 66.73051 
L 542.677147 66.73051 
L 542.677147 118.127891 
z
" clip-path="url(#p26a85d521e)" style="fill: #ffa600"/>
   </g>
   <g id="patch_64">
    <path d="M 548.322008 107.961114 
L 545.409317 107.961114 
L 544.949418 128.16 
L 543.075758 128.16 
L 545.751531 17.28 
L 547.9736 17.28 
L 550.649373 128.16 
L 548.777261 128.16 
L 548.322008 107.961114 
z
M 545.873861 87.382015 
L 547.852818 87.382015 
L 546.864888 43.277154 
L 545.873861 87.382015 
z
" clip-path="url(#p26a85d521e)" style="fill: #008000"/>
   </g>
   <g id="patch_65">
    <path d="M 551.047984 17.28 
L 558.621599 17.28 
L 558.621599 38.904689 
L 555.896859 38.904689 
L 555.896859 128.16 
L 553.778008 128.16 
L 553.778008 38.904689 
L 551.047984 38.904689 
L 551.047984 17.28 
z
" clip-path="url(#p26a85d521e)" style="fill: #ff0000"/>
   </g>
   <g id="patch_66">
    <path d="M 566.593825 124.491542 
Q 565.830013 126.325771 565.008492 127.247073 
Q 564.18697 128.16 563.311133 128.16 
Q 561.332013 128.16 560.176111 122.699191 
Q 559.02021 117.238381 559.02021 107.899727 
Q 559.02021 98.452192 560.19648 93.03326 
Q 561.374447 87.614328 563.423159 87.614328 
Q 564.212431 87.614328 564.935505 88.35137 
Q 565.660278 89.080036 566.301879 90.520618 
L 566.301879 98.602951 
Q 565.639909 96.751971 564.984729 95.839044 
Q 564.329548 94.917742 563.670973 94.917742 
Q 562.45227 94.917742 561.791997 98.284683 
Q 561.131724 101.643248 561.131724 107.899727 
Q 561.131724 114.097578 561.768234 117.48127 
Q 562.404743 120.856586 563.575921 120.856586 
Q 563.895024 120.856586 564.168299 120.66395 
Q 564.441574 120.462939 564.658836 120.044165 
L 564.658836 112.455985 
L 563.411277 112.455985 
L 563.411277 105.696978 
L 566.593825 105.696978 
L 566.593825 124.491542 
z
" clip-path="url(#p26a85d521e)" style="fill: #ffa600"/>
   </g>
   <g id="patch_67">
    <path d="M 564.26646 74.801602 
L 561.353769 74.801602 
L 560.893871 87.614328 
L 559.02021 87.614328 
L 561.695983 17.28 
L 563.918052 17.28 
L 566.593825 87.614328 
L 564.721713 87.614328 
L 564.26646 74.801602 
z
M 561.818313 61.747696 
L 563.79727 61.747696 
L 562.80934 33.770732 
L 561.818313 61.747696 
z
" clip-path="url(#p26a85d521e)" style="fill: #008000"/>
   </g>
   <g id="patch_68">
    <path d="M 572.238686 107.961114 
L 569.325995 107.961114 
L 568.866097 128.16 
L 566.992436 128.16 
L 569.668209 17.28 
L 571.890278 17.28 
L 574.566051 128.16 
L 572.693939 128.16 
L 572.238686 107.961114 
z
M 569.790539 87.382015 
L 571.769496 87.382015 
L 570.781566 43.277154 
L 569.790539 87.382015 
z
" clip-path="url(#p26a85d521e)" style="fill: #008000"/>
   </g>
   <g id="patch_69">
    <path d="M 582.538277 118.127891 
Q 581.774466 123.143945 580.952944 125.663425 
Q 580.131422 128.16 579.255585 128.16 
Q 577.276465 128.16 576.120564 113.226358 
Q 574.964662 98.292716 574.964662 72.754357 
Q 574.964662 46.91824 576.140932 32.09912 
Q 577.318899 17.28 579.367611 17.28 
Q 580.156883 17.28 580.879958 19.295584 
Q 581.60473 21.288263 582.246331 25.227812 
L 582.246331 47.330518 
Q 581.584362 42.268655 580.929181 39.77208 
Q 580.274001 37.252601 579.615425 37.252601 
Q 578.396722 37.252601 577.736449 46.460153 
Q 577.076177 55.644801 577.076177 72.754357 
Q 577.076177 89.703582 577.712686 98.956943 
Q 578.349196 108.187399 579.520373 108.187399 
Q 579.839477 108.187399 580.112751 107.660599 
Q 580.386026 107.110894 580.603288 105.965677 
L 580.603288 85.214328 
L 579.355729 85.214328 
L 579.355729 66.73051 
L 582.538277 66.73051 
L 582.538277 118.127891 
z
" clip-path="url(#p26a85d521e)" style="fill: #ffa600"/>
   </g>
   <g id="patch_70">
    <path d="M 590.510503 120.212188 
Q 589.876983 124.151737 589.191942 126.144416 
Q 588.506901 128.16 587.760798 128.16 
Q 585.535846 128.16 584.236367 113.226358 
Q 582.936888 98.292716 582.936888 72.754357 
Q 582.936888 47.124379 584.236367 32.213642 
Q 585.535846 17.28 587.760798 17.28 
Q 588.506901 17.28 589.191942 19.295584 
Q 589.876983 21.288263 590.510503 25.227812 
L 590.510503 47.330518 
Q 589.871259 42.108325 589.251096 39.680463 
Q 588.630934 37.252601 587.945893 37.252601 
Q 586.717017 37.252601 586.012894 46.712101 
Q 585.31068 56.148697 585.31068 72.754357 
Q 585.31068 89.291303 586.012894 98.750804 
Q 586.717017 108.187399 587.945893 108.187399 
Q 588.630934 108.187399 589.251096 105.759537 
Q 589.871259 103.308771 590.510503 98.086577 
L 590.510503 120.212188 
z
" clip-path="url(#p26a85d521e)" style="fill: #0000ff"/>
   </g>
   <g id="patch_71">
    <path d="M 596.155364 107.961114 
L 593.242674 107.961114 
L 592.782775 128.16 
L 590.909115 128.16 
L 593.584888 17.28 
L 595.806956 17.28 
L 598.482729 128.16 
L 596.610617 128.16 
L 596.155364 107.961114 
z
M 593.707218 87.382015 
L 595.686175 87.382015 
L 594.698245 43.277154 
L 593.707218 87.382015 
z
" clip-path="url(#p26a85d521e)" style="fill: #008000"/>
   </g>
   <g id="patch_72">
    <path d="M 604.12759 107.961114 
L 601.2149 107.961114 
L 600.755001 128.16 
L 598.881341 128.16 
L 601.557114 17.28 
L 603.779182 17.28 
L 606.454955 128.16 
L 604.582843 128.16 
L 604.12759 107.961114 
z
M 601.679444 87.382015 
L 603.658401 87.382015 
L 602.670471 43.277154 
L 601.679444 87.382015 
z
" clip-path="url(#p26a85d521e)" style="fill: #008000"/>
   </g>
   <g id="patch_73">
    <path d="M 606.853567 17.28 
L 614.427182 17.28 
L 614.427182 38.904689 
L 611.702442 38.904689 
L 611.702442 128.16 
L 609.583591 128.16 
L 609.583591 38.904689 
L 606.853567 38.904689 
L 606.853567 17.28 
z
" clip-path="url(#p26a85d521e)" style="fill: #ff0000"/>
   </g>
   <g id="patch_74">
    <path d="M 614.825793 126.505075 
L 622.399408 126.505075 
L 622.399408 126.827831 
L 619.674668 126.827831 
L 619.674668 128.16 
L 617.555817 128.16 
L 617.555817 126.827831 
L 614.825793 126.827831 
L 614.825793 126.505075 
z
" clip-path="url(#p26a85d521e)" style="fill: #ff0000"/>
   </g>
   <g id="patch_75">
    <path d="M 622.399408 116.622699 
Q 621.635596 121.563887 620.814075 124.045762 
Q 619.992553 126.505075 619.116716 126.505075 
Q 617.137596 126.505075 615.981694 111.794323 
Q 614.825793 97.083571 614.825793 71.926381 
Q 614.825793 46.475878 616.002063 31.877939 
Q 617.18003 17.28 619.228742 17.28 
Q 620.018013 17.28 620.741088 19.2655 
Q 621.46586 21.228438 622.107462 25.109188 
L 622.107462 46.882003 
Q 621.445492 41.89569 620.790312 39.436377 
Q 620.135131 36.954502 619.476556 36.954502 
Q 618.257852 36.954502 617.59758 46.024628 
Q 616.937307 55.072192 616.937307 71.926381 
Q 616.937307 88.622633 617.573817 97.737884 
Q 618.210326 106.830572 619.381504 106.830572 
Q 619.700607 106.830572 619.973882 106.311635 
Q 620.247157 105.770135 620.464419 104.64201 
L 620.464419 84.200382 
L 619.21686 84.200382 
L 619.21686 65.992443 
L 622.399408 65.992443 
L 622.399408 116.622699 
z
" clip-path="url(#p26a85d521e)" style="fill: #ffa600"/>
   </g>
   <g id="patch_76">
    <path d="M 628.044269 127.858524 
L 625.131578 127.858524 
L 624.67168 128.16 
L 622.798019 128.16 
L 625.473792 126.505075 
L 627.695861 126.505075 
L 630.371634 128.16 
L 628.499522 128.16 
L 628.044269 127.858524 
z
M 625.596122 127.551373 
L 627.575079 127.551373 
L 626.587149 126.893092 
L 625.596122 127.551373 
z
" clip-path="url(#p26a85d521e)" style="fill: #008000"/>
   </g>
   <g id="patch_77">
    <path d="M 630.371634 118.675886 
Q 629.738114 122.556637 629.053073 124.519574 
Q 628.368032 126.505075 627.621929 126.505075 
Q 625.396977 126.505075 624.097498 111.794323 
Q 622.798019 97.083571 622.798019 71.926381 
Q 622.798019 46.678941 624.097498 31.990752 
Q 625.396977 17.28 627.621929 17.28 
Q 628.368032 17.28 629.053073 19.2655 
Q 629.738114 21.228438 630.371634 25.109188 
L 630.371634 46.882003 
Q 629.732389 41.737753 629.112227 39.346127 
Q 628.492065 36.954502 627.807024 36.954502 
Q 626.578148 36.954502 625.874025 46.272816 
Q 625.17181 55.568567 625.17181 71.926381 
Q 625.17181 88.216508 625.874025 97.534821 
Q 626.578148 106.830572 627.807024 106.830572 
Q 628.492065 106.830572 629.112227 104.438947 
Q 629.732389 102.024759 630.371634 96.880509 
L 630.371634 118.675886 
z
" clip-path="url(#p26a85d521e)" style="fill: #0000ff"/>
   </g>
   <g id="patch_78">
    <path d="M 630.770245 17.28 
L 638.34386 17.28 
L 638.34386 38.904689 
L 635.61912 38.904689 
L 635.61912 128.16 
L 633.500269 128.16 
L 633.500269 38.904689 
L 630.770245 38.904689 
L 630.770245 17.28 
z
" clip-path="url(#p26a85d521e)" style="fill: #ff0000"/>
   </g>
   <g id="patch_79">
    <path d="M 638.742471 17.28 
L 646.316086 17.28 
L 646.316086 38.904689 
L 643.591346 38.904689 
L 643.591346 128.16 
L 641.472495 128.16 
L 641.472495 38.904689 
L 638.742471 38.904689 
L 638.742471 17.28 
z
" clip-path="url(#p26a85d521e)" style="fill: #ff0000"/>
   </g>
   <g id="patch_80">
    <path d="M 646.714697 17.28 
L 654.288312 17.28 
L 654.288312 38.904689 
L 651.563572 38.904689 
L 651.563572 128.16 
L 649.444721 128.16 
L 649.444721 38.904689 
L 646.714697 38.904689 
L 646.714697 17.28 
z
" clip-path="url(#p26a85d521e)" style="fill: #ff0000"/>
   </g>
   <g id="patch_81">
    <path d="M 654.686923 80.994627 
L 662.260538 80.994627 
L 662.260538 90.193189 
L 659.535798 90.193189 
L 659.535798 128.16 
L 657.416947 128.16 
L 657.416947 90.193189 
L 654.686923 90.193189 
L 654.686923 80.994627 
z
" clip-path="url(#p26a85d521e)" style="fill: #ff0000"/>
   </g>
   <g id="patch_82">
    <path d="M 662.260538 76.4276 
Q 661.627018 78.691371 660.941977 79.836418 
Q 660.256936 80.994627 659.510833 80.994627 
Q 657.285881 80.994627 655.986402 72.413355 
Q 654.686923 63.832083 654.686923 49.157056 
Q 654.686923 34.429382 655.986402 25.861272 
Q 657.285881 17.28 659.510833 17.28 
Q 660.256936 17.28 660.941977 18.438208 
Q 661.627018 19.583255 662.260538 21.847027 
L 662.260538 34.547835 
Q 661.621294 31.547022 661.001131 30.151908 
Q 660.380969 28.756793 659.695928 28.756793 
Q 658.467052 28.756793 657.762929 34.192476 
Q 657.060715 39.614997 657.060715 49.157056 
Q 657.060715 58.65963 657.762929 64.095312 
Q 658.467052 69.517834 659.695928 69.517834 
Q 660.380969 69.517834 661.001131 68.122719 
Q 661.621294 66.714443 662.260538 63.71363 
L 662.260538 76.4276 
z
" clip-path="url(#p26a85d521e)" style="fill: #0000ff"/>
   </g>
   <g id="patch_83">
    <path d="M 670.232764 127.151695 
Q 669.599245 127.651489 668.914204 127.904292 
Q 668.229163 128.16 667.483059 128.16 
Q 665.258107 128.16 663.958628 126.265434 
Q 662.65915 124.370867 662.65915 121.130926 
Q 662.65915 117.879362 663.958628 115.987701 
Q 665.258107 114.093134 667.483059 114.093134 
Q 668.229163 114.093134 668.914204 114.348843 
Q 669.599245 114.601645 670.232764 115.101439 
L 670.232764 117.905514 
Q 669.59352 117.242996 668.973358 116.934984 
Q 668.353195 116.626972 667.668154 116.626972 
Q 666.439278 116.626972 665.735155 117.827058 
Q 665.032941 119.024238 665.032941 121.130926 
Q 665.032941 123.228897 665.735155 124.428983 
Q 666.439278 125.626163 667.668154 125.626163 
Q 668.353195 125.626163 668.973358 125.31815 
Q 669.59352 125.007232 670.232764 124.344715 
L 670.232764 127.151695 
z
" clip-path="url(#p26a85d521e)" style="fill: #0000ff"/>
   </g>
   <g id="patch_84">
    <path d="M 662.65915 17.28 
L 670.232764 17.28 
L 670.232764 36.161259 
L 667.508024 36.161259 
L 667.508024 114.093134 
L 665.389174 114.093134 
L 665.389174 36.161259 
L 662.65915 36.161259 
L 662.65915 17.28 
z
" clip-path="url(#p26a85d521e)" style="fill: #ff0000"/>
   </g>
   <g id="patch_85">
    <path d="M 670.631376 17.28 
L 678.20499 17.28 
L 678.20499 38.904689 
L 675.48025 38.904689 
L 675.48025 128.16 
L 673.3614 128.16 
L 673.3614 38.904689 
L 670.631376 38.904689 
L 670.631376 17.28 
z
" clip-path="url(#p26a85d521e)" style="fill: #ff0000"/>
   </g>
   <g id="patch_86">
    <path d="M 683.849851 107.961114 
L 680.937161 107.961114 
L 680.477262 128.16 
L 678.603602 128.16 
L 681.279375 17.28 
L 683.501443 17.28 
L 686.177217 128.16 
L 684.305105 128.16 
L 683.849851 107.961114 
z
M 681.401705 87.382015 
L 683.380662 87.382015 
L 682.392732 43.277154 
L 681.401705 87.382015 
z
" clip-path="url(#p26a85d521e)" style="fill: #008000"/>
   </g>
   <g id="patch_87">
    <path d="M 686.575828 17.28 
L 694.149443 17.28 
L 694.149443 38.904689 
L 691.424703 38.904689 
L 691.424703 128.16 
L 689.305852 128.16 
L 689.305852 38.904689 
L 686.575828 38.904689 
L 686.575828 17.28 
z
" clip-path="url(#p26a85d521e)" style="fill: #ff0000"/>
   </g>
   <g id="patch_88">
    <path d="M 699.794304 107.961114 
L 696.881613 107.961114 
L 696.421715 128.16 
L 694.548054 128.16 
L 697.223827 17.28 
L 699.445896 17.28 
L 702.121669 128.16 
L 700.249557 128.16 
L 699.794304 107.961114 
z
M 697.346157 87.382015 
L 699.325114 87.382015 
L 698.337184 43.277154 
L 697.346157 87.382015 
z
" clip-path="url(#p26a85d521e)" style="fill: #008000"/>
   </g>
   <g id="patch_89">
    <path d="M 702.52028 127.332537 
L 710.093895 127.332537 
L 710.093895 127.493916 
L 707.369155 127.493916 
L 707.369155 128.16 
L 705.250304 128.16 
L 705.250304 127.493916 
L 702.52028 127.493916 
L 702.52028 127.332537 
z
" clip-path="url(#p26a85d521e)" style="fill: #ff0000"/>
   </g>
   <g id="patch_90">
    <path d="M 707.76653 107.28439 
L 704.853839 107.28439 
L 704.393941 127.332537 
L 702.52028 127.332537 
L 705.196053 17.28 
L 707.418122 17.28 
L 710.093895 127.332537 
L 708.221783 127.332537 
L 707.76653 107.28439 
z
M 705.318383 86.858865 
L 707.29734 86.858865 
L 706.30941 43.083145 
L 705.318383 86.858865 
z
" clip-path="url(#p26a85d521e)" style="fill: #008000"/>
   </g>
   <g id="patch_91">
    <path d="M 710.492506 17.28 
L 718.066121 17.28 
L 718.066121 38.904689 
L 715.341381 38.904689 
L 715.341381 128.16 
L 713.22253 128.16 
L 713.22253 38.904689 
L 710.492506 38.904689 
L 710.492506 17.28 
z
" clip-path="url(#p26a85d521e)" style="fill: #ff0000"/>
   </g>
   <g id="patch_92">
    <path d="M 726.038347 118.127891 
Q 725.274536 123.143945 724.453014 125.663425 
Q 723.631492 128.16 722.755655 128.16 
Q 720.776535 128.16 719.620634 113.226358 
Q 718.464732 98.292716 718.464732 72.754357 
Q 718.464732 46.91824 719.641002 32.09912 
Q 720.818969 17.28 722.867681 17.28 
Q 723.656953 17.28 724.380028 19.295584 
Q 725.1048 21.288263 725.746401 25.227812 
L 725.746401 47.330518 
Q 725.084432 42.268655 724.429251 39.77208 
Q 723.774071 37.252601 723.115495 37.252601 
Q 721.896792 37.252601 721.236519 46.460153 
Q 720.576247 55.644801 720.576247 72.754357 
Q 720.576247 89.703582 721.212756 98.956943 
Q 721.849266 108.187399 723.020443 108.187399 
Q 723.339547 108.187399 723.612821 107.660599 
Q 723.886096 107.110894 724.103358 105.965677 
L 724.103358 85.214328 
L 722.855799 85.214328 
L 722.855799 66.73051 
L 726.038347 66.73051 
L 726.038347 118.127891 
z
" clip-path="url(#p26a85d521e)" style="fill: #ffa600"/>
   </g>
   <g id="patch_93">
    <path d="M 726.436958 126.505075 
L 734.010573 126.505075 
L 734.010573 126.827831 
L 731.285833 126.827831 
L 731.285833 128.16 
L 729.166982 128.16 
L 729.166982 126.827831 
L 726.436958 126.827831 
L 726.436958 126.505075 
z
" clip-path="url(#p26a85d521e)" style="fill: #ff0000"/>
   </g>
   <g id="patch_94">
    <path d="M 731.683208 126.052861 
L 728.770518 126.052861 
L 728.310619 126.505075 
L 726.436958 126.505075 
L 729.112732 124.022687 
L 731.3348 124.022687 
L 734.010573 126.505075 
L 732.138461 126.505075 
L 731.683208 126.052861 
z
M 729.235062 125.592135 
L 731.214019 125.592135 
L 730.226089 124.604712 
L 729.235062 125.592135 
z
" clip-path="url(#p26a85d521e)" style="fill: #008000"/>
   </g>
   <g id="patch_95">
    <path d="M 734.010573 116.371434 
Q 733.377053 120.163986 732.692012 122.082311 
Q 732.006971 124.022687 731.260868 124.022687 
Q 729.035916 124.022687 727.736437 109.64627 
Q 726.436958 95.269854 726.436958 70.684418 
Q 726.436958 46.010783 727.736437 31.656416 
Q 729.035916 17.28 731.260868 17.28 
Q 732.006971 17.28 732.692012 19.220375 
Q 733.377053 21.138701 734.010573 24.931252 
L 734.010573 46.20923 
Q 733.371329 41.181895 732.751166 38.844625 
Q 732.131004 36.507354 731.445963 36.507354 
Q 730.217087 36.507354 729.512964 45.613888 
Q 728.81075 54.698372 728.81075 70.684418 
Q 728.81075 86.604315 729.512964 95.710848 
Q 730.217087 104.795332 731.445963 104.795332 
Q 732.131004 104.795332 732.751166 102.458062 
Q 733.371329 100.098742 734.010573 95.071406 
L 734.010573 116.371434 
z
" clip-path="url(#p26a85d521e)" style="fill: #0000ff"/>
   </g>
   <g id="patch_96">
    <path d="M 741.982799 120.212188 
Q 741.34928 124.151737 740.664239 126.144416 
Q 739.979198 128.16 739.233094 128.16 
Q 737.008142 128.16 735.708663 113.226358 
Q 734.409185 98.292716 734.409185 72.754357 
Q 734.409185 47.124379 735.708663 32.213642 
Q 737.008142 17.28 739.233094 17.28 
Q 739.979198 17.28 740.664239 19.295584 
Q 741.34928 21.288263 741.982799 25.227812 
L 741.982799 47.330518 
Q 741.343555 42.108325 740.723393 39.680463 
Q 740.10323 37.252601 739.418189 37.252601 
Q 738.189313 37.252601 737.48519 46.712101 
Q 736.782976 56.148697 736.782976 72.754357 
Q 736.782976 89.291303 737.48519 98.750804 
Q 738.189313 108.187399 739.418189 108.187399 
Q 740.10323 108.187399 740.723393 105.759537 
Q 741.343555 103.308771 741.982799 98.086577 
L 741.982799 120.212188 
z
" clip-path="url(#p26a85d521e)" style="fill: #0000ff"/>
   </g>
   <g id="patch_97">
    <path d="M 749.955026 128.041376 
Q 749.321506 128.100175 748.636465 128.129917 
Q 747.951424 128.16 747.205321 128.16 
Q 744.980368 128.16 743.68089 127.93711 
Q 742.381411 127.71422 742.381411 127.33305 
Q 742.381411 126.950513 743.68089 126.727965 
Q 744.980368 126.505075 747.205321 126.505075 
Q 747.951424 126.505075 748.636465 126.535158 
Q 749.321506 126.564899 749.955026 126.623699 
L 749.955026 126.95359 
Q 749.315781 126.875647 748.695619 126.83941 
Q 748.075456 126.803173 747.390415 126.803173 
Q 746.161539 126.803173 745.457417 126.94436 
Q 744.755202 127.085204 744.755202 127.33305 
Q 744.755202 127.57987 745.457417 127.721057 
Q 746.161539 127.861901 747.390415 127.861901 
Q 748.075456 127.861901 748.695619 127.825665 
Q 749.315781 127.789086 749.955026 127.711143 
L 749.955026 128.041376 
z
" clip-path="url(#p26a85d521e)" style="fill: #0000ff"/>
   </g>
   <g id="patch_98">
    <path d="M 747.62766 106.607665 
L 744.71497 106.607665 
L 744.255071 126.505075 
L 742.381411 126.505075 
L 745.057184 17.28 
L 747.279252 17.28 
L 749.955026 126.505075 
L 748.082913 126.505075 
L 747.62766 106.607665 
z
M 745.179514 86.335716 
L 747.158471 86.335716 
L 746.170541 42.889137 
L 745.179514 86.335716 
z
" clip-path="url(#p26a85d521e)" style="fill: #008000"/>
   </g>
   <g id="patch_99">
    <path d="M 755.599886 107.961114 
L 752.687196 107.961114 
L 752.227297 128.16 
L 750.353637 128.16 
L 753.02941 17.28 
L 755.251478 17.28 
L 757.927252 128.16 
L 756.05514 128.16 
L 755.599886 107.961114 
z
M 753.15174 87.382015 
L 755.130697 87.382015 
L 754.142767 43.277154 
L 753.15174 87.382015 
z
" clip-path="url(#p26a85d521e)" style="fill: #008000"/>
   </g>
   <g id="patch_100">
    <path d="M 765.899478 127.935401 
Q 765.135666 128.0477 764.314145 128.104107 
Q 763.492623 128.16 762.616786 128.16 
Q 760.637666 128.16 759.481764 127.825665 
Q 758.325863 127.491329 758.325863 126.919575 
Q 758.325863 126.341155 759.502133 126.009383 
Q 760.6801 125.677612 762.728812 125.677612 
Q 763.518083 125.677612 764.241158 125.722737 
Q 764.96593 125.767349 765.607532 125.855548 
L 765.607532 126.350385 
Q 764.945562 126.237059 764.290382 126.181166 
Q 763.635201 126.12476 762.976626 126.12476 
Q 761.757922 126.12476 761.09765 126.330899 
Q 760.437377 126.536525 760.437377 126.919575 
Q 760.437377 127.299035 761.073887 127.5062 
Q 761.710396 127.712852 762.881574 127.712852 
Q 763.200677 127.712852 763.473952 127.701058 
Q 763.747227 127.688751 763.964489 127.663112 
L 763.964489 127.19853 
L 762.71693 127.19853 
L 762.71693 126.784713 
L 765.899478 126.784713 
L 765.899478 127.935401 
z
" clip-path="url(#p26a85d521e)" style="fill: #ffa600"/>
   </g>
   <g id="patch_101">
    <path d="M 765.899478 117.907736 
Q 765.265958 121.759086 764.580917 123.707153 
Q 763.895876 125.677612 763.149773 125.677612 
Q 760.924821 125.677612 759.625342 111.078305 
Q 758.325863 96.478999 758.325863 71.512393 
Q 758.325863 46.456222 759.625342 31.879307 
Q 760.924821 17.28 763.149773 17.28 
Q 763.895876 17.28 764.580917 19.250459 
Q 765.265958 21.198526 765.899478 25.049876 
L 765.899478 46.657746 
Q 765.260233 41.552467 764.640071 39.17896 
Q 764.019908 36.805453 763.334867 36.805453 
Q 762.105992 36.805453 761.401869 46.053173 
Q 760.699654 55.278502 760.699654 71.512393 
Q 760.699654 87.67911 761.401869 96.92683 
Q 762.105992 106.152159 763.334867 106.152159 
Q 764.019908 106.152159 764.640071 103.778652 
Q 765.260233 101.382754 765.899478 96.277475 
L 765.899478 117.907736 
z
" clip-path="url(#p26a85d521e)" style="fill: #0000ff"/>
   </g>
   <g id="patch_102">
    <path d="M 766.298089 17.28 
L 773.871704 17.28 
L 773.871704 38.904689 
L 771.146964 38.904689 
L 771.146964 128.16 
L 769.028113 128.16 
L 769.028113 38.904689 
L 766.298089 38.904689 
L 766.298089 17.28 
z
" clip-path="url(#p26a85d521e)" style="fill: #ff0000"/>
   </g>
   <g id="patch_103">
    <path d="M 774.270315 17.28 
L 781.84393 17.28 
L 781.84393 38.904689 
L 779.11919 38.904689 
L 779.11919 128.16 
L 777.000339 128.16 
L 777.000339 38.904689 
L 774.270315 38.904689 
L 774.270315 17.28 
z
" clip-path="url(#p26a85d521e)" style="fill: #ff0000"/>
   </g>
   <g id="patch_104">
    <path d="M 782.242541 17.28 
L 789.816156 17.28 
L 789.816156 38.904689 
L 787.091416 38.904689 
L 787.091416 128.16 
L 784.972565 128.16 
L 784.972565 38.904689 
L 782.242541 38.904689 
L 782.242541 17.28 
z
" clip-path="url(#p26a85d521e)" style="fill: #ff0000"/>
   </g>
   <g id="patch_105">
    <path d="M 797.788382 118.127891 
Q 797.024571 123.143945 796.203049 125.663425 
Q 795.381527 128.16 794.50569 128.16 
Q 792.52657 128.16 791.370669 113.226358 
Q 790.214767 98.292716 790.214767 72.754357 
Q 790.214767 46.91824 791.391037 32.09912 
Q 792.569004 17.28 794.617716 17.28 
Q 795.406988 17.28 796.130063 19.295584 
Q 796.854835 21.288263 797.496436 25.227812 
L 797.496436 47.330518 
Q 796.834467 42.268655 796.179286 39.77208 
Q 795.524106 37.252601 794.86553 37.252601 
Q 793.646827 37.252601 792.986554 46.460153 
Q 792.326282 55.644801 792.326282 72.754357 
Q 792.326282 89.703582 792.962791 98.956943 
Q 793.599301 108.187399 794.770478 108.187399 
Q 795.089582 108.187399 795.362857 107.660599 
Q 795.636131 107.110894 795.853393 105.965677 
L 795.853393 85.214328 
L 794.605835 85.214328 
L 794.605835 66.73051 
L 797.788382 66.73051 
L 797.788382 118.127891 
z
" clip-path="url(#p26a85d521e)" style="fill: #ffa600"/>
   </g>
   <g id="patch_106">
    <path d="M 798.186993 17.28 
L 805.760608 17.28 
L 805.760608 38.904689 
L 803.035868 38.904689 
L 803.035868 128.16 
L 800.917017 128.16 
L 800.917017 38.904689 
L 798.186993 38.904689 
L 798.186993 17.28 
z
" clip-path="url(#p26a85d521e)" style="fill: #ff0000"/>
   </g>
   <g id="patch_107">
    <path d="M 811.405469 107.961114 
L 808.492779 107.961114 
L 808.03288 128.16 
L 806.15922 128.16 
L 808.834993 17.28 
L 811.057061 17.28 
L 813.732834 128.16 
L 811.860722 128.16 
L 811.405469 107.961114 
z
M 808.957323 87.382015 
L 810.93628 87.382015 
L 809.94835 43.277154 
L 808.957323 87.382015 
z
" clip-path="url(#p26a85d521e)" style="fill: #008000"/>
   </g>
   <g id="patch_108">
    <path d="M 814.131446 117.402985 
L 821.705061 117.402985 
L 821.705061 119.500903 
L 818.980321 119.500903 
L 818.980321 128.16 
L 816.86147 128.16 
L 816.86147 119.500903 
L 814.131446 119.500903 
L 814.131446 117.402985 
z
" clip-path="url(#p26a85d521e)" style="fill: #ff0000"/>
   </g>
   <g id="patch_109">
    <path d="M 821.705061 110.226229 
Q 821.071541 113.783584 820.3865 115.582943 
Q 819.701459 117.402985 818.955356 117.402985 
Q 816.730403 117.402985 815.430925 103.918129 
Q 814.131446 90.433274 814.131446 67.372516 
Q 814.131446 44.229029 815.430925 30.764856 
Q 816.730403 17.28 818.955356 17.28 
Q 819.701459 17.28 820.3865 19.100042 
Q 821.071541 20.899401 821.705061 24.456756 
L 821.705061 44.41517 
Q 821.065816 39.699607 820.445654 37.507283 
Q 819.825491 35.31496 819.14045 35.31496 
Q 817.911574 35.31496 817.207452 43.856748 
Q 816.505237 52.377853 816.505237 67.372516 
Q 816.505237 82.305132 817.207452 90.84692 
Q 817.911574 99.368025 819.14045 99.368025 
Q 819.825491 99.368025 820.445654 97.175702 
Q 821.065816 94.962696 821.705061 90.247133 
L 821.705061 110.226229 
z
" clip-path="url(#p26a85d521e)" style="fill: #0000ff"/>
   </g>
   <g id="patch_110">
    <path d="M 827.349921 107.961114 
L 824.437231 107.961114 
L 823.977332 128.16 
L 822.103672 128.16 
L 824.779445 17.28 
L 827.001514 17.28 
L 829.677287 128.16 
L 827.805175 128.16 
L 827.349921 107.961114 
z
M 824.901775 87.382015 
L 826.880732 87.382015 
L 825.892802 43.277154 
L 824.901775 87.382015 
z
" clip-path="url(#p26a85d521e)" style="fill: #008000"/>
   </g>
   <g id="patch_111">
    <path d="M 837.649513 128.010267 
Q 836.885701 128.085134 836.06418 128.122738 
Q 835.242658 128.16 834.366821 128.16 
Q 832.387701 128.16 831.231799 127.93711 
Q 830.075898 127.71422 830.075898 127.33305 
Q 830.075898 126.947436 831.252168 126.726256 
Q 832.430135 126.505075 834.478847 126.505075 
Q 835.268118 126.505075 835.991193 126.535158 
Q 836.715965 126.564899 837.357567 126.623699 
L 837.357567 126.95359 
Q 836.695597 126.87804 836.040417 126.840777 
Q 835.385236 126.803173 834.726661 126.803173 
Q 833.507957 126.803173 832.847685 126.940599 
Q 832.187412 127.077684 832.187412 127.33305 
Q 832.187412 127.586024 832.823922 127.724133 
Q 833.460431 127.861901 834.631609 127.861901 
Q 834.950712 127.861901 835.223987 127.854039 
Q 835.497262 127.845834 835.714524 127.828741 
L 835.714524 127.51902 
L 834.466965 127.51902 
L 834.466965 127.243142 
L 837.649513 127.243142 
L 837.649513 128.010267 
z
" clip-path="url(#p26a85d521e)" style="fill: #ffa600"/>
   </g>
   <g id="patch_112">
    <path d="M 837.649513 126.149202 
Q 837.015993 126.3256 836.330952 126.414825 
Q 835.645911 126.505075 834.899808 126.505075 
Q 832.674856 126.505075 831.375377 125.836404 
Q 830.075898 125.167734 830.075898 124.024225 
Q 830.075898 122.876614 831.375377 122.208969 
Q 832.674856 121.540299 834.899808 121.540299 
Q 835.645911 121.540299 836.330952 121.630549 
Q 837.015993 121.719773 837.649513 121.896171 
L 837.649513 122.885844 
Q 837.010268 122.652015 836.390106 122.543304 
Q 835.769943 122.434594 835.084902 122.434594 
Q 833.856027 122.434594 833.151904 122.858154 
Q 832.449689 123.280688 832.449689 124.024225 
Q 832.449689 124.764685 833.151904 125.188245 
Q 833.856027 125.610779 835.084902 125.610779 
Q 835.769943 125.610779 836.390106 125.502069 
Q 837.010268 125.392333 837.649513 125.158503 
L 837.649513 126.149202 
z
" clip-path="url(#p26a85d521e)" style="fill: #0000ff"/>
   </g>
   <g id="patch_113">
    <path d="M 835.322148 102.547317 
L 832.409457 102.547317 
L 831.949559 121.540299 
L 830.075898 121.540299 
L 832.751671 17.28 
L 834.97374 17.28 
L 837.649513 121.540299 
L 835.777401 121.540299 
L 835.322148 102.547317 
z
M 832.874001 83.19682 
L 834.852958 83.19682 
L 833.865028 41.725085 
L 832.874001 83.19682 
z
" clip-path="url(#p26a85d521e)" style="fill: #008000"/>
   </g>
   <g id="patch_114">
    <path d="M 838.048124 124.022687 
L 845.621739 124.022687 
L 845.621739 124.829578 
L 842.896999 124.829578 
L 842.896999 128.16 
L 840.778148 128.16 
L 840.778148 124.829578 
L 838.048124 124.829578 
L 838.048124 124.022687 
z
" clip-path="url(#p26a85d521e)" style="fill: #ff0000"/>
   </g>
   <g id="patch_115">
    <path d="M 843.294374 116.485789 
L 840.381683 116.485789 
L 839.921785 124.022687 
L 838.048124 124.022687 
L 840.723897 82.649552 
L 842.945966 82.649552 
L 845.621739 124.022687 
L 843.749627 124.022687 
L 843.294374 116.485789 
z
M 840.846227 108.80702 
L 842.825184 108.80702 
L 841.837254 92.349983 
L 840.846227 108.80702 
z
" clip-path="url(#p26a85d521e)" style="fill: #008000"/>
   </g>
   <g id="patch_116">
    <path d="M 845.621739 76.7351 
Q 844.857927 79.692326 844.036406 81.177691 
Q 843.214884 82.649552 842.339047 82.649552 
Q 840.359927 82.649552 839.204025 73.84539 
Q 838.048124 65.041228 838.048124 49.985031 
Q 838.048124 34.753291 839.224394 26.016645 
Q 840.402361 17.28 842.451073 17.28 
Q 843.240345 17.28 843.963419 18.468292 
Q 844.688192 19.64308 845.329793 21.965651 
L 845.329793 34.99635 
Q 844.667823 32.012118 844.012643 30.540256 
Q 843.357462 29.054891 842.698887 29.054891 
Q 841.480183 29.054891 840.819911 34.483224 
Q 840.159638 39.898054 840.159638 49.985031 
Q 840.159638 59.977485 840.796148 65.432824 
Q 841.432657 70.874661 842.603835 70.874661 
Q 842.922938 70.874661 843.196213 70.564085 
Q 843.469488 70.240005 843.68675 69.564839 
L 843.68675 57.330835 
L 842.439191 57.330835 
L 842.439191 46.433659 
L 845.621739 46.433659 
L 845.621739 76.7351 
z
" clip-path="url(#p26a85d521e)" style="fill: #ffa600"/>
   </g>
   <g id="patch_117">
    <path d="M 851.2666 107.961114 
L 848.353909 107.961114 
L 847.894011 128.16 
L 846.02035 128.16 
L 848.696123 17.28 
L 850.918192 17.28 
L 853.593965 128.16 
L 851.721853 128.16 
L 851.2666 107.961114 
z
M 848.818453 87.382015 
L 850.79741 87.382015 
L 849.80948 43.277154 
L 848.818453 87.382015 
z
" clip-path="url(#p26a85d521e)" style="fill: #008000"/>
   </g>
   <g id="patch_118">
    <path d="M 859.238826 107.961114 
L 856.326135 107.961114 
L 855.866237 128.16 
L 853.992576 128.16 
L 856.668349 17.28 
L 858.890418 17.28 
L 861.566191 128.16 
L 859.694079 128.16 
L 859.238826 107.961114 
z
M 856.790679 87.382015 
L 858.769637 87.382015 
L 857.781706 43.277154 
L 856.790679 87.382015 
z
" clip-path="url(#p26a85d521e)" style="fill: #008000"/>
   </g>
   <g id="patch_119">
    <path d="M 867.211052 107.961114 
L 864.298361 107.961114 
L 863.838463 128.16 
L 861.964802 128.16 
L 864.640576 17.28 
L 866.862644 17.28 
L 869.538417 128.16 
L 867.666305 128.16 
L 867.211052 107.961114 
z
M 864.762905 87.382015 
L 866.741863 87.382015 
L 865.753933 43.277154 
L 864.762905 87.382015 
z
" clip-path="url(#p26a85d521e)" style="fill: #008000"/>
   </g>
   <g id="patch_120">
    <path d="M 875.183278 128.009262 
L 872.270588 128.009262 
L 871.810689 128.16 
L 869.937029 128.16 
L 872.612802 127.332537 
L 874.83487 127.332537 
L 877.510643 128.16 
L 875.638531 128.16 
L 875.183278 128.009262 
z
M 872.735132 127.855687 
L 874.714089 127.855687 
L 873.726159 127.526546 
L 872.735132 127.855687 
z
" clip-path="url(#p26a85d521e)" style="fill: #008000"/>
   </g>
   <g id="patch_121">
    <path d="M 869.937029 126.505075 
L 877.510643 126.505075 
L 877.510643 126.666453 
L 874.785903 126.666453 
L 874.785903 127.332537 
L 872.667052 127.332537 
L 872.667052 126.666453 
L 869.937029 126.666453 
L 869.937029 126.505075 
z
" clip-path="url(#p26a85d521e)" style="fill: #ff0000"/>
   </g>
   <g id="patch_122">
    <path d="M 877.510643 116.622699 
Q 876.746832 121.563887 875.92531 124.045762 
Q 875.103789 126.505075 874.227951 126.505075 
Q 872.248831 126.505075 871.09293 111.794323 
Q 869.937029 97.083571 869.937029 71.926381 
Q 869.937029 46.475878 871.113298 31.877939 
Q 872.291265 17.28 874.339977 17.28 
Q 875.129249 17.28 875.852324 19.2655 
Q 876.577096 21.228438 877.218698 25.109188 
L 877.218698 46.882003 
Q 876.556728 41.89569 875.901547 39.436377 
Q 875.246367 36.954502 874.587792 36.954502 
Q 873.369088 36.954502 872.708815 46.024628 
Q 872.048543 55.072192 872.048543 71.926381 
Q 872.048543 88.622633 872.685052 97.737884 
Q 873.321562 106.830572 874.492739 106.830572 
Q 874.811843 106.830572 875.085118 106.311635 
Q 875.358392 105.770135 875.575654 104.64201 
L 875.575654 84.200382 
L 874.328096 84.200382 
L 874.328096 65.992443 
L 877.510643 65.992443 
L 877.510643 116.622699 
z
" clip-path="url(#p26a85d521e)" style="fill: #ffa600"/>
   </g>
   <g id="patch_123">
    <path d="M 885.482869 128.085134 
Q 884.719058 128.122567 883.897536 128.141369 
Q 883.076015 128.16 882.200178 128.16 
Q 880.221057 128.16 879.065156 128.048555 
Q 877.909255 127.93711 877.909255 127.746525 
Q 877.909255 127.553718 879.085524 127.443128 
Q 880.263491 127.332537 882.312203 127.332537 
Q 883.101475 127.332537 883.82455 127.347579 
Q 884.549322 127.36245 885.190924 127.391849 
L 885.190924 127.556795 
Q 884.528954 127.51902 883.873773 127.500389 
Q 883.218593 127.481587 882.560018 127.481587 
Q 881.341314 127.481587 880.681041 127.5503 
Q 880.020769 127.618842 880.020769 127.746525 
Q 880.020769 127.873012 880.657278 127.942067 
Q 881.293788 128.010951 882.464966 128.010951 
Q 882.784069 128.010951 883.057344 128.007019 
Q 883.330619 128.002917 883.54788 127.994371 
L 883.54788 127.83951 
L 882.300322 127.83951 
L 882.300322 127.701571 
L 885.482869 127.701571 
L 885.482869 128.085134 
z
" clip-path="url(#p26a85d521e)" style="fill: #ffa600"/>
   </g>
   <g id="patch_124">
    <path d="M 883.155504 126.880323 
L 880.242814 126.880323 
L 879.782915 127.332537 
L 877.909255 127.332537 
L 880.585028 124.850149 
L 882.807096 124.850149 
L 885.482869 127.332537 
L 883.610757 127.332537 
L 883.155504 126.880323 
z
M 880.707358 126.419597 
L 882.686315 126.419597 
L 881.698385 125.432175 
L 880.707358 126.419597 
z
" clip-path="url(#p26a85d521e)" style="fill: #008000"/>
   </g>
   <g id="patch_125">
    <path d="M 885.482869 122.062484 
Q 884.84935 123.444266 884.164309 124.143191 
Q 883.479268 124.850149 882.733164 124.850149 
Q 880.508212 124.850149 879.208734 119.61223 
Q 877.909255 114.374311 877.909255 105.416827 
Q 877.909255 96.427208 879.208734 91.197322 
Q 880.508212 85.959403 882.733164 85.959403 
Q 883.479268 85.959403 884.164309 86.666361 
Q 884.84935 87.365286 885.482869 88.747069 
L 885.482869 96.49951 
Q 884.843625 94.667845 884.223463 93.816282 
Q 883.6033 92.964718 882.918259 92.964718 
Q 881.689383 92.964718 880.98526 96.282603 
Q 880.283046 99.592453 880.283046 105.416827 
Q 880.283046 111.217099 880.98526 114.534983 
Q 881.689383 117.844834 882.918259 117.844834 
Q 883.6033 117.844834 884.223463 116.993271 
Q 884.843625 116.133673 885.482869 114.302008 
L 885.482869 122.062484 
z
" clip-path="url(#p26a85d521e)" style="fill: #0000ff"/>
   </g>
   <g id="patch_126">
    <path d="M 877.909255 17.28 
L 885.482869 17.28 
L 885.482869 30.674397 
L 882.758129 30.674397 
L 882.758129 85.959403 
L 880.639279 85.959403 
L 880.639279 30.674397 
L 877.909255 30.674397 
L 877.909255 17.28 
z
" clip-path="url(#p26a85d521e)" style="fill: #ff0000"/>
   </g>
   <g id="patch_127">
    <path d="M 893.455096 128.010267 
Q 892.691284 128.085134 891.869762 128.122738 
Q 891.048241 128.16 890.172404 128.16 
Q 888.193283 128.16 887.037382 127.93711 
Q 885.881481 127.71422 885.881481 127.33305 
Q 885.881481 126.947436 887.05775 126.726256 
Q 888.235717 126.505075 890.284429 126.505075 
Q 891.073701 126.505075 891.796776 126.535158 
Q 892.521548 126.564899 893.16315 126.623699 
L 893.16315 126.95359 
Q 892.50118 126.87804 891.845999 126.840777 
Q 891.190819 126.803173 890.532244 126.803173 
Q 889.31354 126.803173 888.653268 126.940599 
Q 887.992995 127.077684 887.992995 127.33305 
Q 887.992995 127.586024 888.629505 127.724133 
Q 889.266014 127.861901 890.437192 127.861901 
Q 890.756295 127.861901 891.02957 127.854039 
Q 891.302845 127.845834 891.520107 127.828741 
L 891.520107 127.51902 
L 890.272548 127.51902 
L 890.272548 127.243142 
L 893.455096 127.243142 
L 893.455096 128.010267 
z
" clip-path="url(#p26a85d521e)" style="fill: #ffa600"/>
   </g>
   <g id="patch_128">
    <path d="M 891.12773 123.791791 
L 888.21504 123.791791 
L 887.755141 126.505075 
L 885.881481 126.505075 
L 888.557254 111.610746 
L 890.779322 111.610746 
L 893.455096 126.505075 
L 891.582983 126.505075 
L 891.12773 123.791791 
z
M 888.679584 121.027435 
L 890.658541 121.027435 
L 889.670611 115.102901 
L 888.679584 121.027435 
z
" clip-path="url(#p26a85d521e)" style="fill: #008000"/>
   </g>
   <g id="patch_129">
    <path d="M 885.881481 17.28 
L 893.455096 17.28 
L 893.455096 35.677124 
L 890.730356 35.677124 
L 890.730356 111.610746 
L 888.611505 111.610746 
L 888.611505 35.677124 
L 885.881481 35.677124 
L 885.881481 17.28 
z
" clip-path="url(#p26a85d521e)" style="fill: #ff0000"/>
   </g>
   <g id="patch_130">
    <path d="M 901.427322 118.127891 
Q 900.66351 123.143945 899.841989 125.663425 
Q 899.020467 128.16 898.14463 128.16 
Q 896.165509 128.16 895.009608 113.226358 
Q 893.853707 98.292716 893.853707 72.754357 
Q 893.853707 46.91824 895.029976 32.09912 
Q 896.207943 17.28 898.256655 17.28 
Q 899.045927 17.28 899.769002 19.295584 
Q 900.493774 21.288263 901.135376 25.227812 
L 901.135376 47.330518 
Q 900.473406 42.268655 899.818226 39.77208 
Q 899.163045 37.252601 898.50447 37.252601 
Q 897.285766 37.252601 896.625494 46.460153 
Q 895.965221 55.644801 895.965221 72.754357 
Q 895.965221 89.703582 896.601731 98.956943 
Q 897.23824 108.187399 898.409418 108.187399 
Q 898.728521 108.187399 899.001796 107.660599 
Q 899.275071 107.110894 899.492333 105.965677 
L 899.492333 85.214328 
L 898.244774 85.214328 
L 898.244774 66.73051 
L 901.427322 66.73051 
L 901.427322 118.127891 
z
" clip-path="url(#p26a85d521e)" style="fill: #ffa600"/>
   </g>
   <g id="patch_131">
    <path d="M 901.825933 122.367761 
L 909.399548 122.367761 
L 909.399548 123.497409 
L 906.674808 123.497409 
L 906.674808 128.16 
L 904.555957 128.16 
L 904.555957 123.497409 
L 901.825933 123.497409 
L 901.825933 122.367761 
z
" clip-path="url(#p26a85d521e)" style="fill: #ff0000"/>
   </g>
   <g id="patch_132">
    <path d="M 909.399548 121.715329 
Q 908.766028 122.038725 908.080987 122.202303 
Q 907.395946 122.367761 906.649843 122.367761 
Q 904.424891 122.367761 903.125412 121.141865 
Q 901.825933 119.915969 901.825933 117.819537 
Q 901.825933 115.715583 903.125412 114.491568 
Q 904.424891 113.265672 906.649843 113.265672 
Q 907.395946 113.265672 908.080987 113.43113 
Q 908.766028 113.594708 909.399548 113.918104 
L 909.399548 115.732505 
Q 908.760303 115.303818 908.140141 115.104516 
Q 907.519978 114.905213 906.834937 114.905213 
Q 905.606062 114.905213 904.901939 115.68174 
Q 904.199724 116.456386 904.199724 117.819537 
Q 904.199724 119.177047 904.901939 119.953573 
Q 905.606062 120.728219 906.834937 120.728219 
Q 907.519978 120.728219 908.140141 120.528917 
Q 908.760303 120.327735 909.399548 119.899047 
L 909.399548 121.715329 
z
" clip-path="url(#p26a85d521e)" style="fill: #0000ff"/>
   </g>
   <g id="patch_133">
    <path d="M 907.072183 108.592795 
L 904.159492 108.592795 
L 903.699594 113.265672 
L 901.825933 113.265672 
L 904.501706 87.614328 
L 906.723775 87.614328 
L 909.399548 113.265672 
L 907.527436 113.265672 
L 907.072183 108.592795 
z
M 904.624036 103.831959 
L 906.602993 103.831959 
L 905.615063 93.628595 
L 904.624036 103.831959 
z
" clip-path="url(#p26a85d521e)" style="fill: #008000"/>
   </g>
   <g id="patch_134">
    <path d="M 909.399548 82.223941 
Q 908.635736 84.919135 907.814215 86.272885 
Q 906.992693 87.614328 906.116856 87.614328 
Q 904.137736 87.614328 902.981834 79.590282 
Q 901.825933 71.566236 901.825933 57.844132 
Q 901.825933 43.962039 903.002203 35.999527 
Q 904.18017 28.037015 906.228882 28.037015 
Q 907.018153 28.037015 907.741228 29.120015 
Q 908.466 30.190708 909.107602 32.307481 
L 909.107602 44.183562 
Q 908.445632 41.463755 907.790452 40.122312 
Q 907.135271 38.768562 906.476696 38.768562 
Q 905.257992 38.768562 904.59772 43.715903 
Q 903.937447 48.650938 903.937447 57.844132 
Q 903.937447 66.951178 904.573957 71.923133 
Q 905.210466 76.882782 906.381644 76.882782 
Q 906.700747 76.882782 906.974022 76.599725 
Q 907.247297 76.304361 907.464559 75.68902 
L 907.464559 64.539042 
L 906.217 64.539042 
L 906.217 54.607438 
L 909.399548 54.607438 
L 909.399548 82.223941 
z
" clip-path="url(#p26a85d521e)" style="fill: #ffa600"/>
   </g>
   <g id="patch_135">
    <path d="M 915.044409 124.994503 
L 912.131718 124.994503 
L 911.67182 128.16 
L 909.798159 128.16 
L 912.473932 110.783284 
L 914.696001 110.783284 
L 917.371774 128.16 
L 915.499662 128.16 
L 915.044409 124.994503 
z
M 912.596262 121.76942 
L 914.575219 121.76942 
L 913.587289 114.857464 
L 912.596262 121.76942 
z
" clip-path="url(#p26a85d521e)" style="fill: #008000"/>
   </g>
   <g id="patch_136">
    <path d="M 909.798159 92.579104 
L 917.371774 92.579104 
L 917.371774 96.129427 
L 914.647034 96.129427 
L 914.647034 110.783284 
L 912.528183 110.783284 
L 912.528183 96.129427 
L 909.798159 96.129427 
L 909.798159 92.579104 
z
" clip-path="url(#p26a85d521e)" style="fill: #ff0000"/>
   </g>
   <g id="patch_137">
    <path d="M 917.371774 90.407976 
Q 916.607962 91.49354 915.786441 92.038801 
Q 914.964919 92.579104 914.089082 92.579104 
Q 912.109962 92.579104 910.95406 89.347197 
Q 909.798159 86.115289 909.798159 80.588331 
Q 909.798159 74.996933 910.974429 71.78981 
Q 912.152396 68.582687 914.201108 68.582687 
Q 914.99038 68.582687 915.713454 69.018895 
Q 916.438227 69.450146 917.079828 70.302736 
L 917.079828 75.086157 
Q 916.417858 73.990679 915.762678 73.450376 
Q 915.107497 72.905115 914.448922 72.905115 
Q 913.230219 72.905115 912.569946 74.897794 
Q 911.909673 76.885517 911.909673 80.588331 
Q 911.909673 84.256447 912.546183 86.25904 
Q 913.182692 88.256676 914.35387 88.256676 
Q 914.672973 88.256676 914.946248 88.142667 
Q 915.219523 88.023701 915.436785 87.775855 
L 915.436785 83.284892 
L 914.189226 83.284892 
L 914.189226 79.284663 
L 917.371774 79.284663 
L 917.371774 90.407976 
z
" clip-path="url(#p26a85d521e)" style="fill: #ffa600"/>
   </g>
   <g id="patch_138">
    <path d="M 917.371774 65.676397 
Q 916.738254 67.116979 916.053213 67.845645 
Q 915.368172 68.582687 914.622069 68.582687 
Q 912.397117 68.582687 911.097638 63.121877 
Q 909.798159 57.661068 909.798159 48.322414 
Q 909.798159 38.950258 911.097638 33.497824 
Q 912.397117 28.037015 914.622069 28.037015 
Q 915.368172 28.037015 916.053213 28.774057 
Q 916.738254 29.502723 917.371774 30.943305 
L 917.371774 39.025637 
Q 916.73253 37.116029 916.112367 36.228229 
Q 915.492205 35.340429 914.807164 35.340429 
Q 913.578288 35.340429 912.874165 38.7995 
Q 912.17195 42.250195 912.17195 48.322414 
Q 912.17195 54.369506 912.874165 57.828577 
Q 913.578288 61.279273 914.807164 61.279273 
Q 915.492205 61.279273 916.112367 60.391473 
Q 916.73253 59.495297 917.371774 57.585689 
L 917.371774 65.676397 
z
" clip-path="url(#p26a85d521e)" style="fill: #0000ff"/>
   </g>
   <g id="patch_139">
    <path d="M 925.344 126.737537 
Q 924.580189 127.448768 923.758667 127.806008 
Q 922.937145 128.16 922.061308 128.16 
Q 920.082188 128.16 918.926287 126.042543 
Q 917.770385 123.925087 917.770385 120.303976 
Q 917.770385 116.640646 918.946655 114.539427 
Q 920.124622 112.438209 922.173334 112.438209 
Q 922.962606 112.438209 923.68568 112.724001 
Q 924.410453 113.006545 925.052054 113.565138 
L 925.052054 116.699103 
Q 924.390084 115.981376 923.734904 115.627384 
Q 923.079723 115.270145 922.421148 115.270145 
Q 921.202445 115.270145 920.542172 116.575693 
Q 919.881899 117.877994 919.881899 120.303976 
Q 919.881899 122.707224 920.518409 124.019268 
Q 921.154919 125.328064 922.326096 125.328064 
Q 922.6452 125.328064 922.918474 125.253369 
Q 923.191749 125.175425 923.409011 125.013044 
L 923.409011 122.070688 
L 922.161452 122.070688 
L 922.161452 119.449848 
L 925.344 119.449848 
L 925.344 126.737537 
z
" clip-path="url(#p26a85d521e)" style="fill: #ffa600"/>
   </g>
   <g id="patch_140">
    <path d="M 925.344 111.133344 
Q 924.71048 111.780136 924.025439 112.107292 
Q 923.340398 112.438209 922.594295 112.438209 
Q 920.369343 112.438209 919.069864 109.986417 
Q 917.770385 107.534625 917.770385 103.34176 
Q 917.770385 99.133853 919.069864 96.685822 
Q 920.369343 94.23403 922.594295 94.23403 
Q 923.340398 94.23403 924.025439 94.564947 
Q 924.71048 94.892103 925.344 95.538895 
L 925.344 99.167697 
Q 924.704756 98.310322 924.084593 97.911718 
Q 923.464431 97.513114 922.77939 97.513114 
Q 921.550514 97.513114 920.846391 99.066166 
Q 920.144176 100.615458 920.144176 103.34176 
Q 920.144176 106.056781 920.846391 107.609833 
Q 921.550514 109.159125 922.77939 109.159125 
Q 923.464431 109.159125 924.084593 108.760521 
Q 924.704756 108.358156 925.344 107.500781 
L 925.344 111.133344 
z
" clip-path="url(#p26a85d521e)" style="fill: #0000ff"/>
   </g>
   <g id="patch_141">
    <path d="M 923.016635 88.35525 
L 920.103944 88.35525 
L 919.644046 94.23403 
L 917.770385 94.23403 
L 920.446158 61.962985 
L 922.668227 61.962985 
L 925.344 94.23403 
L 923.471888 94.23403 
L 923.016635 88.35525 
z
M 920.568488 82.36581 
L 922.547445 82.36581 
L 921.559515 69.529321 
L 920.568488 82.36581 
z
" clip-path="url(#p26a85d521e)" style="fill: #008000"/>
   </g>
   <g id="patch_142">
    <path d="M 917.770385 28.037015 
L 925.344 28.037015 
L 925.344 34.653524 
L 922.61926 34.653524 
L 922.61926 61.962985 
L 920.500409 61.962985 
L 920.500409 34.653524 
L 917.770385 34.653524 
L 917.770385 28.037015 
z
" clip-path="url(#p26a85d521e)" style="fill: #ff0000"/>
   </g>
  </g>
 </g>
 <defs>
  <clipPath id="p26a85d521e">
   <rect x="128.52" y="17.28" width="796.824" height="110.88"/>
  </clipPath>
 </defs>
</svg>
