<?xml version="1.0" encoding="utf-8" standalone="no"?>
<!DOCTYPE svg PUBLIC "-//W3C//DTD SVG 1.1//EN"
  "http://www.w3.org/Graphics/SVG/1.1/DTD/svg11.dtd">
<svg xmlns:xlink="http://www.w3.org/1999/xlink" width="1028.16pt" height="144pt" viewBox="0 0 1028.16 144" xmlns="http://www.w3.org/2000/svg" version="1.1">
 <metadata>
  <rdf:RDF xmlns:dc="http://purl.org/dc/elements/1.1/" xmlns:cc="http://creativecommons.org/ns#" xmlns:rdf="http://www.w3.org/1999/02/22-rdf-syntax-ns#">
   <cc:Work>
    <dc:type rdf:resource="http://purl.org/dc/dcmitype/StillImage"/>
    <dc:date>2024-11-11T17:06:40.511416</dc:date>
    <dc:format>image/svg+xml</dc:format>
    <dc:creator>
     <cc:Agent>
      <dc:title>Matplotlib v3.9.2, https://matplotlib.org/</dc:title>
     </cc:Agent>
    </dc:creator>
   </cc:Work>
  </rdf:RDF>
 </metadata>
 <defs>
  <style type="text/css">*{stroke-linejoin: round; stroke-linecap: butt}</style>
 </defs>
 <g id="figure_1">
  <g id="patch_1">
   <path d="M 0 144 
L 1028.16 144 
L 1028.16 0 
L 0 0 
z
" style="fill: #ffffff"/>
  </g>
  <g id="axes_1">
   <g id="line2d_1">
    <path d="M 128.52 128.16 
L 925.344 128.16 
" clip-path="url(#pdaf0eccc06)" style="fill: none; stroke: #000000; stroke-width: 0.5; stroke-linecap: square"/>
   </g>
   <g id="patch_2">
    <path d="M 136.093615 127.443421 
Q 135.329803 127.80171 134.508282 127.981673 
Q 133.68676 128.16 132.810923 128.16 
Q 130.831803 128.16 129.675901 127.093311 
Q 128.52 126.026623 128.52 124.202454 
Q 128.52 122.357017 129.69627 121.298509 
Q 130.874237 120.24 132.922949 120.24 
Q 133.71222 120.24 134.435295 120.38397 
Q 135.160067 120.526304 135.801669 120.807701 
L 135.801669 122.386466 
Q 135.139699 122.024904 134.484519 121.846577 
Q 133.829338 121.666614 133.170763 121.666614 
Q 131.952059 121.666614 131.291787 122.324297 
Q 130.631514 122.980343 130.631514 124.202454 
Q 130.631514 125.413113 131.268024 126.074067 
Q 131.904533 126.733386 133.075711 126.733386 
Q 133.394814 126.733386 133.668089 126.695757 
Q 133.941364 126.656492 134.158626 126.574691 
L 134.158626 125.092452 
L 132.911067 125.092452 
L 132.911067 123.772179 
L 136.093615 123.772179 
L 136.093615 127.443421 
z
" clip-path="url(#pdaf0eccc06)" style="fill: #ffa600"/>
   </g>
   <g id="patch_3">
    <path d="M 136.093615 112.859888 
Q 135.460095 116.518042 134.775054 118.368387 
Q 134.090013 120.24 133.34391 120.24 
Q 131.118958 120.24 129.819479 106.373047 
Q 128.52 92.506094 128.52 68.791902 
Q 128.52 44.992638 129.819479 31.146953 
Q 131.118958 17.28 133.34391 17.28 
Q 134.090013 17.28 134.775054 19.151613 
Q 135.460095 21.001958 136.093615 24.660112 
L 136.093615 45.184053 
Q 135.45437 40.334873 134.834208 38.08043 
Q 134.214045 35.825986 133.529005 35.825986 
Q 132.300129 35.825986 131.596006 44.609808 
Q 130.893791 53.372361 130.893791 68.791902 
Q 130.893791 84.147639 131.596006 92.93146 
Q 132.300129 101.694014 133.529005 101.694014 
Q 134.214045 101.694014 134.834208 99.43957 
Q 135.45437 97.163859 136.093615 92.314679 
L 136.093615 112.859888 
z
" clip-path="url(#pdaf0eccc06)" style="fill: #0000ff"/>
   </g>
   <g id="patch_4">
    <path d="M 144.065841 127.92114 
Q 143.302029 128.04057 142.480508 128.100558 
Q 141.658986 128.16 140.783149 128.16 
Q 138.804029 128.16 137.648127 127.804437 
Q 136.492226 127.448874 136.492226 126.840818 
Q 136.492226 126.225672 137.668496 125.872836 
Q 138.846463 125.52 140.895175 125.52 
Q 141.684447 125.52 142.407521 125.56799 
Q 143.132294 125.615435 143.773895 125.709234 
L 143.773895 126.235489 
Q 143.111925 126.114968 142.456745 126.055526 
Q 141.801564 125.995538 141.142989 125.995538 
Q 139.924286 125.995538 139.264013 126.214766 
Q 138.60374 126.433448 138.60374 126.840818 
Q 138.60374 127.244371 139.24025 127.464689 
Q 139.876759 127.684462 141.047937 127.684462 
Q 141.36704 127.684462 141.640315 127.671919 
Q 141.91359 127.658831 142.130852 127.631564 
L 142.130852 127.137484 
L 140.883293 127.137484 
L 140.883293 126.697393 
L 144.065841 126.697393 
L 144.065841 127.92114 
z
" clip-path="url(#pdaf0eccc06)" style="fill: #ffa600"/>
   </g>
   <g id="patch_5">
    <path d="M 141.738476 105.80204 
L 138.825785 105.80204 
L 138.365887 125.52 
L 136.492226 125.52 
L 139.167999 17.28 
L 141.390068 17.28 
L 144.065841 125.52 
L 142.193729 125.52 
L 141.738476 105.80204 
z
M 139.290329 85.712919 
L 141.269286 85.712919 
L 140.281356 42.658174 
L 139.290329 85.712919 
z
" clip-path="url(#pdaf0eccc06)" style="fill: #008000"/>
   </g>
   <g id="patch_6">
    <path d="M 149.710702 107.961114 
L 146.798011 107.961114 
L 146.338113 128.16 
L 144.464452 128.16 
L 147.140225 17.28 
L 149.362294 17.28 
L 152.038067 128.16 
L 150.165955 128.16 
L 149.710702 107.961114 
z
M 147.262555 87.382015 
L 149.241512 87.382015 
L 148.253582 43.277154 
L 147.262555 87.382015 
z
" clip-path="url(#pdaf0eccc06)" style="fill: #008000"/>
   </g>
   <g id="patch_7">
    <path d="M 157.682928 107.961114 
L 154.770237 107.961114 
L 154.310339 128.16 
L 152.436678 128.16 
L 155.112451 17.28 
L 157.33452 17.28 
L 160.010293 128.16 
L 158.138181 128.16 
L 157.682928 107.961114 
z
M 155.234781 87.382015 
L 157.213739 87.382015 
L 156.225808 43.277154 
L 155.234781 87.382015 
z
" clip-path="url(#pdaf0eccc06)" style="fill: #008000"/>
   </g>
   <g id="patch_8">
    <path d="M 160.408904 17.28 
L 167.982519 17.28 
L 167.982519 38.904689 
L 165.257779 38.904689 
L 165.257779 128.16 
L 163.138928 128.16 
L 163.138928 38.904689 
L 160.408904 38.904689 
L 160.408904 17.28 
z
" clip-path="url(#pdaf0eccc06)" style="fill: #ff0000"/>
   </g>
   <g id="patch_9">
    <path d="M 173.62738 107.961114 
L 170.71469 107.961114 
L 170.254791 128.16 
L 168.381131 128.16 
L 171.056904 17.28 
L 173.278972 17.28 
L 175.954745 128.16 
L 174.082633 128.16 
L 173.62738 107.961114 
z
M 171.179234 87.382015 
L 173.158191 87.382015 
L 172.170261 43.277154 
L 171.179234 87.382015 
z
" clip-path="url(#pdaf0eccc06)" style="fill: #008000"/>
   </g>
   <g id="patch_10">
    <path d="M 181.599606 107.961114 
L 178.686916 107.961114 
L 178.227017 128.16 
L 176.353357 128.16 
L 179.02913 17.28 
L 181.251198 17.28 
L 183.926971 128.16 
L 182.054859 128.16 
L 181.599606 107.961114 
z
M 179.15146 87.382015 
L 181.130417 87.382015 
L 180.142487 43.277154 
L 179.15146 87.382015 
z
" clip-path="url(#pdaf0eccc06)" style="fill: #008000"/>
   </g>
   <g id="patch_11">
    <path d="M 184.325583 17.28 
L 191.899198 17.28 
L 191.899198 38.904689 
L 189.174458 38.904689 
L 189.174458 128.16 
L 187.055607 128.16 
L 187.055607 38.904689 
L 184.325583 38.904689 
L 184.325583 17.28 
z
" clip-path="url(#pdaf0eccc06)" style="fill: #ff0000"/>
   </g>
   <g id="patch_12">
    <path d="M 199.871424 118.127891 
Q 199.107612 123.143945 198.286091 125.663425 
Q 197.464569 128.16 196.588732 128.16 
Q 194.609612 128.16 193.45371 113.226358 
Q 192.297809 98.292716 192.297809 72.754357 
Q 192.297809 46.91824 193.474079 32.09912 
Q 194.652046 17.28 196.700758 17.28 
Q 197.490029 17.28 198.213104 19.295584 
Q 198.937876 21.288263 199.579478 25.227812 
L 199.579478 47.330518 
Q 198.917508 42.268655 198.262328 39.77208 
Q 197.607147 37.252601 196.948572 37.252601 
Q 195.729868 37.252601 195.069596 46.460153 
Q 194.409323 55.644801 194.409323 72.754357 
Q 194.409323 89.703582 195.045833 98.956943 
Q 195.682342 108.187399 196.85352 108.187399 
Q 197.172623 108.187399 197.445898 107.660599 
Q 197.719173 107.110894 197.936435 105.965677 
L 197.936435 85.214328 
L 196.688876 85.214328 
L 196.688876 66.73051 
L 199.871424 66.73051 
L 199.871424 118.127891 
z
" clip-path="url(#pdaf0eccc06)" style="fill: #ffa600"/>
   </g>
   <g id="patch_13">
    <path d="M 205.516285 107.961114 
L 202.603594 107.961114 
L 202.143696 128.16 
L 200.270035 128.16 
L 202.945808 17.28 
L 205.167877 17.28 
L 207.84365 128.16 
L 205.971538 128.16 
L 205.516285 107.961114 
z
M 203.068138 87.382015 
L 205.047095 87.382015 
L 204.059165 43.277154 
L 203.068138 87.382015 
z
" clip-path="url(#pdaf0eccc06)" style="fill: #008000"/>
   </g>
   <g id="patch_14">
    <path d="M 208.242261 17.28 
L 215.815876 17.28 
L 215.815876 38.904689 
L 213.091136 38.904689 
L 213.091136 128.16 
L 210.972285 128.16 
L 210.972285 38.904689 
L 208.242261 38.904689 
L 208.242261 17.28 
z
" clip-path="url(#pdaf0eccc06)" style="fill: #ff0000"/>
   </g>
   <g id="patch_15">
    <path d="M 216.214487 17.28 
L 223.788102 17.28 
L 223.788102 38.904689 
L 221.063362 38.904689 
L 221.063362 128.16 
L 218.944511 128.16 
L 218.944511 38.904689 
L 216.214487 38.904689 
L 216.214487 17.28 
z
" clip-path="url(#pdaf0eccc06)" style="fill: #ff0000"/>
   </g>
   <g id="patch_16">
    <path d="M 224.186713 17.28 
L 231.760328 17.28 
L 231.760328 38.904689 
L 229.035588 38.904689 
L 229.035588 128.16 
L 226.916737 128.16 
L 226.916737 38.904689 
L 224.186713 38.904689 
L 224.186713 17.28 
z
" clip-path="url(#pdaf0eccc06)" style="fill: #ff0000"/>
   </g>
   <g id="patch_17">
    <path d="M 232.158939 17.28 
L 239.732554 17.28 
L 239.732554 38.904689 
L 237.007814 38.904689 
L 237.007814 128.16 
L 234.888963 128.16 
L 234.888963 38.904689 
L 232.158939 38.904689 
L 232.158939 17.28 
z
" clip-path="url(#pdaf0eccc06)" style="fill: #ff0000"/>
   </g>
   <g id="patch_18">
    <path d="M 245.377415 107.961114 
L 242.464725 107.961114 
L 242.004826 128.16 
L 240.131166 128.16 
L 242.806939 17.28 
L 245.029007 17.28 
L 247.70478 128.16 
L 245.832668 128.16 
L 245.377415 107.961114 
z
M 242.929269 87.382015 
L 244.908226 87.382015 
L 243.920296 43.277154 
L 242.929269 87.382015 
z
" clip-path="url(#pdaf0eccc06)" style="fill: #008000"/>
   </g>
   <g id="patch_19">
    <path d="M 248.103392 17.28 
L 255.677007 17.28 
L 255.677007 38.904689 
L 252.952266 38.904689 
L 252.952266 128.16 
L 250.833416 128.16 
L 250.833416 38.904689 
L 248.103392 38.904689 
L 248.103392 17.28 
z
" clip-path="url(#pdaf0eccc06)" style="fill: #ff0000"/>
   </g>
   <g id="patch_20">
    <path d="M 256.075618 17.28 
L 263.649233 17.28 
L 263.649233 38.904689 
L 260.924493 38.904689 
L 260.924493 128.16 
L 258.805642 128.16 
L 258.805642 38.904689 
L 256.075618 38.904689 
L 256.075618 17.28 
z
" clip-path="url(#pdaf0eccc06)" style="fill: #ff0000"/>
   </g>
   <g id="patch_21">
    <path d="M 264.047844 17.28 
L 271.621459 17.28 
L 271.621459 38.904689 
L 268.896719 38.904689 
L 268.896719 128.16 
L 266.777868 128.16 
L 266.777868 38.904689 
L 264.047844 38.904689 
L 264.047844 17.28 
z
" clip-path="url(#pdaf0eccc06)" style="fill: #ff0000"/>
   </g>
   <g id="patch_22">
    <path d="M 272.02007 17.28 
L 279.593685 17.28 
L 279.593685 38.904689 
L 276.868945 38.904689 
L 276.868945 128.16 
L 274.750094 128.16 
L 274.750094 38.904689 
L 272.02007 38.904689 
L 272.02007 17.28 
z
" clip-path="url(#pdaf0eccc06)" style="fill: #ff0000"/>
   </g>
   <g id="patch_23">
    <path d="M 287.565911 118.127891 
Q 286.8021 123.143945 285.980578 125.663425 
Q 285.159056 128.16 284.283219 128.16 
Q 282.304099 128.16 281.148197 113.226358 
Q 279.992296 98.292716 279.992296 72.754357 
Q 279.992296 46.91824 281.168566 32.09912 
Q 282.346533 17.28 284.395245 17.28 
Q 285.184517 17.28 285.907591 19.295584 
Q 286.632364 21.288263 287.273965 25.227812 
L 287.273965 47.330518 
Q 286.611995 42.268655 285.956815 39.77208 
Q 285.301634 37.252601 284.643059 37.252601 
Q 283.424356 37.252601 282.764083 46.460153 
Q 282.10381 55.644801 282.10381 72.754357 
Q 282.10381 89.703582 282.74032 98.956943 
Q 283.37683 108.187399 284.548007 108.187399 
Q 284.867111 108.187399 285.140385 107.660599 
Q 285.41366 107.110894 285.630922 105.965677 
L 285.630922 85.214328 
L 284.383363 85.214328 
L 284.383363 66.73051 
L 287.565911 66.73051 
L 287.565911 118.127891 
z
" clip-path="url(#pdaf0eccc06)" style="fill: #ffa600"/>
   </g>
   <g id="patch_24">
    <path d="M 293.210772 107.961114 
L 290.298081 107.961114 
L 289.838183 128.16 
L 287.964522 128.16 
L 290.640295 17.28 
L 292.862364 17.28 
L 295.538137 128.16 
L 293.666025 128.16 
L 293.210772 107.961114 
z
M 290.762625 87.382015 
L 292.741583 87.382015 
L 291.753652 43.277154 
L 290.762625 87.382015 
z
" clip-path="url(#pdaf0eccc06)" style="fill: #008000"/>
   </g>
   <g id="patch_25">
    <path d="M 303.510363 120.212188 
Q 302.876843 124.151737 302.191802 126.144416 
Q 301.506761 128.16 300.760658 128.16 
Q 298.535706 128.16 297.236227 113.226358 
Q 295.936748 98.292716 295.936748 72.754357 
Q 295.936748 47.124379 297.236227 32.213642 
Q 298.535706 17.28 300.760658 17.28 
Q 301.506761 17.28 302.191802 19.295584 
Q 302.876843 21.288263 303.510363 25.227812 
L 303.510363 47.330518 
Q 302.871119 42.108325 302.250956 39.680463 
Q 301.630794 37.252601 300.945753 37.252601 
Q 299.716877 37.252601 299.012754 46.712101 
Q 298.310539 56.148697 298.310539 72.754357 
Q 298.310539 89.291303 299.012754 98.750804 
Q 299.716877 108.187399 300.945753 108.187399 
Q 301.630794 108.187399 302.250956 105.759537 
Q 302.871119 103.308771 303.510363 98.086577 
L 303.510363 120.212188 
z
" clip-path="url(#pdaf0eccc06)" style="fill: #0000ff"/>
   </g>
   <g id="patch_26">
    <path d="M 303.908974 17.28 
L 311.482589 17.28 
L 311.482589 38.904689 
L 308.757849 38.904689 
L 308.757849 128.16 
L 306.638998 128.16 
L 306.638998 38.904689 
L 303.908974 38.904689 
L 303.908974 17.28 
z
" clip-path="url(#pdaf0eccc06)" style="fill: #ff0000"/>
   </g>
   <g id="patch_27">
    <path d="M 319.454815 118.127891 
Q 318.691004 123.143945 317.869482 125.663425 
Q 317.047961 128.16 316.172124 128.16 
Q 314.193003 128.16 313.037102 113.226358 
Q 311.881201 98.292716 311.881201 72.754357 
Q 311.881201 46.91824 313.05747 32.09912 
Q 314.235437 17.28 316.284149 17.28 
Q 317.073421 17.28 317.796496 19.295584 
Q 318.521268 21.288263 319.16287 25.227812 
L 319.16287 47.330518 
Q 318.5009 42.268655 317.845719 39.77208 
Q 317.190539 37.252601 316.531964 37.252601 
Q 315.31326 37.252601 314.652987 46.460153 
Q 313.992715 55.644801 313.992715 72.754357 
Q 313.992715 89.703582 314.629224 98.956943 
Q 315.265734 108.187399 316.436912 108.187399 
Q 316.756015 108.187399 317.02929 107.660599 
Q 317.302564 107.110894 317.519826 105.965677 
L 317.519826 85.214328 
L 316.272268 85.214328 
L 316.272268 66.73051 
L 319.454815 66.73051 
L 319.454815 118.127891 
z
" clip-path="url(#pdaf0eccc06)" style="fill: #ffa600"/>
   </g>
   <g id="patch_28">
    <path d="M 325.099676 107.961114 
L 322.186986 107.961114 
L 321.727087 128.16 
L 319.853427 128.16 
L 322.5292 17.28 
L 324.751268 17.28 
L 327.427042 128.16 
L 325.554929 128.16 
L 325.099676 107.961114 
z
M 322.65153 87.382015 
L 324.630487 87.382015 
L 323.642557 43.277154 
L 322.65153 87.382015 
z
" clip-path="url(#pdaf0eccc06)" style="fill: #008000"/>
   </g>
   <g id="patch_29">
    <path d="M 327.825653 17.28 
L 335.399268 17.28 
L 335.399268 38.904689 
L 332.674528 38.904689 
L 332.674528 128.16 
L 330.555677 128.16 
L 330.555677 38.904689 
L 327.825653 38.904689 
L 327.825653 17.28 
z
" clip-path="url(#pdaf0eccc06)" style="fill: #ff0000"/>
   </g>
   <g id="patch_30">
    <path d="M 341.044129 107.961114 
L 338.131438 107.961114 
L 337.67154 128.16 
L 335.797879 128.16 
L 338.473652 17.28 
L 340.695721 17.28 
L 343.371494 128.16 
L 341.499382 128.16 
L 341.044129 107.961114 
z
M 338.595982 87.382015 
L 340.574939 87.382015 
L 339.587009 43.277154 
L 338.595982 87.382015 
z
" clip-path="url(#pdaf0eccc06)" style="fill: #008000"/>
   </g>
   <g id="patch_31">
    <path d="M 351.34372 118.127891 
Q 350.579908 123.143945 349.758387 125.663425 
Q 348.936865 128.16 348.061028 128.16 
Q 346.081908 128.16 344.926006 113.226358 
Q 343.770105 98.292716 343.770105 72.754357 
Q 343.770105 46.91824 344.946375 32.09912 
Q 346.124342 17.28 348.173054 17.28 
Q 348.962326 17.28 349.6854 19.295584 
Q 350.410173 21.288263 351.051774 25.227812 
L 351.051774 47.330518 
Q 350.389804 42.268655 349.734624 39.77208 
Q 349.079443 37.252601 348.420868 37.252601 
Q 347.202164 37.252601 346.541892 46.460153 
Q 345.881619 55.644801 345.881619 72.754357 
Q 345.881619 89.703582 346.518129 98.956943 
Q 347.154638 108.187399 348.325816 108.187399 
Q 348.644919 108.187399 348.918194 107.660599 
Q 349.191469 107.110894 349.408731 105.965677 
L 349.408731 85.214328 
L 348.161172 85.214328 
L 348.161172 66.73051 
L 351.34372 66.73051 
L 351.34372 118.127891 
z
" clip-path="url(#pdaf0eccc06)" style="fill: #ffa600"/>
   </g>
   <g id="patch_32">
    <path d="M 351.742331 17.28 
L 359.315946 17.28 
L 359.315946 38.904689 
L 356.591206 38.904689 
L 356.591206 128.16 
L 354.472355 128.16 
L 354.472355 38.904689 
L 351.742331 38.904689 
L 351.742331 17.28 
z
" clip-path="url(#pdaf0eccc06)" style="fill: #ff0000"/>
   </g>
   <g id="patch_33">
    <path d="M 367.288172 118.127891 
Q 366.524361 123.143945 365.702839 125.663425 
Q 364.881317 128.16 364.00548 128.16 
Q 362.02636 128.16 360.870459 113.226358 
Q 359.714557 98.292716 359.714557 72.754357 
Q 359.714557 46.91824 360.890827 32.09912 
Q 362.068794 17.28 364.117506 17.28 
Q 364.906778 17.28 365.629853 19.295584 
Q 366.354625 21.288263 366.996226 25.227812 
L 366.996226 47.330518 
Q 366.334256 42.268655 365.679076 39.77208 
Q 365.023895 37.252601 364.36532 37.252601 
Q 363.146617 37.252601 362.486344 46.460153 
Q 361.826072 55.644801 361.826072 72.754357 
Q 361.826072 89.703582 362.462581 98.956943 
Q 363.099091 108.187399 364.270268 108.187399 
Q 364.589372 108.187399 364.862646 107.660599 
Q 365.135921 107.110894 365.353183 105.965677 
L 365.353183 85.214328 
L 364.105624 85.214328 
L 364.105624 66.73051 
L 367.288172 66.73051 
L 367.288172 118.127891 
z
" clip-path="url(#pdaf0eccc06)" style="fill: #ffa600"/>
   </g>
   <g id="patch_34">
    <path d="M 372.933033 107.961114 
L 370.020342 107.961114 
L 369.560444 128.16 
L 367.686783 128.16 
L 370.362557 17.28 
L 372.584625 17.28 
L 375.260398 128.16 
L 373.388286 128.16 
L 372.933033 107.961114 
z
M 370.484886 87.382015 
L 372.463844 87.382015 
L 371.475914 43.277154 
L 370.484886 87.382015 
z
" clip-path="url(#pdaf0eccc06)" style="fill: #008000"/>
   </g>
   <g id="patch_35">
    <path d="M 383.232624 120.212188 
Q 382.599105 124.151737 381.914064 126.144416 
Q 381.229023 128.16 380.482919 128.16 
Q 378.257967 128.16 376.958488 113.226358 
Q 375.65901 98.292716 375.65901 72.754357 
Q 375.65901 47.124379 376.958488 32.213642 
Q 378.257967 17.28 380.482919 17.28 
Q 381.229023 17.28 381.914064 19.295584 
Q 382.599105 21.288263 383.232624 25.227812 
L 383.232624 47.330518 
Q 382.59338 42.108325 381.973217 39.680463 
Q 381.353055 37.252601 380.668014 37.252601 
Q 379.439138 37.252601 378.735015 46.712101 
Q 378.032801 56.148697 378.032801 72.754357 
Q 378.032801 89.291303 378.735015 98.750804 
Q 379.439138 108.187399 380.668014 108.187399 
Q 381.353055 108.187399 381.973217 105.759537 
Q 382.59338 103.308771 383.232624 98.086577 
L 383.232624 120.212188 
z
" clip-path="url(#pdaf0eccc06)" style="fill: #0000ff"/>
   </g>
   <g id="patch_36">
    <path d="M 391.20485 120.212188 
Q 390.571331 124.151737 389.88629 126.144416 
Q 389.201249 128.16 388.455145 128.16 
Q 386.230193 128.16 384.930715 113.226358 
Q 383.631236 98.292716 383.631236 72.754357 
Q 383.631236 47.124379 384.930715 32.213642 
Q 386.230193 17.28 388.455145 17.28 
Q 389.201249 17.28 389.88629 19.295584 
Q 390.571331 21.288263 391.20485 25.227812 
L 391.20485 47.330518 
Q 390.565606 42.108325 389.945444 39.680463 
Q 389.325281 37.252601 388.64024 37.252601 
Q 387.411364 37.252601 386.707241 46.712101 
Q 386.005027 56.148697 386.005027 72.754357 
Q 386.005027 89.291303 386.707241 98.750804 
Q 387.411364 108.187399 388.64024 108.187399 
Q 389.325281 108.187399 389.945444 105.759537 
Q 390.565606 103.308771 391.20485 98.086577 
L 391.20485 120.212188 
z
" clip-path="url(#pdaf0eccc06)" style="fill: #0000ff"/>
   </g>
   <g id="patch_37">
    <path d="M 391.603462 17.28 
L 399.177077 17.28 
L 399.177077 38.904689 
L 396.452337 38.904689 
L 396.452337 128.16 
L 394.333486 128.16 
L 394.333486 38.904689 
L 391.603462 38.904689 
L 391.603462 17.28 
z
" clip-path="url(#pdaf0eccc06)" style="fill: #ff0000"/>
   </g>
   <g id="patch_38">
    <path d="M 407.149303 118.127891 
Q 406.385491 123.143945 405.56397 125.663425 
Q 404.742448 128.16 403.866611 128.16 
Q 401.88749 128.16 400.731589 113.226358 
Q 399.575688 98.292716 399.575688 72.754357 
Q 399.575688 46.91824 400.751957 32.09912 
Q 401.929924 17.28 403.978636 17.28 
Q 404.767908 17.28 405.490983 19.295584 
Q 406.215755 21.288263 406.857357 25.227812 
L 406.857357 47.330518 
Q 406.195387 42.268655 405.540207 39.77208 
Q 404.885026 37.252601 404.226451 37.252601 
Q 403.007747 37.252601 402.347475 46.460153 
Q 401.687202 55.644801 401.687202 72.754357 
Q 401.687202 89.703582 402.323712 98.956943 
Q 402.960221 108.187399 404.131399 108.187399 
Q 404.450502 108.187399 404.723777 107.660599 
Q 404.997052 107.110894 405.214314 105.965677 
L 405.214314 85.214328 
L 403.966755 85.214328 
L 403.966755 66.73051 
L 407.149303 66.73051 
L 407.149303 118.127891 
z
" clip-path="url(#pdaf0eccc06)" style="fill: #ffa600"/>
   </g>
   <g id="patch_39">
    <path d="M 407.547914 17.28 
L 415.121529 17.28 
L 415.121529 38.904689 
L 412.396789 38.904689 
L 412.396789 128.16 
L 410.277938 128.16 
L 410.277938 38.904689 
L 407.547914 38.904689 
L 407.547914 17.28 
z
" clip-path="url(#pdaf0eccc06)" style="fill: #ff0000"/>
   </g>
   <g id="patch_40">
    <path d="M 415.52014 17.28 
L 423.093755 17.28 
L 423.093755 38.904689 
L 420.369015 38.904689 
L 420.369015 128.16 
L 418.250164 128.16 
L 418.250164 38.904689 
L 415.52014 38.904689 
L 415.52014 17.28 
z
" clip-path="url(#pdaf0eccc06)" style="fill: #ff0000"/>
   </g>
   <g id="patch_41">
    <path d="M 431.065981 120.212188 
Q 430.432461 124.151737 429.74742 126.144416 
Q 429.062379 128.16 428.316276 128.16 
Q 426.091324 128.16 424.791845 113.226358 
Q 423.492366 98.292716 423.492366 72.754357 
Q 423.492366 47.124379 424.791845 32.213642 
Q 426.091324 17.28 428.316276 17.28 
Q 429.062379 17.28 429.74742 19.295584 
Q 430.432461 21.288263 431.065981 25.227812 
L 431.065981 47.330518 
Q 430.426737 42.108325 429.806574 39.680463 
Q 429.186412 37.252601 428.501371 37.252601 
Q 427.272495 37.252601 426.568372 46.712101 
Q 425.866157 56.148697 425.866157 72.754357 
Q 425.866157 89.291303 426.568372 98.750804 
Q 427.272495 108.187399 428.501371 108.187399 
Q 429.186412 108.187399 429.806574 105.759537 
Q 430.426737 103.308771 431.065981 98.086577 
L 431.065981 120.212188 
z
" clip-path="url(#pdaf0eccc06)" style="fill: #0000ff"/>
   </g>
   <g id="patch_42">
    <path d="M 439.038207 118.127891 
Q 438.274396 123.143945 437.452874 125.663425 
Q 436.631352 128.16 435.755515 128.16 
Q 433.776395 128.16 432.620494 113.226358 
Q 431.464592 98.292716 431.464592 72.754357 
Q 431.464592 46.91824 432.640862 32.09912 
Q 433.818829 17.28 435.867541 17.28 
Q 436.656813 17.28 437.379888 19.295584 
Q 438.10466 21.288263 438.746261 25.227812 
L 438.746261 47.330518 
Q 438.084291 42.268655 437.429111 39.77208 
Q 436.773931 37.252601 436.115355 37.252601 
Q 434.896652 37.252601 434.236379 46.460153 
Q 433.576107 55.644801 433.576107 72.754357 
Q 433.576107 89.703582 434.212616 98.956943 
Q 434.849126 108.187399 436.020303 108.187399 
Q 436.339407 108.187399 436.612681 107.660599 
Q 436.885956 107.110894 437.103218 105.965677 
L 437.103218 85.214328 
L 435.855659 85.214328 
L 435.855659 66.73051 
L 439.038207 66.73051 
L 439.038207 118.127891 
z
" clip-path="url(#pdaf0eccc06)" style="fill: #ffa600"/>
   </g>
   <g id="patch_43">
    <path d="M 439.436818 17.28 
L 447.010433 17.28 
L 447.010433 38.904689 
L 444.285693 38.904689 
L 444.285693 128.16 
L 442.166842 128.16 
L 442.166842 38.904689 
L 439.436818 38.904689 
L 439.436818 17.28 
z
" clip-path="url(#pdaf0eccc06)" style="fill: #ff0000"/>
   </g>
   <g id="patch_44">
    <path d="M 447.409045 17.28 
L 454.982659 17.28 
L 454.982659 38.904689 
L 452.257919 38.904689 
L 452.257919 128.16 
L 450.139068 128.16 
L 450.139068 38.904689 
L 447.409045 38.904689 
L 447.409045 17.28 
z
" clip-path="url(#pdaf0eccc06)" style="fill: #ff0000"/>
   </g>
   <g id="patch_45">
    <path d="M 462.954885 118.127891 
Q 462.191074 123.143945 461.369552 125.663425 
Q 460.548031 128.16 459.672194 128.16 
Q 457.693073 128.16 456.537172 113.226358 
Q 455.381271 98.292716 455.381271 72.754357 
Q 455.381271 46.91824 456.55754 32.09912 
Q 457.735507 17.28 459.784219 17.28 
Q 460.573491 17.28 461.296566 19.295584 
Q 462.021338 21.288263 462.66294 25.227812 
L 462.66294 47.330518 
Q 462.00097 42.268655 461.345789 39.77208 
Q 460.690609 37.252601 460.032034 37.252601 
Q 458.81333 37.252601 458.153057 46.460153 
Q 457.492785 55.644801 457.492785 72.754357 
Q 457.492785 89.703582 458.129294 98.956943 
Q 458.765804 108.187399 459.936982 108.187399 
Q 460.256085 108.187399 460.52936 107.660599 
Q 460.802635 107.110894 461.019896 105.965677 
L 461.019896 85.214328 
L 459.772338 85.214328 
L 459.772338 66.73051 
L 462.954885 66.73051 
L 462.954885 118.127891 
z
" clip-path="url(#pdaf0eccc06)" style="fill: #ffa600"/>
   </g>
   <g id="patch_46">
    <path d="M 470.927112 120.212188 
Q 470.293592 124.151737 469.608551 126.144416 
Q 468.92351 128.16 468.177407 128.16 
Q 465.952455 128.16 464.652976 113.226358 
Q 463.353497 98.292716 463.353497 72.754357 
Q 463.353497 47.124379 464.652976 32.213642 
Q 465.952455 17.28 468.177407 17.28 
Q 468.92351 17.28 469.608551 19.295584 
Q 470.293592 21.288263 470.927112 25.227812 
L 470.927112 47.330518 
Q 470.287867 42.108325 469.667705 39.680463 
Q 469.047542 37.252601 468.362501 37.252601 
Q 467.133625 37.252601 466.429503 46.712101 
Q 465.727288 56.148697 465.727288 72.754357 
Q 465.727288 89.291303 466.429503 98.750804 
Q 467.133625 108.187399 468.362501 108.187399 
Q 469.047542 108.187399 469.667705 105.759537 
Q 470.287867 103.308771 470.927112 98.086577 
L 470.927112 120.212188 
z
" clip-path="url(#pdaf0eccc06)" style="fill: #0000ff"/>
   </g>
   <g id="patch_47">
    <path d="M 476.571972 107.961114 
L 473.659282 107.961114 
L 473.199383 128.16 
L 471.325723 128.16 
L 474.001496 17.28 
L 476.223565 17.28 
L 478.899338 128.16 
L 477.027226 128.16 
L 476.571972 107.961114 
z
M 474.123826 87.382015 
L 476.102783 87.382015 
L 475.114853 43.277154 
L 474.123826 87.382015 
z
" clip-path="url(#pdaf0eccc06)" style="fill: #008000"/>
   </g>
   <g id="patch_48">
    <path d="M 484.544199 107.961114 
L 481.631508 107.961114 
L 481.17161 128.16 
L 479.297949 128.16 
L 481.973722 17.28 
L 484.195791 17.28 
L 486.871564 128.16 
L 484.999452 128.16 
L 484.544199 107.961114 
z
M 482.096052 87.382015 
L 484.075009 87.382015 
L 483.087079 43.277154 
L 482.096052 87.382015 
z
" clip-path="url(#pdaf0eccc06)" style="fill: #008000"/>
   </g>
   <g id="patch_49">
    <path d="M 494.84379 120.212188 
Q 494.21027 124.151737 493.525229 126.144416 
Q 492.840188 128.16 492.094085 128.16 
Q 489.869133 128.16 488.569654 113.226358 
Q 487.270175 98.292716 487.270175 72.754357 
Q 487.270175 47.124379 488.569654 32.213642 
Q 489.869133 17.28 492.094085 17.28 
Q 492.840188 17.28 493.525229 19.295584 
Q 494.21027 21.288263 494.84379 25.227812 
L 494.84379 47.330518 
Q 494.204546 42.108325 493.584383 39.680463 
Q 492.964221 37.252601 492.27918 37.252601 
Q 491.050304 37.252601 490.346181 46.712101 
Q 489.643966 56.148697 489.643966 72.754357 
Q 489.643966 89.291303 490.346181 98.750804 
Q 491.050304 108.187399 492.27918 108.187399 
Q 492.964221 108.187399 493.584383 105.759537 
Q 494.204546 103.308771 494.84379 98.086577 
L 494.84379 120.212188 
z
" clip-path="url(#pdaf0eccc06)" style="fill: #0000ff"/>
   </g>
   <g id="patch_50">
    <path d="M 500.488651 107.961114 
L 497.57596 107.961114 
L 497.116062 128.16 
L 495.242401 128.16 
L 497.918174 17.28 
L 500.140243 17.28 
L 502.816016 128.16 
L 500.943904 128.16 
L 500.488651 107.961114 
z
M 498.040504 87.382015 
L 500.019461 87.382015 
L 499.031531 43.277154 
L 498.040504 87.382015 
z
" clip-path="url(#pdaf0eccc06)" style="fill: #008000"/>
   </g>
   <g id="patch_51">
    <path d="M 510.788242 127.92114 
Q 510.024431 128.04057 509.202909 128.100558 
Q 508.381387 128.16 507.50555 128.16 
Q 505.52643 128.16 504.370529 127.804437 
Q 503.214627 127.448874 503.214627 126.840818 
Q 503.214627 126.225672 504.390897 125.872836 
Q 505.568864 125.52 507.617576 125.52 
Q 508.406848 125.52 509.129923 125.56799 
Q 509.854695 125.615435 510.496296 125.709234 
L 510.496296 126.235489 
Q 509.834326 126.114968 509.179146 126.055526 
Q 508.523966 125.995538 507.86539 125.995538 
Q 506.646687 125.995538 505.986414 126.214766 
Q 505.326142 126.433448 505.326142 126.840818 
Q 505.326142 127.244371 505.962651 127.464689 
Q 506.599161 127.684462 507.770338 127.684462 
Q 508.089442 127.684462 508.362716 127.671919 
Q 508.635991 127.658831 508.853253 127.631564 
L 508.853253 127.137484 
L 507.605694 127.137484 
L 507.605694 126.697393 
L 510.788242 126.697393 
L 510.788242 127.92114 
z
" clip-path="url(#pdaf0eccc06)" style="fill: #ffa600"/>
   </g>
   <g id="patch_52">
    <path d="M 510.788242 124.573832 
Q 510.154722 125.042826 509.469681 125.28005 
Q 508.78464 125.52 508.038537 125.52 
Q 505.813585 125.52 504.514106 123.742185 
Q 503.214627 121.964371 503.214627 118.92409 
Q 503.214627 115.872902 504.514106 114.097815 
Q 505.813585 112.32 508.038537 112.32 
Q 508.78464 112.32 509.469681 112.55995 
Q 510.154722 112.797174 510.788242 113.266168 
L 510.788242 115.897443 
Q 510.148998 115.275753 509.528835 114.986722 
Q 508.908673 114.697691 508.223632 114.697691 
Q 506.994756 114.697691 506.290633 115.823822 
Q 505.588418 116.947226 505.588418 118.92409 
Q 505.588418 120.892774 506.290633 122.018905 
Q 506.994756 123.142309 508.223632 123.142309 
Q 508.908673 123.142309 509.528835 122.853278 
Q 510.148998 122.56152 510.788242 121.939831 
L 510.788242 124.573832 
z
" clip-path="url(#pdaf0eccc06)" style="fill: #0000ff"/>
   </g>
   <g id="patch_53">
    <path d="M 508.460877 95.00667 
L 505.548186 95.00667 
L 505.088288 112.32 
L 503.214627 112.32 
L 505.8904 17.28 
L 508.112469 17.28 
L 510.788242 112.32 
L 508.91613 112.32 
L 508.460877 95.00667 
z
M 506.01273 77.367441 
L 507.991688 77.367441 
L 507.003757 39.563275 
L 506.01273 77.367441 
z
" clip-path="url(#pdaf0eccc06)" style="fill: #008000"/>
   </g>
   <g id="patch_54">
    <path d="M 516.433103 107.961114 
L 513.520413 107.961114 
L 513.060514 128.16 
L 511.186853 128.16 
L 513.862627 17.28 
L 516.084695 17.28 
L 518.760468 128.16 
L 516.888356 128.16 
L 516.433103 107.961114 
z
M 513.984956 87.382015 
L 515.963914 87.382015 
L 514.975984 43.277154 
L 513.984956 87.382015 
z
" clip-path="url(#pdaf0eccc06)" style="fill: #008000"/>
   </g>
   <g id="patch_55">
    <path d="M 519.15908 17.28 
L 526.732694 17.28 
L 526.732694 38.904689 
L 524.007954 38.904689 
L 524.007954 128.16 
L 521.889103 128.16 
L 521.889103 38.904689 
L 519.15908 38.904689 
L 519.15908 17.28 
z
" clip-path="url(#pdaf0eccc06)" style="fill: #ff0000"/>
   </g>
   <g id="patch_56">
    <path d="M 527.131306 17.28 
L 534.70492 17.28 
L 534.70492 38.904689 
L 531.98018 38.904689 
L 531.98018 128.16 
L 529.86133 128.16 
L 529.86133 38.904689 
L 527.131306 38.904689 
L 527.131306 17.28 
z
" clip-path="url(#pdaf0eccc06)" style="fill: #ff0000"/>
   </g>
   <g id="patch_57">
    <path d="M 542.677147 118.127891 
Q 541.913335 123.143945 541.091813 125.663425 
Q 540.270292 128.16 539.394455 128.16 
Q 537.415334 128.16 536.259433 113.226358 
Q 535.103532 98.292716 535.103532 72.754357 
Q 535.103532 46.91824 536.279801 32.09912 
Q 537.457768 17.28 539.50648 17.28 
Q 540.295752 17.28 541.018827 19.295584 
Q 541.743599 21.288263 542.385201 25.227812 
L 542.385201 47.330518 
Q 541.723231 42.268655 541.06805 39.77208 
Q 540.41287 37.252601 539.754295 37.252601 
Q 538.535591 37.252601 537.875319 46.460153 
Q 537.215046 55.644801 537.215046 72.754357 
Q 537.215046 89.703582 537.851556 98.956943 
Q 538.488065 108.187399 539.659243 108.187399 
Q 539.978346 108.187399 540.251621 107.660599 
Q 540.524896 107.110894 540.742158 105.965677 
L 540.742158 85.214328 
L 539.494599 85.214328 
L 539.494599 66.73051 
L 542.677147 66.73051 
L 542.677147 118.127891 
z
" clip-path="url(#pdaf0eccc06)" style="fill: #ffa600"/>
   </g>
   <g id="patch_58">
    <path d="M 548.322008 107.961114 
L 545.409317 107.961114 
L 544.949418 128.16 
L 543.075758 128.16 
L 545.751531 17.28 
L 547.9736 17.28 
L 550.649373 128.16 
L 548.777261 128.16 
L 548.322008 107.961114 
z
M 545.873861 87.382015 
L 547.852818 87.382015 
L 546.864888 43.277154 
L 545.873861 87.382015 
z
" clip-path="url(#pdaf0eccc06)" style="fill: #008000"/>
   </g>
   <g id="patch_59">
    <path d="M 551.047984 17.28 
L 558.621599 17.28 
L 558.621599 38.904689 
L 555.896859 38.904689 
L 555.896859 128.16 
L 553.778008 128.16 
L 553.778008 38.904689 
L 551.047984 38.904689 
L 551.047984 17.28 
z
" clip-path="url(#pdaf0eccc06)" style="fill: #ff0000"/>
   </g>
   <g id="patch_60">
    <path d="M 564.26646 124.312593 
L 561.353769 124.312593 
L 560.893871 128.16 
L 559.02021 128.16 
L 561.695983 107.04 
L 563.918052 107.04 
L 566.593825 128.16 
L 564.721713 128.16 
L 564.26646 124.312593 
z
M 561.818313 120.392765 
L 563.79727 120.392765 
L 562.80934 111.991839 
L 561.818313 120.392765 
z
" clip-path="url(#pdaf0eccc06)" style="fill: #008000"/>
   </g>
   <g id="patch_61">
    <path d="M 566.593825 98.918769 
Q 565.830013 102.979384 565.008492 105.018963 
Q 564.18697 107.04 563.311133 107.04 
Q 561.332013 107.04 560.176111 94.950861 
Q 559.02021 82.861723 559.02021 62.187812 
Q 559.02021 41.272861 560.19648 29.27643 
Q 561.374447 17.28 563.423159 17.28 
Q 564.212431 17.28 564.935505 18.911663 
Q 565.660278 20.524784 566.301879 23.713943 
L 566.301879 41.60661 
Q 565.639909 37.508911 564.984729 35.487874 
Q 564.329548 33.448296 563.670973 33.448296 
Q 562.45227 33.448296 561.791997 40.902029 
Q 561.131724 48.33722 561.131724 62.187812 
Q 561.131724 75.908614 561.768234 83.39943 
Q 562.404743 90.871704 563.575921 90.871704 
Q 563.895024 90.871704 564.168299 90.445247 
Q 564.441574 90.000248 564.658836 89.073167 
L 564.658836 72.274456 
L 563.411277 72.274456 
L 563.411277 57.311365 
L 566.593825 57.311365 
L 566.593825 98.918769 
z
" clip-path="url(#pdaf0eccc06)" style="fill: #ffa600"/>
   </g>
   <g id="patch_62">
    <path d="M 572.238686 107.961114 
L 569.325995 107.961114 
L 568.866097 128.16 
L 566.992436 128.16 
L 569.668209 17.28 
L 571.890278 17.28 
L 574.566051 128.16 
L 572.693939 128.16 
L 572.238686 107.961114 
z
M 569.790539 87.382015 
L 571.769496 87.382015 
L 570.781566 43.277154 
L 569.790539 87.382015 
z
" clip-path="url(#pdaf0eccc06)" style="fill: #008000"/>
   </g>
   <g id="patch_63">
    <path d="M 582.538277 118.127891 
Q 581.774466 123.143945 580.952944 125.663425 
Q 580.131422 128.16 579.255585 128.16 
Q 577.276465 128.16 576.120564 113.226358 
Q 574.964662 98.292716 574.964662 72.754357 
Q 574.964662 46.91824 576.140932 32.09912 
Q 577.318899 17.28 579.367611 17.28 
Q 580.156883 17.28 580.879958 19.295584 
Q 581.60473 21.288263 582.246331 25.227812 
L 582.246331 47.330518 
Q 581.584362 42.268655 580.929181 39.77208 
Q 580.274001 37.252601 579.615425 37.252601 
Q 578.396722 37.252601 577.736449 46.460153 
Q 577.076177 55.644801 577.076177 72.754357 
Q 577.076177 89.703582 577.712686 98.956943 
Q 578.349196 108.187399 579.520373 108.187399 
Q 579.839477 108.187399 580.112751 107.660599 
Q 580.386026 107.110894 580.603288 105.965677 
L 580.603288 85.214328 
L 579.355729 85.214328 
L 579.355729 66.73051 
L 582.538277 66.73051 
L 582.538277 118.127891 
z
" clip-path="url(#pdaf0eccc06)" style="fill: #ffa600"/>
   </g>
   <g id="patch_64">
    <path d="M 590.510503 120.212188 
Q 589.876983 124.151737 589.191942 126.144416 
Q 588.506901 128.16 587.760798 128.16 
Q 585.535846 128.16 584.236367 113.226358 
Q 582.936888 98.292716 582.936888 72.754357 
Q 582.936888 47.124379 584.236367 32.213642 
Q 585.535846 17.28 587.760798 17.28 
Q 588.506901 17.28 589.191942 19.295584 
Q 589.876983 21.288263 590.510503 25.227812 
L 590.510503 47.330518 
Q 589.871259 42.108325 589.251096 39.680463 
Q 588.630934 37.252601 587.945893 37.252601 
Q 586.717017 37.252601 586.012894 46.712101 
Q 585.31068 56.148697 585.31068 72.754357 
Q 585.31068 89.291303 586.012894 98.750804 
Q 586.717017 108.187399 587.945893 108.187399 
Q 588.630934 108.187399 589.251096 105.759537 
Q 589.871259 103.308771 590.510503 98.086577 
L 590.510503 120.212188 
z
" clip-path="url(#pdaf0eccc06)" style="fill: #0000ff"/>
   </g>
   <g id="patch_65">
    <path d="M 596.155364 107.961114 
L 593.242674 107.961114 
L 592.782775 128.16 
L 590.909115 128.16 
L 593.584888 17.28 
L 595.806956 17.28 
L 598.482729 128.16 
L 596.610617 128.16 
L 596.155364 107.961114 
z
M 593.707218 87.382015 
L 595.686175 87.382015 
L 594.698245 43.277154 
L 593.707218 87.382015 
z
" clip-path="url(#pdaf0eccc06)" style="fill: #008000"/>
   </g>
   <g id="patch_66">
    <path d="M 604.12759 107.961114 
L 601.2149 107.961114 
L 600.755001 128.16 
L 598.881341 128.16 
L 601.557114 17.28 
L 603.779182 17.28 
L 606.454955 128.16 
L 604.582843 128.16 
L 604.12759 107.961114 
z
M 601.679444 87.382015 
L 603.658401 87.382015 
L 602.670471 43.277154 
L 601.679444 87.382015 
z
" clip-path="url(#pdaf0eccc06)" style="fill: #008000"/>
   </g>
   <g id="patch_67">
    <path d="M 606.853567 17.28 
L 614.427182 17.28 
L 614.427182 38.904689 
L 611.702442 38.904689 
L 611.702442 128.16 
L 609.583591 128.16 
L 609.583591 38.904689 
L 606.853567 38.904689 
L 606.853567 17.28 
z
" clip-path="url(#pdaf0eccc06)" style="fill: #ff0000"/>
   </g>
   <g id="patch_68">
    <path d="M 622.399408 118.127891 
Q 621.635596 123.143945 620.814075 125.663425 
Q 619.992553 128.16 619.116716 128.16 
Q 617.137596 128.16 615.981694 113.226358 
Q 614.825793 98.292716 614.825793 72.754357 
Q 614.825793 46.91824 616.002063 32.09912 
Q 617.18003 17.28 619.228742 17.28 
Q 620.018013 17.28 620.741088 19.295584 
Q 621.46586 21.288263 622.107462 25.227812 
L 622.107462 47.330518 
Q 621.445492 42.268655 620.790312 39.77208 
Q 620.135131 37.252601 619.476556 37.252601 
Q 618.257852 37.252601 617.59758 46.460153 
Q 616.937307 55.644801 616.937307 72.754357 
Q 616.937307 89.703582 617.573817 98.956943 
Q 618.210326 108.187399 619.381504 108.187399 
Q 619.700607 108.187399 619.973882 107.660599 
Q 620.247157 107.110894 620.464419 105.965677 
L 620.464419 85.214328 
L 619.21686 85.214328 
L 619.21686 66.73051 
L 622.399408 66.73051 
L 622.399408 118.127891 
z
" clip-path="url(#pdaf0eccc06)" style="fill: #ffa600"/>
   </g>
   <g id="patch_69">
    <path d="M 630.371634 120.212188 
Q 629.738114 124.151737 629.053073 126.144416 
Q 628.368032 128.16 627.621929 128.16 
Q 625.396977 128.16 624.097498 113.226358 
Q 622.798019 98.292716 622.798019 72.754357 
Q 622.798019 47.124379 624.097498 32.213642 
Q 625.396977 17.28 627.621929 17.28 
Q 628.368032 17.28 629.053073 19.295584 
Q 629.738114 21.288263 630.371634 25.227812 
L 630.371634 47.330518 
Q 629.732389 42.108325 629.112227 39.680463 
Q 628.492065 37.252601 627.807024 37.252601 
Q 626.578148 37.252601 625.874025 46.712101 
Q 625.17181 56.148697 625.17181 72.754357 
Q 625.17181 89.291303 625.874025 98.750804 
Q 626.578148 108.187399 627.807024 108.187399 
Q 628.492065 108.187399 629.112227 105.759537 
Q 629.732389 103.308771 630.371634 98.086577 
L 630.371634 120.212188 
z
" clip-path="url(#pdaf0eccc06)" style="fill: #0000ff"/>
   </g>
   <g id="patch_70">
    <path d="M 630.770245 17.28 
L 638.34386 17.28 
L 638.34386 38.904689 
L 635.61912 38.904689 
L 635.61912 128.16 
L 633.500269 128.16 
L 633.500269 38.904689 
L 630.770245 38.904689 
L 630.770245 17.28 
z
" clip-path="url(#pdaf0eccc06)" style="fill: #ff0000"/>
   </g>
   <g id="patch_71">
    <path d="M 638.742471 17.28 
L 646.316086 17.28 
L 646.316086 38.904689 
L 643.591346 38.904689 
L 643.591346 128.16 
L 641.472495 128.16 
L 641.472495 38.904689 
L 638.742471 38.904689 
L 638.742471 17.28 
z
" clip-path="url(#pdaf0eccc06)" style="fill: #ff0000"/>
   </g>
   <g id="patch_72">
    <path d="M 646.714697 17.28 
L 654.288312 17.28 
L 654.288312 38.904689 
L 651.563572 38.904689 
L 651.563572 128.16 
L 649.444721 128.16 
L 649.444721 38.904689 
L 646.714697 38.904689 
L 646.714697 17.28 
z
" clip-path="url(#pdaf0eccc06)" style="fill: #ff0000"/>
   </g>
   <g id="patch_73">
    <path d="M 662.260538 127.403065 
Q 661.627018 127.778261 660.941977 127.96804 
Q 660.256936 128.16 659.510833 128.16 
Q 657.285881 128.16 655.986402 126.737748 
Q 654.686923 125.315497 654.686923 122.883272 
Q 654.686923 120.442322 655.986402 119.022252 
Q 657.285881 117.6 659.510833 117.6 
Q 660.256936 117.6 660.941977 117.79196 
Q 661.627018 117.981739 662.260538 118.356935 
L 662.260538 120.461954 
Q 661.621294 119.964602 661.001131 119.733377 
Q 660.380969 119.502152 659.695928 119.502152 
Q 658.467052 119.502152 657.762929 120.403057 
Q 657.060715 121.301781 657.060715 122.883272 
Q 657.060715 124.458219 657.762929 125.359124 
Q 658.467052 126.257848 659.695928 126.257848 
Q 660.380969 126.257848 661.001131 126.026623 
Q 661.621294 125.793216 662.260538 125.295864 
L 662.260538 127.403065 
z
" clip-path="url(#pdaf0eccc06)" style="fill: #0000ff"/>
   </g>
   <g id="patch_74">
    <path d="M 654.686923 17.28 
L 662.260538 17.28 
L 662.260538 36.845195 
L 659.535798 36.845195 
L 659.535798 117.6 
L 657.416947 117.6 
L 657.416947 36.845195 
L 654.686923 36.845195 
L 654.686923 17.28 
z
" clip-path="url(#pdaf0eccc06)" style="fill: #ff0000"/>
   </g>
   <g id="patch_75">
    <path d="M 662.65915 17.28 
L 670.232764 17.28 
L 670.232764 38.904689 
L 667.508024 38.904689 
L 667.508024 128.16 
L 665.389174 128.16 
L 665.389174 38.904689 
L 662.65915 38.904689 
L 662.65915 17.28 
z
" clip-path="url(#pdaf0eccc06)" style="fill: #ff0000"/>
   </g>
   <g id="patch_76">
    <path d="M 670.631376 17.28 
L 678.20499 17.28 
L 678.20499 38.904689 
L 675.48025 38.904689 
L 675.48025 128.16 
L 673.3614 128.16 
L 673.3614 38.904689 
L 670.631376 38.904689 
L 670.631376 17.28 
z
" clip-path="url(#pdaf0eccc06)" style="fill: #ff0000"/>
   </g>
   <g id="patch_77">
    <path d="M 683.849851 107.961114 
L 680.937161 107.961114 
L 680.477262 128.16 
L 678.603602 128.16 
L 681.279375 17.28 
L 683.501443 17.28 
L 686.177217 128.16 
L 684.305105 128.16 
L 683.849851 107.961114 
z
M 681.401705 87.382015 
L 683.380662 87.382015 
L 682.392732 43.277154 
L 681.401705 87.382015 
z
" clip-path="url(#pdaf0eccc06)" style="fill: #008000"/>
   </g>
   <g id="patch_78">
    <path d="M 686.575828 17.28 
L 694.149443 17.28 
L 694.149443 38.904689 
L 691.424703 38.904689 
L 691.424703 128.16 
L 689.305852 128.16 
L 689.305852 38.904689 
L 686.575828 38.904689 
L 686.575828 17.28 
z
" clip-path="url(#pdaf0eccc06)" style="fill: #ff0000"/>
   </g>
   <g id="patch_79">
    <path d="M 699.794304 107.961114 
L 696.881613 107.961114 
L 696.421715 128.16 
L 694.548054 128.16 
L 697.223827 17.28 
L 699.445896 17.28 
L 702.121669 128.16 
L 700.249557 128.16 
L 699.794304 107.961114 
z
M 697.346157 87.382015 
L 699.325114 87.382015 
L 698.337184 43.277154 
L 697.346157 87.382015 
z
" clip-path="url(#pdaf0eccc06)" style="fill: #008000"/>
   </g>
   <g id="patch_80">
    <path d="M 702.52028 125.52 
L 710.093895 125.52 
L 710.093895 126.034874 
L 707.369155 126.034874 
L 707.369155 128.16 
L 705.250304 128.16 
L 705.250304 126.034874 
L 702.52028 126.034874 
L 702.52028 125.52 
z
" clip-path="url(#pdaf0eccc06)" style="fill: #ff0000"/>
   </g>
   <g id="patch_81">
    <path d="M 707.76653 105.80204 
L 704.853839 105.80204 
L 704.393941 125.52 
L 702.52028 125.52 
L 705.196053 17.28 
L 707.418122 17.28 
L 710.093895 125.52 
L 708.221783 125.52 
L 707.76653 105.80204 
z
M 705.318383 85.712919 
L 707.29734 85.712919 
L 706.30941 42.658174 
L 705.318383 85.712919 
z
" clip-path="url(#pdaf0eccc06)" style="fill: #008000"/>
   </g>
   <g id="patch_82">
    <path d="M 710.492506 17.28 
L 718.066121 17.28 
L 718.066121 38.904689 
L 715.341381 38.904689 
L 715.341381 128.16 
L 713.22253 128.16 
L 713.22253 38.904689 
L 710.492506 38.904689 
L 710.492506 17.28 
z
" clip-path="url(#pdaf0eccc06)" style="fill: #ff0000"/>
   </g>
   <g id="patch_83">
    <path d="M 726.038347 118.127891 
Q 725.274536 123.143945 724.453014 125.663425 
Q 723.631492 128.16 722.755655 128.16 
Q 720.776535 128.16 719.620634 113.226358 
Q 718.464732 98.292716 718.464732 72.754357 
Q 718.464732 46.91824 719.641002 32.09912 
Q 720.818969 17.28 722.867681 17.28 
Q 723.656953 17.28 724.380028 19.295584 
Q 725.1048 21.288263 725.746401 25.227812 
L 725.746401 47.330518 
Q 725.084432 42.268655 724.429251 39.77208 
Q 723.774071 37.252601 723.115495 37.252601 
Q 721.896792 37.252601 721.236519 46.460153 
Q 720.576247 55.644801 720.576247 72.754357 
Q 720.576247 89.703582 721.212756 98.956943 
Q 721.849266 108.187399 723.020443 108.187399 
Q 723.339547 108.187399 723.612821 107.660599 
Q 723.886096 107.110894 724.103358 105.965677 
L 724.103358 85.214328 
L 722.855799 85.214328 
L 722.855799 66.73051 
L 726.038347 66.73051 
L 726.038347 118.127891 
z
" clip-path="url(#pdaf0eccc06)" style="fill: #ffa600"/>
   </g>
   <g id="patch_84">
    <path d="M 726.436958 125.52 
L 734.010573 125.52 
L 734.010573 126.034874 
L 731.285833 126.034874 
L 731.285833 128.16 
L 729.166982 128.16 
L 729.166982 126.034874 
L 726.436958 126.034874 
L 726.436958 125.52 
z
" clip-path="url(#pdaf0eccc06)" style="fill: #ff0000"/>
   </g>
   <g id="patch_85">
    <path d="M 731.683208 124.558148 
L 728.770518 124.558148 
L 728.310619 125.52 
L 726.436958 125.52 
L 729.112732 120.24 
L 731.3348 120.24 
L 734.010573 125.52 
L 732.138461 125.52 
L 731.683208 124.558148 
z
M 729.235062 123.578191 
L 731.214019 123.578191 
L 730.226089 121.47796 
L 729.235062 123.578191 
z
" clip-path="url(#pdaf0eccc06)" style="fill: #008000"/>
   </g>
   <g id="patch_86">
    <path d="M 734.010573 112.859888 
Q 733.377053 116.518042 732.692012 118.368387 
Q 732.006971 120.24 731.260868 120.24 
Q 729.035916 120.24 727.736437 106.373047 
Q 726.436958 92.506094 726.436958 68.791902 
Q 726.436958 44.992638 727.736437 31.146953 
Q 729.035916 17.28 731.260868 17.28 
Q 732.006971 17.28 732.692012 19.151613 
Q 733.377053 21.001958 734.010573 24.660112 
L 734.010573 45.184053 
Q 733.371329 40.334873 732.751166 38.08043 
Q 732.131004 35.825986 731.445963 35.825986 
Q 730.217087 35.825986 729.512964 44.609808 
Q 728.81075 53.372361 728.81075 68.791902 
Q 728.81075 84.147639 729.512964 92.93146 
Q 730.217087 101.694014 731.445963 101.694014 
Q 732.131004 101.694014 732.751166 99.43957 
Q 733.371329 97.163859 734.010573 92.314679 
L 734.010573 112.859888 
z
" clip-path="url(#pdaf0eccc06)" style="fill: #0000ff"/>
   </g>
   <g id="patch_87">
    <path d="M 741.982799 120.212188 
Q 741.34928 124.151737 740.664239 126.144416 
Q 739.979198 128.16 739.233094 128.16 
Q 737.008142 128.16 735.708663 113.226358 
Q 734.409185 98.292716 734.409185 72.754357 
Q 734.409185 47.124379 735.708663 32.213642 
Q 737.008142 17.28 739.233094 17.28 
Q 739.979198 17.28 740.664239 19.295584 
Q 741.34928 21.288263 741.982799 25.227812 
L 741.982799 47.330518 
Q 741.343555 42.108325 740.723393 39.680463 
Q 740.10323 37.252601 739.418189 37.252601 
Q 738.189313 37.252601 737.48519 46.712101 
Q 736.782976 56.148697 736.782976 72.754357 
Q 736.782976 89.291303 737.48519 98.750804 
Q 738.189313 108.187399 739.418189 108.187399 
Q 740.10323 108.187399 740.723393 105.759537 
Q 741.343555 103.308771 741.982799 98.086577 
L 741.982799 120.212188 
z
" clip-path="url(#pdaf0eccc06)" style="fill: #0000ff"/>
   </g>
   <g id="patch_88">
    <path d="M 747.62766 107.961114 
L 744.71497 107.961114 
L 744.255071 128.16 
L 742.381411 128.16 
L 745.057184 17.28 
L 747.279252 17.28 
L 749.955026 128.16 
L 748.082913 128.16 
L 747.62766 107.961114 
z
M 745.179514 87.382015 
L 747.158471 87.382015 
L 746.170541 43.277154 
L 745.179514 87.382015 
z
" clip-path="url(#pdaf0eccc06)" style="fill: #008000"/>
   </g>
   <g id="patch_89">
    <path d="M 755.599886 107.961114 
L 752.687196 107.961114 
L 752.227297 128.16 
L 750.353637 128.16 
L 753.02941 17.28 
L 755.251478 17.28 
L 757.927252 128.16 
L 756.05514 128.16 
L 755.599886 107.961114 
z
M 753.15174 87.382015 
L 755.130697 87.382015 
L 754.142767 43.277154 
L 753.15174 87.382015 
z
" clip-path="url(#pdaf0eccc06)" style="fill: #008000"/>
   </g>
   <g id="patch_90">
    <path d="M 765.899478 127.682281 
Q 765.135666 127.92114 764.314145 128.041115 
Q 763.492623 128.16 762.616786 128.16 
Q 760.637666 128.16 759.481764 127.448874 
Q 758.325863 126.737748 758.325863 125.521636 
Q 758.325863 124.291345 759.502133 123.585672 
Q 760.6801 122.88 762.728812 122.88 
Q 763.518083 122.88 764.241158 122.97598 
Q 764.96593 123.07087 765.607532 123.258467 
L 765.607532 124.310977 
Q 764.945562 124.069936 764.290382 123.951051 
Q 763.635201 123.831076 762.976626 123.831076 
Q 761.757922 123.831076 761.09765 124.269531 
Q 760.437377 124.706895 760.437377 125.521636 
Q 760.437377 126.328742 761.073887 126.769378 
Q 761.710396 127.208924 762.881574 127.208924 
Q 763.200677 127.208924 763.473952 127.183838 
Q 763.747227 127.157662 763.964489 127.103127 
L 763.964489 126.114968 
L 762.71693 126.114968 
L 762.71693 125.234786 
L 765.899478 125.234786 
L 765.899478 127.682281 
z
" clip-path="url(#pdaf0eccc06)" style="fill: #ffa600"/>
   </g>
   <g id="patch_91">
    <path d="M 765.899478 115.310655 
Q 765.265958 119.062607 764.580917 120.960397 
Q 763.895876 122.88 763.149773 122.88 
Q 760.924821 122.88 759.625342 108.657484 
Q 758.325863 94.434968 758.325863 70.112721 
Q 758.325863 45.703218 759.625342 31.502516 
Q 760.924821 17.28 763.149773 17.28 
Q 763.895876 17.28 764.580917 19.199603 
Q 765.265958 21.097393 765.899478 24.849345 
L 765.899478 45.899541 
Q 765.260233 40.926024 764.640071 38.613774 
Q 764.019908 36.301524 763.334867 36.301524 
Q 762.105992 36.301524 761.401869 45.310572 
Q 760.699654 54.297806 760.699654 70.112721 
Q 760.699654 85.862194 761.401869 94.871241 
Q 762.105992 103.858476 763.334867 103.858476 
Q 764.019908 103.858476 764.640071 101.546226 
Q 765.260233 99.212163 765.899478 94.238645 
L 765.899478 115.310655 
z
" clip-path="url(#pdaf0eccc06)" style="fill: #0000ff"/>
   </g>
   <g id="patch_92">
    <path d="M 766.298089 17.28 
L 773.871704 17.28 
L 773.871704 38.904689 
L 771.146964 38.904689 
L 771.146964 128.16 
L 769.028113 128.16 
L 769.028113 38.904689 
L 766.298089 38.904689 
L 766.298089 17.28 
z
" clip-path="url(#pdaf0eccc06)" style="fill: #ff0000"/>
   </g>
   <g id="patch_93">
    <path d="M 774.270315 17.28 
L 781.84393 17.28 
L 781.84393 38.904689 
L 779.11919 38.904689 
L 779.11919 128.16 
L 777.000339 128.16 
L 777.000339 38.904689 
L 774.270315 38.904689 
L 774.270315 17.28 
z
" clip-path="url(#pdaf0eccc06)" style="fill: #ff0000"/>
   </g>
   <g id="patch_94">
    <path d="M 782.242541 17.28 
L 789.816156 17.28 
L 789.816156 38.904689 
L 787.091416 38.904689 
L 787.091416 128.16 
L 784.972565 128.16 
L 784.972565 38.904689 
L 782.242541 38.904689 
L 782.242541 17.28 
z
" clip-path="url(#pdaf0eccc06)" style="fill: #ff0000"/>
   </g>
   <g id="patch_95">
    <path d="M 797.788382 118.127891 
Q 797.024571 123.143945 796.203049 125.663425 
Q 795.381527 128.16 794.50569 128.16 
Q 792.52657 128.16 791.370669 113.226358 
Q 790.214767 98.292716 790.214767 72.754357 
Q 790.214767 46.91824 791.391037 32.09912 
Q 792.569004 17.28 794.617716 17.28 
Q 795.406988 17.28 796.130063 19.295584 
Q 796.854835 21.288263 797.496436 25.227812 
L 797.496436 47.330518 
Q 796.834467 42.268655 796.179286 39.77208 
Q 795.524106 37.252601 794.86553 37.252601 
Q 793.646827 37.252601 792.986554 46.460153 
Q 792.326282 55.644801 792.326282 72.754357 
Q 792.326282 89.703582 792.962791 98.956943 
Q 793.599301 108.187399 794.770478 108.187399 
Q 795.089582 108.187399 795.362857 107.660599 
Q 795.636131 107.110894 795.853393 105.965677 
L 795.853393 85.214328 
L 794.605835 85.214328 
L 794.605835 66.73051 
L 797.788382 66.73051 
L 797.788382 118.127891 
z
" clip-path="url(#pdaf0eccc06)" style="fill: #ffa600"/>
   </g>
   <g id="patch_96">
    <path d="M 798.186993 17.28 
L 805.760608 17.28 
L 805.760608 38.904689 
L 803.035868 38.904689 
L 803.035868 128.16 
L 800.917017 128.16 
L 800.917017 38.904689 
L 798.186993 38.904689 
L 798.186993 17.28 
z
" clip-path="url(#pdaf0eccc06)" style="fill: #ff0000"/>
   </g>
   <g id="patch_97">
    <path d="M 811.405469 107.961114 
L 808.492779 107.961114 
L 808.03288 128.16 
L 806.15922 128.16 
L 808.834993 17.28 
L 811.057061 17.28 
L 813.732834 128.16 
L 811.860722 128.16 
L 811.405469 107.961114 
z
M 808.957323 87.382015 
L 810.93628 87.382015 
L 809.94835 43.277154 
L 808.957323 87.382015 
z
" clip-path="url(#pdaf0eccc06)" style="fill: #008000"/>
   </g>
   <g id="patch_98">
    <path d="M 821.705061 120.212188 
Q 821.071541 124.151737 820.3865 126.144416 
Q 819.701459 128.16 818.955356 128.16 
Q 816.730403 128.16 815.430925 113.226358 
Q 814.131446 98.292716 814.131446 72.754357 
Q 814.131446 47.124379 815.430925 32.213642 
Q 816.730403 17.28 818.955356 17.28 
Q 819.701459 17.28 820.3865 19.295584 
Q 821.071541 21.288263 821.705061 25.227812 
L 821.705061 47.330518 
Q 821.065816 42.108325 820.445654 39.680463 
Q 819.825491 37.252601 819.14045 37.252601 
Q 817.911574 37.252601 817.207452 46.712101 
Q 816.505237 56.148697 816.505237 72.754357 
Q 816.505237 89.291303 817.207452 98.750804 
Q 817.911574 108.187399 819.14045 108.187399 
Q 819.825491 108.187399 820.445654 105.759537 
Q 821.065816 103.308771 821.705061 98.086577 
L 821.705061 120.212188 
z
" clip-path="url(#pdaf0eccc06)" style="fill: #0000ff"/>
   </g>
   <g id="patch_99">
    <path d="M 827.349921 107.961114 
L 824.437231 107.961114 
L 823.977332 128.16 
L 822.103672 128.16 
L 824.779445 17.28 
L 827.001514 17.28 
L 829.677287 128.16 
L 827.805175 128.16 
L 827.349921 107.961114 
z
M 824.901775 87.382015 
L 826.880732 87.382015 
L 825.892802 43.277154 
L 824.901775 87.382015 
z
" clip-path="url(#pdaf0eccc06)" style="fill: #008000"/>
   </g>
   <g id="patch_100">
    <path d="M 835.322148 107.961114 
L 832.409457 107.961114 
L 831.949559 128.16 
L 830.075898 128.16 
L 832.751671 17.28 
L 834.97374 17.28 
L 837.649513 128.16 
L 835.777401 128.16 
L 835.322148 107.961114 
z
M 832.874001 87.382015 
L 834.852958 87.382015 
L 833.865028 43.277154 
L 832.874001 87.382015 
z
" clip-path="url(#pdaf0eccc06)" style="fill: #008000"/>
   </g>
   <g id="patch_101">
    <path d="M 843.294374 107.961114 
L 840.381683 107.961114 
L 839.921785 128.16 
L 838.048124 128.16 
L 840.723897 17.28 
L 842.945966 17.28 
L 845.621739 128.16 
L 843.749627 128.16 
L 843.294374 107.961114 
z
M 840.846227 87.382015 
L 842.825184 87.382015 
L 841.837254 43.277154 
L 840.846227 87.382015 
z
" clip-path="url(#pdaf0eccc06)" style="fill: #008000"/>
   </g>
   <g id="patch_102">
    <path d="M 851.2666 107.961114 
L 848.353909 107.961114 
L 847.894011 128.16 
L 846.02035 128.16 
L 848.696123 17.28 
L 850.918192 17.28 
L 853.593965 128.16 
L 851.721853 128.16 
L 851.2666 107.961114 
z
M 848.818453 87.382015 
L 850.79741 87.382015 
L 849.80948 43.277154 
L 848.818453 87.382015 
z
" clip-path="url(#pdaf0eccc06)" style="fill: #008000"/>
   </g>
   <g id="patch_103">
    <path d="M 859.238826 107.961114 
L 856.326135 107.961114 
L 855.866237 128.16 
L 853.992576 128.16 
L 856.668349 17.28 
L 858.890418 17.28 
L 861.566191 128.16 
L 859.694079 128.16 
L 859.238826 107.961114 
z
M 856.790679 87.382015 
L 858.769637 87.382015 
L 857.781706 43.277154 
L 856.790679 87.382015 
z
" clip-path="url(#pdaf0eccc06)" style="fill: #008000"/>
   </g>
   <g id="patch_104">
    <path d="M 867.211052 107.961114 
L 864.298361 107.961114 
L 863.838463 128.16 
L 861.964802 128.16 
L 864.640576 17.28 
L 866.862644 17.28 
L 869.538417 128.16 
L 867.666305 128.16 
L 867.211052 107.961114 
z
M 864.762905 87.382015 
L 866.741863 87.382015 
L 865.753933 43.277154 
L 864.762905 87.382015 
z
" clip-path="url(#pdaf0eccc06)" style="fill: #008000"/>
   </g>
   <g id="patch_105">
    <path d="M 875.183278 127.679074 
L 872.270588 127.679074 
L 871.810689 128.16 
L 869.937029 128.16 
L 872.612802 125.52 
L 874.83487 125.52 
L 877.510643 128.16 
L 875.638531 128.16 
L 875.183278 127.679074 
z
M 872.735132 127.189096 
L 874.714089 127.189096 
L 873.726159 126.13898 
L 872.735132 127.189096 
z
" clip-path="url(#pdaf0eccc06)" style="fill: #008000"/>
   </g>
   <g id="patch_106">
    <path d="M 877.510643 115.726751 
Q 876.746832 120.623375 875.92531 123.082867 
Q 875.103789 125.52 874.227951 125.52 
Q 872.248831 125.52 871.09293 110.941921 
Q 869.937029 96.363842 869.937029 71.433539 
Q 869.937029 46.212568 871.113298 31.746284 
Q 872.291265 17.28 874.339977 17.28 
Q 875.129249 17.28 875.852324 19.247593 
Q 876.577096 21.192828 877.218698 25.038579 
L 877.218698 46.61503 
Q 876.556728 41.673687 875.901547 39.236554 
Q 875.246367 36.777063 874.587792 36.777063 
Q 873.369088 36.777063 872.708815 45.765387 
Q 872.048543 54.731353 872.048543 71.433539 
Q 872.048543 87.979211 872.685052 97.012254 
Q 873.321562 106.022937 874.492739 106.022937 
Q 874.811843 106.022937 875.085118 105.50868 
Q 875.358392 104.972064 875.575654 103.854113 
L 875.575654 83.596844 
L 874.328096 83.596844 
L 874.328096 65.553117 
L 877.510643 65.553117 
L 877.510643 115.726751 
z
" clip-path="url(#pdaf0eccc06)" style="fill: #ffa600"/>
   </g>
   <g id="patch_107">
    <path d="M 885.482869 127.92114 
Q 884.719058 128.04057 883.897536 128.100558 
Q 883.076015 128.16 882.200178 128.16 
Q 880.221057 128.16 879.065156 127.804437 
Q 877.909255 127.448874 877.909255 126.840818 
Q 877.909255 126.225672 879.085524 125.872836 
Q 880.263491 125.52 882.312203 125.52 
Q 883.101475 125.52 883.82455 125.56799 
Q 884.549322 125.615435 885.190924 125.709234 
L 885.190924 126.235489 
Q 884.528954 126.114968 883.873773 126.055526 
Q 883.218593 125.995538 882.560018 125.995538 
Q 881.341314 125.995538 880.681041 126.214766 
Q 880.020769 126.433448 880.020769 126.840818 
Q 880.020769 127.244371 880.657278 127.464689 
Q 881.293788 127.684462 882.464966 127.684462 
Q 882.784069 127.684462 883.057344 127.671919 
Q 883.330619 127.658831 883.54788 127.631564 
L 883.54788 127.137484 
L 882.300322 127.137484 
L 882.300322 126.697393 
L 885.482869 126.697393 
L 885.482869 127.92114 
z
" clip-path="url(#pdaf0eccc06)" style="fill: #ffa600"/>
   </g>
   <g id="patch_108">
    <path d="M 883.155504 124.077222 
L 880.242814 124.077222 
L 879.782915 125.52 
L 877.909255 125.52 
L 880.585028 117.6 
L 882.807096 117.6 
L 885.482869 125.52 
L 883.610757 125.52 
L 883.155504 124.077222 
z
M 880.707358 122.607287 
L 882.686315 122.607287 
L 881.698385 119.45694 
L 880.707358 122.607287 
z
" clip-path="url(#pdaf0eccc06)" style="fill: #008000"/>
   </g>
   <g id="patch_109">
    <path d="M 877.909255 70.08 
L 885.482869 70.08 
L 885.482869 79.347724 
L 882.758129 79.347724 
L 882.758129 117.6 
L 880.639279 117.6 
L 880.639279 79.347724 
L 877.909255 79.347724 
L 877.909255 70.08 
z
" clip-path="url(#pdaf0eccc06)" style="fill: #ff0000"/>
   </g>
   <g id="patch_110">
    <path d="M 885.482869 66.295327 
Q 884.84935 68.171303 884.164309 69.120198 
Q 883.479268 70.08 882.733164 70.08 
Q 880.508212 70.08 879.208734 62.968742 
Q 877.909255 55.857484 877.909255 43.69636 
Q 877.909255 31.491609 879.208734 24.391258 
Q 880.508212 17.28 882.733164 17.28 
Q 883.479268 17.28 884.164309 18.239802 
Q 884.84935 19.188697 885.482869 21.064673 
L 885.482869 31.589771 
Q 884.843625 29.103012 884.223463 27.946887 
Q 883.6033 26.790762 882.918259 26.790762 
Q 881.689383 26.790762 880.98526 31.295286 
Q 880.283046 35.788903 880.283046 43.69636 
Q 880.283046 51.571097 880.98526 56.075621 
Q 881.689383 60.569238 882.918259 60.569238 
Q 883.6033 60.569238 884.223463 59.413113 
Q 884.843625 58.246081 885.482869 55.759322 
L 885.482869 66.295327 
z
" clip-path="url(#pdaf0eccc06)" style="fill: #0000ff"/>
   </g>
   <g id="patch_111">
    <path d="M 893.455096 127.92114 
Q 892.691284 128.04057 891.869762 128.100558 
Q 891.048241 128.16 890.172404 128.16 
Q 888.193283 128.16 887.037382 127.804437 
Q 885.881481 127.448874 885.881481 126.840818 
Q 885.881481 126.225672 887.05775 125.872836 
Q 888.235717 125.52 890.284429 125.52 
Q 891.073701 125.52 891.796776 125.56799 
Q 892.521548 125.615435 893.16315 125.709234 
L 893.16315 126.235489 
Q 892.50118 126.114968 891.845999 126.055526 
Q 891.190819 125.995538 890.532244 125.995538 
Q 889.31354 125.995538 888.653268 126.214766 
Q 887.992995 126.433448 887.992995 126.840818 
Q 887.992995 127.244371 888.629505 127.464689 
Q 889.266014 127.684462 890.437192 127.684462 
Q 890.756295 127.684462 891.02957 127.671919 
Q 891.302845 127.658831 891.520107 127.631564 
L 891.520107 127.137484 
L 890.272548 127.137484 
L 890.272548 126.697393 
L 893.455096 126.697393 
L 893.455096 127.92114 
z
" clip-path="url(#pdaf0eccc06)" style="fill: #ffa600"/>
   </g>
   <g id="patch_112">
    <path d="M 891.12773 117.344261 
L 888.21504 117.344261 
L 887.755141 125.52 
L 885.881481 125.52 
L 888.557254 80.64 
L 890.779322 80.64 
L 893.455096 125.52 
L 891.582983 125.52 
L 891.12773 117.344261 
z
M 888.679584 109.014625 
L 890.658541 109.014625 
L 889.670611 91.162658 
L 888.679584 109.014625 
z
" clip-path="url(#pdaf0eccc06)" style="fill: #008000"/>
   </g>
   <g id="patch_113">
    <path d="M 885.881481 17.28 
L 893.455096 17.28 
L 893.455096 29.636965 
L 890.730356 29.636965 
L 890.730356 80.64 
L 888.611505 80.64 
L 888.611505 29.636965 
L 885.881481 29.636965 
L 885.881481 17.28 
z
" clip-path="url(#pdaf0eccc06)" style="fill: #ff0000"/>
   </g>
   <g id="patch_114">
    <path d="M 901.427322 118.127891 
Q 900.66351 123.143945 899.841989 125.663425 
Q 899.020467 128.16 898.14463 128.16 
Q 896.165509 128.16 895.009608 113.226358 
Q 893.853707 98.292716 893.853707 72.754357 
Q 893.853707 46.91824 895.029976 32.09912 
Q 896.207943 17.28 898.256655 17.28 
Q 899.045927 17.28 899.769002 19.295584 
Q 900.493774 21.288263 901.135376 25.227812 
L 901.135376 47.330518 
Q 900.473406 42.268655 899.818226 39.77208 
Q 899.163045 37.252601 898.50447 37.252601 
Q 897.285766 37.252601 896.625494 46.460153 
Q 895.965221 55.644801 895.965221 72.754357 
Q 895.965221 89.703582 896.601731 98.956943 
Q 897.23824 108.187399 898.409418 108.187399 
Q 898.728521 108.187399 899.001796 107.660599 
Q 899.275071 107.110894 899.492333 105.965677 
L 899.492333 85.214328 
L 898.244774 85.214328 
L 898.244774 66.73051 
L 901.427322 66.73051 
L 901.427322 118.127891 
z
" clip-path="url(#pdaf0eccc06)" style="fill: #ffa600"/>
   </g>
   <g id="patch_115">
    <path d="M 901.825933 125.52 
L 909.399548 125.52 
L 909.399548 126.034874 
L 906.674808 126.034874 
L 906.674808 128.16 
L 904.555957 128.16 
L 904.555957 126.034874 
L 901.825933 126.034874 
L 901.825933 125.52 
z
" clip-path="url(#pdaf0eccc06)" style="fill: #ff0000"/>
   </g>
   <g id="patch_116">
    <path d="M 909.399548 124.952299 
Q 908.766028 125.233696 908.080987 125.37603 
Q 907.395946 125.52 906.649843 125.52 
Q 904.424891 125.52 903.125412 124.453311 
Q 901.825933 123.386623 901.825933 121.562454 
Q 901.825933 119.731741 903.125412 118.666689 
Q 904.424891 117.6 906.649843 117.6 
Q 907.395946 117.6 908.080987 117.74397 
Q 908.766028 117.886304 909.399548 118.167701 
L 909.399548 119.746466 
Q 908.760303 119.373452 908.140141 119.200033 
Q 907.519978 119.026614 906.834937 119.026614 
Q 905.606062 119.026614 904.901939 119.702293 
Q 904.199724 120.376335 904.199724 121.562454 
Q 904.199724 122.743665 904.901939 123.419343 
Q 905.606062 124.093386 906.834937 124.093386 
Q 907.519978 124.093386 908.140141 123.919967 
Q 908.760303 123.744912 909.399548 123.371898 
L 909.399548 124.952299 
z
" clip-path="url(#pdaf0eccc06)" style="fill: #0000ff"/>
   </g>
   <g id="patch_117">
    <path d="M 907.072183 114.714445 
L 904.159492 114.714445 
L 903.699594 117.6 
L 901.825933 117.6 
L 904.501706 101.76 
L 906.723775 101.76 
L 909.399548 117.6 
L 907.527436 117.6 
L 907.072183 114.714445 
z
M 904.624036 111.774574 
L 906.602993 111.774574 
L 905.615063 105.473879 
L 904.624036 111.774574 
z
" clip-path="url(#pdaf0eccc06)" style="fill: #008000"/>
   </g>
   <g id="patch_118">
    <path d="M 909.399548 94.116488 
Q 908.635736 97.938244 907.814215 99.857848 
Q 906.992693 101.76 906.116856 101.76 
Q 904.137736 101.76 902.981834 90.381987 
Q 901.825933 79.003974 901.825933 59.546176 
Q 901.825933 39.861516 903.002203 28.570758 
Q 904.18017 17.28 906.228882 17.28 
Q 907.018153 17.28 907.741228 18.815683 
Q 908.466 20.333914 909.107602 23.335476 
L 909.107602 40.175633 
Q 908.445632 36.318975 907.790452 34.416823 
Q 907.135271 32.49722 906.476696 32.49722 
Q 905.257992 32.49722 904.59772 39.512497 
Q 903.937447 46.510324 903.937447 59.546176 
Q 903.937447 72.459872 904.573957 79.510052 
Q 905.210466 86.54278 906.381644 86.54278 
Q 906.700747 86.54278 906.974022 86.141409 
Q 907.247297 85.722586 907.464559 84.850039 
L 907.464559 69.039488 
L 906.217 69.039488 
L 906.217 54.956579 
L 909.399548 54.956579 
L 909.399548 94.116488 
z
" clip-path="url(#pdaf0eccc06)" style="fill: #ffa600"/>
   </g>
   <g id="patch_119">
    <path d="M 917.371774 127.682281 
Q 916.607962 127.92114 915.786441 128.041115 
Q 914.964919 128.16 914.089082 128.16 
Q 912.109962 128.16 910.95406 127.448874 
Q 909.798159 126.737748 909.798159 125.521636 
Q 909.798159 124.291345 910.974429 123.585672 
Q 912.152396 122.88 914.201108 122.88 
Q 914.99038 122.88 915.713454 122.97598 
Q 916.438227 123.07087 917.079828 123.258467 
L 917.079828 124.310977 
Q 916.417858 124.069936 915.762678 123.951051 
Q 915.107497 123.831076 914.448922 123.831076 
Q 913.230219 123.831076 912.569946 124.269531 
Q 911.909673 124.706895 911.909673 125.521636 
Q 911.909673 126.328742 912.546183 126.769378 
Q 913.182692 127.208924 914.35387 127.208924 
Q 914.672973 127.208924 914.946248 127.183838 
Q 915.219523 127.157662 915.436785 127.103127 
L 915.436785 126.114968 
L 914.189226 126.114968 
L 914.189226 125.234786 
L 917.371774 125.234786 
L 917.371774 127.682281 
z
" clip-path="url(#pdaf0eccc06)" style="fill: #ffa600"/>
   </g>
   <g id="patch_120">
    <path d="M 915.044409 120.475371 
L 912.131718 120.475371 
L 911.67182 122.88 
L 909.798159 122.88 
L 912.473932 109.68 
L 914.696001 109.68 
L 917.371774 122.88 
L 915.499662 122.88 
L 915.044409 120.475371 
z
M 912.596262 118.025478 
L 914.575219 118.025478 
L 913.587289 112.774899 
L 912.596262 118.025478 
z
" clip-path="url(#pdaf0eccc06)" style="fill: #008000"/>
   </g>
   <g id="patch_121">
    <path d="M 909.798159 93.84 
L 917.371774 93.84 
L 917.371774 96.929241 
L 914.647034 96.929241 
L 914.647034 109.68 
L 912.528183 109.68 
L 912.528183 96.929241 
L 909.798159 96.929241 
L 909.798159 93.84 
z
" clip-path="url(#pdaf0eccc06)" style="fill: #ff0000"/>
   </g>
   <g id="patch_122">
    <path d="M 917.371774 88.352225 
Q 916.738254 91.07239 916.053213 92.448288 
Q 915.368172 93.84 914.622069 93.84 
Q 912.397117 93.84 911.097638 83.528676 
Q 909.798159 73.217352 909.798159 55.583722 
Q 909.798159 37.886833 911.097638 27.591324 
Q 912.397117 17.28 914.622069 17.28 
Q 915.368172 17.28 916.053213 18.671712 
Q 916.738254 20.04761 917.371774 22.767775 
L 917.371774 38.029168 
Q 916.73253 34.423367 916.112367 32.746986 
Q 915.492205 31.070605 914.807164 31.070605 
Q 913.578288 31.070605 912.874165 37.602165 
Q 912.17195 44.11791 912.17195 55.583722 
Q 912.17195 67.00209 912.874165 73.53365 
Q 913.578288 80.049395 914.807164 80.049395 
Q 915.492205 80.049395 916.112367 78.373014 
Q 916.73253 76.680818 917.371774 73.075018 
L 917.371774 88.352225 
z
" clip-path="url(#pdaf0eccc06)" style="fill: #0000ff"/>
   </g>
   <g id="patch_123">
    <path d="M 925.344 127.403065 
Q 924.71048 127.778261 924.025439 127.96804 
Q 923.340398 128.16 922.594295 128.16 
Q 920.369343 128.16 919.069864 126.737748 
Q 917.770385 125.315497 917.770385 122.883272 
Q 917.770385 120.442322 919.069864 119.022252 
Q 920.369343 117.6 922.594295 117.6 
Q 923.340398 117.6 924.025439 117.79196 
Q 924.71048 117.981739 925.344 118.356935 
L 925.344 120.461954 
Q 924.704756 119.964602 924.084593 119.733377 
Q 923.464431 119.502152 922.77939 119.502152 
Q 921.550514 119.502152 920.846391 120.403057 
Q 920.144176 121.301781 920.144176 122.883272 
Q 920.144176 124.458219 920.846391 125.359124 
Q 921.550514 126.257848 922.77939 126.257848 
Q 923.464431 126.257848 924.084593 126.026623 
Q 924.704756 125.793216 925.344 125.295864 
L 925.344 127.403065 
z
" clip-path="url(#pdaf0eccc06)" style="fill: #0000ff"/>
   </g>
   <g id="patch_124">
    <path d="M 925.344 116.166842 
Q 924.580189 116.883421 923.758667 117.243346 
Q 922.937145 117.6 922.061308 117.6 
Q 920.082188 117.6 918.926287 115.466623 
Q 917.770385 113.333245 917.770385 109.684908 
Q 917.770385 105.994034 918.946655 103.877017 
Q 920.124622 101.76 922.173334 101.76 
Q 922.962606 101.76 923.68568 102.047941 
Q 924.410453 102.332609 925.052054 102.895402 
L 925.052054 106.052931 
Q 924.390084 105.329808 923.734904 104.973154 
Q 923.079723 104.613229 922.421148 104.613229 
Q 921.202445 104.613229 920.542172 105.928593 
Q 919.881899 107.240686 919.881899 109.684908 
Q 919.881899 112.106226 920.518409 113.428135 
Q 921.154919 114.746771 922.326096 114.746771 
Q 922.6452 114.746771 922.918474 114.671514 
Q 923.191749 114.592985 923.409011 114.429382 
L 923.409011 111.464904 
L 922.161452 111.464904 
L 922.161452 108.824359 
L 925.344 108.824359 
L 925.344 116.166842 
z
" clip-path="url(#pdaf0eccc06)" style="fill: #ffa600"/>
   </g>
   <g id="patch_125">
    <path d="M 923.016635 94.065186 
L 920.103944 94.065186 
L 919.644046 101.76 
L 917.770385 101.76 
L 920.446158 59.52 
L 922.668227 59.52 
L 925.344 101.76 
L 923.471888 101.76 
L 923.016635 94.065186 
z
M 920.568488 86.225529 
L 922.547445 86.225529 
L 921.559515 69.423678 
L 920.568488 86.225529 
z
" clip-path="url(#pdaf0eccc06)" style="fill: #008000"/>
   </g>
   <g id="patch_126">
    <path d="M 917.770385 17.28 
L 925.344 17.28 
L 925.344 25.517977 
L 922.61926 25.517977 
L 922.61926 59.52 
L 920.500409 59.52 
L 920.500409 25.517977 
L 917.770385 25.517977 
L 917.770385 17.28 
z
" clip-path="url(#pdaf0eccc06)" style="fill: #ff0000"/>
   </g>
  </g>
 </g>
 <defs>
  <clipPath id="pdaf0eccc06">
   <rect x="128.52" y="17.28" width="796.824" height="110.88"/>
  </clipPath>
 </defs>
</svg>
