<?xml version="1.0" encoding="utf-8" standalone="no"?>
<!DOCTYPE svg PUBLIC "-//W3C//DTD SVG 1.1//EN"
  "http://www.w3.org/Graphics/SVG/1.1/DTD/svg11.dtd">
<svg xmlns:xlink="http://www.w3.org/1999/xlink" width="1028.16pt" height="144pt" viewBox="0 0 1028.16 144" xmlns="http://www.w3.org/2000/svg" version="1.1">
 <metadata>
  <rdf:RDF xmlns:dc="http://purl.org/dc/elements/1.1/" xmlns:cc="http://creativecommons.org/ns#" xmlns:rdf="http://www.w3.org/1999/02/22-rdf-syntax-ns#">
   <cc:Work>
    <dc:type rdf:resource="http://purl.org/dc/dcmitype/StillImage"/>
    <dc:date>2024-11-11T17:06:41.084288</dc:date>
    <dc:format>image/svg+xml</dc:format>
    <dc:creator>
     <cc:Agent>
      <dc:title>Matplotlib v3.9.2, https://matplotlib.org/</dc:title>
     </cc:Agent>
    </dc:creator>
   </cc:Work>
  </rdf:RDF>
 </metadata>
 <defs>
  <style type="text/css">*{stroke-linejoin: round; stroke-linecap: butt}</style>
 </defs>
 <g id="figure_1">
  <g id="patch_1">
   <path d="M 0 144 
L 1028.16 144 
L 1028.16 0 
L 0 0 
z
" style="fill: #ffffff"/>
  </g>
  <g id="axes_1">
   <g id="line2d_1">
    <path d="M 128.52 128.16 
L 925.344 128.16 
" clip-path="url(#p9e973e39f4)" style="fill: none; stroke: #000000; stroke-width: 0.5; stroke-linecap: square"/>
   </g>
   <g id="patch_2">
    <path d="M 136.093615 128.033011 
Q 135.329803 128.096506 134.508282 128.128398 
Q 133.68676 128.16 132.810923 128.16 
Q 130.831803 128.16 129.675901 127.970967 
Q 128.52 127.781933 128.52 127.458663 
Q 128.52 127.131623 129.69627 126.944039 
Q 130.874237 126.756456 132.922949 126.756456 
Q 133.71222 126.756456 134.435295 126.781969 
Q 135.160067 126.807193 135.801669 126.857061 
L 135.801669 127.136842 
Q 135.139699 127.072768 134.484519 127.041166 
Q 133.829338 127.009273 133.170763 127.009273 
Q 131.952059 127.009273 131.291787 127.125825 
Q 130.631514 127.242086 130.631514 127.458663 
Q 130.631514 127.67321 131.268024 127.790341 
Q 131.904533 127.907182 133.075711 127.907182 
Q 133.394814 127.907182 133.668089 127.900514 
Q 133.941364 127.893556 134.158626 127.879059 
L 134.158626 127.616384 
L 132.911067 127.616384 
L 132.911067 127.382412 
L 136.093615 127.382412 
L 136.093615 128.033011 
z
" clip-path="url(#p9e973e39f4)" style="fill: #ffa600"/>
   </g>
   <g id="patch_3">
    <path d="M 128.52 123.949367 
L 136.093615 123.949367 
L 136.093615 124.496828 
L 133.368875 124.496828 
L 133.368875 126.756456 
L 131.250024 126.756456 
L 131.250024 124.496828 
L 128.52 124.496828 
L 128.52 123.949367 
z
" clip-path="url(#p9e973e39f4)" style="fill: #ff0000"/>
   </g>
   <g id="patch_4">
    <path d="M 136.093615 116.30337 
Q 135.460095 120.093317 134.775054 122.010325 
Q 134.090013 123.949367 133.34391 123.949367 
Q 131.118958 123.949367 129.819479 109.582826 
Q 128.52 95.216284 128.52 70.647735 
Q 128.52 45.991048 129.819479 31.646541 
Q 131.118958 17.28 133.34391 17.28 
Q 134.090013 17.28 134.775054 19.219042 
Q 135.460095 21.13605 136.093615 24.925997 
L 136.093615 46.18936 
Q 135.45437 41.165477 134.834208 38.829812 
Q 134.214045 36.494148 133.529005 36.494148 
Q 132.300129 36.494148 131.596006 45.594426 
Q 130.893791 54.67267 130.893791 70.647735 
Q 130.893791 86.556697 131.596006 95.656976 
Q 132.300129 104.73522 133.529005 104.73522 
Q 134.214045 104.73522 134.834208 102.399555 
Q 135.45437 100.041856 136.093615 95.017973 
L 136.093615 116.30337 
z
" clip-path="url(#p9e973e39f4)" style="fill: #0000ff"/>
   </g>
   <g id="patch_5">
    <path d="M 144.065841 128.059395 
Q 143.432321 128.109262 142.74728 128.134486 
Q 142.062239 128.16 141.316136 128.16 
Q 139.091184 128.16 137.791705 127.970967 
Q 136.492226 127.781933 136.492226 127.458663 
Q 136.492226 127.134233 137.791705 126.945489 
Q 139.091184 126.756456 141.316136 126.756456 
Q 142.062239 126.756456 142.74728 126.781969 
Q 143.432321 126.807193 144.065841 126.857061 
L 144.065841 127.136842 
Q 143.426597 127.070738 142.806434 127.040006 
Q 142.186272 127.009273 141.501231 127.009273 
Q 140.272355 127.009273 139.568232 127.129014 
Q 138.866017 127.248465 138.866017 127.458663 
Q 138.866017 127.667991 139.568232 127.787732 
Q 140.272355 127.907182 141.501231 127.907182 
Q 142.186272 127.907182 142.806434 127.87645 
Q 143.426597 127.845427 144.065841 127.779324 
L 144.065841 128.059395 
z
" clip-path="url(#p9e973e39f4)" style="fill: #0000ff"/>
   </g>
   <g id="patch_6">
    <path d="M 141.738476 106.813252 
L 138.825785 106.813252 
L 138.365887 126.756456 
L 136.492226 126.756456 
L 139.167999 17.28 
L 141.390068 17.28 
L 144.065841 126.756456 
L 142.193729 126.756456 
L 141.738476 106.813252 
z
M 139.290329 86.494647 
L 141.269286 86.494647 
L 140.281356 42.948076 
L 139.290329 86.494647 
z
" clip-path="url(#p9e973e39f4)" style="fill: #008000"/>
   </g>
   <g id="patch_7">
    <path d="M 149.710702 107.961114 
L 146.798011 107.961114 
L 146.338113 128.16 
L 144.464452 128.16 
L 147.140225 17.28 
L 149.362294 17.28 
L 152.038067 128.16 
L 150.165955 128.16 
L 149.710702 107.961114 
z
M 147.262555 87.382015 
L 149.241512 87.382015 
L 148.253582 43.277154 
L 147.262555 87.382015 
z
" clip-path="url(#p9e973e39f4)" style="fill: #008000"/>
   </g>
   <g id="patch_8">
    <path d="M 157.682928 107.961114 
L 154.770237 107.961114 
L 154.310339 128.16 
L 152.436678 128.16 
L 155.112451 17.28 
L 157.33452 17.28 
L 160.010293 128.16 
L 158.138181 128.16 
L 157.682928 107.961114 
z
M 155.234781 87.382015 
L 157.213739 87.382015 
L 156.225808 43.277154 
L 155.234781 87.382015 
z
" clip-path="url(#p9e973e39f4)" style="fill: #008000"/>
   </g>
   <g id="patch_9">
    <path d="M 160.408904 17.28 
L 167.982519 17.28 
L 167.982519 38.904689 
L 165.257779 38.904689 
L 165.257779 128.16 
L 163.138928 128.16 
L 163.138928 38.904689 
L 160.408904 38.904689 
L 160.408904 17.28 
z
" clip-path="url(#p9e973e39f4)" style="fill: #ff0000"/>
   </g>
   <g id="patch_10">
    <path d="M 173.62738 107.961114 
L 170.71469 107.961114 
L 170.254791 128.16 
L 168.381131 128.16 
L 171.056904 17.28 
L 173.278972 17.28 
L 175.954745 128.16 
L 174.082633 128.16 
L 173.62738 107.961114 
z
M 171.179234 87.382015 
L 173.158191 87.382015 
L 172.170261 43.277154 
L 171.179234 87.382015 
z
" clip-path="url(#p9e973e39f4)" style="fill: #008000"/>
   </g>
   <g id="patch_11">
    <path d="M 181.599606 107.961114 
L 178.686916 107.961114 
L 178.227017 128.16 
L 176.353357 128.16 
L 179.02913 17.28 
L 181.251198 17.28 
L 183.926971 128.16 
L 182.054859 128.16 
L 181.599606 107.961114 
z
M 179.15146 87.382015 
L 181.130417 87.382015 
L 180.142487 43.277154 
L 179.15146 87.382015 
z
" clip-path="url(#p9e973e39f4)" style="fill: #008000"/>
   </g>
   <g id="patch_12">
    <path d="M 184.325583 17.28 
L 191.899198 17.28 
L 191.899198 38.904689 
L 189.174458 38.904689 
L 189.174458 128.16 
L 187.055607 128.16 
L 187.055607 38.904689 
L 184.325583 38.904689 
L 184.325583 17.28 
z
" clip-path="url(#p9e973e39f4)" style="fill: #ff0000"/>
   </g>
   <g id="patch_13">
    <path d="M 199.871424 118.127891 
Q 199.107612 123.143945 198.286091 125.663425 
Q 197.464569 128.16 196.588732 128.16 
Q 194.609612 128.16 193.45371 113.226358 
Q 192.297809 98.292716 192.297809 72.754357 
Q 192.297809 46.91824 193.474079 32.09912 
Q 194.652046 17.28 196.700758 17.28 
Q 197.490029 17.28 198.213104 19.295584 
Q 198.937876 21.288263 199.579478 25.227812 
L 199.579478 47.330518 
Q 198.917508 42.268655 198.262328 39.77208 
Q 197.607147 37.252601 196.948572 37.252601 
Q 195.729868 37.252601 195.069596 46.460153 
Q 194.409323 55.644801 194.409323 72.754357 
Q 194.409323 89.703582 195.045833 98.956943 
Q 195.682342 108.187399 196.85352 108.187399 
Q 197.172623 108.187399 197.445898 107.660599 
Q 197.719173 107.110894 197.936435 105.965677 
L 197.936435 85.214328 
L 196.688876 85.214328 
L 196.688876 66.73051 
L 199.871424 66.73051 
L 199.871424 118.127891 
z
" clip-path="url(#p9e973e39f4)" style="fill: #ffa600"/>
   </g>
   <g id="patch_14">
    <path d="M 205.516285 107.961114 
L 202.603594 107.961114 
L 202.143696 128.16 
L 200.270035 128.16 
L 202.945808 17.28 
L 205.167877 17.28 
L 207.84365 128.16 
L 205.971538 128.16 
L 205.516285 107.961114 
z
M 203.068138 87.382015 
L 205.047095 87.382015 
L 204.059165 43.277154 
L 203.068138 87.382015 
z
" clip-path="url(#p9e973e39f4)" style="fill: #008000"/>
   </g>
   <g id="patch_15">
    <path d="M 208.242261 17.28 
L 215.815876 17.28 
L 215.815876 38.904689 
L 213.091136 38.904689 
L 213.091136 128.16 
L 210.972285 128.16 
L 210.972285 38.904689 
L 208.242261 38.904689 
L 208.242261 17.28 
z
" clip-path="url(#p9e973e39f4)" style="fill: #ff0000"/>
   </g>
   <g id="patch_16">
    <path d="M 216.214487 17.28 
L 223.788102 17.28 
L 223.788102 38.904689 
L 221.063362 38.904689 
L 221.063362 128.16 
L 218.944511 128.16 
L 218.944511 38.904689 
L 216.214487 38.904689 
L 216.214487 17.28 
z
" clip-path="url(#p9e973e39f4)" style="fill: #ff0000"/>
   </g>
   <g id="patch_17">
    <path d="M 224.186713 17.28 
L 231.760328 17.28 
L 231.760328 38.904689 
L 229.035588 38.904689 
L 229.035588 128.16 
L 226.916737 128.16 
L 226.916737 38.904689 
L 224.186713 38.904689 
L 224.186713 17.28 
z
" clip-path="url(#p9e973e39f4)" style="fill: #ff0000"/>
   </g>
   <g id="patch_18">
    <path d="M 232.158939 17.28 
L 239.732554 17.28 
L 239.732554 38.904689 
L 237.007814 38.904689 
L 237.007814 128.16 
L 234.888963 128.16 
L 234.888963 38.904689 
L 232.158939 38.904689 
L 232.158939 17.28 
z
" clip-path="url(#p9e973e39f4)" style="fill: #ff0000"/>
   </g>
   <g id="patch_19">
    <path d="M 245.377415 107.961114 
L 242.464725 107.961114 
L 242.004826 128.16 
L 240.131166 128.16 
L 242.806939 17.28 
L 245.029007 17.28 
L 247.70478 128.16 
L 245.832668 128.16 
L 245.377415 107.961114 
z
M 242.929269 87.382015 
L 244.908226 87.382015 
L 243.920296 43.277154 
L 242.929269 87.382015 
z
" clip-path="url(#p9e973e39f4)" style="fill: #008000"/>
   </g>
   <g id="patch_20">
    <path d="M 248.103392 17.28 
L 255.677007 17.28 
L 255.677007 38.904689 
L 252.952266 38.904689 
L 252.952266 128.16 
L 250.833416 128.16 
L 250.833416 38.904689 
L 248.103392 38.904689 
L 248.103392 17.28 
z
" clip-path="url(#p9e973e39f4)" style="fill: #ff0000"/>
   </g>
   <g id="patch_21">
    <path d="M 256.075618 17.28 
L 263.649233 17.28 
L 263.649233 38.904689 
L 260.924493 38.904689 
L 260.924493 128.16 
L 258.805642 128.16 
L 258.805642 38.904689 
L 256.075618 38.904689 
L 256.075618 17.28 
z
" clip-path="url(#p9e973e39f4)" style="fill: #ff0000"/>
   </g>
   <g id="patch_22">
    <path d="M 264.047844 17.28 
L 271.621459 17.28 
L 271.621459 38.904689 
L 268.896719 38.904689 
L 268.896719 128.16 
L 266.777868 128.16 
L 266.777868 38.904689 
L 264.047844 38.904689 
L 264.047844 17.28 
z
" clip-path="url(#p9e973e39f4)" style="fill: #ff0000"/>
   </g>
   <g id="patch_23">
    <path d="M 272.02007 17.28 
L 279.593685 17.28 
L 279.593685 38.904689 
L 276.868945 38.904689 
L 276.868945 128.16 
L 274.750094 128.16 
L 274.750094 38.904689 
L 272.02007 38.904689 
L 272.02007 17.28 
z
" clip-path="url(#p9e973e39f4)" style="fill: #ff0000"/>
   </g>
   <g id="patch_24">
    <path d="M 287.565911 118.127891 
Q 286.8021 123.143945 285.980578 125.663425 
Q 285.159056 128.16 284.283219 128.16 
Q 282.304099 128.16 281.148197 113.226358 
Q 279.992296 98.292716 279.992296 72.754357 
Q 279.992296 46.91824 281.168566 32.09912 
Q 282.346533 17.28 284.395245 17.28 
Q 285.184517 17.28 285.907591 19.295584 
Q 286.632364 21.288263 287.273965 25.227812 
L 287.273965 47.330518 
Q 286.611995 42.268655 285.956815 39.77208 
Q 285.301634 37.252601 284.643059 37.252601 
Q 283.424356 37.252601 282.764083 46.460153 
Q 282.10381 55.644801 282.10381 72.754357 
Q 282.10381 89.703582 282.74032 98.956943 
Q 283.37683 108.187399 284.548007 108.187399 
Q 284.867111 108.187399 285.140385 107.660599 
Q 285.41366 107.110894 285.630922 105.965677 
L 285.630922 85.214328 
L 284.383363 85.214328 
L 284.383363 66.73051 
L 287.565911 66.73051 
L 287.565911 118.127891 
z
" clip-path="url(#p9e973e39f4)" style="fill: #ffa600"/>
   </g>
   <g id="patch_25">
    <path d="M 293.210772 107.961114 
L 290.298081 107.961114 
L 289.838183 128.16 
L 287.964522 128.16 
L 290.640295 17.28 
L 292.862364 17.28 
L 295.538137 128.16 
L 293.666025 128.16 
L 293.210772 107.961114 
z
M 290.762625 87.382015 
L 292.741583 87.382015 
L 291.753652 43.277154 
L 290.762625 87.382015 
z
" clip-path="url(#p9e973e39f4)" style="fill: #008000"/>
   </g>
   <g id="patch_26">
    <path d="M 303.510363 120.212188 
Q 302.876843 124.151737 302.191802 126.144416 
Q 301.506761 128.16 300.760658 128.16 
Q 298.535706 128.16 297.236227 113.226358 
Q 295.936748 98.292716 295.936748 72.754357 
Q 295.936748 47.124379 297.236227 32.213642 
Q 298.535706 17.28 300.760658 17.28 
Q 301.506761 17.28 302.191802 19.295584 
Q 302.876843 21.288263 303.510363 25.227812 
L 303.510363 47.330518 
Q 302.871119 42.108325 302.250956 39.680463 
Q 301.630794 37.252601 300.945753 37.252601 
Q 299.716877 37.252601 299.012754 46.712101 
Q 298.310539 56.148697 298.310539 72.754357 
Q 298.310539 89.291303 299.012754 98.750804 
Q 299.716877 108.187399 300.945753 108.187399 
Q 301.630794 108.187399 302.250956 105.759537 
Q 302.871119 103.308771 303.510363 98.086577 
L 303.510363 120.212188 
z
" clip-path="url(#p9e973e39f4)" style="fill: #0000ff"/>
   </g>
   <g id="patch_27">
    <path d="M 303.908974 17.28 
L 311.482589 17.28 
L 311.482589 38.904689 
L 308.757849 38.904689 
L 308.757849 128.16 
L 306.638998 128.16 
L 306.638998 38.904689 
L 303.908974 38.904689 
L 303.908974 17.28 
z
" clip-path="url(#p9e973e39f4)" style="fill: #ff0000"/>
   </g>
   <g id="patch_28">
    <path d="M 319.454815 118.127891 
Q 318.691004 123.143945 317.869482 125.663425 
Q 317.047961 128.16 316.172124 128.16 
Q 314.193003 128.16 313.037102 113.226358 
Q 311.881201 98.292716 311.881201 72.754357 
Q 311.881201 46.91824 313.05747 32.09912 
Q 314.235437 17.28 316.284149 17.28 
Q 317.073421 17.28 317.796496 19.295584 
Q 318.521268 21.288263 319.16287 25.227812 
L 319.16287 47.330518 
Q 318.5009 42.268655 317.845719 39.77208 
Q 317.190539 37.252601 316.531964 37.252601 
Q 315.31326 37.252601 314.652987 46.460153 
Q 313.992715 55.644801 313.992715 72.754357 
Q 313.992715 89.703582 314.629224 98.956943 
Q 315.265734 108.187399 316.436912 108.187399 
Q 316.756015 108.187399 317.02929 107.660599 
Q 317.302564 107.110894 317.519826 105.965677 
L 317.519826 85.214328 
L 316.272268 85.214328 
L 316.272268 66.73051 
L 319.454815 66.73051 
L 319.454815 118.127891 
z
" clip-path="url(#p9e973e39f4)" style="fill: #ffa600"/>
   </g>
   <g id="patch_29">
    <path d="M 325.099676 107.961114 
L 322.186986 107.961114 
L 321.727087 128.16 
L 319.853427 128.16 
L 322.5292 17.28 
L 324.751268 17.28 
L 327.427042 128.16 
L 325.554929 128.16 
L 325.099676 107.961114 
z
M 322.65153 87.382015 
L 324.630487 87.382015 
L 323.642557 43.277154 
L 322.65153 87.382015 
z
" clip-path="url(#p9e973e39f4)" style="fill: #008000"/>
   </g>
   <g id="patch_30">
    <path d="M 327.825653 17.28 
L 335.399268 17.28 
L 335.399268 38.904689 
L 332.674528 38.904689 
L 332.674528 128.16 
L 330.555677 128.16 
L 330.555677 38.904689 
L 327.825653 38.904689 
L 327.825653 17.28 
z
" clip-path="url(#p9e973e39f4)" style="fill: #ff0000"/>
   </g>
   <g id="patch_31">
    <path d="M 341.044129 107.961114 
L 338.131438 107.961114 
L 337.67154 128.16 
L 335.797879 128.16 
L 338.473652 17.28 
L 340.695721 17.28 
L 343.371494 128.16 
L 341.499382 128.16 
L 341.044129 107.961114 
z
M 338.595982 87.382015 
L 340.574939 87.382015 
L 339.587009 43.277154 
L 338.595982 87.382015 
z
" clip-path="url(#p9e973e39f4)" style="fill: #008000"/>
   </g>
   <g id="patch_32">
    <path d="M 351.34372 118.127891 
Q 350.579908 123.143945 349.758387 125.663425 
Q 348.936865 128.16 348.061028 128.16 
Q 346.081908 128.16 344.926006 113.226358 
Q 343.770105 98.292716 343.770105 72.754357 
Q 343.770105 46.91824 344.946375 32.09912 
Q 346.124342 17.28 348.173054 17.28 
Q 348.962326 17.28 349.6854 19.295584 
Q 350.410173 21.288263 351.051774 25.227812 
L 351.051774 47.330518 
Q 350.389804 42.268655 349.734624 39.77208 
Q 349.079443 37.252601 348.420868 37.252601 
Q 347.202164 37.252601 346.541892 46.460153 
Q 345.881619 55.644801 345.881619 72.754357 
Q 345.881619 89.703582 346.518129 98.956943 
Q 347.154638 108.187399 348.325816 108.187399 
Q 348.644919 108.187399 348.918194 107.660599 
Q 349.191469 107.110894 349.408731 105.965677 
L 349.408731 85.214328 
L 348.161172 85.214328 
L 348.161172 66.73051 
L 351.34372 66.73051 
L 351.34372 118.127891 
z
" clip-path="url(#p9e973e39f4)" style="fill: #ffa600"/>
   </g>
   <g id="patch_33">
    <path d="M 351.742331 17.28 
L 359.315946 17.28 
L 359.315946 38.904689 
L 356.591206 38.904689 
L 356.591206 128.16 
L 354.472355 128.16 
L 354.472355 38.904689 
L 351.742331 38.904689 
L 351.742331 17.28 
z
" clip-path="url(#p9e973e39f4)" style="fill: #ff0000"/>
   </g>
   <g id="patch_34">
    <path d="M 367.288172 118.127891 
Q 366.524361 123.143945 365.702839 125.663425 
Q 364.881317 128.16 364.00548 128.16 
Q 362.02636 128.16 360.870459 113.226358 
Q 359.714557 98.292716 359.714557 72.754357 
Q 359.714557 46.91824 360.890827 32.09912 
Q 362.068794 17.28 364.117506 17.28 
Q 364.906778 17.28 365.629853 19.295584 
Q 366.354625 21.288263 366.996226 25.227812 
L 366.996226 47.330518 
Q 366.334256 42.268655 365.679076 39.77208 
Q 365.023895 37.252601 364.36532 37.252601 
Q 363.146617 37.252601 362.486344 46.460153 
Q 361.826072 55.644801 361.826072 72.754357 
Q 361.826072 89.703582 362.462581 98.956943 
Q 363.099091 108.187399 364.270268 108.187399 
Q 364.589372 108.187399 364.862646 107.660599 
Q 365.135921 107.110894 365.353183 105.965677 
L 365.353183 85.214328 
L 364.105624 85.214328 
L 364.105624 66.73051 
L 367.288172 66.73051 
L 367.288172 118.127891 
z
" clip-path="url(#p9e973e39f4)" style="fill: #ffa600"/>
   </g>
   <g id="patch_35">
    <path d="M 372.933033 107.961114 
L 370.020342 107.961114 
L 369.560444 128.16 
L 367.686783 128.16 
L 370.362557 17.28 
L 372.584625 17.28 
L 375.260398 128.16 
L 373.388286 128.16 
L 372.933033 107.961114 
z
M 370.484886 87.382015 
L 372.463844 87.382015 
L 371.475914 43.277154 
L 370.484886 87.382015 
z
" clip-path="url(#p9e973e39f4)" style="fill: #008000"/>
   </g>
   <g id="patch_36">
    <path d="M 383.232624 120.212188 
Q 382.599105 124.151737 381.914064 126.144416 
Q 381.229023 128.16 380.482919 128.16 
Q 378.257967 128.16 376.958488 113.226358 
Q 375.65901 98.292716 375.65901 72.754357 
Q 375.65901 47.124379 376.958488 32.213642 
Q 378.257967 17.28 380.482919 17.28 
Q 381.229023 17.28 381.914064 19.295584 
Q 382.599105 21.288263 383.232624 25.227812 
L 383.232624 47.330518 
Q 382.59338 42.108325 381.973217 39.680463 
Q 381.353055 37.252601 380.668014 37.252601 
Q 379.439138 37.252601 378.735015 46.712101 
Q 378.032801 56.148697 378.032801 72.754357 
Q 378.032801 89.291303 378.735015 98.750804 
Q 379.439138 108.187399 380.668014 108.187399 
Q 381.353055 108.187399 381.973217 105.759537 
Q 382.59338 103.308771 383.232624 98.086577 
L 383.232624 120.212188 
z
" clip-path="url(#p9e973e39f4)" style="fill: #0000ff"/>
   </g>
   <g id="patch_37">
    <path d="M 391.20485 120.212188 
Q 390.571331 124.151737 389.88629 126.144416 
Q 389.201249 128.16 388.455145 128.16 
Q 386.230193 128.16 384.930715 113.226358 
Q 383.631236 98.292716 383.631236 72.754357 
Q 383.631236 47.124379 384.930715 32.213642 
Q 386.230193 17.28 388.455145 17.28 
Q 389.201249 17.28 389.88629 19.295584 
Q 390.571331 21.288263 391.20485 25.227812 
L 391.20485 47.330518 
Q 390.565606 42.108325 389.945444 39.680463 
Q 389.325281 37.252601 388.64024 37.252601 
Q 387.411364 37.252601 386.707241 46.712101 
Q 386.005027 56.148697 386.005027 72.754357 
Q 386.005027 89.291303 386.707241 98.750804 
Q 387.411364 108.187399 388.64024 108.187399 
Q 389.325281 108.187399 389.945444 105.759537 
Q 390.565606 103.308771 391.20485 98.086577 
L 391.20485 120.212188 
z
" clip-path="url(#p9e973e39f4)" style="fill: #0000ff"/>
   </g>
   <g id="patch_38">
    <path d="M 391.603462 17.28 
L 399.177077 17.28 
L 399.177077 38.904689 
L 396.452337 38.904689 
L 396.452337 128.16 
L 394.333486 128.16 
L 394.333486 38.904689 
L 391.603462 38.904689 
L 391.603462 17.28 
z
" clip-path="url(#p9e973e39f4)" style="fill: #ff0000"/>
   </g>
   <g id="patch_39">
    <path d="M 407.149303 118.127891 
Q 406.385491 123.143945 405.56397 125.663425 
Q 404.742448 128.16 403.866611 128.16 
Q 401.88749 128.16 400.731589 113.226358 
Q 399.575688 98.292716 399.575688 72.754357 
Q 399.575688 46.91824 400.751957 32.09912 
Q 401.929924 17.28 403.978636 17.28 
Q 404.767908 17.28 405.490983 19.295584 
Q 406.215755 21.288263 406.857357 25.227812 
L 406.857357 47.330518 
Q 406.195387 42.268655 405.540207 39.77208 
Q 404.885026 37.252601 404.226451 37.252601 
Q 403.007747 37.252601 402.347475 46.460153 
Q 401.687202 55.644801 401.687202 72.754357 
Q 401.687202 89.703582 402.323712 98.956943 
Q 402.960221 108.187399 404.131399 108.187399 
Q 404.450502 108.187399 404.723777 107.660599 
Q 404.997052 107.110894 405.214314 105.965677 
L 405.214314 85.214328 
L 403.966755 85.214328 
L 403.966755 66.73051 
L 407.149303 66.73051 
L 407.149303 118.127891 
z
" clip-path="url(#p9e973e39f4)" style="fill: #ffa600"/>
   </g>
   <g id="patch_40">
    <path d="M 407.547914 17.28 
L 415.121529 17.28 
L 415.121529 38.904689 
L 412.396789 38.904689 
L 412.396789 128.16 
L 410.277938 128.16 
L 410.277938 38.904689 
L 407.547914 38.904689 
L 407.547914 17.28 
z
" clip-path="url(#p9e973e39f4)" style="fill: #ff0000"/>
   </g>
   <g id="patch_41">
    <path d="M 420.76639 127.904318 
L 417.853699 127.904318 
L 417.393801 128.16 
L 415.52014 128.16 
L 418.195913 126.756456 
L 420.417982 126.756456 
L 423.093755 128.16 
L 421.221643 128.16 
L 420.76639 127.904318 
z
M 418.318243 127.643823 
L 420.2972 127.643823 
L 419.30927 127.085534 
L 418.318243 127.643823 
z
" clip-path="url(#p9e973e39f4)" style="fill: #008000"/>
   </g>
   <g id="patch_42">
    <path d="M 415.52014 17.28 
L 423.093755 17.28 
L 423.093755 38.630959 
L 420.369015 38.630959 
L 420.369015 126.756456 
L 418.250164 126.756456 
L 418.250164 38.630959 
L 415.52014 38.630959 
L 415.52014 17.28 
z
" clip-path="url(#p9e973e39f4)" style="fill: #ff0000"/>
   </g>
   <g id="patch_43">
    <path d="M 431.065981 120.212188 
Q 430.432461 124.151737 429.74742 126.144416 
Q 429.062379 128.16 428.316276 128.16 
Q 426.091324 128.16 424.791845 113.226358 
Q 423.492366 98.292716 423.492366 72.754357 
Q 423.492366 47.124379 424.791845 32.213642 
Q 426.091324 17.28 428.316276 17.28 
Q 429.062379 17.28 429.74742 19.295584 
Q 430.432461 21.288263 431.065981 25.227812 
L 431.065981 47.330518 
Q 430.426737 42.108325 429.806574 39.680463 
Q 429.186412 37.252601 428.501371 37.252601 
Q 427.272495 37.252601 426.568372 46.712101 
Q 425.866157 56.148697 425.866157 72.754357 
Q 425.866157 89.291303 426.568372 98.750804 
Q 427.272495 108.187399 428.501371 108.187399 
Q 429.186412 108.187399 429.806574 105.759537 
Q 430.426737 103.308771 431.065981 98.086577 
L 431.065981 120.212188 
z
" clip-path="url(#p9e973e39f4)" style="fill: #0000ff"/>
   </g>
   <g id="patch_44">
    <path d="M 439.038207 118.127891 
Q 438.274396 123.143945 437.452874 125.663425 
Q 436.631352 128.16 435.755515 128.16 
Q 433.776395 128.16 432.620494 113.226358 
Q 431.464592 98.292716 431.464592 72.754357 
Q 431.464592 46.91824 432.640862 32.09912 
Q 433.818829 17.28 435.867541 17.28 
Q 436.656813 17.28 437.379888 19.295584 
Q 438.10466 21.288263 438.746261 25.227812 
L 438.746261 47.330518 
Q 438.084291 42.268655 437.429111 39.77208 
Q 436.773931 37.252601 436.115355 37.252601 
Q 434.896652 37.252601 434.236379 46.460153 
Q 433.576107 55.644801 433.576107 72.754357 
Q 433.576107 89.703582 434.212616 98.956943 
Q 434.849126 108.187399 436.020303 108.187399 
Q 436.339407 108.187399 436.612681 107.660599 
Q 436.885956 107.110894 437.103218 105.965677 
L 437.103218 85.214328 
L 435.855659 85.214328 
L 435.855659 66.73051 
L 439.038207 66.73051 
L 439.038207 118.127891 
z
" clip-path="url(#p9e973e39f4)" style="fill: #ffa600"/>
   </g>
   <g id="patch_45">
    <path d="M 439.436818 17.28 
L 447.010433 17.28 
L 447.010433 38.904689 
L 444.285693 38.904689 
L 444.285693 128.16 
L 442.166842 128.16 
L 442.166842 38.904689 
L 439.436818 38.904689 
L 439.436818 17.28 
z
" clip-path="url(#p9e973e39f4)" style="fill: #ff0000"/>
   </g>
   <g id="patch_46">
    <path d="M 454.982659 128.059395 
Q 454.34914 128.109262 453.664099 128.134486 
Q 452.979058 128.16 452.232954 128.16 
Q 450.008002 128.16 448.708523 127.970967 
Q 447.409045 127.781933 447.409045 127.458663 
Q 447.409045 127.134233 448.708523 126.945489 
Q 450.008002 126.756456 452.232954 126.756456 
Q 452.979058 126.756456 453.664099 126.781969 
Q 454.34914 126.807193 454.982659 126.857061 
L 454.982659 127.136842 
Q 454.343415 127.070738 453.723252 127.040006 
Q 453.10309 127.009273 452.418049 127.009273 
Q 451.189173 127.009273 450.48505 127.129014 
Q 449.782836 127.248465 449.782836 127.458663 
Q 449.782836 127.667991 450.48505 127.787732 
Q 451.189173 127.907182 452.418049 127.907182 
Q 453.10309 127.907182 453.723252 127.87645 
Q 454.343415 127.845427 454.982659 127.779324 
L 454.982659 128.059395 
z
" clip-path="url(#p9e973e39f4)" style="fill: #0000ff"/>
   </g>
   <g id="patch_47">
    <path d="M 447.409045 17.28 
L 454.982659 17.28 
L 454.982659 38.630959 
L 452.257919 38.630959 
L 452.257919 126.756456 
L 450.139068 126.756456 
L 450.139068 38.630959 
L 447.409045 38.630959 
L 447.409045 17.28 
z
" clip-path="url(#p9e973e39f4)" style="fill: #ff0000"/>
   </g>
   <g id="patch_48">
    <path d="M 462.954885 118.127891 
Q 462.191074 123.143945 461.369552 125.663425 
Q 460.548031 128.16 459.672194 128.16 
Q 457.693073 128.16 456.537172 113.226358 
Q 455.381271 98.292716 455.381271 72.754357 
Q 455.381271 46.91824 456.55754 32.09912 
Q 457.735507 17.28 459.784219 17.28 
Q 460.573491 17.28 461.296566 19.295584 
Q 462.021338 21.288263 462.66294 25.227812 
L 462.66294 47.330518 
Q 462.00097 42.268655 461.345789 39.77208 
Q 460.690609 37.252601 460.032034 37.252601 
Q 458.81333 37.252601 458.153057 46.460153 
Q 457.492785 55.644801 457.492785 72.754357 
Q 457.492785 89.703582 458.129294 98.956943 
Q 458.765804 108.187399 459.936982 108.187399 
Q 460.256085 108.187399 460.52936 107.660599 
Q 460.802635 107.110894 461.019896 105.965677 
L 461.019896 85.214328 
L 459.772338 85.214328 
L 459.772338 66.73051 
L 462.954885 66.73051 
L 462.954885 118.127891 
z
" clip-path="url(#p9e973e39f4)" style="fill: #ffa600"/>
   </g>
   <g id="patch_49">
    <path d="M 468.599746 127.904318 
L 465.687056 127.904318 
L 465.227157 128.16 
L 463.353497 128.16 
L 466.02927 126.756456 
L 468.251338 126.756456 
L 470.927112 128.16 
L 469.054999 128.16 
L 468.599746 127.904318 
z
M 466.1516 127.643823 
L 468.130557 127.643823 
L 467.142627 127.085534 
L 466.1516 127.643823 
z
" clip-path="url(#p9e973e39f4)" style="fill: #008000"/>
   </g>
   <g id="patch_50">
    <path d="M 470.927112 118.909248 
Q 470.293592 122.79893 469.608551 124.766386 
Q 468.92351 126.756456 468.177407 126.756456 
Q 465.952455 126.756456 464.652976 112.011847 
Q 463.353497 97.267239 463.353497 72.052149 
Q 463.353497 46.746602 464.652976 32.024608 
Q 465.952455 17.28 468.177407 17.28 
Q 468.92351 17.28 469.608551 19.27007 
Q 470.293592 21.237525 470.927112 25.127207 
L 470.927112 46.950132 
Q 470.287867 41.794042 469.667705 39.396913 
Q 469.047542 36.999783 468.362501 36.999783 
Q 467.133625 36.999783 466.429503 46.339543 
Q 465.727288 55.656688 465.727288 72.052149 
Q 465.727288 88.379768 466.429503 97.719528 
Q 467.133625 107.036673 468.362501 107.036673 
Q 469.047542 107.036673 469.667705 104.639543 
Q 470.287867 102.219799 470.927112 97.063709 
L 470.927112 118.909248 
z
" clip-path="url(#p9e973e39f4)" style="fill: #0000ff"/>
   </g>
   <g id="patch_51">
    <path d="M 476.571972 107.961114 
L 473.659282 107.961114 
L 473.199383 128.16 
L 471.325723 128.16 
L 474.001496 17.28 
L 476.223565 17.28 
L 478.899338 128.16 
L 477.027226 128.16 
L 476.571972 107.961114 
z
M 474.123826 87.382015 
L 476.102783 87.382015 
L 475.114853 43.277154 
L 474.123826 87.382015 
z
" clip-path="url(#p9e973e39f4)" style="fill: #008000"/>
   </g>
   <g id="patch_52">
    <path d="M 484.544199 107.961114 
L 481.631508 107.961114 
L 481.17161 128.16 
L 479.297949 128.16 
L 481.973722 17.28 
L 484.195791 17.28 
L 486.871564 128.16 
L 484.999452 128.16 
L 484.544199 107.961114 
z
M 482.096052 87.382015 
L 484.075009 87.382015 
L 483.087079 43.277154 
L 482.096052 87.382015 
z
" clip-path="url(#p9e973e39f4)" style="fill: #008000"/>
   </g>
   <g id="patch_53">
    <path d="M 494.84379 120.212188 
Q 494.21027 124.151737 493.525229 126.144416 
Q 492.840188 128.16 492.094085 128.16 
Q 489.869133 128.16 488.569654 113.226358 
Q 487.270175 98.292716 487.270175 72.754357 
Q 487.270175 47.124379 488.569654 32.213642 
Q 489.869133 17.28 492.094085 17.28 
Q 492.840188 17.28 493.525229 19.295584 
Q 494.21027 21.288263 494.84379 25.227812 
L 494.84379 47.330518 
Q 494.204546 42.108325 493.584383 39.680463 
Q 492.964221 37.252601 492.27918 37.252601 
Q 491.050304 37.252601 490.346181 46.712101 
Q 489.643966 56.148697 489.643966 72.754357 
Q 489.643966 89.291303 490.346181 98.750804 
Q 491.050304 108.187399 492.27918 108.187399 
Q 492.964221 108.187399 493.584383 105.759537 
Q 494.204546 103.308771 494.84379 98.086577 
L 494.84379 120.212188 
z
" clip-path="url(#p9e973e39f4)" style="fill: #0000ff"/>
   </g>
   <g id="patch_54">
    <path d="M 500.488651 107.961114 
L 497.57596 107.961114 
L 497.116062 128.16 
L 495.242401 128.16 
L 497.918174 17.28 
L 500.140243 17.28 
L 502.816016 128.16 
L 500.943904 128.16 
L 500.488651 107.961114 
z
M 498.040504 87.382015 
L 500.019461 87.382015 
L 499.031531 43.277154 
L 498.040504 87.382015 
z
" clip-path="url(#p9e973e39f4)" style="fill: #008000"/>
   </g>
   <g id="patch_55">
    <path d="M 508.460877 107.961114 
L 505.548186 107.961114 
L 505.088288 128.16 
L 503.214627 128.16 
L 505.8904 17.28 
L 508.112469 17.28 
L 510.788242 128.16 
L 508.91613 128.16 
L 508.460877 107.961114 
z
M 506.01273 87.382015 
L 507.991688 87.382015 
L 507.003757 43.277154 
L 506.01273 87.382015 
z
" clip-path="url(#p9e973e39f4)" style="fill: #008000"/>
   </g>
   <g id="patch_56">
    <path d="M 516.433103 107.961114 
L 513.520413 107.961114 
L 513.060514 128.16 
L 511.186853 128.16 
L 513.862627 17.28 
L 516.084695 17.28 
L 518.760468 128.16 
L 516.888356 128.16 
L 516.433103 107.961114 
z
M 513.984956 87.382015 
L 515.963914 87.382015 
L 514.975984 43.277154 
L 513.984956 87.382015 
z
" clip-path="url(#p9e973e39f4)" style="fill: #008000"/>
   </g>
   <g id="patch_57">
    <path d="M 519.15908 17.28 
L 526.732694 17.28 
L 526.732694 38.904689 
L 524.007954 38.904689 
L 524.007954 128.16 
L 521.889103 128.16 
L 521.889103 38.904689 
L 519.15908 38.904689 
L 519.15908 17.28 
z
" clip-path="url(#p9e973e39f4)" style="fill: #ff0000"/>
   </g>
   <g id="patch_58">
    <path d="M 527.131306 17.28 
L 534.70492 17.28 
L 534.70492 38.904689 
L 531.98018 38.904689 
L 531.98018 128.16 
L 529.86133 128.16 
L 529.86133 38.904689 
L 527.131306 38.904689 
L 527.131306 17.28 
z
" clip-path="url(#p9e973e39f4)" style="fill: #ff0000"/>
   </g>
   <g id="patch_59">
    <path d="M 542.677147 118.127891 
Q 541.913335 123.143945 541.091813 125.663425 
Q 540.270292 128.16 539.394455 128.16 
Q 537.415334 128.16 536.259433 113.226358 
Q 535.103532 98.292716 535.103532 72.754357 
Q 535.103532 46.91824 536.279801 32.09912 
Q 537.457768 17.28 539.50648 17.28 
Q 540.295752 17.28 541.018827 19.295584 
Q 541.743599 21.288263 542.385201 25.227812 
L 542.385201 47.330518 
Q 541.723231 42.268655 541.06805 39.77208 
Q 540.41287 37.252601 539.754295 37.252601 
Q 538.535591 37.252601 537.875319 46.460153 
Q 537.215046 55.644801 537.215046 72.754357 
Q 537.215046 89.703582 537.851556 98.956943 
Q 538.488065 108.187399 539.659243 108.187399 
Q 539.978346 108.187399 540.251621 107.660599 
Q 540.524896 107.110894 540.742158 105.965677 
L 540.742158 85.214328 
L 539.494599 85.214328 
L 539.494599 66.73051 
L 542.677147 66.73051 
L 542.677147 118.127891 
z
" clip-path="url(#p9e973e39f4)" style="fill: #ffa600"/>
   </g>
   <g id="patch_60">
    <path d="M 548.322008 107.961114 
L 545.409317 107.961114 
L 544.949418 128.16 
L 543.075758 128.16 
L 545.751531 17.28 
L 547.9736 17.28 
L 550.649373 128.16 
L 548.777261 128.16 
L 548.322008 107.961114 
z
M 545.873861 87.382015 
L 547.852818 87.382015 
L 546.864888 43.277154 
L 545.873861 87.382015 
z
" clip-path="url(#p9e973e39f4)" style="fill: #008000"/>
   </g>
   <g id="patch_61">
    <path d="M 551.047984 17.28 
L 558.621599 17.28 
L 558.621599 38.904689 
L 555.896859 38.904689 
L 555.896859 128.16 
L 553.778008 128.16 
L 553.778008 38.904689 
L 551.047984 38.904689 
L 551.047984 17.28 
z
" clip-path="url(#p9e973e39f4)" style="fill: #ff0000"/>
   </g>
   <g id="patch_62">
    <path d="M 566.593825 127.14409 
Q 565.830013 127.652045 565.008492 127.907182 
Q 564.18697 128.16 563.311133 128.16 
Q 561.332013 128.16 560.176111 126.647732 
Q 559.02021 125.135465 559.02021 122.549302 
Q 559.02021 119.932986 560.19648 118.432316 
Q 561.374447 116.931646 563.423159 116.931646 
Q 564.212431 116.931646 564.935505 117.135755 
Q 565.660278 117.337546 566.301879 117.736487 
L 566.301879 119.974736 
Q 565.639909 119.462142 564.984729 119.209325 
Q 564.329548 118.954187 563.670973 118.954187 
Q 562.45227 118.954187 561.791997 119.886598 
Q 561.131724 120.816689 561.131724 122.549302 
Q 561.131724 124.265679 561.768234 125.202728 
Q 562.404743 126.137458 563.575921 126.137458 
Q 563.895024 126.137458 564.168299 126.084111 
Q 564.441574 126.028445 564.658836 125.912474 
L 564.658836 123.811071 
L 563.411277 123.811071 
L 563.411277 121.939292 
L 566.593825 121.939292 
L 566.593825 127.14409 
z
" clip-path="url(#p9e973e39f4)" style="fill: #ffa600"/>
   </g>
   <g id="patch_63">
    <path d="M 564.26646 98.778217 
L 561.353769 98.778217 
L 560.893871 116.931646 
L 559.02021 116.931646 
L 561.695983 17.28 
L 563.918052 17.28 
L 566.593825 116.931646 
L 564.721713 116.931646 
L 564.26646 98.778217 
z
M 561.818313 80.283076 
L 563.79727 80.283076 
L 562.80934 40.644531 
L 561.818313 80.283076 
z
" clip-path="url(#p9e973e39f4)" style="fill: #008000"/>
   </g>
   <g id="patch_64">
    <path d="M 572.238686 107.961114 
L 569.325995 107.961114 
L 568.866097 128.16 
L 566.992436 128.16 
L 569.668209 17.28 
L 571.890278 17.28 
L 574.566051 128.16 
L 572.693939 128.16 
L 572.238686 107.961114 
z
M 569.790539 87.382015 
L 571.769496 87.382015 
L 570.781566 43.277154 
L 569.790539 87.382015 
z
" clip-path="url(#p9e973e39f4)" style="fill: #008000"/>
   </g>
   <g id="patch_65">
    <path d="M 582.538277 118.127891 
Q 581.774466 123.143945 580.952944 125.663425 
Q 580.131422 128.16 579.255585 128.16 
Q 577.276465 128.16 576.120564 113.226358 
Q 574.964662 98.292716 574.964662 72.754357 
Q 574.964662 46.91824 576.140932 32.09912 
Q 577.318899 17.28 579.367611 17.28 
Q 580.156883 17.28 580.879958 19.295584 
Q 581.60473 21.288263 582.246331 25.227812 
L 582.246331 47.330518 
Q 581.584362 42.268655 580.929181 39.77208 
Q 580.274001 37.252601 579.615425 37.252601 
Q 578.396722 37.252601 577.736449 46.460153 
Q 577.076177 55.644801 577.076177 72.754357 
Q 577.076177 89.703582 577.712686 98.956943 
Q 578.349196 108.187399 579.520373 108.187399 
Q 579.839477 108.187399 580.112751 107.660599 
Q 580.386026 107.110894 580.603288 105.965677 
L 580.603288 85.214328 
L 579.355729 85.214328 
L 579.355729 66.73051 
L 582.538277 66.73051 
L 582.538277 118.127891 
z
" clip-path="url(#p9e973e39f4)" style="fill: #ffa600"/>
   </g>
   <g id="patch_66">
    <path d="M 590.510503 120.212188 
Q 589.876983 124.151737 589.191942 126.144416 
Q 588.506901 128.16 587.760798 128.16 
Q 585.535846 128.16 584.236367 113.226358 
Q 582.936888 98.292716 582.936888 72.754357 
Q 582.936888 47.124379 584.236367 32.213642 
Q 585.535846 17.28 587.760798 17.28 
Q 588.506901 17.28 589.191942 19.295584 
Q 589.876983 21.288263 590.510503 25.227812 
L 590.510503 47.330518 
Q 589.871259 42.108325 589.251096 39.680463 
Q 588.630934 37.252601 587.945893 37.252601 
Q 586.717017 37.252601 586.012894 46.712101 
Q 585.31068 56.148697 585.31068 72.754357 
Q 585.31068 89.291303 586.012894 98.750804 
Q 586.717017 108.187399 587.945893 108.187399 
Q 588.630934 108.187399 589.251096 105.759537 
Q 589.871259 103.308771 590.510503 98.086577 
L 590.510503 120.212188 
z
" clip-path="url(#p9e973e39f4)" style="fill: #0000ff"/>
   </g>
   <g id="patch_67">
    <path d="M 596.155364 107.961114 
L 593.242674 107.961114 
L 592.782775 128.16 
L 590.909115 128.16 
L 593.584888 17.28 
L 595.806956 17.28 
L 598.482729 128.16 
L 596.610617 128.16 
L 596.155364 107.961114 
z
M 593.707218 87.382015 
L 595.686175 87.382015 
L 594.698245 43.277154 
L 593.707218 87.382015 
z
" clip-path="url(#p9e973e39f4)" style="fill: #008000"/>
   </g>
   <g id="patch_68">
    <path d="M 604.12759 107.961114 
L 601.2149 107.961114 
L 600.755001 128.16 
L 598.881341 128.16 
L 601.557114 17.28 
L 603.779182 17.28 
L 606.454955 128.16 
L 604.582843 128.16 
L 604.12759 107.961114 
z
M 601.679444 87.382015 
L 603.658401 87.382015 
L 602.670471 43.277154 
L 601.679444 87.382015 
z
" clip-path="url(#p9e973e39f4)" style="fill: #008000"/>
   </g>
   <g id="patch_69">
    <path d="M 606.853567 17.28 
L 614.427182 17.28 
L 614.427182 38.904689 
L 611.702442 38.904689 
L 611.702442 128.16 
L 609.583591 128.16 
L 609.583591 38.904689 
L 606.853567 38.904689 
L 606.853567 17.28 
z
" clip-path="url(#p9e973e39f4)" style="fill: #ff0000"/>
   </g>
   <g id="patch_70">
    <path d="M 614.825793 125.352911 
L 622.399408 125.352911 
L 622.399408 125.900372 
L 619.674668 125.900372 
L 619.674668 128.16 
L 617.555817 128.16 
L 617.555817 125.900372 
L 614.825793 125.900372 
L 614.825793 125.352911 
z
" clip-path="url(#p9e973e39f4)" style="fill: #ff0000"/>
   </g>
   <g id="patch_71">
    <path d="M 622.399408 115.57478 
Q 621.635596 120.463846 620.814075 122.919541 
Q 619.992553 125.352911 619.116716 125.352911 
Q 617.137596 125.352911 615.981694 110.797336 
Q 614.825793 96.241762 614.825793 71.349942 
Q 614.825793 46.167905 616.002063 31.723952 
Q 617.18003 17.28 619.228742 17.28 
Q 620.018013 17.28 620.741088 19.244556 
Q 621.46586 21.186788 622.107462 25.026602 
L 622.107462 46.569746 
Q 621.445492 41.636031 620.790312 39.20266 
Q 620.135131 36.746965 619.476556 36.746965 
Q 618.257852 36.746965 617.59758 45.721415 
Q 616.937307 54.67354 616.937307 71.349942 
Q 616.937307 87.870074 617.573817 96.889172 
Q 618.210326 105.885946 619.381504 105.885946 
Q 619.700607 105.885946 619.973882 105.372483 
Q 620.247157 104.836695 620.464419 103.72047 
L 620.464419 83.494471 
L 619.21686 83.494471 
L 619.21686 65.478599 
L 622.399408 65.478599 
L 622.399408 115.57478 
z
" clip-path="url(#p9e973e39f4)" style="fill: #ffa600"/>
   </g>
   <g id="patch_72">
    <path d="M 628.044269 127.648636 
L 625.131578 127.648636 
L 624.67168 128.16 
L 622.798019 128.16 
L 625.473792 125.352911 
L 627.695861 125.352911 
L 630.371634 128.16 
L 628.499522 128.16 
L 628.044269 127.648636 
z
M 625.596122 127.127646 
L 627.575079 127.127646 
L 626.587149 126.011067 
L 625.596122 127.127646 
z
" clip-path="url(#p9e973e39f4)" style="fill: #008000"/>
   </g>
   <g id="patch_73">
    <path d="M 630.371634 117.606309 
Q 629.738114 121.446124 629.053073 123.388355 
Q 628.368032 125.352911 627.621929 125.352911 
Q 625.396977 125.352911 624.097498 110.797336 
Q 622.798019 96.241762 622.798019 71.349942 
Q 622.798019 46.368825 624.097498 31.835575 
Q 625.396977 17.28 627.621929 17.28 
Q 628.368032 17.28 629.053073 19.244556 
Q 629.738114 21.186788 630.371634 25.026602 
L 630.371634 46.569746 
Q 629.732389 41.47976 629.112227 39.113362 
Q 628.492065 36.746965 627.807024 36.746965 
Q 626.578148 36.746965 625.874025 45.966984 
Q 625.17181 55.164679 625.17181 71.349942 
Q 625.17181 87.468232 625.874025 96.688252 
Q 626.578148 105.885946 627.807024 105.885946 
Q 628.492065 105.885946 629.112227 103.519549 
Q 629.732389 101.130827 630.371634 96.040841 
L 630.371634 117.606309 
z
" clip-path="url(#p9e973e39f4)" style="fill: #0000ff"/>
   </g>
   <g id="patch_74">
    <path d="M 630.770245 17.28 
L 638.34386 17.28 
L 638.34386 38.904689 
L 635.61912 38.904689 
L 635.61912 128.16 
L 633.500269 128.16 
L 633.500269 38.904689 
L 630.770245 38.904689 
L 630.770245 17.28 
z
" clip-path="url(#p9e973e39f4)" style="fill: #ff0000"/>
   </g>
   <g id="patch_75">
    <path d="M 638.742471 17.28 
L 646.316086 17.28 
L 646.316086 38.904689 
L 643.591346 38.904689 
L 643.591346 128.16 
L 641.472495 128.16 
L 641.472495 38.904689 
L 638.742471 38.904689 
L 638.742471 17.28 
z
" clip-path="url(#p9e973e39f4)" style="fill: #ff0000"/>
   </g>
   <g id="patch_76">
    <path d="M 646.714697 17.28 
L 654.288312 17.28 
L 654.288312 38.904689 
L 651.563572 38.904689 
L 651.563572 128.16 
L 649.444721 128.16 
L 649.444721 38.904689 
L 646.714697 38.904689 
L 646.714697 17.28 
z
" clip-path="url(#p9e973e39f4)" style="fill: #ff0000"/>
   </g>
   <g id="patch_77">
    <path d="M 654.686923 115.528101 
L 662.260538 115.528101 
L 662.260538 117.991673 
L 659.535798 117.991673 
L 659.535798 128.16 
L 657.416947 128.16 
L 657.416947 117.991673 
L 654.686923 117.991673 
L 654.686923 115.528101 
z
" clip-path="url(#p9e973e39f4)" style="fill: #ff0000"/>
   </g>
   <g id="patch_78">
    <path d="M 662.260538 108.485736 
Q 661.627018 111.976476 660.941977 113.742141 
Q 660.256936 115.528101 659.510833 115.528101 
Q 657.285881 115.528101 655.986402 102.29576 
Q 654.686923 89.06342 654.686923 66.434493 
Q 654.686923 43.724387 655.986402 30.512341 
Q 657.285881 17.28 659.510833 17.28 
Q 660.256936 17.28 660.941977 19.06596 
Q 661.627018 20.831625 662.260538 24.322365 
L 662.260538 43.907042 
Q 661.621294 39.279781 661.001131 37.128511 
Q 660.380969 34.977241 659.695928 34.977241 
Q 658.467052 34.977241 657.762929 43.359077 
Q 657.060715 51.720617 657.060715 66.434493 
Q 657.060715 81.087484 657.762929 89.46932 
Q 658.467052 97.83086 659.695928 97.83086 
Q 660.380969 97.83086 661.001131 95.67959 
Q 661.621294 93.508025 662.260538 88.880765 
L 662.260538 108.485736 
z
" clip-path="url(#p9e973e39f4)" style="fill: #0000ff"/>
   </g>
   <g id="patch_79">
    <path d="M 670.232764 126.550316 
Q 669.599245 127.3482 668.914204 127.751781 
Q 668.229163 128.16 667.483059 128.16 
Q 665.258107 128.16 663.958628 125.135465 
Q 662.65915 122.11093 662.65915 116.938604 
Q 662.65915 111.747722 663.958628 108.727826 
Q 665.258107 105.703291 667.483059 105.703291 
Q 668.229163 105.703291 668.914204 106.111511 
Q 669.599245 106.515091 670.232764 107.312975 
L 670.232764 111.789472 
Q 669.59352 110.731813 668.973358 110.240094 
Q 668.353195 109.748375 667.668154 109.748375 
Q 666.439278 109.748375 665.735155 111.664223 
Q 665.032941 113.575432 665.032941 116.938604 
Q 665.032941 120.287859 665.735155 122.203707 
Q 666.439278 124.114916 667.668154 124.114916 
Q 668.353195 124.114916 668.973358 123.623197 
Q 669.59352 123.12684 670.232764 122.06918 
L 670.232764 126.550316 
z
" clip-path="url(#p9e973e39f4)" style="fill: #0000ff"/>
   </g>
   <g id="patch_80">
    <path d="M 662.65915 17.28 
L 670.232764 17.28 
L 670.232764 34.525005 
L 667.508024 34.525005 
L 667.508024 105.703291 
L 665.389174 105.703291 
L 665.389174 34.525005 
L 662.65915 34.525005 
L 662.65915 17.28 
z
" clip-path="url(#p9e973e39f4)" style="fill: #ff0000"/>
   </g>
   <g id="patch_81">
    <path d="M 670.631376 17.28 
L 678.20499 17.28 
L 678.20499 38.904689 
L 675.48025 38.904689 
L 675.48025 128.16 
L 673.3614 128.16 
L 673.3614 38.904689 
L 670.631376 38.904689 
L 670.631376 17.28 
z
" clip-path="url(#p9e973e39f4)" style="fill: #ff0000"/>
   </g>
   <g id="patch_82">
    <path d="M 683.849851 107.961114 
L 680.937161 107.961114 
L 680.477262 128.16 
L 678.603602 128.16 
L 681.279375 17.28 
L 683.501443 17.28 
L 686.177217 128.16 
L 684.305105 128.16 
L 683.849851 107.961114 
z
M 681.401705 87.382015 
L 683.380662 87.382015 
L 682.392732 43.277154 
L 681.401705 87.382015 
z
" clip-path="url(#p9e973e39f4)" style="fill: #008000"/>
   </g>
   <g id="patch_83">
    <path d="M 686.575828 17.28 
L 694.149443 17.28 
L 694.149443 38.904689 
L 691.424703 38.904689 
L 691.424703 128.16 
L 689.305852 128.16 
L 689.305852 38.904689 
L 686.575828 38.904689 
L 686.575828 17.28 
z
" clip-path="url(#p9e973e39f4)" style="fill: #ff0000"/>
   </g>
   <g id="patch_84">
    <path d="M 699.794304 107.961114 
L 696.881613 107.961114 
L 696.421715 128.16 
L 694.548054 128.16 
L 697.223827 17.28 
L 699.445896 17.28 
L 702.121669 128.16 
L 700.249557 128.16 
L 699.794304 107.961114 
z
M 697.346157 87.382015 
L 699.325114 87.382015 
L 698.337184 43.277154 
L 697.346157 87.382015 
z
" clip-path="url(#p9e973e39f4)" style="fill: #008000"/>
   </g>
   <g id="patch_85">
    <path d="M 707.76653 107.961114 
L 704.853839 107.961114 
L 704.393941 128.16 
L 702.52028 128.16 
L 705.196053 17.28 
L 707.418122 17.28 
L 710.093895 128.16 
L 708.221783 128.16 
L 707.76653 107.961114 
z
M 705.318383 87.382015 
L 707.29734 87.382015 
L 706.30941 43.277154 
L 705.318383 87.382015 
z
" clip-path="url(#p9e973e39f4)" style="fill: #008000"/>
   </g>
   <g id="patch_86">
    <path d="M 710.492506 17.28 
L 718.066121 17.28 
L 718.066121 38.904689 
L 715.341381 38.904689 
L 715.341381 128.16 
L 713.22253 128.16 
L 713.22253 38.904689 
L 710.492506 38.904689 
L 710.492506 17.28 
z
" clip-path="url(#p9e973e39f4)" style="fill: #ff0000"/>
   </g>
   <g id="patch_87">
    <path d="M 726.038347 118.127891 
Q 725.274536 123.143945 724.453014 125.663425 
Q 723.631492 128.16 722.755655 128.16 
Q 720.776535 128.16 719.620634 113.226358 
Q 718.464732 98.292716 718.464732 72.754357 
Q 718.464732 46.91824 719.641002 32.09912 
Q 720.818969 17.28 722.867681 17.28 
Q 723.656953 17.28 724.380028 19.295584 
Q 725.1048 21.288263 725.746401 25.227812 
L 725.746401 47.330518 
Q 725.084432 42.268655 724.429251 39.77208 
Q 723.774071 37.252601 723.115495 37.252601 
Q 721.896792 37.252601 721.236519 46.460153 
Q 720.576247 55.644801 720.576247 72.754357 
Q 720.576247 89.703582 721.212756 98.956943 
Q 721.849266 108.187399 723.020443 108.187399 
Q 723.339547 108.187399 723.612821 107.660599 
Q 723.886096 107.110894 724.103358 105.965677 
L 724.103358 85.214328 
L 722.855799 85.214328 
L 722.855799 66.73051 
L 726.038347 66.73051 
L 726.038347 118.127891 
z
" clip-path="url(#p9e973e39f4)" style="fill: #ffa600"/>
   </g>
   <g id="patch_88">
    <path d="M 731.683208 127.904318 
L 728.770518 127.904318 
L 728.310619 128.16 
L 726.436958 128.16 
L 729.112732 126.756456 
L 731.3348 126.756456 
L 734.010573 128.16 
L 732.138461 128.16 
L 731.683208 127.904318 
z
M 729.235062 127.643823 
L 731.214019 127.643823 
L 730.226089 127.085534 
L 729.235062 127.643823 
z
" clip-path="url(#p9e973e39f4)" style="fill: #008000"/>
   </g>
   <g id="patch_89">
    <path d="M 734.010573 118.909248 
Q 733.377053 122.79893 732.692012 124.766386 
Q 732.006971 126.756456 731.260868 126.756456 
Q 729.035916 126.756456 727.736437 112.011847 
Q 726.436958 97.267239 726.436958 72.052149 
Q 726.436958 46.746602 727.736437 32.024608 
Q 729.035916 17.28 731.260868 17.28 
Q 732.006971 17.28 732.692012 19.27007 
Q 733.377053 21.237525 734.010573 25.127207 
L 734.010573 46.950132 
Q 733.371329 41.794042 732.751166 39.396913 
Q 732.131004 36.999783 731.445963 36.999783 
Q 730.217087 36.999783 729.512964 46.339543 
Q 728.81075 55.656688 728.81075 72.052149 
Q 728.81075 88.379768 729.512964 97.719528 
Q 730.217087 107.036673 731.445963 107.036673 
Q 732.131004 107.036673 732.751166 104.639543 
Q 733.371329 102.219799 734.010573 97.063709 
L 734.010573 118.909248 
z
" clip-path="url(#p9e973e39f4)" style="fill: #0000ff"/>
   </g>
   <g id="patch_90">
    <path d="M 741.982799 120.212188 
Q 741.34928 124.151737 740.664239 126.144416 
Q 739.979198 128.16 739.233094 128.16 
Q 737.008142 128.16 735.708663 113.226358 
Q 734.409185 98.292716 734.409185 72.754357 
Q 734.409185 47.124379 735.708663 32.213642 
Q 737.008142 17.28 739.233094 17.28 
Q 739.979198 17.28 740.664239 19.295584 
Q 741.34928 21.288263 741.982799 25.227812 
L 741.982799 47.330518 
Q 741.343555 42.108325 740.723393 39.680463 
Q 740.10323 37.252601 739.418189 37.252601 
Q 738.189313 37.252601 737.48519 46.712101 
Q 736.782976 56.148697 736.782976 72.754357 
Q 736.782976 89.291303 737.48519 98.750804 
Q 738.189313 108.187399 739.418189 108.187399 
Q 740.10323 108.187399 740.723393 105.759537 
Q 741.343555 103.308771 741.982799 98.086577 
L 741.982799 120.212188 
z
" clip-path="url(#p9e973e39f4)" style="fill: #0000ff"/>
   </g>
   <g id="patch_91">
    <path d="M 749.955026 127.95879 
Q 749.321506 128.058525 748.636465 128.108973 
Q 747.951424 128.16 747.205321 128.16 
Q 744.980368 128.16 743.68089 127.781933 
Q 742.381411 127.403866 742.381411 126.757325 
Q 742.381411 126.108465 743.68089 125.730978 
Q 744.980368 125.352911 747.205321 125.352911 
Q 747.951424 125.352911 748.636465 125.403939 
Q 749.321506 125.454386 749.955026 125.554122 
L 749.955026 126.113684 
Q 749.315781 125.981477 748.695619 125.920012 
Q 748.075456 125.858547 747.390415 125.858547 
Q 746.161539 125.858547 745.457417 126.098028 
Q 744.755202 126.336929 744.755202 126.757325 
Q 744.755202 127.175982 745.457417 127.415463 
Q 746.161539 127.654365 747.390415 127.654365 
Q 748.075456 127.654365 748.695619 127.5929 
Q 749.315781 127.530855 749.955026 127.398648 
L 749.955026 127.95879 
z
" clip-path="url(#p9e973e39f4)" style="fill: #0000ff"/>
   </g>
   <g id="patch_92">
    <path d="M 747.62766 105.66539 
L 744.71497 105.66539 
L 744.255071 125.352911 
L 742.381411 125.352911 
L 745.057184 17.28 
L 747.279252 17.28 
L 749.955026 125.352911 
L 748.082913 125.352911 
L 747.62766 105.66539 
z
M 745.179514 85.60728 
L 747.158471 85.60728 
L 746.170541 42.618998 
L 745.179514 85.60728 
z
" clip-path="url(#p9e973e39f4)" style="fill: #008000"/>
   </g>
   <g id="patch_93">
    <path d="M 755.599886 107.961114 
L 752.687196 107.961114 
L 752.227297 128.16 
L 750.353637 128.16 
L 753.02941 17.28 
L 755.251478 17.28 
L 757.927252 128.16 
L 756.05514 128.16 
L 755.599886 107.961114 
z
M 753.15174 87.382015 
L 755.130697 87.382015 
L 754.142767 43.277154 
L 753.15174 87.382015 
z
" clip-path="url(#p9e973e39f4)" style="fill: #008000"/>
   </g>
   <g id="patch_94">
    <path d="M 765.899478 120.212188 
Q 765.265958 124.151737 764.580917 126.144416 
Q 763.895876 128.16 763.149773 128.16 
Q 760.924821 128.16 759.625342 113.226358 
Q 758.325863 98.292716 758.325863 72.754357 
Q 758.325863 47.124379 759.625342 32.213642 
Q 760.924821 17.28 763.149773 17.28 
Q 763.895876 17.28 764.580917 19.295584 
Q 765.265958 21.288263 765.899478 25.227812 
L 765.899478 47.330518 
Q 765.260233 42.108325 764.640071 39.680463 
Q 764.019908 37.252601 763.334867 37.252601 
Q 762.105992 37.252601 761.401869 46.712101 
Q 760.699654 56.148697 760.699654 72.754357 
Q 760.699654 89.291303 761.401869 98.750804 
Q 762.105992 108.187399 763.334867 108.187399 
Q 764.019908 108.187399 764.640071 105.759537 
Q 765.260233 103.308771 765.899478 98.086577 
L 765.899478 120.212188 
z
" clip-path="url(#p9e973e39f4)" style="fill: #0000ff"/>
   </g>
   <g id="patch_95">
    <path d="M 766.298089 17.28 
L 773.871704 17.28 
L 773.871704 38.904689 
L 771.146964 38.904689 
L 771.146964 128.16 
L 769.028113 128.16 
L 769.028113 38.904689 
L 766.298089 38.904689 
L 766.298089 17.28 
z
" clip-path="url(#p9e973e39f4)" style="fill: #ff0000"/>
   </g>
   <g id="patch_96">
    <path d="M 774.270315 17.28 
L 781.84393 17.28 
L 781.84393 38.904689 
L 779.11919 38.904689 
L 779.11919 128.16 
L 777.000339 128.16 
L 777.000339 38.904689 
L 774.270315 38.904689 
L 774.270315 17.28 
z
" clip-path="url(#p9e973e39f4)" style="fill: #ff0000"/>
   </g>
   <g id="patch_97">
    <path d="M 782.242541 17.28 
L 789.816156 17.28 
L 789.816156 38.904689 
L 787.091416 38.904689 
L 787.091416 128.16 
L 784.972565 128.16 
L 784.972565 38.904689 
L 782.242541 38.904689 
L 782.242541 17.28 
z
" clip-path="url(#p9e973e39f4)" style="fill: #ff0000"/>
   </g>
   <g id="patch_98">
    <path d="M 797.788382 118.127891 
Q 797.024571 123.143945 796.203049 125.663425 
Q 795.381527 128.16 794.50569 128.16 
Q 792.52657 128.16 791.370669 113.226358 
Q 790.214767 98.292716 790.214767 72.754357 
Q 790.214767 46.91824 791.391037 32.09912 
Q 792.569004 17.28 794.617716 17.28 
Q 795.406988 17.28 796.130063 19.295584 
Q 796.854835 21.288263 797.496436 25.227812 
L 797.496436 47.330518 
Q 796.834467 42.268655 796.179286 39.77208 
Q 795.524106 37.252601 794.86553 37.252601 
Q 793.646827 37.252601 792.986554 46.460153 
Q 792.326282 55.644801 792.326282 72.754357 
Q 792.326282 89.703582 792.962791 98.956943 
Q 793.599301 108.187399 794.770478 108.187399 
Q 795.089582 108.187399 795.362857 107.660599 
Q 795.636131 107.110894 795.853393 105.965677 
L 795.853393 85.214328 
L 794.605835 85.214328 
L 794.605835 66.73051 
L 797.788382 66.73051 
L 797.788382 118.127891 
z
" clip-path="url(#p9e973e39f4)" style="fill: #ffa600"/>
   </g>
   <g id="patch_99">
    <path d="M 798.186993 17.28 
L 805.760608 17.28 
L 805.760608 38.904689 
L 803.035868 38.904689 
L 803.035868 128.16 
L 800.917017 128.16 
L 800.917017 38.904689 
L 798.186993 38.904689 
L 798.186993 17.28 
z
" clip-path="url(#p9e973e39f4)" style="fill: #ff0000"/>
   </g>
   <g id="patch_100">
    <path d="M 811.405469 107.961114 
L 808.492779 107.961114 
L 808.03288 128.16 
L 806.15922 128.16 
L 808.834993 17.28 
L 811.057061 17.28 
L 813.732834 128.16 
L 811.860722 128.16 
L 811.405469 107.961114 
z
M 808.957323 87.382015 
L 810.93628 87.382015 
L 809.94835 43.277154 
L 808.957323 87.382015 
z
" clip-path="url(#p9e973e39f4)" style="fill: #008000"/>
   </g>
   <g id="patch_101">
    <path d="M 821.705061 120.212188 
Q 821.071541 124.151737 820.3865 126.144416 
Q 819.701459 128.16 818.955356 128.16 
Q 816.730403 128.16 815.430925 113.226358 
Q 814.131446 98.292716 814.131446 72.754357 
Q 814.131446 47.124379 815.430925 32.213642 
Q 816.730403 17.28 818.955356 17.28 
Q 819.701459 17.28 820.3865 19.295584 
Q 821.071541 21.288263 821.705061 25.227812 
L 821.705061 47.330518 
Q 821.065816 42.108325 820.445654 39.680463 
Q 819.825491 37.252601 819.14045 37.252601 
Q 817.911574 37.252601 817.207452 46.712101 
Q 816.505237 56.148697 816.505237 72.754357 
Q 816.505237 89.291303 817.207452 98.750804 
Q 817.911574 108.187399 819.14045 108.187399 
Q 819.825491 108.187399 820.445654 105.759537 
Q 821.065816 103.308771 821.705061 98.086577 
L 821.705061 120.212188 
z
" clip-path="url(#p9e973e39f4)" style="fill: #0000ff"/>
   </g>
   <g id="patch_102">
    <path d="M 827.349921 107.961114 
L 824.437231 107.961114 
L 823.977332 128.16 
L 822.103672 128.16 
L 824.779445 17.28 
L 827.001514 17.28 
L 829.677287 128.16 
L 827.805175 128.16 
L 827.349921 107.961114 
z
M 824.901775 87.382015 
L 826.880732 87.382015 
L 825.892802 43.277154 
L 824.901775 87.382015 
z
" clip-path="url(#p9e973e39f4)" style="fill: #008000"/>
   </g>
   <g id="patch_103">
    <path d="M 835.322148 107.961114 
L 832.409457 107.961114 
L 831.949559 128.16 
L 830.075898 128.16 
L 832.751671 17.28 
L 834.97374 17.28 
L 837.649513 128.16 
L 835.777401 128.16 
L 835.322148 107.961114 
z
M 832.874001 87.382015 
L 834.852958 87.382015 
L 833.865028 43.277154 
L 832.874001 87.382015 
z
" clip-path="url(#p9e973e39f4)" style="fill: #008000"/>
   </g>
   <g id="patch_104">
    <path d="M 845.621739 118.127891 
Q 844.857927 123.143945 844.036406 125.663425 
Q 843.214884 128.16 842.339047 128.16 
Q 840.359927 128.16 839.204025 113.226358 
Q 838.048124 98.292716 838.048124 72.754357 
Q 838.048124 46.91824 839.224394 32.09912 
Q 840.402361 17.28 842.451073 17.28 
Q 843.240345 17.28 843.963419 19.295584 
Q 844.688192 21.288263 845.329793 25.227812 
L 845.329793 47.330518 
Q 844.667823 42.268655 844.012643 39.77208 
Q 843.357462 37.252601 842.698887 37.252601 
Q 841.480183 37.252601 840.819911 46.460153 
Q 840.159638 55.644801 840.159638 72.754357 
Q 840.159638 89.703582 840.796148 98.956943 
Q 841.432657 108.187399 842.603835 108.187399 
Q 842.922938 108.187399 843.196213 107.660599 
Q 843.469488 107.110894 843.68675 105.965677 
L 843.68675 85.214328 
L 842.439191 85.214328 
L 842.439191 66.73051 
L 845.621739 66.73051 
L 845.621739 118.127891 
z
" clip-path="url(#p9e973e39f4)" style="fill: #ffa600"/>
   </g>
   <g id="patch_105">
    <path d="M 851.2666 107.961114 
L 848.353909 107.961114 
L 847.894011 128.16 
L 846.02035 128.16 
L 848.696123 17.28 
L 850.918192 17.28 
L 853.593965 128.16 
L 851.721853 128.16 
L 851.2666 107.961114 
z
M 848.818453 87.382015 
L 850.79741 87.382015 
L 849.80948 43.277154 
L 848.818453 87.382015 
z
" clip-path="url(#p9e973e39f4)" style="fill: #008000"/>
   </g>
   <g id="patch_106">
    <path d="M 859.238826 107.961114 
L 856.326135 107.961114 
L 855.866237 128.16 
L 853.992576 128.16 
L 856.668349 17.28 
L 858.890418 17.28 
L 861.566191 128.16 
L 859.694079 128.16 
L 859.238826 107.961114 
z
M 856.790679 87.382015 
L 858.769637 87.382015 
L 857.781706 43.277154 
L 856.790679 87.382015 
z
" clip-path="url(#p9e973e39f4)" style="fill: #008000"/>
   </g>
   <g id="patch_107">
    <path d="M 867.211052 107.961114 
L 864.298361 107.961114 
L 863.838463 128.16 
L 861.964802 128.16 
L 864.640576 17.28 
L 866.862644 17.28 
L 869.538417 128.16 
L 867.666305 128.16 
L 867.211052 107.961114 
z
M 864.762905 87.382015 
L 866.741863 87.382015 
L 865.753933 43.277154 
L 864.762905 87.382015 
z
" clip-path="url(#p9e973e39f4)" style="fill: #008000"/>
   </g>
   <g id="patch_108">
    <path d="M 869.937029 126.756456 
L 877.510643 126.756456 
L 877.510643 127.030186 
L 874.785903 127.030186 
L 874.785903 128.16 
L 872.667052 128.16 
L 872.667052 127.030186 
L 869.937029 127.030186 
L 869.937029 126.756456 
z
" clip-path="url(#p9e973e39f4)" style="fill: #ff0000"/>
   </g>
   <g id="patch_109">
    <path d="M 877.510643 116.851335 
Q 876.746832 121.803896 875.92531 124.291483 
Q 875.103789 126.756456 874.227951 126.756456 
Q 872.248831 126.756456 871.09293 112.011847 
Q 869.937029 97.267239 869.937029 72.052149 
Q 869.937029 46.543072 871.113298 31.911536 
Q 872.291265 17.28 874.339977 17.28 
Q 875.129249 17.28 875.852324 19.27007 
Q 876.577096 21.237525 877.218698 25.127207 
L 877.218698 46.950132 
Q 876.556728 41.952343 875.901547 39.48737 
Q 875.246367 36.999783 874.587792 36.999783 
Q 873.369088 36.999783 872.708815 46.090784 
Q 872.048543 55.15917 872.048543 72.052149 
Q 872.048543 88.786828 872.685052 97.923057 
Q 873.321562 107.036673 874.492739 107.036673 
Q 874.811843 107.036673 875.085118 106.516541 
Q 875.358392 105.973795 875.575654 104.843073 
L 875.575654 84.354399 
L 874.328096 84.354399 
L 874.328096 66.104554 
L 877.510643 66.104554 
L 877.510643 116.851335 
z
" clip-path="url(#p9e973e39f4)" style="fill: #ffa600"/>
   </g>
   <g id="patch_110">
    <path d="M 885.482869 125.443659 
Q 884.84935 126.790087 884.164309 127.47113 
Q 883.479268 128.16 882.733164 128.16 
Q 880.508212 128.16 879.208734 123.056097 
Q 877.909255 117.952194 877.909255 109.223894 
Q 877.909255 100.464282 879.208734 95.368207 
Q 880.508212 90.264304 882.733164 90.264304 
Q 883.479268 90.264304 884.164309 90.953174 
Q 884.84935 91.634216 885.482869 92.980645 
L 885.482869 100.534734 
Q 884.843625 98.749934 884.223463 97.920158 
Q 883.6033 97.090383 882.918259 97.090383 
Q 881.689383 97.090383 880.98526 100.323376 
Q 880.283046 103.548542 880.283046 109.223894 
Q 880.283046 114.875762 880.98526 118.108756 
Q 881.689383 121.333921 882.918259 121.333921 
Q 883.6033 121.333921 884.223463 120.504146 
Q 884.843625 119.666542 885.482869 117.881742 
L 885.482869 125.443659 
z
" clip-path="url(#p9e973e39f4)" style="fill: #0000ff"/>
   </g>
   <g id="patch_111">
    <path d="M 877.909255 17.28 
L 885.482869 17.28 
L 885.482869 31.513973 
L 882.758129 31.513973 
L 882.758129 90.264304 
L 880.639279 90.264304 
L 880.639279 31.513973 
L 877.909255 31.513973 
L 877.909255 17.28 
z
" clip-path="url(#p9e973e39f4)" style="fill: #ff0000"/>
   </g>
   <g id="patch_112">
    <path d="M 893.455096 128.033011 
Q 892.691284 128.096506 891.869762 128.128398 
Q 891.048241 128.16 890.172404 128.16 
Q 888.193283 128.16 887.037382 127.970967 
Q 885.881481 127.781933 885.881481 127.458663 
Q 885.881481 127.131623 887.05775 126.944039 
Q 888.235717 126.756456 890.284429 126.756456 
Q 891.073701 126.756456 891.796776 126.781969 
Q 892.521548 126.807193 893.16315 126.857061 
L 893.16315 127.136842 
Q 892.50118 127.072768 891.845999 127.041166 
Q 891.190819 127.009273 890.532244 127.009273 
Q 889.31354 127.009273 888.653268 127.125825 
Q 887.992995 127.242086 887.992995 127.458663 
Q 887.992995 127.67321 888.629505 127.790341 
Q 889.266014 127.907182 890.437192 127.907182 
Q 890.756295 127.907182 891.02957 127.900514 
Q 891.302845 127.893556 891.520107 127.879059 
L 891.520107 127.616384 
L 890.272548 127.616384 
L 890.272548 127.382412 
L 893.455096 127.382412 
L 893.455096 128.033011 
z
" clip-path="url(#p9e973e39f4)" style="fill: #ffa600"/>
   </g>
   <g id="patch_113">
    <path d="M 885.881481 17.28 
L 893.455096 17.28 
L 893.455096 38.630959 
L 890.730356 38.630959 
L 890.730356 126.756456 
L 888.611505 126.756456 
L 888.611505 38.630959 
L 885.881481 38.630959 
L 885.881481 17.28 
z
" clip-path="url(#p9e973e39f4)" style="fill: #ff0000"/>
   </g>
   <g id="patch_114">
    <path d="M 901.427322 118.127891 
Q 900.66351 123.143945 899.841989 125.663425 
Q 899.020467 128.16 898.14463 128.16 
Q 896.165509 128.16 895.009608 113.226358 
Q 893.853707 98.292716 893.853707 72.754357 
Q 893.853707 46.91824 895.029976 32.09912 
Q 896.207943 17.28 898.256655 17.28 
Q 899.045927 17.28 899.769002 19.295584 
Q 900.493774 21.288263 901.135376 25.227812 
L 901.135376 47.330518 
Q 900.473406 42.268655 899.818226 39.77208 
Q 899.163045 37.252601 898.50447 37.252601 
Q 897.285766 37.252601 896.625494 46.460153 
Q 895.965221 55.644801 895.965221 72.754357 
Q 895.965221 89.703582 896.601731 98.956943 
Q 897.23824 108.187399 898.409418 108.187399 
Q 898.728521 108.187399 899.001796 107.660599 
Q 899.275071 107.110894 899.492333 105.965677 
L 899.492333 85.214328 
L 898.244774 85.214328 
L 898.244774 66.73051 
L 901.427322 66.73051 
L 901.427322 118.127891 
z
" clip-path="url(#p9e973e39f4)" style="fill: #ffa600"/>
   </g>
   <g id="patch_115">
    <path d="M 901.825933 119.738734 
L 909.399548 119.738734 
L 909.399548 121.381116 
L 906.674808 121.381116 
L 906.674808 128.16 
L 904.555957 128.16 
L 904.555957 121.381116 
L 901.825933 121.381116 
L 901.825933 119.738734 
z
" clip-path="url(#p9e973e39f4)" style="fill: #ff0000"/>
   </g>
   <g id="patch_116">
    <path d="M 909.399548 118.933892 
Q 908.766028 119.332834 908.080987 119.534624 
Q 907.395946 119.738734 906.649843 119.738734 
Q 904.424891 119.738734 903.125412 118.226467 
Q 901.825933 116.714199 901.825933 114.128036 
Q 901.825933 111.532595 903.125412 110.022647 
Q 904.424891 108.51038 906.649843 108.51038 
Q 907.395946 108.51038 908.080987 108.714489 
Q 908.766028 108.91628 909.399548 109.315222 
L 909.399548 111.55347 
Q 908.760303 111.02464 908.140141 110.778781 
Q 907.519978 110.532922 906.834937 110.532922 
Q 905.606062 110.532922 904.901939 111.490846 
Q 904.199724 112.44645 904.199724 114.128036 
Q 904.199724 115.802664 904.901939 116.760588 
Q 905.606062 117.716192 906.834937 117.716192 
Q 907.519978 117.716192 908.140141 117.470333 
Q 908.760303 117.222154 909.399548 116.693324 
L 909.399548 118.933892 
z
" clip-path="url(#p9e973e39f4)" style="fill: #0000ff"/>
   </g>
   <g id="patch_117">
    <path d="M 907.072183 102.118327 
L 904.159492 102.118327 
L 903.699594 108.51038 
L 901.825933 108.51038 
L 904.501706 73.421772 
L 906.723775 73.421772 
L 909.399548 108.51038 
L 907.527436 108.51038 
L 907.072183 102.118327 
z
M 904.624036 95.605954 
L 906.602993 95.605954 
L 905.615063 81.64872 
L 904.624036 95.605954 
z
" clip-path="url(#p9e973e39f4)" style="fill: #008000"/>
   </g>
   <g id="patch_118">
    <path d="M 909.399548 68.342223 
Q 908.635736 70.881998 907.814215 72.157683 
Q 906.992693 73.421772 906.116856 73.421772 
Q 904.137736 73.421772 902.981834 65.860435 
Q 901.825933 58.299097 901.825933 45.368282 
Q 901.825933 32.286704 903.002203 24.783352 
Q 904.18017 17.28 906.228882 17.28 
Q 907.018153 17.28 907.741228 18.300549 
Q 908.466 19.3095 909.107602 21.304209 
L 909.107602 32.495452 
Q 908.445632 29.932484 907.790452 28.668395 
Q 907.135271 27.392709 906.476696 27.392709 
Q 905.257992 27.392709 904.59772 32.054761 
Q 903.937447 36.705216 903.937447 45.368282 
Q 903.937447 53.950168 904.573957 58.635414 
Q 905.210466 63.309063 906.381644 63.309063 
Q 906.700747 63.309063 906.974022 63.042329 
Q 907.247297 62.763997 907.464559 62.18414 
L 907.464559 51.677128 
L 906.217 51.677128 
L 906.217 42.318233 
L 909.399548 42.318233 
L 909.399548 68.342223 
z
" clip-path="url(#p9e973e39f4)" style="fill: #ffa600"/>
   </g>
   <g id="patch_119">
    <path d="M 915.044409 124.069086 
L 912.131718 124.069086 
L 911.67182 128.16 
L 909.798159 128.16 
L 912.473932 105.703291 
L 914.696001 105.703291 
L 917.371774 128.16 
L 915.499662 128.16 
L 915.044409 124.069086 
z
M 912.596262 119.901168 
L 914.575219 119.901168 
L 913.587289 110.968537 
L 912.596262 119.901168 
z
" clip-path="url(#p9e973e39f4)" style="fill: #008000"/>
   </g>
   <g id="patch_120">
    <path d="M 909.798159 83.246582 
L 917.371774 83.246582 
L 917.371774 87.626266 
L 914.647034 87.626266 
L 914.647034 105.703291 
L 912.528183 105.703291 
L 912.528183 87.626266 
L 909.798159 87.626266 
L 909.798159 83.246582 
z
" clip-path="url(#p9e973e39f4)" style="fill: #ff0000"/>
   </g>
   <g id="patch_121">
    <path d="M 917.371774 81.234478 
Q 916.738254 82.231832 916.053213 82.736308 
Q 915.368172 83.246582 914.622069 83.246582 
Q 912.397117 83.246582 911.097638 79.465913 
Q 909.798159 75.685245 909.798159 69.219837 
Q 909.798159 62.731235 911.097638 58.956365 
Q 912.397117 55.175696 914.622069 55.175696 
Q 915.368172 55.175696 916.053213 55.685971 
Q 916.738254 56.190446 917.371774 57.187801 
L 917.371774 62.783422 
Q 916.73253 61.461348 916.112367 60.846699 
Q 915.492205 60.232051 914.807164 60.232051 
Q 913.578288 60.232051 912.874165 62.626861 
Q 912.17195 65.015873 912.17195 69.219837 
Q 912.17195 73.406406 912.874165 75.801216 
Q 913.578288 78.190228 914.807164 78.190228 
Q 915.492205 78.190228 916.112367 77.575579 
Q 916.73253 76.955132 917.371774 75.633058 
L 917.371774 81.234478 
z
" clip-path="url(#p9e973e39f4)" style="fill: #0000ff"/>
   </g>
   <g id="patch_122">
    <path d="M 917.371774 51.747001 
Q 916.607962 53.461348 915.786441 54.322436 
Q 914.964919 55.175696 914.089082 55.175696 
Q 912.109962 55.175696 910.95406 50.071793 
Q 909.798159 44.96789 909.798159 36.23959 
Q 909.798159 27.409525 910.974429 22.344763 
Q 912.152396 17.28 914.201108 17.28 
Q 914.99038 17.28 915.713454 17.96887 
Q 916.438227 18.649913 917.079828 19.996341 
L 917.079828 27.55043 
Q 916.417858 25.820426 915.762678 24.967167 
Q 915.107497 24.106079 914.448922 24.106079 
Q 913.230219 24.106079 912.569946 27.252964 
Q 911.909673 30.39202 911.909673 36.23959 
Q 911.909673 42.032363 912.546183 45.194904 
Q 913.182692 48.349617 914.35387 48.349617 
Q 914.672973 48.349617 914.946248 48.169572 
Q 915.219523 47.981698 915.436785 47.590295 
L 915.436785 40.498061 
L 914.189226 40.498061 
L 914.189226 34.180807 
L 917.371774 34.180807 
L 917.371774 51.747001 
z
" clip-path="url(#p9e973e39f4)" style="fill: #ffa600"/>
   </g>
   <g id="patch_123">
    <path d="M 925.344 126.509147 
Q 924.580189 127.334573 923.758667 127.749171 
Q 922.937145 128.16 922.061308 128.16 
Q 920.082188 128.16 918.926287 125.702565 
Q 917.770385 123.245131 917.770385 119.042616 
Q 917.770385 114.791103 918.946655 112.352513 
Q 920.124622 109.913924 922.173334 109.913924 
Q 922.962606 109.913924 923.68568 110.245602 
Q 924.410453 110.573512 925.052054 111.221792 
L 925.052054 114.858946 
Q 924.390084 114.025981 923.734904 113.615152 
Q 923.079723 113.200555 922.421148 113.200555 
Q 921.202445 113.200555 920.542172 114.715721 
Q 919.881899 116.227119 919.881899 119.042616 
Q 919.881899 121.831729 920.518409 123.354434 
Q 921.154919 124.87337 922.326096 124.87337 
Q 922.6452 124.87337 922.918474 124.786681 
Q 923.191749 124.696223 923.409011 124.50777 
L 923.409011 121.092991 
L 922.161452 121.092991 
L 922.161452 118.05135 
L 925.344 118.05135 
L 925.344 126.509147 
z
" clip-path="url(#p9e973e39f4)" style="fill: #ffa600"/>
   </g>
   <g id="patch_124">
    <path d="M 925.344 108.10303 
Q 924.71048 109.000649 924.025439 109.454677 
Q 923.340398 109.913924 922.594295 109.913924 
Q 920.369343 109.913924 919.069864 106.511322 
Q 917.770385 103.10872 917.770385 97.289853 
Q 917.770385 91.450112 919.069864 88.052729 
Q 920.369343 84.650127 922.594295 84.650127 
Q 923.340398 84.650127 924.025439 85.109373 
Q 924.71048 85.563402 925.344 86.461021 
L 925.344 91.49708 
Q 924.704756 90.307213 924.084593 89.754029 
Q 923.464431 89.200846 922.77939 89.200846 
Q 921.550514 89.200846 920.846391 91.356175 
Q 920.144176 93.506285 920.144176 97.289853 
Q 920.144176 101.057765 920.846391 103.213094 
Q 921.550514 105.363205 922.77939 105.363205 
Q 923.464431 105.363205 924.084593 104.810021 
Q 924.704756 104.251619 925.344 103.061752 
L 925.344 108.10303 
z
" clip-path="url(#p9e973e39f4)" style="fill: #0000ff"/>
   </g>
   <g id="patch_125">
    <path d="M 923.016635 78.769438 
L 920.103944 78.769438 
L 919.644046 84.650127 
L 917.770385 84.650127 
L 920.446158 52.368608 
L 922.668227 52.368608 
L 925.344 84.650127 
L 923.471888 84.650127 
L 923.016635 78.769438 
z
M 920.568488 72.778055 
L 922.547445 72.778055 
L 921.559515 59.937399 
L 920.568488 72.778055 
z
" clip-path="url(#p9e973e39f4)" style="fill: #008000"/>
   </g>
   <g id="patch_126">
    <path d="M 917.770385 17.28 
L 925.344 17.28 
L 925.344 24.123256 
L 922.61926 24.123256 
L 922.61926 52.368608 
L 920.500409 52.368608 
L 920.500409 24.123256 
L 917.770385 24.123256 
L 917.770385 17.28 
z
" clip-path="url(#p9e973e39f4)" style="fill: #ff0000"/>
   </g>
  </g>
 </g>
 <defs>
  <clipPath id="p9e973e39f4">
   <rect x="128.52" y="17.28" width="796.824" height="110.88"/>
  </clipPath>
 </defs>
</svg>
