<?xml version="1.0" encoding="utf-8" standalone="no"?>
<!DOCTYPE svg PUBLIC "-//W3C//DTD SVG 1.1//EN"
  "http://www.w3.org/Graphics/SVG/1.1/DTD/svg11.dtd">
<svg xmlns:xlink="http://www.w3.org/1999/xlink" width="1275.12pt" height="144pt" viewBox="0 0 1275.12 144" xmlns="http://www.w3.org/2000/svg" version="1.1">
 <metadata>
  <rdf:RDF xmlns:dc="http://purl.org/dc/elements/1.1/" xmlns:cc="http://creativecommons.org/ns#" xmlns:rdf="http://www.w3.org/1999/02/22-rdf-syntax-ns#">
   <cc:Work>
    <dc:type rdf:resource="http://purl.org/dc/dcmitype/StillImage"/>
    <dc:date>2024-11-11T17:06:39.283062</dc:date>
    <dc:format>image/svg+xml</dc:format>
    <dc:creator>
     <cc:Agent>
      <dc:title>Matplotlib v3.9.2, https://matplotlib.org/</dc:title>
     </cc:Agent>
    </dc:creator>
   </cc:Work>
  </rdf:RDF>
 </metadata>
 <defs>
  <style type="text/css">*{stroke-linejoin: round; stroke-linecap: butt}</style>
 </defs>
 <g id="figure_1">
  <g id="patch_1">
   <path d="M 0 144 
L 1275.12 144 
L 1275.12 0 
L 0 0 
z
" style="fill: #ffffff"/>
  </g>
  <g id="axes_1">
   <g id="line2d_1">
    <path d="M 159.39 128.16 
L 1147.608 128.16 
" clip-path="url(#pb2b4e5daf1)" style="fill: none; stroke: #000000; stroke-width: 0.5; stroke-linecap: square"/>
   </g>
   <g id="patch_2">
    <path d="M 166.964079 120.212188 
Q 166.33052 124.151737 165.645437 126.144416 
Q 164.960354 128.16 164.214206 128.16 
Q 161.989117 128.16 160.689559 113.226358 
Q 159.39 98.292716 159.39 72.754357 
Q 159.39 47.124379 160.689559 32.213642 
Q 161.989117 17.28 164.214206 17.28 
Q 164.960354 17.28 165.645437 19.295584 
Q 166.33052 21.288263 166.964079 25.227812 
L 166.964079 47.330518 
Q 166.324795 42.108325 165.704595 39.680463 
Q 165.084395 37.252601 164.399312 37.252601 
Q 163.17036 37.252601 162.466194 46.712101 
Q 161.763937 56.148697 161.763937 72.754357 
Q 161.763937 89.291303 162.466194 98.750804 
Q 163.17036 108.187399 164.399312 108.187399 
Q 165.084395 108.187399 165.704595 105.759537 
Q 166.324795 103.308771 166.964079 98.086577 
L 166.964079 120.212188 
z
" clip-path="url(#pb2b4e5daf1)" style="fill: #0000ff"/>
   </g>
   <g id="patch_3">
    <path d="M 172.609286 118.060557 
L 169.696417 118.060557 
L 169.23649 128.16 
L 167.362715 128.16 
L 170.038652 72.72 
L 172.260857 72.72 
L 174.936794 128.16 
L 173.064567 128.16 
L 172.609286 118.060557 
z
M 170.160989 107.771007 
L 172.140068 107.771007 
L 171.152077 85.718577 
L 170.160989 107.771007 
z
" clip-path="url(#pb2b4e5daf1)" style="fill: #008000"/>
   </g>
   <g id="patch_4">
    <path d="M 174.936794 68.746094 
Q 174.303235 70.715869 173.618152 71.712208 
Q 172.933069 72.72 172.18692 72.72 
Q 169.961832 72.72 168.662273 65.253179 
Q 167.362715 57.786358 167.362715 45.017178 
Q 167.362715 32.20219 168.662273 24.746821 
Q 169.961832 17.28 172.18692 17.28 
Q 172.933069 17.28 173.618152 18.287792 
Q 174.303235 19.284131 174.936794 21.253906 
L 174.936794 32.305259 
Q 174.29751 29.694162 173.67731 28.480231 
Q 173.057109 27.2663 172.372026 27.2663 
Q 171.143075 27.2663 170.438909 31.99605 
Q 169.736651 36.714348 169.736651 45.017178 
Q 169.736651 53.285652 170.438909 58.015402 
Q 171.143075 62.7337 172.372026 62.7337 
Q 173.057109 62.7337 173.67731 61.519769 
Q 174.29751 60.294385 174.936794 57.683289 
L 174.936794 68.746094 
z
" clip-path="url(#pb2b4e5daf1)" style="fill: #0000ff"/>
   </g>
   <g id="patch_5">
    <path d="M 180.582001 107.961114 
L 177.669132 107.961114 
L 177.209205 128.16 
L 175.33543 128.16 
L 178.011367 17.28 
L 180.233572 17.28 
L 182.909509 128.16 
L 181.037282 128.16 
L 180.582001 107.961114 
z
M 178.133704 87.382015 
L 180.112783 87.382015 
L 179.124792 43.277154 
L 178.133704 87.382015 
z
" clip-path="url(#pb2b4e5daf1)" style="fill: #008000"/>
   </g>
   <g id="patch_6">
    <path d="M 190.882223 120.212188 
Q 190.248665 124.151737 189.563582 126.144416 
Q 188.878499 128.16 188.13235 128.16 
Q 185.907261 128.16 184.607703 113.226358 
Q 183.308144 98.292716 183.308144 72.754357 
Q 183.308144 47.124379 184.607703 32.213642 
Q 185.907261 17.28 188.13235 17.28 
Q 188.878499 17.28 189.563582 19.295584 
Q 190.248665 21.288263 190.882223 25.227812 
L 190.882223 47.330518 
Q 190.24294 42.108325 189.622739 39.680463 
Q 189.002539 37.252601 188.317456 37.252601 
Q 187.088505 37.252601 186.384339 46.712101 
Q 185.682081 56.148697 185.682081 72.754357 
Q 185.682081 89.291303 186.384339 98.750804 
Q 187.088505 108.187399 188.317456 108.187399 
Q 189.002539 108.187399 189.622739 105.759537 
Q 190.24294 103.308771 190.882223 98.086577 
L 190.882223 120.212188 
z
" clip-path="url(#pb2b4e5daf1)" style="fill: #0000ff"/>
   </g>
   <g id="patch_7">
    <path d="M 191.280859 17.28 
L 198.854938 17.28 
L 198.854938 38.904689 
L 196.130031 38.904689 
L 196.130031 128.16 
L 194.011051 128.16 
L 194.011051 38.904689 
L 191.280859 38.904689 
L 191.280859 17.28 
z
" clip-path="url(#pb2b4e5daf1)" style="fill: #ff0000"/>
   </g>
   <g id="patch_8">
    <path d="M 199.253574 17.28 
L 206.827653 17.28 
L 206.827653 38.904689 
L 204.102746 38.904689 
L 204.102746 128.16 
L 201.983765 128.16 
L 201.983765 38.904689 
L 199.253574 38.904689 
L 199.253574 17.28 
z
" clip-path="url(#pb2b4e5daf1)" style="fill: #ff0000"/>
   </g>
   <g id="patch_9">
    <path d="M 207.226289 17.28 
L 214.800368 17.28 
L 214.800368 38.904689 
L 212.075461 38.904689 
L 212.075461 128.16 
L 209.95648 128.16 
L 209.95648 38.904689 
L 207.226289 38.904689 
L 207.226289 17.28 
z
" clip-path="url(#pb2b4e5daf1)" style="fill: #ff0000"/>
   </g>
   <g id="patch_10">
    <path d="M 222.773083 118.127891 
Q 222.009224 123.143945 221.187652 125.663425 
Q 220.36608 128.16 219.49019 128.16 
Q 217.510948 128.16 216.354976 113.226358 
Q 215.199004 98.292716 215.199004 72.754357 
Q 215.199004 46.91824 216.375345 32.09912 
Q 217.553385 17.28 219.602222 17.28 
Q 220.391542 17.28 221.114662 19.295584 
Q 221.839478 21.288263 222.481119 25.227812 
L 222.481119 47.330518 
Q 221.819109 42.268655 221.163888 39.77208 
Q 220.508667 37.252601 219.850052 37.252601 
Q 218.631273 37.252601 217.97096 46.460153 
Q 217.310647 55.644801 217.310647 72.754357 
Q 217.310647 89.703582 217.947196 98.956943 
Q 218.583744 108.187399 219.754994 108.187399 
Q 220.074117 108.187399 220.347408 107.660599 
Q 220.6207 107.110894 220.837975 105.965677 
L 220.837975 85.214328 
L 219.59034 85.214328 
L 219.59034 66.73051 
L 222.773083 66.73051 
L 222.773083 118.127891 
z
" clip-path="url(#pb2b4e5daf1)" style="fill: #ffa600"/>
   </g>
   <g id="patch_11">
    <path d="M 223.171718 17.28 
L 230.745797 17.28 
L 230.745797 38.904689 
L 228.02089 38.904689 
L 228.02089 128.16 
L 225.90191 128.16 
L 225.90191 38.904689 
L 223.171718 38.904689 
L 223.171718 17.28 
z
" clip-path="url(#pb2b4e5daf1)" style="fill: #ff0000"/>
   </g>
   <g id="patch_12">
    <path d="M 236.391004 107.961114 
L 233.478135 107.961114 
L 233.018209 128.16 
L 231.144433 128.16 
L 233.82037 17.28 
L 236.042575 17.28 
L 238.718512 128.16 
L 236.846285 128.16 
L 236.391004 107.961114 
z
M 233.942708 87.382015 
L 235.921786 87.382015 
L 234.933796 43.277154 
L 233.942708 87.382015 
z
" clip-path="url(#pb2b4e5daf1)" style="fill: #008000"/>
   </g>
   <g id="patch_13">
    <path d="M 239.117148 17.28 
L 246.691227 17.28 
L 246.691227 38.904689 
L 243.96632 38.904689 
L 243.96632 128.16 
L 241.847339 128.16 
L 241.847339 38.904689 
L 239.117148 38.904689 
L 239.117148 17.28 
z
" clip-path="url(#pb2b4e5daf1)" style="fill: #ff0000"/>
   </g>
   <g id="patch_14">
    <path d="M 252.336434 107.961114 
L 249.423565 107.961114 
L 248.963638 128.16 
L 247.089863 128.16 
L 249.7658 17.28 
L 251.988005 17.28 
L 254.663942 128.16 
L 252.791715 128.16 
L 252.336434 107.961114 
z
M 249.888137 87.382015 
L 251.867216 87.382015 
L 250.879225 43.277154 
L 249.888137 87.382015 
z
" clip-path="url(#pb2b4e5daf1)" style="fill: #008000"/>
   </g>
   <g id="patch_15">
    <path d="M 262.636657 120.212188 
Q 262.003098 124.151737 261.318015 126.144416 
Q 260.632932 128.16 259.886783 128.16 
Q 257.661695 128.16 256.362136 113.226358 
Q 255.062578 98.292716 255.062578 72.754357 
Q 255.062578 47.124379 256.362136 32.213642 
Q 257.661695 17.28 259.886783 17.28 
Q 260.632932 17.28 261.318015 19.295584 
Q 262.003098 21.288263 262.636657 25.227812 
L 262.636657 47.330518 
Q 261.997373 42.108325 261.377173 39.680463 
Q 260.756972 37.252601 260.071889 37.252601 
Q 258.842938 37.252601 258.138772 46.712101 
Q 257.436514 56.148697 257.436514 72.754357 
Q 257.436514 89.291303 258.138772 98.750804 
Q 258.842938 108.187399 260.071889 108.187399 
Q 260.756972 108.187399 261.377173 105.759537 
Q 261.997373 103.308771 262.636657 98.086577 
L 262.636657 120.212188 
z
" clip-path="url(#pb2b4e5daf1)" style="fill: #0000ff"/>
   </g>
   <g id="patch_16">
    <path d="M 268.281864 107.961114 
L 265.368995 107.961114 
L 264.909068 128.16 
L 263.035292 128.16 
L 265.71123 17.28 
L 267.933434 17.28 
L 270.609372 128.16 
L 268.737145 128.16 
L 268.281864 107.961114 
z
M 265.833567 87.382015 
L 267.812646 87.382015 
L 266.824655 43.277154 
L 265.833567 87.382015 
z
" clip-path="url(#pb2b4e5daf1)" style="fill: #008000"/>
   </g>
   <g id="patch_17">
    <path d="M 276.254578 107.961114 
L 273.341709 107.961114 
L 272.881783 128.16 
L 271.008007 128.16 
L 273.683944 17.28 
L 275.906149 17.28 
L 278.582086 128.16 
L 276.709859 128.16 
L 276.254578 107.961114 
z
M 273.806282 87.382015 
L 275.78536 87.382015 
L 274.79737 43.277154 
L 273.806282 87.382015 
z
" clip-path="url(#pb2b4e5daf1)" style="fill: #008000"/>
   </g>
   <g id="patch_18">
    <path d="M 284.227293 107.961114 
L 281.314424 107.961114 
L 280.854498 128.16 
L 278.980722 128.16 
L 281.656659 17.28 
L 283.878864 17.28 
L 286.554801 128.16 
L 284.682574 128.16 
L 284.227293 107.961114 
z
M 281.778997 87.382015 
L 283.758075 87.382015 
L 282.770084 43.277154 
L 281.778997 87.382015 
z
" clip-path="url(#pb2b4e5daf1)" style="fill: #008000"/>
   </g>
   <g id="patch_19">
    <path d="M 292.200008 107.961114 
L 289.287139 107.961114 
L 288.827212 128.16 
L 286.953437 128.16 
L 289.629374 17.28 
L 291.851579 17.28 
L 294.527516 128.16 
L 292.655289 128.16 
L 292.200008 107.961114 
z
M 289.751711 87.382015 
L 291.73079 87.382015 
L 290.742799 43.277154 
L 289.751711 87.382015 
z
" clip-path="url(#pb2b4e5daf1)" style="fill: #008000"/>
   </g>
   <g id="patch_20">
    <path d="M 302.500231 118.127891 
Q 301.736372 123.143945 300.9148 125.663425 
Q 300.093228 128.16 299.217338 128.16 
Q 297.238096 128.16 296.082124 113.226358 
Q 294.926152 98.292716 294.926152 72.754357 
Q 294.926152 46.91824 296.102493 32.09912 
Q 297.280533 17.28 299.32937 17.28 
Q 300.11869 17.28 300.84181 19.295584 
Q 301.566626 21.288263 302.208267 25.227812 
L 302.208267 47.330518 
Q 301.546257 42.268655 300.891036 39.77208 
Q 300.235815 37.252601 299.5772 37.252601 
Q 298.358421 37.252601 297.698108 46.460153 
Q 297.037795 55.644801 297.037795 72.754357 
Q 297.037795 89.703582 297.674344 98.956943 
Q 298.310893 108.187399 299.482142 108.187399 
Q 299.801265 108.187399 300.074556 107.660599 
Q 300.347848 107.110894 300.565123 105.965677 
L 300.565123 85.214328 
L 299.317488 85.214328 
L 299.317488 66.73051 
L 302.500231 66.73051 
L 302.500231 118.127891 
z
" clip-path="url(#pb2b4e5daf1)" style="fill: #ffa600"/>
   </g>
   <g id="patch_21">
    <path d="M 302.898866 17.28 
L 310.472946 17.28 
L 310.472946 38.904689 
L 307.748038 38.904689 
L 307.748038 128.16 
L 305.629058 128.16 
L 305.629058 38.904689 
L 302.898866 38.904689 
L 302.898866 17.28 
z
" clip-path="url(#pb2b4e5daf1)" style="fill: #ff0000"/>
   </g>
   <g id="patch_22">
    <path d="M 310.871581 17.28 
L 318.44566 17.28 
L 318.44566 38.904689 
L 315.720753 38.904689 
L 315.720753 128.16 
L 313.601773 128.16 
L 313.601773 38.904689 
L 310.871581 38.904689 
L 310.871581 17.28 
z
" clip-path="url(#pb2b4e5daf1)" style="fill: #ff0000"/>
   </g>
   <g id="patch_23">
    <path d="M 326.418375 118.127891 
Q 325.654517 123.143945 324.832945 125.663425 
Q 324.011373 128.16 323.135482 128.16 
Q 321.15624 128.16 320.000268 113.226358 
Q 318.844296 98.292716 318.844296 72.754357 
Q 318.844296 46.91824 320.020638 32.09912 
Q 321.198677 17.28 323.247515 17.28 
Q 324.036835 17.28 324.759954 19.295584 
Q 325.484771 21.288263 326.126412 25.227812 
L 326.126412 47.330518 
Q 325.464401 42.268655 324.80918 39.77208 
Q 324.15396 37.252601 323.495344 37.252601 
Q 322.276566 37.252601 321.616253 46.460153 
Q 320.95594 55.644801 320.95594 72.754357 
Q 320.95594 89.703582 321.592488 98.956943 
Q 322.229037 108.187399 323.400286 108.187399 
Q 323.719409 108.187399 323.992701 107.660599 
Q 324.265992 107.110894 324.483268 105.965677 
L 324.483268 85.214328 
L 323.235632 85.214328 
L 323.235632 66.73051 
L 326.418375 66.73051 
L 326.418375 118.127891 
z
" clip-path="url(#pb2b4e5daf1)" style="fill: #ffa600"/>
   </g>
   <g id="patch_24">
    <path d="M 332.063582 107.961114 
L 329.150713 107.961114 
L 328.690786 128.16 
L 326.817011 128.16 
L 329.492948 17.28 
L 331.715153 17.28 
L 334.39109 128.16 
L 332.518863 128.16 
L 332.063582 107.961114 
z
M 329.615285 87.382015 
L 331.594364 87.382015 
L 330.606373 43.277154 
L 329.615285 87.382015 
z
" clip-path="url(#pb2b4e5daf1)" style="fill: #008000"/>
   </g>
   <g id="patch_25">
    <path d="M 340.036297 107.961114 
L 337.123428 107.961114 
L 336.663501 128.16 
L 334.789726 128.16 
L 337.465663 17.28 
L 339.687868 17.28 
L 342.363805 128.16 
L 340.491578 128.16 
L 340.036297 107.961114 
z
M 337.588 87.382015 
L 339.567079 87.382015 
L 338.579088 43.277154 
L 337.588 87.382015 
z
" clip-path="url(#pb2b4e5daf1)" style="fill: #008000"/>
   </g>
   <g id="patch_26">
    <path d="M 350.33652 120.212188 
Q 349.702961 124.151737 349.017878 126.144416 
Q 348.332795 128.16 347.586646 128.16 
Q 345.361558 128.16 344.061999 113.226358 
Q 342.762441 98.292716 342.762441 72.754357 
Q 342.762441 47.124379 344.061999 32.213642 
Q 345.361558 17.28 347.586646 17.28 
Q 348.332795 17.28 349.017878 19.295584 
Q 349.702961 21.288263 350.33652 25.227812 
L 350.33652 47.330518 
Q 349.697236 42.108325 349.077036 39.680463 
Q 348.456835 37.252601 347.771752 37.252601 
Q 346.542801 37.252601 345.838635 46.712101 
Q 345.136377 56.148697 345.136377 72.754357 
Q 345.136377 89.291303 345.838635 98.750804 
Q 346.542801 108.187399 347.771752 108.187399 
Q 348.456835 108.187399 349.077036 105.759537 
Q 349.697236 103.308771 350.33652 98.086577 
L 350.33652 120.212188 
z
" clip-path="url(#pb2b4e5daf1)" style="fill: #0000ff"/>
   </g>
   <g id="patch_27">
    <path d="M 358.309234 118.127891 
Q 357.545376 123.143945 356.723804 125.663425 
Q 355.902232 128.16 355.026341 128.16 
Q 353.0471 128.16 351.891127 113.226358 
Q 350.735155 98.292716 350.735155 72.754357 
Q 350.735155 46.91824 351.911497 32.09912 
Q 353.089536 17.28 355.138374 17.28 
Q 355.927694 17.28 356.650813 19.295584 
Q 357.37563 21.288263 358.017271 25.227812 
L 358.017271 47.330518 
Q 357.35526 42.268655 356.70004 39.77208 
Q 356.044819 37.252601 355.386203 37.252601 
Q 354.167425 37.252601 353.507112 46.460153 
Q 352.846799 55.644801 352.846799 72.754357 
Q 352.846799 89.703582 353.483348 98.956943 
Q 354.119896 108.187399 355.291145 108.187399 
Q 355.610268 108.187399 355.88356 107.660599 
Q 356.156852 107.110894 356.374127 105.965677 
L 356.374127 85.214328 
L 355.126492 85.214328 
L 355.126492 66.73051 
L 358.309234 66.73051 
L 358.309234 118.127891 
z
" clip-path="url(#pb2b4e5daf1)" style="fill: #ffa600"/>
   </g>
   <g id="patch_28">
    <path d="M 363.954441 107.961114 
L 361.041572 107.961114 
L 360.581646 128.16 
L 358.70787 128.16 
L 361.383807 17.28 
L 363.606012 17.28 
L 366.281949 128.16 
L 364.409722 128.16 
L 363.954441 107.961114 
z
M 361.506145 87.382015 
L 363.485223 87.382015 
L 362.497233 43.277154 
L 361.506145 87.382015 
z
" clip-path="url(#pb2b4e5daf1)" style="fill: #008000"/>
   </g>
   <g id="patch_29">
    <path d="M 374.254664 118.127891 
Q 373.490806 123.143945 372.669234 125.663425 
Q 371.847662 128.16 370.971771 128.16 
Q 368.992529 128.16 367.836557 113.226358 
Q 366.680585 98.292716 366.680585 72.754357 
Q 366.680585 46.91824 367.856927 32.09912 
Q 369.034966 17.28 371.083803 17.28 
Q 371.873124 17.28 372.596243 19.295584 
Q 373.321059 21.288263 373.9627 25.227812 
L 373.9627 47.330518 
Q 373.30069 42.268655 372.645469 39.77208 
Q 371.990249 37.252601 371.331633 37.252601 
Q 370.112855 37.252601 369.452542 46.460153 
Q 368.792229 55.644801 368.792229 72.754357 
Q 368.792229 89.703582 369.428777 98.956943 
Q 370.065326 108.187399 371.236575 108.187399 
Q 371.555698 108.187399 371.82899 107.660599 
Q 372.102281 107.110894 372.319556 105.965677 
L 372.319556 85.214328 
L 371.071921 85.214328 
L 371.071921 66.73051 
L 374.254664 66.73051 
L 374.254664 118.127891 
z
" clip-path="url(#pb2b4e5daf1)" style="fill: #ffa600"/>
   </g>
   <g id="patch_30">
    <path d="M 379.899871 107.961114 
L 376.987002 107.961114 
L 376.527075 128.16 
L 374.6533 128.16 
L 377.329237 17.28 
L 379.551442 17.28 
L 382.227379 128.16 
L 380.355152 128.16 
L 379.899871 107.961114 
z
M 377.451574 87.382015 
L 379.430653 87.382015 
L 378.442662 43.277154 
L 377.451574 87.382015 
z
" clip-path="url(#pb2b4e5daf1)" style="fill: #008000"/>
   </g>
   <g id="patch_31">
    <path d="M 387.872586 107.961114 
L 384.959717 107.961114 
L 384.49979 128.16 
L 382.626015 128.16 
L 385.301952 17.28 
L 387.524156 17.28 
L 390.200094 128.16 
L 388.327867 128.16 
L 387.872586 107.961114 
z
M 385.424289 87.382015 
L 387.403368 87.382015 
L 386.415377 43.277154 
L 385.424289 87.382015 
z
" clip-path="url(#pb2b4e5daf1)" style="fill: #008000"/>
   </g>
   <g id="patch_32">
    <path d="M 395.845301 107.961114 
L 392.932431 107.961114 
L 392.472505 128.16 
L 390.598729 128.16 
L 393.274666 17.28 
L 395.496871 17.28 
L 398.172808 128.16 
L 396.300582 128.16 
L 395.845301 107.961114 
z
M 393.397004 87.382015 
L 395.376082 87.382015 
L 394.388092 43.277154 
L 393.397004 87.382015 
z
" clip-path="url(#pb2b4e5daf1)" style="fill: #008000"/>
   </g>
   <g id="patch_33">
    <path d="M 406.145523 120.212188 
Q 405.511965 124.151737 404.826882 126.144416 
Q 404.141799 128.16 403.39565 128.16 
Q 401.170561 128.16 399.871003 113.226358 
Q 398.571444 98.292716 398.571444 72.754357 
Q 398.571444 47.124379 399.871003 32.213642 
Q 401.170561 17.28 403.39565 17.28 
Q 404.141799 17.28 404.826882 19.295584 
Q 405.511965 21.288263 406.145523 25.227812 
L 406.145523 47.330518 
Q 405.50624 42.108325 404.886039 39.680463 
Q 404.265839 37.252601 403.580756 37.252601 
Q 402.351805 37.252601 401.647638 46.712101 
Q 400.945381 56.148697 400.945381 72.754357 
Q 400.945381 89.291303 401.647638 98.750804 
Q 402.351805 108.187399 403.580756 108.187399 
Q 404.265839 108.187399 404.886039 105.759537 
Q 405.50624 103.308771 406.145523 98.086577 
L 406.145523 120.212188 
z
" clip-path="url(#pb2b4e5daf1)" style="fill: #0000ff"/>
   </g>
   <g id="patch_34">
    <path d="M 414.118238 118.127891 
Q 413.35438 123.143945 412.532808 125.663425 
Q 411.711236 128.16 410.835345 128.16 
Q 408.856103 128.16 407.700131 113.226358 
Q 406.544159 98.292716 406.544159 72.754357 
Q 406.544159 46.91824 407.720501 32.09912 
Q 408.89854 17.28 410.947377 17.28 
Q 411.736698 17.28 412.459817 19.295584 
Q 413.184633 21.288263 413.826274 25.227812 
L 413.826274 47.330518 
Q 413.164264 42.268655 412.509043 39.77208 
Q 411.853823 37.252601 411.195207 37.252601 
Q 409.976429 37.252601 409.316116 46.460153 
Q 408.655803 55.644801 408.655803 72.754357 
Q 408.655803 89.703582 409.292351 98.956943 
Q 409.9289 108.187399 411.100149 108.187399 
Q 411.419272 108.187399 411.692564 107.660599 
Q 411.965855 107.110894 412.18313 105.965677 
L 412.18313 85.214328 
L 410.935495 85.214328 
L 410.935495 66.73051 
L 414.118238 66.73051 
L 414.118238 118.127891 
z
" clip-path="url(#pb2b4e5daf1)" style="fill: #ffa600"/>
   </g>
   <g id="patch_35">
    <path d="M 414.516874 17.28 
L 422.090953 17.28 
L 422.090953 38.904689 
L 419.366046 38.904689 
L 419.366046 128.16 
L 417.247065 128.16 
L 417.247065 38.904689 
L 414.516874 38.904689 
L 414.516874 17.28 
z
" clip-path="url(#pb2b4e5daf1)" style="fill: #ff0000"/>
   </g>
   <g id="patch_36">
    <path d="M 427.73616 107.961114 
L 424.823291 107.961114 
L 424.363364 128.16 
L 422.489589 128.16 
L 425.165526 17.28 
L 427.38773 17.28 
L 430.063668 128.16 
L 428.191441 128.16 
L 427.73616 107.961114 
z
M 425.287863 87.382015 
L 427.266942 87.382015 
L 426.278951 43.277154 
L 425.287863 87.382015 
z
" clip-path="url(#pb2b4e5daf1)" style="fill: #008000"/>
   </g>
   <g id="patch_37">
    <path d="M 435.708875 107.961114 
L 432.796005 107.961114 
L 432.336079 128.16 
L 430.462303 128.16 
L 433.138241 17.28 
L 435.360445 17.28 
L 438.036382 128.16 
L 436.164156 128.16 
L 435.708875 107.961114 
z
M 433.260578 87.382015 
L 435.239656 87.382015 
L 434.251666 43.277154 
L 433.260578 87.382015 
z
" clip-path="url(#pb2b4e5daf1)" style="fill: #008000"/>
   </g>
   <g id="patch_38">
    <path d="M 443.681589 107.961114 
L 440.76872 107.961114 
L 440.308794 128.16 
L 438.435018 128.16 
L 441.110955 17.28 
L 443.33316 17.28 
L 446.009097 128.16 
L 444.13687 128.16 
L 443.681589 107.961114 
z
M 441.233293 87.382015 
L 443.212371 87.382015 
L 442.224381 43.277154 
L 441.233293 87.382015 
z
" clip-path="url(#pb2b4e5daf1)" style="fill: #008000"/>
   </g>
   <g id="patch_39">
    <path d="M 451.654304 107.961114 
L 448.741435 107.961114 
L 448.281508 128.16 
L 446.407733 128.16 
L 449.08367 17.28 
L 451.305875 17.28 
L 453.981812 128.16 
L 452.109585 128.16 
L 451.654304 107.961114 
z
M 449.206008 87.382015 
L 451.185086 87.382015 
L 450.197095 43.277154 
L 449.206008 87.382015 
z
" clip-path="url(#pb2b4e5daf1)" style="fill: #008000"/>
   </g>
   <g id="patch_40">
    <path d="M 454.380448 17.28 
L 461.954527 17.28 
L 461.954527 38.904689 
L 459.22962 38.904689 
L 459.22962 128.16 
L 457.110639 128.16 
L 457.110639 38.904689 
L 454.380448 38.904689 
L 454.380448 17.28 
z
" clip-path="url(#pb2b4e5daf1)" style="fill: #ff0000"/>
   </g>
   <g id="patch_41">
    <path d="M 469.927242 118.127891 
Q 469.163383 123.143945 468.341811 125.663425 
Q 467.520239 128.16 466.644349 128.16 
Q 464.665107 128.16 463.509135 113.226358 
Q 462.353163 98.292716 462.353163 72.754357 
Q 462.353163 46.91824 463.529504 32.09912 
Q 464.707543 17.28 466.756381 17.28 
Q 467.545701 17.28 468.26882 19.295584 
Q 468.993637 21.288263 469.635278 25.227812 
L 469.635278 47.330518 
Q 468.973268 42.268655 468.318047 39.77208 
Q 467.662826 37.252601 467.004211 37.252601 
Q 465.785432 37.252601 465.125119 46.460153 
Q 464.464806 55.644801 464.464806 72.754357 
Q 464.464806 89.703582 465.101355 98.956943 
Q 465.737903 108.187399 466.909153 108.187399 
Q 467.228276 108.187399 467.501567 107.660599 
Q 467.774859 107.110894 467.992134 105.965677 
L 467.992134 85.214328 
L 466.744499 85.214328 
L 466.744499 66.73051 
L 469.927242 66.73051 
L 469.927242 118.127891 
z
" clip-path="url(#pb2b4e5daf1)" style="fill: #ffa600"/>
   </g>
   <g id="patch_42">
    <path d="M 475.572449 107.961114 
L 472.65958 107.961114 
L 472.199653 128.16 
L 470.325877 128.16 
L 473.001815 17.28 
L 475.224019 17.28 
L 477.899956 128.16 
L 476.02773 128.16 
L 475.572449 107.961114 
z
M 473.124152 87.382015 
L 475.10323 87.382015 
L 474.11524 43.277154 
L 473.124152 87.382015 
z
" clip-path="url(#pb2b4e5daf1)" style="fill: #008000"/>
   </g>
   <g id="patch_43">
    <path d="M 478.298592 17.28 
L 485.872671 17.28 
L 485.872671 38.904689 
L 483.147764 38.904689 
L 483.147764 128.16 
L 481.028783 128.16 
L 481.028783 38.904689 
L 478.298592 38.904689 
L 478.298592 17.28 
z
" clip-path="url(#pb2b4e5daf1)" style="fill: #ff0000"/>
   </g>
   <g id="patch_44">
    <path d="M 491.517878 107.961114 
L 488.605009 107.961114 
L 488.145082 128.16 
L 486.271307 128.16 
L 488.947244 17.28 
L 491.169449 17.28 
L 493.845386 128.16 
L 491.973159 128.16 
L 491.517878 107.961114 
z
M 489.069582 87.382015 
L 491.04866 87.382015 
L 490.060669 43.277154 
L 489.069582 87.382015 
z
" clip-path="url(#pb2b4e5daf1)" style="fill: #008000"/>
   </g>
   <g id="patch_45">
    <path d="M 494.244022 17.28 
L 501.818101 17.28 
L 501.818101 38.904689 
L 499.093194 38.904689 
L 499.093194 128.16 
L 496.974213 128.16 
L 496.974213 38.904689 
L 494.244022 38.904689 
L 494.244022 17.28 
z
" clip-path="url(#pb2b4e5daf1)" style="fill: #ff0000"/>
   </g>
   <g id="patch_46">
    <path d="M 507.463308 107.961114 
L 504.550439 107.961114 
L 504.090512 128.16 
L 502.216737 128.16 
L 504.892674 17.28 
L 507.114878 17.28 
L 509.790816 128.16 
L 507.918589 128.16 
L 507.463308 107.961114 
z
M 505.015011 87.382015 
L 506.99409 87.382015 
L 506.006099 43.277154 
L 505.015011 87.382015 
z
" clip-path="url(#pb2b4e5daf1)" style="fill: #008000"/>
   </g>
   <g id="patch_47">
    <path d="M 515.436023 107.961114 
L 512.523154 107.961114 
L 512.063227 128.16 
L 510.189451 128.16 
L 512.865389 17.28 
L 515.087593 17.28 
L 517.76353 128.16 
L 515.891304 128.16 
L 515.436023 107.961114 
z
M 512.987726 87.382015 
L 514.966804 87.382015 
L 513.978814 43.277154 
L 512.987726 87.382015 
z
" clip-path="url(#pb2b4e5daf1)" style="fill: #008000"/>
   </g>
   <g id="patch_48">
    <path d="M 523.408737 107.961114 
L 520.495868 107.961114 
L 520.035942 128.16 
L 518.162166 128.16 
L 520.838103 17.28 
L 523.060308 17.28 
L 525.736245 128.16 
L 523.864018 128.16 
L 523.408737 107.961114 
z
M 520.960441 87.382015 
L 522.939519 87.382015 
L 521.951529 43.277154 
L 520.960441 87.382015 
z
" clip-path="url(#pb2b4e5daf1)" style="fill: #008000"/>
   </g>
   <g id="patch_49">
    <path d="M 526.134881 17.28 
L 533.70896 17.28 
L 533.70896 38.904689 
L 530.984053 38.904689 
L 530.984053 128.16 
L 528.865072 128.16 
L 528.865072 38.904689 
L 526.134881 38.904689 
L 526.134881 17.28 
z
" clip-path="url(#pb2b4e5daf1)" style="fill: #ff0000"/>
   </g>
   <g id="patch_50">
    <path d="M 539.354167 107.961114 
L 536.441298 107.961114 
L 535.981371 128.16 
L 534.107596 128.16 
L 536.783533 17.28 
L 539.005738 17.28 
L 541.681675 128.16 
L 539.809448 128.16 
L 539.354167 107.961114 
z
M 536.90587 87.382015 
L 538.884949 87.382015 
L 537.896958 43.277154 
L 536.90587 87.382015 
z
" clip-path="url(#pb2b4e5daf1)" style="fill: #008000"/>
   </g>
   <g id="patch_51">
    <path d="M 542.080311 17.28 
L 549.65439 17.28 
L 549.65439 38.904689 
L 546.929483 38.904689 
L 546.929483 128.16 
L 544.810502 128.16 
L 544.810502 38.904689 
L 542.080311 38.904689 
L 542.080311 17.28 
z
" clip-path="url(#pb2b4e5daf1)" style="fill: #ff0000"/>
   </g>
   <g id="patch_52">
    <path d="M 557.627104 120.212188 
Q 556.993546 124.151737 556.308463 126.144416 
Q 555.62338 128.16 554.877231 128.16 
Q 552.652142 128.16 551.352584 113.226358 
Q 550.053025 98.292716 550.053025 72.754357 
Q 550.053025 47.124379 551.352584 32.213642 
Q 552.652142 17.28 554.877231 17.28 
Q 555.62338 17.28 556.308463 19.295584 
Q 556.993546 21.288263 557.627104 25.227812 
L 557.627104 47.330518 
Q 556.987821 42.108325 556.36762 39.680463 
Q 555.74742 37.252601 555.062337 37.252601 
Q 553.833386 37.252601 553.12922 46.712101 
Q 552.426962 56.148697 552.426962 72.754357 
Q 552.426962 89.291303 553.12922 98.750804 
Q 553.833386 108.187399 555.062337 108.187399 
Q 555.74742 108.187399 556.36762 105.759537 
Q 556.987821 103.308771 557.627104 98.086577 
L 557.627104 120.212188 
z
" clip-path="url(#pb2b4e5daf1)" style="fill: #0000ff"/>
   </g>
   <g id="patch_53">
    <path d="M 563.272311 107.961114 
L 560.359442 107.961114 
L 559.899516 128.16 
L 558.02574 128.16 
L 560.701677 17.28 
L 562.923882 17.28 
L 565.599819 128.16 
L 563.727592 128.16 
L 563.272311 107.961114 
z
M 560.824015 87.382015 
L 562.803093 87.382015 
L 561.815103 43.277154 
L 560.824015 87.382015 
z
" clip-path="url(#pb2b4e5daf1)" style="fill: #008000"/>
   </g>
   <g id="patch_54">
    <path d="M 571.245026 107.961114 
L 568.332157 107.961114 
L 567.87223 128.16 
L 565.998455 128.16 
L 568.674392 17.28 
L 570.896597 17.28 
L 573.572534 128.16 
L 571.700307 128.16 
L 571.245026 107.961114 
z
M 568.79673 87.382015 
L 570.775808 87.382015 
L 569.787817 43.277154 
L 568.79673 87.382015 
z
" clip-path="url(#pb2b4e5daf1)" style="fill: #008000"/>
   </g>
   <g id="patch_55">
    <path d="M 573.97117 17.28 
L 581.545249 17.28 
L 581.545249 38.904689 
L 578.820342 38.904689 
L 578.820342 128.16 
L 576.701361 128.16 
L 576.701361 38.904689 
L 573.97117 38.904689 
L 573.97117 17.28 
z
" clip-path="url(#pb2b4e5daf1)" style="fill: #ff0000"/>
   </g>
   <g id="patch_56">
    <path d="M 587.190456 107.961114 
L 584.277587 107.961114 
L 583.81766 128.16 
L 581.943885 128.16 
L 584.619822 17.28 
L 586.842027 17.28 
L 589.517964 128.16 
L 587.645737 128.16 
L 587.190456 107.961114 
z
M 584.742159 87.382015 
L 586.721238 87.382015 
L 585.733247 43.277154 
L 584.742159 87.382015 
z
" clip-path="url(#pb2b4e5daf1)" style="fill: #008000"/>
   </g>
   <g id="patch_57">
    <path d="M 589.916599 17.28 
L 597.490678 17.28 
L 597.490678 38.904689 
L 594.765771 38.904689 
L 594.765771 128.16 
L 592.646791 128.16 
L 592.646791 38.904689 
L 589.916599 38.904689 
L 589.916599 17.28 
z
" clip-path="url(#pb2b4e5daf1)" style="fill: #ff0000"/>
   </g>
   <g id="patch_58">
    <path d="M 603.135885 107.961114 
L 600.223016 107.961114 
L 599.76309 128.16 
L 597.889314 128.16 
L 600.565251 17.28 
L 602.787456 17.28 
L 605.463393 128.16 
L 603.591166 128.16 
L 603.135885 107.961114 
z
M 600.687589 87.382015 
L 602.666667 87.382015 
L 601.678677 43.277154 
L 600.687589 87.382015 
z
" clip-path="url(#pb2b4e5daf1)" style="fill: #008000"/>
   </g>
   <g id="patch_59">
    <path d="M 605.862029 17.28 
L 613.436108 17.28 
L 613.436108 38.904689 
L 610.711201 38.904689 
L 610.711201 128.16 
L 608.59222 128.16 
L 608.59222 38.904689 
L 605.862029 38.904689 
L 605.862029 17.28 
z
" clip-path="url(#pb2b4e5daf1)" style="fill: #ff0000"/>
   </g>
   <g id="patch_60">
    <path d="M 613.834744 17.28 
L 621.408823 17.28 
L 621.408823 38.904689 
L 618.683916 38.904689 
L 618.683916 128.16 
L 616.564935 128.16 
L 616.564935 38.904689 
L 613.834744 38.904689 
L 613.834744 17.28 
z
" clip-path="url(#pb2b4e5daf1)" style="fill: #ff0000"/>
   </g>
   <g id="patch_61">
    <path d="M 627.05403 107.961114 
L 624.141161 107.961114 
L 623.681234 128.16 
L 621.807459 128.16 
L 624.483396 17.28 
L 626.705601 17.28 
L 629.381538 128.16 
L 627.509311 128.16 
L 627.05403 107.961114 
z
M 624.605733 87.382015 
L 626.584812 87.382015 
L 625.596821 43.277154 
L 624.605733 87.382015 
z
" clip-path="url(#pb2b4e5daf1)" style="fill: #008000"/>
   </g>
   <g id="patch_62">
    <path d="M 635.026745 107.961114 
L 632.113876 107.961114 
L 631.653949 128.16 
L 629.780173 128.16 
L 632.456111 17.28 
L 634.678315 17.28 
L 637.354253 128.16 
L 635.482026 128.16 
L 635.026745 107.961114 
z
M 632.578448 87.382015 
L 634.557527 87.382015 
L 633.569536 43.277154 
L 632.578448 87.382015 
z
" clip-path="url(#pb2b4e5daf1)" style="fill: #008000"/>
   </g>
   <g id="patch_63">
    <path d="M 642.999459 107.961114 
L 640.08659 107.961114 
L 639.626664 128.16 
L 637.752888 128.16 
L 640.428825 17.28 
L 642.65103 17.28 
L 645.326967 128.16 
L 643.45474 128.16 
L 642.999459 107.961114 
z
M 640.551163 87.382015 
L 642.530241 87.382015 
L 641.542251 43.277154 
L 640.551163 87.382015 
z
" clip-path="url(#pb2b4e5daf1)" style="fill: #008000"/>
   </g>
   <g id="patch_64">
    <path d="M 645.725603 17.28 
L 653.299682 17.28 
L 653.299682 38.904689 
L 650.574775 38.904689 
L 650.574775 128.16 
L 648.455794 128.16 
L 648.455794 38.904689 
L 645.725603 38.904689 
L 645.725603 17.28 
z
" clip-path="url(#pb2b4e5daf1)" style="fill: #ff0000"/>
   </g>
   <g id="patch_65">
    <path d="M 653.698318 17.28 
L 661.272397 17.28 
L 661.272397 38.904689 
L 658.54749 38.904689 
L 658.54749 128.16 
L 656.428509 128.16 
L 656.428509 38.904689 
L 653.698318 38.904689 
L 653.698318 17.28 
z
" clip-path="url(#pb2b4e5daf1)" style="fill: #ff0000"/>
   </g>
   <g id="patch_66">
    <path d="M 666.917604 107.961114 
L 664.004735 107.961114 
L 663.544808 128.16 
L 661.671033 128.16 
L 664.34697 17.28 
L 666.569175 17.28 
L 669.245112 128.16 
L 667.372885 128.16 
L 666.917604 107.961114 
z
M 664.469307 87.382015 
L 666.448386 87.382015 
L 665.460395 43.277154 
L 664.469307 87.382015 
z
" clip-path="url(#pb2b4e5daf1)" style="fill: #008000"/>
   </g>
   <g id="patch_67">
    <path d="M 677.217827 118.127891 
Q 676.453968 123.143945 675.632396 125.663425 
Q 674.810824 128.16 673.934933 128.16 
Q 671.955692 128.16 670.79972 113.226358 
Q 669.643747 98.292716 669.643747 72.754357 
Q 669.643747 46.91824 670.820089 32.09912 
Q 671.998128 17.28 674.046966 17.28 
Q 674.836286 17.28 675.559405 19.295584 
Q 676.284222 21.288263 676.925863 25.227812 
L 676.925863 47.330518 
Q 676.263852 42.268655 675.608632 39.77208 
Q 674.953411 37.252601 674.294796 37.252601 
Q 673.076017 37.252601 672.415704 46.460153 
Q 671.755391 55.644801 671.755391 72.754357 
Q 671.755391 89.703582 672.39194 98.956943 
Q 673.028488 108.187399 674.199738 108.187399 
Q 674.518861 108.187399 674.792152 107.660599 
Q 675.065444 107.110894 675.282719 105.965677 
L 675.282719 85.214328 
L 674.035084 85.214328 
L 674.035084 66.73051 
L 677.217827 66.73051 
L 677.217827 118.127891 
z
" clip-path="url(#pb2b4e5daf1)" style="fill: #ffa600"/>
   </g>
   <g id="patch_68">
    <path d="M 682.863034 107.961114 
L 679.950164 107.961114 
L 679.490238 128.16 
L 677.616462 128.16 
L 680.292399 17.28 
L 682.514604 17.28 
L 685.190541 128.16 
L 683.318314 128.16 
L 682.863034 107.961114 
z
M 680.414737 87.382015 
L 682.393815 87.382015 
L 681.405825 43.277154 
L 680.414737 87.382015 
z
" clip-path="url(#pb2b4e5daf1)" style="fill: #008000"/>
   </g>
   <g id="patch_69">
    <path d="M 685.589177 17.28 
L 693.163256 17.28 
L 693.163256 38.904689 
L 690.438349 38.904689 
L 690.438349 128.16 
L 688.319368 128.16 
L 688.319368 38.904689 
L 685.589177 38.904689 
L 685.589177 17.28 
z
" clip-path="url(#pb2b4e5daf1)" style="fill: #ff0000"/>
   </g>
   <g id="patch_70">
    <path d="M 693.561892 17.28 
L 701.135971 17.28 
L 701.135971 38.904689 
L 698.411064 38.904689 
L 698.411064 128.16 
L 696.292083 128.16 
L 696.292083 38.904689 
L 693.561892 38.904689 
L 693.561892 17.28 
z
" clip-path="url(#pb2b4e5daf1)" style="fill: #ff0000"/>
   </g>
   <g id="patch_71">
    <path d="M 701.534607 17.28 
L 709.108686 17.28 
L 709.108686 38.904689 
L 706.383779 38.904689 
L 706.383779 128.16 
L 704.264798 128.16 
L 704.264798 38.904689 
L 701.534607 38.904689 
L 701.534607 17.28 
z
" clip-path="url(#pb2b4e5daf1)" style="fill: #ff0000"/>
   </g>
   <g id="patch_72">
    <path d="M 709.507322 17.28 
L 717.081401 17.28 
L 717.081401 38.904689 
L 714.356494 38.904689 
L 714.356494 128.16 
L 712.237513 128.16 
L 712.237513 38.904689 
L 709.507322 38.904689 
L 709.507322 17.28 
z
" clip-path="url(#pb2b4e5daf1)" style="fill: #ff0000"/>
   </g>
   <g id="patch_73">
    <path d="M 725.054115 118.127891 
Q 724.290257 123.143945 723.468685 125.663425 
Q 722.647113 128.16 721.771222 128.16 
Q 719.791981 128.16 718.636008 113.226358 
Q 717.480036 98.292716 717.480036 72.754357 
Q 717.480036 46.91824 718.656378 32.09912 
Q 719.834417 17.28 721.883255 17.28 
Q 722.672575 17.28 723.395694 19.295584 
Q 724.120511 21.288263 724.762152 25.227812 
L 724.762152 47.330518 
Q 724.100141 42.268655 723.444921 39.77208 
Q 722.7897 37.252601 722.131084 37.252601 
Q 720.912306 37.252601 720.251993 46.460153 
Q 719.59168 55.644801 719.59168 72.754357 
Q 719.59168 89.703582 720.228229 98.956943 
Q 720.864777 108.187399 722.036026 108.187399 
Q 722.355149 108.187399 722.628441 107.660599 
Q 722.901733 107.110894 723.119008 105.965677 
L 723.119008 85.214328 
L 721.871373 85.214328 
L 721.871373 66.73051 
L 725.054115 66.73051 
L 725.054115 118.127891 
z
" clip-path="url(#pb2b4e5daf1)" style="fill: #ffa600"/>
   </g>
   <g id="patch_74">
    <path d="M 733.02683 120.212188 
Q 732.393272 124.151737 731.708189 126.144416 
Q 731.023106 128.16 730.276957 128.16 
Q 728.051868 128.16 726.75231 113.226358 
Q 725.452751 98.292716 725.452751 72.754357 
Q 725.452751 47.124379 726.75231 32.213642 
Q 728.051868 17.28 730.276957 17.28 
Q 731.023106 17.28 731.708189 19.295584 
Q 732.393272 21.288263 733.02683 25.227812 
L 733.02683 47.330518 
Q 732.387547 42.108325 731.767346 39.680463 
Q 731.147146 37.252601 730.462063 37.252601 
Q 729.233112 37.252601 728.528945 46.712101 
Q 727.826688 56.148697 727.826688 72.754357 
Q 727.826688 89.291303 728.528945 98.750804 
Q 729.233112 108.187399 730.462063 108.187399 
Q 731.147146 108.187399 731.767346 105.759537 
Q 732.387547 103.308771 733.02683 98.086577 
L 733.02683 120.212188 
z
" clip-path="url(#pb2b4e5daf1)" style="fill: #0000ff"/>
   </g>
   <g id="patch_75">
    <path d="M 738.672037 107.961114 
L 735.759168 107.961114 
L 735.299241 128.16 
L 733.425466 128.16 
L 736.101403 17.28 
L 738.323608 17.28 
L 740.999545 128.16 
L 739.127318 128.16 
L 738.672037 107.961114 
z
M 736.22374 87.382015 
L 738.202819 87.382015 
L 737.214828 43.277154 
L 736.22374 87.382015 
z
" clip-path="url(#pb2b4e5daf1)" style="fill: #008000"/>
   </g>
   <g id="patch_76">
    <path d="M 741.398181 17.28 
L 748.97226 17.28 
L 748.97226 38.904689 
L 746.247353 38.904689 
L 746.247353 128.16 
L 744.128372 128.16 
L 744.128372 38.904689 
L 741.398181 38.904689 
L 741.398181 17.28 
z
" clip-path="url(#pb2b4e5daf1)" style="fill: #ff0000"/>
   </g>
   <g id="patch_77">
    <path d="M 754.617467 107.961114 
L 751.704598 107.961114 
L 751.244671 128.16 
L 749.370896 128.16 
L 752.046833 17.28 
L 754.269037 17.28 
L 756.944975 128.16 
L 755.072748 128.16 
L 754.617467 107.961114 
z
M 752.16917 87.382015 
L 754.148249 87.382015 
L 753.160258 43.277154 
L 752.16917 87.382015 
z
" clip-path="url(#pb2b4e5daf1)" style="fill: #008000"/>
   </g>
   <g id="patch_78">
    <path d="M 762.590182 107.961114 
L 759.677312 107.961114 
L 759.217386 128.16 
L 757.34361 128.16 
L 760.019547 17.28 
L 762.241752 17.28 
L 764.917689 128.16 
L 763.045463 128.16 
L 762.590182 107.961114 
z
M 760.141885 87.382015 
L 762.120963 87.382015 
L 761.132973 43.277154 
L 760.141885 87.382015 
z
" clip-path="url(#pb2b4e5daf1)" style="fill: #008000"/>
   </g>
   <g id="patch_79">
    <path d="M 770.562896 107.961114 
L 767.650027 107.961114 
L 767.190101 128.16 
L 765.316325 128.16 
L 767.992262 17.28 
L 770.214467 17.28 
L 772.890404 128.16 
L 771.018177 128.16 
L 770.562896 107.961114 
z
M 768.1146 87.382015 
L 770.093678 87.382015 
L 769.105688 43.277154 
L 768.1146 87.382015 
z
" clip-path="url(#pb2b4e5daf1)" style="fill: #008000"/>
   </g>
   <g id="patch_80">
    <path d="M 778.535611 107.961114 
L 775.622742 107.961114 
L 775.162815 128.16 
L 773.28904 128.16 
L 775.964977 17.28 
L 778.187182 17.28 
L 780.863119 128.16 
L 778.990892 128.16 
L 778.535611 107.961114 
z
M 776.087314 87.382015 
L 778.066393 87.382015 
L 777.078402 43.277154 
L 776.087314 87.382015 
z
" clip-path="url(#pb2b4e5daf1)" style="fill: #008000"/>
   </g>
   <g id="patch_81">
    <path d="M 786.508326 107.961114 
L 783.595457 107.961114 
L 783.13553 128.16 
L 781.261755 128.16 
L 783.937692 17.28 
L 786.159897 17.28 
L 788.835834 128.16 
L 786.963607 128.16 
L 786.508326 107.961114 
z
M 784.060029 87.382015 
L 786.039108 87.382015 
L 785.051117 43.277154 
L 784.060029 87.382015 
z
" clip-path="url(#pb2b4e5daf1)" style="fill: #008000"/>
   </g>
   <g id="patch_82">
    <path d="M 794.481041 107.961114 
L 791.568172 107.961114 
L 791.108245 128.16 
L 789.23447 128.16 
L 791.910407 17.28 
L 794.132611 17.28 
L 796.808549 128.16 
L 794.936322 128.16 
L 794.481041 107.961114 
z
M 792.032744 87.382015 
L 794.011823 87.382015 
L 793.023832 43.277154 
L 792.032744 87.382015 
z
" clip-path="url(#pb2b4e5daf1)" style="fill: #008000"/>
   </g>
   <g id="patch_83">
    <path d="M 804.781263 120.212188 
Q 804.147705 124.151737 803.462622 126.144416 
Q 802.777539 128.16 802.03139 128.16 
Q 799.806301 128.16 798.506743 113.226358 
Q 797.207184 98.292716 797.207184 72.754357 
Q 797.207184 47.124379 798.506743 32.213642 
Q 799.806301 17.28 802.03139 17.28 
Q 802.777539 17.28 803.462622 19.295584 
Q 804.147705 21.288263 804.781263 25.227812 
L 804.781263 47.330518 
Q 804.14198 42.108325 803.521779 39.680463 
Q 802.901579 37.252601 802.216496 37.252601 
Q 800.987545 37.252601 800.283379 46.712101 
Q 799.581121 56.148697 799.581121 72.754357 
Q 799.581121 89.291303 800.283379 98.750804 
Q 800.987545 108.187399 802.216496 108.187399 
Q 802.901579 108.187399 803.521779 105.759537 
Q 804.14198 103.308771 804.781263 98.086577 
L 804.781263 120.212188 
z
" clip-path="url(#pb2b4e5daf1)" style="fill: #0000ff"/>
   </g>
   <g id="patch_84">
    <path d="M 810.42647 107.961114 
L 807.513601 107.961114 
L 807.053675 128.16 
L 805.179899 128.16 
L 807.855836 17.28 
L 810.078041 17.28 
L 812.753978 128.16 
L 810.881751 128.16 
L 810.42647 107.961114 
z
M 807.978174 87.382015 
L 809.957252 87.382015 
L 808.969262 43.277154 
L 807.978174 87.382015 
z
" clip-path="url(#pb2b4e5daf1)" style="fill: #008000"/>
   </g>
   <g id="patch_85">
    <path d="M 820.726693 118.127891 
Q 819.962835 123.143945 819.141263 125.663425 
Q 818.319691 128.16 817.4438 128.16 
Q 815.464558 128.16 814.308586 113.226358 
Q 813.152614 98.292716 813.152614 72.754357 
Q 813.152614 46.91824 814.328956 32.09912 
Q 815.506995 17.28 817.555832 17.28 
Q 818.345153 17.28 819.068272 19.295584 
Q 819.793088 21.288263 820.434729 25.227812 
L 820.434729 47.330518 
Q 819.772719 42.268655 819.117498 39.77208 
Q 818.462278 37.252601 817.803662 37.252601 
Q 816.584884 37.252601 815.924571 46.460153 
Q 815.264258 55.644801 815.264258 72.754357 
Q 815.264258 89.703582 815.900806 98.956943 
Q 816.537355 108.187399 817.708604 108.187399 
Q 818.027727 108.187399 818.301019 107.660599 
Q 818.57431 107.110894 818.791585 105.965677 
L 818.791585 85.214328 
L 817.54395 85.214328 
L 817.54395 66.73051 
L 820.726693 66.73051 
L 820.726693 118.127891 
z
" clip-path="url(#pb2b4e5daf1)" style="fill: #ffa600"/>
   </g>
   <g id="patch_86">
    <path d="M 826.3719 107.961114 
L 823.459031 107.961114 
L 822.999104 128.16 
L 821.125329 128.16 
L 823.801266 17.28 
L 826.023471 17.28 
L 828.699408 128.16 
L 826.827181 128.16 
L 826.3719 107.961114 
z
M 823.923603 87.382015 
L 825.902682 87.382015 
L 824.914691 43.277154 
L 823.923603 87.382015 
z
" clip-path="url(#pb2b4e5daf1)" style="fill: #008000"/>
   </g>
   <g id="patch_87">
    <path d="M 836.672123 120.212188 
Q 836.038564 124.151737 835.353481 126.144416 
Q 834.668398 128.16 833.922249 128.16 
Q 831.697161 128.16 830.397602 113.226358 
Q 829.098044 98.292716 829.098044 72.754357 
Q 829.098044 47.124379 830.397602 32.213642 
Q 831.697161 17.28 833.922249 17.28 
Q 834.668398 17.28 835.353481 19.295584 
Q 836.038564 21.288263 836.672123 25.227812 
L 836.672123 47.330518 
Q 836.032839 42.108325 835.412639 39.680463 
Q 834.792438 37.252601 834.107355 37.252601 
Q 832.878404 37.252601 832.174238 46.712101 
Q 831.47198 56.148697 831.47198 72.754357 
Q 831.47198 89.291303 832.174238 98.750804 
Q 832.878404 108.187399 834.107355 108.187399 
Q 834.792438 108.187399 835.412639 105.759537 
Q 836.032839 103.308771 836.672123 98.086577 
L 836.672123 120.212188 
z
" clip-path="url(#pb2b4e5daf1)" style="fill: #0000ff"/>
   </g>
   <g id="patch_88">
    <path d="M 837.070758 17.28 
L 844.644837 17.28 
L 844.644837 38.904689 
L 841.91993 38.904689 
L 841.91993 128.16 
L 839.80095 128.16 
L 839.80095 38.904689 
L 837.070758 38.904689 
L 837.070758 17.28 
z
" clip-path="url(#pb2b4e5daf1)" style="fill: #ff0000"/>
   </g>
   <g id="patch_89">
    <path d="M 850.290044 107.961114 
L 847.377175 107.961114 
L 846.917249 128.16 
L 845.043473 128.16 
L 847.71941 17.28 
L 849.941615 17.28 
L 852.617552 128.16 
L 850.745325 128.16 
L 850.290044 107.961114 
z
M 847.841748 87.382015 
L 849.820826 87.382015 
L 848.832836 43.277154 
L 847.841748 87.382015 
z
" clip-path="url(#pb2b4e5daf1)" style="fill: #008000"/>
   </g>
   <g id="patch_90">
    <path d="M 860.590267 120.212188 
Q 859.956708 124.151737 859.271625 126.144416 
Q 858.586542 128.16 857.840394 128.16 
Q 855.615305 128.16 854.315747 113.226358 
Q 853.016188 98.292716 853.016188 72.754357 
Q 853.016188 47.124379 854.315747 32.213642 
Q 855.615305 17.28 857.840394 17.28 
Q 858.586542 17.28 859.271625 19.295584 
Q 859.956708 21.288263 860.590267 25.227812 
L 860.590267 47.330518 
Q 859.950983 42.108325 859.330783 39.680463 
Q 858.710583 37.252601 858.0255 37.252601 
Q 856.796548 37.252601 856.092382 46.712101 
Q 855.390125 56.148697 855.390125 72.754357 
Q 855.390125 89.291303 856.092382 98.750804 
Q 856.796548 108.187399 858.0255 108.187399 
Q 858.710583 108.187399 859.330783 105.759537 
Q 859.950983 103.308771 860.590267 98.086577 
L 860.590267 120.212188 
z
" clip-path="url(#pb2b4e5daf1)" style="fill: #0000ff"/>
   </g>
   <g id="patch_91">
    <path d="M 866.235474 107.961114 
L 863.322605 107.961114 
L 862.862678 128.16 
L 860.988903 128.16 
L 863.66484 17.28 
L 865.887045 17.28 
L 868.562982 128.16 
L 866.690755 128.16 
L 866.235474 107.961114 
z
M 863.787177 87.382015 
L 865.766256 87.382015 
L 864.778265 43.277154 
L 863.787177 87.382015 
z
" clip-path="url(#pb2b4e5daf1)" style="fill: #008000"/>
   </g>
   <g id="patch_92">
    <path d="M 868.961618 17.28 
L 876.535697 17.28 
L 876.535697 38.904689 
L 873.81079 38.904689 
L 873.81079 128.16 
L 871.691809 128.16 
L 871.691809 38.904689 
L 868.961618 38.904689 
L 868.961618 17.28 
z
" clip-path="url(#pb2b4e5daf1)" style="fill: #ff0000"/>
   </g>
   <g id="patch_93">
    <path d="M 882.180904 107.961114 
L 879.268035 107.961114 
L 878.808108 128.16 
L 876.934332 128.16 
L 879.61027 17.28 
L 881.832474 17.28 
L 884.508411 128.16 
L 882.636185 128.16 
L 882.180904 107.961114 
z
M 879.732607 87.382015 
L 881.711685 87.382015 
L 880.723695 43.277154 
L 879.732607 87.382015 
z
" clip-path="url(#pb2b4e5daf1)" style="fill: #008000"/>
   </g>
   <g id="patch_94">
    <path d="M 890.153618 107.961114 
L 887.240749 107.961114 
L 886.780823 128.16 
L 884.907047 128.16 
L 887.582984 17.28 
L 889.805189 17.28 
L 892.481126 128.16 
L 890.608899 128.16 
L 890.153618 107.961114 
z
M 887.705322 87.382015 
L 889.6844 87.382015 
L 888.69641 43.277154 
L 887.705322 87.382015 
z
" clip-path="url(#pb2b4e5daf1)" style="fill: #008000"/>
   </g>
   <g id="patch_95">
    <path d="M 892.879762 17.28 
L 900.453841 17.28 
L 900.453841 38.904689 
L 897.728934 38.904689 
L 897.728934 128.16 
L 895.609953 128.16 
L 895.609953 38.904689 
L 892.879762 38.904689 
L 892.879762 17.28 
z
" clip-path="url(#pb2b4e5daf1)" style="fill: #ff0000"/>
   </g>
   <g id="patch_96">
    <path d="M 906.099048 107.961114 
L 903.186179 107.961114 
L 902.726252 128.16 
L 900.852477 128.16 
L 903.528414 17.28 
L 905.750619 17.28 
L 908.426556 128.16 
L 906.554329 128.16 
L 906.099048 107.961114 
z
M 903.650751 87.382015 
L 905.62983 87.382015 
L 904.641839 43.277154 
L 903.650751 87.382015 
z
" clip-path="url(#pb2b4e5daf1)" style="fill: #008000"/>
   </g>
   <g id="patch_97">
    <path d="M 916.399271 120.212188 
Q 915.765712 124.151737 915.080629 126.144416 
Q 914.395546 128.16 913.649397 128.16 
Q 911.424309 128.16 910.12475 113.226358 
Q 908.825192 98.292716 908.825192 72.754357 
Q 908.825192 47.124379 910.12475 32.213642 
Q 911.424309 17.28 913.649397 17.28 
Q 914.395546 17.28 915.080629 19.295584 
Q 915.765712 21.288263 916.399271 25.227812 
L 916.399271 47.330518 
Q 915.759987 42.108325 915.139787 39.680463 
Q 914.519586 37.252601 913.834503 37.252601 
Q 912.605552 37.252601 911.901386 46.712101 
Q 911.199128 56.148697 911.199128 72.754357 
Q 911.199128 89.291303 911.901386 98.750804 
Q 912.605552 108.187399 913.834503 108.187399 
Q 914.519586 108.187399 915.139787 105.759537 
Q 915.759987 103.308771 916.399271 98.086577 
L 916.399271 120.212188 
z
" clip-path="url(#pb2b4e5daf1)" style="fill: #0000ff"/>
   </g>
   <g id="patch_98">
    <path d="M 916.797906 17.28 
L 924.371985 17.28 
L 924.371985 38.904689 
L 921.647078 38.904689 
L 921.647078 128.16 
L 919.528098 128.16 
L 919.528098 38.904689 
L 916.797906 38.904689 
L 916.797906 17.28 
z
" clip-path="url(#pb2b4e5daf1)" style="fill: #ff0000"/>
   </g>
   <g id="patch_99">
    <path d="M 932.3447 118.127891 
Q 931.580842 123.143945 930.75927 125.663425 
Q 929.937698 128.16 929.061807 128.16 
Q 927.082566 128.16 925.926593 113.226358 
Q 924.770621 98.292716 924.770621 72.754357 
Q 924.770621 46.91824 925.946963 32.09912 
Q 927.125002 17.28 929.17384 17.28 
Q 929.96316 17.28 930.686279 19.295584 
Q 931.411096 21.288263 932.052737 25.227812 
L 932.052737 47.330518 
Q 931.390726 42.268655 930.735506 39.77208 
Q 930.080285 37.252601 929.421669 37.252601 
Q 928.202891 37.252601 927.542578 46.460153 
Q 926.882265 55.644801 926.882265 72.754357 
Q 926.882265 89.703582 927.518814 98.956943 
Q 928.155362 108.187399 929.326611 108.187399 
Q 929.645734 108.187399 929.919026 107.660599 
Q 930.192317 107.110894 930.409593 105.965677 
L 930.409593 85.214328 
L 929.161958 85.214328 
L 929.161958 66.73051 
L 932.3447 66.73051 
L 932.3447 118.127891 
z
" clip-path="url(#pb2b4e5daf1)" style="fill: #ffa600"/>
   </g>
   <g id="patch_100">
    <path d="M 932.743336 17.28 
L 940.317415 17.28 
L 940.317415 38.904689 
L 937.592508 38.904689 
L 937.592508 128.16 
L 935.473527 128.16 
L 935.473527 38.904689 
L 932.743336 38.904689 
L 932.743336 17.28 
z
" clip-path="url(#pb2b4e5daf1)" style="fill: #ff0000"/>
   </g>
   <g id="patch_101">
    <path d="M 945.962622 107.961114 
L 943.049753 107.961114 
L 942.589826 128.16 
L 940.716051 128.16 
L 943.391988 17.28 
L 945.614193 17.28 
L 948.29013 128.16 
L 946.417903 128.16 
L 945.962622 107.961114 
z
M 943.514325 87.382015 
L 945.493404 87.382015 
L 944.505413 43.277154 
L 943.514325 87.382015 
z
" clip-path="url(#pb2b4e5daf1)" style="fill: #008000"/>
   </g>
   <g id="patch_102">
    <path d="M 953.935337 107.961114 
L 951.022468 107.961114 
L 950.562541 128.16 
L 948.688766 128.16 
L 951.364703 17.28 
L 953.586908 17.28 
L 956.262845 128.16 
L 954.390618 128.16 
L 953.935337 107.961114 
z
M 951.48704 87.382015 
L 953.466119 87.382015 
L 952.478128 43.277154 
L 951.48704 87.382015 
z
" clip-path="url(#pb2b4e5daf1)" style="fill: #008000"/>
   </g>
   <g id="patch_103">
    <path d="M 961.908052 107.961114 
L 958.995183 107.961114 
L 958.535256 128.16 
L 956.66148 128.16 
L 959.337418 17.28 
L 961.559622 17.28 
L 964.235559 128.16 
L 962.363333 128.16 
L 961.908052 107.961114 
z
M 959.459755 87.382015 
L 961.438834 87.382015 
L 960.450843 43.277154 
L 959.459755 87.382015 
z
" clip-path="url(#pb2b4e5daf1)" style="fill: #008000"/>
   </g>
   <g id="patch_104">
    <path d="M 969.880766 107.961114 
L 966.967897 107.961114 
L 966.507971 128.16 
L 964.634195 128.16 
L 967.310132 17.28 
L 969.532337 17.28 
L 972.208274 128.16 
L 970.336047 128.16 
L 969.880766 107.961114 
z
M 967.43247 87.382015 
L 969.411548 87.382015 
L 968.423558 43.277154 
L 967.43247 87.382015 
z
" clip-path="url(#pb2b4e5daf1)" style="fill: #008000"/>
   </g>
   <g id="patch_105">
    <path d="M 980.180989 120.212188 
Q 979.54743 124.151737 978.862347 126.144416 
Q 978.177264 128.16 977.431116 128.16 
Q 975.206027 128.16 973.906469 113.226358 
Q 972.60691 98.292716 972.60691 72.754357 
Q 972.60691 47.124379 973.906469 32.213642 
Q 975.206027 17.28 977.431116 17.28 
Q 978.177264 17.28 978.862347 19.295584 
Q 979.54743 21.288263 980.180989 25.227812 
L 980.180989 47.330518 
Q 979.541706 42.108325 978.921505 39.680463 
Q 978.301305 37.252601 977.616222 37.252601 
Q 976.38727 37.252601 975.683104 46.712101 
Q 974.980847 56.148697 974.980847 72.754357 
Q 974.980847 89.291303 975.683104 98.750804 
Q 976.38727 108.187399 977.616222 108.187399 
Q 978.301305 108.187399 978.921505 105.759537 
Q 979.541706 103.308771 980.180989 98.086577 
L 980.180989 120.212188 
z
" clip-path="url(#pb2b4e5daf1)" style="fill: #0000ff"/>
   </g>
   <g id="patch_106">
    <path d="M 985.826196 107.961114 
L 982.913327 107.961114 
L 982.4534 128.16 
L 980.579625 128.16 
L 983.255562 17.28 
L 985.477767 17.28 
L 988.153704 128.16 
L 986.281477 128.16 
L 985.826196 107.961114 
z
M 983.377899 87.382015 
L 985.356978 87.382015 
L 984.368987 43.277154 
L 983.377899 87.382015 
z
" clip-path="url(#pb2b4e5daf1)" style="fill: #008000"/>
   </g>
   <g id="patch_107">
    <path d="M 996.126419 120.212188 
Q 995.49286 124.151737 994.807777 126.144416 
Q 994.122694 128.16 993.376545 128.16 
Q 991.151457 128.16 989.851898 113.226358 
Q 988.55234 98.292716 988.55234 72.754357 
Q 988.55234 47.124379 989.851898 32.213642 
Q 991.151457 17.28 993.376545 17.28 
Q 994.122694 17.28 994.807777 19.295584 
Q 995.49286 21.288263 996.126419 25.227812 
L 996.126419 47.330518 
Q 995.487135 42.108325 994.866935 39.680463 
Q 994.246734 37.252601 993.561651 37.252601 
Q 992.3327 37.252601 991.628534 46.712101 
Q 990.926276 56.148697 990.926276 72.754357 
Q 990.926276 89.291303 991.628534 98.750804 
Q 992.3327 108.187399 993.561651 108.187399 
Q 994.246734 108.187399 994.866935 105.759537 
Q 995.487135 103.308771 996.126419 98.086577 
L 996.126419 120.212188 
z
" clip-path="url(#pb2b4e5daf1)" style="fill: #0000ff"/>
   </g>
   <g id="patch_108">
    <path d="M 1001.771626 107.961114 
L 998.858757 107.961114 
L 998.39883 128.16 
L 996.525054 128.16 
L 999.200992 17.28 
L 1001.423196 17.28 
L 1004.099134 128.16 
L 1002.226907 128.16 
L 1001.771626 107.961114 
z
M 999.323329 87.382015 
L 1001.302408 87.382015 
L 1000.314417 43.277154 
L 999.323329 87.382015 
z
" clip-path="url(#pb2b4e5daf1)" style="fill: #008000"/>
   </g>
   <g id="patch_109">
    <path d="M 1009.74434 107.961114 
L 1006.831471 107.961114 
L 1006.371545 128.16 
L 1004.497769 128.16 
L 1007.173706 17.28 
L 1009.395911 17.28 
L 1012.071848 128.16 
L 1010.199621 128.16 
L 1009.74434 107.961114 
z
M 1007.296044 87.382015 
L 1009.275122 87.382015 
L 1008.287132 43.277154 
L 1007.296044 87.382015 
z
" clip-path="url(#pb2b4e5daf1)" style="fill: #008000"/>
   </g>
   <g id="patch_110">
    <path d="M 1020.044563 120.212188 
Q 1019.411004 124.151737 1018.725921 126.144416 
Q 1018.040839 128.16 1017.29469 128.16 
Q 1015.069601 128.16 1013.770043 113.226358 
Q 1012.470484 98.292716 1012.470484 72.754357 
Q 1012.470484 47.124379 1013.770043 32.213642 
Q 1015.069601 17.28 1017.29469 17.28 
Q 1018.040839 17.28 1018.725921 19.295584 
Q 1019.411004 21.288263 1020.044563 25.227812 
L 1020.044563 47.330518 
Q 1019.40528 42.108325 1018.785079 39.680463 
Q 1018.164879 37.252601 1017.479796 37.252601 
Q 1016.250845 37.252601 1015.546678 46.712101 
Q 1014.844421 56.148697 1014.844421 72.754357 
Q 1014.844421 89.291303 1015.546678 98.750804 
Q 1016.250845 108.187399 1017.479796 108.187399 
Q 1018.164879 108.187399 1018.785079 105.759537 
Q 1019.40528 103.308771 1020.044563 98.086577 
L 1020.044563 120.212188 
z
" clip-path="url(#pb2b4e5daf1)" style="fill: #0000ff"/>
   </g>
   <g id="patch_111">
    <path d="M 1025.68977 107.961114 
L 1022.776901 107.961114 
L 1022.316974 128.16 
L 1020.443199 128.16 
L 1023.119136 17.28 
L 1025.341341 17.28 
L 1028.017278 128.16 
L 1026.145051 128.16 
L 1025.68977 107.961114 
z
M 1023.241473 87.382015 
L 1025.220552 87.382015 
L 1024.232561 43.277154 
L 1023.241473 87.382015 
z
" clip-path="url(#pb2b4e5daf1)" style="fill: #008000"/>
   </g>
   <g id="patch_112">
    <path d="M 1028.415914 17.28 
L 1035.989993 17.28 
L 1035.989993 38.904689 
L 1033.265086 38.904689 
L 1033.265086 128.16 
L 1031.146105 128.16 
L 1031.146105 38.904689 
L 1028.415914 38.904689 
L 1028.415914 17.28 
z
" clip-path="url(#pb2b4e5daf1)" style="fill: #ff0000"/>
   </g>
   <g id="patch_113">
    <path d="M 1041.6352 107.961114 
L 1038.722331 107.961114 
L 1038.262404 128.16 
L 1036.388628 128.16 
L 1039.064566 17.28 
L 1041.28677 17.28 
L 1043.962708 128.16 
L 1042.090481 128.16 
L 1041.6352 107.961114 
z
M 1039.186903 87.382015 
L 1041.165982 87.382015 
L 1040.177991 43.277154 
L 1039.186903 87.382015 
z
" clip-path="url(#pb2b4e5daf1)" style="fill: #008000"/>
   </g>
   <g id="patch_114">
    <path d="M 1044.361343 17.28 
L 1051.935422 17.28 
L 1051.935422 38.904689 
L 1049.210515 38.904689 
L 1049.210515 128.16 
L 1047.091535 128.16 
L 1047.091535 38.904689 
L 1044.361343 38.904689 
L 1044.361343 17.28 
z
" clip-path="url(#pb2b4e5daf1)" style="fill: #ff0000"/>
   </g>
   <g id="patch_115">
    <path d="M 1059.908137 124.186094 
Q 1059.274579 126.155869 1058.589496 127.152208 
Q 1057.904413 128.16 1057.158264 128.16 
Q 1054.933175 128.16 1053.633617 120.693179 
Q 1052.334058 113.226358 1052.334058 100.457178 
Q 1052.334058 87.64219 1053.633617 80.186821 
Q 1054.933175 72.72 1057.158264 72.72 
Q 1057.904413 72.72 1058.589496 73.727792 
Q 1059.274579 74.724131 1059.908137 76.693906 
L 1059.908137 87.745259 
Q 1059.268854 85.134162 1058.648653 83.920231 
Q 1058.028453 82.7063 1057.34337 82.7063 
Q 1056.114419 82.7063 1055.410252 87.43605 
Q 1054.707995 92.154348 1054.707995 100.457178 
Q 1054.707995 108.725652 1055.410252 113.455402 
Q 1056.114419 118.1737 1057.34337 118.1737 
Q 1058.028453 118.1737 1058.648653 116.959769 
Q 1059.268854 115.734385 1059.908137 113.123289 
L 1059.908137 124.186094 
z
" clip-path="url(#pb2b4e5daf1)" style="fill: #0000ff"/>
   </g>
   <g id="patch_116">
    <path d="M 1059.908137 67.703945 
Q 1059.144279 70.211973 1058.322707 71.471712 
Q 1057.501135 72.72 1056.625244 72.72 
Q 1054.646002 72.72 1053.49003 65.253179 
Q 1052.334058 57.786358 1052.334058 45.017178 
Q 1052.334058 32.09912 1053.5104 24.68956 
Q 1054.688439 17.28 1056.737277 17.28 
Q 1057.526597 17.28 1058.249716 18.287792 
Q 1058.974533 19.284131 1059.616174 21.253906 
L 1059.616174 32.305259 
Q 1058.954163 29.774328 1058.298942 28.52604 
Q 1057.643722 27.2663 1056.985106 27.2663 
Q 1055.766328 27.2663 1055.106015 31.870076 
Q 1054.445702 36.4624 1054.445702 45.017178 
Q 1054.445702 53.491791 1055.08225 58.118471 
Q 1055.718799 62.7337 1056.890048 62.7337 
Q 1057.209171 62.7337 1057.482463 62.4703 
Q 1057.755754 62.195447 1057.97303 61.622838 
L 1057.97303 51.247164 
L 1056.725394 51.247164 
L 1056.725394 42.005255 
L 1059.908137 42.005255 
L 1059.908137 67.703945 
z
" clip-path="url(#pb2b4e5daf1)" style="fill: #ffa600"/>
   </g>
   <g id="patch_117">
    <path d="M 1067.880852 120.212188 
Q 1067.247293 124.151737 1066.56221 126.144416 
Q 1065.877127 128.16 1065.130978 128.16 
Q 1062.90589 128.16 1061.606331 113.226358 
Q 1060.306773 98.292716 1060.306773 72.754357 
Q 1060.306773 47.124379 1061.606331 32.213642 
Q 1062.90589 17.28 1065.130978 17.28 
Q 1065.877127 17.28 1066.56221 19.295584 
Q 1067.247293 21.288263 1067.880852 25.227812 
L 1067.880852 47.330518 
Q 1067.241568 42.108325 1066.621368 39.680463 
Q 1066.001167 37.252601 1065.316084 37.252601 
Q 1064.087133 37.252601 1063.382967 46.712101 
Q 1062.680709 56.148697 1062.680709 72.754357 
Q 1062.680709 89.291303 1063.382967 98.750804 
Q 1064.087133 108.187399 1065.316084 108.187399 
Q 1066.001167 108.187399 1066.621368 105.759537 
Q 1067.241568 103.308771 1067.880852 98.086577 
L 1067.880852 120.212188 
z
" clip-path="url(#pb2b4e5daf1)" style="fill: #0000ff"/>
   </g>
   <g id="patch_118">
    <path d="M 1073.526059 107.961114 
L 1070.61319 107.961114 
L 1070.153263 128.16 
L 1068.279488 128.16 
L 1070.955425 17.28 
L 1073.17763 17.28 
L 1075.853567 128.16 
L 1073.98134 128.16 
L 1073.526059 107.961114 
z
M 1071.077762 87.382015 
L 1073.056841 87.382015 
L 1072.06885 43.277154 
L 1071.077762 87.382015 
z
" clip-path="url(#pb2b4e5daf1)" style="fill: #008000"/>
   </g>
   <g id="patch_119">
    <path d="M 1083.826282 118.127891 
Q 1083.062423 123.143945 1082.240851 125.663425 
Q 1081.419279 128.16 1080.543388 128.16 
Q 1078.564147 128.16 1077.408175 113.226358 
Q 1076.252203 98.292716 1076.252203 72.754357 
Q 1076.252203 46.91824 1077.428544 32.09912 
Q 1078.606583 17.28 1080.655421 17.28 
Q 1081.444741 17.28 1082.16786 19.295584 
Q 1082.892677 21.288263 1083.534318 25.227812 
L 1083.534318 47.330518 
Q 1082.872307 42.268655 1082.217087 39.77208 
Q 1081.561866 37.252601 1080.903251 37.252601 
Q 1079.684472 37.252601 1079.024159 46.460153 
Q 1078.363846 55.644801 1078.363846 72.754357 
Q 1078.363846 89.703582 1079.000395 98.956943 
Q 1079.636943 108.187399 1080.808193 108.187399 
Q 1081.127316 108.187399 1081.400607 107.660599 
Q 1081.673899 107.110894 1081.891174 105.965677 
L 1081.891174 85.214328 
L 1080.643539 85.214328 
L 1080.643539 66.73051 
L 1083.826282 66.73051 
L 1083.826282 118.127891 
z
" clip-path="url(#pb2b4e5daf1)" style="fill: #ffa600"/>
   </g>
   <g id="patch_120">
    <path d="M 1084.224917 17.28 
L 1091.798996 17.28 
L 1091.798996 38.904689 
L 1089.074089 38.904689 
L 1089.074089 128.16 
L 1086.955109 128.16 
L 1086.955109 38.904689 
L 1084.224917 38.904689 
L 1084.224917 17.28 
z
" clip-path="url(#pb2b4e5daf1)" style="fill: #ff0000"/>
   </g>
   <g id="patch_121">
    <path d="M 1099.771711 120.212188 
Q 1099.138153 124.151737 1098.45307 126.144416 
Q 1097.767987 128.16 1097.021838 128.16 
Q 1094.796749 128.16 1093.497191 113.226358 
Q 1092.197632 98.292716 1092.197632 72.754357 
Q 1092.197632 47.124379 1093.497191 32.213642 
Q 1094.796749 17.28 1097.021838 17.28 
Q 1097.767987 17.28 1098.45307 19.295584 
Q 1099.138153 21.288263 1099.771711 25.227812 
L 1099.771711 47.330518 
Q 1099.132428 42.108325 1098.512227 39.680463 
Q 1097.892027 37.252601 1097.206944 37.252601 
Q 1095.977993 37.252601 1095.273826 46.712101 
Q 1094.571569 56.148697 1094.571569 72.754357 
Q 1094.571569 89.291303 1095.273826 98.750804 
Q 1095.977993 108.187399 1097.206944 108.187399 
Q 1097.892027 108.187399 1098.512227 105.759537 
Q 1099.132428 103.308771 1099.771711 98.086577 
L 1099.771711 120.212188 
z
" clip-path="url(#pb2b4e5daf1)" style="fill: #0000ff"/>
   </g>
   <g id="patch_122">
    <path d="M 1105.416918 107.961114 
L 1102.504049 107.961114 
L 1102.044122 128.16 
L 1100.170347 128.16 
L 1102.846284 17.28 
L 1105.068489 17.28 
L 1107.744426 128.16 
L 1105.872199 128.16 
L 1105.416918 107.961114 
z
M 1102.968621 87.382015 
L 1104.9477 87.382015 
L 1103.959709 43.277154 
L 1102.968621 87.382015 
z
" clip-path="url(#pb2b4e5daf1)" style="fill: #008000"/>
   </g>
   <g id="patch_123">
    <path d="M 1115.717141 120.212188 
Q 1115.083582 124.151737 1114.398499 126.144416 
Q 1113.713416 128.16 1112.967267 128.16 
Q 1110.742179 128.16 1109.44262 113.226358 
Q 1108.143062 98.292716 1108.143062 72.754357 
Q 1108.143062 47.124379 1109.44262 32.213642 
Q 1110.742179 17.28 1112.967267 17.28 
Q 1113.713416 17.28 1114.398499 19.295584 
Q 1115.083582 21.288263 1115.717141 25.227812 
L 1115.717141 47.330518 
Q 1115.077857 42.108325 1114.457657 39.680463 
Q 1113.837456 37.252601 1113.152373 37.252601 
Q 1111.923422 37.252601 1111.219256 46.712101 
Q 1110.516998 56.148697 1110.516998 72.754357 
Q 1110.516998 89.291303 1111.219256 98.750804 
Q 1111.923422 108.187399 1113.152373 108.187399 
Q 1113.837456 108.187399 1114.457657 105.759537 
Q 1115.077857 103.308771 1115.717141 98.086577 
L 1115.717141 120.212188 
z
" clip-path="url(#pb2b4e5daf1)" style="fill: #0000ff"/>
   </g>
   <g id="patch_124">
    <path d="M 1116.115777 17.28 
L 1123.689856 17.28 
L 1123.689856 38.904689 
L 1120.964949 38.904689 
L 1120.964949 128.16 
L 1118.845968 128.16 
L 1118.845968 38.904689 
L 1116.115777 38.904689 
L 1116.115777 17.28 
z
" clip-path="url(#pb2b4e5daf1)" style="fill: #ff0000"/>
   </g>
   <g id="patch_125">
    <path d="M 1129.335063 107.961114 
L 1126.422193 107.961114 
L 1125.962267 128.16 
L 1124.088491 128.16 
L 1126.764428 17.28 
L 1128.986633 17.28 
L 1131.66257 128.16 
L 1129.790344 128.16 
L 1129.335063 107.961114 
z
M 1126.886766 87.382015 
L 1128.865844 87.382015 
L 1127.877854 43.277154 
L 1126.886766 87.382015 
z
" clip-path="url(#pb2b4e5daf1)" style="fill: #008000"/>
   </g>
   <g id="patch_126">
    <path d="M 1132.061206 17.28 
L 1139.635285 17.28 
L 1139.635285 38.904689 
L 1136.910378 38.904689 
L 1136.910378 128.16 
L 1134.791397 128.16 
L 1134.791397 38.904689 
L 1132.061206 38.904689 
L 1132.061206 17.28 
z
" clip-path="url(#pb2b4e5daf1)" style="fill: #ff0000"/>
   </g>
   <g id="patch_127">
    <path d="M 1147.608 118.127891 
Q 1146.844142 123.143945 1146.02257 125.663425 
Q 1145.200998 128.16 1144.325107 128.16 
Q 1142.345865 128.16 1141.189893 113.226358 
Q 1140.033921 98.292716 1140.033921 72.754357 
Q 1140.033921 46.91824 1141.210263 32.09912 
Q 1142.388302 17.28 1144.437139 17.28 
Q 1145.22646 17.28 1145.949579 19.295584 
Q 1146.674395 21.288263 1147.316036 25.227812 
L 1147.316036 47.330518 
Q 1146.654026 42.268655 1145.998805 39.77208 
Q 1145.343585 37.252601 1144.684969 37.252601 
Q 1143.466191 37.252601 1142.805878 46.460153 
Q 1142.145565 55.644801 1142.145565 72.754357 
Q 1142.145565 89.703582 1142.782113 98.956943 
Q 1143.418662 108.187399 1144.589911 108.187399 
Q 1144.909034 108.187399 1145.182326 107.660599 
Q 1145.455617 107.110894 1145.672892 105.965677 
L 1145.672892 85.214328 
L 1144.425257 85.214328 
L 1144.425257 66.73051 
L 1147.608 66.73051 
L 1147.608 118.127891 
z
" clip-path="url(#pb2b4e5daf1)" style="fill: #ffa600"/>
   </g>
  </g>
 </g>
 <defs>
  <clipPath id="pb2b4e5daf1">
   <rect x="159.39" y="17.28" width="988.218" height="110.88"/>
  </clipPath>
 </defs>
</svg>
