<?xml version="1.0" encoding="utf-8" standalone="no"?>
<!DOCTYPE svg PUBLIC "-//W3C//DTD SVG 1.1//EN"
  "http://www.w3.org/Graphics/SVG/1.1/DTD/svg11.dtd">
<svg xmlns:xlink="http://www.w3.org/1999/xlink" width="1285.2pt" height="144pt" viewBox="0 0 1285.2 144" xmlns="http://www.w3.org/2000/svg" version="1.1">
 <metadata>
  <rdf:RDF xmlns:dc="http://purl.org/dc/elements/1.1/" xmlns:cc="http://creativecommons.org/ns#" xmlns:rdf="http://www.w3.org/1999/02/22-rdf-syntax-ns#">
   <cc:Work>
    <dc:type rdf:resource="http://purl.org/dc/dcmitype/StillImage"/>
    <dc:date>2024-11-11T17:06:38.648131</dc:date>
    <dc:format>image/svg+xml</dc:format>
    <dc:creator>
     <cc:Agent>
      <dc:title>Matplotlib v3.9.2, https://matplotlib.org/</dc:title>
     </cc:Agent>
    </dc:creator>
   </cc:Work>
  </rdf:RDF>
 </metadata>
 <defs>
  <style type="text/css">*{stroke-linejoin: round; stroke-linecap: butt}</style>
 </defs>
 <g id="figure_1">
  <g id="patch_1">
   <path d="M 0 144 
L 1285.2 144 
L 1285.2 0 
L 0 0 
z
" style="fill: #ffffff"/>
  </g>
  <g id="axes_1">
   <g id="line2d_1">
    <path d="M 160.65 128.16 
L 1156.68 128.16 
" clip-path="url(#p78bcc69770)" style="fill: none; stroke: #000000; stroke-width: 0.5; stroke-linecap: square"/>
   </g>
   <g id="patch_2">
    <path d="M 168.222857 127.975167 
Q 167.589401 128.066785 166.904428 128.113126 
Q 166.219456 128.16 165.473427 128.16 
Q 163.248698 128.16 161.949349 127.812706 
Q 160.65 127.465412 160.65 126.871497 
Q 160.65 126.275451 161.949349 125.928689 
Q 163.248698 125.581395 165.473427 125.581395 
Q 166.219456 125.581395 166.904428 125.628269 
Q 167.589401 125.674611 168.222857 125.766228 
L 168.222857 126.280245 
Q 167.583677 126.158798 166.963576 126.102336 
Q 166.343476 126.045874 165.658503 126.045874 
Q 164.429751 126.045874 163.725698 126.265863 
Q 163.023554 126.485319 163.023554 126.871497 
Q 163.023554 127.256077 163.725698 127.476065 
Q 164.429751 127.695521 165.658503 127.695521 
Q 166.343476 127.695521 166.963576 127.639059 
Q 167.583677 127.582064 168.222857 127.460618 
L 168.222857 127.975167 
z
" clip-path="url(#p78bcc69770)" style="fill: #0000ff"/>
   </g>
   <g id="patch_3">
    <path d="M 160.65 123.002791 
L 168.222857 123.002791 
L 168.222857 123.50569 
L 165.49839 123.50569 
L 165.49839 125.581395 
L 163.379751 125.581395 
L 163.379751 123.50569 
L 160.65 123.50569 
L 160.65 123.002791 
z
" clip-path="url(#p78bcc69770)" style="fill: #ff0000"/>
   </g>
   <g id="patch_4">
    <path d="M 165.895725 112.668477 
L 162.983326 112.668477 
L 162.523473 123.002791 
L 160.65 123.002791 
L 163.325505 66.273488 
L 165.547352 66.273488 
L 168.222857 123.002791 
L 166.350932 123.002791 
L 165.895725 112.668477 
z
M 163.447823 102.139635 
L 165.426582 102.139635 
L 164.438751 79.574358 
L 163.447823 102.139635 
z
" clip-path="url(#p78bcc69770)" style="fill: #008000"/>
   </g>
   <g id="patch_5">
    <path d="M 176.194286 120.212188 
Q 175.560829 124.151737 174.875857 126.144416 
Q 174.190884 128.16 173.444856 128.16 
Q 171.220126 128.16 169.920777 113.226358 
Q 168.621429 98.292716 168.621429 72.754357 
Q 168.621429 47.124379 169.920777 32.213642 
Q 171.220126 17.28 173.444856 17.28 
Q 174.190884 17.28 174.875857 19.295584 
Q 175.560829 21.288263 176.194286 25.227812 
L 176.194286 47.330518 
Q 175.555105 42.108325 174.935005 39.680463 
Q 174.314904 37.252601 173.629932 37.252601 
Q 172.401179 37.252601 171.697127 46.712101 
Q 170.994982 56.148697 170.994982 72.754357 
Q 170.994982 89.291303 171.697127 98.750804 
Q 172.401179 108.187399 173.629932 108.187399 
Q 174.314904 108.187399 174.935005 105.759537 
Q 175.555105 103.308771 176.194286 98.086577 
L 176.194286 120.212188 
z
" clip-path="url(#p78bcc69770)" style="fill: #0000ff"/>
   </g>
   <g id="patch_6">
    <path d="M 176.592857 125.581395 
L 184.165714 125.581395 
L 184.165714 126.084295 
L 181.441247 126.084295 
L 181.441247 128.16 
L 179.322608 128.16 
L 179.322608 126.084295 
L 176.592857 126.084295 
L 176.592857 125.581395 
z
" clip-path="url(#p78bcc69770)" style="fill: #ff0000"/>
   </g>
   <g id="patch_7">
    <path d="M 184.165714 122.808903 
Q 183.532258 124.183164 182.847285 124.878285 
Q 182.162313 125.581395 181.416284 125.581395 
Q 179.191555 125.581395 177.892206 120.371985 
Q 176.592857 115.162575 176.592857 106.253845 
Q 176.592857 97.313156 177.892206 92.111736 
Q 179.191555 86.902326 181.416284 86.902326 
Q 182.162313 86.902326 182.847285 87.605436 
Q 183.532258 88.300557 184.165714 89.674818 
L 184.165714 97.385065 
Q 183.526534 95.563369 182.906433 94.71644 
Q 182.286333 93.869512 181.601361 93.869512 
Q 180.372608 93.869512 179.668555 97.169337 
Q 178.966411 100.461173 178.966411 106.253845 
Q 178.966411 112.022548 179.668555 115.322373 
Q 180.372608 118.614209 181.601361 118.614209 
Q 182.286333 118.614209 182.906433 117.76728 
Q 183.526534 116.912362 184.165714 115.090666 
L 184.165714 122.808903 
z
" clip-path="url(#p78bcc69770)" style="fill: #0000ff"/>
   </g>
   <g id="patch_8">
    <path d="M 181.838582 74.219304 
L 178.926183 74.219304 
L 178.46633 86.902326 
L 176.592857 86.902326 
L 179.268363 17.28 
L 181.490209 17.28 
L 184.165714 86.902326 
L 182.293789 86.902326 
L 181.838582 74.219304 
z
M 179.39068 61.297544 
L 181.369439 61.297544 
L 180.381608 33.603794 
L 179.39068 61.297544 
z
" clip-path="url(#p78bcc69770)" style="fill: #008000"/>
   </g>
   <g id="patch_9">
    <path d="M 184.564286 125.581395 
L 192.137143 125.581395 
L 192.137143 126.084295 
L 189.412675 126.084295 
L 189.412675 128.16 
L 187.294037 128.16 
L 187.294037 126.084295 
L 184.564286 126.084295 
L 184.564286 125.581395 
z
" clip-path="url(#p78bcc69770)" style="fill: #ff0000"/>
   </g>
   <g id="patch_10">
    <path d="M 189.810011 105.852251 
L 186.897611 105.852251 
L 186.437759 125.581395 
L 184.564286 125.581395 
L 187.239791 17.28 
L 189.461637 17.28 
L 192.137143 125.581395 
L 190.265218 125.581395 
L 189.810011 105.852251 
z
M 187.362109 85.751735 
L 189.340868 85.751735 
L 188.353037 42.672569 
L 187.362109 85.751735 
z
" clip-path="url(#p78bcc69770)" style="fill: #008000"/>
   </g>
   <g id="patch_11">
    <path d="M 197.781439 127.690258 
L 194.86904 127.690258 
L 194.409187 128.16 
L 192.535714 128.16 
L 195.21122 125.581395 
L 197.433066 125.581395 
L 200.108571 128.16 
L 198.236647 128.16 
L 197.781439 127.690258 
z
M 195.333537 127.211675 
L 197.312297 127.211675 
L 196.324465 126.18598 
L 195.333537 127.211675 
z
" clip-path="url(#p78bcc69770)" style="fill: #008000"/>
   </g>
   <g id="patch_12">
    <path d="M 200.108571 122.548432 
Q 199.344836 124.064914 198.523397 124.826617 
Q 197.701957 125.581395 196.826208 125.581395 
Q 194.847286 125.581395 193.6915 121.066573 
Q 192.535714 116.551751 192.535714 108.830852 
Q 192.535714 101.019933 193.711866 96.539734 
Q 194.889715 92.059535 196.938222 92.059535 
Q 197.727415 92.059535 198.450418 92.668897 
Q 199.175118 93.271335 199.816655 94.462362 
L 199.816655 101.144575 
Q 199.154751 99.614245 198.499636 98.859466 
Q 197.844521 98.097763 197.186012 98.097763 
Q 195.96743 98.097763 195.307224 100.881442 
Q 194.647017 103.658196 194.647017 108.830852 
Q 194.647017 113.955036 195.283463 116.752564 
Q 195.919909 119.543167 197.090969 119.543167 
Q 197.410041 119.543167 197.683288 119.383902 
Q 197.956536 119.217712 198.173776 118.871484 
L 198.173776 112.59782 
L 196.926342 112.59782 
L 196.926342 107.009689 
L 200.108571 107.009689 
L 200.108571 122.548432 
z
" clip-path="url(#p78bcc69770)" style="fill: #ffa600"/>
   </g>
   <g id="patch_13">
    <path d="M 200.108571 86.699382 
Q 199.475115 89.356288 198.790143 90.700188 
Q 198.10517 92.059535 197.359142 92.059535 
Q 195.134412 92.059535 193.835063 81.988009 
Q 192.535714 71.916483 192.535714 54.692938 
Q 192.535714 37.407605 193.835063 27.351526 
Q 195.134412 17.28 197.359142 17.28 
Q 198.10517 17.28 198.790143 18.639347 
Q 199.475115 19.983247 200.108571 22.640153 
L 200.108571 37.546629 
Q 199.469391 34.024684 198.849291 32.387289 
Q 198.22919 30.749893 197.544218 30.749893 
Q 196.315465 30.749893 195.611412 37.129556 
Q 194.909268 43.493772 194.909268 54.692938 
Q 194.909268 65.845763 195.611412 72.225426 
Q 196.315465 78.589641 197.544218 78.589641 
Q 198.22919 78.589641 198.849291 76.952246 
Q 199.469391 75.299404 200.108571 71.777459 
L 200.108571 86.699382 
z
" clip-path="url(#p78bcc69770)" style="fill: #0000ff"/>
   </g>
   <g id="patch_14">
    <path d="M 200.507143 17.28 
L 208.08 17.28 
L 208.08 38.904689 
L 205.355533 38.904689 
L 205.355533 128.16 
L 203.236894 128.16 
L 203.236894 38.904689 
L 200.507143 38.904689 
L 200.507143 17.28 
z
" clip-path="url(#p78bcc69770)" style="fill: #ff0000"/>
   </g>
   <g id="patch_15">
    <path d="M 213.724296 127.220517 
L 210.811897 127.220517 
L 210.352045 128.16 
L 208.478571 128.16 
L 211.154077 123.002791 
L 213.375923 123.002791 
L 216.051429 128.16 
L 214.179504 128.16 
L 213.724296 127.220517 
z
M 211.276395 126.26335 
L 213.255154 126.26335 
L 212.267322 124.211961 
L 211.276395 126.26335 
z
" clip-path="url(#p78bcc69770)" style="fill: #008000"/>
   </g>
   <g id="patch_16">
    <path d="M 208.478571 17.28 
L 216.051429 17.28 
L 216.051429 37.89889 
L 213.326961 37.89889 
L 213.326961 123.002791 
L 211.208322 123.002791 
L 211.208322 37.89889 
L 208.478571 37.89889 
L 208.478571 17.28 
z
" clip-path="url(#p78bcc69770)" style="fill: #ff0000"/>
   </g>
   <g id="patch_17">
    <path d="M 216.45 17.28 
L 224.022857 17.28 
L 224.022857 38.904689 
L 221.29839 38.904689 
L 221.29839 128.16 
L 219.179751 128.16 
L 219.179751 38.904689 
L 216.45 38.904689 
L 216.45 17.28 
z
" clip-path="url(#p78bcc69770)" style="fill: #ff0000"/>
   </g>
   <g id="patch_18">
    <path d="M 231.994286 118.127891 
Q 231.230551 123.143945 230.409111 125.663425 
Q 229.587672 128.16 228.711922 128.16 
Q 226.733 128.16 225.577214 113.226358 
Q 224.421429 98.292716 224.421429 72.754357 
Q 224.421429 46.91824 225.597581 32.09912 
Q 226.77543 17.28 228.823937 17.28 
Q 229.61313 17.28 230.336132 19.295584 
Q 231.060832 21.288263 231.702369 25.227812 
L 231.702369 47.330518 
Q 231.040466 42.268655 230.385351 39.77208 
Q 229.730236 37.252601 229.071726 37.252601 
Q 227.853145 37.252601 227.192938 46.460153 
Q 226.532732 55.644801 226.532732 72.754357 
Q 226.532732 89.703582 227.169177 98.956943 
Q 227.805623 108.187399 228.976684 108.187399 
Q 229.295755 108.187399 229.569003 107.660599 
Q 229.84225 107.110894 230.05949 105.965677 
L 230.05949 85.214328 
L 228.812056 85.214328 
L 228.812056 66.73051 
L 231.994286 66.73051 
L 231.994286 118.127891 
z
" clip-path="url(#p78bcc69770)" style="fill: #ffa600"/>
   </g>
   <g id="patch_19">
    <path d="M 232.392857 17.28 
L 239.965714 17.28 
L 239.965714 38.904689 
L 237.241247 38.904689 
L 237.241247 128.16 
L 235.122608 128.16 
L 235.122608 38.904689 
L 232.392857 38.904689 
L 232.392857 17.28 
z
" clip-path="url(#p78bcc69770)" style="fill: #ff0000"/>
   </g>
   <g id="patch_20">
    <path d="M 245.610011 107.961114 
L 242.697611 107.961114 
L 242.237759 128.16 
L 240.364286 128.16 
L 243.039791 17.28 
L 245.261637 17.28 
L 247.937143 128.16 
L 246.065218 128.16 
L 245.610011 107.961114 
z
M 243.162109 87.382015 
L 245.140868 87.382015 
L 244.153037 43.277154 
L 243.162109 87.382015 
z
" clip-path="url(#p78bcc69770)" style="fill: #008000"/>
   </g>
   <g id="patch_21">
    <path d="M 248.335714 94.63814 
L 255.908571 94.63814 
L 255.908571 101.175836 
L 253.184104 101.175836 
L 253.184104 128.16 
L 251.065465 128.16 
L 251.065465 101.175836 
L 248.335714 101.175836 
L 248.335714 94.63814 
z
" clip-path="url(#p78bcc69770)" style="fill: #ff0000"/>
   </g>
   <g id="patch_22">
    <path d="M 255.908571 89.093154 
Q 255.275115 91.841677 254.590143 93.231918 
Q 253.90517 94.63814 253.159142 94.63814 
Q 250.934412 94.63814 249.635063 84.21932 
Q 248.335714 73.8005 248.335714 55.983039 
Q 248.335714 38.10166 249.635063 27.69882 
Q 250.934412 17.28 253.159142 17.28 
Q 253.90517 17.28 254.590143 18.686221 
Q 255.275115 20.076462 255.908571 22.824985 
L 255.908571 38.245478 
Q 255.269391 34.602087 254.649291 32.90823 
Q 254.02919 31.214373 253.344218 31.214373 
Q 252.115465 31.214373 251.411412 37.814024 
Q 250.709268 44.397695 250.709268 55.983039 
Q 250.709268 67.520444 251.411412 74.120096 
Q 252.115465 80.703767 253.344218 80.703767 
Q 254.02919 80.703767 254.649291 79.00991 
Q 255.269391 77.300073 255.908571 73.656682 
L 255.908571 89.093154 
z
" clip-path="url(#p78bcc69770)" style="fill: #0000ff"/>
   </g>
   <g id="patch_23">
    <path d="M 261.552868 107.961114 
L 258.640468 107.961114 
L 258.180616 128.16 
L 256.307143 128.16 
L 258.982648 17.28 
L 261.204495 17.28 
L 263.88 128.16 
L 262.008075 128.16 
L 261.552868 107.961114 
z
M 259.104966 87.382015 
L 261.083725 87.382015 
L 260.095894 43.277154 
L 259.104966 87.382015 
z
" clip-path="url(#p78bcc69770)" style="fill: #008000"/>
   </g>
   <g id="patch_24">
    <path d="M 271.851429 127.420669 
Q 271.217972 127.787138 270.533 127.972504 
Q 269.848027 128.16 269.101999 128.16 
Q 266.877269 128.16 265.57792 126.770824 
Q 264.278571 125.381648 264.278571 123.005987 
Q 264.278571 120.621803 265.57792 119.234757 
Q 266.877269 117.845581 269.101999 117.845581 
Q 269.848027 117.845581 270.533 118.033078 
Q 271.217972 118.218443 271.851429 118.584913 
L 271.851429 120.640978 
Q 271.212248 120.155193 270.592148 119.929345 
Q 269.972047 119.703498 269.287075 119.703498 
Q 268.058322 119.703498 267.35427 120.583451 
Q 266.652125 121.461274 266.652125 123.005987 
Q 266.652125 124.544307 267.35427 125.424261 
Q 268.058322 126.302084 269.287075 126.302084 
Q 269.972047 126.302084 270.592148 126.076236 
Q 271.212248 125.848258 271.851429 125.362472 
L 271.851429 127.420669 
z
" clip-path="url(#p78bcc69770)" style="fill: #0000ff"/>
   </g>
   <g id="patch_25">
    <path d="M 271.851429 116.679057 
Q 271.087694 117.262319 270.266254 117.555282 
Q 269.444815 117.845581 268.569065 117.845581 
Q 266.590143 117.845581 265.434357 116.109111 
Q 264.278571 114.372641 264.278571 111.403065 
Q 264.278571 108.398865 265.454723 106.675712 
Q 266.632573 104.952558 268.68108 104.952558 
Q 269.470272 104.952558 270.193275 105.186928 
Q 270.917975 105.418635 271.559512 105.876722 
L 271.559512 108.446804 
Q 270.897608 107.858216 270.242493 107.567916 
Q 269.587378 107.274954 268.928869 107.274954 
Q 267.710288 107.274954 267.050081 108.345599 
Q 266.389874 109.413581 266.389874 111.403065 
Q 266.389874 113.373905 267.02632 114.449877 
Q 267.662766 115.523186 268.833827 115.523186 
Q 269.152898 115.523186 269.426146 115.46193 
Q 269.699393 115.398011 269.916633 115.264846 
L 269.916633 112.851899 
L 268.669199 112.851899 
L 268.669199 110.702617 
L 271.851429 110.702617 
L 271.851429 116.679057 
z
" clip-path="url(#p78bcc69770)" style="fill: #ffa600"/>
   </g>
   <g id="patch_26">
    <path d="M 269.524296 88.981346 
L 266.611897 88.981346 
L 266.152045 104.952558 
L 264.278571 104.952558 
L 266.954077 17.28 
L 269.175923 17.28 
L 271.851429 104.952558 
L 269.979504 104.952558 
L 269.524296 88.981346 
z
M 267.076395 72.7095 
L 269.055154 72.7095 
L 268.067322 37.835889 
L 267.076395 72.7095 
z
" clip-path="url(#p78bcc69770)" style="fill: #008000"/>
   </g>
   <g id="patch_27">
    <path d="M 272.25 117.845581 
L 279.822857 117.845581 
L 279.822857 119.85718 
L 277.09839 119.85718 
L 277.09839 128.16 
L 274.979751 128.16 
L 274.979751 119.85718 
L 272.25 119.85718 
L 272.25 117.845581 
z
" clip-path="url(#p78bcc69770)" style="fill: #ff0000"/>
   </g>
   <g id="patch_28">
    <path d="M 279.822857 114.346008 
Q 279.059122 116.095795 278.237683 116.974683 
Q 277.416243 117.845581 276.540494 117.845581 
Q 274.561571 117.845581 273.405786 112.636171 
Q 272.25 107.426762 272.25 98.518031 
Q 272.25 89.505433 273.426152 84.335972 
Q 274.604001 79.166512 276.652508 79.166512 
Q 277.441701 79.166512 278.164704 79.869622 
Q 278.889403 80.564743 279.530941 81.939004 
L 279.530941 89.649251 
Q 278.869037 87.883484 278.213922 87.012586 
Q 277.558807 86.133698 276.900298 86.133698 
Q 275.681716 86.133698 275.02151 89.345635 
Q 274.361303 92.549582 274.361303 98.518031 
Q 274.361303 104.430552 274.997749 107.658468 
Q 275.634195 110.878395 276.805255 110.878395 
Q 277.124327 110.878395 277.397574 110.694628 
Q 277.670822 110.50287 277.888062 110.103376 
L 277.888062 102.864533 
L 276.640628 102.864533 
L 276.640628 96.41669 
L 279.822857 96.41669 
L 279.822857 114.346008 
z
" clip-path="url(#p78bcc69770)" style="fill: #ffa600"/>
   </g>
   <g id="patch_29">
    <path d="M 277.495725 67.892715 
L 274.583326 67.892715 
L 274.123473 79.166512 
L 272.25 79.166512 
L 274.925505 17.28 
L 277.147352 17.28 
L 279.822857 79.166512 
L 277.950932 79.166512 
L 277.495725 67.892715 
z
M 275.047823 56.406706 
L 277.026582 56.406706 
L 276.038751 31.790039 
L 275.047823 56.406706 
z
" clip-path="url(#p78bcc69770)" style="fill: #008000"/>
   </g>
   <g id="patch_30">
    <path d="M 285.467153 107.961114 
L 282.554754 107.961114 
L 282.094902 128.16 
L 280.221429 128.16 
L 282.896934 17.28 
L 285.11878 17.28 
L 287.794286 128.16 
L 285.922361 128.16 
L 285.467153 107.961114 
z
M 283.019252 87.382015 
L 284.998011 87.382015 
L 284.01018 43.277154 
L 283.019252 87.382015 
z
" clip-path="url(#p78bcc69770)" style="fill: #008000"/>
   </g>
   <g id="patch_31">
    <path d="M 293.438582 107.961114 
L 290.526183 107.961114 
L 290.06633 128.16 
L 288.192857 128.16 
L 290.868363 17.28 
L 293.090209 17.28 
L 295.765714 128.16 
L 293.893789 128.16 
L 293.438582 107.961114 
z
M 290.99068 87.382015 
L 292.969439 87.382015 
L 291.981608 43.277154 
L 290.99068 87.382015 
z
" clip-path="url(#p78bcc69770)" style="fill: #008000"/>
   </g>
   <g id="patch_32">
    <path d="M 301.410011 107.961114 
L 298.497611 107.961114 
L 298.037759 128.16 
L 296.164286 128.16 
L 298.839791 17.28 
L 301.061637 17.28 
L 303.737143 128.16 
L 301.865218 128.16 
L 301.410011 107.961114 
z
M 298.962109 87.382015 
L 300.940868 87.382015 
L 299.953037 43.277154 
L 298.962109 87.382015 
z
" clip-path="url(#p78bcc69770)" style="fill: #008000"/>
   </g>
   <g id="patch_33">
    <path d="M 311.708571 118.127891 
Q 310.944836 123.143945 310.123397 125.663425 
Q 309.301957 128.16 308.426208 128.16 
Q 306.447286 128.16 305.2915 113.226358 
Q 304.135714 98.292716 304.135714 72.754357 
Q 304.135714 46.91824 305.311866 32.09912 
Q 306.489715 17.28 308.538222 17.28 
Q 309.327415 17.28 310.050418 19.295584 
Q 310.775118 21.288263 311.416655 25.227812 
L 311.416655 47.330518 
Q 310.754751 42.268655 310.099636 39.77208 
Q 309.444521 37.252601 308.786012 37.252601 
Q 307.56743 37.252601 306.907224 46.460153 
Q 306.247017 55.644801 306.247017 72.754357 
Q 306.247017 89.703582 306.883463 98.956943 
Q 307.519909 108.187399 308.690969 108.187399 
Q 309.010041 108.187399 309.283288 107.660599 
Q 309.556536 107.110894 309.773776 105.965677 
L 309.773776 85.214328 
L 308.526342 85.214328 
L 308.526342 66.73051 
L 311.708571 66.73051 
L 311.708571 118.127891 
z
" clip-path="url(#p78bcc69770)" style="fill: #ffa600"/>
   </g>
   <g id="patch_34">
    <path d="M 319.68 124.27851 
Q 319.046544 126.202476 318.361571 127.175645 
Q 317.676599 128.16 316.93057 128.16 
Q 314.705841 128.16 313.406492 120.866826 
Q 312.107143 113.573652 312.107143 101.10143 
Q 312.107143 88.584464 313.406492 81.302476 
Q 314.705841 74.009302 316.93057 74.009302 
Q 317.676599 74.009302 318.361571 74.993657 
Q 319.046544 75.966826 319.68 77.890792 
L 319.68 88.685137 
Q 319.04082 86.134763 318.420719 84.949063 
Q 317.800619 83.763363 317.115646 83.763363 
Q 315.886893 83.763363 315.182841 88.383119 
Q 314.480696 92.991689 314.480696 101.10143 
Q 314.480696 109.177613 315.182841 113.797369 
Q 315.886893 118.405939 317.115646 118.405939 
Q 317.800619 118.405939 318.420719 117.220239 
Q 319.04082 116.023353 319.68 113.47298 
L 319.68 124.27851 
z
" clip-path="url(#p78bcc69770)" style="fill: #0000ff"/>
   </g>
   <g id="patch_35">
    <path d="M 312.107143 17.28 
L 319.68 17.28 
L 319.68 28.343794 
L 316.955533 28.343794 
L 316.955533 74.009302 
L 314.836894 74.009302 
L 314.836894 28.343794 
L 312.107143 28.343794 
L 312.107143 17.28 
z
" clip-path="url(#p78bcc69770)" style="fill: #ff0000"/>
   </g>
   <g id="patch_36">
    <path d="M 320.078571 17.28 
L 327.651429 17.28 
L 327.651429 38.904689 
L 324.926961 38.904689 
L 324.926961 128.16 
L 322.808322 128.16 
L 322.808322 38.904689 
L 320.078571 38.904689 
L 320.078571 17.28 
z
" clip-path="url(#p78bcc69770)" style="fill: #ff0000"/>
   </g>
   <g id="patch_37">
    <path d="M 335.622857 118.127891 
Q 334.859122 123.143945 334.037683 125.663425 
Q 333.216243 128.16 332.340494 128.16 
Q 330.361571 128.16 329.205786 113.226358 
Q 328.05 98.292716 328.05 72.754357 
Q 328.05 46.91824 329.226152 32.09912 
Q 330.404001 17.28 332.452508 17.28 
Q 333.241701 17.28 333.964704 19.295584 
Q 334.689403 21.288263 335.330941 25.227812 
L 335.330941 47.330518 
Q 334.669037 42.268655 334.013922 39.77208 
Q 333.358807 37.252601 332.700298 37.252601 
Q 331.481716 37.252601 330.82151 46.460153 
Q 330.161303 55.644801 330.161303 72.754357 
Q 330.161303 89.703582 330.797749 98.956943 
Q 331.434195 108.187399 332.605255 108.187399 
Q 332.924327 108.187399 333.197574 107.660599 
Q 333.470822 107.110894 333.688062 105.965677 
L 333.688062 85.214328 
L 332.440628 85.214328 
L 332.440628 66.73051 
L 335.622857 66.73051 
L 335.622857 118.127891 
z
" clip-path="url(#p78bcc69770)" style="fill: #ffa600"/>
   </g>
   <g id="patch_38">
    <path d="M 341.267153 107.961114 
L 338.354754 107.961114 
L 337.894902 128.16 
L 336.021429 128.16 
L 338.696934 17.28 
L 340.91878 17.28 
L 343.594286 128.16 
L 341.722361 128.16 
L 341.267153 107.961114 
z
M 338.819252 87.382015 
L 340.798011 87.382015 
L 339.81018 43.277154 
L 338.819252 87.382015 
z
" clip-path="url(#p78bcc69770)" style="fill: #008000"/>
   </g>
   <g id="patch_39">
    <path d="M 351.565714 127.926695 
Q 350.801979 128.043348 349.98054 128.10194 
Q 349.1591 128.16 348.283351 128.16 
Q 346.304429 128.16 345.148643 127.812706 
Q 343.992857 127.465412 343.992857 126.871497 
Q 343.992857 126.270657 345.169009 125.926026 
Q 346.346858 125.581395 348.395365 125.581395 
Q 349.184558 125.581395 349.907561 125.628269 
Q 350.63226 125.674611 351.273798 125.766228 
L 351.273798 126.280245 
Q 350.611894 126.162527 349.956779 126.104467 
Q 349.301664 126.045874 348.643155 126.045874 
Q 347.424573 126.045874 346.764367 126.260004 
Q 346.10416 126.4736 346.10416 126.871497 
Q 346.10416 127.265665 346.740606 127.480859 
Q 347.377052 127.695521 348.548112 127.695521 
Q 348.867184 127.695521 349.140431 127.68327 
Q 349.413679 127.670486 349.630919 127.643853 
L 349.630919 127.161263 
L 348.383485 127.161263 
L 348.383485 126.731407 
L 351.565714 126.731407 
L 351.565714 127.926695 
z
" clip-path="url(#p78bcc69770)" style="fill: #ffa600"/>
   </g>
   <g id="patch_40">
    <path d="M 349.238582 105.852251 
L 346.326183 105.852251 
L 345.86633 125.581395 
L 343.992857 125.581395 
L 346.668363 17.28 
L 348.890209 17.28 
L 351.565714 125.581395 
L 349.693789 125.581395 
L 349.238582 105.852251 
z
M 346.79068 85.751735 
L 348.769439 85.751735 
L 347.781608 42.672569 
L 346.79068 85.751735 
z
" clip-path="url(#p78bcc69770)" style="fill: #008000"/>
   </g>
   <g id="patch_41">
    <path d="M 359.537143 120.212188 
Q 358.903686 124.151737 358.218714 126.144416 
Q 357.533741 128.16 356.787713 128.16 
Q 354.562983 128.16 353.263635 113.226358 
Q 351.964286 98.292716 351.964286 72.754357 
Q 351.964286 47.124379 353.263635 32.213642 
Q 354.562983 17.28 356.787713 17.28 
Q 357.533741 17.28 358.218714 19.295584 
Q 358.903686 21.288263 359.537143 25.227812 
L 359.537143 47.330518 
Q 358.897962 42.108325 358.277862 39.680463 
Q 357.657762 37.252601 356.972789 37.252601 
Q 355.744036 37.252601 355.039984 46.712101 
Q 354.337839 56.148697 354.337839 72.754357 
Q 354.337839 89.291303 355.039984 98.750804 
Q 355.744036 108.187399 356.972789 108.187399 
Q 357.657762 108.187399 358.277862 105.759537 
Q 358.897962 103.308771 359.537143 98.086577 
L 359.537143 120.212188 
z
" clip-path="url(#p78bcc69770)" style="fill: #0000ff"/>
   </g>
   <g id="patch_42">
    <path d="M 367.508571 118.127891 
Q 366.744836 123.143945 365.923397 125.663425 
Q 365.101957 128.16 364.226208 128.16 
Q 362.247286 128.16 361.0915 113.226358 
Q 359.935714 98.292716 359.935714 72.754357 
Q 359.935714 46.91824 361.111866 32.09912 
Q 362.289715 17.28 364.338222 17.28 
Q 365.127415 17.28 365.850418 19.295584 
Q 366.575118 21.288263 367.216655 25.227812 
L 367.216655 47.330518 
Q 366.554751 42.268655 365.899636 39.77208 
Q 365.244521 37.252601 364.586012 37.252601 
Q 363.36743 37.252601 362.707224 46.460153 
Q 362.047017 55.644801 362.047017 72.754357 
Q 362.047017 89.703582 362.683463 98.956943 
Q 363.319909 108.187399 364.490969 108.187399 
Q 364.810041 108.187399 365.083288 107.660599 
Q 365.356536 107.110894 365.573776 105.965677 
L 365.573776 85.214328 
L 364.326342 85.214328 
L 364.326342 66.73051 
L 367.508571 66.73051 
L 367.508571 118.127891 
z
" clip-path="url(#p78bcc69770)" style="fill: #ffa600"/>
   </g>
   <g id="patch_43">
    <path d="M 373.152868 107.961114 
L 370.240468 107.961114 
L 369.780616 128.16 
L 367.907143 128.16 
L 370.582648 17.28 
L 372.804495 17.28 
L 375.48 128.16 
L 373.608075 128.16 
L 373.152868 107.961114 
z
M 370.704966 87.382015 
L 372.683725 87.382015 
L 371.695894 43.277154 
L 370.704966 87.382015 
z
" clip-path="url(#p78bcc69770)" style="fill: #008000"/>
   </g>
   <g id="patch_44">
    <path d="M 383.451429 118.127891 
Q 382.687694 123.143945 381.866254 125.663425 
Q 381.044815 128.16 380.169065 128.16 
Q 378.190143 128.16 377.034357 113.226358 
Q 375.878571 98.292716 375.878571 72.754357 
Q 375.878571 46.91824 377.054723 32.09912 
Q 378.232573 17.28 380.28108 17.28 
Q 381.070272 17.28 381.793275 19.295584 
Q 382.517975 21.288263 383.159512 25.227812 
L 383.159512 47.330518 
Q 382.497608 42.268655 381.842493 39.77208 
Q 381.187378 37.252601 380.528869 37.252601 
Q 379.310288 37.252601 378.650081 46.460153 
Q 377.989874 55.644801 377.989874 72.754357 
Q 377.989874 89.703582 378.62632 98.956943 
Q 379.262766 108.187399 380.433827 108.187399 
Q 380.752898 108.187399 381.026146 107.660599 
Q 381.299393 107.110894 381.516633 105.965677 
L 381.516633 85.214328 
L 380.269199 85.214328 
L 380.269199 66.73051 
L 383.451429 66.73051 
L 383.451429 118.127891 
z
" clip-path="url(#p78bcc69770)" style="fill: #ffa600"/>
   </g>
   <g id="patch_45">
    <path d="M 389.095725 107.961114 
L 386.183326 107.961114 
L 385.723473 128.16 
L 383.85 128.16 
L 386.525505 17.28 
L 388.747352 17.28 
L 391.422857 128.16 
L 389.550932 128.16 
L 389.095725 107.961114 
z
M 386.647823 87.382015 
L 388.626582 87.382015 
L 387.638751 43.277154 
L 386.647823 87.382015 
z
" clip-path="url(#p78bcc69770)" style="fill: #008000"/>
   </g>
   <g id="patch_46">
    <path d="M 397.067153 107.961114 
L 394.154754 107.961114 
L 393.694902 128.16 
L 391.821429 128.16 
L 394.496934 17.28 
L 396.71878 17.28 
L 399.394286 128.16 
L 397.522361 128.16 
L 397.067153 107.961114 
z
M 394.619252 87.382015 
L 396.598011 87.382015 
L 395.61018 43.277154 
L 394.619252 87.382015 
z
" clip-path="url(#p78bcc69770)" style="fill: #008000"/>
   </g>
   <g id="patch_47">
    <path d="M 405.038582 107.961114 
L 402.126183 107.961114 
L 401.66633 128.16 
L 399.792857 128.16 
L 402.468363 17.28 
L 404.690209 17.28 
L 407.365714 128.16 
L 405.493789 128.16 
L 405.038582 107.961114 
z
M 402.59068 87.382015 
L 404.569439 87.382015 
L 403.581608 43.277154 
L 402.59068 87.382015 
z
" clip-path="url(#p78bcc69770)" style="fill: #008000"/>
   </g>
   <g id="patch_48">
    <path d="M 415.337143 120.212188 
Q 414.703686 124.151737 414.018714 126.144416 
Q 413.333741 128.16 412.587713 128.16 
Q 410.362983 128.16 409.063635 113.226358 
Q 407.764286 98.292716 407.764286 72.754357 
Q 407.764286 47.124379 409.063635 32.213642 
Q 410.362983 17.28 412.587713 17.28 
Q 413.333741 17.28 414.018714 19.295584 
Q 414.703686 21.288263 415.337143 25.227812 
L 415.337143 47.330518 
Q 414.697962 42.108325 414.077862 39.680463 
Q 413.457762 37.252601 412.772789 37.252601 
Q 411.544036 37.252601 410.839984 46.712101 
Q 410.137839 56.148697 410.137839 72.754357 
Q 410.137839 89.291303 410.839984 98.750804 
Q 411.544036 108.187399 412.772789 108.187399 
Q 413.457762 108.187399 414.077862 105.759537 
Q 414.697962 103.308771 415.337143 98.086577 
L 415.337143 120.212188 
z
" clip-path="url(#p78bcc69770)" style="fill: #0000ff"/>
   </g>
   <g id="patch_49">
    <path d="M 423.308571 118.127891 
Q 422.544836 123.143945 421.723397 125.663425 
Q 420.901957 128.16 420.026208 128.16 
Q 418.047286 128.16 416.8915 113.226358 
Q 415.735714 98.292716 415.735714 72.754357 
Q 415.735714 46.91824 416.911866 32.09912 
Q 418.089715 17.28 420.138222 17.28 
Q 420.927415 17.28 421.650418 19.295584 
Q 422.375118 21.288263 423.016655 25.227812 
L 423.016655 47.330518 
Q 422.354751 42.268655 421.699636 39.77208 
Q 421.044521 37.252601 420.386012 37.252601 
Q 419.16743 37.252601 418.507224 46.460153 
Q 417.847017 55.644801 417.847017 72.754357 
Q 417.847017 89.703582 418.483463 98.956943 
Q 419.119909 108.187399 420.290969 108.187399 
Q 420.610041 108.187399 420.883288 107.660599 
Q 421.156536 107.110894 421.373776 105.965677 
L 421.373776 85.214328 
L 420.126342 85.214328 
L 420.126342 66.73051 
L 423.308571 66.73051 
L 423.308571 118.127891 
z
" clip-path="url(#p78bcc69770)" style="fill: #ffa600"/>
   </g>
   <g id="patch_50">
    <path d="M 423.707143 17.28 
L 431.28 17.28 
L 431.28 38.904689 
L 428.555533 38.904689 
L 428.555533 128.16 
L 426.436894 128.16 
L 426.436894 38.904689 
L 423.707143 38.904689 
L 423.707143 17.28 
z
" clip-path="url(#p78bcc69770)" style="fill: #ff0000"/>
   </g>
   <g id="patch_51">
    <path d="M 436.924296 107.961114 
L 434.011897 107.961114 
L 433.552045 128.16 
L 431.678571 128.16 
L 434.354077 17.28 
L 436.575923 17.28 
L 439.251429 128.16 
L 437.379504 128.16 
L 436.924296 107.961114 
z
M 434.476395 87.382015 
L 436.455154 87.382015 
L 435.467322 43.277154 
L 434.476395 87.382015 
z
" clip-path="url(#p78bcc69770)" style="fill: #008000"/>
   </g>
   <g id="patch_52">
    <path d="M 444.895725 107.961114 
L 441.983326 107.961114 
L 441.523473 128.16 
L 439.65 128.16 
L 442.325505 17.28 
L 444.547352 17.28 
L 447.222857 128.16 
L 445.350932 128.16 
L 444.895725 107.961114 
z
M 442.447823 87.382015 
L 444.426582 87.382015 
L 443.438751 43.277154 
L 442.447823 87.382015 
z
" clip-path="url(#p78bcc69770)" style="fill: #008000"/>
   </g>
   <g id="patch_53">
    <path d="M 455.194286 127.926695 
Q 454.430551 128.043348 453.609111 128.10194 
Q 452.787672 128.16 451.911922 128.16 
Q 449.933 128.16 448.777214 127.812706 
Q 447.621429 127.465412 447.621429 126.871497 
Q 447.621429 126.270657 448.797581 125.926026 
Q 449.97543 125.581395 452.023937 125.581395 
Q 452.81313 125.581395 453.536132 125.628269 
Q 454.260832 125.674611 454.902369 125.766228 
L 454.902369 126.280245 
Q 454.240466 126.162527 453.585351 126.104467 
Q 452.930236 126.045874 452.271726 126.045874 
Q 451.053145 126.045874 450.392938 126.260004 
Q 449.732732 126.4736 449.732732 126.871497 
Q 449.732732 127.265665 450.369177 127.480859 
Q 451.005623 127.695521 452.176684 127.695521 
Q 452.495755 127.695521 452.769003 127.68327 
Q 453.04225 127.670486 453.25949 127.643853 
L 453.25949 127.161263 
L 452.012056 127.161263 
L 452.012056 126.731407 
L 455.194286 126.731407 
L 455.194286 127.926695 
z
" clip-path="url(#p78bcc69770)" style="fill: #ffa600"/>
   </g>
   <g id="patch_54">
    <path d="M 452.867153 105.852251 
L 449.954754 105.852251 
L 449.494902 125.581395 
L 447.621429 125.581395 
L 450.296934 17.28 
L 452.51878 17.28 
L 455.194286 125.581395 
L 453.322361 125.581395 
L 452.867153 105.852251 
z
M 450.419252 85.751735 
L 452.398011 85.751735 
L 451.41018 42.672569 
L 450.419252 85.751735 
z
" clip-path="url(#p78bcc69770)" style="fill: #008000"/>
   </g>
   <g id="patch_55">
    <path d="M 463.165714 127.926695 
Q 462.401979 128.043348 461.58054 128.10194 
Q 460.7591 128.16 459.883351 128.16 
Q 457.904429 128.16 456.748643 127.812706 
Q 455.592857 127.465412 455.592857 126.871497 
Q 455.592857 126.270657 456.769009 125.926026 
Q 457.946858 125.581395 459.995365 125.581395 
Q 460.784558 125.581395 461.507561 125.628269 
Q 462.23226 125.674611 462.873798 125.766228 
L 462.873798 126.280245 
Q 462.211894 126.162527 461.556779 126.104467 
Q 460.901664 126.045874 460.243155 126.045874 
Q 459.024573 126.045874 458.364367 126.260004 
Q 457.70416 126.4736 457.70416 126.871497 
Q 457.70416 127.265665 458.340606 127.480859 
Q 458.977052 127.695521 460.148112 127.695521 
Q 460.467184 127.695521 460.740431 127.68327 
Q 461.013679 127.670486 461.230919 127.643853 
L 461.230919 127.161263 
L 459.983485 127.161263 
L 459.983485 126.731407 
L 463.165714 126.731407 
L 463.165714 127.926695 
z
" clip-path="url(#p78bcc69770)" style="fill: #ffa600"/>
   </g>
   <g id="patch_56">
    <path d="M 460.838582 105.852251 
L 457.926183 105.852251 
L 457.46633 125.581395 
L 455.592857 125.581395 
L 458.268363 17.28 
L 460.490209 17.28 
L 463.165714 125.581395 
L 461.293789 125.581395 
L 460.838582 105.852251 
z
M 458.39068 85.751735 
L 460.369439 85.751735 
L 459.381608 42.672569 
L 458.39068 85.751735 
z
" clip-path="url(#p78bcc69770)" style="fill: #008000"/>
   </g>
   <g id="patch_57">
    <path d="M 463.564286 17.28 
L 471.137143 17.28 
L 471.137143 38.904689 
L 468.412675 38.904689 
L 468.412675 128.16 
L 466.294037 128.16 
L 466.294037 38.904689 
L 463.564286 38.904689 
L 463.564286 17.28 
z
" clip-path="url(#p78bcc69770)" style="fill: #ff0000"/>
   </g>
   <g id="patch_58">
    <path d="M 479.108571 118.127891 
Q 478.344836 123.143945 477.523397 125.663425 
Q 476.701957 128.16 475.826208 128.16 
Q 473.847286 128.16 472.6915 113.226358 
Q 471.535714 98.292716 471.535714 72.754357 
Q 471.535714 46.91824 472.711866 32.09912 
Q 473.889715 17.28 475.938222 17.28 
Q 476.727415 17.28 477.450418 19.295584 
Q 478.175118 21.288263 478.816655 25.227812 
L 478.816655 47.330518 
Q 478.154751 42.268655 477.499636 39.77208 
Q 476.844521 37.252601 476.186012 37.252601 
Q 474.96743 37.252601 474.307224 46.460153 
Q 473.647017 55.644801 473.647017 72.754357 
Q 473.647017 89.703582 474.283463 98.956943 
Q 474.919909 108.187399 476.090969 108.187399 
Q 476.410041 108.187399 476.683288 107.660599 
Q 476.956536 107.110894 477.173776 105.965677 
L 477.173776 85.214328 
L 475.926342 85.214328 
L 475.926342 66.73051 
L 479.108571 66.73051 
L 479.108571 118.127891 
z
" clip-path="url(#p78bcc69770)" style="fill: #ffa600"/>
   </g>
   <g id="patch_59">
    <path d="M 484.752868 107.961114 
L 481.840468 107.961114 
L 481.380616 128.16 
L 479.507143 128.16 
L 482.182648 17.28 
L 484.404495 17.28 
L 487.08 128.16 
L 485.208075 128.16 
L 484.752868 107.961114 
z
M 482.304966 87.382015 
L 484.283725 87.382015 
L 483.295894 43.277154 
L 482.304966 87.382015 
z
" clip-path="url(#p78bcc69770)" style="fill: #008000"/>
   </g>
   <g id="patch_60">
    <path d="M 487.478571 17.28 
L 495.051429 17.28 
L 495.051429 38.904689 
L 492.326961 38.904689 
L 492.326961 128.16 
L 490.208322 128.16 
L 490.208322 38.904689 
L 487.478571 38.904689 
L 487.478571 17.28 
z
" clip-path="url(#p78bcc69770)" style="fill: #ff0000"/>
   </g>
   <g id="patch_61">
    <path d="M 500.695725 107.961114 
L 497.783326 107.961114 
L 497.323473 128.16 
L 495.45 128.16 
L 498.125505 17.28 
L 500.347352 17.28 
L 503.022857 128.16 
L 501.150932 128.16 
L 500.695725 107.961114 
z
M 498.247823 87.382015 
L 500.226582 87.382015 
L 499.238751 43.277154 
L 498.247823 87.382015 
z
" clip-path="url(#p78bcc69770)" style="fill: #008000"/>
   </g>
   <g id="patch_62">
    <path d="M 503.421429 17.28 
L 510.994286 17.28 
L 510.994286 38.904689 
L 508.269818 38.904689 
L 508.269818 128.16 
L 506.151179 128.16 
L 506.151179 38.904689 
L 503.421429 38.904689 
L 503.421429 17.28 
z
" clip-path="url(#p78bcc69770)" style="fill: #ff0000"/>
   </g>
   <g id="patch_63">
    <path d="M 516.638582 107.961114 
L 513.726183 107.961114 
L 513.26633 128.16 
L 511.392857 128.16 
L 514.068363 17.28 
L 516.290209 17.28 
L 518.965714 128.16 
L 517.093789 128.16 
L 516.638582 107.961114 
z
M 514.19068 87.382015 
L 516.169439 87.382015 
L 515.181608 43.277154 
L 514.19068 87.382015 
z
" clip-path="url(#p78bcc69770)" style="fill: #008000"/>
   </g>
   <g id="patch_64">
    <path d="M 524.610011 107.961114 
L 521.697611 107.961114 
L 521.237759 128.16 
L 519.364286 128.16 
L 522.039791 17.28 
L 524.261637 17.28 
L 526.937143 128.16 
L 525.065218 128.16 
L 524.610011 107.961114 
z
M 522.162109 87.382015 
L 524.140868 87.382015 
L 523.153037 43.277154 
L 522.162109 87.382015 
z
" clip-path="url(#p78bcc69770)" style="fill: #008000"/>
   </g>
   <g id="patch_65">
    <path d="M 532.581439 107.961114 
L 529.66904 107.961114 
L 529.209187 128.16 
L 527.335714 128.16 
L 530.01122 17.28 
L 532.233066 17.28 
L 534.908571 128.16 
L 533.036647 128.16 
L 532.581439 107.961114 
z
M 530.133537 87.382015 
L 532.112297 87.382015 
L 531.124465 43.277154 
L 530.133537 87.382015 
z
" clip-path="url(#p78bcc69770)" style="fill: #008000"/>
   </g>
   <g id="patch_66">
    <path d="M 535.307143 17.28 
L 542.88 17.28 
L 542.88 38.904689 
L 540.155533 38.904689 
L 540.155533 128.16 
L 538.036894 128.16 
L 538.036894 38.904689 
L 535.307143 38.904689 
L 535.307143 17.28 
z
" clip-path="url(#p78bcc69770)" style="fill: #ff0000"/>
   </g>
   <g id="patch_67">
    <path d="M 548.524296 107.961114 
L 545.611897 107.961114 
L 545.152045 128.16 
L 543.278571 128.16 
L 545.954077 17.28 
L 548.175923 17.28 
L 550.851429 128.16 
L 548.979504 128.16 
L 548.524296 107.961114 
z
M 546.076395 87.382015 
L 548.055154 87.382015 
L 547.067322 43.277154 
L 546.076395 87.382015 
z
" clip-path="url(#p78bcc69770)" style="fill: #008000"/>
   </g>
   <g id="patch_68">
    <path d="M 551.25 17.28 
L 558.822857 17.28 
L 558.822857 38.904689 
L 556.09839 38.904689 
L 556.09839 128.16 
L 553.979751 128.16 
L 553.979751 38.904689 
L 551.25 38.904689 
L 551.25 17.28 
z
" clip-path="url(#p78bcc69770)" style="fill: #ff0000"/>
   </g>
   <g id="patch_69">
    <path d="M 566.794286 120.212188 
Q 566.160829 124.151737 565.475857 126.144416 
Q 564.790884 128.16 564.044856 128.16 
Q 561.820126 128.16 560.520777 113.226358 
Q 559.221429 98.292716 559.221429 72.754357 
Q 559.221429 47.124379 560.520777 32.213642 
Q 561.820126 17.28 564.044856 17.28 
Q 564.790884 17.28 565.475857 19.295584 
Q 566.160829 21.288263 566.794286 25.227812 
L 566.794286 47.330518 
Q 566.155105 42.108325 565.535005 39.680463 
Q 564.914904 37.252601 564.229932 37.252601 
Q 563.001179 37.252601 562.297127 46.712101 
Q 561.594982 56.148697 561.594982 72.754357 
Q 561.594982 89.291303 562.297127 98.750804 
Q 563.001179 108.187399 564.229932 108.187399 
Q 564.914904 108.187399 565.535005 105.759537 
Q 566.155105 103.308771 566.794286 98.086577 
L 566.794286 120.212188 
z
" clip-path="url(#p78bcc69770)" style="fill: #0000ff"/>
   </g>
   <g id="patch_70">
    <path d="M 572.438582 107.961114 
L 569.526183 107.961114 
L 569.06633 128.16 
L 567.192857 128.16 
L 569.868363 17.28 
L 572.090209 17.28 
L 574.765714 128.16 
L 572.893789 128.16 
L 572.438582 107.961114 
z
M 569.99068 87.382015 
L 571.969439 87.382015 
L 570.981608 43.277154 
L 569.99068 87.382015 
z
" clip-path="url(#p78bcc69770)" style="fill: #008000"/>
   </g>
   <g id="patch_71">
    <path d="M 580.410011 107.961114 
L 577.497611 107.961114 
L 577.037759 128.16 
L 575.164286 128.16 
L 577.839791 17.28 
L 580.061637 17.28 
L 582.737143 128.16 
L 580.865218 128.16 
L 580.410011 107.961114 
z
M 577.962109 87.382015 
L 579.940868 87.382015 
L 578.953037 43.277154 
L 577.962109 87.382015 
z
" clip-path="url(#p78bcc69770)" style="fill: #008000"/>
   </g>
   <g id="patch_72">
    <path d="M 583.135714 17.28 
L 590.708571 17.28 
L 590.708571 38.904689 
L 587.984104 38.904689 
L 587.984104 128.16 
L 585.865465 128.16 
L 585.865465 38.904689 
L 583.135714 38.904689 
L 583.135714 17.28 
z
" clip-path="url(#p78bcc69770)" style="fill: #ff0000"/>
   </g>
   <g id="patch_73">
    <path d="M 596.352868 107.961114 
L 593.440468 107.961114 
L 592.980616 128.16 
L 591.107143 128.16 
L 593.782648 17.28 
L 596.004495 17.28 
L 598.68 128.16 
L 596.808075 128.16 
L 596.352868 107.961114 
z
M 593.904966 87.382015 
L 595.883725 87.382015 
L 594.895894 43.277154 
L 593.904966 87.382015 
z
" clip-path="url(#p78bcc69770)" style="fill: #008000"/>
   </g>
   <g id="patch_74">
    <path d="M 599.078571 17.28 
L 606.651429 17.28 
L 606.651429 38.904689 
L 603.926961 38.904689 
L 603.926961 128.16 
L 601.808322 128.16 
L 601.808322 38.904689 
L 599.078571 38.904689 
L 599.078571 17.28 
z
" clip-path="url(#p78bcc69770)" style="fill: #ff0000"/>
   </g>
   <g id="patch_75">
    <path d="M 612.295725 107.961114 
L 609.383326 107.961114 
L 608.923473 128.16 
L 607.05 128.16 
L 609.725505 17.28 
L 611.947352 17.28 
L 614.622857 128.16 
L 612.750932 128.16 
L 612.295725 107.961114 
z
M 609.847823 87.382015 
L 611.826582 87.382015 
L 610.838751 43.277154 
L 609.847823 87.382015 
z
" clip-path="url(#p78bcc69770)" style="fill: #008000"/>
   </g>
   <g id="patch_76">
    <path d="M 615.021429 17.28 
L 622.594286 17.28 
L 622.594286 38.904689 
L 619.869818 38.904689 
L 619.869818 128.16 
L 617.751179 128.16 
L 617.751179 38.904689 
L 615.021429 38.904689 
L 615.021429 17.28 
z
" clip-path="url(#p78bcc69770)" style="fill: #ff0000"/>
   </g>
   <g id="patch_77">
    <path d="M 622.992857 17.28 
L 630.565714 17.28 
L 630.565714 38.904689 
L 627.841247 38.904689 
L 627.841247 128.16 
L 625.722608 128.16 
L 625.722608 38.904689 
L 622.992857 38.904689 
L 622.992857 17.28 
z
" clip-path="url(#p78bcc69770)" style="fill: #ff0000"/>
   </g>
   <g id="patch_78">
    <path d="M 636.210011 107.961114 
L 633.297611 107.961114 
L 632.837759 128.16 
L 630.964286 128.16 
L 633.639791 17.28 
L 635.861637 17.28 
L 638.537143 128.16 
L 636.665218 128.16 
L 636.210011 107.961114 
z
M 633.762109 87.382015 
L 635.740868 87.382015 
L 634.753037 43.277154 
L 633.762109 87.382015 
z
" clip-path="url(#p78bcc69770)" style="fill: #008000"/>
   </g>
   <g id="patch_79">
    <path d="M 644.181439 107.961114 
L 641.26904 107.961114 
L 640.809187 128.16 
L 638.935714 128.16 
L 641.61122 17.28 
L 643.833066 17.28 
L 646.508571 128.16 
L 644.636647 128.16 
L 644.181439 107.961114 
z
M 641.733537 87.382015 
L 643.712297 87.382015 
L 642.724465 43.277154 
L 641.733537 87.382015 
z
" clip-path="url(#p78bcc69770)" style="fill: #008000"/>
   </g>
   <g id="patch_80">
    <path d="M 652.152868 107.961114 
L 649.240468 107.961114 
L 648.780616 128.16 
L 646.907143 128.16 
L 649.582648 17.28 
L 651.804495 17.28 
L 654.48 128.16 
L 652.608075 128.16 
L 652.152868 107.961114 
z
M 649.704966 87.382015 
L 651.683725 87.382015 
L 650.695894 43.277154 
L 649.704966 87.382015 
z
" clip-path="url(#p78bcc69770)" style="fill: #008000"/>
   </g>
   <g id="patch_81">
    <path d="M 654.878571 17.28 
L 662.451429 17.28 
L 662.451429 38.904689 
L 659.726961 38.904689 
L 659.726961 128.16 
L 657.608322 128.16 
L 657.608322 38.904689 
L 654.878571 38.904689 
L 654.878571 17.28 
z
" clip-path="url(#p78bcc69770)" style="fill: #ff0000"/>
   </g>
   <g id="patch_82">
    <path d="M 662.85 17.28 
L 670.422857 17.28 
L 670.422857 38.904689 
L 667.69839 38.904689 
L 667.69839 128.16 
L 665.579751 128.16 
L 665.579751 38.904689 
L 662.85 38.904689 
L 662.85 17.28 
z
" clip-path="url(#p78bcc69770)" style="fill: #ff0000"/>
   </g>
   <g id="patch_83">
    <path d="M 676.067153 107.961114 
L 673.154754 107.961114 
L 672.694902 128.16 
L 670.821429 128.16 
L 673.496934 17.28 
L 675.71878 17.28 
L 678.394286 128.16 
L 676.522361 128.16 
L 676.067153 107.961114 
z
M 673.619252 87.382015 
L 675.598011 87.382015 
L 674.61018 43.277154 
L 673.619252 87.382015 
z
" clip-path="url(#p78bcc69770)" style="fill: #008000"/>
   </g>
   <g id="patch_84">
    <path d="M 686.365714 118.127891 
Q 685.601979 123.143945 684.78054 125.663425 
Q 683.9591 128.16 683.083351 128.16 
Q 681.104429 128.16 679.948643 113.226358 
Q 678.792857 98.292716 678.792857 72.754357 
Q 678.792857 46.91824 679.969009 32.09912 
Q 681.146858 17.28 683.195365 17.28 
Q 683.984558 17.28 684.707561 19.295584 
Q 685.43226 21.288263 686.073798 25.227812 
L 686.073798 47.330518 
Q 685.411894 42.268655 684.756779 39.77208 
Q 684.101664 37.252601 683.443155 37.252601 
Q 682.224573 37.252601 681.564367 46.460153 
Q 680.90416 55.644801 680.90416 72.754357 
Q 680.90416 89.703582 681.540606 98.956943 
Q 682.177052 108.187399 683.348112 108.187399 
Q 683.667184 108.187399 683.940431 107.660599 
Q 684.213679 107.110894 684.430919 105.965677 
L 684.430919 85.214328 
L 683.183485 85.214328 
L 683.183485 66.73051 
L 686.365714 66.73051 
L 686.365714 118.127891 
z
" clip-path="url(#p78bcc69770)" style="fill: #ffa600"/>
   </g>
   <g id="patch_85">
    <path d="M 692.010011 107.961114 
L 689.097611 107.961114 
L 688.637759 128.16 
L 686.764286 128.16 
L 689.439791 17.28 
L 691.661637 17.28 
L 694.337143 128.16 
L 692.465218 128.16 
L 692.010011 107.961114 
z
M 689.562109 87.382015 
L 691.540868 87.382015 
L 690.553037 43.277154 
L 689.562109 87.382015 
z
" clip-path="url(#p78bcc69770)" style="fill: #008000"/>
   </g>
   <g id="patch_86">
    <path d="M 694.735714 17.28 
L 702.308571 17.28 
L 702.308571 38.904689 
L 699.584104 38.904689 
L 699.584104 128.16 
L 697.465465 128.16 
L 697.465465 38.904689 
L 694.735714 38.904689 
L 694.735714 17.28 
z
" clip-path="url(#p78bcc69770)" style="fill: #ff0000"/>
   </g>
   <g id="patch_87">
    <path d="M 702.707143 17.28 
L 710.28 17.28 
L 710.28 38.904689 
L 707.555533 38.904689 
L 707.555533 128.16 
L 705.436894 128.16 
L 705.436894 38.904689 
L 702.707143 38.904689 
L 702.707143 17.28 
z
" clip-path="url(#p78bcc69770)" style="fill: #ff0000"/>
   </g>
   <g id="patch_88">
    <path d="M 710.678571 17.28 
L 718.251429 17.28 
L 718.251429 38.904689 
L 715.526961 38.904689 
L 715.526961 128.16 
L 713.408322 128.16 
L 713.408322 38.904689 
L 710.678571 38.904689 
L 710.678571 17.28 
z
" clip-path="url(#p78bcc69770)" style="fill: #ff0000"/>
   </g>
   <g id="patch_89">
    <path d="M 718.65 17.28 
L 726.222857 17.28 
L 726.222857 38.904689 
L 723.49839 38.904689 
L 723.49839 128.16 
L 721.379751 128.16 
L 721.379751 38.904689 
L 718.65 38.904689 
L 718.65 17.28 
z
" clip-path="url(#p78bcc69770)" style="fill: #ff0000"/>
   </g>
   <g id="patch_90">
    <path d="M 734.194286 118.127891 
Q 733.430551 123.143945 732.609111 125.663425 
Q 731.787672 128.16 730.911922 128.16 
Q 728.933 128.16 727.777214 113.226358 
Q 726.621429 98.292716 726.621429 72.754357 
Q 726.621429 46.91824 727.797581 32.09912 
Q 728.97543 17.28 731.023937 17.28 
Q 731.81313 17.28 732.536132 19.295584 
Q 733.260832 21.288263 733.902369 25.227812 
L 733.902369 47.330518 
Q 733.240466 42.268655 732.585351 39.77208 
Q 731.930236 37.252601 731.271726 37.252601 
Q 730.053145 37.252601 729.392938 46.460153 
Q 728.732732 55.644801 728.732732 72.754357 
Q 728.732732 89.703582 729.369177 98.956943 
Q 730.005623 108.187399 731.176684 108.187399 
Q 731.495755 108.187399 731.769003 107.660599 
Q 732.04225 107.110894 732.25949 105.965677 
L 732.25949 85.214328 
L 731.012056 85.214328 
L 731.012056 66.73051 
L 734.194286 66.73051 
L 734.194286 118.127891 
z
" clip-path="url(#p78bcc69770)" style="fill: #ffa600"/>
   </g>
   <g id="patch_91">
    <path d="M 742.165714 120.212188 
Q 741.532258 124.151737 740.847285 126.144416 
Q 740.162313 128.16 739.416284 128.16 
Q 737.191555 128.16 735.892206 113.226358 
Q 734.592857 98.292716 734.592857 72.754357 
Q 734.592857 47.124379 735.892206 32.213642 
Q 737.191555 17.28 739.416284 17.28 
Q 740.162313 17.28 740.847285 19.295584 
Q 741.532258 21.288263 742.165714 25.227812 
L 742.165714 47.330518 
Q 741.526534 42.108325 740.906433 39.680463 
Q 740.286333 37.252601 739.601361 37.252601 
Q 738.372608 37.252601 737.668555 46.712101 
Q 736.966411 56.148697 736.966411 72.754357 
Q 736.966411 89.291303 737.668555 98.750804 
Q 738.372608 108.187399 739.601361 108.187399 
Q 740.286333 108.187399 740.906433 105.759537 
Q 741.526534 103.308771 742.165714 98.086577 
L 742.165714 120.212188 
z
" clip-path="url(#p78bcc69770)" style="fill: #0000ff"/>
   </g>
   <g id="patch_92">
    <path d="M 747.810011 107.961114 
L 744.897611 107.961114 
L 744.437759 128.16 
L 742.564286 128.16 
L 745.239791 17.28 
L 747.461637 17.28 
L 750.137143 128.16 
L 748.265218 128.16 
L 747.810011 107.961114 
z
M 745.362109 87.382015 
L 747.340868 87.382015 
L 746.353037 43.277154 
L 745.362109 87.382015 
z
" clip-path="url(#p78bcc69770)" style="fill: #008000"/>
   </g>
   <g id="patch_93">
    <path d="M 750.535714 17.28 
L 758.108571 17.28 
L 758.108571 38.904689 
L 755.384104 38.904689 
L 755.384104 128.16 
L 753.265465 128.16 
L 753.265465 38.904689 
L 750.535714 38.904689 
L 750.535714 17.28 
z
" clip-path="url(#p78bcc69770)" style="fill: #ff0000"/>
   </g>
   <g id="patch_94">
    <path d="M 763.752868 107.961114 
L 760.840468 107.961114 
L 760.380616 128.16 
L 758.507143 128.16 
L 761.182648 17.28 
L 763.404495 17.28 
L 766.08 128.16 
L 764.208075 128.16 
L 763.752868 107.961114 
z
M 761.304966 87.382015 
L 763.283725 87.382015 
L 762.295894 43.277154 
L 761.304966 87.382015 
z
" clip-path="url(#p78bcc69770)" style="fill: #008000"/>
   </g>
   <g id="patch_95">
    <path d="M 771.724296 107.961114 
L 768.811897 107.961114 
L 768.352045 128.16 
L 766.478571 128.16 
L 769.154077 17.28 
L 771.375923 17.28 
L 774.051429 128.16 
L 772.179504 128.16 
L 771.724296 107.961114 
z
M 769.276395 87.382015 
L 771.255154 87.382015 
L 770.267322 43.277154 
L 769.276395 87.382015 
z
" clip-path="url(#p78bcc69770)" style="fill: #008000"/>
   </g>
   <g id="patch_96">
    <path d="M 779.695725 107.961114 
L 776.783326 107.961114 
L 776.323473 128.16 
L 774.45 128.16 
L 777.125505 17.28 
L 779.347352 17.28 
L 782.022857 128.16 
L 780.150932 128.16 
L 779.695725 107.961114 
z
M 777.247823 87.382015 
L 779.226582 87.382015 
L 778.238751 43.277154 
L 777.247823 87.382015 
z
" clip-path="url(#p78bcc69770)" style="fill: #008000"/>
   </g>
   <g id="patch_97">
    <path d="M 787.667153 107.961114 
L 784.754754 107.961114 
L 784.294902 128.16 
L 782.421429 128.16 
L 785.096934 17.28 
L 787.31878 17.28 
L 789.994286 128.16 
L 788.122361 128.16 
L 787.667153 107.961114 
z
M 785.219252 87.382015 
L 787.198011 87.382015 
L 786.21018 43.277154 
L 785.219252 87.382015 
z
" clip-path="url(#p78bcc69770)" style="fill: #008000"/>
   </g>
   <g id="patch_98">
    <path d="M 795.638582 107.961114 
L 792.726183 107.961114 
L 792.26633 128.16 
L 790.392857 128.16 
L 793.068363 17.28 
L 795.290209 17.28 
L 797.965714 128.16 
L 796.093789 128.16 
L 795.638582 107.961114 
z
M 793.19068 87.382015 
L 795.169439 87.382015 
L 794.181608 43.277154 
L 793.19068 87.382015 
z
" clip-path="url(#p78bcc69770)" style="fill: #008000"/>
   </g>
   <g id="patch_99">
    <path d="M 803.610011 107.961114 
L 800.697611 107.961114 
L 800.237759 128.16 
L 798.364286 128.16 
L 801.039791 17.28 
L 803.261637 17.28 
L 805.937143 128.16 
L 804.065218 128.16 
L 803.610011 107.961114 
z
M 801.162109 87.382015 
L 803.140868 87.382015 
L 802.153037 43.277154 
L 801.162109 87.382015 
z
" clip-path="url(#p78bcc69770)" style="fill: #008000"/>
   </g>
   <g id="patch_100">
    <path d="M 813.908571 120.212188 
Q 813.275115 124.151737 812.590143 126.144416 
Q 811.90517 128.16 811.159142 128.16 
Q 808.934412 128.16 807.635063 113.226358 
Q 806.335714 98.292716 806.335714 72.754357 
Q 806.335714 47.124379 807.635063 32.213642 
Q 808.934412 17.28 811.159142 17.28 
Q 811.90517 17.28 812.590143 19.295584 
Q 813.275115 21.288263 813.908571 25.227812 
L 813.908571 47.330518 
Q 813.269391 42.108325 812.649291 39.680463 
Q 812.02919 37.252601 811.344218 37.252601 
Q 810.115465 37.252601 809.411412 46.712101 
Q 808.709268 56.148697 808.709268 72.754357 
Q 808.709268 89.291303 809.411412 98.750804 
Q 810.115465 108.187399 811.344218 108.187399 
Q 812.02919 108.187399 812.649291 105.759537 
Q 813.269391 103.308771 813.908571 98.086577 
L 813.908571 120.212188 
z
" clip-path="url(#p78bcc69770)" style="fill: #0000ff"/>
   </g>
   <g id="patch_101">
    <path d="M 819.552868 107.961114 
L 816.640468 107.961114 
L 816.180616 128.16 
L 814.307143 128.16 
L 816.982648 17.28 
L 819.204495 17.28 
L 821.88 128.16 
L 820.008075 128.16 
L 819.552868 107.961114 
z
M 817.104966 87.382015 
L 819.083725 87.382015 
L 818.095894 43.277154 
L 817.104966 87.382015 
z
" clip-path="url(#p78bcc69770)" style="fill: #008000"/>
   </g>
   <g id="patch_102">
    <path d="M 829.851429 118.127891 
Q 829.087694 123.143945 828.266254 125.663425 
Q 827.444815 128.16 826.569065 128.16 
Q 824.590143 128.16 823.434357 113.226358 
Q 822.278571 98.292716 822.278571 72.754357 
Q 822.278571 46.91824 823.454723 32.09912 
Q 824.632573 17.28 826.68108 17.28 
Q 827.470272 17.28 828.193275 19.295584 
Q 828.917975 21.288263 829.559512 25.227812 
L 829.559512 47.330518 
Q 828.897608 42.268655 828.242493 39.77208 
Q 827.587378 37.252601 826.928869 37.252601 
Q 825.710288 37.252601 825.050081 46.460153 
Q 824.389874 55.644801 824.389874 72.754357 
Q 824.389874 89.703582 825.02632 98.956943 
Q 825.662766 108.187399 826.833827 108.187399 
Q 827.152898 108.187399 827.426146 107.660599 
Q 827.699393 107.110894 827.916633 105.965677 
L 827.916633 85.214328 
L 826.669199 85.214328 
L 826.669199 66.73051 
L 829.851429 66.73051 
L 829.851429 118.127891 
z
" clip-path="url(#p78bcc69770)" style="fill: #ffa600"/>
   </g>
   <g id="patch_103">
    <path d="M 835.495725 107.961114 
L 832.583326 107.961114 
L 832.123473 128.16 
L 830.25 128.16 
L 832.925505 17.28 
L 835.147352 17.28 
L 837.822857 128.16 
L 835.950932 128.16 
L 835.495725 107.961114 
z
M 833.047823 87.382015 
L 835.026582 87.382015 
L 834.038751 43.277154 
L 833.047823 87.382015 
z
" clip-path="url(#p78bcc69770)" style="fill: #008000"/>
   </g>
   <g id="patch_104">
    <path d="M 845.794286 120.212188 
Q 845.160829 124.151737 844.475857 126.144416 
Q 843.790884 128.16 843.044856 128.16 
Q 840.820126 128.16 839.520777 113.226358 
Q 838.221429 98.292716 838.221429 72.754357 
Q 838.221429 47.124379 839.520777 32.213642 
Q 840.820126 17.28 843.044856 17.28 
Q 843.790884 17.28 844.475857 19.295584 
Q 845.160829 21.288263 845.794286 25.227812 
L 845.794286 47.330518 
Q 845.155105 42.108325 844.535005 39.680463 
Q 843.914904 37.252601 843.229932 37.252601 
Q 842.001179 37.252601 841.297127 46.712101 
Q 840.594982 56.148697 840.594982 72.754357 
Q 840.594982 89.291303 841.297127 98.750804 
Q 842.001179 108.187399 843.229932 108.187399 
Q 843.914904 108.187399 844.535005 105.759537 
Q 845.155105 103.308771 845.794286 98.086577 
L 845.794286 120.212188 
z
" clip-path="url(#p78bcc69770)" style="fill: #0000ff"/>
   </g>
   <g id="patch_105">
    <path d="M 846.192857 17.28 
L 853.765714 17.28 
L 853.765714 38.904689 
L 851.041247 38.904689 
L 851.041247 128.16 
L 848.922608 128.16 
L 848.922608 38.904689 
L 846.192857 38.904689 
L 846.192857 17.28 
z
" clip-path="url(#p78bcc69770)" style="fill: #ff0000"/>
   </g>
   <g id="patch_106">
    <path d="M 859.410011 107.961114 
L 856.497611 107.961114 
L 856.037759 128.16 
L 854.164286 128.16 
L 856.839791 17.28 
L 859.061637 17.28 
L 861.737143 128.16 
L 859.865218 128.16 
L 859.410011 107.961114 
z
M 856.962109 87.382015 
L 858.940868 87.382015 
L 857.953037 43.277154 
L 856.962109 87.382015 
z
" clip-path="url(#p78bcc69770)" style="fill: #008000"/>
   </g>
   <g id="patch_107">
    <path d="M 869.708571 120.212188 
Q 869.075115 124.151737 868.390143 126.144416 
Q 867.70517 128.16 866.959142 128.16 
Q 864.734412 128.16 863.435063 113.226358 
Q 862.135714 98.292716 862.135714 72.754357 
Q 862.135714 47.124379 863.435063 32.213642 
Q 864.734412 17.28 866.959142 17.28 
Q 867.70517 17.28 868.390143 19.295584 
Q 869.075115 21.288263 869.708571 25.227812 
L 869.708571 47.330518 
Q 869.069391 42.108325 868.449291 39.680463 
Q 867.82919 37.252601 867.144218 37.252601 
Q 865.915465 37.252601 865.211412 46.712101 
Q 864.509268 56.148697 864.509268 72.754357 
Q 864.509268 89.291303 865.211412 98.750804 
Q 865.915465 108.187399 867.144218 108.187399 
Q 867.82919 108.187399 868.449291 105.759537 
Q 869.069391 103.308771 869.708571 98.086577 
L 869.708571 120.212188 
z
" clip-path="url(#p78bcc69770)" style="fill: #0000ff"/>
   </g>
   <g id="patch_108">
    <path d="M 875.352868 107.961114 
L 872.440468 107.961114 
L 871.980616 128.16 
L 870.107143 128.16 
L 872.782648 17.28 
L 875.004495 17.28 
L 877.68 128.16 
L 875.808075 128.16 
L 875.352868 107.961114 
z
M 872.904966 87.382015 
L 874.883725 87.382015 
L 873.895894 43.277154 
L 872.904966 87.382015 
z
" clip-path="url(#p78bcc69770)" style="fill: #008000"/>
   </g>
   <g id="patch_109">
    <path d="M 878.078571 17.28 
L 885.651429 17.28 
L 885.651429 38.904689 
L 882.926961 38.904689 
L 882.926961 128.16 
L 880.808322 128.16 
L 880.808322 38.904689 
L 878.078571 38.904689 
L 878.078571 17.28 
z
" clip-path="url(#p78bcc69770)" style="fill: #ff0000"/>
   </g>
   <g id="patch_110">
    <path d="M 891.295725 107.961114 
L 888.383326 107.961114 
L 887.923473 128.16 
L 886.05 128.16 
L 888.725505 17.28 
L 890.947352 17.28 
L 893.622857 128.16 
L 891.750932 128.16 
L 891.295725 107.961114 
z
M 888.847823 87.382015 
L 890.826582 87.382015 
L 889.838751 43.277154 
L 888.847823 87.382015 
z
" clip-path="url(#p78bcc69770)" style="fill: #008000"/>
   </g>
   <g id="patch_111">
    <path d="M 899.267153 107.961114 
L 896.354754 107.961114 
L 895.894902 128.16 
L 894.021429 128.16 
L 896.696934 17.28 
L 898.91878 17.28 
L 901.594286 128.16 
L 899.722361 128.16 
L 899.267153 107.961114 
z
M 896.819252 87.382015 
L 898.798011 87.382015 
L 897.81018 43.277154 
L 896.819252 87.382015 
z
" clip-path="url(#p78bcc69770)" style="fill: #008000"/>
   </g>
   <g id="patch_112">
    <path d="M 901.992857 17.28 
L 909.565714 17.28 
L 909.565714 38.904689 
L 906.841247 38.904689 
L 906.841247 128.16 
L 904.722608 128.16 
L 904.722608 38.904689 
L 901.992857 38.904689 
L 901.992857 17.28 
z
" clip-path="url(#p78bcc69770)" style="fill: #ff0000"/>
   </g>
   <g id="patch_113">
    <path d="M 917.537143 127.926695 
Q 916.773408 128.043348 915.951968 128.10194 
Q 915.130529 128.16 914.254779 128.16 
Q 912.275857 128.16 911.120071 127.812706 
Q 909.964286 127.465412 909.964286 126.871497 
Q 909.964286 126.270657 911.140438 125.926026 
Q 912.318287 125.581395 914.366794 125.581395 
Q 915.155987 125.581395 915.878989 125.628269 
Q 916.603689 125.674611 917.245226 125.766228 
L 917.245226 126.280245 
Q 916.583323 126.162527 915.928208 126.104467 
Q 915.273093 126.045874 914.614583 126.045874 
Q 913.396002 126.045874 912.735795 126.260004 
Q 912.075589 126.4736 912.075589 126.871497 
Q 912.075589 127.265665 912.712035 127.480859 
Q 913.348481 127.695521 914.519541 127.695521 
Q 914.838612 127.695521 915.11186 127.68327 
Q 915.385107 127.670486 915.602347 127.643853 
L 915.602347 127.161263 
L 914.354914 127.161263 
L 914.354914 126.731407 
L 917.537143 126.731407 
L 917.537143 127.926695 
z
" clip-path="url(#p78bcc69770)" style="fill: #ffa600"/>
   </g>
   <g id="patch_114">
    <path d="M 915.210011 105.852251 
L 912.297611 105.852251 
L 911.837759 125.581395 
L 909.964286 125.581395 
L 912.639791 17.28 
L 914.861637 17.28 
L 917.537143 125.581395 
L 915.665218 125.581395 
L 915.210011 105.852251 
z
M 912.762109 85.751735 
L 914.740868 85.751735 
L 913.753037 42.672569 
L 912.762109 85.751735 
z
" clip-path="url(#p78bcc69770)" style="fill: #008000"/>
   </g>
   <g id="patch_115">
    <path d="M 925.508571 120.212188 
Q 924.875115 124.151737 924.190143 126.144416 
Q 923.50517 128.16 922.759142 128.16 
Q 920.534412 128.16 919.235063 113.226358 
Q 917.935714 98.292716 917.935714 72.754357 
Q 917.935714 47.124379 919.235063 32.213642 
Q 920.534412 17.28 922.759142 17.28 
Q 923.50517 17.28 924.190143 19.295584 
Q 924.875115 21.288263 925.508571 25.227812 
L 925.508571 47.330518 
Q 924.869391 42.108325 924.249291 39.680463 
Q 923.62919 37.252601 922.944218 37.252601 
Q 921.715465 37.252601 921.011412 46.712101 
Q 920.309268 56.148697 920.309268 72.754357 
Q 920.309268 89.291303 921.011412 98.750804 
Q 921.715465 108.187399 922.944218 108.187399 
Q 923.62919 108.187399 924.249291 105.759537 
Q 924.869391 103.308771 925.508571 98.086577 
L 925.508571 120.212188 
z
" clip-path="url(#p78bcc69770)" style="fill: #0000ff"/>
   </g>
   <g id="patch_116">
    <path d="M 925.907143 17.28 
L 933.48 17.28 
L 933.48 38.904689 
L 930.755533 38.904689 
L 930.755533 128.16 
L 928.636894 128.16 
L 928.636894 38.904689 
L 925.907143 38.904689 
L 925.907143 17.28 
z
" clip-path="url(#p78bcc69770)" style="fill: #ff0000"/>
   </g>
   <g id="patch_117">
    <path d="M 941.451429 118.127891 
Q 940.687694 123.143945 939.866254 125.663425 
Q 939.044815 128.16 938.169065 128.16 
Q 936.190143 128.16 935.034357 113.226358 
Q 933.878571 98.292716 933.878571 72.754357 
Q 933.878571 46.91824 935.054723 32.09912 
Q 936.232573 17.28 938.28108 17.28 
Q 939.070272 17.28 939.793275 19.295584 
Q 940.517975 21.288263 941.159512 25.227812 
L 941.159512 47.330518 
Q 940.497608 42.268655 939.842493 39.77208 
Q 939.187378 37.252601 938.528869 37.252601 
Q 937.310288 37.252601 936.650081 46.460153 
Q 935.989874 55.644801 935.989874 72.754357 
Q 935.989874 89.703582 936.62632 98.956943 
Q 937.262766 108.187399 938.433827 108.187399 
Q 938.752898 108.187399 939.026146 107.660599 
Q 939.299393 107.110894 939.516633 105.965677 
L 939.516633 85.214328 
L 938.269199 85.214328 
L 938.269199 66.73051 
L 941.451429 66.73051 
L 941.451429 118.127891 
z
" clip-path="url(#p78bcc69770)" style="fill: #ffa600"/>
   </g>
   <g id="patch_118">
    <path d="M 941.85 17.28 
L 949.422857 17.28 
L 949.422857 38.904689 
L 946.69839 38.904689 
L 946.69839 128.16 
L 944.579751 128.16 
L 944.579751 38.904689 
L 941.85 38.904689 
L 941.85 17.28 
z
" clip-path="url(#p78bcc69770)" style="fill: #ff0000"/>
   </g>
   <g id="patch_119">
    <path d="M 955.067153 107.961114 
L 952.154754 107.961114 
L 951.694902 128.16 
L 949.821429 128.16 
L 952.496934 17.28 
L 954.71878 17.28 
L 957.394286 128.16 
L 955.522361 128.16 
L 955.067153 107.961114 
z
M 952.619252 87.382015 
L 954.598011 87.382015 
L 953.61018 43.277154 
L 952.619252 87.382015 
z
" clip-path="url(#p78bcc69770)" style="fill: #008000"/>
   </g>
   <g id="patch_120">
    <path d="M 963.038582 107.961114 
L 960.126183 107.961114 
L 959.66633 128.16 
L 957.792857 128.16 
L 960.468363 17.28 
L 962.690209 17.28 
L 965.365714 128.16 
L 963.493789 128.16 
L 963.038582 107.961114 
z
M 960.59068 87.382015 
L 962.569439 87.382015 
L 961.581608 43.277154 
L 960.59068 87.382015 
z
" clip-path="url(#p78bcc69770)" style="fill: #008000"/>
   </g>
   <g id="patch_121">
    <path d="M 973.337143 127.69339 
Q 972.573408 127.926695 971.751968 128.04388 
Q 970.930529 128.16 970.054779 128.16 
Q 968.075857 128.16 966.920071 127.465412 
Q 965.764286 126.770824 965.764286 125.582993 
Q 965.764286 124.381313 966.940438 123.692052 
Q 968.118287 123.002791 970.166794 123.002791 
Q 970.955987 123.002791 971.678989 123.096539 
Q 972.403689 123.189222 973.045226 123.372456 
L 973.045226 124.400489 
Q 972.383323 124.165054 971.728208 124.048934 
Q 971.073093 123.931749 970.414583 123.931749 
Q 969.196002 123.931749 968.535795 124.360007 
Q 967.875589 124.7872 967.875589 125.582993 
Q 967.875589 126.371329 968.512035 126.801718 
Q 969.148481 127.231042 970.319541 127.231042 
Q 970.638612 127.231042 970.91186 127.206539 
Q 971.185107 127.180972 971.402347 127.127706 
L 971.402347 126.162527 
L 970.154914 126.162527 
L 970.154914 125.302814 
L 973.337143 125.302814 
L 973.337143 127.69339 
z
" clip-path="url(#p78bcc69770)" style="fill: #ffa600"/>
   </g>
   <g id="patch_122">
    <path d="M 971.010011 103.743388 
L 968.097611 103.743388 
L 967.637759 123.002791 
L 965.764286 123.002791 
L 968.439791 17.28 
L 970.661637 17.28 
L 973.337143 123.002791 
L 971.465218 123.002791 
L 971.010011 103.743388 
z
M 968.562109 84.121456 
L 970.540868 84.121456 
L 969.553037 42.067984 
L 968.562109 84.121456 
z
" clip-path="url(#p78bcc69770)" style="fill: #008000"/>
   </g>
   <g id="patch_123">
    <path d="M 978.981439 107.961114 
L 976.06904 107.961114 
L 975.609187 128.16 
L 973.735714 128.16 
L 976.41122 17.28 
L 978.633066 17.28 
L 981.308571 128.16 
L 979.436647 128.16 
L 978.981439 107.961114 
z
M 976.533537 87.382015 
L 978.512297 87.382015 
L 977.524465 43.277154 
L 976.533537 87.382015 
z
" clip-path="url(#p78bcc69770)" style="fill: #008000"/>
   </g>
   <g id="patch_124">
    <path d="M 989.28 120.212188 
Q 988.646544 124.151737 987.961571 126.144416 
Q 987.276599 128.16 986.53057 128.16 
Q 984.305841 128.16 983.006492 113.226358 
Q 981.707143 98.292716 981.707143 72.754357 
Q 981.707143 47.124379 983.006492 32.213642 
Q 984.305841 17.28 986.53057 17.28 
Q 987.276599 17.28 987.961571 19.295584 
Q 988.646544 21.288263 989.28 25.227812 
L 989.28 47.330518 
Q 988.64082 42.108325 988.020719 39.680463 
Q 987.400619 37.252601 986.715646 37.252601 
Q 985.486893 37.252601 984.782841 46.712101 
Q 984.080696 56.148697 984.080696 72.754357 
Q 984.080696 89.291303 984.782841 98.750804 
Q 985.486893 108.187399 986.715646 108.187399 
Q 987.400619 108.187399 988.020719 105.759537 
Q 988.64082 103.308771 989.28 98.086577 
L 989.28 120.212188 
z
" clip-path="url(#p78bcc69770)" style="fill: #0000ff"/>
   </g>
   <g id="patch_125">
    <path d="M 994.924296 107.961114 
L 992.011897 107.961114 
L 991.552045 128.16 
L 989.678571 128.16 
L 992.354077 17.28 
L 994.575923 17.28 
L 997.251429 128.16 
L 995.379504 128.16 
L 994.924296 107.961114 
z
M 992.476395 87.382015 
L 994.455154 87.382015 
L 993.467322 43.277154 
L 992.476395 87.382015 
z
" clip-path="url(#p78bcc69770)" style="fill: #008000"/>
   </g>
   <g id="patch_126">
    <path d="M 1005.222857 120.212188 
Q 1004.589401 124.151737 1003.904428 126.144416 
Q 1003.219456 128.16 1002.473427 128.16 
Q 1000.248698 128.16 998.949349 113.226358 
Q 997.65 98.292716 997.65 72.754357 
Q 997.65 47.124379 998.949349 32.213642 
Q 1000.248698 17.28 1002.473427 17.28 
Q 1003.219456 17.28 1003.904428 19.295584 
Q 1004.589401 21.288263 1005.222857 25.227812 
L 1005.222857 47.330518 
Q 1004.583677 42.108325 1003.963576 39.680463 
Q 1003.343476 37.252601 1002.658503 37.252601 
Q 1001.429751 37.252601 1000.725698 46.712101 
Q 1000.023554 56.148697 1000.023554 72.754357 
Q 1000.023554 89.291303 1000.725698 98.750804 
Q 1001.429751 108.187399 1002.658503 108.187399 
Q 1003.343476 108.187399 1003.963576 105.759537 
Q 1004.583677 103.308771 1005.222857 98.086577 
L 1005.222857 120.212188 
z
" clip-path="url(#p78bcc69770)" style="fill: #0000ff"/>
   </g>
   <g id="patch_127">
    <path d="M 1010.867153 107.961114 
L 1007.954754 107.961114 
L 1007.494902 128.16 
L 1005.621429 128.16 
L 1008.296934 17.28 
L 1010.51878 17.28 
L 1013.194286 128.16 
L 1011.322361 128.16 
L 1010.867153 107.961114 
z
M 1008.419252 87.382015 
L 1010.398011 87.382015 
L 1009.41018 43.277154 
L 1008.419252 87.382015 
z
" clip-path="url(#p78bcc69770)" style="fill: #008000"/>
   </g>
   <g id="patch_128">
    <path d="M 1018.838582 107.961114 
L 1015.926183 107.961114 
L 1015.46633 128.16 
L 1013.592857 128.16 
L 1016.268363 17.28 
L 1018.490209 17.28 
L 1021.165714 128.16 
L 1019.293789 128.16 
L 1018.838582 107.961114 
z
M 1016.39068 87.382015 
L 1018.369439 87.382015 
L 1017.381608 43.277154 
L 1016.39068 87.382015 
z
" clip-path="url(#p78bcc69770)" style="fill: #008000"/>
   </g>
   <g id="patch_129">
    <path d="M 1029.137143 120.212188 
Q 1028.503686 124.151737 1027.818714 126.144416 
Q 1027.133741 128.16 1026.387713 128.16 
Q 1024.162983 128.16 1022.863635 113.226358 
Q 1021.564286 98.292716 1021.564286 72.754357 
Q 1021.564286 47.124379 1022.863635 32.213642 
Q 1024.162983 17.28 1026.387713 17.28 
Q 1027.133741 17.28 1027.818714 19.295584 
Q 1028.503686 21.288263 1029.137143 25.227812 
L 1029.137143 47.330518 
Q 1028.497962 42.108325 1027.877862 39.680463 
Q 1027.257762 37.252601 1026.572789 37.252601 
Q 1025.344036 37.252601 1024.639984 46.712101 
Q 1023.937839 56.148697 1023.937839 72.754357 
Q 1023.937839 89.291303 1024.639984 98.750804 
Q 1025.344036 108.187399 1026.572789 108.187399 
Q 1027.257762 108.187399 1027.877862 105.759537 
Q 1028.497962 103.308771 1029.137143 98.086577 
L 1029.137143 120.212188 
z
" clip-path="url(#p78bcc69770)" style="fill: #0000ff"/>
   </g>
   <g id="patch_130">
    <path d="M 1034.781439 107.961114 
L 1031.86904 107.961114 
L 1031.409187 128.16 
L 1029.535714 128.16 
L 1032.21122 17.28 
L 1034.433066 17.28 
L 1037.108571 128.16 
L 1035.236647 128.16 
L 1034.781439 107.961114 
z
M 1032.333537 87.382015 
L 1034.312297 87.382015 
L 1033.324465 43.277154 
L 1032.333537 87.382015 
z
" clip-path="url(#p78bcc69770)" style="fill: #008000"/>
   </g>
   <g id="patch_131">
    <path d="M 1037.507143 17.28 
L 1045.08 17.28 
L 1045.08 38.904689 
L 1042.355533 38.904689 
L 1042.355533 128.16 
L 1040.236894 128.16 
L 1040.236894 38.904689 
L 1037.507143 38.904689 
L 1037.507143 17.28 
z
" clip-path="url(#p78bcc69770)" style="fill: #ff0000"/>
   </g>
   <g id="patch_132">
    <path d="M 1050.724296 107.961114 
L 1047.811897 107.961114 
L 1047.352045 128.16 
L 1045.478571 128.16 
L 1048.154077 17.28 
L 1050.375923 17.28 
L 1053.051429 128.16 
L 1051.179504 128.16 
L 1050.724296 107.961114 
z
M 1048.276395 87.382015 
L 1050.255154 87.382015 
L 1049.267322 43.277154 
L 1048.276395 87.382015 
z
" clip-path="url(#p78bcc69770)" style="fill: #008000"/>
   </g>
   <g id="patch_133">
    <path d="M 1053.45 17.28 
L 1061.022857 17.28 
L 1061.022857 38.904689 
L 1058.29839 38.904689 
L 1058.29839 128.16 
L 1056.179751 128.16 
L 1056.179751 38.904689 
L 1053.45 38.904689 
L 1053.45 17.28 
z
" clip-path="url(#p78bcc69770)" style="fill: #ff0000"/>
   </g>
   <g id="patch_134">
    <path d="M 1061.421429 125.581395 
L 1068.994286 125.581395 
L 1068.994286 126.084295 
L 1066.269818 126.084295 
L 1066.269818 128.16 
L 1064.151179 128.16 
L 1064.151179 126.084295 
L 1061.421429 126.084295 
L 1061.421429 125.581395 
z
" clip-path="url(#p78bcc69770)" style="fill: #ff0000"/>
   </g>
   <g id="patch_135">
    <path d="M 1068.994286 123.015042 
Q 1068.230551 124.298219 1067.409111 124.942737 
Q 1066.587672 125.581395 1065.711922 125.581395 
Q 1063.733 125.581395 1062.577214 121.761161 
Q 1061.421429 117.940927 1061.421429 111.407859 
Q 1061.421429 104.79862 1062.597581 101.007682 
Q 1063.77543 97.216744 1065.823937 97.216744 
Q 1066.61313 97.216744 1067.336132 97.732359 
Q 1068.060832 98.242114 1068.702369 99.249906 
L 1068.702369 104.904086 
Q 1068.040466 103.609191 1067.385351 102.970532 
Q 1066.730236 102.326014 1066.071726 102.326014 
Q 1064.853145 102.326014 1064.192938 104.681434 
Q 1063.532732 107.030996 1063.532732 111.407859 
Q 1063.532732 115.743707 1064.169177 118.110846 
Q 1064.805623 120.472125 1065.976684 120.472125 
Q 1066.295755 120.472125 1066.569003 120.337363 
Q 1066.84225 120.19674 1067.05949 119.903778 
L 1067.05949 114.595293 
L 1065.812056 114.595293 
L 1065.812056 109.866875 
L 1068.994286 109.866875 
L 1068.994286 123.015042 
z
" clip-path="url(#p78bcc69770)" style="fill: #ffa600"/>
   </g>
   <g id="patch_136">
    <path d="M 1068.994286 91.486926 
Q 1068.360829 94.327066 1067.675857 95.763649 
Q 1066.990884 97.216744 1066.244856 97.216744 
Q 1064.020126 97.216744 1062.720777 86.45063 
Q 1061.421429 75.684516 1061.421429 57.273141 
Q 1061.421429 38.795715 1062.720777 28.046114 
Q 1064.020126 17.28 1066.244856 17.28 
Q 1066.990884 17.28 1067.675857 18.733095 
Q 1068.360829 20.169678 1068.994286 23.009818 
L 1068.994286 38.944327 
Q 1068.355105 35.17949 1067.735005 33.429171 
Q 1067.114904 31.678852 1066.429932 31.678852 
Q 1065.201179 31.678852 1064.497127 38.498491 
Q 1063.794982 45.301618 1063.794982 57.273141 
Q 1063.794982 69.195126 1064.497127 76.014765 
Q 1065.201179 82.817893 1066.429932 82.817893 
Q 1067.114904 82.817893 1067.735005 81.067573 
Q 1068.355105 79.300742 1068.994286 75.535904 
L 1068.994286 91.486926 
z
" clip-path="url(#p78bcc69770)" style="fill: #0000ff"/>
   </g>
   <g id="patch_137">
    <path d="M 1076.965714 120.212188 
Q 1076.332258 124.151737 1075.647285 126.144416 
Q 1074.962313 128.16 1074.216284 128.16 
Q 1071.991555 128.16 1070.692206 113.226358 
Q 1069.392857 98.292716 1069.392857 72.754357 
Q 1069.392857 47.124379 1070.692206 32.213642 
Q 1071.991555 17.28 1074.216284 17.28 
Q 1074.962313 17.28 1075.647285 19.295584 
Q 1076.332258 21.288263 1076.965714 25.227812 
L 1076.965714 47.330518 
Q 1076.326534 42.108325 1075.706433 39.680463 
Q 1075.086333 37.252601 1074.401361 37.252601 
Q 1073.172608 37.252601 1072.468555 46.712101 
Q 1071.766411 56.148697 1071.766411 72.754357 
Q 1071.766411 89.291303 1072.468555 98.750804 
Q 1073.172608 108.187399 1074.401361 108.187399 
Q 1075.086333 108.187399 1075.706433 105.759537 
Q 1076.326534 103.308771 1076.965714 98.086577 
L 1076.965714 120.212188 
z
" clip-path="url(#p78bcc69770)" style="fill: #0000ff"/>
   </g>
   <g id="patch_138">
    <path d="M 1082.610011 107.961114 
L 1079.697611 107.961114 
L 1079.237759 128.16 
L 1077.364286 128.16 
L 1080.039791 17.28 
L 1082.261637 17.28 
L 1084.937143 128.16 
L 1083.065218 128.16 
L 1082.610011 107.961114 
z
M 1080.162109 87.382015 
L 1082.140868 87.382015 
L 1081.153037 43.277154 
L 1080.162109 87.382015 
z
" clip-path="url(#p78bcc69770)" style="fill: #008000"/>
   </g>
   <g id="patch_139">
    <path d="M 1092.908571 118.127891 
Q 1092.144836 123.143945 1091.323397 125.663425 
Q 1090.501957 128.16 1089.626208 128.16 
Q 1087.647286 128.16 1086.4915 113.226358 
Q 1085.335714 98.292716 1085.335714 72.754357 
Q 1085.335714 46.91824 1086.511866 32.09912 
Q 1087.689715 17.28 1089.738222 17.28 
Q 1090.527415 17.28 1091.250418 19.295584 
Q 1091.975118 21.288263 1092.616655 25.227812 
L 1092.616655 47.330518 
Q 1091.954751 42.268655 1091.299636 39.77208 
Q 1090.644521 37.252601 1089.986012 37.252601 
Q 1088.76743 37.252601 1088.107224 46.460153 
Q 1087.447017 55.644801 1087.447017 72.754357 
Q 1087.447017 89.703582 1088.083463 98.956943 
Q 1088.719909 108.187399 1089.890969 108.187399 
Q 1090.210041 108.187399 1090.483288 107.660599 
Q 1090.756536 107.110894 1090.973776 105.965677 
L 1090.973776 85.214328 
L 1089.726342 85.214328 
L 1089.726342 66.73051 
L 1092.908571 66.73051 
L 1092.908571 118.127891 
z
" clip-path="url(#p78bcc69770)" style="fill: #ffa600"/>
   </g>
   <g id="patch_140">
    <path d="M 1093.307143 17.28 
L 1100.88 17.28 
L 1100.88 38.904689 
L 1098.155533 38.904689 
L 1098.155533 128.16 
L 1096.036894 128.16 
L 1096.036894 38.904689 
L 1093.307143 38.904689 
L 1093.307143 17.28 
z
" clip-path="url(#p78bcc69770)" style="fill: #ff0000"/>
   </g>
   <g id="patch_141">
    <path d="M 1108.851429 120.212188 
Q 1108.217972 124.151737 1107.533 126.144416 
Q 1106.848027 128.16 1106.101999 128.16 
Q 1103.877269 128.16 1102.57792 113.226358 
Q 1101.278571 98.292716 1101.278571 72.754357 
Q 1101.278571 47.124379 1102.57792 32.213642 
Q 1103.877269 17.28 1106.101999 17.28 
Q 1106.848027 17.28 1107.533 19.295584 
Q 1108.217972 21.288263 1108.851429 25.227812 
L 1108.851429 47.330518 
Q 1108.212248 42.108325 1107.592148 39.680463 
Q 1106.972047 37.252601 1106.287075 37.252601 
Q 1105.058322 37.252601 1104.35427 46.712101 
Q 1103.652125 56.148697 1103.652125 72.754357 
Q 1103.652125 89.291303 1104.35427 98.750804 
Q 1105.058322 108.187399 1106.287075 108.187399 
Q 1106.972047 108.187399 1107.592148 105.759537 
Q 1108.212248 103.308771 1108.851429 98.086577 
L 1108.851429 120.212188 
z
" clip-path="url(#p78bcc69770)" style="fill: #0000ff"/>
   </g>
   <g id="patch_142">
    <path d="M 1116.822857 127.926695 
Q 1116.059122 128.043348 1115.237683 128.10194 
Q 1114.416243 128.16 1113.540494 128.16 
Q 1111.561571 128.16 1110.405786 127.812706 
Q 1109.25 127.465412 1109.25 126.871497 
Q 1109.25 126.270657 1110.426152 125.926026 
Q 1111.604001 125.581395 1113.652508 125.581395 
Q 1114.441701 125.581395 1115.164704 125.628269 
Q 1115.889403 125.674611 1116.530941 125.766228 
L 1116.530941 126.280245 
Q 1115.869037 126.162527 1115.213922 126.104467 
Q 1114.558807 126.045874 1113.900298 126.045874 
Q 1112.681716 126.045874 1112.02151 126.260004 
Q 1111.361303 126.4736 1111.361303 126.871497 
Q 1111.361303 127.265665 1111.997749 127.480859 
Q 1112.634195 127.695521 1113.805255 127.695521 
Q 1114.124327 127.695521 1114.397574 127.68327 
Q 1114.670822 127.670486 1114.888062 127.643853 
L 1114.888062 127.161263 
L 1113.640628 127.161263 
L 1113.640628 126.731407 
L 1116.822857 126.731407 
L 1116.822857 127.926695 
z
" clip-path="url(#p78bcc69770)" style="fill: #ffa600"/>
   </g>
   <g id="patch_143">
    <path d="M 1116.822857 125.21173 
Q 1116.189401 125.394965 1115.504428 125.487647 
Q 1114.819456 125.581395 1114.073427 125.581395 
Q 1111.848698 125.581395 1110.549349 124.886807 
Q 1109.25 124.192219 1109.25 123.004389 
Q 1109.25 121.812297 1110.549349 121.118774 
Q 1111.848698 120.424186 1114.073427 120.424186 
Q 1114.819456 120.424186 1115.504428 120.517934 
Q 1116.189401 120.610617 1116.822857 120.793852 
L 1116.822857 121.821885 
Q 1116.183677 121.578992 1115.563576 121.466068 
Q 1114.943476 121.353144 1114.258503 121.353144 
Q 1113.029751 121.353144 1112.325698 121.793121 
Q 1111.623554 122.232032 1111.623554 123.004389 
Q 1111.623554 123.773549 1112.325698 124.213526 
Q 1113.029751 124.652437 1114.258503 124.652437 
Q 1114.943476 124.652437 1115.563576 124.539513 
Q 1116.183677 124.425524 1116.822857 124.182631 
L 1116.822857 125.21173 
z
" clip-path="url(#p78bcc69770)" style="fill: #0000ff"/>
   </g>
   <g id="patch_144">
    <path d="M 1114.495725 101.634525 
L 1111.583326 101.634525 
L 1111.123473 120.424186 
L 1109.25 120.424186 
L 1111.925505 17.28 
L 1114.147352 17.28 
L 1116.822857 120.424186 
L 1114.950932 120.424186 
L 1114.495725 101.634525 
z
M 1112.047823 82.491176 
L 1114.026582 82.491176 
L 1113.038751 41.463399 
L 1112.047823 82.491176 
z
" clip-path="url(#p78bcc69770)" style="fill: #008000"/>
   </g>
   <g id="patch_145">
    <path d="M 1117.221429 117.845581 
L 1124.794286 117.845581 
L 1124.794286 119.85718 
L 1122.069818 119.85718 
L 1122.069818 128.16 
L 1119.951179 128.16 
L 1119.951179 119.85718 
L 1117.221429 119.85718 
L 1117.221429 117.845581 
z
" clip-path="url(#p78bcc69770)" style="fill: #ff0000"/>
   </g>
   <g id="patch_146">
    <path d="M 1124.794286 110.821933 
Q 1124.160829 114.303396 1123.475857 116.064368 
Q 1122.790884 117.845581 1122.044856 117.845581 
Q 1119.820126 117.845581 1118.520777 104.64841 
Q 1117.221429 91.451238 1117.221429 68.882455 
Q 1117.221429 46.232707 1118.520777 33.055776 
Q 1119.820126 19.858605 1122.044856 19.858605 
Q 1122.790884 19.858605 1123.475857 21.639818 
Q 1124.160829 23.40079 1124.794286 26.882253 
L 1124.794286 46.414877 
Q 1124.155105 41.799915 1123.535005 39.654362 
Q 1122.914904 37.50881 1122.229932 37.50881 
Q 1121.001179 37.50881 1120.297127 45.868368 
Q 1119.594982 54.207685 1119.594982 68.882455 
Q 1119.594982 83.496501 1120.297127 91.856059 
Q 1121.001179 100.195376 1122.229932 100.195376 
Q 1122.914904 100.195376 1123.535005 98.049824 
Q 1124.155105 95.88403 1124.794286 91.269068 
L 1124.794286 110.821933 
z
" clip-path="url(#p78bcc69770)" style="fill: #0000ff"/>
   </g>
   <g id="patch_147">
    <path d="M 1130.438582 126.750775 
L 1127.526183 126.750775 
L 1127.06633 128.16 
L 1125.192857 128.16 
L 1127.868363 120.424186 
L 1130.090209 120.424186 
L 1132.765714 128.16 
L 1130.893789 128.16 
L 1130.438582 126.750775 
z
M 1127.99068 125.315024 
L 1129.969439 125.315024 
L 1128.981608 122.237941 
L 1127.99068 125.315024 
z
" clip-path="url(#p78bcc69770)" style="fill: #008000"/>
   </g>
   <g id="patch_148">
    <path d="M 1125.192857 19.858605 
L 1132.765714 19.858605 
L 1132.765714 39.471695 
L 1130.041247 39.471695 
L 1130.041247 120.424186 
L 1127.922608 120.424186 
L 1127.922608 39.471695 
L 1125.192857 39.471695 
L 1125.192857 19.858605 
z
" clip-path="url(#p78bcc69770)" style="fill: #ff0000"/>
   </g>
   <g id="patch_149">
    <path d="M 1133.164286 117.845581 
L 1140.737143 117.845581 
L 1140.737143 119.85718 
L 1138.012675 119.85718 
L 1138.012675 128.16 
L 1135.894037 128.16 
L 1135.894037 119.85718 
L 1133.164286 119.85718 
L 1133.164286 117.845581 
z
" clip-path="url(#p78bcc69770)" style="fill: #ff0000"/>
   </g>
   <g id="patch_150">
    <path d="M 1138.410011 99.995403 
L 1135.497611 99.995403 
L 1135.037759 117.845581 
L 1133.164286 117.845581 
L 1135.839791 19.858605 
L 1138.061637 19.858605 
L 1140.737143 117.845581 
L 1138.865218 117.845581 
L 1138.410011 99.995403 
z
M 1135.962109 81.809222 
L 1137.940868 81.809222 
L 1136.953037 42.832834 
L 1135.962109 81.809222 
z
" clip-path="url(#p78bcc69770)" style="fill: #008000"/>
   </g>
   <g id="patch_151">
    <path d="M 1148.708571 127.69339 
Q 1147.944836 127.926695 1147.123397 128.04388 
Q 1146.301957 128.16 1145.426208 128.16 
Q 1143.447286 128.16 1142.2915 127.465412 
Q 1141.135714 126.770824 1141.135714 125.582993 
Q 1141.135714 124.381313 1142.311866 123.692052 
Q 1143.489715 123.002791 1145.538222 123.002791 
Q 1146.327415 123.002791 1147.050418 123.096539 
Q 1147.775118 123.189222 1148.416655 123.372456 
L 1148.416655 124.400489 
Q 1147.754751 124.165054 1147.099636 124.048934 
Q 1146.444521 123.931749 1145.786012 123.931749 
Q 1144.56743 123.931749 1143.907224 124.360007 
Q 1143.247017 124.7872 1143.247017 125.582993 
Q 1143.247017 126.371329 1143.883463 126.801718 
Q 1144.519909 127.231042 1145.690969 127.231042 
Q 1146.010041 127.231042 1146.283288 127.206539 
Q 1146.556536 127.180972 1146.773776 127.127706 
L 1146.773776 126.162527 
L 1145.526342 126.162527 
L 1145.526342 125.302814 
L 1148.708571 125.302814 
L 1148.708571 127.69339 
z
" clip-path="url(#p78bcc69770)" style="fill: #ffa600"/>
   </g>
   <g id="patch_152">
    <path d="M 1141.135714 19.858605 
L 1148.708571 19.858605 
L 1148.708571 39.974595 
L 1145.984104 39.974595 
L 1145.984104 123.002791 
L 1143.865465 123.002791 
L 1143.865465 39.974595 
L 1141.135714 39.974595 
L 1141.135714 19.858605 
z
" clip-path="url(#p78bcc69770)" style="fill: #ff0000"/>
   </g>
   <g id="patch_153">
    <path d="M 1149.107143 125.581395 
L 1156.68 125.581395 
L 1156.68 126.084295 
L 1153.955533 126.084295 
L 1153.955533 128.16 
L 1151.836894 128.16 
L 1151.836894 126.084295 
L 1149.107143 126.084295 
L 1149.107143 125.581395 
z
" clip-path="url(#p78bcc69770)" style="fill: #ff0000"/>
   </g>
   <g id="patch_154">
    <path d="M 1156.68 116.015896 
Q 1155.916265 120.798646 1155.094826 123.20094 
Q 1154.273386 125.581395 1153.397637 125.581395 
Q 1151.418714 125.581395 1150.262929 111.342342 
Q 1149.107143 97.103288 1149.107143 72.752759 
Q 1149.107143 48.118322 1150.283295 33.988463 
Q 1151.461144 19.858605 1153.509651 19.858605 
Q 1154.298844 19.858605 1155.021846 21.78044 
Q 1155.746546 23.680437 1156.388083 27.436751 
L 1156.388083 48.511425 
Q 1155.72618 43.684997 1155.071065 41.304542 
Q 1154.41595 38.902247 1153.757441 38.902247 
Q 1152.538859 38.902247 1151.878652 47.681541 
Q 1151.218446 56.438996 1151.218446 72.752759 
Q 1151.218446 88.913648 1151.854892 97.73662 
Q 1152.491338 106.537753 1153.662398 106.537753 
Q 1153.98147 106.537753 1154.254717 106.035455 
Q 1154.527964 105.511318 1154.745205 104.419366 
L 1154.745205 84.633196 
L 1153.497771 84.633196 
L 1153.497771 67.009091 
L 1156.68 67.009091 
L 1156.68 116.015896 
z
" clip-path="url(#p78bcc69770)" style="fill: #ffa600"/>
   </g>
  </g>
 </g>
 <defs>
  <clipPath id="p78bcc69770">
   <rect x="160.65" y="17.28" width="996.03" height="110.88"/>
  </clipPath>
 </defs>
</svg>
