<?xml version="1.0" encoding="utf-8" standalone="no"?>
<!DOCTYPE svg PUBLIC "-//W3C//DTD SVG 1.1//EN"
  "http://www.w3.org/Graphics/SVG/1.1/DTD/svg11.dtd">
<svg xmlns:xlink="http://www.w3.org/1999/xlink" width="1285.2pt" height="144pt" viewBox="0 0 1285.2 144" xmlns="http://www.w3.org/2000/svg" version="1.1">
 <metadata>
  <rdf:RDF xmlns:dc="http://purl.org/dc/elements/1.1/" xmlns:cc="http://creativecommons.org/ns#" xmlns:rdf="http://www.w3.org/1999/02/22-rdf-syntax-ns#">
   <cc:Work>
    <dc:type rdf:resource="http://purl.org/dc/dcmitype/StillImage"/>
    <dc:date>2024-11-11T17:06:39.448488</dc:date>
    <dc:format>image/svg+xml</dc:format>
    <dc:creator>
     <cc:Agent>
      <dc:title>Matplotlib v3.9.2, https://matplotlib.org/</dc:title>
     </cc:Agent>
    </dc:creator>
   </cc:Work>
  </rdf:RDF>
 </metadata>
 <defs>
  <style type="text/css">*{stroke-linejoin: round; stroke-linecap: butt}</style>
 </defs>
 <g id="figure_1">
  <g id="patch_1">
   <path d="M 0 144 
L 1285.2 144 
L 1285.2 0 
L 0 0 
z
" style="fill: #ffffff"/>
  </g>
  <g id="axes_1">
   <g id="line2d_1">
    <path d="M 160.65 128.16 
L 1156.68 128.16 
" clip-path="url(#p15d42f09e4)" style="fill: none; stroke: #000000; stroke-width: 0.5; stroke-linecap: square"/>
   </g>
   <g id="patch_2">
    <path d="M 165.895725 113.347484 
L 162.983326 113.347484 
L 162.523473 128.16 
L 160.65 128.16 
L 163.325505 46.848 
L 165.547352 46.848 
L 168.222857 128.16 
L 166.350932 128.16 
L 165.895725 113.347484 
z
M 163.447823 98.256144 
L 165.426582 98.256144 
L 164.438751 65.91258 
L 163.447823 98.256144 
z
" clip-path="url(#p15d42f09e4)" style="fill: #008000"/>
   </g>
   <g id="patch_3">
    <path d="M 176.194286 120.212188 
Q 175.560829 124.151737 174.875857 126.144416 
Q 174.190884 128.16 173.444856 128.16 
Q 171.220126 128.16 169.920777 113.226358 
Q 168.621429 98.292716 168.621429 72.754357 
Q 168.621429 47.124379 169.920777 32.213642 
Q 171.220126 17.28 173.444856 17.28 
Q 174.190884 17.28 174.875857 19.295584 
Q 175.560829 21.288263 176.194286 25.227812 
L 176.194286 47.330518 
Q 175.555105 42.108325 174.935005 39.680463 
Q 174.314904 37.252601 173.629932 37.252601 
Q 172.401179 37.252601 171.697127 46.712101 
Q 170.994982 56.148697 170.994982 72.754357 
Q 170.994982 89.291303 171.697127 98.750804 
Q 172.401179 108.187399 173.629932 108.187399 
Q 174.314904 108.187399 174.935005 105.759537 
Q 175.555105 103.308771 176.194286 98.086577 
L 176.194286 120.212188 
z
" clip-path="url(#p15d42f09e4)" style="fill: #0000ff"/>
   </g>
   <g id="patch_4">
    <path d="M 176.592857 120.768 
L 184.165714 120.768 
L 184.165714 122.209646 
L 181.441247 122.209646 
L 181.441247 128.16 
L 179.322608 128.16 
L 179.322608 122.209646 
L 176.592857 122.209646 
L 176.592857 120.768 
z
" clip-path="url(#p15d42f09e4)" style="fill: #ff0000"/>
   </g>
   <g id="patch_5">
    <path d="M 181.838582 118.074815 
L 178.926183 118.074815 
L 178.46633 120.768 
L 176.592857 120.768 
L 179.268363 105.984 
L 181.490209 105.984 
L 184.165714 120.768 
L 182.293789 120.768 
L 181.838582 118.074815 
z
M 179.39068 115.330935 
L 181.369439 115.330935 
L 180.381608 109.450287 
L 179.39068 115.330935 
z
" clip-path="url(#p15d42f09e4)" style="fill: #008000"/>
   </g>
   <g id="patch_6">
    <path d="M 184.165714 99.62575 
Q 183.532258 102.77739 182.847285 104.371533 
Q 182.162313 105.984 181.416284 105.984 
Q 179.191555 105.984 177.892206 94.037087 
Q 176.592857 82.090173 176.592857 61.659485 
Q 176.592857 41.155503 177.892206 29.226913 
Q 179.191555 17.28 181.416284 17.28 
Q 182.162313 17.28 182.847285 18.892467 
Q 183.532258 20.48661 184.165714 23.63825 
L 184.165714 41.320415 
Q 183.526534 37.14266 182.906433 35.20037 
Q 182.286333 33.258081 181.601361 33.258081 
Q 180.372608 33.258081 179.668555 40.825681 
Q 178.966411 48.374957 178.966411 61.659485 
Q 178.966411 74.889043 179.668555 82.456643 
Q 180.372608 90.005919 181.601361 90.005919 
Q 182.286333 90.005919 182.906433 88.06363 
Q 183.526534 86.103017 184.165714 81.925262 
L 184.165714 99.62575 
z
" clip-path="url(#p15d42f09e4)" style="fill: #0000ff"/>
   </g>
   <g id="patch_7">
    <path d="M 184.564286 120.768 
L 192.137143 120.768 
L 192.137143 122.209646 
L 189.412675 122.209646 
L 189.412675 128.16 
L 187.294037 128.16 
L 187.294037 122.209646 
L 184.564286 122.209646 
L 184.564286 120.768 
z
" clip-path="url(#p15d42f09e4)" style="fill: #ff0000"/>
   </g>
   <g id="patch_8">
    <path d="M 189.810011 101.915707 
L 186.897611 101.915707 
L 186.437759 120.768 
L 184.564286 120.768 
L 187.239791 17.28 
L 189.461637 17.28 
L 192.137143 120.768 
L 190.265218 120.768 
L 189.810011 101.915707 
z
M 187.362109 82.708547 
L 189.340868 82.708547 
L 188.353037 41.54401 
L 187.362109 82.708547 
z
" clip-path="url(#p15d42f09e4)" style="fill: #008000"/>
   </g>
   <g id="patch_9">
    <path d="M 197.781439 126.813408 
L 194.86904 126.813408 
L 194.409187 128.16 
L 192.535714 128.16 
L 195.21122 120.768 
L 197.433066 120.768 
L 200.108571 128.16 
L 198.236647 128.16 
L 197.781439 126.813408 
z
M 195.333537 125.441468 
L 197.312297 125.441468 
L 196.324465 122.501144 
L 195.333537 125.441468 
z
" clip-path="url(#p15d42f09e4)" style="fill: #008000"/>
   </g>
   <g id="patch_10">
    <path d="M 200.108571 113.350042 
Q 199.475115 117.026955 198.790143 118.886789 
Q 198.10517 120.768 197.359142 120.768 
Q 195.134412 120.768 193.835063 106.829934 
Q 192.535714 92.891869 192.535714 69.056066 
Q 192.535714 45.134754 193.835063 31.218066 
Q 195.134412 17.28 197.359142 17.28 
Q 198.10517 17.28 198.790143 19.161211 
Q 199.475115 21.021045 200.108571 24.697958 
L 200.108571 45.327151 
Q 199.469391 40.453103 198.849291 38.187099 
Q 198.22919 35.921094 197.544218 35.921094 
Q 196.315465 35.921094 195.611412 44.749961 
Q 194.909268 53.55745 194.909268 69.056066 
Q 194.909268 84.49055 195.611412 93.319417 
Q 196.315465 102.126906 197.544218 102.126906 
Q 198.22919 102.126906 198.849291 99.860901 
Q 199.469391 97.57352 200.108571 92.699472 
L 200.108571 113.350042 
z
" clip-path="url(#p15d42f09e4)" style="fill: #0000ff"/>
   </g>
   <g id="patch_11">
    <path d="M 200.507143 17.28 
L 208.08 17.28 
L 208.08 38.904689 
L 205.355533 38.904689 
L 205.355533 128.16 
L 203.236894 128.16 
L 203.236894 38.904689 
L 200.507143 38.904689 
L 200.507143 17.28 
z
" clip-path="url(#p15d42f09e4)" style="fill: #ff0000"/>
   </g>
   <g id="patch_12">
    <path d="M 208.478571 17.28 
L 216.051429 17.28 
L 216.051429 38.904689 
L 213.326961 38.904689 
L 213.326961 128.16 
L 211.208322 128.16 
L 211.208322 38.904689 
L 208.478571 38.904689 
L 208.478571 17.28 
z
" clip-path="url(#p15d42f09e4)" style="fill: #ff0000"/>
   </g>
   <g id="patch_13">
    <path d="M 216.45 17.28 
L 224.022857 17.28 
L 224.022857 38.904689 
L 221.29839 38.904689 
L 221.29839 128.16 
L 219.179751 128.16 
L 219.179751 38.904689 
L 216.45 38.904689 
L 216.45 17.28 
z
" clip-path="url(#p15d42f09e4)" style="fill: #ff0000"/>
   </g>
   <g id="patch_14">
    <path d="M 231.994286 118.127891 
Q 231.230551 123.143945 230.409111 125.663425 
Q 229.587672 128.16 228.711922 128.16 
Q 226.733 128.16 225.577214 113.226358 
Q 224.421429 98.292716 224.421429 72.754357 
Q 224.421429 46.91824 225.597581 32.09912 
Q 226.77543 17.28 228.823937 17.28 
Q 229.61313 17.28 230.336132 19.295584 
Q 231.060832 21.288263 231.702369 25.227812 
L 231.702369 47.330518 
Q 231.040466 42.268655 230.385351 39.77208 
Q 229.730236 37.252601 229.071726 37.252601 
Q 227.853145 37.252601 227.192938 46.460153 
Q 226.532732 55.644801 226.532732 72.754357 
Q 226.532732 89.703582 227.169177 98.956943 
Q 227.805623 108.187399 228.976684 108.187399 
Q 229.295755 108.187399 229.569003 107.660599 
Q 229.84225 107.110894 230.05949 105.965677 
L 230.05949 85.214328 
L 228.812056 85.214328 
L 228.812056 66.73051 
L 231.994286 66.73051 
L 231.994286 118.127891 
z
" clip-path="url(#p15d42f09e4)" style="fill: #ffa600"/>
   </g>
   <g id="patch_15">
    <path d="M 232.392857 17.28 
L 239.965714 17.28 
L 239.965714 38.904689 
L 237.241247 38.904689 
L 237.241247 128.16 
L 235.122608 128.16 
L 235.122608 38.904689 
L 232.392857 38.904689 
L 232.392857 17.28 
z
" clip-path="url(#p15d42f09e4)" style="fill: #ff0000"/>
   </g>
   <g id="patch_16">
    <path d="M 245.610011 107.961114 
L 242.697611 107.961114 
L 242.237759 128.16 
L 240.364286 128.16 
L 243.039791 17.28 
L 245.261637 17.28 
L 247.937143 128.16 
L 246.065218 128.16 
L 245.610011 107.961114 
z
M 243.162109 87.382015 
L 245.140868 87.382015 
L 244.153037 43.277154 
L 243.162109 87.382015 
z
" clip-path="url(#p15d42f09e4)" style="fill: #008000"/>
   </g>
   <g id="patch_17">
    <path d="M 255.908571 120.212188 
Q 255.275115 124.151737 254.590143 126.144416 
Q 253.90517 128.16 253.159142 128.16 
Q 250.934412 128.16 249.635063 113.226358 
Q 248.335714 98.292716 248.335714 72.754357 
Q 248.335714 47.124379 249.635063 32.213642 
Q 250.934412 17.28 253.159142 17.28 
Q 253.90517 17.28 254.590143 19.295584 
Q 255.275115 21.288263 255.908571 25.227812 
L 255.908571 47.330518 
Q 255.269391 42.108325 254.649291 39.680463 
Q 254.02919 37.252601 253.344218 37.252601 
Q 252.115465 37.252601 251.411412 46.712101 
Q 250.709268 56.148697 250.709268 72.754357 
Q 250.709268 89.291303 251.411412 98.750804 
Q 252.115465 108.187399 253.344218 108.187399 
Q 254.02919 108.187399 254.649291 105.759537 
Q 255.269391 103.308771 255.908571 98.086577 
L 255.908571 120.212188 
z
" clip-path="url(#p15d42f09e4)" style="fill: #0000ff"/>
   </g>
   <g id="patch_18">
    <path d="M 261.552868 107.961114 
L 258.640468 107.961114 
L 258.180616 128.16 
L 256.307143 128.16 
L 258.982648 17.28 
L 261.204495 17.28 
L 263.88 128.16 
L 262.008075 128.16 
L 261.552868 107.961114 
z
M 259.104966 87.382015 
L 261.083725 87.382015 
L 260.095894 43.277154 
L 259.104966 87.382015 
z
" clip-path="url(#p15d42f09e4)" style="fill: #008000"/>
   </g>
   <g id="patch_19">
    <path d="M 269.524296 107.961114 
L 266.611897 107.961114 
L 266.152045 128.16 
L 264.278571 128.16 
L 266.954077 17.28 
L 269.175923 17.28 
L 271.851429 128.16 
L 269.979504 128.16 
L 269.524296 107.961114 
z
M 267.076395 87.382015 
L 269.055154 87.382015 
L 268.067322 43.277154 
L 267.076395 87.382015 
z
" clip-path="url(#p15d42f09e4)" style="fill: #008000"/>
   </g>
   <g id="patch_20">
    <path d="M 279.822857 118.127891 
Q 279.059122 123.143945 278.237683 125.663425 
Q 277.416243 128.16 276.540494 128.16 
Q 274.561571 128.16 273.405786 113.226358 
Q 272.25 98.292716 272.25 72.754357 
Q 272.25 46.91824 273.426152 32.09912 
Q 274.604001 17.28 276.652508 17.28 
Q 277.441701 17.28 278.164704 19.295584 
Q 278.889403 21.288263 279.530941 25.227812 
L 279.530941 47.330518 
Q 278.869037 42.268655 278.213922 39.77208 
Q 277.558807 37.252601 276.900298 37.252601 
Q 275.681716 37.252601 275.02151 46.460153 
Q 274.361303 55.644801 274.361303 72.754357 
Q 274.361303 89.703582 274.997749 98.956943 
Q 275.634195 108.187399 276.805255 108.187399 
Q 277.124327 108.187399 277.397574 107.660599 
Q 277.670822 107.110894 277.888062 105.965677 
L 277.888062 85.214328 
L 276.640628 85.214328 
L 276.640628 66.73051 
L 279.822857 66.73051 
L 279.822857 118.127891 
z
" clip-path="url(#p15d42f09e4)" style="fill: #ffa600"/>
   </g>
   <g id="patch_21">
    <path d="M 285.467153 107.961114 
L 282.554754 107.961114 
L 282.094902 128.16 
L 280.221429 128.16 
L 282.896934 17.28 
L 285.11878 17.28 
L 287.794286 128.16 
L 285.922361 128.16 
L 285.467153 107.961114 
z
M 283.019252 87.382015 
L 284.998011 87.382015 
L 284.01018 43.277154 
L 283.019252 87.382015 
z
" clip-path="url(#p15d42f09e4)" style="fill: #008000"/>
   </g>
   <g id="patch_22">
    <path d="M 293.438582 107.961114 
L 290.526183 107.961114 
L 290.06633 128.16 
L 288.192857 128.16 
L 290.868363 17.28 
L 293.090209 17.28 
L 295.765714 128.16 
L 293.893789 128.16 
L 293.438582 107.961114 
z
M 290.99068 87.382015 
L 292.969439 87.382015 
L 291.981608 43.277154 
L 290.99068 87.382015 
z
" clip-path="url(#p15d42f09e4)" style="fill: #008000"/>
   </g>
   <g id="patch_23">
    <path d="M 301.410011 107.961114 
L 298.497611 107.961114 
L 298.037759 128.16 
L 296.164286 128.16 
L 298.839791 17.28 
L 301.061637 17.28 
L 303.737143 128.16 
L 301.865218 128.16 
L 301.410011 107.961114 
z
M 298.962109 87.382015 
L 300.940868 87.382015 
L 299.953037 43.277154 
L 298.962109 87.382015 
z
" clip-path="url(#p15d42f09e4)" style="fill: #008000"/>
   </g>
   <g id="patch_24">
    <path d="M 311.708571 118.127891 
Q 310.944836 123.143945 310.123397 125.663425 
Q 309.301957 128.16 308.426208 128.16 
Q 306.447286 128.16 305.2915 113.226358 
Q 304.135714 98.292716 304.135714 72.754357 
Q 304.135714 46.91824 305.311866 32.09912 
Q 306.489715 17.28 308.538222 17.28 
Q 309.327415 17.28 310.050418 19.295584 
Q 310.775118 21.288263 311.416655 25.227812 
L 311.416655 47.330518 
Q 310.754751 42.268655 310.099636 39.77208 
Q 309.444521 37.252601 308.786012 37.252601 
Q 307.56743 37.252601 306.907224 46.460153 
Q 306.247017 55.644801 306.247017 72.754357 
Q 306.247017 89.703582 306.883463 98.956943 
Q 307.519909 108.187399 308.690969 108.187399 
Q 309.010041 108.187399 309.283288 107.660599 
Q 309.556536 107.110894 309.773776 105.965677 
L 309.773776 85.214328 
L 308.526342 85.214328 
L 308.526342 66.73051 
L 311.708571 66.73051 
L 311.708571 118.127891 
z
" clip-path="url(#p15d42f09e4)" style="fill: #ffa600"/>
   </g>
   <g id="patch_25">
    <path d="M 312.107143 91.2 
L 319.68 91.2 
L 319.68 98.40823 
L 316.955533 98.40823 
L 316.955533 128.16 
L 314.836894 128.16 
L 314.836894 98.40823 
L 312.107143 98.40823 
L 312.107143 91.2 
z
" clip-path="url(#p15d42f09e4)" style="fill: #ff0000"/>
   </g>
   <g id="patch_26">
    <path d="M 319.68 85.901458 
Q 319.046544 88.527825 318.361571 89.856278 
Q 317.676599 91.2 316.93057 91.2 
Q 314.705841 91.2 313.406492 81.244239 
Q 312.107143 71.288478 312.107143 54.262904 
Q 312.107143 37.176253 313.406492 27.235761 
Q 314.705841 17.28 316.93057 17.28 
Q 317.676599 17.28 318.361571 18.623722 
Q 319.046544 19.952175 319.68 22.578542 
L 319.68 37.313679 
Q 319.04082 33.832216 318.420719 32.213642 
Q 317.800619 30.595067 317.115646 30.595067 
Q 315.886893 30.595067 315.182841 36.901401 
Q 314.480696 43.192464 314.480696 54.262904 
Q 314.480696 65.287536 315.182841 71.593869 
Q 315.886893 77.884933 317.115646 77.884933 
Q 317.800619 77.884933 318.420719 76.266358 
Q 319.04082 74.632514 319.68 71.151051 
L 319.68 85.901458 
z
" clip-path="url(#p15d42f09e4)" style="fill: #0000ff"/>
   </g>
   <g id="patch_27">
    <path d="M 320.078571 17.28 
L 327.651429 17.28 
L 327.651429 38.904689 
L 324.926961 38.904689 
L 324.926961 128.16 
L 322.808322 128.16 
L 322.808322 38.904689 
L 320.078571 38.904689 
L 320.078571 17.28 
z
" clip-path="url(#p15d42f09e4)" style="fill: #ff0000"/>
   </g>
   <g id="patch_28">
    <path d="M 335.622857 118.127891 
Q 334.859122 123.143945 334.037683 125.663425 
Q 333.216243 128.16 332.340494 128.16 
Q 330.361571 128.16 329.205786 113.226358 
Q 328.05 98.292716 328.05 72.754357 
Q 328.05 46.91824 329.226152 32.09912 
Q 330.404001 17.28 332.452508 17.28 
Q 333.241701 17.28 333.964704 19.295584 
Q 334.689403 21.288263 335.330941 25.227812 
L 335.330941 47.330518 
Q 334.669037 42.268655 334.013922 39.77208 
Q 333.358807 37.252601 332.700298 37.252601 
Q 331.481716 37.252601 330.82151 46.460153 
Q 330.161303 55.644801 330.161303 72.754357 
Q 330.161303 89.703582 330.797749 98.956943 
Q 331.434195 108.187399 332.605255 108.187399 
Q 332.924327 108.187399 333.197574 107.660599 
Q 333.470822 107.110894 333.688062 105.965677 
L 333.688062 85.214328 
L 332.440628 85.214328 
L 332.440628 66.73051 
L 335.622857 66.73051 
L 335.622857 118.127891 
z
" clip-path="url(#p15d42f09e4)" style="fill: #ffa600"/>
   </g>
   <g id="patch_29">
    <path d="M 341.267153 107.961114 
L 338.354754 107.961114 
L 337.894902 128.16 
L 336.021429 128.16 
L 338.696934 17.28 
L 340.91878 17.28 
L 343.594286 128.16 
L 341.722361 128.16 
L 341.267153 107.961114 
z
M 338.819252 87.382015 
L 340.798011 87.382015 
L 339.81018 43.277154 
L 338.819252 87.382015 
z
" clip-path="url(#p15d42f09e4)" style="fill: #008000"/>
   </g>
   <g id="patch_30">
    <path d="M 351.565714 127.491193 
Q 350.801979 127.825596 349.98054 127.993562 
Q 349.1591 128.16 348.283351 128.16 
Q 346.304429 128.16 345.148643 127.164424 
Q 343.992857 126.168848 343.992857 124.46629 
Q 343.992857 122.743883 345.169009 121.755941 
Q 346.346858 120.768 348.395365 120.768 
Q 349.184558 120.768 349.907561 120.902372 
Q 350.63226 121.035218 351.273798 121.297854 
L 351.273798 122.771368 
Q 350.611894 122.43391 349.956779 122.267472 
Q 349.301664 122.099507 348.643155 122.099507 
Q 347.424573 122.099507 346.764367 122.713344 
Q 346.10416 123.325653 346.10416 124.46629 
Q 346.10416 125.596239 346.740606 126.21313 
Q 347.377052 126.828493 348.548112 126.828493 
Q 348.867184 126.828493 349.140431 126.793373 
Q 349.413679 126.756726 349.630919 126.680378 
L 349.630919 125.296955 
L 348.383485 125.296955 
L 348.383485 124.064701 
L 351.565714 124.064701 
L 351.565714 127.491193 
z
" clip-path="url(#p15d42f09e4)" style="fill: #ffa600"/>
   </g>
   <g id="patch_31">
    <path d="M 349.238582 101.915707 
L 346.326183 101.915707 
L 345.86633 120.768 
L 343.992857 120.768 
L 346.668363 17.28 
L 348.890209 17.28 
L 351.565714 120.768 
L 349.693789 120.768 
L 349.238582 101.915707 
z
M 346.79068 82.708547 
L 348.769439 82.708547 
L 347.781608 41.54401 
L 346.79068 82.708547 
z
" clip-path="url(#p15d42f09e4)" style="fill: #008000"/>
   </g>
   <g id="patch_32">
    <path d="M 359.537143 120.212188 
Q 358.903686 124.151737 358.218714 126.144416 
Q 357.533741 128.16 356.787713 128.16 
Q 354.562983 128.16 353.263635 113.226358 
Q 351.964286 98.292716 351.964286 72.754357 
Q 351.964286 47.124379 353.263635 32.213642 
Q 354.562983 17.28 356.787713 17.28 
Q 357.533741 17.28 358.218714 19.295584 
Q 358.903686 21.288263 359.537143 25.227812 
L 359.537143 47.330518 
Q 358.897962 42.108325 358.277862 39.680463 
Q 357.657762 37.252601 356.972789 37.252601 
Q 355.744036 37.252601 355.039984 46.712101 
Q 354.337839 56.148697 354.337839 72.754357 
Q 354.337839 89.291303 355.039984 98.750804 
Q 355.744036 108.187399 356.972789 108.187399 
Q 357.657762 108.187399 358.277862 105.759537 
Q 358.897962 103.308771 359.537143 98.086577 
L 359.537143 120.212188 
z
" clip-path="url(#p15d42f09e4)" style="fill: #0000ff"/>
   </g>
   <g id="patch_33">
    <path d="M 367.508571 118.127891 
Q 366.744836 123.143945 365.923397 125.663425 
Q 365.101957 128.16 364.226208 128.16 
Q 362.247286 128.16 361.0915 113.226358 
Q 359.935714 98.292716 359.935714 72.754357 
Q 359.935714 46.91824 361.111866 32.09912 
Q 362.289715 17.28 364.338222 17.28 
Q 365.127415 17.28 365.850418 19.295584 
Q 366.575118 21.288263 367.216655 25.227812 
L 367.216655 47.330518 
Q 366.554751 42.268655 365.899636 39.77208 
Q 365.244521 37.252601 364.586012 37.252601 
Q 363.36743 37.252601 362.707224 46.460153 
Q 362.047017 55.644801 362.047017 72.754357 
Q 362.047017 89.703582 362.683463 98.956943 
Q 363.319909 108.187399 364.490969 108.187399 
Q 364.810041 108.187399 365.083288 107.660599 
Q 365.356536 107.110894 365.573776 105.965677 
L 365.573776 85.214328 
L 364.326342 85.214328 
L 364.326342 66.73051 
L 367.508571 66.73051 
L 367.508571 118.127891 
z
" clip-path="url(#p15d42f09e4)" style="fill: #ffa600"/>
   </g>
   <g id="patch_34">
    <path d="M 373.152868 107.961114 
L 370.240468 107.961114 
L 369.780616 128.16 
L 367.907143 128.16 
L 370.582648 17.28 
L 372.804495 17.28 
L 375.48 128.16 
L 373.608075 128.16 
L 373.152868 107.961114 
z
M 370.704966 87.382015 
L 372.683725 87.382015 
L 371.695894 43.277154 
L 370.704966 87.382015 
z
" clip-path="url(#p15d42f09e4)" style="fill: #008000"/>
   </g>
   <g id="patch_35">
    <path d="M 383.451429 118.127891 
Q 382.687694 123.143945 381.866254 125.663425 
Q 381.044815 128.16 380.169065 128.16 
Q 378.190143 128.16 377.034357 113.226358 
Q 375.878571 98.292716 375.878571 72.754357 
Q 375.878571 46.91824 377.054723 32.09912 
Q 378.232573 17.28 380.28108 17.28 
Q 381.070272 17.28 381.793275 19.295584 
Q 382.517975 21.288263 383.159512 25.227812 
L 383.159512 47.330518 
Q 382.497608 42.268655 381.842493 39.77208 
Q 381.187378 37.252601 380.528869 37.252601 
Q 379.310288 37.252601 378.650081 46.460153 
Q 377.989874 55.644801 377.989874 72.754357 
Q 377.989874 89.703582 378.62632 98.956943 
Q 379.262766 108.187399 380.433827 108.187399 
Q 380.752898 108.187399 381.026146 107.660599 
Q 381.299393 107.110894 381.516633 105.965677 
L 381.516633 85.214328 
L 380.269199 85.214328 
L 380.269199 66.73051 
L 383.451429 66.73051 
L 383.451429 118.127891 
z
" clip-path="url(#p15d42f09e4)" style="fill: #ffa600"/>
   </g>
   <g id="patch_36">
    <path d="M 389.095725 107.961114 
L 386.183326 107.961114 
L 385.723473 128.16 
L 383.85 128.16 
L 386.525505 17.28 
L 388.747352 17.28 
L 391.422857 128.16 
L 389.550932 128.16 
L 389.095725 107.961114 
z
M 386.647823 87.382015 
L 388.626582 87.382015 
L 387.638751 43.277154 
L 386.647823 87.382015 
z
" clip-path="url(#p15d42f09e4)" style="fill: #008000"/>
   </g>
   <g id="patch_37">
    <path d="M 397.067153 107.961114 
L 394.154754 107.961114 
L 393.694902 128.16 
L 391.821429 128.16 
L 394.496934 17.28 
L 396.71878 17.28 
L 399.394286 128.16 
L 397.522361 128.16 
L 397.067153 107.961114 
z
M 394.619252 87.382015 
L 396.598011 87.382015 
L 395.61018 43.277154 
L 394.619252 87.382015 
z
" clip-path="url(#p15d42f09e4)" style="fill: #008000"/>
   </g>
   <g id="patch_38">
    <path d="M 405.038582 107.961114 
L 402.126183 107.961114 
L 401.66633 128.16 
L 399.792857 128.16 
L 402.468363 17.28 
L 404.690209 17.28 
L 407.365714 128.16 
L 405.493789 128.16 
L 405.038582 107.961114 
z
M 402.59068 87.382015 
L 404.569439 87.382015 
L 403.581608 43.277154 
L 402.59068 87.382015 
z
" clip-path="url(#p15d42f09e4)" style="fill: #008000"/>
   </g>
   <g id="patch_39">
    <path d="M 415.337143 120.212188 
Q 414.703686 124.151737 414.018714 126.144416 
Q 413.333741 128.16 412.587713 128.16 
Q 410.362983 128.16 409.063635 113.226358 
Q 407.764286 98.292716 407.764286 72.754357 
Q 407.764286 47.124379 409.063635 32.213642 
Q 410.362983 17.28 412.587713 17.28 
Q 413.333741 17.28 414.018714 19.295584 
Q 414.703686 21.288263 415.337143 25.227812 
L 415.337143 47.330518 
Q 414.697962 42.108325 414.077862 39.680463 
Q 413.457762 37.252601 412.772789 37.252601 
Q 411.544036 37.252601 410.839984 46.712101 
Q 410.137839 56.148697 410.137839 72.754357 
Q 410.137839 89.291303 410.839984 98.750804 
Q 411.544036 108.187399 412.772789 108.187399 
Q 413.457762 108.187399 414.077862 105.759537 
Q 414.697962 103.308771 415.337143 98.086577 
L 415.337143 120.212188 
z
" clip-path="url(#p15d42f09e4)" style="fill: #0000ff"/>
   </g>
   <g id="patch_40">
    <path d="M 423.308571 118.127891 
Q 422.544836 123.143945 421.723397 125.663425 
Q 420.901957 128.16 420.026208 128.16 
Q 418.047286 128.16 416.8915 113.226358 
Q 415.735714 98.292716 415.735714 72.754357 
Q 415.735714 46.91824 416.911866 32.09912 
Q 418.089715 17.28 420.138222 17.28 
Q 420.927415 17.28 421.650418 19.295584 
Q 422.375118 21.288263 423.016655 25.227812 
L 423.016655 47.330518 
Q 422.354751 42.268655 421.699636 39.77208 
Q 421.044521 37.252601 420.386012 37.252601 
Q 419.16743 37.252601 418.507224 46.460153 
Q 417.847017 55.644801 417.847017 72.754357 
Q 417.847017 89.703582 418.483463 98.956943 
Q 419.119909 108.187399 420.290969 108.187399 
Q 420.610041 108.187399 420.883288 107.660599 
Q 421.156536 107.110894 421.373776 105.965677 
L 421.373776 85.214328 
L 420.126342 85.214328 
L 420.126342 66.73051 
L 423.308571 66.73051 
L 423.308571 118.127891 
z
" clip-path="url(#p15d42f09e4)" style="fill: #ffa600"/>
   </g>
   <g id="patch_41">
    <path d="M 423.707143 17.28 
L 431.28 17.28 
L 431.28 38.904689 
L 428.555533 38.904689 
L 428.555533 128.16 
L 426.436894 128.16 
L 426.436894 38.904689 
L 423.707143 38.904689 
L 423.707143 17.28 
z
" clip-path="url(#p15d42f09e4)" style="fill: #ff0000"/>
   </g>
   <g id="patch_42">
    <path d="M 436.924296 107.961114 
L 434.011897 107.961114 
L 433.552045 128.16 
L 431.678571 128.16 
L 434.354077 17.28 
L 436.575923 17.28 
L 439.251429 128.16 
L 437.379504 128.16 
L 436.924296 107.961114 
z
M 434.476395 87.382015 
L 436.455154 87.382015 
L 435.467322 43.277154 
L 434.476395 87.382015 
z
" clip-path="url(#p15d42f09e4)" style="fill: #008000"/>
   </g>
   <g id="patch_43">
    <path d="M 444.895725 107.961114 
L 441.983326 107.961114 
L 441.523473 128.16 
L 439.65 128.16 
L 442.325505 17.28 
L 444.547352 17.28 
L 447.222857 128.16 
L 445.350932 128.16 
L 444.895725 107.961114 
z
M 442.447823 87.382015 
L 444.426582 87.382015 
L 443.438751 43.277154 
L 442.447823 87.382015 
z
" clip-path="url(#p15d42f09e4)" style="fill: #008000"/>
   </g>
   <g id="patch_44">
    <path d="M 455.194286 127.491193 
Q 454.430551 127.825596 453.609111 127.993562 
Q 452.787672 128.16 451.911922 128.16 
Q 449.933 128.16 448.777214 127.164424 
Q 447.621429 126.168848 447.621429 124.46629 
Q 447.621429 122.743883 448.797581 121.755941 
Q 449.97543 120.768 452.023937 120.768 
Q 452.81313 120.768 453.536132 120.902372 
Q 454.260832 121.035218 454.902369 121.297854 
L 454.902369 122.771368 
Q 454.240466 122.43391 453.585351 122.267472 
Q 452.930236 122.099507 452.271726 122.099507 
Q 451.053145 122.099507 450.392938 122.713344 
Q 449.732732 123.325653 449.732732 124.46629 
Q 449.732732 125.596239 450.369177 126.21313 
Q 451.005623 126.828493 452.176684 126.828493 
Q 452.495755 126.828493 452.769003 126.793373 
Q 453.04225 126.756726 453.25949 126.680378 
L 453.25949 125.296955 
L 452.012056 125.296955 
L 452.012056 124.064701 
L 455.194286 124.064701 
L 455.194286 127.491193 
z
" clip-path="url(#p15d42f09e4)" style="fill: #ffa600"/>
   </g>
   <g id="patch_45">
    <path d="M 452.867153 101.915707 
L 449.954754 101.915707 
L 449.494902 120.768 
L 447.621429 120.768 
L 450.296934 17.28 
L 452.51878 17.28 
L 455.194286 120.768 
L 453.322361 120.768 
L 452.867153 101.915707 
z
M 450.419252 82.708547 
L 452.398011 82.708547 
L 451.41018 41.54401 
L 450.419252 82.708547 
z
" clip-path="url(#p15d42f09e4)" style="fill: #008000"/>
   </g>
   <g id="patch_46">
    <path d="M 463.165714 127.491193 
Q 462.401979 127.825596 461.58054 127.993562 
Q 460.7591 128.16 459.883351 128.16 
Q 457.904429 128.16 456.748643 127.164424 
Q 455.592857 126.168848 455.592857 124.46629 
Q 455.592857 122.743883 456.769009 121.755941 
Q 457.946858 120.768 459.995365 120.768 
Q 460.784558 120.768 461.507561 120.902372 
Q 462.23226 121.035218 462.873798 121.297854 
L 462.873798 122.771368 
Q 462.211894 122.43391 461.556779 122.267472 
Q 460.901664 122.099507 460.243155 122.099507 
Q 459.024573 122.099507 458.364367 122.713344 
Q 457.70416 123.325653 457.70416 124.46629 
Q 457.70416 125.596239 458.340606 126.21313 
Q 458.977052 126.828493 460.148112 126.828493 
Q 460.467184 126.828493 460.740431 126.793373 
Q 461.013679 126.756726 461.230919 126.680378 
L 461.230919 125.296955 
L 459.983485 125.296955 
L 459.983485 124.064701 
L 463.165714 124.064701 
L 463.165714 127.491193 
z
" clip-path="url(#p15d42f09e4)" style="fill: #ffa600"/>
   </g>
   <g id="patch_47">
    <path d="M 460.838582 101.915707 
L 457.926183 101.915707 
L 457.46633 120.768 
L 455.592857 120.768 
L 458.268363 17.28 
L 460.490209 17.28 
L 463.165714 120.768 
L 461.293789 120.768 
L 460.838582 101.915707 
z
M 458.39068 82.708547 
L 460.369439 82.708547 
L 459.381608 41.54401 
L 458.39068 82.708547 
z
" clip-path="url(#p15d42f09e4)" style="fill: #008000"/>
   </g>
   <g id="patch_48">
    <path d="M 463.564286 17.28 
L 471.137143 17.28 
L 471.137143 38.904689 
L 468.412675 38.904689 
L 468.412675 128.16 
L 466.294037 128.16 
L 466.294037 38.904689 
L 463.564286 38.904689 
L 463.564286 17.28 
z
" clip-path="url(#p15d42f09e4)" style="fill: #ff0000"/>
   </g>
   <g id="patch_49">
    <path d="M 479.108571 118.127891 
Q 478.344836 123.143945 477.523397 125.663425 
Q 476.701957 128.16 475.826208 128.16 
Q 473.847286 128.16 472.6915 113.226358 
Q 471.535714 98.292716 471.535714 72.754357 
Q 471.535714 46.91824 472.711866 32.09912 
Q 473.889715 17.28 475.938222 17.28 
Q 476.727415 17.28 477.450418 19.295584 
Q 478.175118 21.288263 478.816655 25.227812 
L 478.816655 47.330518 
Q 478.154751 42.268655 477.499636 39.77208 
Q 476.844521 37.252601 476.186012 37.252601 
Q 474.96743 37.252601 474.307224 46.460153 
Q 473.647017 55.644801 473.647017 72.754357 
Q 473.647017 89.703582 474.283463 98.956943 
Q 474.919909 108.187399 476.090969 108.187399 
Q 476.410041 108.187399 476.683288 107.660599 
Q 476.956536 107.110894 477.173776 105.965677 
L 477.173776 85.214328 
L 475.926342 85.214328 
L 475.926342 66.73051 
L 479.108571 66.73051 
L 479.108571 118.127891 
z
" clip-path="url(#p15d42f09e4)" style="fill: #ffa600"/>
   </g>
   <g id="patch_50">
    <path d="M 484.752868 107.961114 
L 481.840468 107.961114 
L 481.380616 128.16 
L 479.507143 128.16 
L 482.182648 17.28 
L 484.404495 17.28 
L 487.08 128.16 
L 485.208075 128.16 
L 484.752868 107.961114 
z
M 482.304966 87.382015 
L 484.283725 87.382015 
L 483.295894 43.277154 
L 482.304966 87.382015 
z
" clip-path="url(#p15d42f09e4)" style="fill: #008000"/>
   </g>
   <g id="patch_51">
    <path d="M 487.478571 17.28 
L 495.051429 17.28 
L 495.051429 38.904689 
L 492.326961 38.904689 
L 492.326961 128.16 
L 490.208322 128.16 
L 490.208322 38.904689 
L 487.478571 38.904689 
L 487.478571 17.28 
z
" clip-path="url(#p15d42f09e4)" style="fill: #ff0000"/>
   </g>
   <g id="patch_52">
    <path d="M 500.695725 107.961114 
L 497.783326 107.961114 
L 497.323473 128.16 
L 495.45 128.16 
L 498.125505 17.28 
L 500.347352 17.28 
L 503.022857 128.16 
L 501.150932 128.16 
L 500.695725 107.961114 
z
M 498.247823 87.382015 
L 500.226582 87.382015 
L 499.238751 43.277154 
L 498.247823 87.382015 
z
" clip-path="url(#p15d42f09e4)" style="fill: #008000"/>
   </g>
   <g id="patch_53">
    <path d="M 503.421429 17.28 
L 510.994286 17.28 
L 510.994286 38.904689 
L 508.269818 38.904689 
L 508.269818 128.16 
L 506.151179 128.16 
L 506.151179 38.904689 
L 503.421429 38.904689 
L 503.421429 17.28 
z
" clip-path="url(#p15d42f09e4)" style="fill: #ff0000"/>
   </g>
   <g id="patch_54">
    <path d="M 516.638582 107.961114 
L 513.726183 107.961114 
L 513.26633 128.16 
L 511.392857 128.16 
L 514.068363 17.28 
L 516.290209 17.28 
L 518.965714 128.16 
L 517.093789 128.16 
L 516.638582 107.961114 
z
M 514.19068 87.382015 
L 516.169439 87.382015 
L 515.181608 43.277154 
L 514.19068 87.382015 
z
" clip-path="url(#p15d42f09e4)" style="fill: #008000"/>
   </g>
   <g id="patch_55">
    <path d="M 524.610011 107.961114 
L 521.697611 107.961114 
L 521.237759 128.16 
L 519.364286 128.16 
L 522.039791 17.28 
L 524.261637 17.28 
L 526.937143 128.16 
L 525.065218 128.16 
L 524.610011 107.961114 
z
M 522.162109 87.382015 
L 524.140868 87.382015 
L 523.153037 43.277154 
L 522.162109 87.382015 
z
" clip-path="url(#p15d42f09e4)" style="fill: #008000"/>
   </g>
   <g id="patch_56">
    <path d="M 532.581439 107.961114 
L 529.66904 107.961114 
L 529.209187 128.16 
L 527.335714 128.16 
L 530.01122 17.28 
L 532.233066 17.28 
L 534.908571 128.16 
L 533.036647 128.16 
L 532.581439 107.961114 
z
M 530.133537 87.382015 
L 532.112297 87.382015 
L 531.124465 43.277154 
L 530.133537 87.382015 
z
" clip-path="url(#p15d42f09e4)" style="fill: #008000"/>
   </g>
   <g id="patch_57">
    <path d="M 535.307143 17.28 
L 542.88 17.28 
L 542.88 38.904689 
L 540.155533 38.904689 
L 540.155533 128.16 
L 538.036894 128.16 
L 538.036894 38.904689 
L 535.307143 38.904689 
L 535.307143 17.28 
z
" clip-path="url(#p15d42f09e4)" style="fill: #ff0000"/>
   </g>
   <g id="patch_58">
    <path d="M 548.524296 107.961114 
L 545.611897 107.961114 
L 545.152045 128.16 
L 543.278571 128.16 
L 545.954077 17.28 
L 548.175923 17.28 
L 550.851429 128.16 
L 548.979504 128.16 
L 548.524296 107.961114 
z
M 546.076395 87.382015 
L 548.055154 87.382015 
L 547.067322 43.277154 
L 546.076395 87.382015 
z
" clip-path="url(#p15d42f09e4)" style="fill: #008000"/>
   </g>
   <g id="patch_59">
    <path d="M 551.25 17.28 
L 558.822857 17.28 
L 558.822857 38.904689 
L 556.09839 38.904689 
L 556.09839 128.16 
L 553.979751 128.16 
L 553.979751 38.904689 
L 551.25 38.904689 
L 551.25 17.28 
z
" clip-path="url(#p15d42f09e4)" style="fill: #ff0000"/>
   </g>
   <g id="patch_60">
    <path d="M 566.794286 120.212188 
Q 566.160829 124.151737 565.475857 126.144416 
Q 564.790884 128.16 564.044856 128.16 
Q 561.820126 128.16 560.520777 113.226358 
Q 559.221429 98.292716 559.221429 72.754357 
Q 559.221429 47.124379 560.520777 32.213642 
Q 561.820126 17.28 564.044856 17.28 
Q 564.790884 17.28 565.475857 19.295584 
Q 566.160829 21.288263 566.794286 25.227812 
L 566.794286 47.330518 
Q 566.155105 42.108325 565.535005 39.680463 
Q 564.914904 37.252601 564.229932 37.252601 
Q 563.001179 37.252601 562.297127 46.712101 
Q 561.594982 56.148697 561.594982 72.754357 
Q 561.594982 89.291303 562.297127 98.750804 
Q 563.001179 108.187399 564.229932 108.187399 
Q 564.914904 108.187399 565.535005 105.759537 
Q 566.155105 103.308771 566.794286 98.086577 
L 566.794286 120.212188 
z
" clip-path="url(#p15d42f09e4)" style="fill: #0000ff"/>
   </g>
   <g id="patch_61">
    <path d="M 572.438582 107.961114 
L 569.526183 107.961114 
L 569.06633 128.16 
L 567.192857 128.16 
L 569.868363 17.28 
L 572.090209 17.28 
L 574.765714 128.16 
L 572.893789 128.16 
L 572.438582 107.961114 
z
M 569.99068 87.382015 
L 571.969439 87.382015 
L 570.981608 43.277154 
L 569.99068 87.382015 
z
" clip-path="url(#p15d42f09e4)" style="fill: #008000"/>
   </g>
   <g id="patch_62">
    <path d="M 580.410011 107.961114 
L 577.497611 107.961114 
L 577.037759 128.16 
L 575.164286 128.16 
L 577.839791 17.28 
L 580.061637 17.28 
L 582.737143 128.16 
L 580.865218 128.16 
L 580.410011 107.961114 
z
M 577.962109 87.382015 
L 579.940868 87.382015 
L 578.953037 43.277154 
L 577.962109 87.382015 
z
" clip-path="url(#p15d42f09e4)" style="fill: #008000"/>
   </g>
   <g id="patch_63">
    <path d="M 583.135714 17.28 
L 590.708571 17.28 
L 590.708571 38.904689 
L 587.984104 38.904689 
L 587.984104 128.16 
L 585.865465 128.16 
L 585.865465 38.904689 
L 583.135714 38.904689 
L 583.135714 17.28 
z
" clip-path="url(#p15d42f09e4)" style="fill: #ff0000"/>
   </g>
   <g id="patch_64">
    <path d="M 596.352868 107.961114 
L 593.440468 107.961114 
L 592.980616 128.16 
L 591.107143 128.16 
L 593.782648 17.28 
L 596.004495 17.28 
L 598.68 128.16 
L 596.808075 128.16 
L 596.352868 107.961114 
z
M 593.904966 87.382015 
L 595.883725 87.382015 
L 594.895894 43.277154 
L 593.904966 87.382015 
z
" clip-path="url(#p15d42f09e4)" style="fill: #008000"/>
   </g>
   <g id="patch_65">
    <path d="M 599.078571 17.28 
L 606.651429 17.28 
L 606.651429 38.904689 
L 603.926961 38.904689 
L 603.926961 128.16 
L 601.808322 128.16 
L 601.808322 38.904689 
L 599.078571 38.904689 
L 599.078571 17.28 
z
" clip-path="url(#p15d42f09e4)" style="fill: #ff0000"/>
   </g>
   <g id="patch_66">
    <path d="M 612.295725 107.961114 
L 609.383326 107.961114 
L 608.923473 128.16 
L 607.05 128.16 
L 609.725505 17.28 
L 611.947352 17.28 
L 614.622857 128.16 
L 612.750932 128.16 
L 612.295725 107.961114 
z
M 609.847823 87.382015 
L 611.826582 87.382015 
L 610.838751 43.277154 
L 609.847823 87.382015 
z
" clip-path="url(#p15d42f09e4)" style="fill: #008000"/>
   </g>
   <g id="patch_67">
    <path d="M 615.021429 17.28 
L 622.594286 17.28 
L 622.594286 38.904689 
L 619.869818 38.904689 
L 619.869818 128.16 
L 617.751179 128.16 
L 617.751179 38.904689 
L 615.021429 38.904689 
L 615.021429 17.28 
z
" clip-path="url(#p15d42f09e4)" style="fill: #ff0000"/>
   </g>
   <g id="patch_68">
    <path d="M 622.992857 17.28 
L 630.565714 17.28 
L 630.565714 38.904689 
L 627.841247 38.904689 
L 627.841247 128.16 
L 625.722608 128.16 
L 625.722608 38.904689 
L 622.992857 38.904689 
L 622.992857 17.28 
z
" clip-path="url(#p15d42f09e4)" style="fill: #ff0000"/>
   </g>
   <g id="patch_69">
    <path d="M 636.210011 107.961114 
L 633.297611 107.961114 
L 632.837759 128.16 
L 630.964286 128.16 
L 633.639791 17.28 
L 635.861637 17.28 
L 638.537143 128.16 
L 636.665218 128.16 
L 636.210011 107.961114 
z
M 633.762109 87.382015 
L 635.740868 87.382015 
L 634.753037 43.277154 
L 633.762109 87.382015 
z
" clip-path="url(#p15d42f09e4)" style="fill: #008000"/>
   </g>
   <g id="patch_70">
    <path d="M 644.181439 107.961114 
L 641.26904 107.961114 
L 640.809187 128.16 
L 638.935714 128.16 
L 641.61122 17.28 
L 643.833066 17.28 
L 646.508571 128.16 
L 644.636647 128.16 
L 644.181439 107.961114 
z
M 641.733537 87.382015 
L 643.712297 87.382015 
L 642.724465 43.277154 
L 641.733537 87.382015 
z
" clip-path="url(#p15d42f09e4)" style="fill: #008000"/>
   </g>
   <g id="patch_71">
    <path d="M 652.152868 107.961114 
L 649.240468 107.961114 
L 648.780616 128.16 
L 646.907143 128.16 
L 649.582648 17.28 
L 651.804495 17.28 
L 654.48 128.16 
L 652.608075 128.16 
L 652.152868 107.961114 
z
M 649.704966 87.382015 
L 651.683725 87.382015 
L 650.695894 43.277154 
L 649.704966 87.382015 
z
" clip-path="url(#p15d42f09e4)" style="fill: #008000"/>
   </g>
   <g id="patch_72">
    <path d="M 654.878571 17.28 
L 662.451429 17.28 
L 662.451429 38.904689 
L 659.726961 38.904689 
L 659.726961 128.16 
L 657.608322 128.16 
L 657.608322 38.904689 
L 654.878571 38.904689 
L 654.878571 17.28 
z
" clip-path="url(#p15d42f09e4)" style="fill: #ff0000"/>
   </g>
   <g id="patch_73">
    <path d="M 662.85 17.28 
L 670.422857 17.28 
L 670.422857 38.904689 
L 667.69839 38.904689 
L 667.69839 128.16 
L 665.579751 128.16 
L 665.579751 38.904689 
L 662.85 38.904689 
L 662.85 17.28 
z
" clip-path="url(#p15d42f09e4)" style="fill: #ff0000"/>
   </g>
   <g id="patch_74">
    <path d="M 676.067153 107.961114 
L 673.154754 107.961114 
L 672.694902 128.16 
L 670.821429 128.16 
L 673.496934 17.28 
L 675.71878 17.28 
L 678.394286 128.16 
L 676.522361 128.16 
L 676.067153 107.961114 
z
M 673.619252 87.382015 
L 675.598011 87.382015 
L 674.61018 43.277154 
L 673.619252 87.382015 
z
" clip-path="url(#p15d42f09e4)" style="fill: #008000"/>
   </g>
   <g id="patch_75">
    <path d="M 686.365714 118.127891 
Q 685.601979 123.143945 684.78054 125.663425 
Q 683.9591 128.16 683.083351 128.16 
Q 681.104429 128.16 679.948643 113.226358 
Q 678.792857 98.292716 678.792857 72.754357 
Q 678.792857 46.91824 679.969009 32.09912 
Q 681.146858 17.28 683.195365 17.28 
Q 683.984558 17.28 684.707561 19.295584 
Q 685.43226 21.288263 686.073798 25.227812 
L 686.073798 47.330518 
Q 685.411894 42.268655 684.756779 39.77208 
Q 684.101664 37.252601 683.443155 37.252601 
Q 682.224573 37.252601 681.564367 46.460153 
Q 680.90416 55.644801 680.90416 72.754357 
Q 680.90416 89.703582 681.540606 98.956943 
Q 682.177052 108.187399 683.348112 108.187399 
Q 683.667184 108.187399 683.940431 107.660599 
Q 684.213679 107.110894 684.430919 105.965677 
L 684.430919 85.214328 
L 683.183485 85.214328 
L 683.183485 66.73051 
L 686.365714 66.73051 
L 686.365714 118.127891 
z
" clip-path="url(#p15d42f09e4)" style="fill: #ffa600"/>
   </g>
   <g id="patch_76">
    <path d="M 692.010011 107.961114 
L 689.097611 107.961114 
L 688.637759 128.16 
L 686.764286 128.16 
L 689.439791 17.28 
L 691.661637 17.28 
L 694.337143 128.16 
L 692.465218 128.16 
L 692.010011 107.961114 
z
M 689.562109 87.382015 
L 691.540868 87.382015 
L 690.553037 43.277154 
L 689.562109 87.382015 
z
" clip-path="url(#p15d42f09e4)" style="fill: #008000"/>
   </g>
   <g id="patch_77">
    <path d="M 694.735714 17.28 
L 702.308571 17.28 
L 702.308571 38.904689 
L 699.584104 38.904689 
L 699.584104 128.16 
L 697.465465 128.16 
L 697.465465 38.904689 
L 694.735714 38.904689 
L 694.735714 17.28 
z
" clip-path="url(#p15d42f09e4)" style="fill: #ff0000"/>
   </g>
   <g id="patch_78">
    <path d="M 702.707143 17.28 
L 710.28 17.28 
L 710.28 38.904689 
L 707.555533 38.904689 
L 707.555533 128.16 
L 705.436894 128.16 
L 705.436894 38.904689 
L 702.707143 38.904689 
L 702.707143 17.28 
z
" clip-path="url(#p15d42f09e4)" style="fill: #ff0000"/>
   </g>
   <g id="patch_79">
    <path d="M 710.678571 17.28 
L 718.251429 17.28 
L 718.251429 38.904689 
L 715.526961 38.904689 
L 715.526961 128.16 
L 713.408322 128.16 
L 713.408322 38.904689 
L 710.678571 38.904689 
L 710.678571 17.28 
z
" clip-path="url(#p15d42f09e4)" style="fill: #ff0000"/>
   </g>
   <g id="patch_80">
    <path d="M 718.65 17.28 
L 726.222857 17.28 
L 726.222857 38.904689 
L 723.49839 38.904689 
L 723.49839 128.16 
L 721.379751 128.16 
L 721.379751 38.904689 
L 718.65 38.904689 
L 718.65 17.28 
z
" clip-path="url(#p15d42f09e4)" style="fill: #ff0000"/>
   </g>
   <g id="patch_81">
    <path d="M 734.194286 118.127891 
Q 733.430551 123.143945 732.609111 125.663425 
Q 731.787672 128.16 730.911922 128.16 
Q 728.933 128.16 727.777214 113.226358 
Q 726.621429 98.292716 726.621429 72.754357 
Q 726.621429 46.91824 727.797581 32.09912 
Q 728.97543 17.28 731.023937 17.28 
Q 731.81313 17.28 732.536132 19.295584 
Q 733.260832 21.288263 733.902369 25.227812 
L 733.902369 47.330518 
Q 733.240466 42.268655 732.585351 39.77208 
Q 731.930236 37.252601 731.271726 37.252601 
Q 730.053145 37.252601 729.392938 46.460153 
Q 728.732732 55.644801 728.732732 72.754357 
Q 728.732732 89.703582 729.369177 98.956943 
Q 730.005623 108.187399 731.176684 108.187399 
Q 731.495755 108.187399 731.769003 107.660599 
Q 732.04225 107.110894 732.25949 105.965677 
L 732.25949 85.214328 
L 731.012056 85.214328 
L 731.012056 66.73051 
L 734.194286 66.73051 
L 734.194286 118.127891 
z
" clip-path="url(#p15d42f09e4)" style="fill: #ffa600"/>
   </g>
   <g id="patch_82">
    <path d="M 742.165714 120.212188 
Q 741.532258 124.151737 740.847285 126.144416 
Q 740.162313 128.16 739.416284 128.16 
Q 737.191555 128.16 735.892206 113.226358 
Q 734.592857 98.292716 734.592857 72.754357 
Q 734.592857 47.124379 735.892206 32.213642 
Q 737.191555 17.28 739.416284 17.28 
Q 740.162313 17.28 740.847285 19.295584 
Q 741.532258 21.288263 742.165714 25.227812 
L 742.165714 47.330518 
Q 741.526534 42.108325 740.906433 39.680463 
Q 740.286333 37.252601 739.601361 37.252601 
Q 738.372608 37.252601 737.668555 46.712101 
Q 736.966411 56.148697 736.966411 72.754357 
Q 736.966411 89.291303 737.668555 98.750804 
Q 738.372608 108.187399 739.601361 108.187399 
Q 740.286333 108.187399 740.906433 105.759537 
Q 741.526534 103.308771 742.165714 98.086577 
L 742.165714 120.212188 
z
" clip-path="url(#p15d42f09e4)" style="fill: #0000ff"/>
   </g>
   <g id="patch_83">
    <path d="M 747.810011 107.961114 
L 744.897611 107.961114 
L 744.437759 128.16 
L 742.564286 128.16 
L 745.239791 17.28 
L 747.461637 17.28 
L 750.137143 128.16 
L 748.265218 128.16 
L 747.810011 107.961114 
z
M 745.362109 87.382015 
L 747.340868 87.382015 
L 746.353037 43.277154 
L 745.362109 87.382015 
z
" clip-path="url(#p15d42f09e4)" style="fill: #008000"/>
   </g>
   <g id="patch_84">
    <path d="M 750.535714 17.28 
L 758.108571 17.28 
L 758.108571 38.904689 
L 755.384104 38.904689 
L 755.384104 128.16 
L 753.265465 128.16 
L 753.265465 38.904689 
L 750.535714 38.904689 
L 750.535714 17.28 
z
" clip-path="url(#p15d42f09e4)" style="fill: #ff0000"/>
   </g>
   <g id="patch_85">
    <path d="M 763.752868 107.961114 
L 760.840468 107.961114 
L 760.380616 128.16 
L 758.507143 128.16 
L 761.182648 17.28 
L 763.404495 17.28 
L 766.08 128.16 
L 764.208075 128.16 
L 763.752868 107.961114 
z
M 761.304966 87.382015 
L 763.283725 87.382015 
L 762.295894 43.277154 
L 761.304966 87.382015 
z
" clip-path="url(#p15d42f09e4)" style="fill: #008000"/>
   </g>
   <g id="patch_86">
    <path d="M 771.724296 107.961114 
L 768.811897 107.961114 
L 768.352045 128.16 
L 766.478571 128.16 
L 769.154077 17.28 
L 771.375923 17.28 
L 774.051429 128.16 
L 772.179504 128.16 
L 771.724296 107.961114 
z
M 769.276395 87.382015 
L 771.255154 87.382015 
L 770.267322 43.277154 
L 769.276395 87.382015 
z
" clip-path="url(#p15d42f09e4)" style="fill: #008000"/>
   </g>
   <g id="patch_87">
    <path d="M 779.695725 107.961114 
L 776.783326 107.961114 
L 776.323473 128.16 
L 774.45 128.16 
L 777.125505 17.28 
L 779.347352 17.28 
L 782.022857 128.16 
L 780.150932 128.16 
L 779.695725 107.961114 
z
M 777.247823 87.382015 
L 779.226582 87.382015 
L 778.238751 43.277154 
L 777.247823 87.382015 
z
" clip-path="url(#p15d42f09e4)" style="fill: #008000"/>
   </g>
   <g id="patch_88">
    <path d="M 787.667153 107.961114 
L 784.754754 107.961114 
L 784.294902 128.16 
L 782.421429 128.16 
L 785.096934 17.28 
L 787.31878 17.28 
L 789.994286 128.16 
L 788.122361 128.16 
L 787.667153 107.961114 
z
M 785.219252 87.382015 
L 787.198011 87.382015 
L 786.21018 43.277154 
L 785.219252 87.382015 
z
" clip-path="url(#p15d42f09e4)" style="fill: #008000"/>
   </g>
   <g id="patch_89">
    <path d="M 795.638582 107.961114 
L 792.726183 107.961114 
L 792.26633 128.16 
L 790.392857 128.16 
L 793.068363 17.28 
L 795.290209 17.28 
L 797.965714 128.16 
L 796.093789 128.16 
L 795.638582 107.961114 
z
M 793.19068 87.382015 
L 795.169439 87.382015 
L 794.181608 43.277154 
L 793.19068 87.382015 
z
" clip-path="url(#p15d42f09e4)" style="fill: #008000"/>
   </g>
   <g id="patch_90">
    <path d="M 803.610011 107.961114 
L 800.697611 107.961114 
L 800.237759 128.16 
L 798.364286 128.16 
L 801.039791 17.28 
L 803.261637 17.28 
L 805.937143 128.16 
L 804.065218 128.16 
L 803.610011 107.961114 
z
M 801.162109 87.382015 
L 803.140868 87.382015 
L 802.153037 43.277154 
L 801.162109 87.382015 
z
" clip-path="url(#p15d42f09e4)" style="fill: #008000"/>
   </g>
   <g id="patch_91">
    <path d="M 813.908571 120.212188 
Q 813.275115 124.151737 812.590143 126.144416 
Q 811.90517 128.16 811.159142 128.16 
Q 808.934412 128.16 807.635063 113.226358 
Q 806.335714 98.292716 806.335714 72.754357 
Q 806.335714 47.124379 807.635063 32.213642 
Q 808.934412 17.28 811.159142 17.28 
Q 811.90517 17.28 812.590143 19.295584 
Q 813.275115 21.288263 813.908571 25.227812 
L 813.908571 47.330518 
Q 813.269391 42.108325 812.649291 39.680463 
Q 812.02919 37.252601 811.344218 37.252601 
Q 810.115465 37.252601 809.411412 46.712101 
Q 808.709268 56.148697 808.709268 72.754357 
Q 808.709268 89.291303 809.411412 98.750804 
Q 810.115465 108.187399 811.344218 108.187399 
Q 812.02919 108.187399 812.649291 105.759537 
Q 813.269391 103.308771 813.908571 98.086577 
L 813.908571 120.212188 
z
" clip-path="url(#p15d42f09e4)" style="fill: #0000ff"/>
   </g>
   <g id="patch_92">
    <path d="M 819.552868 107.961114 
L 816.640468 107.961114 
L 816.180616 128.16 
L 814.307143 128.16 
L 816.982648 17.28 
L 819.204495 17.28 
L 821.88 128.16 
L 820.008075 128.16 
L 819.552868 107.961114 
z
M 817.104966 87.382015 
L 819.083725 87.382015 
L 818.095894 43.277154 
L 817.104966 87.382015 
z
" clip-path="url(#p15d42f09e4)" style="fill: #008000"/>
   </g>
   <g id="patch_93">
    <path d="M 829.851429 118.127891 
Q 829.087694 123.143945 828.266254 125.663425 
Q 827.444815 128.16 826.569065 128.16 
Q 824.590143 128.16 823.434357 113.226358 
Q 822.278571 98.292716 822.278571 72.754357 
Q 822.278571 46.91824 823.454723 32.09912 
Q 824.632573 17.28 826.68108 17.28 
Q 827.470272 17.28 828.193275 19.295584 
Q 828.917975 21.288263 829.559512 25.227812 
L 829.559512 47.330518 
Q 828.897608 42.268655 828.242493 39.77208 
Q 827.587378 37.252601 826.928869 37.252601 
Q 825.710288 37.252601 825.050081 46.460153 
Q 824.389874 55.644801 824.389874 72.754357 
Q 824.389874 89.703582 825.02632 98.956943 
Q 825.662766 108.187399 826.833827 108.187399 
Q 827.152898 108.187399 827.426146 107.660599 
Q 827.699393 107.110894 827.916633 105.965677 
L 827.916633 85.214328 
L 826.669199 85.214328 
L 826.669199 66.73051 
L 829.851429 66.73051 
L 829.851429 118.127891 
z
" clip-path="url(#p15d42f09e4)" style="fill: #ffa600"/>
   </g>
   <g id="patch_94">
    <path d="M 835.495725 107.961114 
L 832.583326 107.961114 
L 832.123473 128.16 
L 830.25 128.16 
L 832.925505 17.28 
L 835.147352 17.28 
L 837.822857 128.16 
L 835.950932 128.16 
L 835.495725 107.961114 
z
M 833.047823 87.382015 
L 835.026582 87.382015 
L 834.038751 43.277154 
L 833.047823 87.382015 
z
" clip-path="url(#p15d42f09e4)" style="fill: #008000"/>
   </g>
   <g id="patch_95">
    <path d="M 845.794286 120.212188 
Q 845.160829 124.151737 844.475857 126.144416 
Q 843.790884 128.16 843.044856 128.16 
Q 840.820126 128.16 839.520777 113.226358 
Q 838.221429 98.292716 838.221429 72.754357 
Q 838.221429 47.124379 839.520777 32.213642 
Q 840.820126 17.28 843.044856 17.28 
Q 843.790884 17.28 844.475857 19.295584 
Q 845.160829 21.288263 845.794286 25.227812 
L 845.794286 47.330518 
Q 845.155105 42.108325 844.535005 39.680463 
Q 843.914904 37.252601 843.229932 37.252601 
Q 842.001179 37.252601 841.297127 46.712101 
Q 840.594982 56.148697 840.594982 72.754357 
Q 840.594982 89.291303 841.297127 98.750804 
Q 842.001179 108.187399 843.229932 108.187399 
Q 843.914904 108.187399 844.535005 105.759537 
Q 845.155105 103.308771 845.794286 98.086577 
L 845.794286 120.212188 
z
" clip-path="url(#p15d42f09e4)" style="fill: #0000ff"/>
   </g>
   <g id="patch_96">
    <path d="M 846.192857 17.28 
L 853.765714 17.28 
L 853.765714 38.904689 
L 851.041247 38.904689 
L 851.041247 128.16 
L 848.922608 128.16 
L 848.922608 38.904689 
L 846.192857 38.904689 
L 846.192857 17.28 
z
" clip-path="url(#p15d42f09e4)" style="fill: #ff0000"/>
   </g>
   <g id="patch_97">
    <path d="M 859.410011 107.961114 
L 856.497611 107.961114 
L 856.037759 128.16 
L 854.164286 128.16 
L 856.839791 17.28 
L 859.061637 17.28 
L 861.737143 128.16 
L 859.865218 128.16 
L 859.410011 107.961114 
z
M 856.962109 87.382015 
L 858.940868 87.382015 
L 857.953037 43.277154 
L 856.962109 87.382015 
z
" clip-path="url(#p15d42f09e4)" style="fill: #008000"/>
   </g>
   <g id="patch_98">
    <path d="M 869.708571 120.212188 
Q 869.075115 124.151737 868.390143 126.144416 
Q 867.70517 128.16 866.959142 128.16 
Q 864.734412 128.16 863.435063 113.226358 
Q 862.135714 98.292716 862.135714 72.754357 
Q 862.135714 47.124379 863.435063 32.213642 
Q 864.734412 17.28 866.959142 17.28 
Q 867.70517 17.28 868.390143 19.295584 
Q 869.075115 21.288263 869.708571 25.227812 
L 869.708571 47.330518 
Q 869.069391 42.108325 868.449291 39.680463 
Q 867.82919 37.252601 867.144218 37.252601 
Q 865.915465 37.252601 865.211412 46.712101 
Q 864.509268 56.148697 864.509268 72.754357 
Q 864.509268 89.291303 865.211412 98.750804 
Q 865.915465 108.187399 867.144218 108.187399 
Q 867.82919 108.187399 868.449291 105.759537 
Q 869.069391 103.308771 869.708571 98.086577 
L 869.708571 120.212188 
z
" clip-path="url(#p15d42f09e4)" style="fill: #0000ff"/>
   </g>
   <g id="patch_99">
    <path d="M 875.352868 107.961114 
L 872.440468 107.961114 
L 871.980616 128.16 
L 870.107143 128.16 
L 872.782648 17.28 
L 875.004495 17.28 
L 877.68 128.16 
L 875.808075 128.16 
L 875.352868 107.961114 
z
M 872.904966 87.382015 
L 874.883725 87.382015 
L 873.895894 43.277154 
L 872.904966 87.382015 
z
" clip-path="url(#p15d42f09e4)" style="fill: #008000"/>
   </g>
   <g id="patch_100">
    <path d="M 878.078571 17.28 
L 885.651429 17.28 
L 885.651429 38.904689 
L 882.926961 38.904689 
L 882.926961 128.16 
L 880.808322 128.16 
L 880.808322 38.904689 
L 878.078571 38.904689 
L 878.078571 17.28 
z
" clip-path="url(#p15d42f09e4)" style="fill: #ff0000"/>
   </g>
   <g id="patch_101">
    <path d="M 891.295725 107.961114 
L 888.383326 107.961114 
L 887.923473 128.16 
L 886.05 128.16 
L 888.725505 17.28 
L 890.947352 17.28 
L 893.622857 128.16 
L 891.750932 128.16 
L 891.295725 107.961114 
z
M 888.847823 87.382015 
L 890.826582 87.382015 
L 889.838751 43.277154 
L 888.847823 87.382015 
z
" clip-path="url(#p15d42f09e4)" style="fill: #008000"/>
   </g>
   <g id="patch_102">
    <path d="M 899.267153 107.961114 
L 896.354754 107.961114 
L 895.894902 128.16 
L 894.021429 128.16 
L 896.696934 17.28 
L 898.91878 17.28 
L 901.594286 128.16 
L 899.722361 128.16 
L 899.267153 107.961114 
z
M 896.819252 87.382015 
L 898.798011 87.382015 
L 897.81018 43.277154 
L 896.819252 87.382015 
z
" clip-path="url(#p15d42f09e4)" style="fill: #008000"/>
   </g>
   <g id="patch_103">
    <path d="M 901.992857 17.28 
L 909.565714 17.28 
L 909.565714 38.904689 
L 906.841247 38.904689 
L 906.841247 128.16 
L 904.722608 128.16 
L 904.722608 38.904689 
L 901.992857 38.904689 
L 901.992857 17.28 
z
" clip-path="url(#p15d42f09e4)" style="fill: #ff0000"/>
   </g>
   <g id="patch_104">
    <path d="M 917.537143 127.491193 
Q 916.773408 127.825596 915.951968 127.993562 
Q 915.130529 128.16 914.254779 128.16 
Q 912.275857 128.16 911.120071 127.164424 
Q 909.964286 126.168848 909.964286 124.46629 
Q 909.964286 122.743883 911.140438 121.755941 
Q 912.318287 120.768 914.366794 120.768 
Q 915.155987 120.768 915.878989 120.902372 
Q 916.603689 121.035218 917.245226 121.297854 
L 917.245226 122.771368 
Q 916.583323 122.43391 915.928208 122.267472 
Q 915.273093 122.099507 914.614583 122.099507 
Q 913.396002 122.099507 912.735795 122.713344 
Q 912.075589 123.325653 912.075589 124.46629 
Q 912.075589 125.596239 912.712035 126.21313 
Q 913.348481 126.828493 914.519541 126.828493 
Q 914.838612 126.828493 915.11186 126.793373 
Q 915.385107 126.756726 915.602347 126.680378 
L 915.602347 125.296955 
L 914.354914 125.296955 
L 914.354914 124.064701 
L 917.537143 124.064701 
L 917.537143 127.491193 
z
" clip-path="url(#p15d42f09e4)" style="fill: #ffa600"/>
   </g>
   <g id="patch_105">
    <path d="M 915.210011 101.915707 
L 912.297611 101.915707 
L 911.837759 120.768 
L 909.964286 120.768 
L 912.639791 17.28 
L 914.861637 17.28 
L 917.537143 120.768 
L 915.665218 120.768 
L 915.210011 101.915707 
z
M 912.762109 82.708547 
L 914.740868 82.708547 
L 913.753037 41.54401 
L 912.762109 82.708547 
z
" clip-path="url(#p15d42f09e4)" style="fill: #008000"/>
   </g>
   <g id="patch_106">
    <path d="M 925.508571 120.212188 
Q 924.875115 124.151737 924.190143 126.144416 
Q 923.50517 128.16 922.759142 128.16 
Q 920.534412 128.16 919.235063 113.226358 
Q 917.935714 98.292716 917.935714 72.754357 
Q 917.935714 47.124379 919.235063 32.213642 
Q 920.534412 17.28 922.759142 17.28 
Q 923.50517 17.28 924.190143 19.295584 
Q 924.875115 21.288263 925.508571 25.227812 
L 925.508571 47.330518 
Q 924.869391 42.108325 924.249291 39.680463 
Q 923.62919 37.252601 922.944218 37.252601 
Q 921.715465 37.252601 921.011412 46.712101 
Q 920.309268 56.148697 920.309268 72.754357 
Q 920.309268 89.291303 921.011412 98.750804 
Q 921.715465 108.187399 922.944218 108.187399 
Q 923.62919 108.187399 924.249291 105.759537 
Q 924.869391 103.308771 925.508571 98.086577 
L 925.508571 120.212188 
z
" clip-path="url(#p15d42f09e4)" style="fill: #0000ff"/>
   </g>
   <g id="patch_107">
    <path d="M 925.907143 17.28 
L 933.48 17.28 
L 933.48 38.904689 
L 930.755533 38.904689 
L 930.755533 128.16 
L 928.636894 128.16 
L 928.636894 38.904689 
L 925.907143 38.904689 
L 925.907143 17.28 
z
" clip-path="url(#p15d42f09e4)" style="fill: #ff0000"/>
   </g>
   <g id="patch_108">
    <path d="M 941.451429 118.127891 
Q 940.687694 123.143945 939.866254 125.663425 
Q 939.044815 128.16 938.169065 128.16 
Q 936.190143 128.16 935.034357 113.226358 
Q 933.878571 98.292716 933.878571 72.754357 
Q 933.878571 46.91824 935.054723 32.09912 
Q 936.232573 17.28 938.28108 17.28 
Q 939.070272 17.28 939.793275 19.295584 
Q 940.517975 21.288263 941.159512 25.227812 
L 941.159512 47.330518 
Q 940.497608 42.268655 939.842493 39.77208 
Q 939.187378 37.252601 938.528869 37.252601 
Q 937.310288 37.252601 936.650081 46.460153 
Q 935.989874 55.644801 935.989874 72.754357 
Q 935.989874 89.703582 936.62632 98.956943 
Q 937.262766 108.187399 938.433827 108.187399 
Q 938.752898 108.187399 939.026146 107.660599 
Q 939.299393 107.110894 939.516633 105.965677 
L 939.516633 85.214328 
L 938.269199 85.214328 
L 938.269199 66.73051 
L 941.451429 66.73051 
L 941.451429 118.127891 
z
" clip-path="url(#p15d42f09e4)" style="fill: #ffa600"/>
   </g>
   <g id="patch_109">
    <path d="M 941.85 17.28 
L 949.422857 17.28 
L 949.422857 38.904689 
L 946.69839 38.904689 
L 946.69839 128.16 
L 944.579751 128.16 
L 944.579751 38.904689 
L 941.85 38.904689 
L 941.85 17.28 
z
" clip-path="url(#p15d42f09e4)" style="fill: #ff0000"/>
   </g>
   <g id="patch_110">
    <path d="M 955.067153 107.961114 
L 952.154754 107.961114 
L 951.694902 128.16 
L 949.821429 128.16 
L 952.496934 17.28 
L 954.71878 17.28 
L 957.394286 128.16 
L 955.522361 128.16 
L 955.067153 107.961114 
z
M 952.619252 87.382015 
L 954.598011 87.382015 
L 953.61018 43.277154 
L 952.619252 87.382015 
z
" clip-path="url(#p15d42f09e4)" style="fill: #008000"/>
   </g>
   <g id="patch_111">
    <path d="M 963.038582 107.961114 
L 960.126183 107.961114 
L 959.66633 128.16 
L 957.792857 128.16 
L 960.468363 17.28 
L 962.690209 17.28 
L 965.365714 128.16 
L 963.493789 128.16 
L 963.038582 107.961114 
z
M 960.59068 87.382015 
L 962.569439 87.382015 
L 961.581608 43.277154 
L 960.59068 87.382015 
z
" clip-path="url(#p15d42f09e4)" style="fill: #008000"/>
   </g>
   <g id="patch_112">
    <path d="M 973.337143 127.491193 
Q 972.573408 127.825596 971.751968 127.993562 
Q 970.930529 128.16 970.054779 128.16 
Q 968.075857 128.16 966.920071 127.164424 
Q 965.764286 126.168848 965.764286 124.46629 
Q 965.764286 122.743883 966.940438 121.755941 
Q 968.118287 120.768 970.166794 120.768 
Q 970.955987 120.768 971.678989 120.902372 
Q 972.403689 121.035218 973.045226 121.297854 
L 973.045226 122.771368 
Q 972.383323 122.43391 971.728208 122.267472 
Q 971.073093 122.099507 970.414583 122.099507 
Q 969.196002 122.099507 968.535795 122.713344 
Q 967.875589 123.325653 967.875589 124.46629 
Q 967.875589 125.596239 968.512035 126.21313 
Q 969.148481 126.828493 970.319541 126.828493 
Q 970.638612 126.828493 970.91186 126.793373 
Q 971.185107 126.756726 971.402347 126.680378 
L 971.402347 125.296955 
L 970.154914 125.296955 
L 970.154914 124.064701 
L 973.337143 124.064701 
L 973.337143 127.491193 
z
" clip-path="url(#p15d42f09e4)" style="fill: #ffa600"/>
   </g>
   <g id="patch_113">
    <path d="M 971.010011 101.915707 
L 968.097611 101.915707 
L 967.637759 120.768 
L 965.764286 120.768 
L 968.439791 17.28 
L 970.661637 17.28 
L 973.337143 120.768 
L 971.465218 120.768 
L 971.010011 101.915707 
z
M 968.562109 82.708547 
L 970.540868 82.708547 
L 969.553037 41.54401 
L 968.562109 82.708547 
z
" clip-path="url(#p15d42f09e4)" style="fill: #008000"/>
   </g>
   <g id="patch_114">
    <path d="M 978.981439 107.961114 
L 976.06904 107.961114 
L 975.609187 128.16 
L 973.735714 128.16 
L 976.41122 17.28 
L 978.633066 17.28 
L 981.308571 128.16 
L 979.436647 128.16 
L 978.981439 107.961114 
z
M 976.533537 87.382015 
L 978.512297 87.382015 
L 977.524465 43.277154 
L 976.533537 87.382015 
z
" clip-path="url(#p15d42f09e4)" style="fill: #008000"/>
   </g>
   <g id="patch_115">
    <path d="M 989.28 120.212188 
Q 988.646544 124.151737 987.961571 126.144416 
Q 987.276599 128.16 986.53057 128.16 
Q 984.305841 128.16 983.006492 113.226358 
Q 981.707143 98.292716 981.707143 72.754357 
Q 981.707143 47.124379 983.006492 32.213642 
Q 984.305841 17.28 986.53057 17.28 
Q 987.276599 17.28 987.961571 19.295584 
Q 988.646544 21.288263 989.28 25.227812 
L 989.28 47.330518 
Q 988.64082 42.108325 988.020719 39.680463 
Q 987.400619 37.252601 986.715646 37.252601 
Q 985.486893 37.252601 984.782841 46.712101 
Q 984.080696 56.148697 984.080696 72.754357 
Q 984.080696 89.291303 984.782841 98.750804 
Q 985.486893 108.187399 986.715646 108.187399 
Q 987.400619 108.187399 988.020719 105.759537 
Q 988.64082 103.308771 989.28 98.086577 
L 989.28 120.212188 
z
" clip-path="url(#p15d42f09e4)" style="fill: #0000ff"/>
   </g>
   <g id="patch_116">
    <path d="M 994.924296 107.961114 
L 992.011897 107.961114 
L 991.552045 128.16 
L 989.678571 128.16 
L 992.354077 17.28 
L 994.575923 17.28 
L 997.251429 128.16 
L 995.379504 128.16 
L 994.924296 107.961114 
z
M 992.476395 87.382015 
L 994.455154 87.382015 
L 993.467322 43.277154 
L 992.476395 87.382015 
z
" clip-path="url(#p15d42f09e4)" style="fill: #008000"/>
   </g>
   <g id="patch_117">
    <path d="M 1005.222857 120.212188 
Q 1004.589401 124.151737 1003.904428 126.144416 
Q 1003.219456 128.16 1002.473427 128.16 
Q 1000.248698 128.16 998.949349 113.226358 
Q 997.65 98.292716 997.65 72.754357 
Q 997.65 47.124379 998.949349 32.213642 
Q 1000.248698 17.28 1002.473427 17.28 
Q 1003.219456 17.28 1003.904428 19.295584 
Q 1004.589401 21.288263 1005.222857 25.227812 
L 1005.222857 47.330518 
Q 1004.583677 42.108325 1003.963576 39.680463 
Q 1003.343476 37.252601 1002.658503 37.252601 
Q 1001.429751 37.252601 1000.725698 46.712101 
Q 1000.023554 56.148697 1000.023554 72.754357 
Q 1000.023554 89.291303 1000.725698 98.750804 
Q 1001.429751 108.187399 1002.658503 108.187399 
Q 1003.343476 108.187399 1003.963576 105.759537 
Q 1004.583677 103.308771 1005.222857 98.086577 
L 1005.222857 120.212188 
z
" clip-path="url(#p15d42f09e4)" style="fill: #0000ff"/>
   </g>
   <g id="patch_118">
    <path d="M 1010.867153 107.961114 
L 1007.954754 107.961114 
L 1007.494902 128.16 
L 1005.621429 128.16 
L 1008.296934 17.28 
L 1010.51878 17.28 
L 1013.194286 128.16 
L 1011.322361 128.16 
L 1010.867153 107.961114 
z
M 1008.419252 87.382015 
L 1010.398011 87.382015 
L 1009.41018 43.277154 
L 1008.419252 87.382015 
z
" clip-path="url(#p15d42f09e4)" style="fill: #008000"/>
   </g>
   <g id="patch_119">
    <path d="M 1018.838582 107.961114 
L 1015.926183 107.961114 
L 1015.46633 128.16 
L 1013.592857 128.16 
L 1016.268363 17.28 
L 1018.490209 17.28 
L 1021.165714 128.16 
L 1019.293789 128.16 
L 1018.838582 107.961114 
z
M 1016.39068 87.382015 
L 1018.369439 87.382015 
L 1017.381608 43.277154 
L 1016.39068 87.382015 
z
" clip-path="url(#p15d42f09e4)" style="fill: #008000"/>
   </g>
   <g id="patch_120">
    <path d="M 1029.137143 120.212188 
Q 1028.503686 124.151737 1027.818714 126.144416 
Q 1027.133741 128.16 1026.387713 128.16 
Q 1024.162983 128.16 1022.863635 113.226358 
Q 1021.564286 98.292716 1021.564286 72.754357 
Q 1021.564286 47.124379 1022.863635 32.213642 
Q 1024.162983 17.28 1026.387713 17.28 
Q 1027.133741 17.28 1027.818714 19.295584 
Q 1028.503686 21.288263 1029.137143 25.227812 
L 1029.137143 47.330518 
Q 1028.497962 42.108325 1027.877862 39.680463 
Q 1027.257762 37.252601 1026.572789 37.252601 
Q 1025.344036 37.252601 1024.639984 46.712101 
Q 1023.937839 56.148697 1023.937839 72.754357 
Q 1023.937839 89.291303 1024.639984 98.750804 
Q 1025.344036 108.187399 1026.572789 108.187399 
Q 1027.257762 108.187399 1027.877862 105.759537 
Q 1028.497962 103.308771 1029.137143 98.086577 
L 1029.137143 120.212188 
z
" clip-path="url(#p15d42f09e4)" style="fill: #0000ff"/>
   </g>
   <g id="patch_121">
    <path d="M 1034.781439 107.961114 
L 1031.86904 107.961114 
L 1031.409187 128.16 
L 1029.535714 128.16 
L 1032.21122 17.28 
L 1034.433066 17.28 
L 1037.108571 128.16 
L 1035.236647 128.16 
L 1034.781439 107.961114 
z
M 1032.333537 87.382015 
L 1034.312297 87.382015 
L 1033.324465 43.277154 
L 1032.333537 87.382015 
z
" clip-path="url(#p15d42f09e4)" style="fill: #008000"/>
   </g>
   <g id="patch_122">
    <path d="M 1037.507143 17.28 
L 1045.08 17.28 
L 1045.08 38.904689 
L 1042.355533 38.904689 
L 1042.355533 128.16 
L 1040.236894 128.16 
L 1040.236894 38.904689 
L 1037.507143 38.904689 
L 1037.507143 17.28 
z
" clip-path="url(#p15d42f09e4)" style="fill: #ff0000"/>
   </g>
   <g id="patch_123">
    <path d="M 1050.724296 107.961114 
L 1047.811897 107.961114 
L 1047.352045 128.16 
L 1045.478571 128.16 
L 1048.154077 17.28 
L 1050.375923 17.28 
L 1053.051429 128.16 
L 1051.179504 128.16 
L 1050.724296 107.961114 
z
M 1048.276395 87.382015 
L 1050.255154 87.382015 
L 1049.267322 43.277154 
L 1048.276395 87.382015 
z
" clip-path="url(#p15d42f09e4)" style="fill: #008000"/>
   </g>
   <g id="patch_124">
    <path d="M 1053.45 17.28 
L 1061.022857 17.28 
L 1061.022857 38.904689 
L 1058.29839 38.904689 
L 1058.29839 128.16 
L 1056.179751 128.16 
L 1056.179751 38.904689 
L 1053.45 38.904689 
L 1053.45 17.28 
z
" clip-path="url(#p15d42f09e4)" style="fill: #ff0000"/>
   </g>
   <g id="patch_125">
    <path d="M 1061.421429 120.768 
L 1068.994286 120.768 
L 1068.994286 122.209646 
L 1066.269818 122.209646 
L 1066.269818 128.16 
L 1064.151179 128.16 
L 1064.151179 122.209646 
L 1061.421429 122.209646 
L 1061.421429 120.768 
z
" clip-path="url(#p15d42f09e4)" style="fill: #ff0000"/>
   </g>
   <g id="patch_126">
    <path d="M 1068.994286 119.430385 
Q 1068.230551 120.099193 1067.409111 120.435123 
Q 1066.587672 120.768 1065.711922 120.768 
Q 1063.733 120.768 1062.577214 118.776848 
Q 1061.421429 116.785696 1061.421429 113.380581 
Q 1061.421429 109.935765 1062.597581 107.959883 
Q 1063.77543 105.984 1065.823937 105.984 
Q 1066.61313 105.984 1067.336132 106.252744 
Q 1068.060832 106.518435 1068.702369 107.043708 
L 1068.702369 109.990736 
Q 1068.040466 109.315821 1067.385351 108.982944 
Q 1066.730236 108.647013 1066.071726 108.647013 
Q 1064.853145 108.647013 1064.192938 109.874687 
Q 1063.532732 111.099307 1063.532732 113.380581 
Q 1063.532732 115.640478 1064.169177 116.874259 
Q 1064.805623 118.104987 1065.976684 118.104987 
Q 1066.295755 118.104987 1066.569003 118.034747 
Q 1066.84225 117.961453 1067.05949 117.808757 
L 1067.05949 115.04191 
L 1065.812056 115.04191 
L 1065.812056 112.577401 
L 1068.994286 112.577401 
L 1068.994286 119.430385 
z
" clip-path="url(#p15d42f09e4)" style="fill: #ffa600"/>
   </g>
   <g id="patch_127">
    <path d="M 1068.994286 99.62575 
Q 1068.360829 102.77739 1067.675857 104.371533 
Q 1066.990884 105.984 1066.244856 105.984 
Q 1064.020126 105.984 1062.720777 94.037087 
Q 1061.421429 82.090173 1061.421429 61.659485 
Q 1061.421429 41.155503 1062.720777 29.226913 
Q 1064.020126 17.28 1066.244856 17.28 
Q 1066.990884 17.28 1067.675857 18.892467 
Q 1068.360829 20.48661 1068.994286 23.63825 
L 1068.994286 41.320415 
Q 1068.355105 37.14266 1067.735005 35.20037 
Q 1067.114904 33.258081 1066.429932 33.258081 
Q 1065.201179 33.258081 1064.497127 40.825681 
Q 1063.794982 48.374957 1063.794982 61.659485 
Q 1063.794982 74.889043 1064.497127 82.456643 
Q 1065.201179 90.005919 1066.429932 90.005919 
Q 1067.114904 90.005919 1067.735005 88.06363 
Q 1068.355105 86.103017 1068.994286 81.925262 
L 1068.994286 99.62575 
z
" clip-path="url(#p15d42f09e4)" style="fill: #0000ff"/>
   </g>
   <g id="patch_128">
    <path d="M 1076.965714 120.212188 
Q 1076.332258 124.151737 1075.647285 126.144416 
Q 1074.962313 128.16 1074.216284 128.16 
Q 1071.991555 128.16 1070.692206 113.226358 
Q 1069.392857 98.292716 1069.392857 72.754357 
Q 1069.392857 47.124379 1070.692206 32.213642 
Q 1071.991555 17.28 1074.216284 17.28 
Q 1074.962313 17.28 1075.647285 19.295584 
Q 1076.332258 21.288263 1076.965714 25.227812 
L 1076.965714 47.330518 
Q 1076.326534 42.108325 1075.706433 39.680463 
Q 1075.086333 37.252601 1074.401361 37.252601 
Q 1073.172608 37.252601 1072.468555 46.712101 
Q 1071.766411 56.148697 1071.766411 72.754357 
Q 1071.766411 89.291303 1072.468555 98.750804 
Q 1073.172608 108.187399 1074.401361 108.187399 
Q 1075.086333 108.187399 1075.706433 105.759537 
Q 1076.326534 103.308771 1076.965714 98.086577 
L 1076.965714 120.212188 
z
" clip-path="url(#p15d42f09e4)" style="fill: #0000ff"/>
   </g>
   <g id="patch_129">
    <path d="M 1082.610011 107.961114 
L 1079.697611 107.961114 
L 1079.237759 128.16 
L 1077.364286 128.16 
L 1080.039791 17.28 
L 1082.261637 17.28 
L 1084.937143 128.16 
L 1083.065218 128.16 
L 1082.610011 107.961114 
z
M 1080.162109 87.382015 
L 1082.140868 87.382015 
L 1081.153037 43.277154 
L 1080.162109 87.382015 
z
" clip-path="url(#p15d42f09e4)" style="fill: #008000"/>
   </g>
   <g id="patch_130">
    <path d="M 1092.908571 118.127891 
Q 1092.144836 123.143945 1091.323397 125.663425 
Q 1090.501957 128.16 1089.626208 128.16 
Q 1087.647286 128.16 1086.4915 113.226358 
Q 1085.335714 98.292716 1085.335714 72.754357 
Q 1085.335714 46.91824 1086.511866 32.09912 
Q 1087.689715 17.28 1089.738222 17.28 
Q 1090.527415 17.28 1091.250418 19.295584 
Q 1091.975118 21.288263 1092.616655 25.227812 
L 1092.616655 47.330518 
Q 1091.954751 42.268655 1091.299636 39.77208 
Q 1090.644521 37.252601 1089.986012 37.252601 
Q 1088.76743 37.252601 1088.107224 46.460153 
Q 1087.447017 55.644801 1087.447017 72.754357 
Q 1087.447017 89.703582 1088.083463 98.956943 
Q 1088.719909 108.187399 1089.890969 108.187399 
Q 1090.210041 108.187399 1090.483288 107.660599 
Q 1090.756536 107.110894 1090.973776 105.965677 
L 1090.973776 85.214328 
L 1089.726342 85.214328 
L 1089.726342 66.73051 
L 1092.908571 66.73051 
L 1092.908571 118.127891 
z
" clip-path="url(#p15d42f09e4)" style="fill: #ffa600"/>
   </g>
   <g id="patch_131">
    <path d="M 1093.307143 17.28 
L 1100.88 17.28 
L 1100.88 38.904689 
L 1098.155533 38.904689 
L 1098.155533 128.16 
L 1096.036894 128.16 
L 1096.036894 38.904689 
L 1093.307143 38.904689 
L 1093.307143 17.28 
z
" clip-path="url(#p15d42f09e4)" style="fill: #ff0000"/>
   </g>
   <g id="patch_132">
    <path d="M 1108.851429 120.212188 
Q 1108.217972 124.151737 1107.533 126.144416 
Q 1106.848027 128.16 1106.101999 128.16 
Q 1103.877269 128.16 1102.57792 113.226358 
Q 1101.278571 98.292716 1101.278571 72.754357 
Q 1101.278571 47.124379 1102.57792 32.213642 
Q 1103.877269 17.28 1106.101999 17.28 
Q 1106.848027 17.28 1107.533 19.295584 
Q 1108.217972 21.288263 1108.851429 25.227812 
L 1108.851429 47.330518 
Q 1108.212248 42.108325 1107.592148 39.680463 
Q 1106.972047 37.252601 1106.287075 37.252601 
Q 1105.058322 37.252601 1104.35427 46.712101 
Q 1103.652125 56.148697 1103.652125 72.754357 
Q 1103.652125 89.291303 1104.35427 98.750804 
Q 1105.058322 108.187399 1106.287075 108.187399 
Q 1106.972047 108.187399 1107.592148 105.759537 
Q 1108.212248 103.308771 1108.851429 98.086577 
L 1108.851429 120.212188 
z
" clip-path="url(#p15d42f09e4)" style="fill: #0000ff"/>
   </g>
   <g id="patch_133">
    <path d="M 1114.495725 107.961114 
L 1111.583326 107.961114 
L 1111.123473 128.16 
L 1109.25 128.16 
L 1111.925505 17.28 
L 1114.147352 17.28 
L 1116.822857 128.16 
L 1114.950932 128.16 
L 1114.495725 107.961114 
z
M 1112.047823 87.382015 
L 1114.026582 87.382015 
L 1113.038751 43.277154 
L 1112.047823 87.382015 
z
" clip-path="url(#p15d42f09e4)" style="fill: #008000"/>
   </g>
   <g id="patch_134">
    <path d="M 1124.794286 120.212188 
Q 1124.160829 124.151737 1123.475857 126.144416 
Q 1122.790884 128.16 1122.044856 128.16 
Q 1119.820126 128.16 1118.520777 113.226358 
Q 1117.221429 98.292716 1117.221429 72.754357 
Q 1117.221429 47.124379 1118.520777 32.213642 
Q 1119.820126 17.28 1122.044856 17.28 
Q 1122.790884 17.28 1123.475857 19.295584 
Q 1124.160829 21.288263 1124.794286 25.227812 
L 1124.794286 47.330518 
Q 1124.155105 42.108325 1123.535005 39.680463 
Q 1122.914904 37.252601 1122.229932 37.252601 
Q 1121.001179 37.252601 1120.297127 46.712101 
Q 1119.594982 56.148697 1119.594982 72.754357 
Q 1119.594982 89.291303 1120.297127 98.750804 
Q 1121.001179 108.187399 1122.229932 108.187399 
Q 1122.914904 108.187399 1123.535005 105.759537 
Q 1124.155105 103.308771 1124.794286 98.086577 
L 1124.794286 120.212188 
z
" clip-path="url(#p15d42f09e4)" style="fill: #0000ff"/>
   </g>
   <g id="patch_135">
    <path d="M 1125.192857 17.28 
L 1132.765714 17.28 
L 1132.765714 38.904689 
L 1130.041247 38.904689 
L 1130.041247 128.16 
L 1127.922608 128.16 
L 1127.922608 38.904689 
L 1125.192857 38.904689 
L 1125.192857 17.28 
z
" clip-path="url(#p15d42f09e4)" style="fill: #ff0000"/>
   </g>
   <g id="patch_136">
    <path d="M 1138.410011 107.961114 
L 1135.497611 107.961114 
L 1135.037759 128.16 
L 1133.164286 128.16 
L 1135.839791 17.28 
L 1138.061637 17.28 
L 1140.737143 128.16 
L 1138.865218 128.16 
L 1138.410011 107.961114 
z
M 1135.962109 87.382015 
L 1137.940868 87.382015 
L 1136.953037 43.277154 
L 1135.962109 87.382015 
z
" clip-path="url(#p15d42f09e4)" style="fill: #008000"/>
   </g>
   <g id="patch_137">
    <path d="M 1141.135714 17.28 
L 1148.708571 17.28 
L 1148.708571 38.904689 
L 1145.984104 38.904689 
L 1145.984104 128.16 
L 1143.865465 128.16 
L 1143.865465 38.904689 
L 1141.135714 38.904689 
L 1141.135714 17.28 
z
" clip-path="url(#p15d42f09e4)" style="fill: #ff0000"/>
   </g>
   <g id="patch_138">
    <path d="M 1149.107143 120.768 
L 1156.68 120.768 
L 1156.68 122.209646 
L 1153.955533 122.209646 
L 1153.955533 128.16 
L 1151.836894 128.16 
L 1151.836894 122.209646 
L 1149.107143 122.209646 
L 1149.107143 120.768 
z
" clip-path="url(#p15d42f09e4)" style="fill: #ff0000"/>
   </g>
   <g id="patch_139">
    <path d="M 1156.68 111.404698 
Q 1155.916265 116.086349 1155.094826 118.437863 
Q 1154.273386 120.768 1153.397637 120.768 
Q 1151.418714 120.768 1150.262929 106.829934 
Q 1149.107143 92.891869 1149.107143 69.056066 
Q 1149.107143 44.942357 1150.283295 31.111179 
Q 1151.461144 17.28 1153.509651 17.28 
Q 1154.298844 17.28 1155.021846 19.161211 
Q 1155.746546 21.021045 1156.388083 24.697958 
L 1156.388083 45.327151 
Q 1155.72618 40.602745 1155.071065 38.272608 
Q 1154.41595 35.921094 1153.757441 35.921094 
Q 1152.538859 35.921094 1151.878652 44.514809 
Q 1151.218446 53.087147 1151.218446 69.056066 
Q 1151.218446 84.875343 1151.854892 93.511813 
Q 1152.491338 102.126906 1153.662398 102.126906 
Q 1153.98147 102.126906 1154.254717 101.635226 
Q 1154.527964 101.122168 1154.745205 100.053298 
L 1154.745205 80.685372 
L 1153.497771 80.685372 
L 1153.497771 63.43381 
L 1156.68 63.43381 
L 1156.68 111.404698 
z
" clip-path="url(#p15d42f09e4)" style="fill: #ffa600"/>
   </g>
  </g>
 </g>
 <defs>
  <clipPath id="p15d42f09e4">
   <rect x="160.65" y="17.28" width="996.03" height="110.88"/>
  </clipPath>
 </defs>
</svg>
